<?xml version="1.0" encoding="UTF-8" standalone="no"?>
<svg width="200px" height="200px" viewBox="0 0 200 200" version="1.1" xmlns="http://www.w3.org/2000/svg" xmlns:xlink="http://www.w3.org/1999/xlink">
    <!-- Generator: Sketch 39.1 (31720) - http://www.bohemiancoding.com/sketch -->
    <title>celebrate</title>
    <desc>Created with Sketch.</desc>
    <defs>
        <polygon id="path-1" points="92.4031957 24.9431 92.4031957 0.193809453 0.125730978 0.193809453 0.125730978 24.9431"></polygon>
        <polygon id="path-3" points="0 168.8362 177.952109 168.8362 177.952109 0 0 0"></polygon>
    </defs>
    <g id="Corp-Site-Index" stroke="none" stroke-width="1" fill="none" fill-rule="evenodd">
        <g id="celebrate">
            <g id="Page-1" transform="translate(11.000000, 19.000000)">
                <path d="M88.1171951,95.08005 C104.09151,116.70165 112.461046,137.63295 106.810929,141.83195 C101.160812,146.03095 83.631062,131.90645 67.6567467,110.28485 C51.6837277,88.66325 43.3141924,67.73195 48.9643092,63.53295 C54.6131299,59.33395 72.1428799,73.45845 88.1171951,95.08005 L88.1171951,95.08005 Z" id="Fill-1" fill-opacity="0.5" fill="#369ECC"></path>
                <polygon id="Fill-3" fill-opacity="0.25" fill="#369ECC" points="45.6932299 67.2633 7.11844728 149.7223 7.33361576 159.9052 15.3272543 164.9518 108.112828 142.6932 88.9939418 133.6881 68.6307082 113.7825 51.2889065 84.4948"></polygon>
                <path d="M15.4751503,167.55206 C15.3546041,167.55206 15.2353541,167.54296 15.1174003,167.52606 C10.6779302,166.90596 7.36096549,165.07556 5.25853614,162.08686 C1.9610144,157.39906 3.08870462,151.66086 3.13796005,151.41906 C3.18073451,151.21626 3.24554429,151.01866 3.33498179,150.83146 L45.4872644,61.50326 C46.1003649,60.20456 47.6467264,59.65076 48.9390334,60.26566 C50.2326367,60.87926 50.7861122,62.42886 50.1743079,63.72756 L8.17886495,152.72166 C8.06091114,153.61996 7.81074538,156.72436 9.51524266,159.11896 C10.6908921,160.76736 12.6455552,161.83726 15.3338649,162.29876 L105.883501,138.10706 C107.265245,137.73656 108.687172,138.56206 109.055292,139.95046 C109.423411,141.33756 108.601623,142.76236 107.217286,143.13156 L16.142691,167.46496 C15.9249302,167.52346 15.7006883,167.55206 15.4751503,167.55206" id="Fill-5" fill="#369ECC"></path>
                <path d="M104.055606,143.96161 C94.5467144,143.96291 78.1615052,128.76331 65.0647443,111.36411 C49.8331492,91.12961 38.6729046,67.42281 46.8104209,61.25951 C53.3678747,56.29871 65.937084,66.62461 72.8458068,73.22341 C73.8827633,74.21271 73.9229454,75.85851 72.9352443,76.89851 C71.9488394,77.93981 70.3065595,77.97881 69.2708992,76.98821 C58.1145432,66.33471 51.4870948,64.23261 49.9342524,65.41041 C47.1318774,67.53201 51.3911764,84.57111 69.2009046,108.23111 C87.0171139,131.89501 102.187788,140.66351 104.988867,138.54451 C106.561152,137.35371 106.33691,130.30381 99.0419209,116.45751 C98.373084,115.18741 98.8565649,113.61441 100.122948,112.94361 C101.389331,112.27151 102.959024,112.75901 103.626565,114.02781 C108.134733,122.58831 114.715519,137.69431 108.112698,142.69281 C106.972046,143.55601 105.60456,143.96031 104.055606,143.96161" id="Fill-7" fill="#369ECC"></path>
                <path d="M82.1934514,87.09532 C84.0664541,89.33782 85.9381606,91.69732 87.789128,94.15692 C89.7658264,96.78292 91.6271633,99.39982 93.3601769,101.98032" id="Fill-9" fill="#369ECC"></path>
                <path d="M93.3619916,104.58071 C92.5272416,104.58071 91.7106383,104.17771 91.2090106,103.43281 C89.4850704,100.86531 87.6379916,98.27051 85.719622,95.72381 C83.9269834,93.34091 82.0708313,90.99961 80.2069019,88.76491 C79.2878992,87.66251 79.4317769,86.02321 80.5296546,85.10151 C81.6275323,84.18111 83.2620351,84.32411 84.1810378,85.42651 C86.1019997,87.72881 88.0125921,90.13901 89.8583747,92.58951 C91.8324807,95.21161 93.7327035,97.88311 95.5097878,100.52861 C96.3095405,101.71941 95.9945649,103.33531 94.8072497,104.13741 C94.3626546,104.43771 93.8597307,104.58071 93.3619916,104.58071" id="Fill-11" fill="#369ECC"></path>
                <g id="Group-15" transform="translate(85.548913, 92.136200)">
                    <mask id="mask-2" fill="white">
                        <use xlink:href="#path-1"></use>
                    </mask>
                    <g id="Clip-14"></g>
                    <path d="M1.6980163,24.9431 L0.125730978,22.8761 C0.213872283,22.8072 9.16280707,16.0056 21.6036929,9.9359 C33.1527962,4.3017 50.1796223,-1.8473 65.7248967,0.8476 C76.8345897,2.7742 85.8120408,8.9037 92.4044918,19.0645 L90.2320679,20.4828 C84.0479185,10.9538 75.657644,5.2104 65.2906712,3.4112 C36.7497391,-1.5379 2.04539674,24.6779 1.6980163,24.9431" id="Fill-13" fill="#369ECC" mask="url(#mask-2)"></path>
                </g>
                <path d="M64.5786709,88.38154 L64.3427633,85.79194 L64.4607171,87.08674 L64.3375785,85.79194 C64.5566356,85.77114 86.3029101,83.14124 97.2389128,41.59194 L99.7457552,42.25624 C88.3029399,85.73084 65.5417443,88.29444 64.5786709,88.38154" id="Fill-16" fill="#369ECC"></path>
                <path d="M111.570818,77.82528 C110.787916,75.34228 107.098943,62.80508 111.251954,59.73838 C113.87027,57.80658 117.637014,60.43258 118.874881,61.29578 C121.889832,63.39918 124.212615,64.14018 125.409003,63.36928 C127.25349,62.18498 127.200346,57.41268 126.723346,54.55008 C125.690278,52.44018 123.008449,46.27688 125.663058,43.90958 C127.620313,42.16368 131.20559,43.17378 137.288636,47.18558 C143.445566,51.24548 145.505221,50.60068 146.106655,50.13528 C147.936884,48.71048 146.69124,42.87868 145.799457,40.27738 L148.253155,39.43238 C148.592759,40.42948 151.472905,49.24998 147.694495,52.18928 C145.366528,54.00018 141.49868,53.07198 135.862821,49.35788 C128.815405,44.70778 127.438846,45.80368 127.385702,45.85178 C126.553544,46.59408 127.619017,50.53438 129.129085,53.56078 L129.245742,53.91308 C129.410359,54.83868 130.745441,63.02608 126.808895,65.55718 C124.58203,66.98978 121.50227,66.29428 117.393329,63.43038 C115.214424,61.90938 113.489188,61.31008 112.787946,61.83268 C111.016047,63.14048 112.059484,70.74678 114.041367,77.04138 L111.570818,77.82528 Z" id="Fill-18" fill="#369ECC"></path>
                <path d="M154.573146,168.30736 C153.913383,168.30736 153.276951,168.18126 152.683293,167.89266 C150.035165,166.60176 149.15116,162.70956 149.980725,155.99766 C151.017682,147.59836 149.429842,146.84956 149.361143,146.82356 C148.334557,146.38806 145.279423,149.10376 143.240508,151.80126 L142.97738,152.06256 C142.222994,152.62026 135.494442,157.44326 131.486605,155.02266 C129.219559,153.65376 128.479432,150.57536 129.222152,145.61586 C129.617491,142.98206 129.389361,141.16856 128.614236,140.76556 C126.672535,139.75286 120.322472,144.05456 115.569323,148.62276 L113.774092,146.74686 C115.648391,144.94636 125.222092,136.07906 129.806736,138.45676 C132.692067,139.95566 132.011565,144.50566 131.787323,146.00196 C131.240328,149.64716 131.608448,152.05996 132.824279,152.79576 C134.701171,153.93196 138.942323,151.77006 141.292326,150.07746 C142.720733,148.21196 147.039657,143.07566 150.335883,144.41336 C152.763657,145.40136 153.448048,149.07256 152.552377,156.31746 C151.646336,163.65466 153.134369,165.22116 153.816168,165.55396 C155.70991,166.48606 160.034018,163.39986 162.49679,160.91556 L164.336092,162.74856 C163.698364,163.39336 158.696345,168.30736 154.573146,168.30736" id="Fill-20" fill="#369ECC"></path>
                <path d="M65.3064848,47.1718 C64.0478788,47.1718 55.0289495,47.0132 53.489069,42.5438 C52.5272918,39.7527 54.6452755,36.3753 59.9635663,32.2179 C66.619531,27.014 66.0245772,25.3591 65.9960609,25.2915 C65.5631315,24.2619 61.498262,24.0097 58.1566696,24.4712 L57.9726098,24.4959 L57.7859576,24.4686 C56.8591777,24.3282 48.6996261,22.9658 47.5745283,18.4132 C46.9368,15.8366 48.5842647,13.1352 52.607656,10.1543 C54.7437864,8.5722 55.8598109,7.1292 55.595387,6.2946 C54.9304386,4.1925 47.4138,2.7404 40.8304223,2.6 L40.8861587,-2.84217094e-14 C43.4811424,0.0546 56.5053163,0.5772 58.0659359,5.5068 C59.0510446,8.6138 55.3594793,11.3477 54.1475364,12.246 C51.1896179,14.4365 49.7495446,16.4047 50.090444,17.7866 C50.6166995,19.9186 55.1391261,21.4006 57.9946451,21.8686 C60.3226125,21.5644 67.0019087,20.9989 68.3836533,24.2788 C69.4037592,26.6981 67.2987375,29.7804 61.557887,34.268 C55.7444495,38.8128 55.6913054,40.976 55.9388788,41.6949 C56.6245663,43.6839 61.8028679,44.5718 65.2935228,44.5718 L65.3466668,44.5718 L65.3557402,47.1718 L65.3064848,47.1718 Z" id="Fill-22" fill="#369ECC"></path>
                <mask id="mask-4" fill="white">
                    <use xlink:href="#path-3"></use>
                </mask>
                <g id="Clip-25"></g>
                <polygon id="Fill-24" fill="#369ECC" mask="url(#mask-4)" points="98.4927228 20.8936 103.992481 20.8936 103.992481 15.3777 98.4927228 15.3777"></polygon>
                <polygon id="Fill-26" fill="#EB2026" mask="url(#mask-4)" points="22.8687799 20.8936 28.368538 20.8936 28.368538 15.3777 22.8687799 15.3777"></polygon>
                <polygon id="Fill-27" fill="#369ECC" mask="url(#mask-4)" points="0 70.0219 5.49975815 70.0219 5.49975815 64.506 0 64.506"></polygon>
                <polygon id="Fill-28" fill="#EB2026" mask="url(#mask-4)" points="168.278212 90.97153 164.056502 87.43683 167.580858 83.20143 171.802568 86.73743"></polygon>
                <polygon id="Fill-29" fill="#369ECC" mask="url(#mask-4)" points="144.811237 126.48155 140.589528 122.94685 144.113884 118.71145 148.335593 122.24745"></polygon>
                <polygon id="Fill-30" fill="#EB2026" mask="url(#mask-4)" points="101.591149 168.8362 97.3694397 165.3015 100.893796 161.0661 105.115505 164.6021"></polygon>
            </g>
        </g>
    </g>
</svg>