<?xml version="1.0" encoding="UTF-8" standalone="no"?>
<svg width="200px" height="200px" viewBox="0 0 200 200" version="1.1" xmlns="http://www.w3.org/2000/svg" xmlns:xlink="http://www.w3.org/1999/xlink">
    <!-- Generator: Sketch 39.1 (31720) - http://www.bohemiancoding.com/sketch -->
    <title>pager</title>
    <desc>Created with Sketch.</desc>
    <defs></defs>
    <g id="Corp-Site-Index" stroke="none" stroke-width="1" fill="none" fill-rule="evenodd">
        <g id="pager">
            <path d="M177.794657,128.339461 L52.8583386,161.707101 C48.0698386,162.985229 43.1537932,160.128563 41.879725,155.323412 L21.383725,78.0960732 C20.1096568,73.2909216 22.9586341,68.3605997 27.7471341,67.0810803 L152.682066,33.7134405 C157.471952,32.4353119 162.386611,35.2919779 163.662066,40.0971295 L184.15668,117.324468 C185.432134,122.12962 182.583157,127.059942 177.794657,128.339461" id="Fill-1" fill-opacity="0.25" fill="#369ECC"></path>
            <path d="M155.001175,36.1895886 C154.466039,36.1895886 153.92813,36.2591277 153.397152,36.4009874 L28.4608341,69.7700181 C26.8595841,70.1969882 25.5203568,71.2233852 24.6913114,72.6614537 C23.8608795,74.0981315 23.637675,75.7740237 24.064675,77.3803768 L44.5592886,154.607715 C44.9862886,156.214069 46.009425,157.557564 47.4415386,158.390642 C48.8736523,159.22233 50.5469932,159.444855 52.1454705,159.019276 L177.081789,125.651636 C178.681652,125.223275 180.02088,124.196878 180.851311,122.7602 C181.680357,121.322132 181.903561,119.646239 181.477948,118.041277 L160.981948,40.8125477 C160.556334,39.2061946 159.533198,37.86409 158.099698,37.0310117 C157.143107,36.4746989 156.07838,36.1895886 155.001175,36.1895886 M50.5303568,164.796584 C48.4882432,164.796584 46.4752432,164.25696 44.6604932,163.204138 C41.9459932,161.625601 40.0078568,159.08047 39.2009932,156.037439 L18.7049932,78.8114914 C17.8981295,75.7698513 18.3195841,72.596087 19.8931068,69.8715452 C21.4666295,67.1483942 24.0022886,65.2026903 27.0328795,64.3932552 L151.969198,31.0256153 C154.999789,30.2147895 158.164857,30.6389779 160.880743,32.2175154 C163.595243,33.7960529 165.534766,36.339793 166.34163,39.3814331 L186.836243,116.610162 C187.643107,119.650412 187.221652,122.825567 185.64813,125.548718 C184.075993,128.271869 181.540334,130.217573 178.508357,131.027008 L53.5720386,164.394648 C52.5655386,164.663069 51.5437886,164.796584 50.5303568,164.796584" id="Fill-3" fill="#369ECC"></path>
            <path d="M55.0029045,126.648131 L58.5034727,139.839698 L104.673541,127.510416 L101.172973,114.317458 L55.0029045,126.648131 Z M57.5191545,142.932797 C56.9077682,142.932797 56.3462909,142.522516 56.1813136,141.899446 L51.9667682,126.019498 C51.8724955,125.663457 51.9224045,125.285165 52.1067909,124.965285 C52.2911773,124.646796 52.5947909,124.413144 52.9510864,124.317181 L101.799609,111.270255 C102.153132,111.175682 102.531609,111.227141 102.850473,111.412115 C103.16795,111.597089 103.400859,111.90028 103.496518,112.25771 L107.711064,128.139049 C107.80395,128.495089 107.754041,128.874773 107.569655,129.193262 C107.385268,129.513142 107.081655,129.746793 106.726745,129.841366 L57.8768364,142.886901 C57.7576091,142.917498 57.6383818,142.932797 57.5191545,142.932797 L57.5191545,142.932797 Z" id="Fill-5" fill="#369ECC"></path>
            <path d="M108.120595,112.461877 L111.621164,125.653444 L133.366277,119.84832 L129.865709,106.653972 L108.120595,112.461877 Z M110.636845,128.746543 C110.025459,128.746543 109.463982,128.336262 109.299005,127.713192 L105.084459,111.833244 C104.990186,111.477204 105.040095,111.098911 105.224482,110.779031 C105.408868,110.460542 105.712482,110.226891 106.068777,110.130927 L130.492345,103.60816 C130.845868,103.512196 131.225732,103.565045 131.543209,103.748628 C131.860686,103.933602 132.093595,104.238184 132.187868,104.595615 L136.402414,120.476953 C136.496686,120.832994 136.446777,121.211286 136.262391,121.531166 C136.078005,121.849655 135.774391,122.083307 135.418095,122.17788 L110.994527,128.700647 C110.8753,128.731244 110.756073,128.746543 110.636845,128.746543 L110.636845,128.746543 Z" id="Fill-7" fill="#369ECC"></path>
            <path d="M137.760911,104.54499 L141.26148,117.737948 L163.00798,111.931433 L159.507411,98.7370849 L137.760911,104.54499 Z M140.277161,120.831047 C139.665775,120.831047 139.104298,120.420766 138.93932,119.797696 L134.724775,103.916357 C134.630502,103.560317 134.680411,103.182024 134.864798,102.862144 C135.049184,102.543655 135.352798,102.310004 135.709093,102.21404 L160.134048,95.6926633 C160.864661,95.496563 161.632707,95.9360501 161.82957,96.6787277 L166.044116,112.560066 C166.138389,112.916107 166.08848,113.294399 165.904093,113.614279 C165.719707,113.932768 165.416093,114.16642 165.059798,114.260993 L140.634843,120.785151 C140.515616,120.815748 140.396389,120.831047 140.277161,120.831047 L140.277161,120.831047 Z" id="Fill-9" fill="#369ECC"></path>
            <polygon id="Page-1" fill="#FEFEFE" points="147.858932 51.7484511 41 80.1978519 50.1419185 114.53534 157.000851 86.0859392"></polygon>
            <path d="M59.9821682,103.585351 C60.3204409,103.649327 60.6989182,103.629856 61.1162136,103.517202 C61.5321227,103.40594 61.8703955,103.233483 62.1310318,103.002613 C62.3902818,102.774525 62.5746682,102.524184 62.6814182,102.251591 C62.7867818,101.981779 62.8394636,101.646601 62.8366909,101.248837 C62.8353045,100.853855 62.7992591,100.478344 62.7341,100.129258 C62.6661682,99.7787806 62.5705091,99.3643276 62.4415773,98.8775539 C62.3001682,98.3407121 62.13935,97.8720186 61.9605091,97.467301 C61.7816682,97.0625835 61.5584636,96.6898539 61.2895091,96.3491124 C61.0205545,96.0097616 60.6947591,95.777501 60.3148955,95.6551122 C59.9350318,95.5341141 59.5066455,95.5368957 59.0325091,95.6634569 C58.5556,95.790018 58.1812818,96.0028077 57.9067818,96.2976534 C57.6336682,96.5966715 57.4617591,96.9596656 57.3938273,97.3838541 C57.3217364,97.8122149 57.3106455,98.2447481 57.3563955,98.6842352 C57.4007591,99.1237223 57.4964182,99.6160591 57.6406,100.158464 C57.7681455,100.645238 57.8943045,101.056909 58.0163045,101.39626 C58.1369182,101.735611 58.2935773,102.080525 58.4904409,102.424048 C58.6845318,102.771743 58.8980318,103.034601 59.1267818,103.215403 C59.3569182,103.393423 59.6438955,103.519984 59.9821682,103.585351 M58.2159409,92.5912196 C58.63185,92.4785663 58.9562591,92.2908107 59.1836227,92.0251714 C59.4123727,91.7567504 59.5454636,91.4229628 59.5801227,91.0238084 C59.6175545,90.6218724 59.6106227,90.2338442 59.5593273,89.8513792 C59.5066455,89.4730865 59.4137591,89.0322087 59.2820545,88.5315272 C58.7136455,86.389723 57.7612136,85.496841 56.4289182,85.854272 C55.0786,86.2144845 54.6862591,87.4661882 55.2532818,89.6066016 C55.3863727,90.1072831 55.5277818,90.5384255 55.6788955,90.8958564 C55.8272364,91.256069 56.0143955,91.5968105 56.2445318,91.9222535 C56.4732818,92.2463057 56.7519409,92.46744 57.0818955,92.5856565 C57.4132364,92.7024822 57.7889409,92.7052637 58.2159409,92.5912196 M61.8149409,106.152734 C59.8463045,106.67845 58.2672364,106.487913 57.0777364,105.581123 C55.8854636,104.678505 55.0078955,103.155599 54.4381,101.015186 C54.0679409,99.6160591 53.9611909,98.4436299 54.1192364,97.4923351 C54.2786682,96.5410403 54.7098273,95.6787555 55.4168727,94.9096531 C54.5545545,94.5577852 53.8488955,94.0306789 53.2971227,93.3241617 C52.7425773,92.6232076 52.3072591,91.6746943 51.9911682,90.4786219 C51.4990091,88.621928 51.5586227,87.0642522 52.1713955,85.8083762 C52.7855545,84.5525001 53.9695091,83.6874337 55.7301909,83.2187402 C57.4797818,82.7500467 58.9313045,82.914159 60.0806,83.7027323 C61.2326682,84.4926965 62.0547818,85.8111577 62.5441682,87.6595069 C62.8644182,88.8625333 62.9600773,89.9056197 62.8311455,90.7859847 C62.7049864,91.6677404 62.3556227,92.4757847 61.7816682,93.2087268 C62.7687591,93.5355605 63.5686909,94.0751839 64.1773045,94.8262062 C64.7886909,95.5772284 65.2766909,96.6425673 65.6426909,98.022223 C66.2111,100.162636 66.2055545,101.921976 65.6260545,103.297459 C65.0437818,104.677115 63.7738727,105.628409 61.8149409,106.152734" id="Fill-11" fill="#369ECC"></path>
            <path d="M73.2438455,99.9159117 C73.6278682,100.05499 74.0507091,100.063335 74.5095955,99.9409457 C74.9657091,99.8185569 75.3289364,99.6002042 75.5937318,99.2872782 C75.8599136,98.9743523 76.0235045,98.5946688 76.0872773,98.1482279 C76.1524364,97.6990053 76.1635273,97.2442196 76.1191636,96.7769169 C76.0748,96.3068326 75.9833,95.8117142 75.8432773,95.2846079 C75.7600955,94.9661188 75.6963227,94.7269043 75.6519591,94.5627921 C75.6103682,94.4000706 75.54105,94.1692008 75.4481636,93.8729642 C75.3552773,93.5725553 75.2790273,93.3472487 75.2152545,93.1886995 C75.1500955,93.0315412 75.0669136,92.8326593 74.96155,92.5906633 C74.8575727,92.3514488 74.7591409,92.1692564 74.6634818,92.0454768 C74.5692091,91.923088 74.4527545,91.7798374 74.3141182,91.6171159 C74.1768682,91.4516129 74.0368455,91.3320056 73.8926636,91.2638573 C73.7498682,91.1943182 73.58905,91.1303423 73.4143682,91.0691479 C73.2369136,91.0093442 73.0414364,90.985701 72.8320955,90.998218 C72.6185955,91.0079535 72.3981636,91.0468954 72.1666409,91.1080898 C71.1310273,91.3862461 70.4725045,92.133096 70.1896864,93.3542026 L71.0423,96.565518 C71.1837091,97.1023598 71.3514591,97.5807888 71.54555,98.0035865 C71.7382545,98.427775 71.9711636,98.817194 72.2498227,99.1732341 C72.5270955,99.5292743 72.8584364,99.7768335 73.2438455,99.9159117 M75.2083227,102.575087 C74.4416636,102.779532 73.7096636,102.833772 73.0150955,102.741981 C72.3219136,102.65158 71.7008227,102.434618 71.1504364,102.098049 C70.6014364,101.76287 70.0954136,101.31782 69.6323682,100.764289 C69.1679364,100.212148 68.7714364,99.5890779 68.4442545,98.8909054 C68.1170727,98.1969052 67.8453455,97.4389291 67.6290727,96.6197585 L65.7103455,89.3932556 C65.4663455,88.4739488 65.2944364,87.6102732 65.1960045,86.7966658 C65.0961864,85.9858399 65.0837091,85.1889219 65.1613455,84.4017393 C65.2403682,83.6159475 65.4205955,82.9163842 65.7034136,82.3016586 C65.9862318,81.6897146 66.4160045,81.1473096 66.9941182,80.6813977 C67.5708455,80.214095 68.2806636,79.8677903 69.1221864,79.6424836 C70.9216864,79.161273 72.4425273,79.3045236 73.68055,80.0694536 C74.9199591,80.8371653 75.78505,82.1431095 76.2758227,83.9914587 L73.0733227,84.8467895 C72.7891182,83.7772782 72.4050955,83.0206929 71.9143227,82.5770334 C71.4263227,82.1347648 70.7289818,82.0332377 69.8209136,82.2766246 C68.2196636,82.7049854 67.8467318,84.5241281 68.6979591,87.7354436 L69.5505727,90.9467591 C69.8833,89.7131355 70.8093909,88.8911834 72.3260727,88.4864658 C73.2258227,88.2458606 74.0354591,88.1971832 74.7563682,88.339043 C75.4786636,88.4850751 76.0969818,88.8077365 76.6099364,89.3098087 C77.1215045,89.8132718 77.5568227,90.4168711 77.9117318,91.1178252 C78.2680273,91.8201701 78.5758,92.6574208 78.8322773,93.6267958 C79.1123227,94.678227 79.26205,95.6712452 79.2870045,96.6016784 C79.3105727,97.5321115 79.1968909,98.4013502 78.9473455,99.2107852 C78.6978,100.02022 78.2583227,100.718393 77.6289136,101.302521 C76.9995045,101.88804 76.1898682,102.312229 75.2083227,102.575087" id="Fill-13" fill="#369ECC"></path>
            <polygon id="Fill-15" fill="#369ECC" points="84.0634432 99.9673706 82.9072159 79.0653091 76.994375 80.6438466 76.2845568 77.9693729 85.2501705 75.5744465 85.6591477 77.1196052 87.1383977 99.1454185"></polygon>
            <polygon id="Fill-17" fill="#369ECC" points="90.5243136 92.2236359 89.8852 89.8148016 94.6861773 88.5325007 95.3266773 90.941335"></polygon>
            <path d="M103.568332,95.000193 C101.576127,95.5328624 100.005377,95.3492792 98.8560818,94.4522249 C97.7067864,93.5537798 96.8430818,92.0127934 96.2649682,89.8306566 L99.4660818,88.9753257 L99.5991727,89.4760072 C99.7128545,89.9029772 99.82515,90.2715344 99.9374455,90.5761157 C100.048355,90.8820877 100.193923,91.1866689 100.367218,91.4954225 C100.544673,91.8013945 100.734605,92.0378275 100.943945,92.2019397 C101.153286,92.3632704 101.406991,92.4787053 101.710605,92.5412905 C102.012832,92.6038757 102.346945,92.5857956 102.715718,92.48705 C103.005468,92.410557 103.260559,92.3034668 103.479605,92.168561 C103.697264,92.0336551 103.880264,91.8917954 104.023059,91.7402001 C104.165855,91.5899957 104.27815,91.396677 104.359945,91.1602441 C104.437582,90.9238112 104.498582,90.7110215 104.541559,90.5163121 C104.581764,90.3202118 104.592855,90.0629171 104.572059,89.7486004 C104.549877,89.4315022 104.527695,89.1672536 104.501355,88.9530732 C104.4764,88.7402835 104.423718,88.4482193 104.341923,88.0699266 C104.258741,87.6930247 104.190809,87.4037421 104.136741,87.1979064 C104.081286,86.9934614 103.999491,86.6860986 103.892741,86.275818 C103.842832,86.0936255 103.806786,85.9531566 103.781832,85.861365 C103.687559,85.5025432 103.600218,85.1951804 103.523968,84.9420581 C103.447718,84.6889358 103.352059,84.4191241 103.235605,84.1340138 C103.120536,83.8447312 103.002695,83.609689 102.882082,83.4274966 C102.760082,83.2439134 102.6159,83.0686749 102.446764,82.9003902 C102.276241,82.7293241 102.091855,82.6111076 101.896377,82.5360054 C101.698127,82.4650755 101.466605,82.4261336 101.200423,82.4205705 C100.937014,82.4136166 100.650036,82.4525585 100.340877,82.5360054 C99.7738545,82.6862098 99.3316045,83.0005265 99.0113545,83.4803463 C98.6924909,83.9615569 98.5039455,84.4747554 98.4457182,85.0296774 L95.7187409,85.7584471 L92.5023773,73.6405642 L102.407945,70.9925154 L103.260559,74.2052217 L96.25665,76.0758234 L97.5016045,81.5735843 C98.2599455,80.8003095 99.2553545,80.2453876 100.490605,79.9157722 C101.214286,79.7224536 101.8839,79.6612591 102.498059,79.7363614 C103.112218,79.808682 103.647355,79.9880929 104.107627,80.2815479 C104.5679,80.5694397 104.989355,80.9685942 105.367832,81.4748388 C105.750468,81.983865 106.070718,82.5415685 106.335514,83.150731 C106.600309,83.7612843 106.837377,84.4552844 107.042559,85.2327315 C107.299036,86.1951526 107.479264,87.0782991 107.586014,87.8835619 C107.691377,88.686043 107.710786,89.4843519 107.644241,90.2715344 C107.574923,91.0573262 107.397468,91.7513264 107.109105,92.3479718 C106.820741,92.9460081 106.379877,93.475896 105.785127,93.9418079 C105.191764,94.4118922 104.451445,94.76376 103.568332,95.000193" id="Fill-19" fill="#369ECC"></path>
            <path d="M116.587534,91.5242117 C114.768625,92.0082038 113.245011,91.8663441 112.015307,91.0986324 C110.78283,90.3309208 109.923284,89.0208043 109.432511,87.1752366 L109.219011,86.3699739 L112.420125,85.514643 C112.553216,86.0153245 112.682148,86.4409038 112.805534,86.7913808 C112.927534,87.1376855 113.086966,87.4839902 113.27967,87.8247318 C113.475148,88.1682549 113.683102,88.4269404 113.907693,88.6035697 C114.135057,88.7815898 114.417875,88.8998062 114.754761,88.9637822 C115.091648,89.0249766 115.468739,89.0013333 115.88742,88.8900707 C116.301943,88.7774174 116.644375,88.6105236 116.906398,88.3893893 C117.16842,88.1654734 117.35142,87.9220865 117.46233,87.6564472 C117.567693,87.3894171 117.623148,87.0611925 117.618989,86.6676012 C117.617602,86.2726192 117.585716,85.8943265 117.520557,85.5313324 C117.454011,85.1669475 117.35558,84.7344144 117.222489,84.2337329 C116.881443,82.9458688 116.369875,82.0209988 115.68917,81.4577322 C115.008466,80.8958563 114.097625,80.7692951 112.956648,81.0724856 L112.102648,77.8611701 C113.271352,77.5510257 114.032466,77.0906769 114.387375,76.4801237 C114.74367,75.8695704 114.764466,74.9752976 114.45392,73.7959145 C114.169716,72.7347479 113.78292,71.9795534 113.289375,71.5345031 C112.797216,71.0866714 112.099875,70.9837535 111.200125,71.2257496 C110.78283,71.3370121 110.44317,71.5025152 110.179761,71.726431 C109.917739,71.9475654 109.731966,72.1937338 109.62383,72.4579823 C109.515693,72.7264032 109.463011,73.0546278 109.46717,73.4482191 C109.468557,73.8445919 109.500443,74.220103 109.565602,74.5844879 C109.633534,74.9488728 109.73058,75.3800152 109.862284,75.8806966 L106.663943,76.7360275 L106.449057,75.9335464 C105.961057,74.0949327 106.062261,72.5289122 106.751284,71.2438297 C107.441693,69.9587472 108.690807,69.0742099 110.500011,68.5916086 C112.317534,68.1048349 113.841148,68.2480855 115.072239,69.0157971 C116.301943,69.7835087 117.164261,71.0922345 117.652261,72.9405837 C117.990534,74.2117583 117.983602,75.3313378 117.632852,76.2979312 C117.283489,77.2645247 116.64992,78.0377994 115.730761,78.6149739 C116.864807,78.6872946 117.835261,79.130954 118.635193,79.9459522 C119.436511,80.7623412 120.032648,81.9055639 120.423602,83.3770112 C120.983693,85.4840458 120.967057,87.2419942 120.37508,88.6425116 C119.783102,90.0472013 118.520125,91.0082316 116.587534,91.5242117" id="Fill-21" fill="#369ECC"></path>
            <path d="M128.953759,85.3994863 C130.555009,84.9711254 131.001418,83.4204036 130.290214,80.7431484 L127.732373,71.109202 C127.614532,70.6571979 127.488373,70.2580435 127.362214,69.910348 C127.233282,69.5640433 127.071077,69.2246925 126.868668,68.8853417 C126.667645,68.5501633 126.449986,68.2859147 126.215691,68.0870329 C125.981395,67.8923234 125.695805,67.7574176 125.364464,67.6864877 C125.031736,67.6127763 124.667123,67.6294657 124.26785,67.7351651 C123.867191,67.8422553 123.540009,68.0105399 123.289077,68.2400189 C123.036759,68.4667164 122.859305,68.7267926 122.751168,69.0132937 C122.644418,69.3011855 122.586191,69.6405363 122.579259,70.0327368 C122.572327,70.4249373 122.597282,70.80323 122.659668,71.1676149 C122.720668,71.5333905 122.810782,71.9394988 122.931395,72.3901122 L125.489236,82.0240586 C125.629259,82.5525557 125.791464,83.0282031 125.981395,83.4523916 C126.168555,83.8765801 126.401464,84.2673898 126.67735,84.62343 C126.956009,84.9780794 127.288736,85.2284201 127.675532,85.3716706 C128.062327,85.5149212 128.487941,85.5232659 128.953759,85.3994863 M129.653873,88.0336272 C128.436645,88.3590702 127.323395,88.3451624 126.316895,87.9960761 C125.307623,87.6483806 124.473032,87.0364366 123.807577,86.1630256 C123.142123,85.2882237 122.6361,84.1936784 122.288123,82.8807802 L119.730282,73.2454431 C119.181282,71.1815227 119.217327,69.4333098 119.837032,67.9980229 C120.45535,66.5641267 121.700305,65.6003148 123.56635,65.1010241 C125.42685,64.604515 126.98235,64.8256493 128.235623,65.7630363 C129.490282,66.7004233 130.388645,68.1969047 130.936259,70.2524804 L133.491327,79.8878175 C134.025077,81.9044513 133.976555,83.6443195 133.342986,85.1046405 C132.709418,86.5691339 131.479714,87.5454628 129.653873,88.0336272" id="Fill-23" fill="#369ECC"></path>
            <path d="M140.166114,72.9476766 C141.182318,72.6764742 141.840841,71.9254519 142.141682,70.6987823 L141.287682,67.4874668 C141.146273,66.9520158 140.979909,66.4735868 140.785818,66.0493983 C140.5945,65.6279914 140.357432,65.2371817 140.081545,64.8825323 C139.802886,64.5278829 139.472932,64.2789329 139.086136,64.138464 C138.702114,64.0021673 138.279273,63.9938226 137.823159,64.1134299 C137.362886,64.2386003 137.002432,64.4541714 136.73625,64.7657066 C136.471455,65.0800233 136.306477,65.4610976 136.242705,65.9075386 C136.177545,66.3539796 136.167841,66.8129376 136.210818,67.2788495 C136.255182,67.7461523 136.346682,68.245443 136.486705,68.7711585 C136.569886,69.0882568 136.633659,69.3274713 136.678023,69.4915836 C136.722386,69.6556958 136.790318,69.8851749 136.881818,70.184193 C136.973318,70.4818203 137.050955,70.7085178 137.114727,70.8656761 C137.181273,71.0228345 137.264455,71.2244978 137.368432,71.4637123 C137.472409,71.7043176 137.572227,71.88651 137.667886,72.0088989 C137.763545,72.1312877 137.878614,72.2745382 138.015864,72.4400412 C138.1545,72.6027627 138.294523,72.7209792 138.438705,72.7919091 C138.580114,72.8586666 138.739545,72.9240334 138.917,72.983837 C139.093068,73.0450314 139.288545,73.0686747 139.499273,73.0561576 C139.71,73.0450314 139.931818,73.0102618 140.166114,72.9476766 M143.209182,84.411892 C141.408295,84.8931026 139.888841,84.7512428 138.649432,83.984922 C137.411409,83.2199919 136.544932,81.9098754 136.055545,80.062917 L139.256659,79.2089769 C139.540864,80.2798789 139.927659,81.0364643 140.414273,81.4773422 C140.902273,81.9210016 141.601,82.0211379 142.509068,81.7777511 C144.110318,81.3521718 144.484636,79.5302475 143.633409,76.318932 L142.779409,73.1076166 C142.430045,74.348194 141.503955,75.1687554 140.005295,75.5693006 C139.104159,75.8099058 138.294523,75.8585832 137.572227,75.7153327 C136.851318,75.5720821 136.234386,75.2480299 135.721432,74.7459577 C135.207091,74.2397131 134.774545,73.6388953 134.41825,72.9365504 C134.061955,72.2342055 133.756955,71.3997364 133.497705,70.4289706 C133.219045,69.3733671 133.066545,68.3831304 133.042977,67.4513065 C133.020795,66.5236549 133.133091,65.6544162 133.38125,64.8421996 C133.632182,64.0341553 134.071659,63.3359828 134.701068,62.7504636 C135.33325,62.167726 136.138727,61.7435375 137.121659,61.4792889 C137.888318,61.274844 138.621705,61.2178219 139.314886,61.3110043 C140.008068,61.4027959 140.629159,61.6183671 141.179545,61.9549363 C141.728545,62.2928963 142.234568,62.7379466 142.699,63.290087 C143.162045,63.8422274 143.557159,64.4666885 143.885727,65.1634702 C144.211523,65.8588612 144.486023,66.6168373 144.703682,67.4373987 L146.622409,74.6625108 C146.866409,75.5818176 147.035545,76.446884 147.135364,77.2577098 C147.235182,78.0671449 147.244886,78.8682353 147.168636,79.6540271 C147.091,80.4412096 146.910773,81.1393822 146.626568,81.752717 C146.34375,82.3674426 145.913977,82.907066 145.33725,83.3743687 C144.760523,83.8402807 144.050705,84.1893669 143.209182,84.411892" id="Fill-25" fill="#369ECC"></path>
            <path d="M192.241952,37.8677061 C191.630566,37.8677061 191.067702,37.4560346 190.902725,36.8343551 C185.229725,15.4524738 163.27527,2.68509577 141.958543,8.38034774 C141.229316,8.57922956 140.459884,8.13835169 140.26302,7.39428336 C140.066157,6.65299659 140.50702,5.8908481 141.247339,5.69335707 C164.036384,-0.392704627 187.515839,13.2550384 193.583952,36.1181024 C193.77943,36.8607799 193.339952,37.6229284 192.599634,37.8204195 C192.480407,37.8524075 192.36118,37.8677061 192.241952,37.8677061" id="Fill-27" fill="#369ECC"></path>
            <path d="M177.103,43.3024646 C175.876068,43.3024646 174.755886,42.4805125 174.424545,41.2357626 C171.167977,28.9690661 158.57425,21.6452085 146.346523,24.9121552 C144.858955,25.3085281 143.347818,24.4239908 142.954091,22.9400265 C142.560364,21.4560621 143.440705,19.9317652 144.919955,19.5367831 C160.103409,15.481263 175.741591,24.575586 179.784227,39.804648 C180.177955,41.2886124 179.297614,42.8129093 177.818364,43.2078914 C177.579909,43.2718674 177.338682,43.3024646 177.103,43.3024646" id="Fill-30" fill="#369ECC"></path>
            <path d="M52.3898864,190.840088 C33.4785,190.840088 16.13925,178.14503 11.0471364,158.964757 C10.8502727,158.22347 11.28975,157.461322 12.0314545,157.26244 C12.7648409,157.074684 13.5301136,157.505827 13.7269773,158.249895 C19.4013636,179.631776 41.3544318,192.393591 62.6725455,186.701121 C63.4045455,186.511975 64.1712045,186.944508 64.3694545,187.688576 C64.5649318,188.431254 64.1254545,189.192011 63.3851364,189.390893 C59.7126591,190.371394 56.0221591,190.840088 52.3898864,190.840088" id="Fill-32" fill="#369ECC"></path>
            <path d="M52.3871136,176.512531 C39.7892273,176.512531 28.2380455,168.056577 24.8483864,155.279463 C24.4546591,153.795499 25.3336136,152.271202 26.81425,151.87622 C28.3004318,151.481238 29.8129545,152.365775 30.2066818,153.848348 C33.46325,166.115045 46.0639091,173.430558 58.2847045,170.170565 C59.7708864,169.774192 61.2834091,170.66012 61.6771364,172.142694 C62.0708636,173.628049 61.1919091,175.150955 59.7112727,175.547328 C57.2671136,176.199605 54.8063182,176.512531 52.3871136,176.512531" id="Fill-34" fill="#369ECC"></path>
            <polyline id="Fill-36" fill-opacity="0.25" fill="#FEFEFE" points="111.849359 60.7311873 148.273291 51.0026678 157.951495 87.4745329 111.963041 99.7565281"></polyline>
            <path d="M42.7868227,80.6151965 L51.7524364,114.39868 L156.256527,86.4884685 L147.290914,52.7049848 L42.7868227,80.6151965 Z M50.7681182,117.491779 C50.1553455,117.491779 49.5938682,117.081498 49.4288909,116.457037 L39.7506864,79.986563 C39.6564136,79.6305229 39.7063227,79.2508394 39.8907091,78.9323503 C40.0750955,78.6124705 40.3787091,78.3802099 40.7350045,78.2856367 L147.91755,49.6591724 C148.650936,49.4658537 149.416209,49.9025593 149.614459,50.6452368 L159.292664,87.117102 C159.386936,87.4731421 159.335641,87.8528256 159.152641,88.1727054 C158.968255,88.4911945 158.664641,88.7234551 158.308345,88.8180282 L51.1258,117.444493 C51.0065727,117.476481 50.8873455,117.491779 50.7681182,117.491779 L50.7681182,117.491779 Z" id="Fill-38" fill="#369ECC"></path>
            <polygon id="Fill-40" fill="#EB2026" points="39.4551136 63.5469644 31.8564545 65.5761152 31.2381364 63.2479463 38.8367955 61.2187955"></polygon>
            <polygon id="Fill-42" fill-opacity="0.5" fill="#FEFEFE" points="48.6252159 61.0977974 41.0265568 63.1269483 40.4082386 60.7987793 48.0068977 58.7696285"></polygon>
        </g>
    </g>
</svg>