<?xml version="1.0" encoding="UTF-8" standalone="no"?>
<svg width="200px" height="200px" viewBox="0 0 200 200" version="1.1" xmlns="http://www.w3.org/2000/svg" xmlns:xlink="http://www.w3.org/1999/xlink">
    <!-- Generator: Sketch 39.1 (31720) - http://www.bohemiancoding.com/sketch -->
    <title>Server_200px</title>
    <desc>Created with Sketch.</desc>
    <defs></defs>
    <g id="Corp-Site-Index" stroke="none" stroke-width="1" fill="none" fill-rule="evenodd">
        <g id="Server_200px">
            <g id="Page-1" transform="translate(10.000000, 33.000000)">
                <polygon id="Fill-1" fill-opacity="0.22766644" fill="#2994C9" points="2.80952381 130.907516 174.128667 130.907516 174.128667 31.8653281 2.80952381 31.8653281"></polygon>
                <polygon id="Stroke-2" stroke="#2994C9" stroke-width="2" stroke-linecap="round" stroke-linejoin="round" points="18.7282857 113.820172 154.418452 113.820172 154.418452 49.5714219 18.7282857 49.5714219"></polygon>
                <polygon id="Fill-3" fill="#FEFEFE" points="10.389619 21.2298594 27.0669524 21.2298594 27.0669524 13.1537656 10.389619 13.1537656"></polygon>
                <polygon id="Stroke-4" stroke="#2994C9" stroke-width="2" stroke-linecap="round" stroke-linejoin="round" points="10.389619 21.2298594 27.0669524 21.2298594 27.0669524 13.1537656 10.389619 13.1537656"></polygon>
                <polygon id="Fill-5" fill="#FEFEFE" points="31.9934524 21.2298594 154.418452 21.2298594 154.418452 13.1537656 31.9934524 13.1537656"></polygon>
                <polygon id="Stroke-6" stroke="#2994C9" stroke-width="2" stroke-linecap="round" stroke-linejoin="round" points="31.9934524 21.2298594 154.418452 21.2298594 154.418452 13.1537656 31.9934524 13.1537656"></polygon>
                <polygon id="Fill-7" fill="#FEFEFE" points="52.0110286 58.979375 63.4387667 78.7934375 74.8665048 98.6075 52.0110286 98.6075 29.1555524 98.6075 40.5832905 78.7934375"></polygon>
                <polygon id="Stroke-8" stroke="#2994C9" stroke-width="2" stroke-linecap="round" stroke-linejoin="round" points="52.0110286 58.979375 63.4387667 78.7934375 74.8665048 98.6075 52.0110286 98.6075 29.1555524 98.6075 40.5832905 78.7934375"></polygon>
                <path d="M49.9266429,93.1328281 L53.8515476,93.1328281 L53.8515476,89.2768906 L49.9266429,89.2768906 L49.9266429,93.1328281 Z M51.1909286,87.5134531 L49.9266429,71.2361094 L54.0945714,71.2361094 L52.5999048,87.5134531 L51.1909286,87.5134531 Z" id="Fill-9" fill="#D0011B"></path>
                <g id="Group-21" transform="translate(0.000000, 0.126266)">
                    <path d="M89.1136,98.7150937 C85.6311952,98.7150937 83.1461714,97.7349375 81.6599333,95.7732188 C80.1736952,93.8115 79.4305762,90.925875 79.4305762,87.1191563 L85.0257429,87.1191563 L85.0257429,87.9938437 C85.0257429,88.73775 85.0510286,89.384625 85.1044095,89.9288437 C85.1521714,90.4786875 85.254719,91.0397813 85.4106476,91.6163437 C85.5609571,92.1929062 85.7716714,92.6597812 86.0413857,93.0169688 C86.3111,93.3741562 86.6805524,93.6680625 87.1469333,93.9015 C87.6133143,94.1349375 88.1667905,94.2516562 88.8073619,94.2516562 C89.3172905,94.2516562 89.7808619,94.1911875 90.1938619,94.0674375 C90.612481,93.9422813 90.966481,93.789 91.2671,93.6047813 C91.5635048,93.4247812 91.8318143,93.1575937 92.0636,92.8074375 C92.2967905,92.4572812 92.4920524,92.1338437 92.6423619,91.8357188 C92.7982905,91.5361875 92.9233143,91.12275 93.0258619,90.5982188 C93.1284095,90.0722813 93.2028619,89.632125 93.2548381,89.272125 C93.3054095,88.91775 93.3461476,88.4143125 93.3756476,87.7660312 C93.4051476,87.1163437 93.4191952,86.6129063 93.4191952,86.2529063 L93.4191952,84.6469687 L93.4191952,83.9241563 C93.4191952,83.2969687 93.4121714,82.7625938 93.3981238,82.3154062 C93.3826714,81.8724375 93.3419333,81.3915 93.278719,80.8711875 C93.2098857,80.3550937 93.119981,79.9205625 93.0047905,79.5704062 C92.8881952,79.22025 92.7266476,78.8700937 92.5229571,78.5199375 C92.3192667,78.1697812 92.0720286,77.89275 91.7798381,77.6888437 C91.4890524,77.4849375 91.1266238,77.3218125 90.6995762,77.19525 C90.2669095,77.0729063 89.7836714,77.009625 89.2442429,77.009625 C88.2538857,77.009625 87.3941714,77.3316563 86.6651,77.9729063 C85.9374333,78.6141563 85.4050286,79.3735312 85.0706952,80.2482187 L80.3057429,80.2482187 L80.3057429,59.1122812 L97.615219,59.1122812 L97.615219,64.713375 L85.3755286,64.713375 L85.0257429,74.2097813 C86.600481,73.2760313 88.4646,72.8091563 90.6223143,72.8091563 C91.8894095,72.8091563 93.0061952,73.0032188 93.9782905,73.3885312 C94.9447667,73.7766562 95.7440762,74.304 96.3706,74.9747812 C96.9971238,75.6469687 97.5084571,76.4780625 97.9116238,77.4694688 C98.3105762,78.4622813 98.5943381,79.5113437 98.7615048,80.620875 C98.9300762,81.729 99.0143619,82.9622813 99.0143619,84.3179063 C99.0143619,85.9955625 98.9272667,87.5129063 98.7530762,88.8685313 C98.577481,90.2255625 98.264219,91.5305625 97.8118857,92.7863438 C97.3609571,94.0407187 96.7709571,95.0897813 96.0418857,95.9363438 C95.314219,96.7829062 94.3617905,97.4550938 93.1916238,97.9613437 C92.0158381,98.4619687 90.6588381,98.7150937 89.1136,98.7150937 L89.1136,98.7150937 Z" id="Fill-10" fill="#2994C9"></path>
                    <path d="M112.259862,94.1203125 C115.058148,94.1203125 116.455886,91.7859375 116.455886,87.1185937 L116.455886,70.3153125 C116.455886,69.5278125 116.42779,68.8246875 116.36879,68.2045312 C116.311195,67.584375 116.188981,66.9557812 116.009171,66.3229687 C115.825148,65.6859375 115.584933,65.1585937 115.285719,64.7353125 C114.986505,64.3120312 114.583338,63.9703125 114.07341,63.7073437 C113.563481,63.444375 112.959433,63.3135937 112.259862,63.3135937 C111.56029,63.3135937 110.956243,63.444375 110.446314,63.7073437 C109.936386,63.9703125 109.53041,64.3120312 109.234005,64.7353125 C108.933386,65.1585937 108.691767,65.6859375 108.510552,66.3229687 C108.327933,66.9557812 108.208529,67.584375 108.150933,68.2045312 C108.091933,68.8246875 108.063838,69.5278125 108.063838,70.3153125 L108.063838,87.1185937 C108.063838,88.0382812 108.124243,88.8834375 108.247862,89.656875 C108.371481,90.4303125 108.5836,91.1671875 108.884219,91.8660937 C109.180624,92.5664062 109.614695,93.1190625 110.183624,93.5170312 C110.751148,93.920625 111.443695,94.1203125 112.259862,94.1203125 M112.259862,98.7145312 C110.133052,98.7145312 108.32091,98.2125 106.829052,97.205625 C105.334386,96.19875 104.233052,94.8403125 103.526457,93.1232812 C102.819862,91.411875 102.468671,89.409375 102.468671,87.1185937 L102.468671,70.3153125 C102.468671,66.7125 103.283433,63.8803125 104.915767,61.8159375 C106.5481,59.7515625 108.9966,58.719375 112.259862,58.719375 C115.509076,58.719375 117.951957,59.754375 119.594124,61.8257812 C121.230671,63.8971875 122.051052,66.7265625 122.051052,70.3153125 L122.051052,87.1185937 C122.051052,90.6342187 121.216624,93.4467188 119.550576,95.5546875 C117.87891,97.6626562 115.451481,98.7145312 112.259862,98.7145312" id="Fill-12" fill="#2994C9"></path>
                    <path d="M136.039952,94.1203125 C138.838238,94.1203125 140.235976,91.7859375 140.235976,87.1185937 L140.235976,70.3153125 C140.235976,69.5278125 140.207881,68.8246875 140.148881,68.2045312 C140.091286,67.584375 139.969071,66.9557812 139.789262,66.3229687 C139.605238,65.6859375 139.365024,65.1585937 139.06581,64.7353125 C138.766595,64.3120312 138.363429,63.9703125 137.8535,63.7073437 C137.343571,63.444375 136.739524,63.3135937 136.039952,63.3135937 C135.340381,63.3135937 134.736333,63.444375 134.226405,63.7073437 C133.716476,63.9703125 133.3105,64.3120312 133.014095,64.7353125 C132.713476,65.1585937 132.471857,65.6859375 132.290643,66.3229687 C132.108024,66.9557812 131.988619,67.584375 131.931024,68.2045312 C131.872024,68.8246875 131.843929,69.5278125 131.843929,70.3153125 L131.843929,87.1185937 C131.843929,88.0382812 131.904333,88.8834375 132.027952,89.656875 C132.151571,90.4303125 132.36369,91.1671875 132.66431,91.8660937 C132.960714,92.5664062 133.394786,93.1190625 133.963714,93.5170312 C134.531238,93.920625 135.223786,94.1203125 136.039952,94.1203125 M136.039952,98.7145312 C133.913143,98.7145312 132.101,98.2125 130.609143,97.205625 C129.114476,96.19875 128.013143,94.8403125 127.306548,93.1232812 C126.599952,91.411875 126.248762,89.409375 126.248762,87.1185937 L126.248762,70.3153125 C126.248762,66.7125 127.063524,63.8803125 128.695857,61.8159375 C130.32819,59.7515625 132.77669,58.719375 136.039952,58.719375 C139.289167,58.719375 141.732048,59.754375 143.374214,61.8257812 C145.010762,63.8971875 145.831143,66.7265625 145.831143,70.3153125 L145.831143,87.1185937 C145.831143,90.6342187 144.996714,93.4467188 143.330667,95.5546875 C141.659,97.6626562 139.231571,98.7145312 136.039952,98.7145312" id="Fill-14" fill="#2994C9"></path>
                    <polyline id="Fill-16" fill-opacity="0.35" fill="#FFFFFF" points="126.247919 31.7385 174.127824 31.7385 174.127824 130.780687 83.9716095 130.780687"></polyline>
                    <polygon id="Stroke-18" stroke="#2994C9" stroke-width="4" points="2.80952381 130.78125 174.128667 130.78125 174.128667 3.09234375 2.80952381 3.09234375"></polygon>
                    <path d="M2.80952381,31.7385 L174.128667,31.7385" id="Stroke-20" stroke="#2994C9" stroke-width="2"></path>
                </g>
            </g>
        </g>
    </g>
</svg>