<svg xmlns="http://www.w3.org/2000/svg" viewBox="0 0 150 150"><defs><style>.cls-1{fill:#cce6f1;}.cls-2{fill:#fff;}.cls-3{fill:#369fcd;}</style></defs><title>collaboration</title><g id="pager"><circle class="cls-1" cx="56.42" cy="21.62" r="11.25"/><path class="cls-1" d="M125.54,62.78a38.16,38.16,0,0,0-16.41-9.35c-4.6-6-13.58-10.06-23.91-10.06-11.3,0-21,4.88-25.09,11.81a37.57,37.57,0,0,0-8.53-1c-15,0-27.18,8.59-27.18,19.19,0,4.45,2.15,8.55,5.76,11.8a14.22,14.22,0,0,0-.39,3.27c0,12.58,16.73,22.79,37.36,22.79a53.89,53.89,0,0,0,23.11-4.89,50.8,50.8,0,0,0,5.14.27c10.21,0,19.47-3,26.21-7.93C133,96.44,141.43,89,141.43,80.24,141.43,72.48,134.91,65.81,125.54,62.78Z"/><path class="cls-2" d="M75.2,75.25l3.61,13.56h7.92l3.1-13.56a7.32,7.32,0,0,0-14.64,0Z"/><polygon class="cls-2" points="86.38 96.2 79.16 96.2 78.81 88.81 86.73 88.81 86.38 96.2"/><path class="cls-3" d="M66.57,113.27c-21.7,0-39.36-11.12-39.36-24.79a16,16,0,0,1,.21-2.58,17.72,17.72,0,0,1-5.58-12.49c0-11.69,13.09-21.19,29.17-21.19a39.83,39.83,0,0,1,7.59.73c4.93-7.07,15-11.57,26-11.57,10.31,0,19.85,3.94,25.08,10.32A40.06,40.06,0,0,1,126,61c10.23,3.46,16.82,11,16.82,19.21,0,9.42-8.61,17.74-21,20.35-7.33,5.2-16.91,8.05-27,8.05-1.56,0-3.17-.07-4.78-.22A55.94,55.94,0,0,1,66.57,113.27ZM51,56.21c-13.88,0-25.17,7.71-25.17,17.19,0,3.74,1.76,7.31,5.1,10.32l.88.79-.27,1.15a12.26,12.26,0,0,0-.33,2.81c0,11.46,15.86,20.79,35.36,20.79a51.64,51.64,0,0,0,22.25-4.69l.51-.25.56.06a49.16,49.16,0,0,0,4.93.25c9.45,0,18.34-2.68,25-7.55l.36-.26.43-.09c10.72-2.13,18.2-8.92,18.2-16.51,0-6.6-5.69-12.71-14.51-15.56l-.46-.15-.34-.34A36.1,36.1,0,0,0,108,55.35l-.63-.18-.4-.52c-4.39-5.72-12.95-9.28-22.32-9.28-10.31,0-19.48,4.25-23.37,10.83l-.75,1.26-1.43-.33A35.61,35.61,0,0,0,51,56.21Z"/><path class="cls-3" d="M56.42,33.4A11.78,11.78,0,1,1,68.2,21.62,11.79,11.79,0,0,1,56.42,33.4Zm0-21.55a9.78,9.78,0,1,0,9.78,9.78A9.79,9.79,0,0,0,56.42,11.84Z"/><rect class="cls-3" x="59.47" y="16.62" width="3.41" height="3.41" rx="1.36" ry="1.36"/><rect class="cls-3" x="50.31" y="16.62" width="3.41" height="3.41" rx="1.36" ry="1.36"/><path class="cls-3" d="M64.39,50.79a1,1,0,0,1-1-.75L60.21,37.52a1,1,0,0,1,1.94-.5l3.21,12.51a1,1,0,0,1-1,1.25Z"/><path class="cls-3" d="M26,112.27a1,1,0,0,1-.66-1.75l10.6-9.22a1,1,0,1,1,1.31,1.51L26.61,112A1,1,0,0,1,26,112.27Z"/><path class="cls-3" d="M121.64,113.94a1,1,0,0,1-.87-.51l-6.17-10.9a1,1,0,1,1,1.74-1l6.17,10.9a1,1,0,0,1-.87,1.49Z"/><path class="cls-3" d="M86.94,89.81H77.46L73.62,75.25a8.32,8.32,0,1,1,16.64,0l0,.22Zm-7.95-2h6.36l2.9-12.67a6.32,6.32,0,0,0-12.63,0Z"/><path class="cls-3" d="M86.75,97.2H77.62l-.44-9.39h10Zm-7.23-2h5.32l.25-5.39H79.27Z"/><rect class="cls-3" x="78.15" y="91.42" width="8.06" height="2" transform="translate(-15.8 16.95) rotate(-10.75)"/><polygon class="cls-3" points="78.57 98.46 85.52 98.46 84.48 100.03 79.79 100.03 78.57 98.46"/><path class="cls-3" d="M68.52,76.67H63.13a1,1,0,0,1,0-2h5.39a1,1,0,0,1,0,2Z"/><path class="cls-3" d="M72.45,67.18a1,1,0,0,1-.71-.29l-3.81-3.81a1,1,0,0,1,1.41-1.41l3.81,3.81a1,1,0,0,1-.71,1.71Z"/><path class="cls-3" d="M81.93,63.25a1,1,0,0,1-1-1V56.86a1,1,0,1,1,2,0v5.39A1,1,0,0,1,81.93,63.25Z"/><path class="cls-3" d="M91.42,67.18a1,1,0,0,1-.71-1.71l3.81-3.81a1,1,0,0,1,1.41,1.41l-3.81,3.81A1,1,0,0,1,91.42,67.18Z"/><path class="cls-3" d="M100.73,76.67H95.34a1,1,0,0,1,0-2h5.39a1,1,0,0,1,0,2Z"/><circle class="cls-1" cx="127.6" cy="128.02" r="11.25"/><path class="cls-2" d="M118.35,136.77s-.05,3,1.61,4.28,5.55-.45,5.8-.66.67-3.15-.09-3.9c0,0,4.26-.88,4.41-1.79s-5.39.35-7.46.71-1.46-1.56-1.46-1.56.05-3-1.81-2.29C119.35,131.56,119.25,136.11,118.35,136.77Z"/><path class="cls-3" d="M128.38,140.12a1,1,0,0,1-.07-2,10.11,10.11,0,1,0-9.57-5.19,1,1,0,0,1-1.75,1,12.12,12.12,0,1,1,11.46,6.21Z"/><ellipse class="cls-3" cx="124.16" cy="125.3" rx="1.68" ry="1.35" transform="translate(-18.08 229.63) rotate(-81.52)"/><ellipse class="cls-3" cx="131.05" cy="126.09" rx="1.68" ry="1.35" transform="translate(-21.4 225.24) rotate(-76.93)"/><path class="cls-3" d="M121.8,142.1a3.22,3.22,0,0,1-2-.59c-1.86-1.46-1.83-4.61-1.82-4.74a.5.5,0,0,1,.21-.4c.38-.28.76-2.56.81-4.89a.5.5,0,0,1,.33-.46,1.6,1.6,0,0,1,1.55.14c1,.69,1,2.46,1,2.66a.5.5,0,0,1,0,.14c-.06.19-.12.64,0,.83s.44.18.87.11l1.43-.27c4.12-.79,5.94-1,6.51-.48a.68.68,0,0,1,.2.61c-.16.93-2.25,1.63-4.21,2.08a5.55,5.55,0,0,1,.17,1.86c0,.42-.12,1.8-.52,2.13A10.66,10.66,0,0,1,121.8,142.1ZM119,137c0,.65.2,2.77,1.44,3.75s4.56-.28,5.2-.63c.21-.57.38-2.79-.07-3.24a.5.5,0,0,1,.25-.84,16.72,16.72,0,0,0,3.71-1.16,41.56,41.56,0,0,0-5.16.77l-1.45.27a1.84,1.84,0,0,1-1.79-.44,2,2,0,0,1-.27-1.71c0-.49-.14-1.48-.54-1.77a.4.4,0,0,0-.31-.08C119.91,133.21,119.72,136,119,137Z"/><path class="cls-3" d="M123.84,131.89a.5.5,0,0,1-.07-1l6.89-1a.5.5,0,1,1,.14,1l-6.89,1Z"/><path class="cls-3" d="M134.76,123.89a.5.5,0,0,1-.44-.26c-.41-.77-1.06-1.68-1.84-1.69h0c-.92,0-1.81,1.22-2.07,1.7a.5.5,0,0,1-.87-.49c.05-.09,1.25-2.21,2.95-2.21h0c1,0,1.93.75,2.71,2.21a.5.5,0,0,1-.2.68A.49.49,0,0,1,134.76,123.89Z"/><path class="cls-3" d="M120.48,122.91a.5.5,0,0,1-.31-.89c1.63-1.28,5.29-.63,5.7-.55a.5.5,0,0,1-.19,1c-1-.19-3.82-.5-4.89.35A.5.5,0,0,1,120.48,122.91Z"/><path class="cls-2" d="M50.78,24.45l11.78-1.6S59.57,33.48,50.78,24.45Z"/><path class="cls-3" d="M57.21,28.74c-2.18,0-4.62-1.37-7.25-4.08a.5.5,0,0,1,.29-.84L63,22.08a.51.51,0,0,1,.44.17.5.5,0,0,1,.1.46c-.06.2-1.43,4.95-5.07,5.87A5,5,0,0,1,57.21,28.74Zm-5.82-4.07c2.59,2.45,4.87,3.44,6.81,2.95,2.3-.58,3.58-3.15,4.09-4.43Z"/><circle class="cls-1" cx="16.83" cy="123.72" r="11.25"/><path class="cls-3" d="M16.83,135.5a11.78,11.78,0,1,1,11.78-11.78A11.79,11.79,0,0,1,16.83,135.5Zm0-21.55a9.78,9.78,0,1,0,9.78,9.78A9.79,9.79,0,0,0,16.83,113.94Z"/><rect class="cls-3" x="19.89" y="118.72" width="3.41" height="3.41" rx="1.36" ry="1.36"/><rect class="cls-3" x="10.73" y="118.72" width="3.41" height="3.41" rx="1.36" ry="1.36"/><path class="cls-2" d="M10.13,124l12.8,2.13C22.29,128,16.63,135.06,10.13,124Z"/><path class="cls-3" d="M17.59,130.75c-2.92,0-5.74-2.28-8.39-6.78a.5.5,0,0,1,.51-.75l13.82,2.3a.5.5,0,0,1,.39.66,7.73,7.73,0,0,1-5.77,4.54Zm-7-6.36c2.41,3.74,5,5.59,7.42,5.34a6.7,6.7,0,0,0,4.66-3.33Z"/></g></svg>