<?xml version="1.0" standalone="no"?>
<!DOCTYPE svg PUBLIC "-//W3C//DTD SVG 20010904//EN"
 "http://www.w3.org/TR/2001/REC-SVG-20010904/DTD/svg10.dtd">
<svg version="1.0" xmlns="http://www.w3.org/2000/svg"
 width="260.000000pt" height="260.000000pt" viewBox="0 0 260.000000 260.000000"
 preserveAspectRatio="xMidYMid meet">
<metadata>
Created by potrace 1.11, written by Peter Selinger 2001-2013
</metadata>
<g transform="translate(0.000000,260.000000) scale(0.100000,-0.100000)"
fill="#000000" stroke="none">
<path d="M1116 2411 c-82 -65 -117 -140 -117 -243 0 -93 32 -160 107 -226 l54
-47 0 -177 c0 -98 -3 -178 -8 -178 -15 0 -287 161 -299 177 -7 9 -13 33 -13
53 0 49 -43 131 -92 175 -59 54 -120 78 -199 79 -55 0 -77 -5 -133 -33 -220
-108 -218 -420 2 -528 75 -37 184 -39 250 -6 l43 22 147 -85 c81 -47 150 -89
154 -93 4 -3 -61 -46 -144 -94 l-152 -88 -51 22 c-68 30 -162 30 -231 0 -97
-42 -165 -137 -180 -250 l-7 -55 34 21 c19 11 67 40 108 64 l74 43 63 -33 c59
-31 63 -35 69 -75 15 -97 11 -104 -102 -171 -56 -33 -103 -63 -103 -66 0 -3
19 -15 42 -25 64 -29 188 -26 248 5 95 49 157 137 167 237 l6 54 147 85 c81
47 150 85 154 85 3 0 6 -78 6 -174 0 -163 -1 -175 -19 -181 -29 -9 -100 -91
-123 -142 -28 -63 -27 -164 2 -232 31 -72 114 -146 187 -167 140 -41 283 23
355 159 18 34 23 58 23 127 0 77 -3 90 -31 140 -18 32 -50 70 -77 90 l-47 35
0 173 0 174 48 -27 c26 -14 95 -54 153 -88 l107 -61 6 -50 c18 -159 157 -274
316 -263 55 3 150 36 150 51 0 3 -47 31 -105 63 l-105 58 0 75 0 75 61 35 c34
19 65 34 68 33 4 -1 51 -27 105 -57 54 -31 101 -56 104 -56 2 0 2 24 -1 54
-10 100 -72 187 -165 233 -75 37 -182 39 -255 6 l-47 -22 -150 87 c-83 47
-150 89 -150 92 0 3 70 45 154 93 151 86 155 88 183 74 44 -23 127 -35 181
-26 97 15 179 77 223 167 33 68 32 179 0 246 -53 108 -148 169 -266 169 -151
1 -277 -106 -292 -247 -3 -31 -11 -60 -17 -65 -6 -5 -77 -47 -158 -94 l-148
-85 0 189 c0 124 4 189 10 189 24 0 109 93 130 143 52 119 13 276 -87 352 -25
19 -50 35 -54 35 -5 0 -9 -55 -9 -123 l0 -123 -62 -35 -61 -36 -64 36 -63 36
0 123 c0 67 -4 122 -9 122 -4 0 -25 -13 -45 -29z m1032 -593 c20 -10 22 -18
22 -87 l0 -76 -64 -36 -64 -37 -63 37 -64 37 0 74 0 74 64 38 64 37 41 -25
c23 -14 51 -30 64 -36z m-1528 16 l61 -37 -3 -71 -3 -71 -63 -36 -63 -37 -65
37 -64 36 2 74 3 75 55 32 c30 18 60 33 67 34 6 0 39 -16 73 -36z m740 -1278
l55 -32 3 -75 2 -74 -63 -36 -64 -36 -61 36 -62 35 0 76 0 75 58 32 c31 18 62
32 67 32 6 0 35 -15 65 -33z"/>
</g>
</svg>
