<?xml version="1.0" encoding="UTF-8" standalone="no"?>
<svg width="1500px" height="950px" viewBox="0 0 1500 950" version="1.1" xmlns="http://www.w3.org/2000/svg" xmlns:xlink="http://www.w3.org/1999/xlink" style="background: #FFFFFF;">
    <!-- Generator: Sketch 39.1 (31720) - http://www.bohemiancoding.com/sketch -->
    <title>monitoring</title>
    <desc>Created with Sketch.</desc>
    <defs>
        <polygon id="path-1" points="0 871.627443 873.888696 871.627443 873.888696 0 0 0"></polygon>
    </defs>
    <g id="Corp-Site-Index" stroke="none" stroke-width="1" fill="none" fill-rule="evenodd">
        <g id="monitoring">
            <g id="Page-1" transform="translate(601.000000, 39.000000)">
                <path d="M361.08941,823.166515 C320.979842,814.906812 283.114487,800.498565 248.524981,780.973054 L361.08941,823.166515 L361.08941,823.166515 Z" id="Stroke-1" stroke="#221F20" stroke-width="8" stroke-linecap="round"></path>
                <path d="M662.117901,762.190633 C626.379282,786.879302 586.322377,805.764986 543.309645,817.487041" id="Stroke-3" stroke="#221F20" stroke-width="8" stroke-linecap="round"></path>
                <path d="M824.246084,513.048084 C815.411015,560.203576 798.097357,604.373211 773.948438,643.914227" id="Stroke-5" stroke="#221F20" stroke-width="8" stroke-linecap="round"></path>
                <path d="M761.429456,218.321803 C795.04674,266.736701 817.989834,323.117035 826.85191,384.059846" id="Stroke-7" stroke="#221F20" stroke-width="8" stroke-linecap="round"></path>
                <path d="M522.878395,58.9775715 C574.400772,70.0598006 622.147685,91.3023146 663.916782,120.502166" id="Stroke-9" stroke="#221F20" stroke-width="8" stroke-linecap="round"></path>
                <path d="M54.831983,377.269855 C61.8373843,334.41497 75.8211806,293.904765 95.5788966,256.944654" id="Stroke-11" stroke="#221F20" stroke-width="8" stroke-linecap="round"></path>
                <path d="M116.412133,659.043562 C84.8230131,612.302472 63.0924961,558.357258 54.202064,500.188379" id="Stroke-13" stroke="#221F20" stroke-width="8" stroke-linecap="round"></path>
                <path d="M778.00652,197.07497 L670.38287,225.717335 C665.717554,226.959193 660.93071,224.185261 659.688426,219.522895 L642.208681,153.886672 C640.966397,149.224307 643.741281,144.439106 648.405247,143.197248 L756.030247,114.554883 C760.694213,113.313025 765.482407,116.086957 766.723341,120.749323 L784.203086,186.384196 C785.44537,191.047911 782.670486,195.833112 778.00652,197.07497 L778.00652,197.07497 Z" id="Stroke-15" stroke="#221F20" stroke-width="4"></path>
                <polygon id="Stroke-17" stroke="#221F20" stroke-width="2" stroke-linejoin="round" points="761.498187 161.209583 667.696296 186.17362 659.22581 154.368567 753.027701 129.40453"></polygon>
                <polygon id="Stroke-19" stroke="#221F20" stroke-width="2" stroke-linejoin="round" points="716.356019 196.98372 673.605247 208.361565 669.917554 194.512154 712.668326 183.134308"></polygon>
                <polygon id="Stroke-21" stroke="#221F20" stroke-width="2" stroke-linejoin="round" points="741.466493 190.300907 720.091107 195.989154 716.403414 182.139742 737.7788 176.451495"></polygon>
                <polygon id="Stroke-23" stroke="#221F20" stroke-width="2" stroke-linejoin="round" points="767.407137 183.397123 746.031752 189.085371 742.344059 175.235959 763.719444 169.547711"></polygon>
                <path d="M675.759529,175.259446 C676.055247,175.31479 676.387423,175.298592 676.752006,175.200053 C677.11659,175.102864 677.412307,174.953032 677.639159,174.751905 C677.867361,174.552128 678.028048,174.333453 678.121219,174.09723 C678.21439,173.861007 678.260301,173.56944 678.2576,173.22253 C678.25625,172.87697 678.225193,172.550307 678.16713,172.245242 C678.109066,171.940177 678.025347,171.578419 677.911921,171.153217 C677.787693,170.686171 677.647261,170.277168 677.490625,169.924858 C677.333989,169.571199 677.139545,169.245886 676.904591,168.94892 C676.668287,168.653304 676.383372,168.450827 676.051196,168.344189 C675.71767,168.238902 675.342284,168.240251 674.927739,168.350939 C674.511844,168.461626 674.182369,168.647905 673.943364,168.904375 C673.70436,169.164895 673.554475,169.482109 673.493711,169.851967 C673.431597,170.224524 673.420795,170.60248 673.461304,170.984487 C673.500463,171.369193 673.584182,171.797093 673.711111,172.270889 C673.821836,172.69609 673.932562,173.055149 674.039236,173.350765 C674.14456,173.646381 674.282292,173.946047 674.453781,174.247063 C674.62392,174.550778 674.810262,174.778902 675.011458,174.936833 C675.212654,175.092066 675.463812,175.202753 675.759529,175.259446 M674.213426,165.671496 C674.578009,165.574307 674.861574,165.409626 675.06142,165.177453 C675.261265,164.943929 675.377392,164.652363 675.408449,164.304103 C675.440856,163.954493 675.434105,163.615682 675.389545,163.28227 C675.342284,162.952908 675.262616,162.568202 675.146489,162.130852 C674.649576,160.264016 673.816435,159.485155 672.649769,159.79562 C671.468248,160.110134 671.12392,161.202159 671.620833,163.068994 C671.73696,163.506344 671.861188,163.881601 671.993519,164.193415 C672.123148,164.507929 672.287886,164.804895 672.489082,165.088363 C672.688927,165.37183 672.933333,165.563508 673.220949,165.667446 C673.511265,165.768685 673.840741,165.771385 674.213426,165.671496 M677.363696,177.49749 C675.640702,177.956437 674.259336,177.790406 673.218248,176.999397 C672.17446,176.212437 671.406134,174.884189 670.90787,173.017354 C670.583796,171.797093 670.490625,170.776611 670.628356,169.946456 C670.767438,169.116301 671.145525,168.364437 671.763966,167.693564 C671.009144,167.387149 670.392052,166.926852 669.908642,166.311323 C669.423881,165.699843 669.043094,164.872388 668.764931,163.828957 C668.335532,162.210493 668.388194,160.852549 668.922917,159.756474 C669.46034,158.66175 670.497377,157.907186 672.038079,157.498183 C673.569329,157.09053 674.839969,157.232264 675.845949,157.919335 C676.85463,158.609106 677.572994,159.759174 678.002392,161.370889 C678.281906,162.421069 678.365625,163.329515 678.253549,164.097576 C678.142824,164.866988 677.836304,165.571607 677.333989,166.210084 C678.198187,166.494902 678.898997,166.965998 679.431019,167.620672 C679.965741,168.275347 680.393789,169.204041 680.713812,170.408103 C681.210725,172.274939 681.206674,173.808363 680.698958,175.008375 C680.188542,176.211087 679.078588,177.041242 677.363696,177.49749" id="Fill-25" fill="#221F20"></path>
                <path d="M687.365567,172.059503 C687.701794,172.17964 688.071779,172.187739 688.47282,172.081101 C688.872512,171.974463 689.189834,171.784135 689.422087,171.511466 C689.65434,171.238798 689.798823,170.908085 689.854186,170.51798 C689.912249,170.125175 689.920351,169.729671 689.882542,169.322017 C689.843383,168.911664 689.762365,168.479714 689.640837,168.020767 C689.567921,167.742698 689.512558,167.534822 689.473399,167.391739 C689.43559,167.248655 689.376177,167.047528 689.295158,166.789708 C689.212789,166.527838 689.146624,166.33076 689.091262,166.193076 C689.033198,166.055392 688.960282,165.882612 688.869811,165.672036 C688.77799,165.46281 688.69157,165.303528 688.607851,165.19689 C688.525482,165.088903 688.422859,164.964717 688.302681,164.821633 C688.181154,164.6772 688.059626,164.574612 687.934047,164.513869 C687.808468,164.453126 687.668036,164.397782 687.514101,164.345138 C687.358816,164.292494 687.188677,164.272246 687.005035,164.283045 C686.818692,164.291144 686.625598,164.32489 686.423052,164.378884 C685.516995,164.620507 684.940413,165.272482 684.691956,166.33751 L685.438677,169.138438 C685.562905,169.605485 685.710089,170.023937 685.878877,170.392445 C686.047666,170.762302 686.251563,171.101113 686.494618,171.412928 C686.737674,171.722042 687.02799,171.939367 687.365567,172.059503 M689.08451,174.378537 C688.413407,174.556717 687.77336,174.603962 687.165721,174.524321 C686.558083,174.44468 686.015258,174.255702 685.533198,173.962785 C685.053839,173.669869 684.610938,173.282463 684.204495,172.799219 C683.799402,172.318674 683.452373,171.774686 683.166107,171.165906 C682.878492,170.561175 682.640837,169.899751 682.451794,169.184333 L680.77336,162.883256 C680.558661,162.081448 680.408777,161.326884 680.322357,160.618215 C680.235938,159.910897 680.225135,159.215726 680.29265,158.530005 C680.360166,157.844284 680.518152,157.234154 680.766609,156.698265 C681.013715,156.163726 681.390451,155.69263 681.895467,155.284977 C682.400482,154.877324 683.021624,154.576308 683.758893,154.379231 C685.333353,153.959429 686.663407,154.084965 687.747704,154.751788 C688.832002,155.421311 689.589525,156.560581 690.018924,158.172296 L687.217033,158.91876 C686.967226,157.984667 686.630999,157.325943 686.202951,156.938537 C685.774904,156.552482 685.164564,156.464742 684.370583,156.676667 C682.968962,157.050575 682.642188,158.636643 683.387558,161.437572 L684.132928,164.2385 C684.424595,163.162674 685.23478,162.445906 686.562133,162.092246 C687.350714,161.881671 688.058275,161.839825 688.69022,161.964011 C689.322164,162.090897 689.862288,162.373014 690.31059,162.810364 C690.758893,163.249064 691.13968,163.775503 691.451601,164.386983 C691.762172,164.999813 692.032234,165.728729 692.256385,166.573733 C692.500791,167.492977 692.633121,168.358228 692.654726,169.169485 C692.674981,169.980742 692.575058,170.739355 692.357658,171.445324 C692.138908,172.151293 691.75407,172.758723 691.203144,173.268965 C690.652218,173.779206 689.944657,174.149064 689.08451,174.378537" id="Fill-27" fill="#221F20"></path>
                <polygon id="Fill-29" fill="#221F20" points="696.834201 172.104318 695.82282 153.876009 690.647087 155.252851 690.025945 152.920318 697.873939 150.832108 698.231771 152.179253 699.525367 171.38755"></polygon>
                <polygon id="Fill-31" fill="#221F20" points="702.488619 165.351178 701.929591 163.250819 706.131752 162.133147 706.69213 164.233506"></polygon>
                <path d="M713.904128,167.77253 C712.16088,168.236877 710.786265,168.077595 709.780285,167.294685 C708.774306,166.510425 708.019483,165.167329 707.513117,163.264047 L710.313657,162.517583 L710.429784,162.954933 C710.529707,163.32749 710.628279,163.648753 710.726852,163.914672 C710.824074,164.180592 710.951003,164.446511 711.102238,164.71648 C711.257523,164.9824 711.424961,165.188926 711.607253,165.33201 C711.789545,165.473744 712.013696,165.573632 712.278356,165.627626 C712.543017,165.68297 712.836034,165.666772 713.157407,165.580381 C713.411265,165.514239 713.634066,165.4211 713.82716,165.303663 C714.017554,165.184877 714.17689,165.062041 714.302469,164.929756 C714.428048,164.798821 714.52527,164.63009 714.596836,164.423564 C714.664352,164.218388 714.718364,164.032109 714.756173,163.862028 C714.791281,163.691948 714.800733,163.466524 714.781829,163.192505 C714.764275,162.915787 714.74402,162.684963 714.719715,162.500035 C714.69811,162.313756 714.652199,162.058635 714.580633,161.727923 C714.507716,161.399911 714.449653,161.14749 714.401042,160.96796 C714.353781,160.789781 714.282215,160.522511 714.187693,160.164802 C714.144483,160.005521 714.113426,159.882685 714.091821,159.803044 C714.008102,159.48988 713.932485,159.222611 713.864969,159.001236 C713.798804,158.781211 713.715085,158.544988 713.612461,158.296617 C713.512539,158.044196 713.408565,157.839019 713.303241,157.679737 C713.196566,157.520456 713.070988,157.367923 712.922454,157.22079 C712.77392,157.070957 712.611883,156.968369 712.440394,156.902227 C712.267554,156.841484 712.063657,156.806388 711.831404,156.802338 C711.601852,156.795589 711.350694,156.829335 711.079282,156.902227 C710.583719,157.034511 710.196181,157.30853 709.916667,157.726982 C709.637153,158.145434 709.472415,158.593583 709.421103,159.078177 L707.033758,159.712604 L704.219715,149.144666 L712.888696,146.836431 L713.634066,149.63736 L707.505015,151.269323 L708.594715,156.063973 C709.257716,155.38905 710.130015,154.905806 711.210262,154.618289 C711.844907,154.449558 712.429591,154.396914 712.967014,154.461707 C713.504437,154.525149 713.974344,154.681731 714.376736,154.936852 C714.779128,155.187923 715.147762,155.536183 715.478588,155.977583 C715.813465,156.421682 716.094329,156.907626 716.326582,157.438115 C716.557485,157.971304 716.764082,158.576035 716.943673,159.255007 C717.169174,160.093261 717.32716,160.864022 717.420332,161.565942 C717.512153,162.265162 717.529707,162.961682 717.470293,163.648753 C717.41088,164.334474 717.255594,164.939205 717.003086,165.458895 C716.750579,165.981285 716.36439,166.442933 715.844522,166.849236 C715.324653,167.259589 714.676505,167.566004 713.904128,167.77253" id="Fill-33" fill="#221F20"></path>
                <path d="M725.297897,164.741183 C723.705883,165.163684 722.371779,165.039498 721.295583,164.369975 C720.218036,163.700452 719.465914,162.558483 719.036516,160.948118 L718.848823,160.247548 L721.650714,159.501084 C721.76684,159.937084 721.880266,160.308291 721.988291,160.613356 C722.094965,160.915721 722.234047,161.218087 722.402836,161.515053 C722.574325,161.814718 722.756617,162.040142 722.953762,162.194025 C723.150907,162.349257 723.399363,162.453195 723.693731,162.508539 C723.989448,162.561183 724.318924,162.540935 724.684857,162.443746 C725.04809,162.346557 725.347859,162.200774 725.576061,162.007746 C725.805613,161.812019 725.9663,161.600093 726.063522,161.36792 C726.155343,161.135746 726.203954,160.849579 726.201254,160.505368 C726.199904,160.161158 726.171547,159.831796 726.113484,159.514582 C726.056771,159.197368 725.970351,158.819412 725.854225,158.383412 C725.554456,157.260341 725.107504,156.454483 724.510667,155.963139 C723.916532,155.471796 723.118499,155.362458 722.120621,155.627028 L721.3739,152.826099 C722.396084,152.55613 723.061786,152.155226 723.372357,151.622037 C723.684279,151.088848 723.703183,150.308638 723.430421,149.281406 C723.181964,148.355412 722.843036,147.698037 722.410937,147.309282 C721.980189,146.919176 721.36985,146.828737 720.58397,147.039313 C720.218036,147.136502 719.920968,147.280935 719.690066,147.476663 C719.460513,147.66969 719.298476,147.882966 719.203954,148.113789 C719.109433,148.347313 719.063522,148.63348 719.066223,148.97769 C719.067573,149.323251 719.09593,149.651263 719.152643,149.968477 C719.212056,150.28569 719.297126,150.662297 719.413252,151.098297 L716.612712,151.844762 L716.425019,151.145542 C715.998322,149.541926 716.086092,148.175882 716.68968,147.055511 C717.294618,145.933789 718.387018,145.163028 719.97093,144.741876 C721.560243,144.318025 722.894348,144.44356 723.971894,145.111734 C725.04809,145.782607 725.802913,146.923226 726.22961,148.534941 C726.526678,149.643164 726.519927,150.620452 726.213407,151.462755 C725.906887,152.306409 725.35191,152.979981 724.548476,153.483474 C725.540953,153.546916 726.390297,153.932972 727.089757,154.644341 C727.791917,155.355709 728.313137,156.353245 728.656115,157.636947 C729.144927,159.474087 729.131424,161.007511 728.611555,162.229121 C728.094387,163.45343 726.988484,164.290334 725.297897,164.741183" id="Fill-35" fill="#221F20"></path>
                <path d="M736.120216,159.39998 C737.521836,159.027423 737.912076,157.673528 737.289583,155.339646 L735.052122,146.936859 C734.948148,146.544054 734.837423,146.195794 734.728048,145.892079 C734.614622,145.589714 734.47284,145.294098 734.295949,144.998482 C734.119059,144.706915 733.928665,144.476092 733.724769,144.301962 C733.518171,144.131881 733.269715,144.014445 732.979398,143.952352 C732.687731,143.888909 732.369059,143.902407 732.019329,143.995547 C731.669599,144.088686 731.383333,144.235819 731.163233,144.435596 C730.941782,144.634024 730.786497,144.859448 730.691975,145.110519 C730.598804,145.36159 730.547492,145.657206 730.542091,145.998717 C730.53534,146.341578 730.556944,146.67094 730.610957,146.988154 C730.666319,147.306717 730.744637,147.661726 730.849961,148.054531 L733.087423,156.457318 C733.210301,156.916265 733.352083,157.332017 733.518171,157.701875 C733.682909,158.071733 733.886806,158.411893 734.128511,158.723708 C734.371566,159.032822 734.663233,159.251497 735.00216,159.375683 C735.339738,159.501219 735.712423,159.507968 736.120216,159.39998 M736.733256,161.697417 C735.667863,161.980884 734.69429,161.968736 733.812539,161.66502 C732.929437,161.361305 732.19892,160.826767 731.616937,160.065454 C731.034954,159.302791 730.592052,158.348451 730.286883,157.202432 L728.048071,148.800996 C727.568711,147.000302 727.599769,145.476327 728.141242,144.22502 C728.682716,142.973714 729.772415,142.13276 731.406289,141.69811 C733.03341,141.26481 734.394522,141.457838 735.490972,142.275844 C736.590123,143.0925 737.376003,144.397801 737.855363,146.190395 L740.091474,154.593181 C740.558681,156.35203 740.515471,157.869256 739.960494,159.14351 C739.406867,160.420463 738.330671,161.272215 736.733256,161.697417" id="Fill-37" fill="#221F20"></path>
                <path d="M745.932774,148.54115 C746.821277,148.304928 747.397859,147.648903 747.661169,146.579825 L746.914448,143.778897 C746.79022,143.3132 746.645737,142.894748 746.474248,142.52489 C746.30816,142.157733 746.100212,141.817572 745.858507,141.508457 C745.615451,141.197993 745.325135,140.982017 744.987558,140.859181 C744.652681,140.740395 744.281346,140.732296 743.883005,140.837584 C743.479263,140.945572 743.163291,141.13455 742.931038,141.405869 C742.698785,141.679887 742.555652,142.011949 742.498939,142.400705 C742.442226,142.79081 742.434124,143.190364 742.471933,143.598017 C742.509742,144.005671 742.59076,144.440321 742.713638,144.897918 C742.785204,145.175986 742.841917,145.383863 742.879726,145.526946 C742.918885,145.67138 742.978299,145.871157 743.057967,146.130327 C743.138985,146.390847 743.206501,146.589274 743.263214,146.725609 C743.319927,146.863293 743.392843,147.037423 743.484664,147.246649 C743.575135,147.457225 743.662905,147.615157 743.746624,147.721794 C743.830343,147.828432 743.930266,147.953968 744.051794,148.098401 C744.171971,148.241485 744.29485,148.342723 744.421779,148.404816 C744.544657,148.464209 744.685089,148.520903 744.839024,148.572197 C744.994309,148.626191 745.164448,148.646438 745.349441,148.63564 C745.533083,148.626191 745.728877,148.595144 745.932774,148.54115 M748.596933,158.539454 C747.019772,158.959256 745.689718,158.83507 744.605421,158.165547 C743.521123,157.498723 742.7636,156.356754 742.335552,154.746389 L745.137442,154.001274 C745.385899,154.935367 745.723476,155.594092 746.150174,155.980147 C746.576871,156.367553 747.188561,156.453943 747.983893,156.242017 C749.385513,155.87081 749.712288,154.282042 748.966917,151.481113 L748.220197,148.680185 C747.913677,149.76276 747.103492,150.478178 745.792342,150.827788 C745.003762,151.037014 744.29485,151.080209 743.662905,150.954674 C743.032311,150.829138 742.492187,150.54702 742.042535,150.109671 C741.592882,149.668271 741.213445,149.143181 740.902874,148.531702 C740.590953,147.918872 740.323592,147.191305 740.09674,146.343602 C739.852334,145.424358 739.720004,144.560457 739.699749,143.74785 C739.679495,142.937943 739.778067,142.18068 739.995467,141.472011 C740.215567,140.767392 740.599055,140.159962 741.149981,139.64837 C741.703607,139.140828 742.408468,138.770971 743.268615,138.540147 C743.939718,138.361968 744.581115,138.312024 745.187404,138.393014 C745.795042,138.474005 746.339217,138.660284 746.819927,138.95455 C747.300637,139.248816 747.743538,139.637572 748.14863,140.119466 C748.555073,140.600011 748.900752,141.145349 749.188368,141.752779 C749.473283,142.358859 749.713638,143.020284 749.904032,143.735702 L751.582465,150.036779 C751.795814,150.838587 751.944348,151.59315 752.032118,152.300469 C752.119888,153.006438 752.12799,153.704308 752.060475,154.39003 C751.992959,155.075751 751.834973,155.684531 751.586516,156.22042 C751.33941,156.756308 750.962674,157.226054 750.457658,157.633708 C749.952643,158.041361 749.332851,158.343726 748.596933,158.539454" id="Fill-39" fill="#221F20"></path>
                <path d="M791.508391,116.735558 C786.362365,97.4125238 766.519579,85.9172421 747.189911,91.0615022" id="Stroke-41" stroke="#221F20" stroke-width="2" stroke-linecap="round"></path>
                <path d="M778.258893,120.261759 C775.061362,108.253536 762.730343,101.110155 750.717998,104.306588" id="Stroke-43" stroke="#221F20" stroke-width="4" stroke-linecap="round"></path>
                <path d="M634.106964,223.242799 C639.25299,242.565833 659.095775,254.061115 678.425444,248.916854" id="Stroke-45" stroke="#221F20" stroke-width="2" stroke-linecap="round"></path>
                <path d="M647.356462,219.716598 C650.553993,231.724821 662.885012,238.868202 674.897357,235.671768" id="Stroke-47" stroke="#221F20" stroke-width="4" stroke-linecap="round"></path>
                <path d="M146.08287,143.283773 L110.719637,217.977458 C110.719637,217.977458 108.773843,227.435823 118.938966,228.85451 L195.34348,208.508293" id="Stroke-49" stroke="#221F20" stroke-width="4" stroke-linecap="round" stroke-linejoin="round"></path>
                <path d="M190.9674,187.288862 C196.519869,197.796057 198.491319,206.132701 195.34375,208.508428 C190.558256,212.119264 175.753472,200.580788 162.276042,182.735834 C148.798611,164.89088 141.752701,147.496775 146.538194,143.885939 C149.662809,141.52776 157.059799,145.628589 165.569444,153.727661" id="Stroke-51" stroke="#221F20" stroke-width="4" stroke-linecap="round" stroke-linejoin="round"></path>
                <g id="Group-56" transform="translate(174.189815, 162.958712)">
                    <path d="M0.720524691,0.79465387 C2.29093364,2.66958885 3.8626929,4.64306254 5.41554784,6.69887678 C7.07372685,8.89507492 8.63468364,11.083174 10.0876157,13.2415765" id="Fill-53" fill="#FEFEFE"></path>
                    <path d="M0.720524691,0.79465387 C2.29093364,2.66958885 3.8626929,4.64306254 5.41554784,6.69887678 C7.07372685,8.89507492 8.63468364,11.083174 10.0876157,13.2415765" id="Stroke-55" stroke="#221F20" stroke-width="4" stroke-linecap="round" stroke-linejoin="round"></path>
                </g>
                <path d="M178.490818,187.96149 C178.490818,187.96149 230.686998,148.178852 254.333603,184.501837" id="Stroke-57" stroke="#221F20" stroke-width="2"></path>
                <path d="M160.034799,163.746347 C160.034799,163.746347 179.0674,162.017195 188.584375,125.981728" id="Stroke-59" stroke="#221F20" stroke-width="2"></path>
                <path d="M200.59186,155.674677 C200.59186,155.674677 194.231906,135.544436 205.061381,143.072523 C215.890856,150.601959 213.313117,136.199111 213.313117,136.199111 C213.313117,136.199111 206.093017,121.797612 220.533218,131.289724 C234.973418,140.781835 229.299421,124.252981 229.299421,124.252981" id="Stroke-61" stroke="#221F20" stroke-width="2"></path>
                <path d="M202.157272,214.417511 C202.157272,214.417511 217.399556,199.808136 215.438908,212.847641 C213.47961,225.887146 225.257002,217.202241 225.257002,217.202241 C225.257002,217.202241 234.981925,204.357115 232.856539,221.502848 C230.731154,238.647232 243.048669,226.247554 243.048669,226.247554" id="Stroke-63" stroke="#221F20" stroke-width="2"></path>
                <path d="M140.233468,92.013413 C140.233468,92.013413 161.345544,92.4575121 150.736169,100.292014 C140.125444,108.126515 154.598052,110.311915 154.598052,110.311915 C154.598052,110.311915 170.56005,108.102218 156.930035,118.7228 C143.300019,129.344732 160.781115,129.283989 160.781115,129.283989" id="Stroke-65" stroke="#221F20" stroke-width="2"></path>
                <mask id="mask-2" fill="white">
                    <use xlink:href="#path-1"></use>
                </mask>
                <g id="Clip-68"></g>
                <polygon id="Fill-67" fill="#221F20" mask="url(#mask-2)" points="188.584105 108.397969 193.19811 108.397969 193.19811 103.785548 188.584105 103.785548"></polygon>
                <polygon id="Fill-69" fill="#221F20" mask="url(#mask-2)" points="125.141204 108.397969 129.755208 108.397969 129.755208 103.785548 125.141204 103.785548"></polygon>
                <polygon id="Fill-70" fill="#221F20" mask="url(#mask-2)" points="105.957369 149.476458 110.571373 149.476458 110.571373 144.864037 105.957369 144.864037"></polygon>
                <polygon id="Fill-71" fill="#221F20" mask="url(#mask-2)" points="247.128221 166.994614 243.586362 164.038453 246.543538 160.497809 250.085397 163.45397"></polygon>
                <polygon id="Fill-72" fill="#221F20" mask="url(#mask-2)" points="227.441397 196.687159 223.899537 193.730998 226.856713 190.190354 230.398573 193.146515"></polygon>
                <polygon id="Fill-73" fill="#221F20" mask="url(#mask-2)" points="191.183449 232.103048 187.64159 229.146887 190.598765 225.606243 194.140625 228.562404"></polygon>
                <path d="M671.090162,707.095081 L671.090162,725.909224" id="Stroke-74" stroke="#221F20" stroke-width="4" stroke-linecap="round" stroke-linejoin="round" mask="url(#mask-2)"></path>
                <polyline id="Stroke-75" stroke="#221F20" stroke-width="4" stroke-linecap="round" stroke-linejoin="round" mask="url(#mask-2)" points="675.300154 671.18272 671.089892 671.18272 671.089892 675.691202"></polyline>
                <polyline id="Stroke-76" stroke="#221F20" stroke-width="4" stroke-linecap="round" stroke-linejoin="round" mask="url(#mask-2)" points="671.090162 750.9691 759.297724 750.9691 759.297724 671.18245 698.859259 671.18245"></polyline>
                <path d="M671.090162,741.609408 L671.090162,750.969235" id="Stroke-77" stroke="#221F20" stroke-width="4" stroke-linecap="round" stroke-linejoin="round" mask="url(#mask-2)"></path>
                <polyline id="Stroke-78" stroke="#221F20" stroke-width="2" stroke-linecap="round" stroke-linejoin="round" mask="url(#mask-2)" points="667.22963 734.596827 689.45706 727.580332 706.653241 737.520592 723.733295 727.580332 750.580131 680.928332"></polyline>
                <polygon id="Stroke-79" stroke="#221F20" stroke-width="2" stroke-linecap="round" stroke-linejoin="round" mask="url(#mask-2)" points="686.184182 662.079498 697.07037 680.927387 707.956559 699.776625 686.184182 699.776625 664.411806 699.776625 675.297994 680.927387"></polygon>
                <path d="M684.198688,694.568248 L687.937693,694.568248 L687.937693,690.900718 L684.198688,690.900718 L684.198688,694.568248 Z M685.403164,689.222861 L684.198688,673.738786 L688.169946,673.738786 L686.74537,689.222861 L685.403164,689.222861 Z" id="Fill-80" fill="#221F20" mask="url(#mask-2)"></path>
                <polyline id="Stroke-81" stroke="#221F20" stroke-width="4" stroke-linecap="round" stroke-linejoin="round" mask="url(#mask-2)" points="50.8668017 401.870784 5.2101659 401.870784 5.2101659 408.838685"></polyline>
                <polyline id="Stroke-82" stroke="#221F20" stroke-width="4" stroke-linecap="round" stroke-linejoin="round" mask="url(#mask-2)" points="5.21084105 423.185245 5.21084105 481.656489 93.4184028 481.656489 93.4184028 441.590384"></polyline>
                <polyline id="Stroke-83" stroke="#221F20" stroke-width="2" stroke-linecap="round" stroke-linejoin="round" mask="url(#mask-2)" points="1.35030864 414.539486 23.5777392 421.555981 33.521412 434.283672 51.1226852 453.232799 84.7008102 468.207981"></polyline>
                <polygon id="Stroke-84" stroke="#221F20" stroke-width="2" stroke-linecap="square" mask="url(#mask-2)" points="62.2289738 432.524149 100.816744 432.524149 100.816744 393.949622 62.2289738 393.949622"></polygon>
                <polyline id="Stroke-85" stroke="#221F20" stroke-width="2" stroke-linecap="round" stroke-linejoin="round" mask="url(#mask-2)" points="73.3406636 410.736837 74.8341049 410.736837 80.5621142 404.015958 82.5538194 398.289915 87.4513889 399.866534 88.0320216 403.435524 85.9836034 408.330063 92.5974151 408.496094 95.5856481 411.15124 94.2731481 415.549035 94.9212963 416.793593 93.6763117 419.448738 93.9261188 422.345506 92.5974151 423.18376 93.095679 426.170967 91.0202546 427.829927 82.7199074 428.742422 74.9178241 425.838905 73.3406636 425.838905"></polyline>
                <polyline id="Stroke-86" stroke="#221F20" stroke-width="2" mask="url(#mask-2)" points="73.3406636 414.402207 73.3406636 410.737377 69.273534 410.737377 69.273534 414.538541"></polyline>
                <polyline id="Stroke-87" stroke="#221F20" stroke-width="2" mask="url(#mask-2)" points="69.2733989 421.43706 69.2733989 425.838905 73.3405285 425.838905 73.3405285 421.433011"></polyline>
                <path d="M75.3742284,417.918959 C75.3742284,420.165101 73.552662,421.984692 71.3070988,421.984692 C69.0601852,421.984692 67.2399691,420.165101 67.2399691,417.918959 C67.2399691,415.672816 69.0601852,413.853225 71.3070988,413.853225 C73.552662,413.853225 75.3742284,415.672816 75.3742284,417.918959 L75.3742284,417.918959 Z" id="Stroke-88" stroke="#221F20" stroke-width="2" mask="url(#mask-2)"></path>
                <polygon id="Stroke-89" stroke="#221F20" stroke-width="4" mask="url(#mask-2)" points="362.795525 107.214155 503.218171 107.214155 503.218171 2.6996904 362.795525 2.6996904"></polygon>
                <polygon id="Stroke-90" stroke="#221F20" stroke-width="2" stroke-linecap="round" stroke-linejoin="round" mask="url(#mask-2)" points="369.008295 17.4413498 382.677469 17.4413498 382.677469 10.8311579 369.008295 10.8311579"></polygon>
                <polygon id="Stroke-91" stroke="#221F20" stroke-width="2" stroke-linecap="round" stroke-linejoin="round" mask="url(#mask-2)" points="386.716242 17.4413498 481.002894 17.4413498 481.002894 10.8311579 386.716242 10.8311579"></polygon>
                <path d="M362.79512,26.1463666 L503.217766,26.1463666" id="Stroke-92" stroke="#221F20" stroke-width="2" mask="url(#mask-2)"></path>
                <polygon id="Stroke-93" stroke="#221F20" stroke-width="2" stroke-linecap="round" stroke-linejoin="round" mask="url(#mask-2)" points="403.123438 48.3399814 412.490529 64.5583715 421.85762 80.7767616 403.123438 80.7767616 384.390606 80.7767616 393.756346 64.5583715"></polygon>
                <path d="M401.415702,76.2946006 L404.633488,76.2946006 L404.633488,73.1386625 L401.415702,73.1386625 L401.415702,76.2946006 Z M402.451389,71.6943282 L401.415702,58.3727059 L404.831983,58.3727059 L403.605903,71.6943282 L402.451389,71.6943282 Z" id="Fill-94" fill="#221F20" mask="url(#mask-2)"></path>
                <polygon id="Stroke-95" stroke="#221F20" stroke-width="2" stroke-linecap="round" stroke-linejoin="round" mask="url(#mask-2)" points="375.843557 93.2284087 487.063079 93.2284087 487.063079 40.6397895 375.843557 40.6397895"></polygon>
                <path d="M433.534819,80.9672248 C430.680266,80.9672248 428.644001,80.1654167 427.426022,78.5591009 C426.208044,76.954135 425.599055,74.5919059 425.599055,71.4751133 L430.184703,71.4751133 L430.184703,72.1918811 C430.184703,72.8006613 430.204958,73.3298006 430.248167,73.7752495 C430.288677,74.2260978 430.372396,74.6850452 430.499325,75.1561412 C430.622203,75.628587 430.796393,76.0105932 431.016493,76.3035096 C431.237944,76.5950762 431.540413,76.8366985 431.92255,77.0270266 C432.304688,77.2187046 432.758391,77.3131938 433.283661,77.3131938 C433.702257,77.3131938 434.081694,77.2645994 434.420621,77.1620111 C434.7636,77.0607728 435.053916,76.9352372 435.301022,76.7840545 C435.542728,76.6369214 435.762828,76.4182464 435.953221,76.1320793 C436.144965,75.8459121 436.304302,75.5799926 436.42718,75.3356706 C436.554109,75.0913486 436.658083,74.7525375 436.741802,74.3232867 C436.825521,73.8926861 436.886285,73.5336272 436.928144,73.2380111 C436.970004,72.9477944 437.003762,72.5360916 437.028067,72.0042526 C437.052373,71.4737635 437.064525,71.0620607 437.064525,70.7677944 L437.064525,69.4516954 L437.064525,68.8604632 C437.064525,68.347522 437.057774,67.9101721 437.045621,67.5430142 C437.034819,67.1812557 436.999711,66.7871009 436.948399,66.3618997 C436.893036,65.9393981 436.818769,65.583039 436.724248,65.2968718 C436.628376,65.0107046 436.497396,64.7245375 436.329958,64.4370204 C436.162519,64.1508533 435.959973,63.9240793 435.720968,63.7566985 C435.481964,63.5893176 435.184896,63.455683 434.835166,63.3530947 C434.480035,63.2532062 434.084394,63.2019121 433.642843,63.2019121 C432.829958,63.2019121 432.125096,63.463782 431.52826,63.9902217 C430.931424,64.5153115 430.495274,65.1362402 430.221161,65.8516582 L426.314718,65.8516582 L426.314718,48.5520421 L440.503762,48.5520421 L440.503762,53.1374663 L430.470968,53.1374663 L430.184703,60.9098749 C431.474248,60.1458625 433.002797,59.7638563 434.770351,59.7638563 C435.810089,59.7638563 436.725598,59.9217882 437.52228,60.2363022 C438.313561,60.5548656 438.968461,60.9868161 439.482928,61.5362031 C439.996046,62.0855901 440.415992,62.7659121 440.746817,63.577169 C441.073592,64.3897759 441.305845,65.2496272 441.443576,66.1567232 C441.579958,67.0638192 441.650174,68.0735034 441.650174,69.1830762 C441.650174,70.5558687 441.578607,71.7977263 441.435475,72.9086489 C441.292342,74.0182217 441.035783,75.0872991 440.664448,76.1145313 C440.294464,77.1404136 439.811053,78.000265 439.214217,78.6927356 C438.61603,79.3852062 437.836902,79.935943 436.876833,80.3503455 C435.914063,80.7606985 434.801408,80.9672248 433.534819,80.9672248" id="Fill-96" fill="#221F20" mask="url(#mask-2)"></path>
                <path d="M452.50679,77.2064211 C454.799614,77.2064211 455.946026,75.2963901 455.946026,71.4749783 L455.946026,57.7214056 C455.946026,57.0775294 455.923071,56.5011455 455.87446,55.9949536 C455.827199,55.4874118 455.727276,54.9717709 455.580093,54.4547802 C455.428858,53.9323901 455.231713,53.5004396 454.987307,53.1548793 C454.741551,52.807969 454.412076,52.5285511 453.99348,52.3125759 C453.576235,52.0979505 453.080671,51.9913127 452.50679,51.9913127 C451.932909,51.9913127 451.437346,52.0979505 451.0201,52.3125759 C450.601505,52.5285511 450.269329,52.807969 450.026273,53.1548793 C449.779167,53.5004396 449.582022,53.9323901 449.433488,54.4547802 C449.283603,54.9717709 449.186381,55.4874118 449.13912,55.9949536 C449.090509,56.5011455 449.067554,57.0775294 449.067554,57.7214056 L449.067554,71.4749783 C449.067554,72.228192 449.117515,72.9206625 449.218789,73.5523901 C449.320062,74.1854675 449.492901,74.7888483 449.740008,75.3611827 C449.983063,75.9348669 450.339545,76.387065 450.805401,76.7123777 C451.271258,77.0430898 451.838387,77.2064211 452.50679,77.2064211 M452.50679,80.9670898 C450.763542,80.9670898 449.278202,80.555387 448.056173,79.7319814 C446.830093,78.907226 445.928086,77.7949536 445.348804,76.3911146 C444.769522,74.9899752 444.480556,73.3499133 444.480556,71.4749783 L444.480556,57.7214056 C444.480556,54.7719938 445.150309,52.4543096 446.487114,50.7643034 C447.82527,49.0756471 449.831829,48.2292941 452.50679,48.2292941 C455.169599,48.2292941 457.172106,49.0769969 458.518364,50.7724025 C459.859221,52.467808 460.533025,54.7841424 460.533025,57.7214056 L460.533025,71.4749783 C460.533025,74.3528483 459.848418,76.6556842 458.481906,78.3807864 C457.112693,80.1058885 455.122338,80.9670898 452.50679,80.9670898" id="Fill-97" fill="#221F20" mask="url(#mask-2)"></path>
                <path d="M471.99836,77.2064211 C474.291184,77.2064211 475.437596,75.2963901 475.437596,71.4749783 L475.437596,57.7214056 C475.437596,57.0775294 475.414641,56.5011455 475.36603,55.9949536 C475.318769,55.4874118 475.218846,54.9717709 475.071663,54.4547802 C474.920428,53.9323901 474.723283,53.5004396 474.478877,53.1548793 C474.233121,52.807969 473.903646,52.5285511 473.48505,52.3125759 C473.067805,52.0979505 472.572242,51.9913127 471.99836,51.9913127 C471.424479,51.9913127 470.928916,52.0979505 470.511671,52.3125759 C470.093075,52.5285511 469.760899,52.807969 469.517843,53.1548793 C469.270737,53.5004396 469.073592,53.9323901 468.925058,54.4547802 C468.775174,54.9717709 468.677951,55.4874118 468.630691,55.9949536 C468.582079,56.5011455 468.559124,57.0775294 468.559124,57.7214056 L468.559124,71.4749783 C468.559124,72.228192 468.609086,72.9206625 468.710359,73.5523901 C468.811632,74.1854675 468.984471,74.7888483 469.231578,75.3611827 C469.474633,75.9348669 469.831115,76.387065 470.296971,76.7123777 C470.762828,77.0430898 471.329958,77.2064211 471.99836,77.2064211 M471.99836,80.9670898 C470.255112,80.9670898 468.769772,80.555387 467.547743,79.7319814 C466.321663,78.907226 465.419657,77.7949536 464.840374,76.3911146 C464.261092,74.9899752 463.972126,73.3499133 463.972126,71.4749783 L463.972126,57.7214056 C463.972126,54.7719938 464.641879,52.4543096 465.978684,50.7643034 C467.31684,49.0756471 469.323399,48.2292941 471.99836,48.2292941 C474.661169,48.2292941 476.663677,49.0769969 478.009934,50.7724025 C479.350791,52.467808 480.024595,54.7841424 480.024595,57.7214056 L480.024595,71.4749783 C480.024595,74.3528483 479.339988,76.6556842 477.973476,78.3807864 C476.604263,80.1058885 474.613908,80.9670898 471.99836,80.9670898" id="Fill-98" fill="#221F20" mask="url(#mask-2)"></path>
                <polygon id="Stroke-99" stroke="#221F20" stroke-width="4" mask="url(#mask-2)" points="871.187809 435.727871 871.187809 417.974707 857.299884 417.974707 857.299884 404.091549 839.540625 404.091549 839.540625 417.974707 822.32689 417.974707 822.32689 404.091549 804.567631 404.091549 804.567631 417.974707 790.679707 417.974707 790.679707 435.727871 804.567631 435.727871 804.567631 452.935698 790.679707 452.935698 790.679707 470.688862 804.567631 470.688862 804.567631 484.57202 822.32689 484.57202 822.32689 470.688862 839.540625 470.688862 839.540625 484.57202 857.299884 484.57202 857.299884 470.688862 871.187809 470.688862 871.187809 452.935698 857.299884 452.935698 857.299884 435.727871"></polygon>
                <polygon id="Stroke-100" stroke="#221F20" stroke-width="3" mask="url(#mask-2)" points="822.32716 452.935158 839.540895 452.935158 839.540895 435.727331 822.32716 435.727331"></polygon>
                <path d="M412.144039,780.634378 C412.144039,780.634378 408.313214,793.652285 421.336941,803.607393 C421.336941,803.607393 423.635166,774.145672 446.616069,750.769053 C446.616069,750.769053 453.894232,792.886923 465.575752,803.607393 C465.575752,803.607393 478.024248,800.544594 476.491647,781.39974 C476.491647,781.39974 503.901563,823.08296 493.728337,848.789412 C487.183391,865.327715 470.363947,868.699628 470.363947,868.699628 L422.102566,868.927752 C422.102566,868.927752 396.373785,866.468334 396.056462,827.347121 C395.857967,802.842031 412.144039,780.634378 412.144039,780.634378 L412.144039,780.634378 Z" id="Stroke-101" stroke="#221F20" stroke-width="4" stroke-linecap="round" stroke-linejoin="round" mask="url(#mask-2)"></path>
                <path d="M393.567303,781.591553 C393.567303,781.591553 381.687288,798.804779 393.567303,798.822327 C397.780266,798.827726 393.567303,781.591553 393.567303,781.591553 L393.567303,781.591553 Z" id="Stroke-102" stroke="#221F20" stroke-width="2" stroke-linecap="round" stroke-linejoin="round" mask="url(#mask-2)"></path>
                <path d="M422.763812,736.31437 C422.763812,736.31437 405.086921,765.194308 422.763812,765.222655 C429.033295,765.233454 422.763812,736.31437 422.763812,736.31437 L422.763812,736.31437 Z" id="Stroke-103" stroke="#221F20" stroke-width="2" stroke-linecap="round" stroke-linejoin="round" mask="url(#mask-2)"></path>
                <path d="M495.528974,781.400145 C495.528974,781.400145 483.648958,798.613371 495.528974,798.630919 C499.741937,798.636318 495.528974,781.400145 495.528974,781.400145 L495.528974,781.400145 Z" id="Stroke-104" stroke="#221F20" stroke-width="2" stroke-linecap="round" stroke-linejoin="round" mask="url(#mask-2)"></path>
                <path d="M465.65299,753.831716 C465.65299,753.831716 453.772975,783.285339 465.65299,783.315035 C469.865953,783.324484 465.65299,753.831716 465.65299,753.831716 L465.65299,753.831716 Z" id="Stroke-105" stroke="#221F20" stroke-width="2" stroke-linecap="round" stroke-linejoin="round" mask="url(#mask-2)"></path>
                <path d="M422.102701,868.927752 C422.102701,868.927752 399.981944,828.032842 409.421952,816.574006 C409.421952,816.574006 418.86061,833.649548 427.625463,823.313783 C436.391667,812.979368 436.615818,796.129251 436.615818,796.129251 C436.615818,796.129251 450.827816,828.256916 463.948765,819.94457 C477.069715,811.630873 477.744869,804.217523 477.744869,804.217523 C477.744869,804.217523 491.526119,848.481647 470.364082,868.699628 L422.102701,868.927752 L422.102701,868.927752 Z" id="Stroke-106" stroke="#221F20" stroke-width="2" stroke-linecap="round" stroke-linejoin="round" mask="url(#mask-2)"></path>
                <polyline id="Stroke-107" stroke="#221F20" stroke-width="2" mask="url(#mask-2)" points="179.596586 734.045685 212.523862 773.015716 226.368576 761.326057 192.631115 721.396286"></polyline>
                <path d="M169.080652,721.600248 L151.888522,738.284334 C145.727064,736.193424 138.644695,737.529771 133.656655,742.370316 C126.566184,749.251827 126.397396,760.577028 133.281269,767.666415 C140.166493,774.755802 151.495583,774.923183 158.586053,768.041672 C163.575444,763.199777 165.121547,756.163034 163.212211,749.945647 L179.596856,734.04582" id="Stroke-108" stroke="#221F20" stroke-width="4" mask="url(#mask-2)"></path>
                <path d="M182.115181,708.950713 L159.411092,682.079345 L159.201794,682.256175 L177.457967,666.842292 C160.091647,661.994998 150.944657,672.059444 150.944657,672.059444 L130.722434,689.134986 L128.220313,686.174775 L120.929996,692.330069 L134.014487,707.815493 L141.303453,701.660199 L139.187519,699.154887 L145.566377,693.769004 L169.080652,721.600113" id="Stroke-109" stroke="#221F20" stroke-width="2" mask="url(#mask-2)"></path>
                <path d="M192.63098,721.396421 L214.215664,700.449523 C220.439236,702.65652 227.645833,701.372817 232.740548,696.494477 C237.985147,691.471703 239.519097,684.050254 237.307292,677.606093 L230.457176,684.166341 L227.305556,687.184594 L226.577739,687.881115 L218.196373,685.441944 L216.118248,676.966266 L216.846065,676.269746 L219.997685,673.251492 L226.847801,666.691245 C220.502701,664.20618 213.01929,665.42104 207.774691,670.442464 C202.704282,675.297858 201.101466,682.396693 202.997299,688.685622 L182.114776,708.950848" id="Stroke-110" stroke="#221F20" stroke-width="4" mask="url(#mask-2)"></path>
                <polygon id="Stroke-111" stroke="#221F20" stroke-width="2" mask="url(#mask-2)" points="148.255922 763.667633 139.858353 761.283807 137.723515 752.822977 143.987596 746.744624 152.385166 749.127101 154.520004 757.58928"></polygon>
                <path d="M145.565972,693.769274 L159.410687,682.079615" id="Stroke-112" stroke="#221F20" stroke-width="2" mask="url(#mask-2)"></path>
                <path d="M179.596586,734.045685 L192.631115,721.396286" id="Stroke-113" stroke="#221F20" stroke-width="4" mask="url(#mask-2)"></path>
                <path d="M182.115181,708.950713 L169.080652,721.600113" id="Stroke-114" stroke="#221F20" stroke-width="4" mask="url(#mask-2)"></path>
            </g>
            <g id="Cog4.0" transform="translate(786.000000, 273.000000)">
                <path d="M250.094197,18.1892666 C315.197506,18.1892666 371.675398,30.5115307 387.462361,34.2907959 L387.462361,122.566628 L114.590793,122.566628 L114.590793,34.2616264 C130.069382,30.4623072 185.123308,18.1892666 250.094197,18.1892666" id="Fill-1-Copy" fill="#C8C9C4"></path>
                <polygon id="Fill-2" fill="#ABABA8" points="254.462232 331.226551 387.914039 331.226551 387.914039 339.501555 254.462232 339.501555"></polygon>
                <polygon id="Fill-3" fill="#C8C8C4" points="159.608035 128.582825 343.410149 128.582825 343.410149 324.318863 159.608035 324.318863"></polygon>
                <path d="M173.780567,40.4965936 C156.674849,40.4965936 142.807064,54.8898878 142.807064,72.6449595 C142.807064,90.4000313 156.674849,104.791502 173.780567,104.791502 C190.888098,104.791502 204.754069,90.4000313 204.754069,72.6449595 C204.754069,54.8898878 190.888098,40.4965936 173.780567,40.4965936" id="Fill-4" fill="#8E8F8B"></path>
                <path d="M328.321564,40.74818 C311.35008,40.74818 297.591134,55.0284426 297.591134,72.6449595 C297.591134,90.2596534 311.35008,104.539916 328.321564,104.539916 C345.293048,104.539916 359.051995,90.2596534 359.051995,72.6449595 C359.051995,55.0284426 345.293048,40.74818 328.321564,40.74818" id="Fill-5" fill="#8E8F8B"></path>
                <polygon id="Fill-6" fill="#ABABA8" points="114.139115 331.226551 247.590922 331.226551 247.590922 339.501555 114.139115 339.501555"></polygon>
                <path d="M71.345798,235.248164 L71.3058907,235.346611 L43.8750677,224.349733 L43.8859515,224.327856 C49.6634394,211.44408 54.2981274,202.252061 59.471564,194.241404 L82.489003,211.589927 C78.191713,218.211389 75.3165738,225.006045 71.345798,235.248164" id="Fill-7" fill="#C8C8C4"></path>
                <path d="M83.6027793,209.923623 L60.5726425,192.564162 C66.1814313,184.181595 72.5412029,176.940282 81.6872292,167.804779 L95.437106,195.812908 L95.0144515,196.257742 C90.1004124,201.422555 86.5178257,205.694055 83.6027793,209.923623" id="Fill-8" fill="#C8C8C4"></path>
                <path d="M71.345798,235.248164 L71.3058907,235.346611 L66.9215302,233.589152 C66.9215302,233.589152 72.1711534,218.318952 78.9372538,208.913631 C80.8509899,210.355695 82.489003,211.589927 82.489003,211.589927 C78.191713,218.211389 75.3165738,225.006045 71.345798,235.248164" id="Fill-9" fill="#A0A19D"></path>
                <path d="M83.6027793,209.923623 L60.5726425,192.564162 C60.9209243,192.044581 61.6882328,190.932496 62.0419565,190.420208 C67.8756774,194.662538 79.8061444,204.084266 81.302668,205.158066 C84.3029709,201.156384 93.3310893,191.521354 93.3310893,191.521354 L95.437106,195.812908 L95.0144515,196.257742 C90.1004124,201.422555 86.5178257,205.694055 83.6027793,209.923623" id="Fill-10" fill="#A0A19D"></path>
                <polygon id="Fill-11" fill="#ABABA8" points="114.139115 343.446722 247.590922 343.446722 247.590922 351.165684 114.139115 351.165684"></polygon>
                <polygon id="Fill-12" fill="#ABABA8" points="254.462232 343.446722 387.914039 343.446722 387.914039 351.165684 254.462232 351.165684"></polygon>
                <path d="M405.961205,195.103726 L419.834432,166.84948 C428.860737,175.855544 435.296695,182.903609 441.01795,191.134859 L417.793718,208.640168 C414.650112,204.483523 410.965943,200.361517 406.28772,195.446467 L405.961205,195.103726" id="Fill-13" fill="#C8C8C4"></path>
                <path d="M405.961205,195.103726 L408.653134,189.623518 L420.659788,203.905604 C427.269887,199.384341 434.455014,193.87861 439.96222,189.639926 C440.317758,190.133983 440.669668,190.631687 441.01795,191.134859 L417.793718,208.640168 C414.650112,204.483523 410.965943,200.361517 406.28772,195.446467 L405.961205,195.103726" id="Fill-14" fill="#A0A19D"></path>
                <path d="M418.963728,210.226256 L442.129912,192.762879 C447.406745,200.627688 452.166596,209.713968 457.95134,222.606859 L431.378524,234.382196 L431.362198,234.342088 C427.264445,223.773636 423.718137,216.824018 418.963728,210.226256" id="Fill-15" fill="#C8C8C4"></path>
                <path d="M418.963728,210.226256 L422.858317,207.291081 C422.858317,207.291081 431.960808,222.453719 435.079019,230.475315 C441.01795,228.094359 450.066022,223.334272 457.15138,220.836639 C457.341847,221.255949 457.75906,222.178433 457.95134,222.606859 L431.378524,234.382196 L431.362198,234.342088 C427.264445,223.773636 423.718137,216.824018 418.963728,210.226256" id="Fill-16" fill="#A0A19D"></path>
                <path d="M400.555581,72.1855409 C400.555581,91.3899691 399.886227,96.9649778 393.352314,97.861938 L393.352314,46.5073208 C399.886227,47.404281 400.555581,52.9811127 400.555581,72.1855409" id="Fill-17" fill="#3483AA"></path>
                <path d="M400.492092,79.9555497 C400.221811,92.9614725 398.903056,97.0998864 393.352314,97.861938 L393.352314,87.5997653 C396.047871,87.2242088 398.291749,85.4703964 400.492092,79.9555497" id="Fill-18" fill="#2A637F"></path>
                <path d="M250.094197,5.09583546 C274.539229,5.09583546 285.495595,5.44586871 286.943142,13.4984565 C275.155978,12.7309356 262.801043,12.2696939 250.094197,12.2696939 C237.340189,12.2696939 224.988881,12.7345818 213.243439,13.5075719 C214.685544,5.44586871 225.640096,5.09583546 250.094197,5.09583546" id="Fill-19" fill="#3483AA"></path>
                <path d="M220.657126,13.0663842 C218.161106,13.1994697 215.690482,13.34714 213.243439,13.5075719 C214.09419,8.75659983 218.248177,6.6837467 226.51987,5.78314033 C222.648863,8.0802335 221.44076,10.5851589 220.657126,13.0663842" id="Fill-20" fill="#2B637F"></path>
                <path d="M102.25037,72.1855409 C102.25037,53.7486335 102.870747,47.8746381 108.70084,46.6404063 L108.70084,97.7306755 C102.870747,96.4946206 102.25037,90.6224483 102.25037,72.1855409" id="Fill-21" fill="#3483AA"></path>
                <path d="M108.70084,88.7282579 L108.70084,97.7306755 C104.16592,96.7699072 102.783676,93.0052267 102.391859,82.7065923 C104.610342,86.638997 106.28282,87.9133368 108.70084,88.7282579" id="Fill-22" fill="#2B637F"></path>
                <path d="M81.302668,263.588095 C81.2518769,276.479163 74.8068488,288.651934 64.8263973,295.452059 L64.9479331,257.223689 L24.5490534,257.06508 L24.4402154,294.976233 C13.7359906,288.187046 7.08779819,276.258569 7.1385893,263.296401 C7.21114801,244.13755 22.1310342,227.886527 41.1033247,226.302262 L42.9717117,226.147299 L71.0682609,237.410348 L71.6686843,238.327363 C76.1745806,245.198588 81.3389473,254.277575 81.302668,263.588095" id="Fill-23" fill="#3483AA"></path>
                <path d="M99.0069949,195.605076 L97.0515375,194.569561 L83.0767286,166.102013 L83.0767286,165.011805 C83.0767286,147.092655 94.8112871,131.955541 108.70084,131.955541 L108.70084,198.053485 C105.375836,198.051662 102.081671,197.236741 99.0069949,195.605076" id="Fill-24" fill="#3483AA"></path>
                <path d="M99.0069949,195.605076 L97.0515375,194.569561 L83.0767286,166.102013 L83.0767286,165.011805 C83.0767286,162.771228 83.2599393,160.576228 83.6082212,158.446859 C93.3546709,159.664683 105.546349,165.407416 108.70084,182.617384 L108.70084,198.053485 C105.375836,198.051662 102.081671,197.236741 99.0069949,195.605076" id="Fill-25" fill="#2B637F"></path>
                <path d="M394.057948,197.338834 C393.822132,197.338834 393.58813,197.327896 393.352314,197.320603 L393.352314,131.567223 C393.58813,131.558107 393.822132,131.543522 394.057948,131.543522 C407.620986,131.543522 418.655353,146.301435 418.655353,164.441178 L418.655353,164.787565 L404.272401,194.084619 L402.783134,194.874017 C399.771947,196.472866 397.488161,197.338834 394.057948,197.338834" id="Fill-26" fill="#3483AA"></path>
                <path d="M394.057948,197.338834 C393.822132,197.338834 393.58813,197.327896 393.352314,197.320603 L393.352314,151.309462 C402.78132,151.303993 413.920897,158.494259 416.282683,169.6224 C415.038301,172.090863 404.272401,194.084619 404.272401,194.084619 L402.783134,194.874017 C399.771947,196.472866 397.488161,197.338834 394.057948,197.338834" id="Fill-27" fill="#2A637F"></path>
                <path d="M476.100089,299.681627 L471.365633,289.279077 L486.096867,269.629815 L475.838878,245.349905 L449.788485,242.139443 L433.994266,263.207069 L444.252254,287.485156 L468.68096,290.496901 L473.375509,300.811943 C472.693458,301.061706 472.00415,301.298708 471.302144,301.513833 C461.285413,304.576624 450.682771,303.537462 441.444232,298.58595 C432.205693,293.634438 425.437779,285.364903 422.390313,275.297801 C418.345164,261.945491 421.490585,247.77826 430.80531,237.401233 L431.714108,236.389418 L458.791207,224.391664 L460.617873,224.426303 C477.647404,224.739874 492.423987,235.962815 497.387003,252.352393 C503.175375,271.463843 493.737299,291.641801 476.100089,299.681627" id="Fill-28" fill="#3483AA"></path>
                <polygon id="Fill-29" fill="#8E8F8C" points="114.139115 128.582825 155.682609 128.582825 155.682609 324.318863 114.139115 324.318863"></polygon>
                <polygon id="Fill-30" fill="#8E8F8C" points="347.33739 128.582825 387.915853 128.582825 387.915853 324.318863 347.33739 324.318863"></polygon>
                <polygon id="Fill-31" fill="#3483AA" points="90.3307863 356.815439 247.590922 356.815439 247.590922 397.656298 90.3307863 397.656298"></polygon>
                <polygon id="Fill-32" fill="#3483AA" points="254.462232 356.815439 411.881997 356.815439 411.881997 397.656298 254.462232 397.656298"></polygon>
                <polygon id="Fill-33-Copy" fill="#2B637F" points="90.3307863 356.815439 108.70084 356.815439 108.70084 397.656298 90.3307863 397.656298"></polygon>
                <polygon id="Fill-34-Copy" fill="#2B637F" points="118.866316 356.815439 126.597447 356.815439 126.597447 397.656298 118.866316 397.656298"></polygon>
                <polygon id="Fill-35-Copy" fill="#2B637F" points="254.462232 356.815439 272.832285 356.815439 272.832285 397.656298 254.462232 397.656298"></polygon>
                <polygon id="Fill-36-Copy" fill="#2B637F" points="282.997762 356.815439 290.728893 356.815439 290.728893 397.656298 282.997762 397.656298"></polygon>
                <path d="M173.780567,47.2857801 C187.200302,47.2857801 198.118574,58.6618606 198.118574,72.6449595 C198.118574,86.6262354 187.200302,98.0023159 173.780567,98.0023159 C160.360832,98.0023159 149.444373,86.6262354 149.444373,72.6449595 C149.444373,58.6618606 160.360832,47.2857801 173.780567,47.2857801" id="Fill-37-Copy" fill="#4C4C49"></path>
                <path d="M191.094891,90.4474316 C186.679693,95.1090723 180.548481,98.0023159 173.780567,98.0023159 C160.360832,98.0023159 149.444373,86.6262354 149.444373,72.6449595 C149.444373,65.6534101 152.172581,59.3145268 156.580523,54.7221635 C156.580523,75.6111267 168.507362,90.4474316 191.094891,90.4474316" id="Fill-38-Copy" fill="#393A38"></path>
                <path d="M328.321564,47.2857801 C341.741299,47.2857801 352.659572,58.6618606 352.659572,72.6449595 C352.659572,86.6262354 341.741299,98.0023159 328.321564,98.0023159 C314.90183,98.0023159 303.983557,86.6262354 303.983557,72.6449595 C303.983557,58.6618606 314.90183,47.2857801 328.321564,47.2857801" id="Fill-39-Copy" fill="#4C4C49"></path>
                <path d="M345.523422,90.5677556 C341.11548,95.1582957 335.031432,98.0023159 328.321564,98.0023159 C314.90183,98.0023159 303.983557,86.6262354 303.983557,72.6449595 C303.983557,65.2523303 307.034651,58.588937 311.894271,53.9509965 C311.894271,76.9474515 321.308764,90.5677556 345.523422,90.5677556" id="Fill-40-Copy" fill="#393A38"></path>
                <path d="M134.981607,154.81891 C129.48347,154.81891 125.010225,159.484197 125.010225,165.217815 C125.010225,170.951432 129.48347,175.618542 134.981607,175.618542 C140.481558,175.618542 144.954802,170.951432 144.954802,165.217815 C144.954802,159.484197 140.481558,154.81891 134.981607,154.81891" id="Fill-41-Copy" fill="#4C4C49"></path>
                <path d="M134.981607,289.125937 C129.48347,289.125937 125.010225,293.791224 125.010225,299.524842 C125.010225,305.258459 129.48347,309.925569 134.981607,309.925569 C140.481558,309.925569 144.954802,305.258459 144.954802,299.524842 C144.954802,293.791224 140.481558,289.125937 134.981607,289.125937" id="Fill-42-Copy" fill="#4C4C49"></path>
                <path d="M367.120524,154.81891 C361.622387,154.81891 357.147329,159.484197 357.147329,165.217815 C357.147329,170.951432 361.622387,175.618542 367.120524,175.618542 C372.620475,175.618542 377.09372,170.951432 377.09372,165.217815 C377.09372,159.484197 372.620475,154.81891 367.120524,154.81891" id="Fill-43-Copy" fill="#4C4C49"></path>
                <path d="M367.120524,289.125937 C361.622387,289.125937 357.147329,293.791224 357.147329,299.524842 C357.147329,305.258459 361.622387,309.925569 367.120524,309.925569 C372.620475,309.925569 377.09372,305.258459 377.09372,299.524842 C377.09372,293.791224 372.620475,289.125937 367.120524,289.125937" id="Fill-44-Copy" fill="#4C4C49"></path>
                <path d="M128.12118,157.675692 C126.20563,159.573528 125.010225,162.25347 125.010225,165.217815 C125.010225,170.951432 129.48347,175.618542 134.981607,175.618542 C137.604604,175.618542 139.995414,174.555681 141.778545,172.821922 C134.007506,172.781814 128.271739,166.647117 128.12118,157.675692" id="Fill-45-Copy" fill="#393A38"></path>
                <path d="M128.182855,291.922557 C126.231026,293.822217 125.010225,296.527682 125.010225,299.524842 C125.010225,305.258459 129.48347,309.925569 134.981607,309.925569 C137.698931,309.925569 140.164113,308.786138 141.965383,306.942994 C132.594425,306.942994 128.182855,303.375207 128.182855,291.922557" id="Fill-46-Copy" fill="#393A38"></path>
                <path d="M359.879164,158.073125 C358.186732,159.938146 357.147329,162.45401 357.147329,165.217815 C357.147329,170.951432 361.622387,175.618542 367.120524,175.618542 C369.716312,175.618542 372.08354,174.577558 373.861229,172.876615 C364.372363,172.876615 359.879164,168.771017 359.879164,158.073125" id="Fill-47-Copy" fill="#393A38"></path>
                <path d="M360.223818,292.019181 C358.330036,293.913371 357.147329,296.578729 357.147329,299.524842 C357.147329,305.258459 361.622387,309.925569 367.120524,309.925569 C369.6238,309.925569 371.913027,308.959332 373.665321,307.365951 C365.406325,307.365951 360.223818,301.703434 360.223818,292.019181" id="Fill-48-Copy" fill="#393A38"></path>
                <path d="M231.272466,305.871017 C237.169676,307.325843 242.635161,307.978509 248.864327,307.978509 L250.349967,307.978509 C256.577319,307.978509 262.042804,307.325843 267.941828,305.871017 L270.465057,294.890547 C270.53036,294.339974 270.699059,293.424783 271.134411,292.823163 C271.68223,292.066581 272.518469,291.793118 273.073543,291.610809 L273.209591,291.565232 C275.892449,290.657333 278.55354,289.536133 281.122119,288.2308 L287.935382,284.176248 C290.772428,282.376859 293.491566,280.31859 295.982144,278.07619 L296.08554,277.981389 C296.490055,277.607656 297.168479,276.984159 298.095417,276.87842 C298.82826,276.796381 299.704406,277.097191 300.214131,277.312315 L310.965519,280.513661 C315.132203,276.072614 318.39009,271.613337 321.45751,266.165944 L322.188539,264.867904 C325.257772,259.420512 327.385557,254.319506 329.03264,248.443688 L320.766388,240.824996 C320.380013,240.540594 319.61996,239.917097 319.306144,239.2225 C318.919768,238.369294 319.104793,237.463218 319.213631,236.923583 L319.240841,236.783205 C319.774147,233.993878 320.115173,231.118865 320.251221,228.23656 L319.993638,220.94967 C319.86666,217.540492 319.458517,214.144076 318.776465,210.855222 L318.747442,210.713021 C318.629534,210.17521 318.433625,209.274603 318.805489,208.419574 C319.102979,207.735915 319.803171,207.127003 320.243965,206.791555 L328.388681,199.048892 C326.658156,193.202243 324.452371,188.13223 321.301508,182.732238 L320.550526,181.443314 C317.399663,176.043322 314.07466,171.635091 309.842673,167.257852 L299.142076,170.623276 C298.635979,170.845693 297.758019,171.164734 297.028804,171.089987 C296.101866,170.997009 295.416186,170.384451 295.006229,170.019833 L294.899205,169.923209 C292.749653,168.04725 290.42596,166.298907 287.993429,164.72558 L282.219569,161.476834 C279.250104,159.874338 276.126451,158.510667 272.961077,157.436867 L272.82503,157.393113 C272.302607,157.221743 271.431902,156.935517 270.884084,156.180758 C270.446918,155.577316 270.278219,154.662124 270.21473,154.111551 L267.689686,143.131081 C261.792477,141.676256 256.326991,141.023589 250.097825,141.023589 L248.612186,141.023589 C242.384834,141.023589 236.919348,141.676256 231.020325,143.131081 L228.497095,154.111551 C228.431792,154.662124 228.263093,155.577316 227.827741,156.178935 C227.278109,156.937341 226.40559,157.221743 225.884982,157.393113 L225.748934,157.436867 C223.055192,158.350235 220.377775,159.480551 217.794685,160.793176 L211.02677,164.82585 C208.18791,166.627063 205.468772,168.685331 202.980008,170.925909 L202.872984,171.024356 C202.46847,171.396266 201.79186,172.01794 200.866736,172.123679 C200.130265,172.21301 199.255932,171.904908 198.748021,171.689783 L187.996633,168.488438 C183.829949,172.929484 180.573877,177.388762 177.504643,182.834331 L176.773614,184.134194 C173.70438,189.58341 171.576596,194.684415 169.931327,200.558411 L178.193951,208.17528 C178.640187,208.503436 179.349448,209.10141 179.656009,209.779599 C180.042384,210.630982 179.859173,211.535235 179.748521,212.076692 L179.721312,212.21707 C179.188005,215.006398 178.848793,217.88141 178.710932,220.765538 L178.968515,228.052428 C179.095493,231.463429 179.50545,234.859846 180.185688,238.146877 L180.214711,238.287255 C180.332619,238.825066 180.528527,239.725672 180.156664,240.582525 C179.859173,241.268006 179.158982,241.876918 178.720001,242.210544 L170.571658,249.953206 C172.305811,255.801678 174.509782,260.869868 177.660644,266.26986 L178.411627,267.558785 C181.562489,272.958777 184.887492,277.367008 189.117666,281.744247 L199.820076,278.378823 C200.326173,278.156406 201.196878,277.841011 201.935163,277.913935 C202.860287,278.003266 203.54778,278.619471 203.959551,278.985912 L204.064761,279.078889 C206.214313,280.954849 208.536192,282.703192 210.968723,284.276518 L216.742583,287.525264 C219.713863,289.129584 222.835701,290.493255 226.001075,291.563408 L226.138937,291.610809 C226.694011,291.793118 227.532064,292.066581 228.078069,292.82134 C228.515235,293.424783 228.683934,294.339974 228.747423,294.890547 L231.272466,305.871017" id="Fill-49-Copy" fill="#DDDCD8"></path>
                <path d="M134.981607,122.566628 L141.778545,122.566628 L141.778545,28.4787855 C139.394991,28.9217963 137.127531,29.3575148 134.981607,29.7822947 L134.981607,122.566628" id="Fill-50-Copy" fill="#A0A19D"></path>
                <path d="M126.597447,31.512407 C121.434894,32.6226687 117.371606,33.5779677 114.590793,34.2616264 L114.590793,122.566628 L126.597447,122.566628 L126.597447,31.512407" id="Fill-51-Copy" fill="#A0A19D"></path>
                <polygon id="Fill-52-Copy" fill="#8E8F8B" points="149.221255 331.226551 155.682609 331.226551 155.682609 339.501555 149.221255 339.501555"></polygon>
                <polygon id="Fill-53-Copy" fill="#8E8F8B" points="114.139115 331.226551 141.965383 331.226551 141.965383 339.501555 114.139115 339.501555"></polygon>
                <polygon id="Fill-54-Copy" fill="#8E8F8B" points="149.221255 343.169612 155.682609 343.169612 155.682609 351.444617 149.221255 351.444617"></polygon>
                <polygon id="Fill-55-Copy" fill="#8E8F8B" points="114.139115 343.169612 141.965383 343.169612 141.965383 351.444617 114.139115 351.444617"></polygon>
                <polygon id="Fill-56-Copy" fill="#8E8F8B" points="289.546186 331.226551 296.00754 331.226551 296.00754 339.501555 289.546186 339.501555"></polygon>
                <polygon id="Fill-57-Copy" fill="#8E8F8B" points="254.462232 331.226551 282.2885 331.226551 282.2885 339.501555 254.462232 339.501555"></polygon>
                <polygon id="Fill-58-Copy" fill="#8E8F8B" points="289.546186 343.169612 296.00754 343.169612 296.00754 351.444617 289.546186 351.444617"></polygon>
                <polygon id="Fill-59-Copy" fill="#8E8F8B" points="254.462232 343.169612 282.2885 343.169612 282.2885 351.444617 254.462232 351.444617"></polygon>
                <path d="M476.100089,299.681627 C490.29983,293.207835 499.177389,278.867411 499.081249,263.54981 L473.553278,294.084742 L476.100089,299.681627" id="Fill-60" fill="#2A637F"></path>
                <path d="M468.599332,225.396186 L454.858525,242.76294 L475.838878,245.349905 L479.049601,252.952189 L490.62453,239.353762 C485.12458,232.35492 477.378937,227.39247 468.599332,225.396186" id="Fill-61-Copy" fill="#2A637F"></path>
                <path d="M449.142712,288.088599 L444.252254,287.485156 L435.626837,267.07202 L424.606982,280.998603 C428.055335,288.192515 433.584309,294.128496 440.609807,298.11377 L449.142712,288.088599" id="Fill-62-Copy" fill="#2A637F"></path>
                <path d="M471.302144,301.513833 C472.00415,301.298708 472.693458,301.061706 473.375509,300.811943 L471.454517,296.593313 L466.371779,302.671495 C468.024304,302.390739 469.671387,302.011536 471.302144,301.513833" id="Fill-63-Copy" fill="#2A637F"></path>
                <path d="M24.4402154,294.976233 L24.5490534,257.482567 L9.50400347,276.497394 C12.3229096,284.061394 17.5289976,290.593525 24.4402154,294.976233" id="Fill-64-Copy" fill="#2B637F"></path>
                <path d="M81.302668,263.588095 C81.3044819,263.234416 81.2845283,262.882559 81.2700165,262.52888 L64.8681185,282.147149 L64.8263973,295.452059 C74.8068488,288.651934 81.2518769,276.479163 81.302668,263.588095" id="Fill-65-Copy" fill="#2B637F"></path>
                <path d="M71.6686843,238.327363 L71.0682609,237.410348 L47.8077502,228.085244 L24.8791956,257.06508 L56.7778216,257.190873 L72.1711534,239.103999 C72.0042684,238.84512 71.8355693,238.580772 71.6686843,238.327363" id="Fill-66-Copy" fill="#2B637F"></path>
                <path d="M300.814555,214.501402 C308.97741,209.765014 311.774549,199.276779 307.06186,191.072874 C302.349171,182.86897 291.9116,180.059589 283.750558,184.794153 C278.007536,188.126761 274.936488,194.307036 275.252119,200.534711 L216.423325,234.670244 C211.146492,231.275651 204.213507,230.894625 198.437833,234.298334 C192.462622,237.81872 189.400645,244.400075 190.028278,250.901213 L202.252607,243.698185 L209.488525,247.832953 L209.544758,256.200935 L197.320429,263.40214 C202.657122,267.128536 209.867645,267.657232 215.842855,264.136845 C221.647552,260.718552 224.702274,254.410661 224.29776,248.093655 L283.003204,214.029221 C288.212919,217.416522 295.073346,217.83401 300.814555,214.501402 L300.814555,214.501402 Z M292.283463,208.014848 L285.072941,203.830857 L285.072941,195.464698 L292.281649,191.280707 L299.492172,195.464698 L299.492172,203.83268 L292.283463,208.014848 L292.283463,208.014848 Z" id="Fill-67-Copy" fill="#3D95BC"></path>
                <path d="M215.478248,184.918123 C207.315392,180.181736 196.87782,182.99294 192.165132,191.196844 C187.452443,199.400749 190.249582,209.888984 198.412437,214.625372 C204.153646,217.95798 211.014072,217.540492 216.223788,214.151368 L275.052582,248.288725 C274.765975,254.578385 277.90414,260.802414 283.723349,264.12773 C289.743908,267.5679 296.947175,266.94258 302.234892,263.146907 L289.918049,256.107958 L289.861816,247.741798 L297.045129,243.510407 L309.361971,250.547534 C309.904348,244.039103 306.7553,237.49968 300.73474,234.059509 C294.886507,230.717786 287.922685,231.211843 282.682131,234.721291 L223.974873,200.656858 C224.290504,194.429183 221.219456,188.250731 215.478248,184.918123 L215.478248,184.918123 Z M214.154051,195.588668 L214.154051,203.954827 L206.945342,208.138818 L199.73482,203.954827 L199.73482,195.588668 L206.945342,191.404677 L214.154051,195.588668 L214.154051,195.588668 Z" id="Fill-68-Copy" fill="#2E7893"></path>
                <path d="M257.259371,257.972978 L257.259371,189.844112 C262.904439,187.036553 266.811726,181.224543 266.857075,174.462703 C266.902424,167.502146 262.84095,161.491419 256.96188,158.709384 L256.867554,172.949538 L249.631636,177.084306 L242.450137,172.852915 L242.542649,158.61276 C236.6273,161.316402 232.487825,167.272437 232.442476,174.232994 C232.397126,180.962018 236.191947,186.805021 241.755387,189.701911 L241.755387,257.972978 C236.231855,260.811529 232.440662,266.574316 232.440662,273.23771 C232.440662,282.710484 240.081094,290.389339 249.506472,290.389339 C258.931849,290.389339 266.572282,282.710484 266.572282,273.23771 C266.572282,266.574316 262.782903,260.811529 257.259371,257.972978 L257.259371,257.972978 Z M256.716994,277.421701 L249.506472,281.605692 L242.297763,277.421701 L242.297763,269.055541 L249.506472,264.87155 L256.716994,269.055541 L256.716994,277.421701 L256.716994,277.421701 Z" id="Fill-69-Copy" fill="#25627F"></path>
                <path d="M173.780567,47.2857801 C187.200302,47.2857801 198.118574,58.6618606 198.118574,72.6449595 C198.118574,86.6262354 187.200302,98.0023159 173.780567,98.0023159 C160.360832,98.0023159 149.444373,86.6262354 149.444373,72.6449595 C149.444373,58.6618606 160.360832,47.2857801 173.780567,47.2857801 M173.780567,44.2776819 C158.68654,44.2776819 146.451326,56.9791487 146.451326,72.6449595 C146.451326,88.3107704 158.68654,101.010414 173.780567,101.010414 C188.874594,101.010414 201.111622,88.3107704 201.111622,72.6449595 C201.111622,56.9791487 188.874594,44.2776819 173.780567,44.2776819" id="Fill-70-Copy" fill="#0B0B0A"></path>
                <path d="M328.321564,47.2857801 C341.741299,47.2857801 352.659572,58.6618606 352.659572,72.6449595 C352.659572,86.6262354 341.741299,98.0023159 328.321564,98.0023159 C314.90183,98.0023159 303.983557,86.6262354 303.983557,72.6449595 C303.983557,58.6618606 314.90183,47.2857801 328.321564,47.2857801 M328.321564,44.2776819 C313.227537,44.2776819 300.992323,56.9791487 300.992323,72.6449595 C300.992323,88.3107704 313.227537,101.010414 328.321564,101.010414 C343.415591,101.010414 355.652619,88.3107704 355.652619,72.6449595 C355.652619,56.9791487 343.415591,44.2776819 328.321564,44.2776819" id="Fill-71-Copy" fill="#0B0B0A"></path>
                <path d="M134.981607,178.62664 C127.832759,178.62664 122.017178,172.610444 122.017178,165.217815 C122.017178,157.825185 127.832759,151.810812 134.981607,151.810812 C142.130454,151.810812 147.94785,157.825185 147.94785,165.217815 C147.94785,172.610444 142.130454,178.62664 134.981607,178.62664 L134.981607,178.62664 Z M134.981607,154.81891 C129.48347,154.81891 125.010225,159.484197 125.010225,165.217815 C125.010225,170.951432 129.48347,175.618542 134.981607,175.618542 C140.481558,175.618542 144.954802,170.951432 144.954802,165.217815 C144.954802,159.484197 140.481558,154.81891 134.981607,154.81891 L134.981607,154.81891 Z" id="Fill-72-Copy" fill="#0B0B0A"></path>
                <path d="M134.981607,312.931844 C127.832759,312.931844 122.017178,306.917471 122.017178,299.524842 C122.017178,292.132212 127.832759,286.117839 134.981607,286.117839 C142.130454,286.117839 147.94785,292.132212 147.94785,299.524842 C147.94785,306.917471 142.130454,312.931844 134.981607,312.931844 L134.981607,312.931844 Z M134.981607,289.125937 C129.48347,289.125937 125.010225,293.791224 125.010225,299.524842 C125.010225,305.258459 129.48347,309.925569 134.981607,309.925569 C140.481558,309.925569 144.954802,305.258459 144.954802,299.524842 C144.954802,293.791224 140.481558,289.125937 134.981607,289.125937 L134.981607,289.125937 Z" id="Fill-73-Copy" fill="#0B0B0A"></path>
                <path d="M367.120524,178.62664 C359.971677,178.62664 354.154281,172.610444 354.154281,165.217815 C354.154281,157.825185 359.971677,151.810812 367.120524,151.810812 C374.269372,151.810812 380.086767,157.825185 380.086767,165.217815 C380.086767,172.610444 374.269372,178.62664 367.120524,178.62664 L367.120524,178.62664 Z M367.120524,154.81891 C361.622387,154.81891 357.147329,159.484197 357.147329,165.217815 C357.147329,170.951432 361.622387,175.618542 367.120524,175.618542 C372.620475,175.618542 377.09372,170.951432 377.09372,165.217815 C377.09372,159.484197 372.620475,154.81891 367.120524,154.81891 L367.120524,154.81891 Z" id="Fill-74-Copy" fill="#0B0B0A"></path>
                <path d="M367.120524,312.931844 C359.971677,312.931844 354.154281,306.917471 354.154281,299.524842 C354.154281,292.132212 359.971677,286.117839 367.120524,286.117839 C374.269372,286.117839 380.086767,292.132212 380.086767,299.524842 C380.086767,306.917471 374.269372,312.931844 367.120524,312.931844 L367.120524,312.931844 Z M367.120524,289.125937 C361.622387,289.125937 357.147329,293.791224 357.147329,299.524842 C357.147329,305.258459 361.622387,309.925569 367.120524,309.925569 C372.620475,309.925569 377.09372,305.258459 377.09372,299.524842 C377.09372,293.791224 372.620475,289.125937 367.120524,289.125937 L367.120524,289.125937 Z" id="Fill-75-Copy" fill="#0B0B0A"></path>
                <path d="M503.024815,250.62775 C497.497655,232.380444 481.395062,219.700854 462.604168,218.577831 C450.470536,191.818518 442.164377,180.839871 424.532609,163.194185 C424.012,142.365384 410.541474,125.622127 394.057948,125.622127 C393.822132,125.622127 393.58813,125.638534 393.352314,125.645827 L393.352314,103.907304 C406.532605,102.66578 406.541675,90.3489848 406.541675,72.1855409 C406.541675,54.0202739 406.532605,41.7053022 393.352314,40.463778 L393.352314,29.6565015 C393.352314,29.6565015 350.105505,18.0926428 291.704808,13.8266126 C290.962895,5.68651657 284.788148,3.22169913 280.071831,2.07862181 C273.187823,0.408671532 262.996951,0.408671532 250.094197,0.408671532 C237.191444,0.408671532 227.000572,0.408671532 220.116563,2.07862181 C215.398433,3.22352222 209.221872,5.69016275 208.483587,13.8393742 C150.62708,18.1145199 108.70084,29.6565015 108.70084,29.6565015 L108.70084,40.545817 C96.2733452,42.1847748 96.2642754,54.3721303 96.2642754,72.1855409 C96.2642754,89.9971285 96.2733452,102.186307 108.70084,103.823442 L108.70084,125.210108 C91.5606566,125.210108 77.0198897,142.642493 76.3868149,163.587972 C58.1600652,181.864448 50.7191687,192.908726 38.5601417,219.793831 C17.1045291,222.597744 0.512164461,241.31723 0.426907969,263.270877 C0.357977188,280.710555 10.5597328,296.565967 26.4138125,303.666902 L31.1210592,305.774394 L31.2407811,263.836035 L58.2144842,263.941775 L58.0784366,306.487222 L62.8509862,304.288575 C78.0683631,297.275149 87.9454185,281.308528 88.0143493,263.613618 C88.0542566,253.196483 82.996914,243.563277 78.2261784,236.086785 C84.464414,220.12928 87.7313703,213.936244 98.2070351,202.680487 C101.56469,204.093382 105.120067,204.802564 108.70084,204.802564 L108.70084,351.167507 L84.7111137,351.167507 L84.7111137,403.30423 L417.501669,403.30423 L417.501669,351.167507 L393.352314,351.167507 L393.352314,203.241999 C393.58813,203.247468 393.822132,203.262053 394.057948,203.262053 C397.812862,203.262053 400.629954,202.46354 403.523233,201.118099 C414.303644,212.585334 419.108845,219.42739 425.223731,234.834322 C415.451886,246.624244 412.28107,262.255416 416.752501,277.022444 C420.258901,288.602711 428.044451,298.115593 438.672489,303.812749 C445.2971,307.362305 452.52939,309.163518 459.830611,309.163518 C464.242181,309.163518 468.679147,308.505382 473.019972,307.178173 C496.804719,299.902221 510.264361,274.533926 503.024815,250.62775 L503.024815,250.62775 Z M254.462232,331.226551 L387.914039,331.226551 L387.914039,339.501555 L254.462232,339.501555 L254.462232,331.226551 Z M159.608035,128.582825 L343.410149,128.582825 L343.410149,324.318863 L159.608035,324.318863 L159.608035,128.582825 Z M114.139115,128.582825 L155.682609,128.582825 L155.682609,324.318863 L114.139115,324.318863 L114.139115,128.582825 Z M114.139115,331.226551 L247.590922,331.226551 L247.590922,339.501555 L114.139115,339.501555 L114.139115,331.226551 Z M347.33739,128.582825 L387.915853,128.582825 L387.915853,324.318863 L347.33739,324.318863 L347.33739,128.582825 Z M400.555581,72.1855409 C400.555581,91.3899691 399.886227,96.9649778 393.352314,97.861938 L393.352314,46.5073208 C399.886227,47.404281 400.555581,52.9811127 400.555581,72.1855409 L400.555581,72.1855409 Z M250.094197,5.09583546 C274.539229,5.09583546 285.495595,5.44586871 286.943142,13.4984565 C275.155978,12.7309356 262.801043,12.2696939 250.094197,12.2696939 C237.340189,12.2696939 224.988881,12.7345818 213.243439,13.5075719 C214.685544,5.44586871 225.640096,5.09583546 250.094197,5.09583546 L250.094197,5.09583546 Z M250.094197,18.1892666 C315.197506,18.1892666 371.675398,30.5115307 387.462361,34.2907959 L387.462361,122.566628 L114.590793,122.566628 L114.590793,34.2616264 C130.069382,30.4623072 185.123308,18.1892666 250.094197,18.1892666 L250.094197,18.1892666 Z M102.25037,72.1855409 C102.25037,53.7486335 102.870747,47.8746381 108.70084,46.6404063 L108.70084,97.7306755 C102.870747,96.4946206 102.25037,90.6224483 102.25037,72.1855409 L102.25037,72.1855409 Z M81.302668,263.588095 C81.2518769,276.479163 74.8068488,288.651934 64.8263973,295.452059 L64.9479331,257.223689 L24.5490534,257.06508 L24.4402154,294.976233 C13.7359906,288.187046 7.08779819,276.258569 7.1385893,263.296401 C7.21114801,244.13755 22.1310342,227.886527 41.1033247,226.302262 L42.9717117,226.147299 L71.0682609,237.410348 L71.6686843,238.327363 C76.1745806,245.198588 81.3389473,254.277575 81.302668,263.588095 L81.302668,263.588095 Z M71.345798,235.248164 L71.3058907,235.346611 L43.8750677,224.349733 L43.8859515,224.327856 C49.6634394,211.44408 54.2981274,202.252061 59.471564,194.241404 L82.489003,211.589927 C78.191713,218.211389 75.3165738,225.006045 71.345798,235.248164 L71.345798,235.248164 Z M83.6027793,209.923623 L60.5726425,192.564162 C66.1814313,184.181595 72.5412029,176.940282 81.6872292,167.804779 L95.437106,195.812908 L95.0144515,196.257742 C90.1004124,201.422555 86.5178257,205.694055 83.6027793,209.923623 L83.6027793,209.923623 Z M99.0069949,195.605076 L97.0515375,194.569561 L83.0767286,166.102013 L83.0767286,165.011805 C83.0767286,147.092655 94.8112871,131.955541 108.70084,131.955541 L108.70084,198.053485 C105.375836,198.051662 102.081671,197.236741 99.0069949,195.605076 L99.0069949,195.605076 Z M114.139115,343.446722 L247.590922,343.446722 L247.590922,351.165684 L114.139115,351.165684 L114.139115,343.446722 Z M90.3307863,356.815439 L247.590922,356.815439 L247.590922,397.656298 L90.3307863,397.656298 L90.3307863,356.815439 Z M254.462232,356.815439 L411.881997,356.815439 L411.881997,397.656298 L254.462232,397.656298 L254.462232,356.815439 Z M254.462232,343.446722 L387.914039,343.446722 L387.914039,351.165684 L254.462232,351.165684 L254.462232,343.446722 Z M394.057948,197.338834 C393.822132,197.338834 393.58813,197.327896 393.352314,197.320603 L393.352314,131.567223 C393.58813,131.558107 393.822132,131.543522 394.057948,131.543522 C407.620986,131.543522 418.655353,146.301435 418.655353,164.441178 L418.655353,164.787565 L404.272401,194.084619 L402.783134,194.874017 C399.771947,196.472866 397.488161,197.338834 394.057948,197.338834 L394.057948,197.338834 Z M405.961205,195.103726 L419.834432,166.84948 C428.860737,175.855544 435.296695,182.903609 441.01795,191.134859 L417.793718,208.640168 C414.650112,204.483523 410.965943,200.361517 406.28772,195.446467 L405.961205,195.103726 L405.961205,195.103726 Z M418.963728,210.226256 L442.129912,192.762879 C447.406745,200.627688 452.166596,209.713968 457.95134,222.606859 L431.378524,234.382196 L431.362198,234.342088 C427.264445,223.773636 423.718137,216.824018 418.963728,210.226256 L418.963728,210.226256 Z M476.100089,299.681627 L471.365633,289.279077 L486.096867,269.629815 L475.838878,245.349905 L449.788485,242.139443 L433.994266,263.207069 L444.252254,287.485156 L468.68096,290.496901 L473.375509,300.811943 C472.693458,301.061706 472.00415,301.298708 471.302144,301.513833 C461.285413,304.576624 450.682771,303.537462 441.444232,298.58595 C432.205693,293.634438 425.437779,285.364903 422.390313,275.297801 C418.345164,261.945491 421.490585,247.77826 430.80531,237.401233 L431.714108,236.389418 L458.791207,224.391664 L460.617873,224.426303 C477.647404,224.739874 492.423987,235.962815 497.387003,252.352393 C503.175375,271.463843 493.737299,291.641801 476.100089,299.681627 L476.100089,299.681627 Z M447.785864,282.772469 L439.824359,263.925367 L452.083154,247.570428 L472.303454,250.064415 L480.266774,268.911517 L468.007978,285.264633 L447.785864,282.772469 L447.785864,282.772469 Z" id="Fill-76-Copy" fill="#0B0B0A"></path>
                <path d="M250.094197,92.321568 C231.134605,92.321568 215.483689,86.3418334 214.827033,86.0866008 C212.51241,85.1896406 211.36054,82.578976 212.253013,80.2545365 C213.143671,77.9300969 215.741273,76.774258 218.052268,77.6657489 C218.210083,77.7259109 232.876014,83.2972734 250.094197,83.2972734 C267.491964,83.2972734 284.200422,77.6621027 284.367307,77.6055869 C286.716396,76.8016043 289.263207,78.0668287 290.061353,80.4259069 C290.859499,82.7849851 289.602419,85.3482494 287.255144,86.1485858 C286.516859,86.4001722 268.961278,92.321568 250.094197,92.321568" id="Fill-77-Copy" fill="#0B0B0A"></path>
                <path d="M250.349967,310.986607 L248.864327,310.986607 C242.065575,310.986607 236.139342,310.239141 229.648965,308.561898 L228.767377,308.334012 L225.781585,295.298919 C225.758004,295.078326 225.703585,294.799393 225.652794,294.629846 C225.531258,294.575153 225.331721,294.509522 225.211999,294.469414 L225.0433,294.414721 C221.721925,293.289874 218.444085,291.858749 215.302293,290.161452 L209.426851,286.854367 C206.796597,285.155248 204.358624,283.319396 202.102048,281.350459 L201.971442,281.233781 C201.873488,281.146273 201.706603,280.99678 201.594137,280.92021 C201.468973,280.960318 201.158785,281.071527 200.970132,281.157212 L200.797805,281.222843 L188.270543,285.16254 L187.630212,284.51352 C182.908453,279.735202 179.269634,274.975114 175.830351,269.081065 L175.079368,267.79214 C171.640085,261.898091 169.28374,256.381421 167.440749,249.905806 L167.190421,249.027077 L176.869754,239.844173 C177.045709,239.712911 177.257943,239.523309 177.377665,239.395693 C177.363153,239.260785 177.317804,239.054775 177.292409,238.932628 L177.254315,238.759435 C176.541426,235.308326 176.111516,231.742362 175.977282,228.161814 L175.716071,220.74913 L175.719699,220.687145 C175.859374,217.638939 176.21854,214.599849 176.782684,211.648266 L176.817149,211.476896 C176.842545,211.347456 176.88608,211.128685 176.896964,210.993777 C176.806265,210.911738 176.570449,210.707552 176.376355,210.567174 L176.234865,210.452319 L166.564602,201.535587 L166.800418,200.653211 C168.545455,194.152073 170.818357,188.600765 174.168756,182.653846 L174.901599,181.353983 C178.250184,175.407064 181.816445,170.592283 186.465644,165.742864 L187.096905,165.082906 L199.856356,168.894987 C200.057706,168.982495 200.327987,169.071826 200.496686,169.111934 C200.607338,169.031718 200.761526,168.889517 200.852224,168.803832 L200.984644,168.685331 C203.596758,166.333545 206.450129,164.171361 209.464944,162.260763 L216.358022,158.156988 C219.153347,156.731331 221.963183,155.546323 224.792973,154.587378 L224.958044,154.532685 C225.083208,154.492577 225.297256,154.421477 225.418792,154.363138 C225.444187,154.244637 225.505862,153.938358 225.531258,153.699533 L225.560281,153.519047 L228.515235,140.668087 L229.396823,140.440201 C235.887201,138.762958 241.813434,138.015491 248.612186,138.015491 L250.097825,138.015491 C256.898391,138.015491 262.824624,138.762958 269.315002,140.440201 L270.194776,140.668087 L273.180567,153.703179 C273.204149,153.92195 273.260382,154.202706 273.309359,154.372253 C273.432709,154.428769 273.632245,154.492577 273.751967,154.532685 L273.917038,154.587378 C277.240227,155.712224 280.518067,157.14335 283.65986,158.840646 L289.535302,162.147731 C292.165556,163.846851 294.603528,165.682702 296.860105,167.653463 L296.992524,167.77014 C297.090478,167.857649 297.257364,168.005319 297.368016,168.081889 C297.48411,168.043604 297.777972,167.941511 297.995648,167.843064 L298.164347,167.779256 L310.69161,163.839559 L311.331941,164.488579 C316.053699,169.266897 319.692519,174.026985 323.131802,179.922857 L323.884599,181.209958 C327.322068,187.105831 329.678412,192.622501 331.521404,199.096293 L331.771731,199.975022 L322.092398,209.157925 C321.916444,209.289188 321.704209,209.478789 321.584487,209.606405 C321.598999,209.741314 321.642534,209.947323 321.669744,210.071293 L321.707837,210.244487 C322.420727,213.695596 322.850637,217.26156 322.984871,220.840285 L323.246082,228.254791 L323.242454,228.314953 C323.100965,231.361336 322.743613,234.40225 322.179469,237.353833 L322.145003,237.52338 C322.119608,237.654642 322.074259,237.875236 322.065189,238.008322 C322.155887,238.090361 322.389889,238.294547 322.583984,238.434925 L322.725473,238.549779 L332.399364,247.466512 L332.161734,248.348887 C330.414883,254.851849 328.143795,260.403157 324.793397,266.350076 L324.062368,267.648116 C320.711969,273.593212 317.145708,278.407992 312.494694,283.261057 L311.865247,283.919193 L299.107611,280.108935 C298.90626,280.019604 298.634165,279.930272 298.465466,279.890164 C298.354814,279.97038 298.200627,280.114404 298.108114,280.20009 L297.979323,280.314944 C295.363581,282.670376 292.510209,284.830738 289.497209,286.741336 L282.51706,290.892511 C279.806992,292.270767 276.997156,293.457599 274.16918,294.414721 L274.000481,294.469414 C273.877131,294.511345 273.666711,294.580622 273.543361,294.638961 C273.519779,294.757462 273.458104,295.063741 273.432709,295.300743 L273.401871,295.483052 L270.446918,308.334012 L269.565329,308.561898 C263.074952,310.239141 257.148719,310.986607 250.349967,310.986607 L250.349967,310.986607 Z M231.272466,305.871017 C237.169676,307.325843 242.635161,307.978509 248.864327,307.978509 L250.349967,307.978509 C256.577319,307.978509 262.042804,307.325843 267.941828,305.871017 L270.465057,294.890547 C270.53036,294.339974 270.699059,293.424783 271.134411,292.823163 C271.68223,292.066581 272.518469,291.793118 273.073543,291.610809 L273.209591,291.565232 C275.892449,290.657333 278.55354,289.536133 281.122119,288.2308 L287.935382,284.176248 C290.772428,282.376859 293.491566,280.31859 295.982144,278.07619 L296.08554,277.981389 C296.490055,277.607656 297.168479,276.984159 298.095417,276.87842 C298.82826,276.796381 299.704406,277.097191 300.214131,277.312315 L310.965519,280.513661 C315.132203,276.072614 318.39009,271.613337 321.45751,266.165944 L322.188539,264.867904 C325.257772,259.420512 327.385557,254.319506 329.03264,248.443688 L320.766388,240.824996 C320.380013,240.540594 319.61996,239.917097 319.306144,239.2225 C318.919768,238.369294 319.104793,237.463218 319.213631,236.923583 L319.240841,236.783205 C319.774147,233.993878 320.115173,231.118865 320.251221,228.23656 L319.993638,220.94967 C319.86666,217.540492 319.458517,214.144076 318.776465,210.855222 L318.747442,210.713021 C318.629534,210.17521 318.433625,209.274603 318.805489,208.419574 C319.102979,207.735915 319.803171,207.127003 320.243965,206.791555 L328.388681,199.048892 C326.658156,193.202243 324.452371,188.13223 321.301508,182.732238 L320.550526,181.443314 C317.399663,176.043322 314.07466,171.635091 309.842673,167.257852 L299.142076,170.623276 C298.635979,170.845693 297.758019,171.164734 297.028804,171.089987 C296.101866,170.997009 295.416186,170.384451 295.006229,170.019833 L294.899205,169.923209 C292.749653,168.04725 290.42596,166.298907 287.993429,164.72558 L282.219569,161.476834 C279.250104,159.874338 276.126451,158.510667 272.961077,157.436867 L272.82503,157.393113 C272.302607,157.221743 271.431902,156.935517 270.884084,156.180758 C270.446918,155.577316 270.278219,154.662124 270.21473,154.111551 L267.689686,143.131081 C261.792477,141.676256 256.326991,141.023589 250.097825,141.023589 L248.612186,141.023589 C242.384834,141.023589 236.919348,141.676256 231.020325,143.131081 L228.497095,154.111551 C228.431792,154.662124 228.263093,155.577316 227.827741,156.178935 C227.278109,156.937341 226.40559,157.221743 225.884982,157.393113 L225.748934,157.436867 C223.055192,158.350235 220.377775,159.480551 217.794685,160.793176 L211.02677,164.82585 C208.18791,166.627063 205.468772,168.685331 202.980008,170.925909 L202.872984,171.024356 C202.46847,171.396266 201.79186,172.01794 200.866736,172.123679 C200.130265,172.21301 199.255932,171.904908 198.748021,171.689783 L187.996633,168.488438 C183.829949,172.929484 180.573877,177.388762 177.504643,182.834331 L176.773614,184.134194 C173.70438,189.58341 171.576596,194.684415 169.931327,200.558411 L178.193951,208.17528 C178.640187,208.503436 179.349448,209.10141 179.656009,209.779599 C180.042384,210.630982 179.859173,211.535235 179.748521,212.076692 L179.721312,212.21707 C179.188005,215.006398 178.848793,217.88141 178.710932,220.765538 L178.968515,228.052428 C179.095493,231.463429 179.50545,234.859846 180.185688,238.146877 L180.214711,238.287255 C180.332619,238.825066 180.528527,239.725672 180.156664,240.582525 C179.859173,241.268006 179.158982,241.876918 178.720001,242.210544 L170.571658,249.953206 C172.305811,255.801678 174.509782,260.869868 177.660644,266.26986 L178.411627,267.558785 C181.562489,272.958777 184.887492,277.367008 189.117666,281.744247 L199.820076,278.378823 C200.326173,278.156406 201.196878,277.841011 201.935163,277.913935 C202.860287,278.003266 203.54778,278.619471 203.959551,278.985912 L204.064761,279.078889 C206.214313,280.954849 208.536192,282.703192 210.968723,284.276518 L216.742583,287.525264 C219.713863,289.129584 222.835701,290.493255 226.001075,291.563408 L226.138937,291.610809 C226.694011,291.793118 227.532064,292.066581 228.078069,292.82134 C228.515235,293.424783 228.683934,294.339974 228.747423,294.890547 L231.272466,305.871017 L231.272466,305.871017 Z" id="Fill-78-Copy" fill="#0B0B0A"></path>
                <path d="M179.772103,53.5535629 L180.742576,51.3202779 C178.250184,50.3431017 175.540116,49.8016441 172.704884,49.8016441 C172.645023,50.0805768 172.719396,52.1443145 172.704884,52.4250703 C175.376859,52.4250703 177.637063,52.7696343 179.772103,53.5535629" id="Fill-79-Copy" fill="#FFFFFF"></path>
                <path d="M190.304001,58.5597676 C189.941207,58.082118 189.55846,57.6190532 189.159387,57.1723962 C188.655104,56.6108846 188.123611,56.0730731 187.566723,55.564431 C186.378574,54.4815156 185.067075,53.535332 183.664878,52.7313494 L182.600079,54.9318188 C188.043797,58.0019021 191.82592,62.8367363 194.31287,67.2413213 C194.31287,65.7828494 192.219551,61.084747 190.304001,58.5597676" id="Fill-80-Copy" fill="#FFFFFF"></path>
                <path d="M334.238728,53.5535629 L335.207387,51.3202779 C332.716809,50.3431017 330.00674,49.8016441 327.171509,49.8016441 C327.111648,50.0805768 327.18602,52.1443145 327.171509,52.4250703 C329.841669,52.4250703 332.103687,52.7696343 334.238728,53.5535629" id="Fill-81-Copy" fill="#FFFFFF"></path>
                <path d="M344.768811,58.5597676 C344.406018,58.082118 344.025085,57.6190532 343.626012,57.1723962 C343.121729,56.6108846 342.590236,56.0730731 342.033348,55.564431 C340.845199,54.4815156 339.5337,53.535332 338.131503,52.7313494 L337.06489,54.9318188 C342.510421,58.0019021 346.292544,62.8367363 348.779495,67.2413213 C348.779495,65.7828494 346.686176,61.084747 344.768811,58.5597676" id="Fill-82-Copy" fill="#FFFFFF"></path>
            </g>
        </g>
    </g>
</svg>