<?xml version="1.0" encoding="UTF-8" standalone="no"?>
<svg width="500px" height="400px" viewBox="0 0 500 400" version="1.1" xmlns="http://www.w3.org/2000/svg" xmlns:xlink="http://www.w3.org/1999/xlink">
    <!-- Generator: Sketch 39.1 (31720) - http://www.bohemiancoding.com/sketch -->
    <title>chatopsdevops2</title>
    <desc>Created with Sketch.</desc>
    <defs></defs>
    <g id="Corp-Site-Index" stroke="none" stroke-width="1" fill="none" fill-rule="evenodd">
        <g id="chatopsdevops2">
            <path d="M157,55.6748732 L157,28.8284133 C157,9.66943449 164.837646,0.0900887915 180.513175,0.0900887915 C183.816447,0.0900887915 186.751811,0.53302092 189.319354,1.41889847 C191.886897,2.30477601 194.041499,3.52846986 195.783225,5.09001672 C197.52495,6.65156358 198.958849,8.57343858 200.084965,10.8556994 C201.21108,13.1379602 202.021871,15.6153772 202.517362,18.2880247 C203.012853,20.9606722 203.260594,23.9035433 203.260594,27.1167262 L203.260594,34.0986076 L187.134701,34.0986076 L187.134701,26.6212379 C187.134701,25.1497803 187.104671,23.8810425 187.044612,22.8149865 C186.984552,21.7489304 186.826899,20.5327439 186.571646,19.1663904 C186.316393,17.8000369 185.971056,16.6889529 185.535625,15.8331051 C185.100193,14.9772573 184.454563,14.2490469 183.598716,13.6484519 C182.742868,13.047857 181.714364,12.747564 180.513175,12.747564 C175.768475,12.747564 173.39616,16.7414605 173.39616,24.7293733 L173.39616,59.7288688 C173.39616,67.6867518 175.768475,71.6656336 180.513175,71.6656336 C181.924573,71.6656336 183.11073,71.2602381 184.071682,70.449435 C185.032634,69.6386318 185.723308,68.4900112 186.143724,67.0035387 C186.564141,65.5170662 186.849419,64.0606453 186.999568,62.6342323 C187.149716,61.2078193 187.22479,59.5787299 187.22479,57.7469154 L187.22479,49.4137021 L203.260594,49.4137021 L203.260594,56.2604503 C203.200535,59.3535143 202.945286,62.2062975 202.49484,64.8188855 C202.044394,67.4314735 201.278646,69.9689491 200.197576,72.4313884 C199.116505,74.8938277 197.742664,76.9733565 196.076013,78.6700372 C194.409362,80.3667179 192.25476,81.7330509 189.612143,82.7690772 C186.969525,83.8051035 183.936566,84.3231089 180.513175,84.3231089 C176.999694,84.3231089 173.884155,83.8201181 171.166462,82.8141216 C168.44877,81.8081251 166.211588,80.4568067 164.454847,78.760126 C162.698107,77.0634453 161.249194,74.9764091 160.108063,72.498955 C158.966933,70.0215008 158.163649,67.4164593 157.698188,64.6837523 C157.232727,61.9510453 157,58.9481156 157,55.6748732 L157,55.6748732 Z M210.918142,82.746555 L210.918142,1.66664264 L227.314302,1.66664264 L227.314302,34.9094067 L239.070889,34.9094067 L239.070889,1.66664264 L255.557138,1.66664264 L255.557138,82.746555 L239.070889,82.746555 L239.070889,46.5759052 L227.314302,46.5759052 L227.314302,82.746555 L210.918142,82.746555 Z M281.322532,55.314518 L289.70079,55.314518 L285.60175,25.2248616 L281.322532,55.314518 Z M260.782288,82.746555 L278.304558,1.66664264 L292.808853,1.66664264 L310.286079,82.746555 L294.115141,82.746555 L290.781855,65.4044626 L280.196422,65.4044626 L277.043315,82.746555 L260.782288,82.746555 Z M323.21382,82.746555 L323.21382,13.9187183 L311.3221,13.9187183 L311.3221,1.66664264 L351.276479,1.66664264 L351.276479,13.9187183 L339.60998,13.9187183 L339.60998,82.746555 L323.21382,82.746555 Z M355.69083,56.0802727 L355.69083,28.8284133 C355.69083,9.66943449 363.588535,0.0900887915 379.384182,0.0900887915 C395.209859,0.0900887915 403.122578,9.66943449 403.122578,28.8284133 L403.122578,55.6748732 C403.122578,58.9180859 402.882344,61.9135082 402.401868,64.6612301 C401.921392,67.408952 401.103094,70.0139935 399.946949,72.4764328 C398.790803,74.9388721 397.319368,77.0334155 395.532598,78.760126 C393.745828,80.4868365 391.486123,81.8456621 388.753416,82.8366438 C386.020709,83.8276255 382.897662,84.3231089 379.384182,84.3231089 C375.900731,84.3231089 372.792699,83.8351328 370.059992,82.859166 C367.327285,81.8831992 365.075088,80.5619101 363.303333,78.8952592 C361.531577,77.2286082 360.067649,75.186616 358.911504,72.7692213 C357.755359,70.3518267 356.929553,67.7768145 356.434062,65.0441075 C355.938571,62.3114005 355.69083,59.3234854 355.69083,56.0802727 L355.69083,56.0802727 Z M386.726418,59.7739132 L386.726418,24.7293733 C386.726418,16.7414605 384.279031,12.747564 379.384182,12.747564 C377.912724,12.747564 376.666508,13.1154229 375.645497,13.8511517 C374.624486,14.5868805 373.873753,15.5928619 373.393277,16.8691262 C372.912801,18.1453905 372.574972,19.4066209 372.379778,20.6528555 C372.184585,21.89909 372.08699,23.2579157 372.08699,24.7293733 L372.08699,59.7739132 C372.08699,67.7317962 374.519363,71.710678 379.384182,71.710678 C384.279031,71.710678 386.726418,67.7317962 386.726418,59.7739132 L386.726418,59.7739132 Z M428.257351,36.4859606 C429.128214,36.4859606 429.901468,36.4334093 430.577138,36.3283052 C431.252807,36.2232011 431.845886,36.1030839 432.356391,35.96795 C432.866897,35.8328161 433.317336,35.5850744 433.707723,35.2247175 C434.09811,34.8643605 434.420925,34.5490529 434.676178,34.2787852 C434.93143,34.0085174 435.149143,33.5655853 435.329321,32.9499755 C435.5095,32.3343657 435.644632,31.831375 435.734721,31.4409882 C435.82481,31.0506015 435.892376,30.4199863 435.937421,29.5491236 C435.982465,28.6782609 436.004987,27.9800798 436.004987,27.4545592 L436.004987,24.9996396 L436.004987,24.3239737 C436.004987,23.1528136 435.99748,22.2669493 435.982465,21.6663544 C435.96745,21.0657594 435.914899,20.3000123 435.82481,19.3690902 C435.73472,18.438168 435.592081,17.7399869 435.396888,17.2745258 C435.201695,16.8090647 434.916416,16.2760447 434.541044,15.6754497 C434.165673,15.0748548 433.707726,14.63943 433.16719,14.3691622 C432.626655,14.0988945 431.943488,13.8586601 431.11767,13.6484519 C430.291852,13.4382437 429.338422,13.3331411 428.257351,13.3331411 L428.257351,36.4859606 Z M411.726058,82.746555 L411.726058,1.66664264 L431.32037,1.66664264 C438.377361,1.66664264 443.512371,3.63356159 446.725554,7.56745849 C449.938736,11.5013554 451.545304,17.1919071 451.545304,24.6392845 C451.545304,28.3029137 451.19246,31.4860191 450.486761,34.1886964 C449.781061,36.8913736 448.797602,39.1210489 447.536353,40.8777891 C446.275103,42.6345294 444.653521,44.0459063 442.671558,45.1119624 C440.689595,46.1780184 438.5425,46.9287508 436.230209,47.3641821 C433.917919,47.7996135 431.245311,48.0323405 428.212307,48.0623703 L428.212307,82.746555 L411.726058,82.746555 Z M454.968678,59.5486912 L471.59006,56.3505391 C471.59006,58.0021752 471.620089,59.4585961 471.680149,60.7198455 C471.740208,61.9810949 471.897862,63.3549352 472.153115,64.8414077 C472.408368,66.3278802 472.753705,67.5440667 473.189136,68.4900037 C473.624567,69.4359408 474.240168,70.2317172 475.035956,70.8773567 C475.831745,71.5229963 476.77016,71.8458112 477.851231,71.8458112 C481.094444,71.8458112 482.716026,69.7737897 482.716026,65.6296846 C482.716026,59.9540624 479.517906,54.3085546 473.121569,48.6929918 L468.031553,44.3687298 C466.409946,43.0173912 465.118687,41.8912926 464.157735,40.9904001 C463.196783,40.0895077 462.063177,38.8733212 460.756883,37.3418041 C459.450589,35.810287 458.429593,34.3313441 457.693864,32.9049311 C456.958135,31.4785181 456.32752,29.7593409 455.801999,27.7473478 C455.276479,25.7353547 455.013722,23.6032746 455.013722,21.3510436 C455.013722,14.7745289 457.100758,9.57195324 461.274893,5.74316046 C465.449028,1.91436768 470.989433,0 477.896275,0 C483.631957,0 488.511718,2.04199219 492.535704,6.12603782 C496.55969,10.2100835 498.571653,15.1348881 498.571653,20.9005996 L498.526609,21.4861768 L498.526609,22.8375086 L481.589916,25.1798172 C481.589916,24.84949 481.612438,24.3314846 481.657482,23.6257856 C481.702527,22.9200865 481.725049,22.3420225 481.725049,21.8915763 C481.725049,20.8105054 481.649976,19.7744947 481.499827,18.783513 C481.349678,17.7925314 481.101937,16.8015646 480.756594,15.8105829 C480.411252,14.8196012 479.878232,14.0313322 479.157518,13.4457521 C478.436805,12.8601721 477.565955,12.5673864 476.544943,12.5673864 C474.743159,12.5673864 473.39184,13.2730749 472.490948,14.684473 C471.590055,16.0958711 471.139616,17.7624971 471.139616,19.6844009 C471.139616,21.3660668 471.402372,22.9426049 471.927893,24.4140625 C472.453414,25.8855201 473.24919,27.2593605 474.315246,28.5356247 C475.381302,29.811889 476.364761,30.8704217 477.265654,31.7112546 C478.166546,32.5520875 479.367718,33.580591 480.869205,34.7967957 C482.370693,36.0130005 483.436733,36.9063721 484.067358,37.4769373 C486.379648,39.5189601 488.331552,41.4333278 489.923129,43.2200977 C491.514706,45.0068677 493.01617,47.0263379 494.427569,49.278569 C495.838967,51.5308 496.897499,53.9631731 497.603199,56.5757611 C498.308898,59.1883491 498.661742,62.011103 498.661742,65.0441075 C498.661742,70.7197297 496.634764,75.3667634 492.580748,78.985348 C488.526732,82.6039325 483.601928,84.4131976 477.806187,84.4131976 C474.052468,84.4131976 470.719216,83.7225238 467.806331,82.3411554 C464.893445,80.9597871 462.543653,79.082956 460.756883,76.710606 C458.970113,74.3382559 457.596272,71.7106925 456.635321,68.8278367 C455.674369,65.944981 455.118827,62.8519634 454.968678,59.5486912 L454.968678,59.5486912 Z" id="CHATOPS-Copy-2" fill="#9B9B9B"></path>
            <path d="M8,271.67433 L8,244.828132 C8,225.66934 15.8375701,216.090088 31.5129453,216.090088 C34.8161853,216.090088 37.7515204,216.533016 40.3190388,217.418885 C42.8865571,218.304754 45.0411382,219.528435 46.7828465,221.089967 C48.5245549,222.651499 49.9584398,224.573355 51.0845444,226.855594 C52.2106489,229.137832 53.021432,231.615225 53.516918,234.287846 C54.012404,236.960468 54.2601433,239.90331 54.2601433,243.116462 L54.2601433,250.098275 L38.1344069,250.098275 L38.1344069,242.620978 C38.1344069,241.149535 38.1043779,239.88081 38.044319,238.814764 C37.9842601,237.748718 37.8266078,236.532544 37.5713574,235.166203 C37.3161071,233.799863 36.9707735,232.68879 36.5353464,231.832951 C36.0999193,230.977111 35.4542958,230.248908 34.5984563,229.648319 C33.7426169,229.04773 32.7141235,228.74744 31.5129453,228.74744 C26.7682915,228.74744 24.3960002,232.741297 24.3960002,240.729132 L24.3960002,275.728286 C24.3960002,283.686092 26.7682915,287.664935 31.5129453,287.664935 C32.9243296,287.664935 34.1104753,287.259543 35.0714179,286.448748 C36.0323604,285.637953 36.7230275,284.489343 37.1434398,283.002885 C37.5638522,281.516427 37.8491278,280.060021 37.999275,278.633622 C38.1494223,277.207222 38.2244948,275.578149 38.2244948,273.746352 L38.2244948,265.41322 L54.2601433,265.41322 L54.2601433,272.259902 C54.2000844,275.352935 53.9448379,278.205691 53.4943961,280.818253 C53.0439542,283.430816 52.2782146,285.968267 51.1971543,288.430682 C50.1160939,290.893097 48.742267,292.972606 47.0756323,294.66927 C45.4089975,296.365934 43.2544165,297.732254 40.6118245,298.76827 C37.9692325,299.804286 34.9363031,300.322287 31.5129453,300.322287 C27.9994991,300.322287 24.8839899,299.819301 22.1663243,298.813314 C19.4486587,297.807327 17.2114979,296.456022 15.4547748,294.759358 C13.6980517,293.062694 12.2491523,290.975678 11.108033,288.498248 C9.96691373,286.020818 9.16363787,283.415802 8.69818133,280.683122 C8.23272478,277.950441 8,274.947541 8,271.67433 L8,271.67433 Z M60.8816049,272.079726 L60.8816049,244.828132 C60.8816049,225.66934 68.779233,216.090088 84.574726,216.090088 C100.400249,216.090088 108.312891,225.66934 108.312891,244.828132 L108.312891,271.67433 C108.312891,274.917511 108.072659,277.912904 107.592188,280.6606 C107.111717,283.408295 106.293426,286.013311 105.137292,288.475726 C103.981158,290.938141 102.509737,293.032664 100.722984,294.759358 C98.9362319,296.486052 96.6765493,297.844864 93.943869,298.835836 C91.2111886,299.826808 88.0881722,300.322287 84.574726,300.322287 C81.0913093,300.322287 77.9833074,299.834315 75.250627,298.858358 C72.5179467,297.882401 70.2657714,296.561125 68.4940336,294.89449 C66.7222958,293.227855 65.2583818,291.185883 64.1022478,288.768512 C62.9461138,286.351141 62.1203162,283.776154 61.6248302,281.043473 C61.1293442,278.310793 60.8816049,275.322907 60.8816049,272.079726 L60.8816049,272.079726 Z M91.9168909,275.77333 L91.9168909,240.729132 C91.9168909,232.741297 89.4695271,228.74744 84.574726,228.74744 C83.1032828,228.74744 81.8570791,229.115295 80.8360776,229.851017 C79.8150762,230.586738 79.0643511,231.59271 78.5838798,232.868962 C78.1034085,234.145214 77.7655823,235.406432 77.5703908,236.652654 C77.3751993,237.898876 77.2776051,239.257689 77.2776051,240.729132 L77.2776051,275.77333 C77.2776051,283.731136 79.7099544,287.709979 84.574726,287.709979 C89.4695271,287.709979 91.9168909,283.731136 91.9168909,275.77333 L91.9168909,275.77333 Z M116.916287,298.745748 L116.916287,217.621582 L128.717803,217.621582 L146.510166,260.052989 L146.510166,217.621582 L160.113441,217.621582 L160.113441,298.745748 L148.762364,298.745748 L131.015045,253.746836 L131.015045,298.745748 L116.916287,298.745748 Z M177.455364,298.745748 L177.455364,229.918583 L165.56376,229.918583 L165.56376,217.666626 L205.517749,217.666626 L205.517749,229.918583 L193.851364,229.918583 L193.851364,298.745748 L177.455364,298.745748 Z M210.968068,298.745748 L210.968068,217.666626 L227.364068,217.666626 L227.364068,298.745748 L210.968068,298.745748 Z M237.003475,298.745748 L237.003475,217.621582 L248.804991,217.621582 L266.597354,260.052989 L266.597354,217.621582 L280.200629,217.621582 L280.200629,298.745748 L268.849552,298.745748 L251.102233,253.746836 L251.102233,298.745748 L237.003475,298.745748 Z M289.479684,268.611341 L289.479684,217.666626 L305.875684,217.666626 L305.875684,268.115858 C305.875684,270.998685 305.890699,273.093208 305.920728,274.39949 C305.950758,275.705771 306.02583,277.297308 306.145948,279.174149 C306.266066,281.05099 306.476269,282.364759 306.776563,283.115495 C307.076858,283.866232 307.489757,284.677015 308.015272,285.547869 C308.540788,286.418723 309.223948,286.989274 310.064772,287.259539 C310.905597,287.529804 311.926583,287.664935 313.127761,287.664935 C314.328939,287.664935 315.349926,287.529804 316.19075,287.259539 C317.031575,286.989274 317.714735,286.42623 318.24025,285.570391 C318.765766,284.714551 319.178665,283.911275 319.478959,283.160539 C319.779254,282.409803 319.989457,281.111048 320.109575,279.264237 C320.229692,277.417425 320.304765,275.855917 320.334794,274.579665 C320.364824,273.303414 320.379838,271.23892 320.379838,268.386121 L320.379838,268.115858 L320.379838,217.666626 L336.775838,217.666626 L336.775838,268.611341 C336.775838,271.193874 336.700766,273.536137 336.550619,275.638198 C336.400471,277.74026 336.115196,279.917363 335.694783,282.169572 C335.274371,284.421781 334.70382,286.411203 333.983113,288.137896 C333.262406,289.86459 332.301478,291.516185 331.1003,293.092732 C329.899122,294.669278 328.480251,295.968032 326.843646,296.989034 C325.207041,298.010035 323.232634,298.820818 320.920366,299.421407 C318.608098,300.021997 316.010589,300.322287 313.127761,300.322287 C310.244934,300.322287 307.647425,300.021997 305.335157,299.421407 C303.022889,298.820818 301.055989,298.010035 299.434398,296.989034 C297.812808,295.968032 296.401445,294.669278 295.200267,293.092732 C293.999088,291.516185 293.03816,289.86459 292.317453,288.137896 C291.596746,286.411203 291.018688,284.421781 290.583261,282.169572 C290.147834,279.917363 289.855051,277.74026 289.704904,275.638198 C289.554757,273.536137 289.479684,271.193874 289.479684,268.611341 L289.479684,268.611341 Z M345.018882,272.079726 L345.018882,244.828132 C345.018882,225.66934 352.916511,216.090088 368.712004,216.090088 C384.537526,216.090088 392.450169,225.66934 392.450169,244.828132 L392.450169,271.67433 C392.450169,274.917511 392.209937,277.912904 391.729465,280.6606 C391.248994,283.408295 390.430704,286.013311 389.27457,288.475726 C388.118436,290.938141 386.647015,293.032664 384.860262,294.759358 C383.073509,296.486052 380.813827,297.844864 378.081147,298.835836 C375.348466,299.826808 372.22545,300.322287 368.712004,300.322287 C365.228587,300.322287 362.120585,299.834315 359.387905,298.858358 C356.655224,297.882401 354.403049,296.561125 352.631311,294.89449 C350.859573,293.227855 349.395659,291.185883 348.239525,288.768512 C347.083391,286.351141 346.257594,283.776154 345.762108,281.043473 C345.266622,278.310793 345.018882,275.322907 345.018882,272.079726 L345.018882,272.079726 Z M376.054168,275.77333 L376.054168,240.729132 C376.054168,232.741297 373.606805,228.74744 368.712004,228.74744 C367.24056,228.74744 365.994357,229.115295 364.973355,229.851017 C363.952354,230.586738 363.201629,231.59271 362.721157,232.868962 C362.240686,234.145214 361.90286,235.406432 361.707668,236.652654 C361.512477,237.898876 361.414883,239.257689 361.414883,240.729132 L361.414883,275.77333 C361.414883,283.731136 363.847232,287.709979 368.712004,287.709979 C373.606805,287.709979 376.054168,283.731136 376.054168,275.77333 L376.054168,275.77333 Z M400.693213,268.611341 L400.693213,217.666626 L417.089213,217.666626 L417.089213,268.115858 C417.089213,270.998685 417.104227,273.093208 417.134257,274.39949 C417.164286,275.705771 417.239359,277.297308 417.359477,279.174149 C417.479594,281.05099 417.689797,282.364759 417.990092,283.115495 C418.290387,283.866232 418.703285,284.677015 419.228801,285.547869 C419.754316,286.418723 420.437476,286.989274 421.278301,287.259539 C422.119126,287.529804 423.140112,287.664935 424.34129,287.664935 C425.542468,287.664935 426.563454,287.529804 427.404279,287.259539 C428.245104,286.989274 428.928263,286.42623 429.453779,285.570391 C429.979294,284.714551 430.392193,283.911275 430.692488,283.160539 C430.992782,282.409803 431.202985,281.111048 431.323103,279.264237 C431.443221,277.417425 431.518293,275.855917 431.548323,274.579665 C431.578352,273.303414 431.593367,271.23892 431.593367,268.386121 L431.593367,268.115858 L431.593367,217.666626 L447.989367,217.666626 L447.989367,268.611341 C447.989367,271.193874 447.914294,273.536137 447.764147,275.638198 C447.614,277.74026 447.328724,279.917363 446.908312,282.169572 C446.4879,284.421781 445.917349,286.411203 445.196642,288.137896 C444.475935,289.86459 443.515007,291.516185 442.313828,293.092732 C441.11265,294.669278 439.69378,295.968032 438.057175,296.989034 C436.420569,298.010035 434.446162,298.820818 432.133894,299.421407 C429.821626,300.021997 427.224117,300.322287 424.34129,300.322287 C421.458462,300.322287 418.860953,300.021997 416.548685,299.421407 C414.236417,298.820818 412.269518,298.010035 410.647927,296.989034 C409.026337,295.968032 407.614973,294.669278 406.413795,293.092732 C405.212617,291.516185 404.251689,289.86459 403.530982,288.137896 C402.810275,286.411203 402.232217,284.421781 401.79679,282.169572 C401.361363,279.917363 401.06858,277.74026 400.918432,275.638198 C400.768285,273.536137 400.693213,271.193874 400.693213,268.611341 L400.693213,268.611341 Z M454.475697,275.54811 L471.096917,272.34999 C471.096917,274.00161 471.126946,275.458016 471.187005,276.719253 C471.247064,277.98049 471.404716,279.354317 471.659966,280.840775 C471.915217,282.327233 472.26055,283.543408 472.695977,284.489336 C473.131404,285.435264 473.746999,286.231032 474.542779,286.876666 C475.33856,287.522299 476.276966,287.845111 477.358027,287.845111 C480.601208,287.845111 482.222774,285.773109 482.222774,281.629045 C482.222774,275.953478 479.024685,270.308025 472.628411,264.692517 L467.538444,260.368297 C465.916854,259.016972 464.625606,257.890884 463.664664,256.99 C462.703721,256.089117 461.570126,254.872942 460.263845,253.34144 C458.957564,251.809938 457.936578,250.331009 457.200856,248.90461 C456.465134,247.478211 455.834525,245.759051 455.30901,243.747077 C454.783494,241.735104 454.520741,239.603044 454.520741,237.350835 C454.520741,230.774385 456.607756,225.57186 460.781851,221.743104 C464.955945,217.914349 470.496296,216 477.403071,216 C483.138696,216 488.01841,218.041972 492.042356,222.125978 C496.066303,226.209984 498.078247,231.134741 498.078247,236.900396 L498.033203,237.485967 L498.033203,238.837286 L481.096675,241.179572 C481.096675,240.849248 481.119197,240.331247 481.164241,239.625555 C481.209285,238.919863 481.231807,238.341805 481.231807,237.891363 C481.231807,236.810302 481.156734,235.774302 481.006587,234.78333 C480.85644,233.792358 480.608701,232.801401 480.263362,231.810429 C479.918023,230.819457 479.385008,230.031195 478.664301,229.445621 C477.943594,228.860047 477.072753,228.567264 476.051752,228.567264 C474.249985,228.567264 472.898679,229.272945 471.997796,230.68433 C471.096912,232.095714 470.646477,233.762324 470.646477,235.684209 C470.646477,237.365858 470.909231,238.942381 471.434746,240.413824 C471.960262,241.885268 472.75603,243.259095 473.822076,244.535346 C474.888122,245.811598 475.871572,246.870121 476.772455,247.710945 C477.673339,248.55177 478.874499,249.580263 480.375972,250.796456 C481.877444,252.012649 482.943474,252.906012 483.574093,253.476572 C485.886361,255.518575 487.838246,257.432924 489.429807,259.219676 C491.021368,261.006429 492.522818,263.025879 493.934203,265.278088 C495.345587,267.530297 496.404109,269.962647 497.109802,272.575209 C497.815494,275.187772 498.168335,278.010498 498.168335,281.043473 C498.168335,286.71904 496.141377,291.366028 492.0874,294.984578 C488.033424,298.603127 483.108667,300.412374 477.312983,300.412374 C473.559301,300.412374 470.226081,299.721707 467.313224,298.340352 C464.400367,296.958998 462.050598,295.082185 460.263845,292.709858 C458.477093,290.337531 457.103266,287.709993 456.142323,284.827166 C455.181381,281.944338 454.625844,278.85135 454.475697,275.54811 L454.475697,275.54811 Z" id="CONTINUOUS-Copy-2" fill="#1E5775"></path>
            <path d="M217,395.746555 L217,314.666643 L233.936693,314.666643 C239.342047,314.666643 243.793891,315.154619 247.292356,316.130586 C250.790822,317.106552 253.538502,318.71312 255.535481,320.950336 C257.532459,323.187552 258.913806,325.867667 259.679565,328.99076 C260.445324,332.113854 260.828197,336.092736 260.828197,340.927525 L260.828197,367.503719 C260.828197,370.386575 260.738109,372.901528 260.557931,375.048655 C260.377752,377.195782 260.039923,379.297833 259.544432,381.354871 C259.048941,383.411908 258.373282,385.153607 257.517434,386.58002 C256.661586,388.006433 255.55801,389.33523 254.206671,390.566449 C252.855332,391.797669 251.226243,392.773621 249.319354,393.494335 C247.412465,394.215049 245.175282,394.770591 242.607739,395.160978 C240.040196,395.551365 237.089817,395.746555 233.756515,395.746555 L217,395.746555 Z M234.026782,384.260234 C235.588328,384.260234 236.81953,384.237712 237.720422,384.192667 C238.621314,384.147623 239.522193,384.035013 240.423086,383.854835 C241.323978,383.674656 241.984623,383.426914 242.405039,383.111602 C242.825456,382.79629 243.215837,382.338343 243.576193,381.737748 C243.93655,381.137153 244.169278,380.423957 244.274382,379.598139 C244.379486,378.772321 244.432037,377.743818 244.432037,376.512598 L244.432037,332.864579 C244.432037,330.191931 243.636261,328.420203 242.044684,327.54934 C240.453107,326.678477 237.7805,326.228038 234.026782,326.198008 L234.026782,384.260234 Z M269.431677,395.746555 L269.431677,314.666643 L303.260018,314.666643 L303.260018,325.927742 L285.827837,325.927742 L285.827837,347.999496 L298.170001,347.999496 L298.170001,359.530861 L285.827837,359.530861 L285.827837,384.485456 L303.260018,384.485456 L303.260018,395.746555 L269.431677,395.746555 Z M319.746267,395.746555 L304.836572,314.666643 L320.376888,314.666643 L327.538947,363.810078 L335.466761,314.666643 L350.781855,314.666643 L334.746051,395.746555 L319.746267,395.746555 Z M355.106117,369.080273 L355.106117,341.828413 C355.106117,322.669434 363.003822,313.090089 378.79947,313.090089 C394.625146,313.090089 402.537866,322.669434 402.537866,341.828413 L402.537866,368.674873 C402.537866,371.918086 402.297632,374.913508 401.817156,377.66123 C401.33668,380.408952 400.518381,383.013993 399.362236,385.476433 C398.206091,387.938872 396.734655,390.033416 394.947885,391.760126 C393.161115,393.486836 390.901411,394.845662 388.168704,395.836644 C385.435997,396.827625 382.31295,397.323109 378.79947,397.323109 C375.316019,397.323109 372.207987,396.835133 369.47528,395.859166 C366.742573,394.883199 364.490375,393.56191 362.71862,391.895259 C360.946865,390.228608 359.482937,388.186616 358.326792,385.769221 C357.170646,383.351827 356.344841,380.776814 355.84935,378.044107 C355.353859,375.3114 355.106117,372.323485 355.106117,369.080273 L355.106117,369.080273 Z M386.141706,372.773913 L386.141706,337.729373 C386.141706,329.74146 383.694318,325.747564 378.79947,325.747564 C377.328012,325.747564 376.081796,326.115423 375.060785,326.851152 C374.039773,327.586881 373.289041,328.592862 372.808565,329.869126 C372.328089,331.14539 371.990259,332.406621 371.795066,333.652855 C371.599873,334.89909 371.502277,336.257916 371.502277,337.729373 L371.502277,372.773913 C371.502277,380.731796 373.93465,384.710678 378.79947,384.710678 C383.694318,384.710678 386.141706,380.731796 386.141706,372.773913 L386.141706,372.773913 Z M427.672639,349.485961 C428.543502,349.485961 429.316756,349.433409 429.992425,349.328305 C430.668095,349.223201 431.261173,349.103084 431.771679,348.96795 C432.282185,348.832816 432.732624,348.585074 433.123011,348.224717 C433.513398,347.864361 433.836212,347.549053 434.091465,347.278785 C434.346718,347.008517 434.564431,346.565585 434.744609,345.949975 C434.924788,345.334366 435.059919,344.831375 435.150009,344.440988 C435.240098,344.050602 435.307664,343.419986 435.352708,342.549124 C435.397753,341.678261 435.420275,340.98008 435.420275,340.454559 L435.420275,337.99964 L435.420275,337.323974 C435.420275,336.152814 435.412768,335.266949 435.397753,334.666354 C435.382738,334.065759 435.330187,333.300012 435.240097,332.36909 C435.150008,331.438168 435.007369,330.739987 434.812176,330.274526 C434.616982,329.809065 434.331704,329.276045 433.956332,328.67545 C433.58096,328.074855 433.123014,327.63943 432.582478,327.369162 C432.041943,327.098895 431.358776,326.85866 430.532958,326.648452 C429.70714,326.438244 428.75371,326.333141 427.672639,326.333141 L427.672639,349.485961 Z M411.141346,395.746555 L411.141346,314.666643 L430.735658,314.666643 C437.792648,314.666643 442.927658,316.633562 446.140841,320.567458 C449.354024,324.501355 450.960592,330.191907 450.960592,337.639284 C450.960592,341.302914 450.607747,344.486019 449.902048,347.188696 C449.196349,349.891374 448.21289,352.121049 446.95164,353.877789 C445.690391,355.634529 444.068809,357.045906 442.086846,358.111962 C440.104882,359.178018 437.957788,359.928751 435.645497,360.364182 C433.333206,360.799613 430.660599,361.032341 427.627595,361.06237 L427.627595,395.746555 L411.141346,395.746555 Z M454.383966,372.548691 L471.005348,369.350539 C471.005348,371.002175 471.035377,372.458596 471.095436,373.719845 C471.155496,374.981095 471.31315,376.354935 471.568403,377.841408 C471.823655,379.32788 472.168992,380.544067 472.604424,381.490004 C473.039855,382.435941 473.655456,383.231717 474.451244,383.877357 C475.247032,384.522996 476.185448,384.845811 477.266519,384.845811 C480.509731,384.845811 482.131313,382.77379 482.131313,378.629685 C482.131313,372.954062 478.933193,367.308555 472.536857,361.692992 L467.44684,357.36873 C465.825234,356.017391 464.533974,354.891293 463.573022,353.9904 C462.61207,353.089508 461.478464,351.873321 460.17217,350.341804 C458.865876,348.810287 457.84488,347.331344 457.109152,345.904931 C456.373423,344.478518 455.742808,342.759341 455.217287,340.747348 C454.691766,338.735355 454.42901,336.603275 454.42901,334.351044 C454.42901,327.774529 456.516046,322.571953 460.690181,318.74316 C464.864316,314.914368 470.404721,313 477.311563,313 C483.047245,313 487.927006,315.041992 491.950992,319.126038 C495.974978,323.210083 497.986941,328.134888 497.986941,333.9006 L497.941896,334.486177 L497.941896,335.837509 L481.005204,338.179817 C481.005204,337.84949 481.027726,337.331485 481.07277,336.625786 C481.117815,335.920087 481.140337,335.342023 481.140337,334.891576 C481.140337,333.810505 481.065263,332.774495 480.915115,331.783513 C480.764966,330.792531 480.517224,329.801565 480.171882,328.810583 C479.82654,327.819601 479.29352,327.031332 478.572806,326.445752 C477.852092,325.860172 476.981243,325.567386 475.960231,325.567386 C474.158446,325.567386 472.807128,326.273075 471.906236,327.684473 C471.005343,329.095871 470.554904,330.762497 470.554904,332.684401 C470.554904,334.366067 470.81766,335.942605 471.343181,337.414062 C471.868701,338.88552 472.664478,340.25936 473.730534,341.535625 C474.79659,342.811889 475.780049,343.870422 476.680942,344.711255 C477.581834,345.552088 478.783006,346.580591 480.284493,347.796796 C481.785981,349.013 482.852021,349.906372 483.482645,350.476937 C485.794936,352.51896 487.74684,354.433328 489.338417,356.220098 C490.929993,358.006868 492.431458,360.026338 493.842856,362.278569 C495.254254,364.5308 496.312787,366.963173 497.018486,369.575761 C497.724185,372.188349 498.07703,375.011103 498.07703,378.044107 C498.07703,383.71973 496.050052,388.366763 491.996036,391.985348 C487.94202,395.603933 483.017216,397.413198 477.221474,397.413198 C473.467756,397.413198 470.134504,396.722524 467.221618,395.341155 C464.308733,393.959787 461.95894,392.082956 460.17217,389.710606 C458.385401,387.338256 457.01156,384.710692 456.050608,381.827837 C455.089656,378.944981 454.534114,375.851963 454.383966,372.548691 L454.383966,372.548691 Z" id="DEVOPS" fill="#1E5775"></path>
            <path d="M344,149.584784 L344,122.738324 C344,103.579346 351.837646,94 367.513175,94 C370.816447,94 373.751811,94.4429321 376.319354,95.3288097 C378.886897,96.2146872 381.041499,97.4383811 382.783225,98.9999279 C384.52495,100.561475 385.958849,102.48335 387.084965,104.765611 C388.21108,107.047871 389.021871,109.525288 389.517362,112.197936 C390.012853,114.870583 390.260594,117.813454 390.260594,121.026637 L390.260594,128.008519 L374.134701,128.008519 L374.134701,120.531149 C374.134701,119.059691 374.104671,117.790954 374.044612,116.724898 C373.984552,115.658842 373.826899,114.442655 373.571646,113.076302 C373.316393,111.709948 372.971056,110.598864 372.535625,109.743016 C372.100193,108.887169 371.454563,108.158958 370.598716,107.558363 C369.742868,106.957768 368.714364,106.657475 367.513175,106.657475 C362.768475,106.657475 360.39616,110.651372 360.39616,118.639284 L360.39616,153.63878 C360.39616,161.596663 362.768475,165.575545 367.513175,165.575545 C368.924573,165.575545 370.11073,165.170149 371.071682,164.359346 C372.032634,163.548543 372.723308,162.399922 373.143724,160.91345 C373.564141,159.426977 373.849419,157.970557 373.999568,156.544144 C374.149716,155.117731 374.22479,153.488641 374.22479,151.656827 L374.22479,143.323613 L390.260594,143.323613 L390.260594,150.170362 C390.200535,153.263425 389.945286,156.116209 389.49484,158.728797 C389.044394,161.341385 388.278646,163.87886 387.197576,166.3413 C386.116505,168.803739 384.742664,170.883268 383.076013,172.579948 C381.409362,174.276629 379.25476,175.642962 376.612143,176.678988 C373.969525,177.715015 370.936566,178.23302 367.513175,178.23302 C363.999694,178.23302 360.884155,177.730029 358.166462,176.724033 C355.44877,175.718036 353.211588,174.366718 351.454847,172.670037 C349.698107,170.973356 348.249194,168.88632 347.108063,166.408866 C345.966933,163.931412 345.163649,161.326371 344.698188,158.593664 C344.232727,155.860957 344,152.858027 344,149.584784 L344,149.584784 Z M396.882121,149.990184 L396.882121,122.738324 C396.882121,103.579346 404.779826,94 420.575473,94 C436.40115,94 444.313869,103.579346 444.313869,122.738324 L444.313869,149.584784 C444.313869,152.827997 444.073635,155.823419 443.593159,158.571141 C443.112683,161.318863 442.294385,163.923905 441.138239,166.386344 C439.982094,168.848783 438.510659,170.943327 436.723889,172.670037 C434.937119,174.396748 432.677414,175.755573 429.944707,176.746555 C427.212,177.737537 424.088953,178.23302 420.575473,178.23302 C417.092022,178.23302 413.98399,177.745044 411.251283,176.769077 C408.518576,175.79311 406.266379,174.471821 404.494624,172.80517 C402.722868,171.138519 401.25894,169.096527 400.102795,166.679133 C398.94665,164.261738 398.120844,161.686726 397.625353,158.954019 C397.129862,156.221312 396.882121,153.233397 396.882121,149.990184 L396.882121,149.990184 Z M427.917709,153.683824 L427.917709,118.639284 C427.917709,110.651372 425.470322,106.657475 420.575473,106.657475 C419.104015,106.657475 417.857799,107.025334 416.836788,107.761063 C415.815777,108.496792 415.065044,109.502773 414.584568,110.779037 C414.104092,112.055302 413.766263,113.316532 413.571069,114.562767 C413.375876,115.809001 413.278281,117.167827 413.278281,118.639284 L413.278281,153.683824 C413.278281,161.641707 415.710654,165.620589 420.575473,165.620589 C425.470322,165.620589 427.917709,161.641707 427.917709,153.683824 L427.917709,153.683824 Z M451.881328,151.296471 L451.881328,122.738324 C451.881328,103.579346 459.854106,94 475.799902,94 C479.163234,94 482.158656,94.4429321 484.786259,95.3288097 C487.413862,96.2146872 489.613508,97.4383811 491.385263,98.9999279 C493.157018,100.561475 494.613439,102.48335 495.754569,104.765611 C496.8957,107.047871 497.721505,109.525288 498.232011,112.197936 C498.742517,114.870583 498.997766,117.813454 498.997766,121.026637 L498.997766,125.801343 L483.322316,125.801343 L483.322316,120.12575 C483.322316,118.714351 483.284779,117.475643 483.209705,116.409587 C483.134631,115.343531 482.946948,114.157374 482.64665,112.85108 C482.346353,111.544786 481.940957,110.471238 481.430451,109.630405 C480.919946,108.789572 480.184228,108.083884 479.223276,107.513319 C478.262324,106.942754 477.121211,106.657475 475.799902,106.657475 C470.784934,106.657475 468.277488,110.651372 468.277488,118.639284 L468.277488,153.63878 C468.277488,161.596663 470.784934,165.575545 475.799902,165.575545 C480.78484,165.575545 483.277272,161.446517 483.277272,153.188336 L483.277272,146.701943 L473.998126,146.701943 L473.998126,134.945356 L499.673432,134.945356 L499.673432,176.656466 L488.412333,176.656466 L486.340291,170.980872 C484.958922,173.143014 482.992003,174.892221 480.439475,176.228544 C477.886946,177.564868 475.259383,178.23302 472.556705,178.23302 C469.64382,178.23302 466.993735,177.7 464.60637,176.633944 C462.219005,175.567888 460.252086,174.156511 458.705554,172.399771 C457.159022,170.643031 455.860255,168.578516 454.809214,166.206166 C453.758172,163.833816 453.00744,161.408951 452.556994,158.931496 C452.106548,156.454042 451.881328,153.909059 451.881328,151.296471 L451.881328,151.296471 Z" id="COG-Copy-3" fill="#2994C9"></path>
            <polygon id="+-copy-2" fill="#D0011B" points="18 150.783513 18 140.738613 26.7836572 140.738613 26.7836572 132 36.783513 132 36.783513 140.738613 45.5671702 140.738613 45.5671702 150.783513 36.783513 150.783513 36.783513 159.522126 26.7836572 159.522126 26.7836572 150.783513"></polygon>
            <polygon id="Line-Copy-2" fill="#4A4A4A" points="12.5501044 191 8 191 8 200.225092 12.5501044 200.225092 495.329901 200.225092 499.880005 200.225092 499.880005 191 495.329901 191"></polygon>
        </g>
    </g>
</svg>