<?xml version="1.0" encoding="UTF-8" standalone="no"?>
<svg width="500px" height="400px" viewBox="0 0 500 400" version="1.1" xmlns="http://www.w3.org/2000/svg" xmlns:xlink="http://www.w3.org/1999/xlink">
    <!-- Generator: Sketch 39.1 (31720) - http://www.bohemiancoding.com/sketch -->
    <title>chatopsdevops2</title>
    <desc>Created with Sketch.</desc>
    <defs></defs>
    <g id="Corp-Site-Index" stroke="none" stroke-width="1" fill="none" fill-rule="evenodd">
        <g id="chatopsdevops2">
            <path d="M151.091516,55.9541484 L151.091516,29.1076885 C151.091516,9.94870975 158.929162,0.369364045 174.60469,0.369364045 C177.907963,0.369364045 180.843326,0.812296174 183.41087,1.69817372 C185.978413,2.58405127 188.133015,3.80774511 189.874741,5.36929197 C191.616466,6.93083883 193.050365,8.85271383 194.17648,11.1349746 C195.302596,13.4172354 196.113387,15.8946524 196.608878,18.5672999 C197.104369,21.2399474 197.35211,24.1828185 197.35211,27.3960015 L197.35211,34.3778828 L181.226217,34.3778828 L181.226217,26.9005131 C181.226217,25.4290555 181.196187,24.1603177 181.136128,23.0942617 C181.076068,22.0282057 180.918414,20.8120192 180.663162,19.4456656 C180.407909,18.0793121 180.062572,16.9682282 179.627141,16.1123804 C179.191709,15.2565326 178.546079,14.5283221 177.690231,13.9277272 C176.834384,13.3271322 175.80588,13.0268393 174.60469,13.0268393 C169.85999,13.0268393 167.487676,17.0207357 167.487676,25.0086485 L167.487676,60.008144 C167.487676,67.9660271 169.85999,71.9449089 174.60469,71.9449089 C176.016089,71.9449089 177.202246,71.5395134 178.163198,70.7287102 C179.12415,69.917907 179.814823,68.7692864 180.23524,67.2828139 C180.655656,65.7963414 180.940935,64.3399206 181.091083,62.9135076 C181.241232,61.4870946 181.316305,59.8580052 181.316305,58.0261906 L181.316305,49.6929774 L197.35211,49.6929774 L197.35211,56.5397256 C197.292051,59.6327895 197.036802,62.4855727 196.586356,65.0981607 C196.135909,67.7107488 195.370162,70.2482243 194.289091,72.7106636 C193.20802,75.1731029 191.83418,77.2526317 190.167529,78.9493124 C188.500878,80.6459932 186.346276,82.0123262 183.703658,83.0483525 C181.061041,84.0843787 178.028082,84.6023841 174.60469,84.6023841 C171.09121,84.6023841 167.97567,84.0993934 165.257978,83.0933969 C162.540286,82.0874003 160.303104,80.736082 158.546363,79.0394012 C156.789623,77.3427205 155.34071,75.2556844 154.199579,72.7782302 C153.058449,70.3007761 152.255165,67.6957346 151.789704,64.9630276 C151.324243,62.2303206 151.091516,59.2273909 151.091516,55.9541484 L151.091516,55.9541484 Z M205.009658,83.0258303 L205.009658,1.9459179 L221.405818,1.9459179 L221.405818,35.188682 L233.162405,35.188682 L233.162405,1.9459179 L249.648654,1.9459179 L249.648654,83.0258303 L233.162405,83.0258303 L233.162405,46.8551805 L221.405818,46.8551805 L221.405818,83.0258303 L205.009658,83.0258303 Z M275.414048,55.5937932 L283.792306,55.5937932 L279.693266,25.5041369 L275.414048,55.5937932 Z M254.873804,83.0258303 L272.396074,1.9459179 L286.900369,1.9459179 L304.377595,83.0258303 L288.206656,83.0258303 L284.873371,65.6837379 L274.287938,65.6837379 L271.13483,83.0258303 L254.873804,83.0258303 Z M317.305336,83.0258303 L317.305336,14.1979935 L305.413616,14.1979935 L305.413616,1.9459179 L345.367995,1.9459179 L345.367995,14.1979935 L333.701496,14.1979935 L333.701496,83.0258303 L317.305336,83.0258303 Z M349.782345,56.359548 L349.782345,29.1076885 C349.782345,9.94870975 357.680051,0.369364045 373.475698,0.369364045 C389.301374,0.369364045 397.214094,9.94870975 397.214094,29.1076885 L397.214094,55.9541484 C397.214094,59.1973611 396.97386,62.1927835 396.493384,64.9405054 C396.012908,67.6882272 395.19461,70.2932687 394.038464,72.755708 C392.882319,75.2181473 391.410883,77.3126908 389.624114,79.0394012 C387.837344,80.7661117 385.577639,82.1249374 382.844932,83.115919 C380.112225,84.1069007 376.989178,84.6023841 373.475698,84.6023841 C369.992247,84.6023841 366.884215,84.114408 364.151508,83.1384412 C361.418801,82.1624745 359.166603,80.8411854 357.394848,79.1745344 C355.623093,77.5078834 354.159165,75.4658913 353.00302,73.0484966 C351.846875,70.6311019 351.021069,68.0560897 350.525578,65.3233827 C350.030087,62.5906757 349.782345,59.6027607 349.782345,56.359548 L349.782345,56.359548 Z M380.817934,60.0531884 L380.817934,25.0086485 C380.817934,17.0207357 378.370546,13.0268393 373.475698,13.0268393 C372.00424,13.0268393 370.758024,13.3946981 369.737013,14.1304269 C368.716001,14.8661558 367.965269,15.8721372 367.484793,17.1484015 C367.004317,18.4246657 366.666487,19.6858962 366.471294,20.9321307 C366.276101,22.1783652 366.178506,23.5371909 366.178506,25.0086485 L366.178506,60.0531884 C366.178506,68.0110715 368.610879,71.9899533 373.475698,71.9899533 C378.370546,71.9899533 380.817934,68.0110715 380.817934,60.0531884 L380.817934,60.0531884 Z M422.348867,36.7652358 C423.21973,36.7652358 423.992984,36.7126845 424.668653,36.6075804 C425.344323,36.5024763 425.937401,36.3823591 426.447907,36.2472253 C426.958413,36.1120914 427.408852,35.8643497 427.799239,35.5039927 C428.189626,35.1436358 428.512441,34.8283282 428.767693,34.5580604 C429.022946,34.2877927 429.240659,33.8448606 429.420837,33.2292507 C429.601016,32.6136409 429.736147,32.1106502 429.826237,31.7202635 C429.916326,31.3298768 429.983892,30.6992615 430.028937,29.8283989 C430.073981,28.9575362 430.096503,28.259355 430.096503,27.7338345 L430.096503,25.2789149 L430.096503,24.603249 C430.096503,23.4320888 430.088996,22.5462246 430.073981,21.9456296 C430.058966,21.3450347 430.006415,20.5792876 429.916326,19.6483654 C429.826236,18.7174433 429.683597,18.0192621 429.488404,17.553801 C429.29321,17.0883399 429.007932,16.5553199 428.63256,15.954725 C428.257188,15.35413 427.799242,14.9187052 427.258706,14.6484375 C426.718171,14.3781698 426.035004,14.1379354 425.209186,13.9277272 C424.383368,13.7175189 423.429938,13.6124164 422.348867,13.6124164 L422.348867,36.7652358 Z M405.817574,83.0258303 L405.817574,1.9459179 L425.411886,1.9459179 C432.468877,1.9459179 437.603886,3.91283684 440.817069,7.84673374 C444.030252,11.7806306 445.63682,17.4711824 445.63682,24.9185597 C445.63682,28.5821889 445.283975,31.7652944 444.578276,34.4679716 C443.872577,37.1706489 442.889118,39.4003242 441.627868,41.1570644 C440.366619,42.9138046 438.745037,44.3251816 436.763074,45.3912376 C434.78111,46.4572936 432.634016,47.2080261 430.321725,47.6434574 C428.009435,48.0788887 425.336827,48.3116158 422.303823,48.3416455 L422.303823,83.0258303 L405.817574,83.0258303 Z M449.060194,59.8279664 L465.681576,56.6298143 C465.681576,58.2814504 465.711605,59.7378713 465.771665,60.9991207 C465.831724,62.2603701 465.989378,63.6342105 466.244631,65.1206829 C466.499884,66.6071554 466.84522,67.823342 467.280652,68.769279 C467.716083,69.715216 468.331684,70.5109924 469.127472,71.156632 C469.92326,71.8022715 470.861676,72.1250865 471.942747,72.1250865 C475.185959,72.1250865 476.807542,70.053065 476.807542,65.9089599 C476.807542,60.2333376 473.609421,54.5878298 467.213085,48.9722671 L462.123068,44.6480051 C460.501462,43.2966664 459.210202,42.1705678 458.24925,41.2696754 C457.288299,40.368783 456.154693,39.1525964 454.848399,37.6210793 C453.542105,36.0895622 452.521108,34.6106194 451.78538,33.1842064 C451.049651,31.7577934 450.419036,30.0386161 449.893515,28.026623 C449.367994,26.01463 449.105238,23.8825499 449.105238,21.6303188 C449.105238,15.0538042 451.192274,9.8512285 455.366409,6.02243571 C459.540544,2.19364293 465.080949,0.279275254 471.987791,0.279275254 C477.723473,0.279275254 482.603234,2.32126744 486.62722,6.40531308 C490.651206,10.4893587 492.663169,15.4141634 492.663169,21.1798749 L492.618124,21.765452 L492.618124,23.1167839 L475.681432,25.4590925 C475.681432,25.1287653 475.703954,24.6107599 475.748998,23.9050608 C475.794043,23.1993618 475.816565,22.6212978 475.816565,22.1708516 C475.816565,21.0897807 475.741492,20.0537699 475.591343,19.0627883 C475.441194,18.0718066 475.193452,17.0808398 474.84811,16.0898582 C474.502768,15.0988765 473.969748,14.3106075 473.249034,13.7250274 C472.52832,13.1394473 471.657471,12.8466617 470.636459,12.8466617 C468.834674,12.8466617 467.483356,13.5523501 466.582464,14.9637483 C465.681571,16.3751464 465.231132,18.0417724 465.231132,19.9636762 C465.231132,21.645342 465.493888,23.2218801 466.019409,24.6933378 C466.544929,26.1647954 467.340706,27.5386357 468.406762,28.8149 C469.472818,30.0911642 470.456277,31.1496969 471.35717,31.9905299 C472.258062,32.8313628 473.459234,33.8598662 474.960721,35.076071 C476.462209,36.2922757 477.528249,37.1856473 478.158873,37.7562125 C480.471164,39.7982353 482.423068,41.712603 484.014645,43.499373 C485.606221,45.2861429 487.107686,47.3056132 488.519084,49.5578442 C489.930483,51.8100753 490.989015,54.2424483 491.694714,56.8550363 C492.400413,59.4676243 492.753258,62.2903782 492.753258,65.3233827 C492.753258,70.999005 490.72628,75.6460387 486.672264,79.2646232 C482.618248,82.8832078 477.693444,84.6924729 471.897702,84.6924729 C468.143984,84.6924729 464.810732,84.0017991 461.897847,82.6204307 C458.984961,81.2390623 456.635169,79.3622313 454.848399,76.9898812 C453.061629,74.6175312 451.687788,71.9899677 450.726836,69.107112 C449.765884,66.2242562 449.210342,63.1312386 449.060194,59.8279664 L449.060194,59.8279664 Z" id="CHATOPS-Copy-2" fill="#9B9B9B"></path>
            <path d="M2.58014299,271.821307 L2.58014299,244.974847 C2.58014299,225.815868 10.4177895,216.236523 26.0933176,216.236523 C29.3965898,216.236523 32.3319535,216.679455 34.8994969,217.565332 C37.4670403,218.45121 39.6216424,219.674904 41.3633677,221.236451 C43.1050931,222.797998 44.538992,224.719873 45.6651075,227.002133 C46.7912231,229.284394 47.6020141,231.761811 48.0975049,234.434459 C48.5929957,237.107106 48.8407374,240.049977 48.8407374,243.26316 L48.8407374,250.245042 L32.7148437,250.245042 L32.7148437,242.767672 C32.7148437,241.296214 32.6848145,240.027476 32.624755,238.96142 C32.5646955,237.895364 32.4070417,236.679178 32.1517888,235.312824 C31.896536,233.946471 31.551199,232.835387 31.1157677,231.979539 C30.6803364,231.123691 30.0347065,230.395481 29.1788587,229.794886 C28.3230109,229.194291 27.2945075,228.893998 26.0933176,228.893998 C21.3486175,228.893998 18.976303,232.887894 18.976303,240.875807 L18.976303,275.875303 C18.976303,283.833186 21.3486175,287.812068 26.0933176,287.812068 C27.5047157,287.812068 28.6908729,287.406672 29.6518248,286.595869 C30.6127768,285.785066 31.3034506,284.636445 31.723867,283.149973 C32.1442835,281.6635 32.4295618,280.207079 32.5797106,278.780666 C32.7298593,277.354253 32.8049325,275.725164 32.8049325,273.893349 L32.8049325,265.560136 L48.8407374,265.560136 L48.8407374,272.406884 C48.7806779,275.499948 48.5254289,278.352731 48.0749827,280.965319 C47.6245365,283.577907 46.8587894,286.115383 45.7777185,288.577822 C44.6966476,291.040262 43.3228073,293.11979 41.6561563,294.816471 C39.9895053,296.513152 37.8349033,297.879485 35.1922855,298.915511 C32.5496678,299.951537 29.5167088,300.469543 26.0933176,300.469543 C22.5798371,300.469543 19.4642976,299.966552 16.7466055,298.960556 C14.0289133,297.954559 11.7917307,296.603241 10.0349905,294.90656 C8.27825027,293.209879 6.82933669,291.122843 5.6882063,288.645389 C4.5470759,286.167935 3.74379221,283.562893 3.27833112,280.830186 C2.81287004,278.097479 2.58014299,275.09455 2.58014299,271.821307 L2.58014299,271.821307 Z M55.4622636,272.226707 L55.4622636,244.974847 C55.4622636,225.815868 63.3599687,216.236523 79.1556158,216.236523 C94.9812926,216.236523 102.894012,225.815868 102.894012,244.974847 L102.894012,271.821307 C102.894012,275.06452 102.653778,278.059942 102.173302,280.807664 C101.692826,283.555386 100.874528,286.160427 99.7183824,288.622867 C98.5622372,291.085306 97.0908016,293.179849 95.3040317,294.90656 C93.5172617,296.63327 91.2575571,297.992096 88.5248501,298.983078 C85.7921431,299.974059 82.6690962,300.469543 79.1556158,300.469543 C75.6721651,300.469543 72.5641329,299.981567 69.8314259,299.0056 C67.0987188,298.029633 64.8465216,296.708344 63.0747665,295.041693 C61.3030114,293.375042 59.8390832,291.33305 58.6829379,288.915655 C57.5267926,286.498261 56.700987,283.923248 56.2054961,281.190541 C55.7100053,278.457834 55.4622636,275.469919 55.4622636,272.226707 L55.4622636,272.226707 Z M86.4978523,275.920347 L86.4978523,240.875807 C86.4978523,232.887894 84.0504646,228.893998 79.1556158,228.893998 C77.6841582,228.893998 76.4379423,229.261857 75.4169309,229.997586 C74.3959195,230.733314 73.6451871,231.739296 73.1647111,233.01556 C72.6842352,234.291824 72.3464056,235.553055 72.1512122,236.799289 C71.9560189,238.045524 71.8584237,239.40435 71.8584237,240.875807 L71.8584237,275.920347 C71.8584237,283.87823 74.2907967,287.857112 79.1556158,287.857112 C84.0504646,287.857112 86.4978523,283.87823 86.4978523,275.920347 L86.4978523,275.920347 Z M111.497492,298.892989 L111.497492,217.768032 L123.299124,217.768032 L141.09166,260.199853 L141.09166,217.768032 L154.695067,217.768032 L154.695067,298.892989 L143.34388,298.892989 L125.596388,253.893638 L125.596388,298.892989 L111.497492,298.892989 Z M172.03716,298.892989 L172.03716,230.065152 L160.145439,230.065152 L160.145439,217.813077 L200.099818,217.813077 L200.099818,230.065152 L188.43332,230.065152 L188.43332,298.892989 L172.03716,298.892989 Z M205.55019,298.892989 L205.55019,217.813077 L221.94635,217.813077 L221.94635,298.892989 L205.55019,298.892989 Z M231.585851,298.892989 L231.585851,217.768032 L243.387483,217.768032 L261.180019,260.199853 L261.180019,217.768032 L274.783427,217.768032 L274.783427,298.892989 L263.432239,298.892989 L245.684747,253.893638 L245.684747,298.892989 L231.585851,298.892989 Z M284.062572,268.758288 L284.062572,217.813077 L300.458732,217.813077 L300.458732,268.2628 C300.458732,271.145656 300.473747,273.240199 300.503777,274.546493 C300.533806,275.852787 300.60888,277.44434 300.728999,279.321199 C300.849117,281.198058 301.059323,282.51184 301.35962,283.262584 C301.659918,284.013327 302.07282,284.824118 302.598341,285.694981 C303.123862,286.565844 303.807028,287.1364 304.647861,287.406668 C305.488694,287.676936 306.50969,287.812068 307.71088,287.812068 C308.91207,287.812068 309.933066,287.676936 310.773899,287.406668 C311.614732,287.1364 312.297898,286.573351 312.823419,285.717503 C313.348939,284.861655 313.761842,284.058372 314.06214,283.307628 C314.362437,282.556884 314.572642,281.258117 314.692761,279.411288 C314.81288,277.564458 314.887953,276.002935 314.917983,274.726671 C314.948013,273.450406 314.963028,271.385892 314.963028,268.533066 L314.963028,268.2628 L314.963028,217.813077 L331.359188,217.813077 L331.359188,268.758288 C331.359188,271.340846 331.284114,273.683132 331.133966,275.785214 C330.983817,277.887296 330.698539,280.06442 330.278122,282.316651 C329.857706,284.568882 329.287149,286.558323 328.566435,288.285034 C327.845721,290.011744 326.884784,291.663356 325.683594,293.239917 C324.482404,294.816479 323.06352,296.115246 321.426898,297.136257 C319.790277,298.157269 317.815851,298.96806 315.50356,299.568655 C313.19127,300.16925 310.593736,300.469543 307.71088,300.469543 C304.828024,300.469543 302.23049,300.16925 299.918199,299.568655 C297.605909,298.96806 295.63899,298.157269 294.017384,297.136257 C292.395777,296.115246 290.9844,294.816479 289.78321,293.239917 C288.58202,291.663356 287.621083,290.011744 286.900369,288.285034 C286.179655,286.558323 285.601591,284.568882 285.16616,282.316651 C284.730728,280.06442 284.437943,277.887296 284.287794,275.785214 C284.137645,273.683132 284.062572,271.340846 284.062572,268.758288 L284.062572,268.758288 Z M339.602312,272.226707 L339.602312,244.974847 C339.602312,225.815868 347.500017,216.236523 363.295664,216.236523 C379.121341,216.236523 387.034061,225.815868 387.034061,244.974847 L387.034061,271.821307 C387.034061,275.06452 386.793826,278.059942 386.31335,280.807664 C385.832874,283.555386 385.014576,286.160427 383.858431,288.622867 C382.702286,291.085306 381.23085,293.179849 379.44408,294.90656 C377.65731,296.63327 375.397606,297.992096 372.664899,298.983078 C369.932192,299.974059 366.809145,300.469543 363.295664,300.469543 C359.812214,300.469543 356.704181,299.981567 353.971474,299.0056 C351.238767,298.029633 348.98657,296.708344 347.214815,295.041693 C345.44306,293.375042 343.979132,291.33305 342.822986,288.915655 C341.666841,286.498261 340.841035,283.923248 340.345545,281.190541 C339.850054,278.457834 339.602312,275.469919 339.602312,272.226707 L339.602312,272.226707 Z M370.637901,275.920347 L370.637901,240.875807 C370.637901,232.887894 368.190513,228.893998 363.295664,228.893998 C361.824207,228.893998 360.577991,229.261857 359.556979,229.997586 C358.535968,230.733314 357.785236,231.739296 357.30476,233.01556 C356.824284,234.291824 356.486454,235.553055 356.291261,236.799289 C356.096067,238.045524 355.998472,239.40435 355.998472,240.875807 L355.998472,275.920347 C355.998472,283.87823 358.430845,287.857112 363.295664,287.857112 C368.190513,287.857112 370.637901,283.87823 370.637901,275.920347 L370.637901,275.920347 Z M395.277185,268.758288 L395.277185,217.813077 L411.673345,217.813077 L411.673345,268.2628 C411.673345,271.145656 411.68836,273.240199 411.71839,274.546493 C411.748419,275.852787 411.823493,277.44434 411.943612,279.321199 C412.063731,281.198058 412.273936,282.51184 412.574233,283.262584 C412.874531,284.013327 413.287433,284.824118 413.812954,285.694981 C414.338475,286.565844 415.021641,287.1364 415.862474,287.406668 C416.703307,287.676936 417.724303,287.812068 418.925493,287.812068 C420.126683,287.812068 421.147679,287.676936 421.988512,287.406668 C422.829345,287.1364 423.512511,286.573351 424.038032,285.717503 C424.563552,284.861655 424.976455,284.058372 425.276753,283.307628 C425.57705,282.556884 425.787255,281.258117 425.907374,279.411288 C426.027493,277.564458 426.102567,276.002935 426.132596,274.726671 C426.162626,273.450406 426.177641,271.385892 426.177641,268.533066 L426.177641,268.2628 L426.177641,217.813077 L442.573801,217.813077 L442.573801,268.758288 C442.573801,271.340846 442.498727,273.683132 442.348579,275.785214 C442.19843,277.887296 441.913152,280.06442 441.492735,282.316651 C441.072319,284.568882 440.501762,286.558323 439.781048,288.285034 C439.060334,290.011744 438.099397,291.663356 436.898207,293.239917 C435.697017,294.816479 434.278133,296.115246 432.641511,297.136257 C431.00489,298.157269 429.030464,298.96806 426.718173,299.568655 C424.405883,300.16925 421.808349,300.469543 418.925493,300.469543 C416.042637,300.469543 413.445103,300.16925 411.132812,299.568655 C408.820522,298.96806 406.853603,298.157269 405.231997,297.136257 C403.61039,296.115246 402.199013,294.816479 400.997823,293.239917 C399.796634,291.663356 398.835696,290.011744 398.114982,288.285034 C397.394268,286.558323 396.816204,284.568882 396.380773,282.316651 C395.945342,280.06442 395.652556,277.887296 395.502407,275.785214 C395.352258,273.683132 395.277185,271.340846 395.277185,268.758288 L395.277185,268.758288 Z M449.060194,275.695125 L465.681576,272.496973 C465.681576,274.148609 465.711605,275.60503 465.771665,276.866279 C465.831724,278.127529 465.989378,279.501369 466.244631,280.987842 C466.499884,282.474314 466.84522,283.690501 467.280652,284.636438 C467.716083,285.582375 468.331684,286.378151 469.127472,287.023791 C469.92326,287.66943 470.861676,287.992245 471.942747,287.992245 C475.185959,287.992245 476.807542,285.920224 476.807542,281.776119 C476.807542,276.100496 473.609421,270.454988 467.213085,264.839426 L462.123068,260.515164 C460.501462,259.163825 459.210202,258.037726 458.24925,257.136834 C457.288299,256.235942 456.154693,255.019755 454.848399,253.488238 C453.542105,251.956721 452.521108,250.477778 451.78538,249.051365 C451.049651,247.624952 450.419036,245.905775 449.893515,243.893782 C449.367994,241.881789 449.105238,239.749709 449.105238,237.497478 C449.105238,230.920963 451.192274,225.718387 455.366409,221.889594 C459.540544,218.060802 465.080949,216.146434 471.987791,216.146434 C477.723473,216.146434 482.603234,218.188426 486.62722,222.272472 C490.651206,226.356517 492.663169,231.281322 492.663169,237.047034 L492.618124,237.632611 L492.618124,238.983943 L475.681432,241.326251 C475.681432,240.995924 475.703954,240.477919 475.748998,239.772219 C475.794043,239.06652 475.816565,238.488456 475.816565,238.03801 C475.816565,236.956939 475.741492,235.920929 475.591343,234.929947 C475.441194,233.938965 475.193452,232.947998 474.84811,231.957017 C474.502768,230.966035 473.969748,230.177766 473.249034,229.592186 C472.52832,229.006606 471.657471,228.71382 470.636459,228.71382 C468.834674,228.71382 467.483356,229.419509 466.582464,230.830907 C465.681571,232.242305 465.231132,233.908931 465.231132,235.830835 C465.231132,237.512501 465.493888,239.089039 466.019409,240.560496 C466.544929,242.031954 467.340706,243.405794 468.406762,244.682059 C469.472818,245.958323 470.456277,247.016856 471.35717,247.857689 C472.258062,248.698521 473.459234,249.727025 474.960721,250.94323 C476.462209,252.159434 477.528249,253.052806 478.158873,253.623371 C480.471164,255.665394 482.423068,257.579762 484.014645,259.366532 C485.606221,261.153302 487.107686,263.172772 488.519084,265.425003 C489.930483,267.677234 490.989015,270.109607 491.694714,272.722195 C492.400413,275.334783 492.753258,278.157537 492.753258,281.190541 C492.753258,286.866164 490.72628,291.513197 486.672264,295.131782 C482.618248,298.750366 477.693444,300.559632 471.897702,300.559632 C468.143984,300.559632 464.810732,299.868958 461.897847,298.487589 C458.984961,297.106221 456.635169,295.22939 454.848399,292.85704 C453.061629,290.48469 451.687788,287.857126 450.726836,284.974271 C449.765884,282.091415 449.210342,278.998397 449.060194,275.695125 L449.060194,275.695125 Z" id="CONTINUOUS-Copy-2" fill="#1E5775"></path>
            <path d="M211.676228,395.756458 L211.676228,314.676545 L228.612921,314.676545 C234.018275,314.676545 238.470119,315.164521 241.968584,316.140488 C245.46705,317.116455 248.21473,318.723022 250.211709,320.960238 C252.208687,323.197455 253.590035,325.877569 254.355793,329.000663 C255.121552,332.123757 255.504425,336.102639 255.504425,340.937428 L255.504425,367.513621 C255.504425,370.396477 255.414337,372.911431 255.234159,375.058558 C255.05398,377.205685 254.716151,379.307735 254.22066,381.364773 C253.725169,383.421811 253.04951,385.16351 252.193662,386.589923 C251.337814,388.016336 250.234238,389.345132 248.882899,390.576352 C247.53156,391.807572 245.902471,392.783524 243.995582,393.504238 C242.088693,394.224952 239.85151,394.780494 237.283967,395.17088 C234.716424,395.561267 231.766045,395.756458 228.432743,395.756458 L211.676228,395.756458 Z M228.70301,384.270137 C230.264557,384.270137 231.495758,384.247615 232.39665,384.20257 C233.297543,384.157525 234.198421,384.044916 235.099314,383.864737 C236.000206,383.684559 236.660851,383.436817 237.081267,383.121505 C237.501684,382.806192 237.892065,382.348245 238.252422,381.74765 C238.612779,381.147056 238.845506,380.43386 238.95061,379.608042 C239.055714,378.782224 239.108265,377.75372 239.108265,376.522501 L239.108265,332.874481 C239.108265,330.201834 238.312489,328.430105 236.720912,327.559242 C235.129336,326.68838 232.456728,326.23794 228.70301,326.207911 L228.70301,384.270137 Z M264.107905,395.756458 L264.107905,314.676545 L297.936246,314.676545 L297.936246,325.937644 L280.504065,325.937644 L280.504065,348.009398 L292.846229,348.009398 L292.846229,359.540763 L280.504065,359.540763 L280.504065,384.495359 L297.936246,384.495359 L297.936246,395.756458 L264.107905,395.756458 Z M314.422495,395.756458 L299.5128,314.676545 L315.053116,314.676545 L322.215175,363.819981 L330.142989,314.676545 L345.458083,314.676545 L329.422279,395.756458 L314.422495,395.756458 Z M349.782345,369.090175 L349.782345,341.838316 C349.782345,322.679337 357.680051,313.099991 373.475698,313.099991 C389.301374,313.099991 397.214094,322.679337 397.214094,341.838316 L397.214094,368.684776 C397.214094,371.927988 396.97386,374.923411 396.493384,377.671133 C396.012908,380.418855 395.19461,383.023896 394.038464,385.486335 C392.882319,387.948775 391.410883,390.043318 389.624114,391.770029 C387.837344,393.496739 385.577639,394.855565 382.844932,395.846546 C380.112225,396.837528 376.989178,397.333011 373.475698,397.333011 C369.992247,397.333011 366.884215,396.845035 364.151508,395.869069 C361.418801,394.893102 359.166603,393.571813 357.394848,391.905162 C355.623093,390.238511 354.159165,388.196519 353.00302,385.779124 C351.846875,383.361729 351.021069,380.786717 350.525578,378.05401 C350.030087,375.321303 349.782345,372.333388 349.782345,369.090175 L349.782345,369.090175 Z M380.817934,372.783816 L380.817934,337.739276 C380.817934,329.751363 378.370546,325.757467 373.475698,325.757467 C372.00424,325.757467 370.758024,326.125325 369.737013,326.861054 C368.716001,327.596783 367.965269,328.602765 367.484793,329.879029 C367.004317,331.155293 366.666487,332.416524 366.471294,333.662758 C366.276101,334.908993 366.178506,336.267818 366.178506,337.739276 L366.178506,372.783816 C366.178506,380.741699 368.610879,384.720581 373.475698,384.720581 C378.370546,384.720581 380.817934,380.741699 380.817934,372.783816 L380.817934,372.783816 Z M422.348867,349.495863 C423.21973,349.495863 423.992984,349.443312 424.668653,349.338208 C425.344323,349.233104 425.937401,349.112986 426.447907,348.977853 C426.958413,348.842719 427.408852,348.594977 427.799239,348.23462 C428.189626,347.874263 428.512441,347.558955 428.767693,347.288688 C429.022946,347.01842 429.240659,346.575488 429.420837,345.959878 C429.601016,345.344268 429.736147,344.841278 429.826237,344.450891 C429.916326,344.060504 429.983892,343.429889 430.028937,342.559026 C430.073981,341.688164 430.096503,340.989982 430.096503,340.464462 L430.096503,338.009542 L430.096503,337.333876 C430.096503,336.162716 430.088996,335.276852 430.073981,334.676257 C430.058966,334.075662 430.006415,333.309915 429.916326,332.378993 C429.826236,331.448071 429.683597,330.749889 429.488404,330.284428 C429.29321,329.818967 429.007932,329.285947 428.63256,328.685352 C428.257188,328.084757 427.799242,327.649333 427.258706,327.379065 C426.718171,327.108797 426.035004,326.868563 425.209186,326.658354 C424.383368,326.448146 423.429938,326.343044 422.348867,326.343044 L422.348867,349.495863 Z M405.817574,395.756458 L405.817574,314.676545 L425.411886,314.676545 C432.468877,314.676545 437.603886,316.643464 440.817069,320.577361 C444.030252,324.511258 445.63682,330.20181 445.63682,337.649187 C445.63682,341.312816 445.283975,344.495922 444.578276,347.198599 C443.872577,349.901276 442.889118,352.130951 441.627868,353.887692 C440.366619,355.644432 438.745037,357.055809 436.763074,358.121865 C434.78111,359.187921 432.634016,359.938653 430.321725,360.374085 C428.009435,360.809516 425.336827,361.042243 422.303823,361.072273 L422.303823,395.756458 L405.817574,395.756458 Z M449.060194,372.558594 L465.681576,369.360442 C465.681576,371.012078 465.711605,372.468499 465.771665,373.729748 C465.831724,374.990997 465.989378,376.364838 466.244631,377.85131 C466.499884,379.337783 466.84522,380.553969 467.280652,381.499906 C467.716083,382.445843 468.331684,383.24162 469.127472,383.887259 C469.92326,384.532899 470.861676,384.855714 471.942747,384.855714 C475.185959,384.855714 476.807542,382.783692 476.807542,378.639587 C476.807542,372.963965 473.609421,367.318457 467.213085,361.702894 L462.123068,357.378632 C460.501462,356.027294 459.210202,354.901195 458.24925,354.000303 C457.288299,353.09941 456.154693,351.883224 454.848399,350.351707 C453.542105,348.82019 452.521108,347.341247 451.78538,345.914834 C451.049651,344.488421 450.419036,342.769243 449.893515,340.75725 C449.367994,338.745257 449.105238,336.613177 449.105238,334.360946 C449.105238,327.784431 451.192274,322.581856 455.366409,318.753063 C459.540544,314.92427 465.080949,313.009903 471.987791,313.009903 C477.723473,313.009903 482.603234,315.051895 486.62722,319.13594 C490.651206,323.219986 492.663169,328.144791 492.663169,333.910502 L492.618124,334.496079 L492.618124,335.847411 L475.681432,338.18972 C475.681432,337.859393 475.703954,337.341387 475.748998,336.635688 C475.794043,335.929989 475.816565,335.351925 475.816565,334.901479 C475.816565,333.820408 475.741492,332.784397 475.591343,331.793416 C475.441194,330.802434 475.193452,329.811467 474.84811,328.820485 C474.502768,327.829504 473.969748,327.041235 473.249034,326.455655 C472.52832,325.870075 471.657471,325.577289 470.636459,325.577289 C468.834674,325.577289 467.483356,326.282977 466.582464,327.694376 C465.681571,329.105774 465.231132,330.7724 465.231132,332.694304 C465.231132,334.375969 465.493888,335.952507 466.019409,337.423965 C466.544929,338.895423 467.340706,340.269263 468.406762,341.545527 C469.472818,342.821792 470.456277,343.880324 471.35717,344.721157 C472.258062,345.56199 473.459234,346.590494 474.960721,347.806698 C476.462209,349.022903 477.528249,349.916275 478.158873,350.48684 C480.471164,352.528863 482.423068,354.44323 484.014645,356.23 C485.606221,358.01677 487.107686,360.03624 488.519084,362.288472 C489.930483,364.540703 490.989015,366.973076 491.694714,369.585664 C492.400413,372.198252 492.753258,375.021006 492.753258,378.05401 C492.753258,383.729632 490.72628,388.376666 486.672264,391.995251 C482.618248,395.613835 477.693444,397.4231 471.897702,397.4231 C468.143984,397.4231 464.810732,396.732426 461.897847,395.351058 C458.984961,393.96969 456.635169,392.092859 454.848399,389.720509 C453.061629,387.348158 451.687788,384.720595 450.726836,381.837739 C449.765884,378.954884 449.210342,375.861866 449.060194,372.558594 L449.060194,372.558594 Z" id="DEVOPS" fill="#1E5775"></path>
            <path d="M334.602384,150.050089 L334.602384,123.203629 C334.602384,104.044651 342.440031,94.465305 358.115559,94.465305 C361.418831,94.465305 364.354195,94.9082371 366.921738,95.7941147 C369.489281,96.6799922 371.643884,97.9036861 373.385609,99.4652329 C375.127334,101.02678 376.561233,102.948655 377.687349,105.230916 C378.813464,107.513176 379.624255,109.990593 380.119746,112.663241 C380.615237,115.335888 380.862979,118.278759 380.862979,121.491942 L380.862979,128.473824 L364.737085,128.473824 L364.737085,120.996454 C364.737085,119.524996 364.707056,118.256259 364.646996,117.190203 C364.586937,116.124147 364.429283,114.90796 364.17403,113.541607 C363.918777,112.175253 363.57344,111.064169 363.138009,110.208321 C362.702577,109.352474 362.056948,108.624263 361.2011,108.023668 C360.345252,107.423073 359.316749,107.12278 358.115559,107.12278 C353.370859,107.12278 350.998544,111.116677 350.998544,119.104589 L350.998544,154.104085 C350.998544,162.061968 353.370859,166.04085 358.115559,166.04085 C359.526957,166.04085 360.713114,165.635454 361.674066,164.824651 C362.635018,164.013848 363.325692,162.865227 363.746108,161.378755 C364.166525,159.892282 364.451803,158.435862 364.601952,157.009449 C364.7521,155.583036 364.827174,153.953946 364.827174,152.122132 L364.827174,143.788918 L380.862979,143.788918 L380.862979,150.635667 C380.802919,153.72873 380.54767,156.581514 380.097224,159.194102 C379.646778,161.80669 378.881031,164.344165 377.79996,166.806605 C376.718889,169.269044 375.345048,171.348573 373.678397,173.045253 C372.011746,174.741934 369.857144,176.108267 367.214527,177.144293 C364.571909,178.18032 361.53895,178.698325 358.115559,178.698325 C354.602078,178.698325 351.486539,178.195334 348.768847,177.189338 C346.051154,176.183341 343.813972,174.832023 342.057232,173.135342 C340.300491,171.438661 338.851578,169.351625 337.710447,166.874171 C336.569317,164.396717 335.766033,161.791676 335.300572,159.058969 C334.835111,156.326262 334.602384,153.323332 334.602384,150.050089 L334.602384,150.050089 Z M387.484505,150.455489 L387.484505,123.203629 C387.484505,104.044651 395.38221,94.465305 411.177857,94.465305 C427.003534,94.465305 434.916253,104.044651 434.916253,123.203629 L434.916253,150.050089 C434.916253,153.293302 434.676019,156.288724 434.195543,159.036446 C433.715067,161.784168 432.896769,164.38921 431.740624,166.851649 C430.584478,169.314088 429.113043,171.408632 427.326273,173.135342 C425.539503,174.862053 423.279798,176.220878 420.547091,177.21186 C417.814384,178.202842 414.691337,178.698325 411.177857,178.698325 C407.694406,178.698325 404.586374,178.210349 401.853667,177.234382 C399.12096,176.258415 396.868763,174.937126 395.097008,173.270475 C393.325253,171.603824 391.861324,169.561832 390.705179,167.144438 C389.549034,164.727043 388.723228,162.152031 388.227737,159.419324 C387.732246,156.686617 387.484505,153.698702 387.484505,150.455489 L387.484505,150.455489 Z M418.520093,154.149129 L418.520093,119.104589 C418.520093,111.116677 416.072706,107.12278 411.177857,107.12278 C409.706399,107.12278 408.460183,107.490639 407.439172,108.226368 C406.418161,108.962097 405.667428,109.968078 405.186952,111.244342 C404.706476,112.520607 404.368647,113.781837 404.173453,115.028072 C403.97826,116.274306 403.880665,117.633132 403.880665,119.104589 L403.880665,154.149129 C403.880665,162.107012 406.313038,166.085894 411.177857,166.085894 C416.072706,166.085894 418.520093,162.107012 418.520093,154.149129 L418.520093,154.149129 Z M442.483712,151.761776 L442.483712,123.203629 C442.483712,104.044651 450.45649,94.465305 466.402286,94.465305 C469.765618,94.465305 472.76104,94.9082371 475.388643,95.7941147 C478.016246,96.6799922 480.215892,97.9036861 481.987647,99.4652329 C483.759402,101.02678 485.215823,102.948655 486.356953,105.230916 C487.498084,107.513176 488.323889,109.990593 488.834395,112.663241 C489.344901,115.335888 489.60015,118.278759 489.60015,121.491942 L489.60015,126.266648 L473.9247,126.266648 L473.9247,120.591055 C473.9247,119.179656 473.887164,117.940948 473.812089,116.874892 C473.737015,115.808836 473.549332,114.622679 473.249034,113.316385 C472.948737,112.010091 472.543341,110.936543 472.032836,110.09571 C471.52233,109.254877 470.786612,108.549189 469.82566,107.978624 C468.864708,107.408059 467.723595,107.12278 466.402286,107.12278 C461.387318,107.12278 458.879872,111.116677 458.879872,119.104589 L458.879872,154.104085 C458.879872,162.061968 461.387318,166.04085 466.402286,166.04085 C471.387224,166.04085 473.879656,161.911822 473.879656,153.653641 L473.879656,147.167248 L464.60051,147.167248 L464.60051,135.410661 L490.275816,135.410661 L490.275816,177.121771 L479.014717,177.121771 L476.942675,171.446177 C475.561306,173.608319 473.594387,175.357526 471.041859,176.693849 C468.48933,178.030173 465.861767,178.698325 463.15909,178.698325 C460.246204,178.698325 457.596119,178.165305 455.208754,177.099249 C452.821389,176.033193 450.85447,174.621816 449.307938,172.865076 C447.761406,171.108336 446.462639,169.043821 445.411598,166.671471 C444.360557,164.299121 443.609824,161.874256 443.159378,159.396801 C442.708932,156.919347 442.483712,154.374364 442.483712,151.761776 L442.483712,151.761776 Z" id="COG-Copy-3" fill="#2994C9"></path>
            <polygon id="+-copy-2" fill="#D0011B" points="47 150.783513 47 140.738613 55.7836572 140.738613 55.7836572 132 65.783513 132 65.783513 140.738613 74.5671702 140.738613 74.5671702 150.783513 65.783513 150.783513 65.783513 159.522126 55.7836572 159.522126 55.7836572 150.783513"></polygon>
            <polygon id="Line-Copy-2" fill="#4A4A4A" points="5.52114404 190.95941 0.908597919 190.95941 0.908597919 200.184502 5.52114404 200.184502 494.926199 200.184502 499.538745 200.184502 499.538745 190.95941 494.926199 190.95941"></polygon>
        </g>
    </g>
</svg>