<svg id="Dark_Logo" data-name="Dark Logo" xmlns="http://www.w3.org/2000/svg" xmlns:xlink="http://www.w3.org/1999/xlink" viewBox="0 0 450 200"><defs><style>.cls-1,.cls-2{fill:none;}.cls-1{clip-rule:evenodd;}.cls-3{fill:#1a6a8f;}.cls-4{clip-path:url(#clip-path);}.cls-5{clip-path:url(#clip-path-2);}.cls-6{fill:#c7c6c2;}.cls-7{clip-path:url(#clip-path-3);}.cls-8{fill:#acaba8;}.cls-9{clip-path:url(#clip-path-5);}.cls-10{clip-path:url(#clip-path-7);}.cls-11{fill:#8d8e8a;}.cls-12{clip-path:url(#clip-path-9);}.cls-13{clip-path:url(#clip-path-11);}.cls-14{clip-path:url(#clip-path-13);}.cls-15{clip-path:url(#clip-path-15);}.cls-16{clip-path:url(#clip-path-17);}.cls-17{fill:#9f9f9c;}.cls-18{clip-path:url(#clip-path-19);}.cls-19{clip-path:url(#clip-path-21);}.cls-20{clip-path:url(#clip-path-23);}.cls-21{clip-path:url(#clip-path-25);}.cls-22{clip-path:url(#clip-path-27);}.cls-23{clip-path:url(#clip-path-29);}.cls-24{clip-path:url(#clip-path-31);}.cls-25{clip-path:url(#clip-path-33);}.cls-26{fill:#3782aa;}.cls-27{clip-path:url(#clip-path-35);}.cls-28{fill:#2d6481;}.cls-29{clip-path:url(#clip-path-37);}.cls-30{clip-path:url(#clip-path-39);}.cls-31{clip-path:url(#clip-path-41);}.cls-32{clip-path:url(#clip-path-43);}.cls-33{clip-path:url(#clip-path-45);}.cls-34{clip-path:url(#clip-path-47);}.cls-35{clip-path:url(#clip-path-49);}.cls-36{clip-path:url(#clip-path-51);}.cls-37{clip-path:url(#clip-path-53);}.cls-38{clip-path:url(#clip-path-55);}.cls-39{clip-path:url(#clip-path-57);}.cls-40{fill:#8e8f8b;}.cls-41{clip-path:url(#clip-path-59);}.cls-42{clip-path:url(#clip-path-61);}.cls-43{clip-path:url(#clip-path-63);}.cls-44{clip-path:url(#clip-path-65);}.cls-45{clip-path:url(#clip-path-67);}.cls-46{clip-path:url(#clip-path-69);}.cls-47{clip-path:url(#clip-path-71);}.cls-48{clip-path:url(#clip-path-73);}.cls-49{fill:#4e4e4b;}.cls-50{clip-path:url(#clip-path-75);}.cls-51{fill:#3a3c39;}.cls-52{clip-path:url(#clip-path-77);}.cls-53{clip-path:url(#clip-path-79);}.cls-54{clip-path:url(#clip-path-81);}.cls-55{clip-path:url(#clip-path-83);}.cls-56{clip-path:url(#clip-path-85);}.cls-57{clip-path:url(#clip-path-87);}.cls-58{clip-path:url(#clip-path-89);}.cls-59{clip-path:url(#clip-path-91);}.cls-60{clip-path:url(#clip-path-93);}.cls-61{clip-path:url(#clip-path-95);}.cls-62{clip-path:url(#clip-path-97);}.cls-63{fill:#dddcd8;}.cls-64{clip-path:url(#clip-path-99);}.cls-65{clip-path:url(#clip-path-101);}.cls-66{clip-path:url(#clip-path-103);}.cls-67{clip-path:url(#clip-path-105);}.cls-68{clip-path:url(#clip-path-107);}.cls-69{clip-path:url(#clip-path-109);}.cls-70{clip-path:url(#clip-path-111);}.cls-71{clip-path:url(#clip-path-113);}.cls-72{clip-path:url(#clip-path-115);}.cls-73{clip-path:url(#clip-path-117);}.cls-74{clip-path:url(#clip-path-119);}.cls-75{clip-path:url(#clip-path-121);}.cls-76{clip-path:url(#clip-path-123);}.cls-77{clip-path:url(#clip-path-125);}.cls-78{clip-path:url(#clip-path-127);}.cls-79{clip-path:url(#clip-path-129);}.cls-80{clip-path:url(#clip-path-131);}.cls-81{fill:#3c94bc;}.cls-82{clip-path:url(#clip-path-133);}.cls-83{fill:#327993;}.cls-84{clip-path:url(#clip-path-135);}.cls-85{fill:#286481;}.cls-86{clip-path:url(#clip-path-137);}.cls-87{fill:#101110;}.cls-88{clip-path:url(#clip-path-139);}.cls-89{clip-path:url(#clip-path-141);}.cls-90{clip-path:url(#clip-path-143);}.cls-91{clip-path:url(#clip-path-145);}.cls-92{clip-path:url(#clip-path-147);}.cls-93{clip-path:url(#clip-path-149);}.cls-94{clip-path:url(#clip-path-151);}.cls-95{clip-path:url(#clip-path-153);}.cls-96{clip-path:url(#clip-path-155);}.cls-97{fill:#fff;}.cls-98{clip-path:url(#clip-path-157);}.cls-99{clip-path:url(#clip-path-159);}.cls-100{clip-path:url(#clip-path-161);}.cls-101{clip-path:url(#clip-path-163);}.cls-102{clip-path:url(#clip-path-164);}.cls-103{clip-path:url(#clip-path-165);}.cls-104{clip-path:url(#clip-path-166);}.cls-105{clip-path:url(#clip-path-167);}.cls-106{clip-path:url(#clip-path-169);}.cls-107{clip-path:url(#clip-path-171);}.cls-108{clip-path:url(#clip-path-173);}.cls-109{clip-path:url(#clip-path-175);}.cls-110{clip-path:url(#clip-path-177);}.cls-111{clip-path:url(#clip-path-179);}.cls-112{clip-path:url(#clip-path-181);}.cls-113{clip-path:url(#clip-path-183);}.cls-114{clip-path:url(#clip-path-185);}.cls-115{clip-path:url(#clip-path-187);}.cls-116{clip-path:url(#clip-path-189);}.cls-117{clip-path:url(#clip-path-191);}.cls-118{clip-path:url(#clip-path-193);}.cls-119{clip-path:url(#clip-path-195);}.cls-120{clip-path:url(#clip-path-197);}.cls-121{clip-path:url(#clip-path-199);}.cls-122{clip-path:url(#clip-path-201);}.cls-123{clip-path:url(#clip-path-203);}.cls-124{clip-path:url(#clip-path-205);}.cls-125{clip-path:url(#clip-path-207);}.cls-126{clip-path:url(#clip-path-209);}.cls-127{clip-path:url(#clip-path-211);}.cls-128{clip-path:url(#clip-path-213);}.cls-129{clip-path:url(#clip-path-215);}.cls-130{clip-path:url(#clip-path-217);}.cls-131{clip-path:url(#clip-path-219);}.cls-132{clip-path:url(#clip-path-221);}.cls-133{clip-path:url(#clip-path-223);}.cls-134{clip-path:url(#clip-path-225);}.cls-135{clip-path:url(#clip-path-227);}.cls-136{clip-path:url(#clip-path-229);}.cls-137{clip-path:url(#clip-path-231);}.cls-138{clip-path:url(#clip-path-233);}.cls-139{clip-path:url(#clip-path-235);}.cls-140{clip-path:url(#clip-path-237);}.cls-141{clip-path:url(#clip-path-239);}.cls-142{clip-path:url(#clip-path-241);}.cls-143{clip-path:url(#clip-path-243);}.cls-144{clip-path:url(#clip-path-245);}.cls-145{clip-path:url(#clip-path-247);}.cls-146{clip-path:url(#clip-path-249);}.cls-147{clip-path:url(#clip-path-251);}.cls-148{clip-path:url(#clip-path-253);}.cls-149{clip-path:url(#clip-path-255);}.cls-150{clip-path:url(#clip-path-257);}.cls-151{clip-path:url(#clip-path-259);}.cls-152{clip-path:url(#clip-path-261);}.cls-153{clip-path:url(#clip-path-263);}.cls-154{clip-path:url(#clip-path-265);}.cls-155{clip-path:url(#clip-path-267);}.cls-156{clip-path:url(#clip-path-269);}.cls-157{clip-path:url(#clip-path-271);}.cls-158{clip-path:url(#clip-path-273);}.cls-159{clip-path:url(#clip-path-275);}.cls-160{clip-path:url(#clip-path-277);}.cls-161{clip-path:url(#clip-path-279);}.cls-162{clip-path:url(#clip-path-281);}.cls-163{clip-path:url(#clip-path-283);}.cls-164{clip-path:url(#clip-path-285);}.cls-165{clip-path:url(#clip-path-287);}.cls-166{clip-path:url(#clip-path-289);}.cls-167{clip-path:url(#clip-path-291);}.cls-168{clip-path:url(#clip-path-293);}.cls-169{clip-path:url(#clip-path-295);}.cls-170{clip-path:url(#clip-path-297);}.cls-171{clip-path:url(#clip-path-299);}.cls-172{clip-path:url(#clip-path-301);}.cls-173{clip-path:url(#clip-path-303);}.cls-174{clip-path:url(#clip-path-305);}.cls-175{clip-path:url(#clip-path-307);}.cls-176{clip-path:url(#clip-path-309);}.cls-177{clip-path:url(#clip-path-311);}.cls-178{clip-path:url(#clip-path-313);}.cls-179{clip-path:url(#clip-path-315);}.cls-180{clip-path:url(#clip-path-317);}.cls-181{clip-path:url(#clip-path-319);}.cls-182{clip-path:url(#clip-path-321);}.cls-183{clip-path:url(#clip-path-323);}.cls-184{clip-path:url(#clip-path-325);}.cls-185{clip-path:url(#clip-path-327);}.cls-186{clip-path:url(#clip-path-328);}</style><clipPath id="clip-path"><path class="cls-1" d="M111.47,27.21a247.52,247.52,0,0,1,54.29,6.37V68.52H57.91v-35a237.67,237.67,0,0,1,53.56-6.36"/></clipPath><clipPath id="clip-path-2"><rect class="cls-2" x="6.83" y="-2.39" width="208.45" height="208.45"/></clipPath><clipPath id="clip-path-3"><rect class="cls-2" x="113.19" y="151.11" width="52.75" height="3.28"/></clipPath><clipPath id="clip-path-5"><rect class="cls-2" x="75.7" y="70.9" width="72.65" height="77.48"/></clipPath><clipPath id="clip-path-7"><path class="cls-1" d="M81.31,36A12.73,12.73,0,1,0,93.55,48.76,12.49,12.49,0,0,0,81.31,36"/></clipPath><clipPath id="clip-path-9"><path class="cls-1" d="M142.39,36.14a12.63,12.63,0,1,0,12.15,12.63,12.39,12.39,0,0,0-12.15-12.63"/></clipPath><clipPath id="clip-path-11"><rect class="cls-2" x="57.73" y="151.11" width="52.75" height="3.28"/></clipPath><clipPath id="clip-path-13"><path class="cls-1" d="M40.82,113.12l0,0L30,108.81h0a88.09,88.09,0,0,1,6.16-11.91l9.1,6.87a48.86,48.86,0,0,0-4.4,9.36"/></clipPath><clipPath id="clip-path-15"><path class="cls-1" d="M45.66,103.1l-9.1-6.87a63.28,63.28,0,0,1,8.35-9.8l5.43,11.09-0.17.18a44.47,44.47,0,0,0-4.51,5.41"/></clipPath><clipPath id="clip-path-17"><path class="cls-1" d="M40.82,113.12l0,0-1.73-.7a45.85,45.85,0,0,1,4.75-9.77l1.4,1.06a48.86,48.86,0,0,0-4.4,9.36"/></clipPath><clipPath id="clip-path-19"><path class="cls-1" d="M45.66,103.1l-9.1-6.87,0.58-.85c2.31,1.68,7,5.41,7.61,5.83,1.19-1.58,4.75-5.4,4.75-5.4l0.83,1.7-0.17.18a44.47,44.47,0,0,0-4.51,5.41"/></clipPath><clipPath id="clip-path-21"><rect class="cls-2" x="57.73" y="155.95" width="52.75" height="3.06"/></clipPath><clipPath id="clip-path-23"><rect class="cls-2" x="113.19" y="155.95" width="52.75" height="3.06"/></clipPath><clipPath id="clip-path-25"><path class="cls-1" d="M173.07,97.23l5.48-11.18a69,69,0,0,1,8.37,9.61l-9.18,6.93a61.2,61.2,0,0,0-4.55-5.22l-0.13-.14"/></clipPath><clipPath id="clip-path-27"><path class="cls-1" d="M173.07,97.23l1.06-2.17,4.75,5.65c2.61-1.79,5.45-4,7.63-5.65l0.42,0.59-9.18,6.93a61.2,61.2,0,0,0-4.55-5.22l-0.13-.14"/></clipPath><clipPath id="clip-path-29"><path class="cls-1" d="M178.21,103.22l9.16-6.91a78.29,78.29,0,0,1,6.25,11.81l-10.5,4.66v0a40.31,40.31,0,0,0-4.9-9.55"/></clipPath><clipPath id="clip-path-31"><path class="cls-1" d="M178.21,103.22l1.54-1.16a86.88,86.88,0,0,1,4.83,9.18c2.35-.94,5.92-2.83,8.72-3.82l0.32,0.7-10.5,4.66v0a40.31,40.31,0,0,0-4.9-9.55"/></clipPath><clipPath id="clip-path-33"><path class="cls-1" d="M170.94,48.58c0,7.6-.26,9.81-2.85,10.16V38.42c2.58,0.36,2.85,2.56,2.85,10.16"/></clipPath><clipPath id="clip-path-35"><path class="cls-1" d="M170.91,51.66c-0.11,5.15-.63,6.79-2.82,7.09V54.68c1.07-.15,2-0.84,2.82-3"/></clipPath><clipPath id="clip-path-37"><path class="cls-1" d="M111.47,22c9.66,0,14,.14,14.56,3.33-4.66-.3-9.54-0.49-14.56-0.49s-9.92.18-14.57,0.49c0.57-3.19,4.9-3.33,14.57-3.33"/></clipPath><clipPath id="clip-path-39"><path class="cls-1" d="M99.83,25.18l-2.93.17c0.34-1.88,2-2.7,5.25-3.06a4.68,4.68,0,0,0-2.32,2.88"/></clipPath><clipPath id="clip-path-41"><path class="cls-1" d="M53,48.58c0-7.3.25-9.62,2.55-10.11V58.69C53.28,58.2,53,55.88,53,48.58"/></clipPath><clipPath id="clip-path-43"><path class="cls-1" d="M55.58,55.13v3.56c-1.79-.38-2.34-1.87-2.49-5.95a4.25,4.25,0,0,0,2.49,2.38"/></clipPath><clipPath id="clip-path-45"><path class="cls-1" d="M44.75,124.34A15.48,15.48,0,0,1,38.24,137l0-15.13-16-.06,0,15a14.78,14.78,0,0,1,6.59-27.18l0.74-.06L40.71,114l0.24,0.36c1.78,2.72,3.82,6.31,3.81,10"/></clipPath><clipPath id="clip-path-47"><path class="cls-1" d="M51.75,97.43L51,97,45.45,85.76V85.32c0-7.09,4.64-13.08,10.13-13.08V98.4a8.13,8.13,0,0,1-3.83-1"/></clipPath><clipPath id="clip-path-49"><path class="cls-1" d="M51.75,97.43L51,97,45.45,85.76V85.32a16.12,16.12,0,0,1,.21-2.6c3.85,0.48,8.67,2.76,9.92,9.57V98.4a8.13,8.13,0,0,1-3.83-1"/></clipPath><clipPath id="clip-path-51"><path class="cls-1" d="M168.37,98.12h-0.28v-26h0.28c5.36,0,9.72,5.84,9.72,13v0.14l-5.68,11.6-0.59.31a6.67,6.67,0,0,1-3.45,1"/></clipPath><clipPath id="clip-path-53"><path class="cls-1" d="M168.37,98.12h-0.28V79.9a9.62,9.62,0,0,1,9.06,7.25c-0.49,1-4.75,9.68-4.75,9.68l-0.59.31a6.67,6.67,0,0,1-3.45,1"/></clipPath><clipPath id="clip-path-55"><path class="cls-1" d="M200.8,138.63l-1.87-4.12,5.82-7.78-4.05-9.61-10.3-1.27-6.24,8.34,4.05,9.61,9.66,1.19,1.86,4.08-0.82.28a15.3,15.3,0,0,1-11.8-1.16A15.65,15.65,0,0,1,182.89,114l0.36-.4,10.7-4.75h0.72a15.47,15.47,0,0,1,14.53,11.05,15.65,15.65,0,0,1-8.41,18.73"/></clipPath><clipPath id="clip-path-57"><rect class="cls-2" x="57.73" y="70.9" width="16.42" height="77.48"/></clipPath><clipPath id="clip-path-59"><rect class="cls-2" x="149.9" y="70.9" width="16.04" height="77.48"/></clipPath><clipPath id="clip-path-61"><rect class="cls-2" x="48.32" y="161.24" width="62.16" height="16.17"/></clipPath><clipPath id="clip-path-63"><rect class="cls-2" x="113.19" y="161.24" width="62.22" height="16.17"/></clipPath><clipPath id="clip-path-65"><rect class="cls-2" x="48.32" y="161.24" width="7.26" height="16.17"/></clipPath><clipPath id="clip-path-67"><rect class="cls-2" x="59.6" y="161.24" width="3.06" height="16.17"/></clipPath><clipPath id="clip-path-69"><rect class="cls-2" x="113.19" y="161.24" width="7.26" height="16.17"/></clipPath><clipPath id="clip-path-71"><rect class="cls-2" x="124.47" y="161.24" width="3.06" height="16.17"/></clipPath><clipPath id="clip-path-73"><path class="cls-1" d="M81.31,38.73a10,10,0,1,1-9.62,10,9.85,9.85,0,0,1,9.62-10"/></clipPath><clipPath id="clip-path-75"><path class="cls-1" d="M88.15,55.81a9.4,9.4,0,0,1-6.84,3,9.85,9.85,0,0,1-9.62-10,10.23,10.23,0,0,1,2.82-7.09c0,8.27,4.71,14.14,13.64,14.14"/></clipPath><clipPath id="clip-path-77"><path class="cls-1" d="M142.39,38.73a10,10,0,1,1-9.62,10,9.85,9.85,0,0,1,9.62-10"/></clipPath><clipPath id="clip-path-79"><path class="cls-1" d="M149.19,55.86a9.4,9.4,0,0,1-6.8,2.94,9.85,9.85,0,0,1-9.62-10,10.21,10.21,0,0,1,3.13-7.4c0,9.1,3.72,14.49,13.29,14.49"/></clipPath><clipPath id="clip-path-81"><path class="cls-1" d="M66,81.29a4.12,4.12,0,1,0,3.94,4.12A4,4,0,0,0,66,81.29"/></clipPath><clipPath id="clip-path-83"><path class="cls-1" d="M66,134.45a4.12,4.12,0,1,0,3.94,4.12A4,4,0,0,0,66,134.45"/></clipPath><clipPath id="clip-path-85"><path class="cls-1" d="M157.72,81.29a4.12,4.12,0,1,0,3.94,4.12,4,4,0,0,0-3.94-4.12"/></clipPath><clipPath id="clip-path-87"><path class="cls-1" d="M157.72,134.45a4.12,4.12,0,1,0,3.94,4.12,4,4,0,0,0-3.94-4.12"/></clipPath><clipPath id="clip-path-89"><path class="cls-1" d="M63.26,82.42a4.2,4.2,0,0,0-1.23,3A4,4,0,0,0,66,89.52a3.84,3.84,0,0,0,2.69-1.11c-3.07,0-5.34-2.44-5.4-6"/></clipPath><clipPath id="clip-path-91"><path class="cls-1" d="M63.28,135.56a4.19,4.19,0,0,0-1.25,3A4,4,0,0,0,66,142.68a3.85,3.85,0,0,0,2.76-1.18c-3.7,0-5.45-1.41-5.45-5.95"/></clipPath><clipPath id="clip-path-93"><path class="cls-1" d="M154.86,82.58a4.2,4.2,0,0,0-1.08,2.83,4,4,0,0,0,3.94,4.12,3.84,3.84,0,0,0,2.66-1.09c-3.75,0-5.53-1.63-5.53-5.86"/></clipPath><clipPath id="clip-path-95"><path class="cls-1" d="M155,135.59a4.2,4.2,0,0,0-1.22,3,4,4,0,0,0,3.94,4.12,3.83,3.83,0,0,0,2.59-1c-3.26,0-5.31-2.24-5.31-6.07"/></clipPath><clipPath id="clip-path-97"><path class="cls-1" d="M104,141.08a27.94,27.94,0,0,0,7,.83h0.59a28,28,0,0,0,7-.83l1-4.35a1.87,1.87,0,0,1,.26-0.82,1.43,1.43,0,0,1,.77-0.48l0.05,0a23.67,23.67,0,0,0,3.13-1.32l2.69-1.6a23.93,23.93,0,0,0,3.18-2.41l0,0a1.44,1.44,0,0,1,.79-0.44,1.85,1.85,0,0,1,.84.17l4.25,1.27a28.24,28.24,0,0,0,4.15-5.68l0.29-.51a28.4,28.4,0,0,0,2.71-6.5l-3.27-3a1.89,1.89,0,0,1-.58-0.63,1.47,1.47,0,0,1,0-.91v-0.06a24.17,24.17,0,0,0,.4-3.38l-0.1-2.88a24.19,24.19,0,0,0-.48-4v-0.06a1.46,1.46,0,0,1,0-.91,1.86,1.86,0,0,1,.57-0.64l3.22-3.06a28.33,28.33,0,0,0-2.8-6.46l-0.3-.51a28.28,28.28,0,0,0-4.23-5.61l-4.23,1.33a1.84,1.84,0,0,1-.84.18,1.45,1.45,0,0,1-.8-0.42l0,0a23.92,23.92,0,0,0-2.73-2.06l-2.28-1.29a23.91,23.91,0,0,0-3.66-1.6l-0.05,0a1.45,1.45,0,0,1-.77-0.48,1.86,1.86,0,0,1-.26-0.82l-1-4.35a27.94,27.94,0,0,0-7-.83h-0.59a28,28,0,0,0-7,.83l-1,4.35a1.87,1.87,0,0,1-.26.82,1.45,1.45,0,0,1-.77.48l-0.05,0a23.92,23.92,0,0,0-3.14,1.33L96,85.25a24,24,0,0,0-3.18,2.41l0,0a1.45,1.45,0,0,1-.79.44A1.81,1.81,0,0,1,91.17,88L86.92,86.7a28.29,28.29,0,0,0-4.15,5.68l-0.29.51a28.39,28.39,0,0,0-2.7,6.5l3.27,3a1.85,1.85,0,0,1,.58.64,1.46,1.46,0,0,1,0,.91V104a24.27,24.27,0,0,0-.4,3.38l0.1,2.88a24.25,24.25,0,0,0,.48,4v0.06a1.47,1.47,0,0,1,0,.91,1.85,1.85,0,0,1-.57.64L80,118.94a28.38,28.38,0,0,0,2.8,6.46l0.3,0.51a28.31,28.31,0,0,0,4.23,5.61l4.23-1.33a1.84,1.84,0,0,1,.84-0.18,1.45,1.45,0,0,1,.8.42l0,0A23.92,23.92,0,0,0,96,132.53l2.28,1.29a23.72,23.72,0,0,0,3.66,1.6l0.05,0a1.43,1.43,0,0,1,.77.48,1.86,1.86,0,0,1,.26.82l1,4.35"/></clipPath><clipPath id="clip-path-99"><path class="cls-1" d="M66,68.52h2.69V31.28L66,31.8V68.52"/></clipPath><clipPath id="clip-path-101"><path class="cls-1" d="M62.66,32.48c-2,.44-3.65.82-4.75,1.09v35h4.75v-36"/></clipPath><clipPath id="clip-path-103"><rect class="cls-2" x="71.6" y="151.11" width="2.55" height="3.28"/></clipPath><clipPath id="clip-path-105"><rect class="cls-2" x="57.73" y="151.11" width="11" height="3.28"/></clipPath><clipPath id="clip-path-107"><rect class="cls-2" x="71.6" y="155.84" width="2.55" height="3.28"/></clipPath><clipPath id="clip-path-109"><rect class="cls-2" x="57.73" y="155.84" width="11" height="3.28"/></clipPath><clipPath id="clip-path-111"><rect class="cls-2" x="127.06" y="151.11" width="2.55" height="3.28"/></clipPath><clipPath id="clip-path-113"><rect class="cls-2" x="113.19" y="151.11" width="11" height="3.28"/></clipPath><clipPath id="clip-path-115"><rect class="cls-2" x="127.06" y="155.84" width="2.55" height="3.28"/></clipPath><clipPath id="clip-path-117"><rect class="cls-2" x="113.19" y="155.84" width="11" height="3.28"/></clipPath><clipPath id="clip-path-119"><path class="cls-1" d="M200.8,138.63a15.64,15.64,0,0,0,9.08-14.3l-10.09,12.09,1,2.22"/></clipPath><clipPath id="clip-path-121"><path class="cls-1" d="M197.83,109.22l-5.43,6.87,8.29,1,1.27,3,4.57-5.38a15.42,15.42,0,0,0-8.71-5.52"/></clipPath><clipPath id="clip-path-123"><path class="cls-1" d="M190.14,134l-1.93-.24-3.41-8.08-4.36,5.51a15.42,15.42,0,0,0,6.33,6.77l3.37-4"/></clipPath><clipPath id="clip-path-125"><path class="cls-1" d="M198.9,139.35l0.82-.28L199,137.41l-2,2.41a15.63,15.63,0,0,0,1.95-.46"/></clipPath><clipPath id="clip-path-127"><path class="cls-1" d="M44.75,124.34c0-.14,0-0.28,0-0.42l-6.48,7.77,0,5.27a15.48,15.48,0,0,0,6.51-12.61"/></clipPath><clipPath id="clip-path-129"><path class="cls-1" d="M40.95,114.34L40.71,114l-9.19-3.69-9.06,11.47,12.61,0,6.08-7.16-0.2-.31"/></clipPath><clipPath id="clip-path-131"><path class="cls-1" d="M128.14,102.34l-2.85-1.66V97.38l2.85-1.66L131,97.38v3.31Zm3.37,2.57A6.81,6.81,0,0,0,134,95.64a6.72,6.72,0,0,0-9.21-2.49,6.79,6.79,0,0,0-3.36,6.23L98.16,112.9a6.76,6.76,0,0,0-7.11-.15,6.85,6.85,0,0,0-3.32,6.57l4.83-2.85,2.86,1.64,0,3.31-4.83,2.85a6.76,6.76,0,0,0,7.32.29,6.85,6.85,0,0,0,3.34-6.35l23.2-13.48A6.7,6.7,0,0,0,131.52,104.91Z"/></clipPath><clipPath id="clip-path-133"><path class="cls-1" d="M97.26,97.43v3.31l-2.85,1.66-2.85-1.66V97.43l2.85-1.66Zm0.52-4.22a6.72,6.72,0,0,0-9.21,2.49A6.81,6.81,0,0,0,91,105a6.7,6.7,0,0,0,7-.19l23.25,13.51a6.85,6.85,0,0,0,3.43,6.27,6.76,6.76,0,0,0,7.32-.39l-4.87-2.79,0-3.31,2.84-1.67,4.87,2.79a6.85,6.85,0,0,0-3.41-6.53,6.76,6.76,0,0,0-7.14.26l-23.2-13.48A6.79,6.79,0,0,0,97.79,93.2Z"/></clipPath><clipPath id="clip-path-135"><path class="cls-1" d="M114.09,129.82l-2.85,1.66-2.85-1.66v-3.31l2.85-1.66,2.85,1.66v3.31Zm0.21-7.7v-27a6.85,6.85,0,0,0-.12-12.32l0,5.64-2.86,1.64-2.84-1.67,0-5.64a6.86,6.86,0,0,0-.31,12.31v27A6.74,6.74,0,1,0,114.3,122.12Z"/></clipPath><clipPath id="clip-path-137"><path class="cls-1" d="M81.31,37.54a11.24,11.24,0,1,0,10.8,11.23,11,11,0,0,0-10.8-11.23m0,1.19a10,10,0,1,1-9.62,10,9.85,9.85,0,0,1,9.62-10"/></clipPath><clipPath id="clip-path-139"><path class="cls-1" d="M142.39,37.54a11.24,11.24,0,1,0,10.8,11.23,11,11,0,0,0-10.8-11.23m0,1.19a10,10,0,1,1-9.62,10,9.85,9.85,0,0,1,9.62-10"/></clipPath><clipPath id="clip-path-141"><path class="cls-1" d="M66,81.29a4.12,4.12,0,1,0,3.94,4.12A4,4,0,0,0,66,81.29Zm0,9.42a5.31,5.31,0,1,1,5.12-5.31A5.22,5.22,0,0,1,66,90.71Z"/></clipPath><clipPath id="clip-path-143"><path class="cls-1" d="M66,134.45a4.12,4.12,0,1,0,3.94,4.12A4,4,0,0,0,66,134.45Zm0,9.42a5.31,5.31,0,1,1,5.12-5.31A5.22,5.22,0,0,1,66,143.87Z"/></clipPath><clipPath id="clip-path-145"><path class="cls-1" d="M157.72,81.29a4.12,4.12,0,1,0,3.94,4.12A4,4,0,0,0,157.72,81.29Zm0,9.42a5.31,5.31,0,1,1,5.12-5.31A5.22,5.22,0,0,1,157.72,90.71Z"/></clipPath><clipPath id="clip-path-147"><path class="cls-1" d="M157.72,134.45a4.12,4.12,0,1,0,3.94,4.12A4,4,0,0,0,157.72,134.45Zm0,9.42a5.31,5.31,0,1,1,5.12-5.31A5.22,5.22,0,0,1,157.72,143.87Z"/></clipPath><clipPath id="clip-path-149"><path class="cls-1" d="M189.61,131.93l-3.15-7.46L191.3,118l8,1,3.15,7.46-4.85,6.47Zm11.19,6.69-1.87-4.12,5.82-7.78-4.05-9.61-10.3-1.27-6.24,8.34,4.05,9.61,9.66,1.19,1.86,4.08-0.82.28a15.3,15.3,0,0,1-11.8-1.16A15.65,15.65,0,0,1,182.89,114l0.36-.4,10.7-4.75h0.72a15.47,15.47,0,0,1,14.53,11.05A15.65,15.65,0,0,1,200.8,138.63Zm-22.58-35.41,9.16-6.91a78.29,78.29,0,0,1,6.25,11.81l-10.5,4.66v0A40.31,40.31,0,0,0,178.21,103.22Zm-5.14-6,5.48-11.18a69,69,0,0,1,8.37,9.61l-9.18,6.93a61.2,61.2,0,0,0-4.55-5.22Zm-4.7.88h-0.28v-26h0.28c5.36,0,9.72,5.84,9.72,13v0.14l-5.68,11.6-0.59.31A6.67,6.67,0,0,1,168.37,98.12ZM113.19,156h52.75V159H113.19V156Zm0,5.29h62.22v16.17H113.19V161.24Zm-64.87,0h62.16v16.17H48.32V161.24ZM57.73,156h52.75V159H57.73V156Zm-6-58.52L51,97,45.45,85.76V85.32c0-7.09,4.64-13.08,10.13-13.08V98.4A8.13,8.13,0,0,1,51.75,97.43Zm-6.09,5.67-9.1-6.87a63.28,63.28,0,0,1,8.35-9.8l5.43,11.09-0.17.18A44.47,44.47,0,0,0,45.66,103.1Zm-4.84,10,0,0L30,108.81h0a88.09,88.09,0,0,1,6.16-11.91l9.1,6.87A48.86,48.86,0,0,0,40.82,113.12Zm3.94,11.22A15.48,15.48,0,0,1,38.24,137l0-15.13-16-.06,0,15a14.78,14.78,0,0,1,6.59-27.18l0.74-.06L40.71,114l0.24,0.36C42.73,117.06,44.77,120.66,44.75,124.34ZM53,48.58c0-7.3.25-9.62,2.55-10.11V58.69C53.28,58.2,53,55.88,53,48.58Zm58.44-21.37a247.52,247.52,0,0,1,54.29,6.37V68.52H57.91v-35A237.67,237.67,0,0,1,111.47,27.21Zm0-5.18c9.66,0,14,.14,14.56,3.33-4.66-.3-9.54-0.49-14.56-0.49s-9.92.18-14.57,0.49C97.47,22.17,101.8,22,111.47,22Zm59.47,26.56c0,7.6-.26,9.81-2.85,10.16V38.42C170.67,38.77,170.94,41,170.94,48.58Zm-21,22.32h16v77.48h-16V70.9ZM57.73,151.11h52.75v3.28H57.73v-3.28Zm0-80.21H74.15v77.48H57.73V70.9Zm18,0h72.65v77.48H75.7V70.9Zm37.49,80.21h52.75v3.28H113.19v-3.28Zm98.24-31.9a17.8,17.8,0,0,0-16-12.69c-4.8-10.59-8.08-14.94-15-21.92-0.21-8.24-5.53-14.87-12-14.87h-0.28v-8.6c5.21-.49,5.21-5.37,5.21-12.56s0-12.06-5.21-12.56V31.75a239.51,239.51,0,0,0-40.18-6.27c-0.29-3.22-2.73-4.2-4.6-4.65-2.72-.66-6.75-0.66-11.85-0.66s-9.13,0-11.85.66c-1.86.45-4.31,1.43-4.6,4.66a227.09,227.09,0,0,0-39.44,6.26v4.31c-4.91.65-4.92,5.47-4.92,12.52s0,11.87,4.92,12.52v8.47c-6.77,0-12.52,6.9-12.77,15.19C35.61,92,32.67,96.37,27.86,107a17.45,17.45,0,0,0-4.8,33.2L24.92,141l0-16.6,10.66,0-0.05,16.84,1.89-.87a17.68,17.68,0,0,0,9.95-16.1c0-4.12-2-7.94-3.87-10.9,2.47-6.32,3.76-8.77,7.9-13.22a10.66,10.66,0,0,0,4.15.84V159H46.1v20.64H177.64V159h-9.55V100.46h0.28a8.35,8.35,0,0,0,3.74-.85A35.48,35.48,0,0,1,180.69,113a18,18,0,0,0,5.32,27.3,17.61,17.61,0,0,0,13.58,1.33A18,18,0,0,0,211.44,119.21Z"/></clipPath><clipPath id="clip-path-151"><path class="cls-1" d="M111.47,56.55a42.47,42.47,0,0,1-13.94-2.47,1.78,1.78,0,0,1,1.27-3.33A39.6,39.6,0,0,0,111.47,53,48,48,0,0,0,125,50.73a1.78,1.78,0,0,1,1.14,3.38,51,51,0,0,1-14.69,2.44"/></clipPath><clipPath id="clip-path-153"><path class="cls-1" d="M104,141.08a27.94,27.94,0,0,0,7,.83h0.59a28,28,0,0,0,7-.83l1-4.35a1.87,1.87,0,0,1,.26-0.82,1.43,1.43,0,0,1,.77-0.48l0.05,0a23.67,23.67,0,0,0,3.13-1.32l2.69-1.6a23.93,23.93,0,0,0,3.18-2.41l0,0a1.44,1.44,0,0,1,.79-0.44,1.85,1.85,0,0,1,.84.17l4.25,1.27a28.24,28.24,0,0,0,4.15-5.68l0.29-.51a28.4,28.4,0,0,0,2.71-6.5l-3.27-3a1.89,1.89,0,0,1-.58-0.63,1.47,1.47,0,0,1,0-.91v-0.06a24.17,24.17,0,0,0,.4-3.38l-0.1-2.88a24.19,24.19,0,0,0-.48-4v-0.06a1.46,1.46,0,0,1,0-.91,1.86,1.86,0,0,1,.57-0.64l3.22-3.06a28.33,28.33,0,0,0-2.8-6.46l-0.3-.51a28.28,28.28,0,0,0-4.23-5.61l-4.23,1.33a1.84,1.84,0,0,1-.84.18,1.45,1.45,0,0,1-.8-0.42l0,0a23.92,23.92,0,0,0-2.73-2.06l-2.28-1.29a23.91,23.91,0,0,0-3.66-1.6l-0.05,0a1.45,1.45,0,0,1-.77-0.48,1.86,1.86,0,0,1-.26-0.82l-1-4.35a27.94,27.94,0,0,0-7-.83h-0.59a28,28,0,0,0-7,.83l-1,4.35a1.87,1.87,0,0,1-.26.82,1.45,1.45,0,0,1-.77.48l-0.05,0a23.92,23.92,0,0,0-3.14,1.33L96,85.25a24,24,0,0,0-3.18,2.41l0,0a1.45,1.45,0,0,1-.79.44A1.81,1.81,0,0,1,91.17,88L86.92,86.7a28.29,28.29,0,0,0-4.15,5.68l-0.29.51a28.39,28.39,0,0,0-2.7,6.5l3.27,3a1.85,1.85,0,0,1,.58.64,1.46,1.46,0,0,1,0,.91V104a24.27,24.27,0,0,0-.4,3.38l0.1,2.88a24.25,24.25,0,0,0,.48,4v0.06a1.47,1.47,0,0,1,0,.91,1.85,1.85,0,0,1-.57.64L80,118.94a28.38,28.38,0,0,0,2.8,6.46l0.3,0.51a28.31,28.31,0,0,0,4.23,5.61l4.23-1.33a1.84,1.84,0,0,1,.84-0.18,1.45,1.45,0,0,1,.8.42l0,0A23.92,23.92,0,0,0,96,132.53l2.28,1.29a23.72,23.72,0,0,0,3.66,1.6l0.05,0a1.43,1.43,0,0,1,.77.48,1.86,1.86,0,0,1,.26.82Zm7.54,2H111a29.11,29.11,0,0,1-7.59-1l-0.35-.09-1.18-5.16a1.68,1.68,0,0,0-.05-0.26l-0.17-.06-0.07,0a25,25,0,0,1-3.85-1.68l-2.32-1.31a25.16,25.16,0,0,1-2.9-2.18l-0.05,0-0.15-.12-0.25.09-0.07,0-5,1.56-0.25-.26a29.47,29.47,0,0,1-4.66-6.11l-0.3-.51a29.57,29.57,0,0,1-3-7.08l-0.1-.35,3.83-3.63,0.2-.18c0-.05,0-0.13,0-0.18l0-.07a25.56,25.56,0,0,1-.5-4.19l-0.1-2.93v0a25.31,25.31,0,0,1,.42-3.58v-0.07c0-.05,0-0.14,0-0.19l-0.21-.17-0.06,0-3.82-3.53,0.09-.35a29.58,29.58,0,0,1,2.91-7.12l0.29-.51a29.44,29.44,0,0,1,4.57-6.18l0.25-.26,5,1.51,0.25,0.09L92,86.82l0.05,0a25.12,25.12,0,0,1,3.35-2.54l2.72-1.62a24.94,24.94,0,0,1,3.33-1.41l0.07,0,0.18-.07s0-.17,0-0.26V80.77l1.17-5.09,0.35-.09a29.11,29.11,0,0,1,7.59-1h0.59a29.11,29.11,0,0,1,7.6,1l0.35,0.09,1.18,5.16a1.79,1.79,0,0,0,.05.26l0.17,0.06,0.07,0a25,25,0,0,1,3.85,1.68l2.32,1.31a25.08,25.08,0,0,1,2.9,2.18l0.05,0,0.15,0.12,0.25-.09,0.07,0,5-1.56,0.25,0.26a29.46,29.46,0,0,1,4.66,6.11l0.3,0.51a29.62,29.62,0,0,1,3,7.08l0.1,0.35-3.83,3.63-0.2.18c0,0.05,0,.13,0,0.18l0,0.07a25.56,25.56,0,0,1,.5,4.19l0.1,2.93v0A25.43,25.43,0,0,1,140,114V114a1.94,1.94,0,0,0,0,.19l0.21,0.17,0.06,0L144,118l-0.09.35a29.6,29.6,0,0,1-2.91,7.13l-0.29.51a29.51,29.51,0,0,1-4.57,6.18l-0.25.26-5-1.51-0.25-.09-0.14.12-0.05,0a25.15,25.15,0,0,1-3.35,2.54l-2.76,1.64a24.94,24.94,0,0,1-3.3,1.39l-0.07,0-0.18.07s0,0.17,0,.26V137l-1.17,5.09-0.35.09A29.11,29.11,0,0,1,111.57,143.1Z"/></clipPath><clipPath id="clip-path-155"><path class="cls-1" d="M83.67,41.21l0.38-.88a8.67,8.67,0,0,0-3.18-.6c0,0.11,0,.93,0,1a7.9,7.9,0,0,1,2.79.45"/></clipPath><clipPath id="clip-path-157"><path class="cls-1" d="M87.84,43.19q-0.22-.28-0.45-0.55T86.75,42a8.75,8.75,0,0,0-1.54-1.12l-0.42.87a12.63,12.63,0,0,1,4.63,4.87,9.26,9.26,0,0,0-1.58-3.44"/></clipPath><clipPath id="clip-path-159"><path class="cls-1" d="M144.73,41.21l0.38-.88a8.67,8.67,0,0,0-3.18-.6c0,0.11,0,.93,0,1a7.9,7.9,0,0,1,2.79.45"/></clipPath><clipPath id="clip-path-161"><path class="cls-1" d="M148.89,43.19q-0.22-.28-0.45-0.55T147.81,42a8.75,8.75,0,0,0-1.54-1.12l-0.42.87a12.63,12.63,0,0,1,4.63,4.87,9.26,9.26,0,0,0-1.59-3.44"/></clipPath><clipPath id="clip-path-163"><path class="cls-1" d="M189.7,132.06l-3.15-7.47,4.85-6.48,8,1,3.15,7.47-4.85,6.48Zm11.2,6.7L199,134.64l5.83-7.79-4.06-9.62L190.49,116l-6.25,8.35,4.06,9.62,9.67,1.19,1.86,4.09-0.82.28a15.32,15.32,0,0,1-11.82-1.16A15.67,15.67,0,0,1,183,114.09l0.36-.4,10.71-4.75h0.72A15.48,15.48,0,0,1,209.32,120,15.66,15.66,0,0,1,200.9,138.77Zm-22.61-35.45,9.17-6.92a78.39,78.39,0,0,1,6.26,11.83l-10.52,4.67v0A40.36,40.36,0,0,0,178.29,103.32Zm-5.15-6,5.49-11.2A69.07,69.07,0,0,1,187,95.75l-9.19,6.94a61.27,61.27,0,0,0-4.55-5.23Zm-4.71.89h-0.28V72.15h0.28c5.37,0,9.73,5.85,9.73,13v0.14l-5.69,11.61-0.59.31A6.68,6.68,0,0,1,168.43,98.21Zm-55.24,57.9H166v3.06H113.2v-3.06Zm0,5.3h62.29v16.18H113.2V161.41Zm-64.95,0h62.23v16.18H48.25V161.41Zm9.42-5.3h52.81v3.06H57.67v-3.06Zm-6-58.59-0.77-.41L45.38,85.83V85.4c0-7.1,4.64-13.1,10.14-13.1V98.49A8.14,8.14,0,0,1,51.68,97.52Zm-6.1,5.67-9.11-6.88a63.36,63.36,0,0,1,8.36-9.81l5.44,11.1-0.17.18A44.52,44.52,0,0,0,45.58,103.2Zm-4.85,10,0,0-10.85-4.36h0A88.19,88.19,0,0,1,36,97l9.11,6.87A48.92,48.92,0,0,0,40.73,113.23Zm3.94,11.23a15.5,15.5,0,0,1-6.52,12.63l0-15.15-16-.06,0,15a14.8,14.8,0,0,1,6.59-27.21l0.74-.06,11.12,4.46,0.24,0.36C42.65,117.18,44.69,120.77,44.67,124.46ZM53,48.61c0-7.31.25-9.63,2.55-10.12V58.74C53.21,58.25,53,55.92,53,48.61Zm58.5-21.4a247.81,247.81,0,0,1,54.36,6.38v35h-108v-35A237.94,237.94,0,0,1,111.47,27.22Zm0-5.19c9.67,0,14,.14,14.58,3.33-4.66-.3-9.55-0.49-14.58-0.49s-9.93.18-14.58,0.49C97.46,22.17,101.79,22,111.47,22ZM171,48.61c0,7.61-.26,9.82-2.85,10.17V38.44C170.74,38.79,171,41,171,48.61ZM149.95,71H166v77.57H149.95V71Zm-92.28,80.3h52.81v3.28H57.67v-3.28Zm0-80.3H74.11v77.57H57.67V71Zm18,0h72.73v77.57H75.66V71Zm37.53,80.3H166v3.28H113.2v-3.28Zm98.36-31.94a17.82,17.82,0,0,0-16-12.7c-4.8-10.6-8.09-15-15.07-21.95-0.21-8.25-5.54-14.89-12.06-14.89h-0.28V61.19c5.22-.49,5.22-5.37,5.22-12.57s0-12.08-5.22-12.57V31.76a239.78,239.78,0,0,0-40.22-6.27c-0.29-3.23-2.74-4.2-4.6-4.66-2.72-.66-6.76-0.66-11.86-0.66s-9.14,0-11.86.66c-1.87.45-4.31,1.43-4.6,4.66a227.36,227.36,0,0,0-39.49,6.27v4.32c-4.92.65-4.92,5.48-4.92,12.54s0,11.89,4.92,12.54v8.47c-6.78,0-12.54,6.91-12.79,15.21-7.21,7.24-10.16,11.62-15,22.27A17.47,17.47,0,0,0,23,140.34l1.86,0.84,0-16.62,10.67,0-0.05,16.86,1.89-.87a17.71,17.71,0,0,0,10-16.12c0-4.13-2-7.95-3.87-10.91,2.47-6.32,3.76-8.78,7.91-13.24a10.67,10.67,0,0,0,4.15.84v58H46v20.66H177.71V159.17h-9.56V100.55h0.28a8.36,8.36,0,0,0,3.75-.85,35.52,35.52,0,0,1,8.59,13.36,18,18,0,0,0,5.32,27.33,17.63,17.63,0,0,0,13.59,1.33A18,18,0,0,0,211.55,119.33Z"/></clipPath><clipPath id="clip-path-164"><rect class="cls-2" x="6.71" y="-2.41" width="208.69" height="208.69"/></clipPath><clipPath id="clip-path-165"><path class="cls-1" d="M336.47,27.21a247.52,247.52,0,0,1,54.29,6.37V68.52H282.91v-35a237.67,237.67,0,0,1,53.56-6.36"/></clipPath><clipPath id="clip-path-166"><rect class="cls-2" x="231.83" y="-2.39" width="208.45" height="208.45"/></clipPath><clipPath id="clip-path-167"><rect class="cls-2" x="338.19" y="151.11" width="52.75" height="3.28"/></clipPath><clipPath id="clip-path-169"><rect class="cls-2" x="300.7" y="70.9" width="72.65" height="77.48"/></clipPath><clipPath id="clip-path-171"><path class="cls-1" d="M306.31,36a12.73,12.73,0,1,0,12.24,12.72A12.49,12.49,0,0,0,306.31,36"/></clipPath><clipPath id="clip-path-173"><path class="cls-1" d="M367.39,36.14a12.63,12.63,0,1,0,12.15,12.63,12.39,12.39,0,0,0-12.15-12.63"/></clipPath><clipPath id="clip-path-175"><rect class="cls-2" x="282.73" y="151.11" width="52.75" height="3.28"/></clipPath><clipPath id="clip-path-177"><path class="cls-1" d="M265.82,113.12l0,0L255,108.81h0a88.09,88.09,0,0,1,6.16-11.91l9.1,6.87a48.86,48.86,0,0,0-4.4,9.36"/></clipPath><clipPath id="clip-path-179"><path class="cls-1" d="M270.66,103.1l-9.1-6.87a63.28,63.28,0,0,1,8.35-9.8l5.43,11.09-0.17.18a44.47,44.47,0,0,0-4.51,5.41"/></clipPath><clipPath id="clip-path-181"><path class="cls-1" d="M265.82,113.12l0,0-1.73-.7a45.85,45.85,0,0,1,4.75-9.77l1.4,1.06a48.86,48.86,0,0,0-4.4,9.36"/></clipPath><clipPath id="clip-path-183"><path class="cls-1" d="M270.66,103.1l-9.1-6.87,0.58-.85c2.31,1.68,7,5.41,7.61,5.83,1.19-1.58,4.75-5.4,4.75-5.4l0.83,1.7-0.17.18a44.47,44.47,0,0,0-4.51,5.41"/></clipPath><clipPath id="clip-path-185"><rect class="cls-2" x="282.73" y="155.95" width="52.75" height="3.06"/></clipPath><clipPath id="clip-path-187"><rect class="cls-2" x="338.19" y="155.95" width="52.75" height="3.06"/></clipPath><clipPath id="clip-path-189"><path class="cls-1" d="M398.07,97.23l5.48-11.18a69,69,0,0,1,8.37,9.61l-9.18,6.93a61.2,61.2,0,0,0-4.55-5.22l-0.13-.14"/></clipPath><clipPath id="clip-path-191"><path class="cls-1" d="M398.07,97.23l1.06-2.17,4.75,5.65c2.61-1.79,5.45-4,7.63-5.65l0.42,0.59-9.18,6.93a61.2,61.2,0,0,0-4.55-5.22l-0.13-.14"/></clipPath><clipPath id="clip-path-193"><path class="cls-1" d="M403.21,103.22l9.16-6.91a78.29,78.29,0,0,1,6.25,11.81l-10.5,4.66v0a40.31,40.31,0,0,0-4.9-9.55"/></clipPath><clipPath id="clip-path-195"><path class="cls-1" d="M403.21,103.22l1.54-1.16a86.88,86.88,0,0,1,4.83,9.18c2.35-.94,5.92-2.83,8.72-3.82l0.32,0.7-10.5,4.66v0a40.31,40.31,0,0,0-4.9-9.55"/></clipPath><clipPath id="clip-path-197"><path class="cls-1" d="M395.94,48.58c0,7.6-.26,9.81-2.85,10.16V38.42c2.58,0.36,2.85,2.56,2.85,10.16"/></clipPath><clipPath id="clip-path-199"><path class="cls-1" d="M395.91,51.66c-0.11,5.15-.63,6.79-2.82,7.09V54.68c1.07-.15,2-0.84,2.82-3"/></clipPath><clipPath id="clip-path-201"><path class="cls-1" d="M336.47,22c9.66,0,14,.14,14.56,3.33-4.66-.3-9.54-0.49-14.56-0.49s-9.92.18-14.57,0.49c0.57-3.19,4.9-3.33,14.57-3.33"/></clipPath><clipPath id="clip-path-203"><path class="cls-1" d="M324.83,25.18l-2.93.17c0.34-1.88,2-2.7,5.25-3.06a4.68,4.68,0,0,0-2.32,2.88"/></clipPath><clipPath id="clip-path-205"><path class="cls-1" d="M278,48.58c0-7.3.25-9.62,2.55-10.11V58.69c-2.3-.49-2.55-2.81-2.55-10.11"/></clipPath><clipPath id="clip-path-207"><path class="cls-1" d="M280.58,55.13v3.56c-1.79-.38-2.34-1.87-2.49-5.95a4.25,4.25,0,0,0,2.49,2.38"/></clipPath><clipPath id="clip-path-209"><path class="cls-1" d="M269.75,124.34A15.48,15.48,0,0,1,263.24,137l0-15.13-16-.06,0,15a14.78,14.78,0,0,1,6.59-27.18l0.74-.06L265.71,114l0.24,0.36c1.78,2.72,3.82,6.31,3.81,10"/></clipPath><clipPath id="clip-path-211"><path class="cls-1" d="M276.75,97.43L276,97l-5.52-11.27V85.32c0-7.09,4.64-13.08,10.13-13.08V98.4a8.13,8.13,0,0,1-3.83-1"/></clipPath><clipPath id="clip-path-213"><path class="cls-1" d="M276.75,97.43L276,97l-5.52-11.27V85.32a16.12,16.12,0,0,1,.21-2.6c3.85,0.48,8.67,2.76,9.92,9.57V98.4a8.13,8.13,0,0,1-3.83-1"/></clipPath><clipPath id="clip-path-215"><path class="cls-1" d="M393.37,98.12h-0.28v-26h0.28c5.36,0,9.72,5.84,9.72,13v0.14l-5.68,11.6-0.59.31a6.67,6.67,0,0,1-3.45,1"/></clipPath><clipPath id="clip-path-217"><path class="cls-1" d="M393.37,98.12h-0.28V79.9a9.62,9.62,0,0,1,9.06,7.25c-0.49,1-4.75,9.68-4.75,9.68l-0.59.31a6.67,6.67,0,0,1-3.45,1"/></clipPath><clipPath id="clip-path-219"><path class="cls-1" d="M425.8,138.63l-1.87-4.12,5.82-7.78-4.05-9.61-10.3-1.27-6.24,8.34,4.05,9.61,9.66,1.19,1.86,4.08-0.82.28a15.3,15.3,0,0,1-11.8-1.16A15.65,15.65,0,0,1,407.89,114l0.36-.4,10.7-4.75h0.72a15.47,15.47,0,0,1,14.53,11.05,15.65,15.65,0,0,1-8.41,18.73"/></clipPath><clipPath id="clip-path-221"><rect class="cls-2" x="282.73" y="70.9" width="16.42" height="77.48"/></clipPath><clipPath id="clip-path-223"><rect class="cls-2" x="374.9" y="70.9" width="16.04" height="77.48"/></clipPath><clipPath id="clip-path-225"><rect class="cls-2" x="273.32" y="161.24" width="62.16" height="16.17"/></clipPath><clipPath id="clip-path-227"><rect class="cls-2" x="338.19" y="161.24" width="62.22" height="16.17"/></clipPath><clipPath id="clip-path-229"><rect class="cls-2" x="273.32" y="161.24" width="7.26" height="16.17"/></clipPath><clipPath id="clip-path-231"><rect class="cls-2" x="284.6" y="161.24" width="3.06" height="16.17"/></clipPath><clipPath id="clip-path-233"><rect class="cls-2" x="338.19" y="161.24" width="7.26" height="16.17"/></clipPath><clipPath id="clip-path-235"><rect class="cls-2" x="349.47" y="161.24" width="3.06" height="16.17"/></clipPath><clipPath id="clip-path-237"><path class="cls-1" d="M306.31,38.73a10,10,0,1,1-9.62,10,9.85,9.85,0,0,1,9.62-10"/></clipPath><clipPath id="clip-path-239"><path class="cls-1" d="M313.15,55.81a9.4,9.4,0,0,1-6.84,3,9.85,9.85,0,0,1-9.62-10,10.23,10.23,0,0,1,2.82-7.09c0,8.27,4.71,14.14,13.64,14.14"/></clipPath><clipPath id="clip-path-241"><path class="cls-1" d="M367.39,38.73a10,10,0,1,1-9.62,10,9.85,9.85,0,0,1,9.62-10"/></clipPath><clipPath id="clip-path-243"><path class="cls-1" d="M374.19,55.86a9.4,9.4,0,0,1-6.8,2.94,9.85,9.85,0,0,1-9.62-10,10.21,10.21,0,0,1,3.13-7.4c0,9.1,3.72,14.49,13.29,14.49"/></clipPath><clipPath id="clip-path-245"><path class="cls-1" d="M291,81.29a4.12,4.12,0,1,0,3.94,4.12A4,4,0,0,0,291,81.29"/></clipPath><clipPath id="clip-path-247"><path class="cls-1" d="M291,134.45a4.12,4.12,0,1,0,3.94,4.12,4,4,0,0,0-3.94-4.12"/></clipPath><clipPath id="clip-path-249"><path class="cls-1" d="M382.72,81.29a4.12,4.12,0,1,0,3.94,4.12,4,4,0,0,0-3.94-4.12"/></clipPath><clipPath id="clip-path-251"><path class="cls-1" d="M382.72,134.45a4.12,4.12,0,1,0,3.94,4.12,4,4,0,0,0-3.94-4.12"/></clipPath><clipPath id="clip-path-253"><path class="cls-1" d="M288.26,82.42a4.2,4.2,0,0,0-1.23,3A4,4,0,0,0,291,89.52a3.84,3.84,0,0,0,2.69-1.11c-3.07,0-5.34-2.44-5.4-6"/></clipPath><clipPath id="clip-path-255"><path class="cls-1" d="M288.28,135.56a4.19,4.19,0,0,0-1.25,3,4,4,0,0,0,3.94,4.12,3.85,3.85,0,0,0,2.76-1.18c-3.7,0-5.45-1.41-5.45-5.95"/></clipPath><clipPath id="clip-path-257"><path class="cls-1" d="M379.86,82.58a4.2,4.2,0,0,0-1.08,2.83,4,4,0,0,0,3.94,4.12,3.84,3.84,0,0,0,2.66-1.09c-3.75,0-5.53-1.63-5.53-5.86"/></clipPath><clipPath id="clip-path-259"><path class="cls-1" d="M380,135.59a4.2,4.2,0,0,0-1.22,3,4,4,0,0,0,3.94,4.12,3.83,3.83,0,0,0,2.59-1c-3.26,0-5.31-2.24-5.31-6.07"/></clipPath><clipPath id="clip-path-261"><path class="cls-1" d="M329,141.08a27.94,27.94,0,0,0,7,.83h0.59a28,28,0,0,0,7-.83l1-4.35a1.87,1.87,0,0,1,.26-0.82,1.43,1.43,0,0,1,.77-0.48l0.05,0a23.67,23.67,0,0,0,3.13-1.32l2.69-1.6a23.93,23.93,0,0,0,3.18-2.41l0,0a1.44,1.44,0,0,1,.79-0.44,1.85,1.85,0,0,1,.84.17l4.25,1.27a28.24,28.24,0,0,0,4.15-5.68l0.29-.51a28.4,28.4,0,0,0,2.71-6.5l-3.27-3a1.89,1.89,0,0,1-.58-0.63,1.47,1.47,0,0,1,0-.91v-0.06a24.17,24.17,0,0,0,.4-3.38l-0.1-2.88a24.19,24.19,0,0,0-.48-4v-0.06a1.46,1.46,0,0,1,0-.91,1.86,1.86,0,0,1,.57-0.64l3.22-3.06a28.33,28.33,0,0,0-2.8-6.46l-0.3-.51a28.28,28.28,0,0,0-4.23-5.61l-4.23,1.33a1.84,1.84,0,0,1-.84.18,1.45,1.45,0,0,1-.8-0.42l0,0a23.92,23.92,0,0,0-2.73-2.06l-2.28-1.29a23.91,23.91,0,0,0-3.66-1.6l-0.05,0a1.45,1.45,0,0,1-.77-0.48,1.86,1.86,0,0,1-.26-0.82l-1-4.35a27.94,27.94,0,0,0-7-.83h-0.59a28,28,0,0,0-7,.83l-1,4.35a1.87,1.87,0,0,1-.26.82,1.45,1.45,0,0,1-.77.48l-0.05,0a23.92,23.92,0,0,0-3.14,1.33L321,85.25a24,24,0,0,0-3.18,2.41l0,0a1.45,1.45,0,0,1-.79.44,1.81,1.81,0,0,1-.84-0.17l-4.25-1.27a28.29,28.29,0,0,0-4.15,5.68l-0.29.51a28.39,28.39,0,0,0-2.7,6.5l3.27,3a1.85,1.85,0,0,1,.58.64,1.46,1.46,0,0,1,0,.91V104a24.27,24.27,0,0,0-.4,3.38l0.1,2.88a24.25,24.25,0,0,0,.48,4v0.06a1.47,1.47,0,0,1,0,.91,1.85,1.85,0,0,1-.57.64L305,118.94a28.38,28.38,0,0,0,2.8,6.46l0.3,0.51a28.31,28.31,0,0,0,4.23,5.61l4.23-1.33a1.84,1.84,0,0,1,.84-0.18,1.45,1.45,0,0,1,.8.42l0,0a23.92,23.92,0,0,0,2.73,2.06l2.28,1.29a23.72,23.72,0,0,0,3.66,1.6l0.05,0a1.43,1.43,0,0,1,.77.48,1.86,1.86,0,0,1,.26.82l1,4.35"/></clipPath><clipPath id="clip-path-263"><path class="cls-1" d="M291,68.52h2.69V31.28L291,31.8V68.52"/></clipPath><clipPath id="clip-path-265"><path class="cls-1" d="M287.66,32.48c-2,.44-3.65.82-4.75,1.09v35h4.75v-36"/></clipPath><clipPath id="clip-path-267"><rect class="cls-2" x="296.6" y="151.11" width="2.55" height="3.28"/></clipPath><clipPath id="clip-path-269"><rect class="cls-2" x="282.73" y="151.11" width="11" height="3.28"/></clipPath><clipPath id="clip-path-271"><rect class="cls-2" x="296.6" y="155.84" width="2.55" height="3.28"/></clipPath><clipPath id="clip-path-273"><rect class="cls-2" x="282.73" y="155.84" width="11" height="3.28"/></clipPath><clipPath id="clip-path-275"><rect class="cls-2" x="352.06" y="151.11" width="2.55" height="3.28"/></clipPath><clipPath id="clip-path-277"><rect class="cls-2" x="338.19" y="151.11" width="11" height="3.28"/></clipPath><clipPath id="clip-path-279"><rect class="cls-2" x="352.06" y="155.84" width="2.55" height="3.28"/></clipPath><clipPath id="clip-path-281"><rect class="cls-2" x="338.19" y="155.84" width="11" height="3.28"/></clipPath><clipPath id="clip-path-283"><path class="cls-1" d="M425.8,138.63a15.64,15.64,0,0,0,9.08-14.3l-10.09,12.09,1,2.22"/></clipPath><clipPath id="clip-path-285"><path class="cls-1" d="M422.83,109.22l-5.43,6.87,8.29,1,1.27,3,4.57-5.38a15.42,15.42,0,0,0-8.71-5.52"/></clipPath><clipPath id="clip-path-287"><path class="cls-1" d="M415.14,134l-1.93-.24-3.41-8.08-4.36,5.51a15.42,15.42,0,0,0,6.33,6.77l3.37-4"/></clipPath><clipPath id="clip-path-289"><path class="cls-1" d="M423.9,139.35l0.82-.28L424,137.41l-2,2.41a15.63,15.63,0,0,0,1.95-.46"/></clipPath><clipPath id="clip-path-291"><path class="cls-1" d="M269.75,124.34c0-.14,0-0.28,0-0.42l-6.48,7.77,0,5.27a15.48,15.48,0,0,0,6.51-12.61"/></clipPath><clipPath id="clip-path-293"><path class="cls-1" d="M265.95,114.34l-0.24-.36-9.19-3.69-9.06,11.47,12.61,0,6.08-7.16-0.2-.31"/></clipPath><clipPath id="clip-path-295"><path class="cls-1" d="M353.14,102.34l-2.85-1.66V97.38l2.85-1.66L356,97.38v3.31Zm3.37,2.57A6.81,6.81,0,0,0,359,95.64a6.72,6.72,0,0,0-9.21-2.49,6.79,6.79,0,0,0-3.36,6.23L323.16,112.9a6.76,6.76,0,0,0-7.11-.15,6.85,6.85,0,0,0-3.32,6.57l4.83-2.85,2.86,1.64,0,3.31-4.83,2.85a6.76,6.76,0,0,0,7.32.29,6.85,6.85,0,0,0,3.34-6.35l23.2-13.48A6.7,6.7,0,0,0,356.52,104.91Z"/></clipPath><clipPath id="clip-path-297"><path class="cls-1" d="M322.26,97.43v3.31l-2.85,1.66-2.85-1.66V97.43l2.85-1.66Zm0.52-4.22a6.72,6.72,0,0,0-9.21,2.49A6.81,6.81,0,0,0,316,105a6.7,6.7,0,0,0,7-.19l23.25,13.51a6.85,6.85,0,0,0,3.43,6.27,6.76,6.76,0,0,0,7.32-.39l-4.87-2.79,0-3.31,2.84-1.67,4.87,2.79a6.85,6.85,0,0,0-3.41-6.53,6.76,6.76,0,0,0-7.14.26l-23.2-13.48A6.79,6.79,0,0,0,322.79,93.2Z"/></clipPath><clipPath id="clip-path-299"><path class="cls-1" d="M339.09,129.82l-2.85,1.66-2.85-1.66v-3.31l2.85-1.66,2.85,1.66v3.31Zm0.21-7.7v-27a6.85,6.85,0,0,0-.12-12.32l0,5.64-2.86,1.64-2.84-1.67,0-5.64a6.86,6.86,0,0,0-.31,12.31v27A6.74,6.74,0,1,0,339.3,122.12Z"/></clipPath><clipPath id="clip-path-301"><path class="cls-1" d="M306.31,37.54a11.24,11.24,0,1,0,10.8,11.23,11,11,0,0,0-10.8-11.23m0,1.19a10,10,0,1,1-9.62,10,9.85,9.85,0,0,1,9.62-10"/></clipPath><clipPath id="clip-path-303"><path class="cls-1" d="M367.39,37.54a11.24,11.24,0,1,0,10.8,11.23,11,11,0,0,0-10.8-11.23m0,1.19a10,10,0,1,1-9.62,10,9.85,9.85,0,0,1,9.62-10"/></clipPath><clipPath id="clip-path-305"><path class="cls-1" d="M291,81.29a4.12,4.12,0,1,0,3.94,4.12A4,4,0,0,0,291,81.29Zm0,9.42a5.31,5.31,0,1,1,5.12-5.31A5.22,5.22,0,0,1,291,90.71Z"/></clipPath><clipPath id="clip-path-307"><path class="cls-1" d="M291,134.45a4.12,4.12,0,1,0,3.94,4.12A4,4,0,0,0,291,134.45Zm0,9.42a5.31,5.31,0,1,1,5.12-5.31A5.22,5.22,0,0,1,291,143.87Z"/></clipPath><clipPath id="clip-path-309"><path class="cls-1" d="M382.72,81.29a4.12,4.12,0,1,0,3.94,4.12A4,4,0,0,0,382.72,81.29Zm0,9.42a5.31,5.31,0,1,1,5.12-5.31A5.22,5.22,0,0,1,382.72,90.71Z"/></clipPath><clipPath id="clip-path-311"><path class="cls-1" d="M382.72,134.45a4.12,4.12,0,1,0,3.94,4.12A4,4,0,0,0,382.72,134.45Zm0,9.42a5.31,5.31,0,1,1,5.12-5.31A5.22,5.22,0,0,1,382.72,143.87Z"/></clipPath><clipPath id="clip-path-313"><path class="cls-1" d="M414.61,131.93l-3.15-7.46L416.3,118l8,1,3.15,7.46-4.85,6.47Zm11.19,6.69-1.87-4.12,5.82-7.78-4.05-9.61-10.3-1.27-6.24,8.34,4.05,9.61,9.66,1.19,1.86,4.08-0.82.28a15.3,15.3,0,0,1-11.8-1.16A15.65,15.65,0,0,1,407.89,114l0.36-.4,10.7-4.75h0.72a15.47,15.47,0,0,1,14.53,11.05A15.65,15.65,0,0,1,425.8,138.63Zm-22.58-35.41,9.16-6.91a78.29,78.29,0,0,1,6.25,11.81l-10.5,4.66v0A40.31,40.31,0,0,0,403.21,103.22Zm-5.14-6,5.48-11.18a69,69,0,0,1,8.37,9.61l-9.18,6.93a61.2,61.2,0,0,0-4.55-5.22Zm-4.7.88h-0.28v-26h0.28c5.36,0,9.72,5.84,9.72,13v0.14l-5.68,11.6-0.59.31A6.67,6.67,0,0,1,393.37,98.12ZM338.19,156h52.75V159H338.19V156Zm0,5.29h62.22v16.17H338.19V161.24Zm-64.87,0h62.16v16.17H273.32V161.24Zm9.41-5.29h52.75V159H282.73V156Zm-6-58.52L276,97l-5.52-11.27V85.32c0-7.09,4.64-13.08,10.13-13.08V98.4A8.13,8.13,0,0,1,276.75,97.43Zm-6.09,5.67-9.1-6.87a63.28,63.28,0,0,1,8.35-9.8l5.43,11.09-0.17.18A44.47,44.47,0,0,0,270.66,103.1Zm-4.84,10,0,0L255,108.81h0a88.09,88.09,0,0,1,6.16-11.91l9.1,6.87A48.86,48.86,0,0,0,265.82,113.12Zm3.94,11.22A15.48,15.48,0,0,1,263.24,137l0-15.13-16-.06,0,15a14.78,14.78,0,0,1,6.59-27.18l0.74-.06L265.71,114l0.24,0.36C267.73,117.06,269.77,120.66,269.75,124.34ZM278,48.58c0-7.3.25-9.62,2.55-10.11V58.69C278.28,58.2,278,55.88,278,48.58Zm58.44-21.37a247.52,247.52,0,0,1,54.29,6.37V68.52H282.91v-35A237.67,237.67,0,0,1,336.47,27.21Zm0-5.18c9.66,0,14,.14,14.56,3.33-4.66-.3-9.54-0.49-14.56-0.49s-9.92.18-14.57,0.49C322.47,22.17,326.8,22,336.47,22Zm59.47,26.56c0,7.6-.26,9.81-2.85,10.16V38.42C395.67,38.77,395.94,41,395.94,48.58Zm-21,22.32h16v77.48h-16V70.9Zm-92.17,80.21h52.75v3.28H282.73v-3.28Zm0-80.21h16.42v77.48H282.73V70.9Zm18,0h72.65v77.48H300.7V70.9Zm37.49,80.21h52.75v3.28H338.19v-3.28Zm98.24-31.9a17.8,17.8,0,0,0-16-12.69c-4.8-10.59-8.08-14.94-15-21.92-0.21-8.24-5.53-14.87-12-14.87h-0.28v-8.6c5.21-.49,5.21-5.37,5.21-12.56s0-12.06-5.21-12.56V31.75a239.51,239.51,0,0,0-40.18-6.27c-0.29-3.22-2.73-4.2-4.6-4.65-2.72-.66-6.75-0.66-11.85-0.66s-9.13,0-11.85.66c-1.86.45-4.31,1.43-4.6,4.66a227.09,227.09,0,0,0-39.44,6.26v4.31c-4.91.65-4.92,5.47-4.92,12.52s0,11.87,4.92,12.52v8.47c-6.77,0-12.52,6.9-12.77,15.19-7.2,7.23-10.15,11.61-15,22.25a17.45,17.45,0,0,0-4.8,33.2l1.86,0.83,0-16.6,10.66,0-0.05,16.84,1.89-.87a17.68,17.68,0,0,0,9.95-16.1c0-4.12-2-7.94-3.87-10.9,2.47-6.32,3.76-8.77,7.9-13.22a10.66,10.66,0,0,0,4.15.84V159H271.1v20.64H402.64V159h-9.55V100.46h0.28a8.35,8.35,0,0,0,3.74-.85A35.48,35.48,0,0,1,405.69,113a18,18,0,0,0,5.32,27.3,17.61,17.61,0,0,0,13.58,1.33A18,18,0,0,0,436.44,119.21Z"/></clipPath><clipPath id="clip-path-315"><path class="cls-1" d="M336.47,56.55a42.47,42.47,0,0,1-13.94-2.47,1.78,1.78,0,0,1,1.27-3.33A39.6,39.6,0,0,0,336.47,53,48,48,0,0,0,350,50.73a1.78,1.78,0,0,1,1.14,3.38,51,51,0,0,1-14.69,2.44"/></clipPath><clipPath id="clip-path-317"><path class="cls-1" d="M329,141.08a27.94,27.94,0,0,0,7,.83h0.59a28,28,0,0,0,7-.83l1-4.35a1.87,1.87,0,0,1,.26-0.82,1.43,1.43,0,0,1,.77-0.48l0.05,0a23.67,23.67,0,0,0,3.13-1.32l2.69-1.6a23.93,23.93,0,0,0,3.18-2.41l0,0a1.44,1.44,0,0,1,.79-0.44,1.85,1.85,0,0,1,.84.17l4.25,1.27a28.24,28.24,0,0,0,4.15-5.68l0.29-.51a28.4,28.4,0,0,0,2.71-6.5l-3.27-3a1.89,1.89,0,0,1-.58-0.63,1.47,1.47,0,0,1,0-.91v-0.06a24.17,24.17,0,0,0,.4-3.38l-0.1-2.88a24.19,24.19,0,0,0-.48-4v-0.06a1.46,1.46,0,0,1,0-.91,1.86,1.86,0,0,1,.57-0.64l3.22-3.06a28.33,28.33,0,0,0-2.8-6.46l-0.3-.51a28.28,28.28,0,0,0-4.23-5.61l-4.23,1.33a1.84,1.84,0,0,1-.84.18,1.45,1.45,0,0,1-.8-0.42l0,0a23.92,23.92,0,0,0-2.73-2.06l-2.28-1.29a23.91,23.91,0,0,0-3.66-1.6l-0.05,0a1.45,1.45,0,0,1-.77-0.48,1.86,1.86,0,0,1-.26-0.82l-1-4.35a27.94,27.94,0,0,0-7-.83h-0.59a28,28,0,0,0-7,.83l-1,4.35a1.87,1.87,0,0,1-.26.82,1.45,1.45,0,0,1-.77.48l-0.05,0a23.92,23.92,0,0,0-3.14,1.33L321,85.25a24,24,0,0,0-3.18,2.41l0,0a1.45,1.45,0,0,1-.79.44,1.81,1.81,0,0,1-.84-0.17l-4.25-1.27a28.29,28.29,0,0,0-4.15,5.68l-0.29.51a28.39,28.39,0,0,0-2.7,6.5l3.27,3a1.85,1.85,0,0,1,.58.64,1.46,1.46,0,0,1,0,.91V104a24.27,24.27,0,0,0-.4,3.38l0.1,2.88a24.25,24.25,0,0,0,.48,4v0.06a1.47,1.47,0,0,1,0,.91,1.85,1.85,0,0,1-.57.64L305,118.94a28.38,28.38,0,0,0,2.8,6.46l0.3,0.51a28.31,28.31,0,0,0,4.23,5.61l4.23-1.33a1.84,1.84,0,0,1,.84-0.18,1.45,1.45,0,0,1,.8.42l0,0a23.92,23.92,0,0,0,2.73,2.06l2.28,1.29a23.72,23.72,0,0,0,3.66,1.6l0.05,0a1.43,1.43,0,0,1,.77.48,1.86,1.86,0,0,1,.26.82Zm7.54,2H336a29.11,29.11,0,0,1-7.59-1l-0.35-.09-1.18-5.16a1.68,1.68,0,0,0-.05-0.26l-0.17-.06-0.07,0a25,25,0,0,1-3.85-1.68l-2.32-1.31a25.16,25.16,0,0,1-2.9-2.18l-0.05,0-0.15-.12-0.25.09-0.07,0-5,1.56-0.25-.26a29.47,29.47,0,0,1-4.66-6.11l-0.3-.51a29.57,29.57,0,0,1-3-7.08l-0.1-.35,3.83-3.63,0.2-.18c0-.05,0-0.13,0-0.18l0-.07a25.56,25.56,0,0,1-.5-4.19l-0.1-2.93v0a25.31,25.31,0,0,1,.42-3.58v-0.07c0-.05,0-0.14,0-0.19l-0.21-.17-0.06,0-3.82-3.53,0.09-.35a29.58,29.58,0,0,1,2.91-7.12l0.29-.51a29.44,29.44,0,0,1,4.57-6.18l0.25-.26,5,1.51,0.25,0.09,0.14-.12,0.05,0a25.12,25.12,0,0,1,3.35-2.54l2.72-1.62a24.94,24.94,0,0,1,3.33-1.41l0.07,0,0.18-.07s0-.17,0-0.26V80.77l1.17-5.09,0.35-.09a29.11,29.11,0,0,1,7.59-1h0.59a29.11,29.11,0,0,1,7.6,1l0.35,0.09,1.18,5.16a1.79,1.79,0,0,0,.05.26l0.17,0.06,0.07,0a25,25,0,0,1,3.85,1.68l2.32,1.31a25.08,25.08,0,0,1,2.9,2.18l0.05,0,0.15,0.12,0.25-.09,0.07,0,5-1.56,0.25,0.26a29.46,29.46,0,0,1,4.66,6.11l0.3,0.51a29.62,29.62,0,0,1,3,7.08l0.1,0.35-3.83,3.63-0.2.18c0,0.05,0,.13,0,0.18l0,0.07a25.56,25.56,0,0,1,.5,4.19l0.1,2.93v0A25.43,25.43,0,0,1,365,114V114a1.94,1.94,0,0,0,0,.19l0.21,0.17,0.06,0L369,118l-0.09.35a29.6,29.6,0,0,1-2.91,7.13l-0.29.51a29.51,29.51,0,0,1-4.57,6.18l-0.25.26-5-1.51-0.25-.09-0.14.12-0.05,0a25.15,25.15,0,0,1-3.35,2.54l-2.76,1.64a24.94,24.94,0,0,1-3.3,1.39l-0.07,0-0.18.07s0,0.17,0,.26V137l-1.17,5.09-0.35.09A29.11,29.11,0,0,1,336.57,143.1Z"/></clipPath><clipPath id="clip-path-319"><path class="cls-1" d="M308.67,41.21l0.38-.88a8.67,8.67,0,0,0-3.18-.6c0,0.11,0,.93,0,1a7.9,7.9,0,0,1,2.79.45"/></clipPath><clipPath id="clip-path-321"><path class="cls-1" d="M312.84,43.19q-0.22-.28-0.45-0.55T311.75,42a8.75,8.75,0,0,0-1.54-1.12l-0.42.87a12.63,12.63,0,0,1,4.63,4.87,9.26,9.26,0,0,0-1.58-3.44"/></clipPath><clipPath id="clip-path-323"><path class="cls-1" d="M369.73,41.21l0.38-.88a8.67,8.67,0,0,0-3.18-.6c0,0.11,0,.93,0,1a7.9,7.9,0,0,1,2.79.45"/></clipPath><clipPath id="clip-path-325"><path class="cls-1" d="M373.89,43.19q-0.22-.28-0.45-0.55T372.81,42a8.75,8.75,0,0,0-1.54-1.12l-0.42.87a12.63,12.63,0,0,1,4.63,4.87,9.26,9.26,0,0,0-1.59-3.44"/></clipPath><clipPath id="clip-path-327"><path class="cls-1" d="M414.7,132.06l-3.15-7.47,4.85-6.48,8,1,3.15,7.47-4.85,6.48Zm11.2,6.7L424,134.64l5.83-7.79-4.06-9.62L415.49,116l-6.25,8.35,4.06,9.62,9.67,1.19,1.86,4.09-0.82.28a15.32,15.32,0,0,1-11.82-1.16A15.67,15.67,0,0,1,408,114.09l0.36-.4,10.71-4.75h0.72A15.48,15.48,0,0,1,434.32,120,15.66,15.66,0,0,1,425.9,138.77Zm-22.61-35.45,9.17-6.92a78.39,78.39,0,0,1,6.26,11.83l-10.52,4.67v0A40.36,40.36,0,0,0,403.29,103.32Zm-5.15-6,5.49-11.2A69.07,69.07,0,0,1,412,95.75l-9.19,6.94a61.27,61.27,0,0,0-4.55-5.23Zm-4.71.89h-0.28V72.15h0.28c5.37,0,9.73,5.85,9.73,13v0.14l-5.69,11.61-0.59.31A6.68,6.68,0,0,1,393.43,98.21Zm-55.24,57.9H391v3.06H338.2v-3.06Zm0,5.3h62.29v16.18H338.2V161.41Zm-64.95,0h62.23v16.18H273.25V161.41Zm9.42-5.3h52.81v3.06H282.67v-3.06Zm-6-58.59-0.77-.41-5.53-11.28V85.4c0-7.1,4.64-13.1,10.14-13.1V98.49A8.14,8.14,0,0,1,276.68,97.52Zm-6.1,5.67-9.11-6.88a63.36,63.36,0,0,1,8.36-9.81l5.44,11.1-0.17.18A44.52,44.52,0,0,0,270.58,103.2Zm-4.85,10,0,0-10.85-4.36h0A88.19,88.19,0,0,1,261,97l9.11,6.87A48.92,48.92,0,0,0,265.73,113.23Zm3.94,11.23a15.5,15.5,0,0,1-6.52,12.63l0-15.15-16-.06,0,15a14.8,14.8,0,0,1,6.59-27.21l0.74-.06,11.12,4.46,0.24,0.36C267.65,117.18,269.69,120.77,269.67,124.46ZM278,48.61c0-7.31.25-9.63,2.55-10.12V58.74C278.21,58.25,278,55.92,278,48.61Zm58.5-21.4a247.81,247.81,0,0,1,54.36,6.38v35h-108v-35A237.94,237.94,0,0,1,336.47,27.22Zm0-5.19c9.67,0,14,.14,14.58,3.33-4.66-.3-9.55-0.49-14.58-0.49s-9.93.18-14.58,0.49C322.46,22.17,326.79,22,336.47,22ZM396,48.61c0,7.61-.26,9.82-2.85,10.17V38.44C395.74,38.79,396,41,396,48.61ZM374.95,71H391v77.57H374.95V71Zm-92.28,80.3h52.81v3.28H282.67v-3.28Zm0-80.3h16.44v77.57H282.67V71Zm18,0h72.73v77.57H300.66V71Zm37.53,80.3H391v3.28H338.2v-3.28Zm98.36-31.94a17.82,17.82,0,0,0-16-12.7c-4.8-10.6-8.09-15-15.07-21.95-0.21-8.25-5.54-14.89-12.06-14.89h-0.28V61.19c5.22-.49,5.22-5.37,5.22-12.57s0-12.08-5.22-12.57V31.76a239.78,239.78,0,0,0-40.22-6.27c-0.29-3.23-2.74-4.2-4.6-4.66-2.72-.66-6.76-0.66-11.86-0.66s-9.14,0-11.86.66c-1.87.45-4.31,1.43-4.6,4.66a227.36,227.36,0,0,0-39.49,6.27v4.32c-4.92.65-4.92,5.48-4.92,12.54s0,11.89,4.92,12.54v8.47c-6.78,0-12.54,6.91-12.79,15.21-7.21,7.24-10.16,11.62-15,22.27A17.47,17.47,0,0,0,248,140.34l1.86,0.84,0-16.62,10.67,0-0.05,16.86,1.89-.87a17.71,17.71,0,0,0,10-16.12c0-4.13-2-7.95-3.87-10.91,2.47-6.32,3.76-8.78,7.91-13.24a10.67,10.67,0,0,0,4.15.84v58H271v20.66H402.71V159.17h-9.56V100.55h0.28a8.36,8.36,0,0,0,3.75-.85,35.52,35.52,0,0,1,8.59,13.36,18,18,0,0,0,5.32,27.33,17.63,17.63,0,0,0,13.59,1.33A18,18,0,0,0,436.55,119.33Z"/></clipPath><clipPath id="clip-path-328"><rect class="cls-2" x="231.71" y="-2.41" width="208.69" height="208.69"/></clipPath></defs><title>Corpsite_BrandingPage</title><rect id="Background" class="cls-3" width="225" height="200"/><g class="cls-4"><g class="cls-5"><rect class="cls-6" x="53.09" y="22.38" width="117.5" height="50.96"/></g></g><g class="cls-7"><g class="cls-5"><rect class="cls-8" x="108.37" y="146.29" width="62.4" height="12.93"/></g></g><g class="cls-9"><g class="cls-5"><rect class="cls-6" x="70.88" y="66.08" width="82.3" height="87.13"/></g></g><g class="cls-10"><g class="cls-5"><rect class="cls-11" x="64.24" y="31.21" width="34.13" height="35.1"/></g></g><g class="cls-12"><g class="cls-5"><rect class="cls-11" x="125.42" y="31.31" width="33.94" height="34.9"/></g></g><g class="cls-13"><g class="cls-5"><rect class="cls-8" x="52.91" y="146.29" width="62.4" height="12.93"/></g></g><g class="cls-14"><g class="cls-5"><rect class="cls-6" x="25.13" y="92.07" width="24.91" height="25.92"/></g></g><g class="cls-15"><g class="cls-5"><rect class="cls-6" x="31.73" y="81.6" width="23.43" height="26.32"/></g></g><g class="cls-16"><g class="cls-5"><rect class="cls-17" x="34.24" y="97.88" width="15.8" height="20.11"/></g></g><g class="cls-18"><g class="cls-5"><rect class="cls-17" x="31.73" y="90.56" width="23.43" height="17.37"/></g></g><g class="cls-19"><g class="cls-5"><rect class="cls-8" x="52.91" y="151.13" width="62.4" height="12.71"/></g></g><g class="cls-20"><g class="cls-5"><rect class="cls-8" x="108.37" y="151.13" width="62.4" height="12.71"/></g></g><g class="cls-21"><g class="cls-5"><rect class="cls-6" x="168.25" y="81.23" width="23.51" height="26.19"/></g></g><g class="cls-22"><g class="cls-5"><rect class="cls-17" x="168.25" y="90.24" width="23.51" height="17.18"/></g></g><g class="cls-23"><g class="cls-5"><rect class="cls-6" x="173.39" y="91.48" width="25.06" height="26.12"/></g></g><g class="cls-24"><g class="cls-5"><rect class="cls-17" x="173.39" y="97.23" width="25.06" height="20.37"/></g></g><g class="cls-25"><g class="cls-5"><rect class="cls-26" x="163.27" y="33.59" width="12.5" height="29.98"/></g></g><g class="cls-27"><g class="cls-5"><rect class="cls-28" x="163.27" y="46.83" width="12.47" height="16.74"/></g></g><g class="cls-29"><g class="cls-5"><rect class="cls-26" x="92.08" y="17.2" width="38.78" height="12.98"/></g></g><g class="cls-30"><g class="cls-5"><rect class="cls-28" x="92.08" y="17.47" width="14.9" height="12.71"/></g></g><g class="cls-31"><g class="cls-5"><rect class="cls-26" x="48.21" y="33.65" width="12.2" height="29.87"/></g></g><g class="cls-32"><g class="cls-5"><rect class="cls-28" x="48.26" y="47.92" width="12.14" height="15.6"/></g></g><g class="cls-33"><g class="cls-5"><rect class="cls-26" x="10.61" y="104.7" width="38.96" height="37.08"/></g></g><g class="cls-34"><g class="cls-5"><rect class="cls-26" x="40.63" y="67.41" width="19.78" height="35.81"/></g></g><g class="cls-35"><g class="cls-5"><rect class="cls-28" x="40.63" y="77.9" width="19.78" height="25.33"/></g></g><g class="cls-36"><g class="cls-5"><rect class="cls-26" x="163.27" y="67.25" width="19.65" height="35.69"/></g></g><g class="cls-37"><g class="cls-5"><rect class="cls-28" x="163.27" y="75.07" width="18.71" height="27.87"/></g></g><g class="cls-38"><g class="cls-5"><rect class="cls-26" x="174.06" y="104" width="40.65" height="40.86"/></g></g><g class="cls-39"><g class="cls-5"><rect class="cls-40" x="52.91" y="66.08" width="26.07" height="87.13"/></g></g><g class="cls-41"><g class="cls-5"><rect class="cls-40" x="145.08" y="66.08" width="25.69" height="87.13"/></g></g><g class="cls-42"><g class="cls-5"><rect class="cls-26" x="43.5" y="156.42" width="71.81" height="25.82"/></g></g><g class="cls-43"><g class="cls-5"><rect class="cls-26" x="108.37" y="156.42" width="71.87" height="25.82"/></g></g><g class="cls-44"><g class="cls-5"><rect class="cls-28" x="43.5" y="156.42" width="16.91" height="25.82"/></g></g><g class="cls-45"><g class="cls-5"><rect class="cls-28" x="54.78" y="156.42" width="12.71" height="25.82"/></g></g><g class="cls-46"><g class="cls-5"><rect class="cls-28" x="108.37" y="156.42" width="16.91" height="25.82"/></g></g><g class="cls-47"><g class="cls-5"><rect class="cls-28" x="119.65" y="156.42" width="12.71" height="25.82"/></g></g><g class="cls-48"><g class="cls-5"><rect class="cls-49" x="66.86" y="33.9" width="28.89" height="29.72"/></g></g><g class="cls-50"><g class="cls-5"><rect class="cls-51" x="66.86" y="36.84" width="26.11" height="26.78"/></g></g><g class="cls-52"><g class="cls-5"><rect class="cls-49" x="127.94" y="33.9" width="28.89" height="29.72"/></g></g><g class="cls-53"><g class="cls-5"><rect class="cls-51" x="127.94" y="36.54" width="26.07" height="27.09"/></g></g><g class="cls-54"><g class="cls-5"><rect class="cls-49" x="57.2" y="76.46" width="17.53" height="17.88"/></g></g><g class="cls-55"><g class="cls-5"><rect class="cls-49" x="57.2" y="129.62" width="17.53" height="17.88"/></g></g><g class="cls-56"><g class="cls-5"><rect class="cls-49" x="148.96" y="76.46" width="17.53" height="17.88"/></g></g><g class="cls-57"><g class="cls-5"><rect class="cls-49" x="148.96" y="129.62" width="17.53" height="17.88"/></g></g><g class="cls-58"><g class="cls-5"><rect class="cls-51" x="57.2" y="77.59" width="16.28" height="16.75"/></g></g><g class="cls-59"><g class="cls-5"><rect class="cls-51" x="57.2" y="130.73" width="16.35" height="16.78"/></g></g><g class="cls-60"><g class="cls-5"><rect class="cls-51" x="148.96" y="77.75" width="16.26" height="16.6"/></g></g><g class="cls-61"><g class="cls-5"><rect class="cls-51" x="148.96" y="130.77" width="16.18" height="16.74"/></g></g><g class="cls-62"><g class="cls-5"><rect class="cls-63" x="74.96" y="71" width="72.54" height="75.73"/></g></g><g class="cls-64"><g class="cls-5"><rect class="cls-17" x="61.14" y="26.46" width="12.34" height="46.89"/></g></g><g class="cls-65"><g class="cls-5"><rect class="cls-17" x="53.09" y="27.66" width="14.4" height="45.69"/></g></g><g class="cls-66"><g class="cls-5"><rect class="cls-11" x="66.77" y="146.29" width="12.2" height="12.93"/></g></g><g class="cls-67"><g class="cls-5"><rect class="cls-11" x="52.91" y="146.29" width="20.65" height="12.93"/></g></g><g class="cls-68"><g class="cls-5"><rect class="cls-11" x="66.77" y="151.02" width="12.2" height="12.93"/></g></g><g class="cls-69"><g class="cls-5"><rect class="cls-11" x="52.91" y="151.02" width="20.65" height="12.93"/></g></g><g class="cls-70"><g class="cls-5"><rect class="cls-11" x="122.24" y="146.29" width="12.2" height="12.93"/></g></g><g class="cls-71"><g class="cls-5"><rect class="cls-11" x="108.37" y="146.29" width="20.65" height="12.93"/></g></g><g class="cls-72"><g class="cls-5"><rect class="cls-11" x="122.24" y="151.02" width="12.2" height="12.93"/></g></g><g class="cls-73"><g class="cls-5"><rect class="cls-11" x="108.37" y="151.02" width="20.65" height="12.93"/></g></g><g class="cls-74"><g class="cls-5"><rect class="cls-28" x="194.97" y="119.5" width="19.74" height="23.95"/></g></g><g class="cls-75"><g class="cls-5"><rect class="cls-28" x="187.58" y="104.4" width="23.79" height="20.56"/></g></g><g class="cls-76"><g class="cls-5"><rect class="cls-28" x="175.62" y="120.9" width="19.35" height="21.94"/></g></g><g class="cls-77"><g class="cls-5"><rect class="cls-28" x="192.13" y="132.58" width="12.42" height="12.06"/></g></g><g class="cls-78"><g class="cls-5"><rect class="cls-28" x="33.42" y="119.1" width="16.16" height="22.68"/></g></g><g class="cls-79"><g class="cls-5"><rect class="cls-28" x="17.63" y="105.46" width="28.34" height="21.17"/></g></g><g class="cls-80"><g class="cls-5"><rect class="cls-81" x="82.87" y="87.42" width="56.84" height="42.9"/></g></g><g class="cls-82"><g class="cls-5"><rect class="cls-83" x="82.84" y="87.47" width="56.9" height="42.81"/></g></g><g class="cls-84"><g class="cls-5"><rect class="cls-85" x="99.67" y="77.97" width="23.25" height="61.81"/></g></g><g class="cls-86"><g class="cls-5"><rect class="cls-87" x="65.68" y="32.71" width="31.25" height="32.11"/></g></g><g class="cls-88"><g class="cls-5"><rect class="cls-87" x="126.76" y="32.71" width="31.25" height="32.11"/></g></g><g class="cls-89"><g class="cls-5"><rect class="cls-87" x="56.02" y="75.27" width="19.9" height="20.26"/></g></g><g class="cls-90"><g class="cls-5"><rect class="cls-87" x="56.02" y="128.43" width="19.9" height="20.26"/></g></g><g class="cls-91"><g class="cls-5"><rect class="cls-87" x="147.77" y="75.27" width="19.9" height="20.26"/></g></g><g class="cls-92"><g class="cls-5"><rect class="cls-87" x="147.77" y="128.43" width="19.9" height="20.26"/></g></g><g class="cls-93"><g class="cls-5"><rect class="cls-87" x="7.96" y="15.35" width="209.08" height="169.12"/></g></g><g class="cls-94"><g class="cls-5"><rect class="cls-87" x="91.57" y="45.81" width="40.62" height="15.57"/></g></g><g class="cls-95"><g class="cls-5"><rect class="cls-87" x="73.63" y="69.81" width="75.2" height="78.11"/></g></g><g class="cls-96"><g class="cls-5"><rect class="cls-97" x="76.05" y="34.9" width="12.84" height="11.14"/></g></g><g class="cls-98"><g class="cls-5"><rect class="cls-97" x="79.97" y="36.06" width="14.28" height="15.39"/></g></g><g class="cls-99"><g class="cls-5"><rect class="cls-97" x="137.1" y="34.9" width="12.84" height="11.14"/></g></g><g class="cls-100"><g class="cls-5"><rect class="cls-97" x="141.02" y="36.06" width="14.28" height="15.39"/></g></g><g class="cls-101"><g class="cls-102"><rect class="cls-87" x="7.84" y="15.34" width="209.32" height="169.32"/></g></g><g class="cls-103"><g class="cls-104"><rect class="cls-6" x="278.09" y="22.38" width="117.5" height="50.96"/></g></g><g class="cls-105"><g class="cls-104"><rect class="cls-8" x="333.37" y="146.29" width="62.4" height="12.93"/></g></g><g class="cls-106"><g class="cls-104"><rect class="cls-6" x="295.88" y="66.08" width="82.3" height="87.13"/></g></g><g class="cls-107"><g class="cls-104"><rect class="cls-11" x="289.24" y="31.21" width="34.13" height="35.1"/></g></g><g class="cls-108"><g class="cls-104"><rect class="cls-11" x="350.42" y="31.31" width="33.94" height="34.9"/></g></g><g class="cls-109"><g class="cls-104"><rect class="cls-8" x="277.91" y="146.29" width="62.4" height="12.93"/></g></g><g class="cls-110"><g class="cls-104"><rect class="cls-6" x="250.13" y="92.07" width="24.91" height="25.92"/></g></g><g class="cls-111"><g class="cls-104"><rect class="cls-6" x="256.73" y="81.6" width="23.43" height="26.32"/></g></g><g class="cls-112"><g class="cls-104"><rect class="cls-17" x="259.24" y="97.88" width="15.8" height="20.11"/></g></g><g class="cls-113"><g class="cls-104"><rect class="cls-17" x="256.73" y="90.56" width="23.43" height="17.37"/></g></g><g class="cls-114"><g class="cls-104"><rect class="cls-8" x="277.91" y="151.13" width="62.4" height="12.71"/></g></g><g class="cls-115"><g class="cls-104"><rect class="cls-8" x="333.37" y="151.13" width="62.4" height="12.71"/></g></g><g class="cls-116"><g class="cls-104"><rect class="cls-6" x="393.25" y="81.23" width="23.51" height="26.19"/></g></g><g class="cls-117"><g class="cls-104"><rect class="cls-17" x="393.25" y="90.24" width="23.51" height="17.18"/></g></g><g class="cls-118"><g class="cls-104"><rect class="cls-6" x="398.39" y="91.48" width="25.06" height="26.12"/></g></g><g class="cls-119"><g class="cls-104"><rect class="cls-17" x="398.39" y="97.23" width="25.06" height="20.37"/></g></g><g class="cls-120"><g class="cls-104"><rect class="cls-26" x="388.27" y="33.59" width="12.5" height="29.98"/></g></g><g class="cls-121"><g class="cls-104"><rect class="cls-28" x="388.27" y="46.83" width="12.47" height="16.74"/></g></g><g class="cls-122"><g class="cls-104"><rect class="cls-26" x="317.08" y="17.2" width="38.78" height="12.98"/></g></g><g class="cls-123"><g class="cls-104"><rect class="cls-28" x="317.08" y="17.47" width="14.9" height="12.71"/></g></g><g class="cls-124"><g class="cls-104"><rect class="cls-26" x="273.21" y="33.65" width="12.2" height="29.87"/></g></g><g class="cls-125"><g class="cls-104"><rect class="cls-28" x="273.26" y="47.92" width="12.14" height="15.6"/></g></g><g class="cls-126"><g class="cls-104"><rect class="cls-26" x="235.61" y="104.7" width="38.96" height="37.08"/></g></g><g class="cls-127"><g class="cls-104"><rect class="cls-26" x="265.63" y="67.41" width="19.78" height="35.81"/></g></g><g class="cls-128"><g class="cls-104"><rect class="cls-28" x="265.63" y="77.9" width="19.78" height="25.33"/></g></g><g class="cls-129"><g class="cls-104"><rect class="cls-26" x="388.27" y="67.25" width="19.65" height="35.69"/></g></g><g class="cls-130"><g class="cls-104"><rect class="cls-28" x="388.27" y="75.07" width="18.71" height="27.87"/></g></g><g class="cls-131"><g class="cls-104"><rect class="cls-26" x="399.06" y="104" width="40.65" height="40.86"/></g></g><g class="cls-132"><g class="cls-104"><rect class="cls-40" x="277.91" y="66.08" width="26.07" height="87.13"/></g></g><g class="cls-133"><g class="cls-104"><rect class="cls-40" x="370.08" y="66.08" width="25.69" height="87.13"/></g></g><g class="cls-134"><g class="cls-104"><rect class="cls-26" x="268.5" y="156.42" width="71.81" height="25.82"/></g></g><g class="cls-135"><g class="cls-104"><rect class="cls-26" x="333.37" y="156.42" width="71.87" height="25.82"/></g></g><g class="cls-136"><g class="cls-104"><rect class="cls-28" x="268.5" y="156.42" width="16.91" height="25.82"/></g></g><g class="cls-137"><g class="cls-104"><rect class="cls-28" x="279.78" y="156.42" width="12.71" height="25.82"/></g></g><g class="cls-138"><g class="cls-104"><rect class="cls-28" x="333.37" y="156.42" width="16.91" height="25.82"/></g></g><g class="cls-139"><g class="cls-104"><rect class="cls-28" x="344.65" y="156.42" width="12.71" height="25.82"/></g></g><g class="cls-140"><g class="cls-104"><rect class="cls-49" x="291.86" y="33.9" width="28.89" height="29.72"/></g></g><g class="cls-141"><g class="cls-104"><rect class="cls-51" x="291.86" y="36.84" width="26.11" height="26.78"/></g></g><g class="cls-142"><g class="cls-104"><rect class="cls-49" x="352.94" y="33.9" width="28.89" height="29.72"/></g></g><g class="cls-143"><g class="cls-104"><rect class="cls-51" x="352.94" y="36.54" width="26.07" height="27.09"/></g></g><g class="cls-144"><g class="cls-104"><rect class="cls-49" x="282.2" y="76.46" width="17.53" height="17.88"/></g></g><g class="cls-145"><g class="cls-104"><rect class="cls-49" x="282.2" y="129.62" width="17.53" height="17.88"/></g></g><g class="cls-146"><g class="cls-104"><rect class="cls-49" x="373.96" y="76.46" width="17.53" height="17.88"/></g></g><g class="cls-147"><g class="cls-104"><rect class="cls-49" x="373.96" y="129.62" width="17.53" height="17.88"/></g></g><g class="cls-148"><g class="cls-104"><rect class="cls-51" x="282.2" y="77.59" width="16.28" height="16.75"/></g></g><g class="cls-149"><g class="cls-104"><rect class="cls-51" x="282.2" y="130.73" width="16.35" height="16.78"/></g></g><g class="cls-150"><g class="cls-104"><rect class="cls-51" x="373.96" y="77.75" width="16.26" height="16.6"/></g></g><g class="cls-151"><g class="cls-104"><rect class="cls-51" x="373.96" y="130.77" width="16.18" height="16.74"/></g></g><g class="cls-152"><g class="cls-104"><rect class="cls-63" x="299.96" y="71" width="72.54" height="75.73"/></g></g><g class="cls-153"><g class="cls-104"><rect class="cls-17" x="286.14" y="26.46" width="12.34" height="46.89"/></g></g><g class="cls-154"><g class="cls-104"><rect class="cls-17" x="278.09" y="27.66" width="14.4" height="45.69"/></g></g><g class="cls-155"><g class="cls-104"><rect class="cls-11" x="291.77" y="146.29" width="12.2" height="12.93"/></g></g><g class="cls-156"><g class="cls-104"><rect class="cls-11" x="277.91" y="146.29" width="20.65" height="12.93"/></g></g><g class="cls-157"><g class="cls-104"><rect class="cls-11" x="291.77" y="151.02" width="12.2" height="12.93"/></g></g><g class="cls-158"><g class="cls-104"><rect class="cls-11" x="277.91" y="151.02" width="20.65" height="12.93"/></g></g><g class="cls-159"><g class="cls-104"><rect class="cls-11" x="347.24" y="146.29" width="12.2" height="12.93"/></g></g><g class="cls-160"><g class="cls-104"><rect class="cls-11" x="333.37" y="146.29" width="20.65" height="12.93"/></g></g><g class="cls-161"><g class="cls-104"><rect class="cls-11" x="347.24" y="151.02" width="12.2" height="12.93"/></g></g><g class="cls-162"><g class="cls-104"><rect class="cls-11" x="333.37" y="151.02" width="20.65" height="12.93"/></g></g><g class="cls-163"><g class="cls-104"><rect class="cls-28" x="419.97" y="119.5" width="19.74" height="23.95"/></g></g><g class="cls-164"><g class="cls-104"><rect class="cls-28" x="412.58" y="104.4" width="23.79" height="20.56"/></g></g><g class="cls-165"><g class="cls-104"><rect class="cls-28" x="400.62" y="120.9" width="19.35" height="21.94"/></g></g><g class="cls-166"><g class="cls-104"><rect class="cls-28" x="417.13" y="132.58" width="12.42" height="12.06"/></g></g><g class="cls-167"><g class="cls-104"><rect class="cls-28" x="258.42" y="119.1" width="16.16" height="22.68"/></g></g><g class="cls-168"><g class="cls-104"><rect class="cls-28" x="242.63" y="105.46" width="28.34" height="21.17"/></g></g><g class="cls-169"><g class="cls-104"><rect class="cls-81" x="307.87" y="87.42" width="56.84" height="42.9"/></g></g><g class="cls-170"><g class="cls-104"><rect class="cls-83" x="307.84" y="87.47" width="56.9" height="42.81"/></g></g><g class="cls-171"><g class="cls-104"><rect class="cls-85" x="324.67" y="77.97" width="23.25" height="61.81"/></g></g><g class="cls-172"><g class="cls-104"><rect class="cls-87" x="290.68" y="32.71" width="31.25" height="32.11"/></g></g><g class="cls-173"><g class="cls-104"><rect class="cls-87" x="351.76" y="32.71" width="31.25" height="32.11"/></g></g><g class="cls-174"><g class="cls-104"><rect class="cls-87" x="281.02" y="75.27" width="19.9" height="20.26"/></g></g><g class="cls-175"><g class="cls-104"><rect class="cls-87" x="281.02" y="128.43" width="19.9" height="20.26"/></g></g><g class="cls-176"><g class="cls-104"><rect class="cls-87" x="372.77" y="75.27" width="19.9" height="20.26"/></g></g><g class="cls-177"><g class="cls-104"><rect class="cls-87" x="372.77" y="128.43" width="19.9" height="20.26"/></g></g><g class="cls-178"><g class="cls-104"><rect class="cls-87" x="232.96" y="15.35" width="209.08" height="169.12"/></g></g><g class="cls-179"><g class="cls-104"><rect class="cls-87" x="316.57" y="45.81" width="40.62" height="15.57"/></g></g><g class="cls-180"><g class="cls-104"><rect class="cls-87" x="298.63" y="69.81" width="75.2" height="78.11"/></g></g><g class="cls-181"><g class="cls-104"><rect class="cls-97" x="301.05" y="34.9" width="12.84" height="11.14"/></g></g><g class="cls-182"><g class="cls-104"><rect class="cls-97" x="304.97" y="36.06" width="14.28" height="15.39"/></g></g><g class="cls-183"><g class="cls-104"><rect class="cls-97" x="362.1" y="34.9" width="12.84" height="11.14"/></g></g><g class="cls-184"><g class="cls-104"><rect class="cls-97" x="366.02" y="36.06" width="14.28" height="15.39"/></g></g><g class="cls-185"><g class="cls-186"><rect class="cls-87" x="232.84" y="15.34" width="209.32" height="169.32"/></g></g></svg>