<?xml version="1.0" encoding="UTF-8" standalone="no"?>
<svg width="1500px" height="950px" viewBox="0 0 1500 950" version="1.1" xmlns="http://www.w3.org/2000/svg" xmlns:xlink="http://www.w3.org/1999/xlink" style="background: #FFFFFF;">
    <!-- Generator: Sketch 39.1 (31720) - http://www.bohemiancoding.com/sketch -->
    <title>monitoring2</title>
    <desc>Created with Sketch.</desc>
    <defs>
        <polygon id="path-1" points="0 647.384795 648.875343 647.384795 648.875343 0 0 0"></polygon>
    </defs>
    <g id="Corp-Site-Index" stroke="none" stroke-width="1" fill="none" fill-rule="evenodd">
        <g id="monitoring2">
            <g id="Group" transform="translate(777.000000, 188.000000)">
                <g id="Page-1">
                    <path d="M268.114253,611.391357 C238.332302,605.256619 210.216714,594.555166 184.533491,580.052962 L268.114253,611.391357 L268.114253,611.391357 Z" id="Stroke-1" stroke="#221F20" stroke-width="8" stroke-linecap="round"></path>
                    <path d="M491.632381,566.102674 C465.095925,584.439716 435.353078,598.466701 403.415485,607.173036" id="Stroke-3" stroke="#221F20" stroke-width="8" stroke-linecap="round"></path>
                    <path d="M612.014966,381.056759 C605.454796,416.080609 592.599148,448.88677 574.668216,478.255111" id="Stroke-5" stroke="#221F20" stroke-width="8" stroke-linecap="round"></path>
                    <path d="M565.372686,162.154389 C590.334019,198.113639 607.369608,239.989066 613.94983,285.253186" id="Stroke-7" stroke="#221F20" stroke-width="8" stroke-linecap="round"></path>
                    <path d="M388.244979,43.8044756 C426.501109,52.0355916 461.953902,67.813067 492.968077,89.5007042" id="Stroke-9" stroke="#221F20" stroke-width="8" stroke-linecap="round"></path>
                    <path d="M40.7135622,280.210048 C45.9151767,248.380393 56.2983533,218.292205 70.9687511,190.840781" id="Stroke-11" stroke="#221F20" stroke-width="8" stroke-linecap="round"></path>
                    <path d="M86.4377391,489.492138 C62.9823478,454.776078 46.847116,414.709291 40.245838,371.505456" id="Stroke-13" stroke="#221F20" stroke-width="8" stroke-linecap="round"></path>
                    <path d="M577.681403,146.373706 L497.769243,167.647281 C494.305177,168.569647 490.750874,166.509361 489.82846,163.046478 L476.849489,114.296415 C475.927075,110.833531 477.987467,107.279414 481.450531,106.357047 L561.363693,85.0834723 C564.826757,84.1611061 568.382063,86.2213915 569.303475,89.6842752 L582.282445,138.433336 C583.20486,141.897222 581.144467,145.451339 577.681403,146.373706 L577.681403,146.373706 Z" id="Stroke-15" stroke="#221F20" stroke-width="4"></path>
                    <polygon id="Stroke-17" stroke="#221F20" stroke-width="2" stroke-linejoin="round" points="565.42372 119.735368 495.774422 138.276934 489.48496 114.654333 559.134258 96.1127668"></polygon>
                    <polygon id="Stroke-19" stroke="#221F20" stroke-width="2" stroke-linejoin="round" points="531.904989 146.305932 500.161906 154.756611 497.423739 144.470222 529.166822 136.019543"></polygon>
                    <polygon id="Stroke-21" stroke="#221F20" stroke-width="2" stroke-linejoin="round" points="550.54989 141.342398 534.678348 145.567237 531.940181 135.280848 547.811723 131.05601"></polygon>
                    <polygon id="Stroke-23" stroke="#221F20" stroke-width="2" stroke-linejoin="round" points="569.811204 136.214744 553.939662 140.439582 551.201495 130.153194 567.073037 125.928355"></polygon>
                    <path d="M501.761493,130.170638 C501.981067,130.211744 502.227713,130.199713 502.498421,130.126525 C502.76913,130.05434 502.988705,129.943055 503.157146,129.793671 C503.326589,129.645291 503.445901,129.482874 503.515082,129.307424 C503.584263,129.131974 503.618353,128.915418 503.616347,128.657757 C503.615345,128.401099 503.592284,128.158477 503.549172,127.931895 C503.506059,127.705314 503.443896,127.436625 503.359676,127.120814 C503.267434,126.773925 503.163161,126.470145 503.046857,126.208474 C502.930552,125.9458 502.786175,125.70418 502.611718,125.483614 C502.436259,125.264051 502.224705,125.113665 501.978059,125.034462 C501.730411,124.956262 501.451682,124.957264 501.143876,125.039475 C500.835068,125.121686 500.590428,125.260041 500.412963,125.45053 C500.235499,125.644026 500.124207,125.87963 500.079089,126.154335 C500.032968,126.431045 500.024947,126.711765 500.055026,126.995493 C500.084102,127.281226 500.146265,127.599041 500.240512,127.950944 C500.322727,128.266754 500.404942,128.533438 500.484149,128.753002 C500.562354,128.972565 500.664622,129.195136 500.791955,129.418709 C500.918286,129.644288 501.056648,129.813723 501.206039,129.931024 C501.35543,130.04632 501.541918,130.12853 501.761493,130.170638 M500.613488,123.04937 C500.884196,122.977184 501.094748,122.854871 501.243136,122.682428 C501.391524,122.508983 501.47775,122.292428 501.50081,122.033764 C501.524873,121.774098 501.51986,121.522453 501.486774,121.274817 C501.451682,121.03019 501.392527,120.744457 501.306301,120.419623 C500.937336,119.033066 500.318716,118.454582 499.452449,118.685174 C498.575153,118.918773 498.319484,119.729854 498.688449,121.116411 C498.774675,121.441244 498.866916,121.719959 498.965174,121.951553 C499.061426,122.185153 499.183746,122.405718 499.333137,122.616259 C499.481525,122.826799 499.663,122.969164 499.876559,123.046362 C500.092123,123.121555 500.336764,123.12356 500.613488,123.04937 M502.95261,131.832903 C501.673262,132.173777 500.647577,132.050461 499.874554,131.462954 C499.099525,130.878454 498.529032,129.891923 498.159064,128.505366 C497.918434,127.599041 497.849253,126.841097 497.951521,126.224515 C498.054791,125.607933 498.335526,125.049501 498.794728,124.551222 C498.234261,124.323639 497.776061,123.981762 497.417122,123.524589 C497.05718,123.070424 496.77444,122.455847 496.567899,121.680859 C496.249065,120.478775 496.288167,119.470188 496.685206,118.656099 C497.084251,117.843013 497.854266,117.282576 498.99826,116.978796 C500.135236,116.67602 501.078706,116.78129 501.825661,117.291599 C502.574621,117.803913 503.108017,118.658104 503.426851,119.855175 C503.634395,120.635176 503.696557,121.309907 503.61334,121.880371 C503.531124,122.451837 503.303529,122.975179 502.930552,123.449396 C503.572232,123.660939 504.092594,124.010836 504.487628,124.497084 C504.884667,124.983331 505.202499,125.673101 505.440121,126.567395 C505.809087,127.953952 505.806079,129.092874 505.429092,129.98416 C505.0501,130.877452 504.225943,131.494034 502.95261,131.832903" id="Fill-25" fill="#221F20"></path>
                    <path d="M510.379148,127.793941 C510.628802,127.88317 510.903521,127.889186 511.2013,127.809982 C511.498077,127.730779 511.733694,127.589417 511.906145,127.386897 C512.078596,127.184378 512.185877,126.938747 512.226985,126.649004 C512.270097,126.357256 512.276113,126.063502 512.24804,125.760725 C512.218964,125.455943 512.158806,125.13512 512.06857,124.794246 C512.014428,124.587716 511.973321,124.43332 511.944245,124.327047 C511.916171,124.220775 511.872056,124.071392 511.811898,123.8799 C511.750738,123.685401 511.70161,123.539026 511.660502,123.436763 C511.617389,123.334501 511.563247,123.206172 511.496072,123.049771 C511.427893,122.894372 511.363725,122.776069 511.301562,122.696865 C511.240402,122.61666 511.164203,122.524423 511.074969,122.41815 C510.984733,122.310875 510.894497,122.23468 510.801253,122.189564 C510.708009,122.144448 510.603736,122.103343 510.489437,122.064242 C510.374135,122.025142 510.247804,122.010104 510.111448,122.018124 C509.973085,122.02414 509.82971,122.049204 509.679316,122.089307 C509.006556,122.268767 508.578435,122.753009 508.393952,123.544039 L508.948403,125.624376 C509.040645,125.971265 509.149931,126.282063 509.275259,126.555765 C509.400587,126.83047 509.551983,127.082115 509.732456,127.313709 C509.912928,127.543298 510.128492,127.704712 510.379148,127.793941 M511.655489,129.51636 C511.157185,129.6487 510.681941,129.68379 510.23076,129.624638 C509.779579,129.565486 509.376524,129.425126 509.018587,129.207568 C508.662655,128.99001 508.333795,128.702272 508.032005,128.343351 C507.731218,127.986435 507.473543,127.582399 507.260987,127.130239 C507.047428,126.681086 506.870966,126.189826 506.730599,125.658463 L505.484337,120.978457 C505.324919,120.382929 505.213628,119.822491 505.14946,119.296141 C505.085292,118.770793 505.077271,118.254469 505.127402,117.745162 C505.177534,117.235856 505.294841,116.782693 505.479324,116.384672 C505.662804,115.987654 505.942536,115.637756 506.317517,115.334979 C506.692499,115.032202 507.153706,114.808629 507.701139,114.662253 C508.870199,114.350454 509.857784,114.443693 510.662891,114.938963 C511.467998,115.436239 512.03047,116.28241 512.349305,117.479481 L510.26886,118.033903 C510.083374,117.340123 509.833721,116.850868 509.515889,116.56313 C509.198057,116.276394 508.744871,116.211227 508.155328,116.368631 C507.114604,116.646343 506.871969,117.824365 507.425417,119.904702 L507.978866,121.985039 C508.195433,121.185989 508.797007,120.653624 509.782587,120.39095 C510.368119,120.234549 510.893494,120.203469 511.362723,120.295705 C511.831951,120.389947 512.233,120.599485 512.565872,120.924318 C512.898743,121.250154 513.181483,121.641157 513.413089,122.095322 C513.643693,122.55049 513.844218,123.091879 514.010653,123.719489 C514.192128,124.40224 514.290385,125.044889 514.306427,125.647435 C514.321467,126.24998 514.247272,126.813426 514.08585,127.337771 C513.923425,127.862116 513.637677,128.313274 513.228606,128.692246 C512.819536,129.071218 512.29416,129.345923 511.655489,129.51636" id="Fill-27" fill="#221F20"></path>
                    <polygon id="Fill-29" fill="#221F20" points="517.40975 127.827227 516.658784 114.288495 512.815726 115.311118 512.354518 113.578674 518.18177 112.027695 518.447466 113.028262 519.40798 127.294861"></polygon>
                    <polygon id="Fill-31" fill="#221F20" points="521.608239 122.811459 521.193152 121.251457 524.313319 120.421328 524.729408 121.98133"></polygon>
                    <path d="M530.084424,124.609873 C528.790036,124.954758 527.769365,124.836454 527.02241,124.254962 C526.275455,123.672468 525.714988,122.674909 525.339004,121.261283 L527.418446,120.70686 L527.504672,121.031694 C527.578866,121.308403 527.652058,121.547016 527.725249,121.744522 C527.797438,121.942029 527.891685,122.139536 528.003979,122.34005 C528.119281,122.537557 528.243606,122.69095 528.37896,122.797223 C528.514315,122.902493 528.68075,122.976683 528.877264,123.016786 C529.073779,123.057892 529.291348,123.045861 529.529973,122.981696 C529.718466,122.93257 529.883899,122.863393 530.027274,122.776169 C530.168645,122.687942 530.286954,122.596708 530.380198,122.498456 C530.473442,122.401207 530.545631,122.275885 530.59877,122.122492 C530.648902,121.970101 530.689006,121.831746 530.71708,121.705422 C530.743148,121.579098 530.750167,121.411668 530.73613,121.208146 C530.723096,121.002619 530.708056,120.831179 530.690009,120.693827 C530.673967,120.555472 530.639878,120.365986 530.586739,120.120356 C530.532597,119.876731 530.489484,119.68925 530.45339,119.555908 C530.418298,119.423568 530.365159,119.225059 530.294975,118.959377 C530.262891,118.841074 530.239831,118.74984 530.223789,118.690688 C530.161626,118.458091 530.105479,118.259582 530.055348,118.09516 C530.006219,117.931741 529.944057,117.756291 529.867857,117.571818 C529.793663,117.384337 529.716461,117.231946 529.638256,117.113642 C529.559049,116.995339 529.465805,116.882048 529.355516,116.772768 C529.245228,116.661482 529.124913,116.585287 528.997579,116.536161 C528.869243,116.491045 528.717847,116.464978 528.545396,116.46197 C528.37495,116.456958 528.188462,116.482022 527.986934,116.536161 C527.618971,116.634413 527.331218,116.837935 527.123675,117.148732 C526.916131,117.45953 526.793811,117.792383 526.755712,118.152307 L524.983072,118.623516 L522.893603,110.77438 L529.330451,109.059981 L529.883899,111.140318 L525.332988,112.352428 L526.142106,115.913564 C526.634394,115.412278 527.282089,115.053357 528.084189,114.839809 C528.555422,114.714487 528.989558,114.675387 529.388603,114.723511 C529.787647,114.770631 530.136561,114.88693 530.435343,115.076416 C530.734125,115.262894 531.007841,115.521558 531.253484,115.849399 C531.502135,116.179245 531.710681,116.540171 531.883132,116.934182 C532.054581,117.330198 532.207982,117.77935 532.341331,118.283644 C532.508769,118.906241 532.626077,119.47871 532.695258,120.000047 C532.763436,120.519379 532.77647,121.036706 532.732355,121.547016 C532.688239,122.056322 532.572937,122.505474 532.385447,122.891465 C532.197956,123.27946 531.911205,123.62234 531.525195,123.924114 C531.139185,124.228896 530.657925,124.456479 530.084424,124.609873" id="Fill-33" fill="#221F20"></path>
                    <path d="M538.544467,122.358397 C537.362373,122.672202 536.37178,122.579965 535.572689,122.08269 C534.772595,121.585414 534.214133,120.737238 533.895299,119.54117 L533.755934,119.020835 L535.836379,118.466413 C535.922605,118.790243 536.006825,119.065951 536.087035,119.292532 C536.166242,119.517108 536.269513,119.741684 536.394841,119.96225 C536.522174,120.184821 536.657528,120.35225 536.803911,120.466544 C536.950295,120.581839 537.134777,120.659038 537.353349,120.700143 C537.572924,120.739243 537.817565,120.724205 538.089276,120.65202 C538.358982,120.579834 538.581564,120.471557 538.751008,120.328189 C538.921454,120.182816 539.040766,120.025412 539.112955,119.85297 C539.181133,119.680527 539.217228,119.467982 539.215223,119.212326 C539.21422,118.95667 539.193165,118.712043 539.150052,118.476438 C539.107942,118.240834 539.043774,117.960114 538.957548,117.636283 C538.734966,116.802143 538.403097,116.203608 537.959937,115.838671 C537.518782,115.473735 536.926232,115.392527 536.185292,115.589031 L535.630841,113.508694 C536.389828,113.30818 536.884121,113.010416 537.114725,112.6144 C537.346331,112.218384 537.360368,111.638897 537.157838,110.87594 C536.973355,110.188176 536.721696,109.699923 536.400856,109.411182 C536.081019,109.121439 535.627833,109.054267 535.044306,109.210668 C534.772595,109.282853 534.552017,109.390128 534.380569,109.535501 C534.210123,109.678869 534.089808,109.837275 534.019624,110.008715 C533.94944,110.18216 533.915351,110.394705 533.917356,110.650361 C533.918359,110.90702 533.939414,111.150645 533.981524,111.386249 C534.02564,111.621854 534.088805,111.901571 534.175031,112.225402 L532.095588,112.779824 L531.956223,112.260492 C531.639394,111.069436 531.704565,110.054834 532.152738,109.222699 C532.601913,108.389562 533.413036,107.817093 534.589114,107.50429 C535.769203,107.189483 536.759796,107.282722 537.55989,107.778995 C538.358982,108.277273 538.919449,109.124447 539.236278,110.321518 C539.456855,111.144629 539.451842,111.870491 539.224246,112.496096 C538.996651,113.122704 538.584572,113.622987 537.988011,113.996947 C538.724939,114.044068 539.35559,114.330803 539.874949,114.859159 C540.396314,115.387514 540.783327,116.128415 541.037994,117.081861 C541.400944,118.446361 541.390917,119.585283 541.004907,120.492611 C540.620902,121.401943 539.799753,122.023538 538.544467,122.358397" id="Fill-35" fill="#221F20"></path>
                    <path d="M546.5802,118.39132 C547.620923,118.11461 547.910682,117.10903 547.448472,115.375583 L545.787124,109.134573 C545.709922,108.842824 545.627707,108.584161 545.546494,108.358582 C545.462274,108.134006 545.356998,107.914443 545.225654,107.694879 C545.09431,107.478324 544.95294,107.306884 544.801544,107.177552 C544.648143,107.051228 544.46366,106.964004 544.248096,106.917886 C544.031529,106.870765 543.794909,106.880791 543.53523,106.949968 C543.27555,107.019146 543.062994,107.128426 542.899566,107.276807 C542.735136,107.424185 542.619834,107.591614 542.54965,107.778093 C542.480469,107.964571 542.442369,108.184135 542.438359,108.437785 C542.433346,108.692439 542.449388,108.937066 542.489493,109.172671 C542.5306,109.409277 542.588752,109.672954 542.666957,109.964702 L544.328305,116.205713 C544.419544,116.546587 544.52482,116.85538 544.648143,117.130084 C544.770463,117.404789 544.921859,117.657437 545.101329,117.889031 C545.281801,118.11862 545.498368,118.281037 545.750027,118.373274 C546.000683,118.466513 546.277407,118.471526 546.5802,118.39132 M547.035391,120.097697 C546.24432,120.308238 545.521428,120.299214 544.866715,120.073636 C544.210998,119.848057 543.668579,119.451039 543.236448,118.885588 C542.804317,118.319135 542.475456,117.610316 542.248863,116.759133 L540.586512,110.519125 C540.23058,109.181694 540.253641,108.04979 540.655693,107.120406 C541.057745,106.191021 541.866863,105.566419 543.080038,105.243591 C544.288201,104.921765 545.298846,105.065133 546.112977,105.672692 C546.929113,106.279248 547.51264,107.248735 547.868572,108.58015 L549.528917,114.821161 C549.875825,116.127512 549.843741,117.254403 549.431663,118.200831 C549.020587,119.149264 548.221495,119.781887 547.035391,120.097697" id="Fill-37" fill="#221F20"></path>
                    <path d="M553.86617,110.32613 C554.525896,110.150679 554.954017,109.663429 555.149529,108.869392 L554.595077,106.789056 C554.502836,106.443168 554.395555,106.132371 554.268222,105.857666 C554.144899,105.584967 553.990495,105.332319 553.811025,105.10273 C553.630553,104.872138 553.414989,104.711726 553.164333,104.620492 C552.915682,104.532266 552.63996,104.526251 552.344186,104.604451 C552.044401,104.684657 551.809787,104.825017 551.637336,105.026534 C551.464885,105.230056 551.358606,105.476689 551.316496,105.76543 C551.274386,106.055173 551.26837,106.351934 551.296444,106.654711 C551.324517,106.957488 551.384675,107.280316 551.475913,107.620188 C551.529052,107.826718 551.571163,107.981114 551.599236,108.087386 C551.628312,108.194662 551.672428,108.343042 551.731583,108.535536 C551.79174,108.729032 551.841871,108.87641 551.883981,108.97767 C551.926092,109.079933 551.980233,109.209264 552.048412,109.364663 C552.115588,109.521064 552.180758,109.638365 552.242921,109.717568 C552.305084,109.796772 552.379278,109.890011 552.469514,109.997286 C552.558748,110.103559 552.649986,110.178751 552.744233,110.22487 C552.835472,110.268983 552.939745,110.311091 553.054044,110.349189 C553.169346,110.389292 553.295676,110.40433 553.433036,110.39631 C553.569393,110.389292 553.714773,110.366232 553.86617,110.32613 M555.844347,117.75218 C554.673282,118.06398 553.685697,117.971744 552.88059,117.474468 C552.075483,116.979197 551.51301,116.131021 551.195179,114.934953 L553.275624,114.381533 C553.460107,115.075313 553.710763,115.564568 554.027592,115.851304 C554.344421,116.139042 554.79861,116.203207 555.389156,116.045803 C556.42988,115.770095 556.672515,114.590068 556.119066,112.509731 L555.564615,110.429394 C555.337019,111.233457 554.735445,111.76482 553.761897,112.024487 C553.176364,112.179885 552.649986,112.211967 552.180758,112.118728 C551.712533,112.025489 551.311483,111.815952 550.977609,111.491118 C550.643735,111.163277 550.361998,110.773277 550.131394,110.319112 C549.899788,109.863944 549.701268,109.323558 549.532828,108.693942 C549.351353,108.011191 549.253095,107.369545 549.238056,106.765996 C549.223017,106.164453 549.296208,105.60201 549.457631,105.07566 C549.621059,104.552317 549.905804,104.10116 550.314875,103.721185 C550.72595,103.344218 551.24932,103.069514 551.887992,102.898074 C552.386296,102.765734 552.862543,102.728639 553.312721,102.788793 C553.763902,102.848948 554.167959,102.987303 554.524894,103.205863 C554.881828,103.424424 555.210689,103.713165 555.511476,104.071083 C555.813266,104.427999 556.069938,104.833038 556.283497,105.284195 C556.49505,105.73435 556.673517,106.22561 556.814887,106.756973 L558.061149,111.436979 C558.219564,112.032507 558.329853,112.592945 558.395023,113.118293 C558.460194,113.642638 558.46621,114.160967 558.416078,114.670274 C558.365947,115.179581 558.24864,115.631741 558.064157,116.029762 C557.880677,116.427783 557.600945,116.776678 557.225963,117.079454 C556.850982,117.382231 556.390777,117.606807 555.844347,117.75218" id="Fill-39" fill="#221F20"></path>
                    <path d="M587.706743,86.7031274 C583.885742,72.3513093 569.152179,63.8134063 554.799613,67.6342081" id="Stroke-41" stroke="#221F20" stroke-width="2" stroke-linecap="round"></path>
                    <path d="M577.868793,89.3221462 C575.494579,80.4032658 566.338614,75.0976548 557.419269,77.4717453" id="Stroke-43" stroke="#221F20" stroke-width="4" stroke-linecap="round"></path>
                    <path d="M470.833844,165.809366 C474.654845,180.161184 489.388408,188.699087 503.740974,184.878285" id="Stroke-45" stroke="#221F20" stroke-width="2" stroke-linecap="round"></path>
                    <path d="M480.671793,163.190347 C483.046007,172.109227 492.201972,177.414838 501.121317,175.040748" id="Stroke-47" stroke="#221F20" stroke-width="4" stroke-linecap="round"></path>
                    <path d="M108.468702,106.421312 L82.2109761,161.898633 C82.2109761,161.898633 80.7661946,168.923655 88.3139498,169.977358 L145.045437,154.865591" id="Stroke-49" stroke="#221F20" stroke-width="4" stroke-linecap="round" stroke-linejoin="round"></path>
                    <path d="M141.796132,139.105259 C145.918923,146.90928 147.382754,153.101164 145.045637,154.865691 C141.492337,157.547571 130.499565,148.977586 120.492372,135.723584 C110.48518,122.469582 105.253487,109.55044 108.806787,106.86856 C111.126859,105.117066 116.619235,108.16288 122.937773,114.178312" id="Stroke-51" stroke="#221F20" stroke-width="4" stroke-linecap="round" stroke-linejoin="round"></path>
                    <g id="Group-56" transform="translate(129.338526, 121.034501)">
                        <path d="M0.535000291,0.59021413 C1.70105227,1.98278662 2.86810688,3.44854687 4.02112475,4.97546401 C5.25234731,6.60664863 6.41138092,8.23181782 7.49020459,9.83493043" id="Fill-53" fill="#FEFEFE"></path>
                        <path d="M0.535000291,0.59021413 C1.70105227,1.98278662 2.86810688,3.44854687 4.02112475,4.97546401 C5.25234731,6.60664863 6.41138092,8.23181782 7.49020459,9.83493043" id="Stroke-55" stroke="#221F20" stroke-width="4" stroke-linecap="round" stroke-linejoin="round"></path>
                    </g>
                    <path d="M132.532085,139.604841 C132.532085,139.604841 171.288524,110.057039 188.84648,137.035249" id="Stroke-57" stroke="#221F20" stroke-width="2"></path>
                    <path d="M118.828217,121.619501 C118.828217,121.619501 132.960205,120.335207 140.026701,93.570545" id="Stroke-59" stroke="#221F20" stroke-width="2"></path>
                    <path d="M148.942437,115.624422 C148.942437,115.624422 144.220076,100.673066 152.261123,106.26441 C160.302169,111.856756 158.38816,101.159313 158.38816,101.159313 C158.38816,101.159313 153.027128,90.4628726 163.749191,97.5129588 C174.471255,104.563045 170.258228,92.286551 170.258228,92.286551" id="Stroke-61" stroke="#221F20" stroke-width="2"></path>
                    <path d="M150.104779,159.25455 C150.104779,159.25455 161.422401,148.403713 159.966591,158.088559 C158.511783,167.773404 167.256672,161.322856 167.256672,161.322856 C167.256672,161.322856 174.477571,151.782381 172.899441,164.51705 C171.32131,177.250717 180.467249,168.041091 180.467249,168.041091" id="Stroke-63" stroke="#221F20" stroke-width="2"></path>
                    <path d="M104.125434,68.3412219 C104.125434,68.3412219 119.801464,68.6710681 111.923845,74.4899959 C104.045224,80.3089237 114.791351,81.9320878 114.791351,81.9320878 C114.791351,81.9320878 126.643372,80.2908774 116.522883,88.1791138 C106.402394,96.0683528 119.382367,96.0232371 119.382367,96.0232371" id="Stroke-65" stroke="#221F20" stroke-width="2"></path>
                    <mask id="mask-2" fill="white">
                        <use xlink:href="#path-1"></use>
                    </mask>
                    <g id="Clip-68"></g>
                    <polygon id="Fill-67" fill="#221F20" mask="url(#mask-2)" points="140.0265 80.510541 143.452467 80.510541 143.452467 77.0847525 140.0265 77.0847525"></polygon>
                    <polygon id="Fill-69" fill="#221F20" mask="url(#mask-2)" points="92.9192034 80.510541 96.3451704 80.510541 96.3451704 77.0847525 92.9192034 77.0847525"></polygon>
                    <polygon id="Fill-70" fill="#221F20" mask="url(#mask-2)" points="78.6749209 111.020812 82.1008879 111.020812 82.1008879 107.595023 78.6749209 107.595023"></polygon>
                    <polygon id="Fill-71" fill="#221F20" mask="url(#mask-2)" points="183.496377 124.032091 180.866494 121.836458 183.062241 119.206712 185.692124 121.402344"></polygon>
                    <polygon id="Fill-72" fill="#221F20" mask="url(#mask-2)" points="168.878617 146.085667 166.248734 143.890034 168.444481 141.260288 171.074364 143.45592"></polygon>
                    <polygon id="Fill-73" fill="#221F20" mask="url(#mask-2)" points="141.956552 172.390148 139.326669 170.194515 141.522416 167.564769 144.152299 169.760402"></polygon>
                    <path d="M498.294418,525.181495 L498.294418,539.155344" id="Stroke-74" stroke="#221F20" stroke-width="4" stroke-linecap="round" stroke-linejoin="round" mask="url(#mask-2)"></path>
                    <polyline id="Stroke-75" stroke="#221F20" stroke-width="4" stroke-linecap="round" stroke-linejoin="round" mask="url(#mask-2)" points="501.4204 498.508268 498.294218 498.508268 498.294218 501.856859"></polyline>
                    <polyline id="Stroke-76" stroke="#221F20" stroke-width="4" stroke-linecap="round" stroke-linejoin="round" mask="url(#mask-2)" points="498.294418 557.768093 563.789843 557.768093 563.789843 498.508068 518.913385 498.508068"></polyline>
                    <path d="M498.294418,550.816359 L498.294418,557.768193" id="Stroke-77" stroke="#221F20" stroke-width="4" stroke-linecap="round" stroke-linejoin="round" mask="url(#mask-2)"></path>
                    <polyline id="Stroke-78" stroke="#221F20" stroke-width="2" stroke-linecap="round" stroke-linejoin="round" mask="url(#mask-2)" points="495.427915 545.607897 511.932113 540.396528 524.700532 547.779468 537.382726 540.396528 557.316901 505.746637"></polyline>
                    <polygon id="Stroke-79" stroke="#221F20" stroke-width="2" stroke-linecap="round" stroke-linejoin="round" mask="url(#mask-2)" points="509.501952 491.747023 517.585109 505.745936 525.668265 519.745851 509.501952 519.745851 493.335639 519.745851 501.418796 505.745936"></polygon>
                    <path d="M508.027694,515.877427 L510.80396,515.877427 L510.80396,513.153439 L508.027694,513.153439 L508.027694,515.877427 Z M508.922034,511.907242 L508.027694,500.406739 L510.976411,500.406739 L509.918643,511.907242 L508.922034,511.907242 Z" id="Fill-80" fill="#221F20" mask="url(#mask-2)"></path>
                    <polyline id="Stroke-81" stroke="#221F20" stroke-width="4" stroke-linecap="round" stroke-linejoin="round" mask="url(#mask-2)" points="37.7693562 298.481923 3.8686256 298.481923 3.8686256 303.657199"></polyline>
                    <polyline id="Stroke-82" stroke="#221F20" stroke-width="4" stroke-linecap="round" stroke-linejoin="round" mask="url(#mask-2)" points="3.86912691 314.312835 3.86912691 357.741246 69.3645523 357.741246 69.3645523 327.982904"></polyline>
                    <polyline id="Stroke-83" stroke="#221F20" stroke-width="2" stroke-linecap="round" stroke-linejoin="round" mask="url(#mask-2)" points="1.00262423 307.891361 17.5068217 313.102731 24.8901466 322.555982 37.9593535 336.630088 62.8916103 347.752621"></polyline>
                    <polygon id="Stroke-84" stroke="#221F20" stroke-width="2" stroke-linecap="square" mask="url(#mask-2)" points="46.2059378 321.249129 74.8579305 321.249129 74.8579305 292.59863 46.2059378 292.59863"></polygon>
                    <polyline id="Stroke-85" stroke="#221F20" stroke-width="2" stroke-linecap="round" stroke-linejoin="round" mask="url(#mask-2)" points="54.4565326 305.067016 55.565435 305.067016 59.818567 300.07521 61.2974377 295.8223 64.9339558 296.993304 65.3650842 299.644104 63.8441033 303.27943 68.7549568 303.402746 70.9737642 305.374806 69.9992134 308.641185 70.4804731 309.565556 69.5560535 311.537616 69.741539 313.689135 68.7549568 314.311732 69.1249251 316.530424 67.5838917 317.762585 61.4207605 318.440324 55.6275977 316.283791 54.4565326 316.283791"></polyline>
                    <polyline id="Stroke-86" stroke="#221F20" stroke-width="2" mask="url(#mask-2)" points="54.4565326 307.7894 54.4565326 305.067417 51.4366284 305.067417 51.4366284 307.89066"></polyline>
                    <polyline id="Stroke-87" stroke="#221F20" stroke-width="2" mask="url(#mask-2)" points="51.4365281 313.014404 51.4365281 316.283791 54.4564323 316.283791 54.4564323 313.011396"></polyline>
                    <path d="M55.9664847,310.401401 C55.9664847,312.069681 54.6139446,313.421148 52.9465805,313.421148 C51.2782138,313.421148 49.9266763,312.069681 49.9266763,310.401401 C49.9266763,308.733121 51.2782138,307.381654 52.9465805,307.381654 C54.6139446,307.381654 55.9664847,308.733121 55.9664847,310.401401 L55.9664847,310.401401 Z" id="Stroke-88" stroke="#221F20" stroke-width="2" mask="url(#mask-2)"></path>
                    <polygon id="Stroke-89" stroke="#221F20" stroke-width="4" mask="url(#mask-2)" points="269.381068 79.6312853 373.64697 79.6312853 373.64697 2.00514398 269.381068 2.00514398"></polygon>
                    <polygon id="Stroke-90" stroke="#221F20" stroke-width="2" stroke-linecap="round" stroke-linejoin="round" mask="url(#mask-2)" points="273.994142 12.9542327 284.143708 12.9542327 284.143708 8.04463763 273.994142 8.04463763"></polygon>
                    <polygon id="Stroke-91" stroke="#221F20" stroke-width="2" stroke-linecap="round" stroke-linejoin="round" mask="url(#mask-2)" points="287.142557 12.9542327 357.151796 12.9542327 357.151796 8.04463763 287.142557 8.04463763"></polygon>
                    <path d="M269.380768,19.4197192 L373.646669,19.4197192" id="Stroke-92" stroke="#221F20" stroke-width="2" mask="url(#mask-2)"></path>
                    <polygon id="Stroke-93" stroke="#221F20" stroke-width="2" stroke-linecap="round" stroke-linejoin="round" mask="url(#mask-2)" points="299.325143 35.9036068 306.280347 47.9495092 313.235552 59.9954116 299.325143 59.9954116 285.415737 59.9954116 292.369939 47.9495092"></polygon>
                    <path d="M298.057124,56.6663714 L300.446378,56.6663714 L300.446378,54.322358 L298.057124,54.322358 L298.057124,56.6663714 Z M298.826137,53.249606 L298.057124,43.3552231 L300.593763,43.3552231 L299.683381,53.249606 L298.826137,53.249606 Z" id="Fill-94" fill="#221F20" mask="url(#mask-2)"></path>
                    <polygon id="Stroke-95" stroke="#221F20" stroke-width="2" stroke-linecap="round" stroke-linejoin="round" mask="url(#mask-2)" points="279.069426 69.2436369 361.651574 69.2436369 361.651574 30.1844349 279.069426 30.1844349"></polygon>
                    <path d="M321.906045,60.1368746 C319.786498,60.1368746 318.27454,59.5413468 317.370173,58.3482861 C316.465806,57.156228 316.013623,55.401727 316.013623,53.0867883 L319.418535,53.0867883 L319.418535,53.6191541 C319.418535,54.071314 319.433574,54.4643222 319.465658,54.795171 C319.495737,55.13003 319.557899,55.4709045 319.652146,55.8208021 C319.743385,56.1717023 319.872723,56.4554302 320.036151,56.6729883 C320.200582,56.8895439 320.425169,57.0690043 320.708912,57.2103669 C320.992655,57.3527321 321.329536,57.4229122 321.719557,57.4229122 C322.030371,57.4229122 322.312108,57.3868196 322.563767,57.3106241 C322.818433,57.2354312 323.033998,57.142192 323.217478,57.029904 C323.396948,56.9206236 323.560375,56.7582069 323.701745,56.5456617 C323.844118,56.3331164 323.962428,56.1356097 324.053667,55.9541442 C324.147913,55.7726787 324.225115,55.5210331 324.287278,55.2022152 C324.349441,54.8823948 324.394559,54.6157106 324.42564,54.3961473 C324.456721,54.1805944 324.481787,53.8748099 324.499834,53.4797965 C324.517882,53.0857858 324.526905,52.7800013 324.526905,52.5614406 L324.526905,51.5839329 L324.526905,51.1448064 C324.526905,50.763829 324.521892,50.4389957 324.512868,50.1662961 C324.504847,49.8976068 324.478779,49.6048558 324.440679,49.2890456 C324.399572,48.9752406 324.344428,48.7105616 324.274244,48.4980163 C324.203058,48.2854711 324.105803,48.0729258 323.981478,47.859378 C323.857152,47.6468327 323.706759,47.4784006 323.529294,47.3540817 C323.35183,47.2297628 323.131252,47.1305081 322.871573,47.0543127 C322.607882,46.9801223 322.314113,46.9420246 321.986255,46.9420246 C321.382676,46.9420246 320.859306,47.1365236 320.416146,47.5275267 C319.972986,47.9175272 319.649138,48.3787103 319.445606,48.9100734 L316.545014,48.9100734 L316.545014,36.0611108 L327.080589,36.0611108 L327.080589,39.4668479 L319.631091,39.4668479 L319.418535,45.2396574 C320.376041,44.6722016 321.511011,44.3884738 322.823447,44.3884738 C323.595467,44.3884738 324.275246,44.5057747 324.866795,44.739374 C325.454333,44.9759809 325.940605,45.296804 326.322605,45.7048508 C326.703602,46.1128976 327.015418,46.6181939 327.261061,47.2207396 C327.503696,47.824288 327.676148,48.4629263 327.778416,49.1366547 C327.879681,49.8103831 327.931817,50.5603069 327.931817,51.3844211 C327.931817,52.4040368 327.878678,53.326403 327.7724,54.1515198 C327.666122,54.975634 327.475623,55.769671 327.199901,56.5326283 C326.925182,57.294583 326.566243,57.9332213 326.123083,58.4475407 C325.67892,58.9618602 325.100406,59.3709096 324.38754,59.6786992 C323.672669,59.983481 322.846507,60.1368746 321.906045,60.1368746" id="Fill-96" fill="#221F20" mask="url(#mask-2)"></path>
                    <path d="M335.993016,57.3436087 C337.695472,57.3436087 338.5467,55.9249694 338.5467,53.0866881 L338.5467,42.8714821 C338.5467,42.3932552 338.529655,41.965157 338.493561,41.5891925 C338.458469,41.2122254 338.384275,40.8292429 338.274989,40.4452579 C338.162695,40.0572625 338.016312,39.7364395 337.834837,39.479781 C337.652359,39.22212 337.407719,39.0145876 337.096905,38.8541761 C336.787095,38.6947672 336.419131,38.615564 335.993016,38.615564 C335.566901,38.615564 335.198938,38.6947672 334.889127,38.8541761 C334.578313,39.0145876 334.331668,39.22212 334.151195,39.479781 C333.967715,39.7364395 333.821332,40.0572625 333.711043,40.4452579 C333.599752,40.8292429 333.527563,41.2122254 333.492471,41.5891925 C333.456377,41.965157 333.439332,42.3932552 333.439332,42.8714821 L333.439332,53.0866881 C333.439332,53.6461232 333.476429,54.1604427 333.551626,54.6296464 C333.626823,55.0998526 333.755159,55.5480023 333.938639,55.9730928 C334.119111,56.3991859 334.383804,56.7350475 334.72971,56.9766674 C335.075615,57.2222975 335.496717,57.3436087 335.993016,57.3436087 M335.993016,60.1367743 C334.698628,60.1367743 333.595742,59.8309898 332.688367,59.2194209 C331.777984,58.6068494 331.108231,57.7807301 330.678105,56.7380553 C330.247979,55.6973855 330.033418,54.4792606 330.033418,53.0866881 L330.033418,42.8714821 C330.033418,40.6808623 330.530719,38.9594462 331.523317,37.7042261 C332.516918,36.4500085 334.006818,35.8213959 335.993016,35.8213959 C337.970191,35.8213959 339.457083,36.4510111 340.456699,37.7102415 C341.452305,38.9694719 341.952615,40.6898854 341.952615,42.8714821 L341.952615,53.0866881 C341.952615,55.2241715 341.444284,56.9345594 340.429628,58.2158464 C339.412967,59.4971334 337.935099,60.1367743 335.993016,60.1367743" id="Fill-97" fill="#221F20" mask="url(#mask-2)"></path>
                    <path d="M350.465797,57.3436087 C352.168253,57.3436087 353.019481,55.9249694 353.019481,53.0866881 L353.019481,42.8714821 C353.019481,42.3932552 353.002436,41.965157 352.966342,41.5891925 C352.93125,41.2122254 352.857055,40.8292429 352.747769,40.4452579 C352.635476,40.0572625 352.489092,39.7364395 352.307617,39.479781 C352.12514,39.22212 351.880499,39.0145876 351.569686,38.8541761 C351.259875,38.6947672 350.891912,38.615564 350.465797,38.615564 C350.039681,38.615564 349.671718,38.6947672 349.361907,38.8541761 C349.051094,39.0145876 348.804448,39.22212 348.623976,39.479781 C348.440496,39.7364395 348.294113,40.0572625 348.183824,40.4452579 C348.072533,40.8292429 348.000344,41.2122254 347.965252,41.5891925 C347.929157,41.965157 347.912113,42.3932552 347.912113,42.8714821 L347.912113,53.0866881 C347.912113,53.6461232 347.94921,54.1604427 348.024407,54.6296464 C348.099603,55.0998526 348.227939,55.5480023 348.41142,55.9730928 C348.591892,56.3991859 348.856585,56.7350475 349.20249,56.9766674 C349.548396,57.2222975 349.969498,57.3436087 350.465797,57.3436087 M350.465797,60.1367743 C349.171409,60.1367743 348.068522,59.8309898 347.161147,59.2194209 C346.250764,58.6068494 345.581011,57.7807301 345.150886,56.7380553 C344.72076,55.6973855 344.506198,54.4792606 344.506198,53.0866881 L344.506198,42.8714821 C344.506198,40.6808623 345.0035,38.9594462 345.996098,37.7042261 C346.989698,36.4500085 348.479598,35.8213959 350.465797,35.8213959 C352.442972,35.8213959 353.929863,36.4510111 354.92948,37.7102415 C355.925086,38.9694719 356.425395,40.6898854 356.425395,42.8714821 L356.425395,53.0866881 C356.425395,55.2241715 355.917065,56.9345594 354.902409,58.2158464 C353.885748,59.4971334 352.40788,60.1367743 350.465797,60.1367743" id="Fill-98" fill="#221F20" mask="url(#mask-2)"></path>
                    <polygon id="Stroke-99" stroke="#221F20" stroke-width="4" mask="url(#mask-2)" points="646.869894 323.628634 646.869894 310.442807 636.557904 310.442807 636.557904 300.131354 623.37139 300.131354 623.37139 310.442807 610.589936 310.442807 610.589936 300.131354 597.403422 300.131354 597.403422 310.442807 587.091432 310.442807 587.091432 323.628634 597.403422 323.628634 597.403422 336.409421 587.091432 336.409421 587.091432 349.595248 597.403422 349.595248 597.403422 359.906701 610.589936 359.906701 610.589936 349.595248 623.37139 349.595248 623.37139 359.906701 636.557904 359.906701 636.557904 349.595248 646.869894 349.595248 646.869894 336.409421 636.557904 336.409421 636.557904 323.628634"></polygon>
                    <polygon id="Stroke-100" stroke="#221F20" stroke-width="3" mask="url(#mask-2)" points="610.590137 336.40902 623.371591 336.40902 623.371591 323.628233 610.590137 323.628233"></polygon>
                    <path d="M306.023074,579.801417 C306.023074,579.801417 303.178629,589.470221 312.84894,596.86419 C312.84894,596.86419 314.555406,574.982053 331.619068,557.619512 C331.619068,557.619512 337.023213,588.901763 345.696915,596.86419 C345.696915,596.86419 354.940108,594.589354 353.802129,580.369875 C353.802129,580.369875 374.154398,611.329298 366.600627,630.422279 C361.740908,642.705791 349.25222,645.210216 349.25222,645.210216 L313.417428,645.379651 C313.417428,645.379651 294.313425,643.552964 294.077809,614.496423 C293.930423,596.295731 306.023074,579.801417 306.023074,579.801417 L306.023074,579.801417 Z" id="Stroke-101" stroke="#221F20" stroke-width="4" stroke-linecap="round" stroke-linejoin="round" mask="url(#mask-2)"></path>
                    <path d="M292.229571,580.512341 C292.229571,580.512341 283.408483,593.297139 292.229571,593.310172 C295.357759,593.314182 292.229571,580.512341 292.229571,580.512341 L292.229571,580.512341 Z" id="Stroke-102" stroke="#221F20" stroke-width="2" stroke-linecap="round" stroke-linejoin="round" mask="url(#mask-2)"></path>
                    <path d="M313.908413,546.88357 C313.908413,546.88357 300.783059,568.333597 313.908413,568.354651 C318.563597,568.362672 313.908413,546.88357 313.908413,546.88357 L313.908413,546.88357 Z" id="Stroke-103" stroke="#221F20" stroke-width="2" stroke-linecap="round" stroke-linejoin="round" mask="url(#mask-2)"></path>
                    <path d="M367.937627,580.370176 C367.937627,580.370176 359.116539,593.154974 367.937627,593.168007 C371.065814,593.172018 367.937627,580.370176 367.937627,580.370176 L367.937627,580.370176 Z" id="Stroke-104" stroke="#221F20" stroke-width="2" stroke-linecap="round" stroke-linejoin="round" mask="url(#mask-2)"></path>
                    <path d="M345.754265,559.894247 C345.754265,559.894247 336.933177,581.770368 345.754265,581.792425 C348.882452,581.799443 345.754265,559.894247 345.754265,559.894247 L345.754265,559.894247 Z" id="Stroke-105" stroke="#221F20" stroke-width="2" stroke-linecap="round" stroke-linejoin="round" mask="url(#mask-2)"></path>
                    <path d="M313.417528,645.379651 C313.417528,645.379651 296.992538,615.00573 304.001884,606.494896 C304.001884,606.494896 311.010227,619.177432 317.518261,611.500738 C324.027297,603.825047 324.193733,591.309941 324.193733,591.309941 C324.193733,591.309941 334.746353,615.172157 344.488853,608.998318 C354.231353,602.823477 354.732665,597.317352 354.732665,597.317352 C354.732665,597.317352 364.965448,630.193693 349.252321,645.210216 L313.417528,645.379651 L313.417528,645.379651 Z" id="Stroke-106" stroke="#221F20" stroke-width="2" stroke-linecap="round" stroke-linejoin="round" mask="url(#mask-2)"></path>
                    <polyline id="Stroke-107" stroke="#221F20" stroke-width="2" mask="url(#mask-2)" points="133.353134 545.198547 157.802126 574.1428 168.082032 565.460527 143.031465 535.803445"></polyline>
                    <path d="M125.544897,535.954934 L112.779485,548.346723 C108.204511,546.793739 102.945747,547.786286 99.2420526,551.381509 C93.9772728,556.492621 93.8519447,564.9042 98.9633231,570.169708 C104.075704,575.435216 112.487721,575.559535 117.752501,570.448423 C121.457198,566.852197 122.605202,561.625789 121.187492,557.007943 L133.353334,545.198647" id="Stroke-108" stroke="#221F20" stroke-width="4" mask="url(#mask-2)"></path>
                    <path d="M135.223228,526.559731 L118.365105,506.601531 L118.209698,506.732868 L131.765177,495.284498 C118.870427,491.684262 112.078651,499.159439 112.078651,499.159439 L97.0633502,511.841974 L95.2054874,509.643334 L89.7923192,514.215062 L99.507748,525.716568 L104.919914,521.14484 L103.348801,519.284066 L108.085198,515.283804 L125.544897,535.954833" id="Stroke-109" stroke="#221F20" stroke-width="2" mask="url(#mask-2)"></path>
                    <path d="M143.031365,535.803545 L159.058314,520.245633 C163.679409,521.884838 169.030414,520.931392 172.813315,517.308097 C176.707508,513.577527 177.846489,508.065386 176.204191,503.279107 L171.117878,508.151607 L168.777753,510.393358 L168.237338,510.910685 L162.01405,509.099038 L160.471011,502.803888 L161.011426,502.286561 L163.351551,500.04481 L168.437863,495.17231 C163.726532,493.326575 158.169988,494.22889 154.275796,497.958458 C150.510942,501.564709 149.320827,506.837235 150.728511,511.508218 L135.222928,526.559831" id="Stroke-110" stroke="#221F20" stroke-width="4" mask="url(#mask-2)"></path>
                    <polygon id="Stroke-111" stroke="#221F20" stroke-width="2" mask="url(#mask-2)" points="110.082225 567.199689 103.846905 565.429146 102.261756 559.145025 106.91293 554.630444 113.14825 556.399983 114.733399 562.685107"></polygon>
                    <path d="M108.084898,515.284005 L118.364804,506.601731" id="Stroke-112" stroke="#221F20" stroke-width="2" mask="url(#mask-2)"></path>
                    <path d="M133.353134,545.198547 L143.031465,535.803445" id="Stroke-113" stroke="#221F20" stroke-width="4" mask="url(#mask-2)"></path>
                    <path d="M135.223228,526.559731 L125.544897,535.954833" id="Stroke-114" stroke="#221F20" stroke-width="4" mask="url(#mask-2)"></path>
                </g>
                <g id="Cog4.0" transform="translate(137.365249, 173.799073)">
                    <path d="M185.698658,13.5097337 C234.038832,13.5097337 275.974506,22.6618622 287.696561,25.46884 L287.696561,91.0340445 L85.0853669,91.0340445 L85.0853669,25.4471749 C96.5784488,22.6253025 137.456807,13.5097337 185.698658,13.5097337" id="Fill-1-Copy" fill="#C8C9C4"></path>
                    <polygon id="Fill-2" fill="#ABABA8" points="188.941989 246.012255 288.031938 246.012255 288.031938 252.158358 188.941989 252.158358"></polygon>
                    <polygon id="Fill-3" fill="#C8C8C4" points="118.511338 95.5024605 254.987139 95.5024605 254.987139 240.881701 118.511338 240.881701"></polygon>
                    <path d="M129.034653,30.0780788 C116.333404,30.0780788 106.036368,40.7684258 106.036368,53.9556695 C106.036368,67.1429132 116.333404,77.8319061 129.034653,77.8319061 C141.73725,77.8319061 152.032939,67.1429132 152.032939,53.9556695 C152.032939,40.7684258 141.73725,30.0780788 129.034653,30.0780788" id="Fill-4" fill="#8E8F8B"></path>
                    <path d="M243.78364,30.2649399 C231.182061,30.2649399 220.965839,40.8713348 220.965839,53.9556695 C220.965839,67.0386501 231.182061,77.645045 243.78364,77.645045 C256.385219,77.645045 266.601442,67.0386501 266.601442,53.9556695 C266.601442,40.8713348 256.385219,30.2649399 243.78364,30.2649399" id="Fill-5" fill="#8E8F8B"></path>
                    <polygon id="Fill-6" fill="#ABABA8" points="84.7499893 246.012255 183.839939 246.012255 183.839939 252.158358 84.7499893 252.158358"></polygon>
                    <path d="M52.9753153,174.726124 L52.9456835,174.799243 L32.5778898,166.63152 L32.5859712,166.615271 C36.8758418,157.046091 40.3171665,150.218892 44.15852,144.269129 L61.2493105,157.154416 C58.0585088,162.072382 55.9236753,167.118984 52.9753153,174.726124" id="Fill-7" fill="#C8C8C4"></path>
                    <path d="M62.076306,155.9168 L44.9760872,143.023388 C49.1406962,136.797395 53.8629211,131.419047 60.6539816,124.633825 L70.8634695,145.436333 L70.5496422,145.766725 C66.9008951,149.602793 64.2407713,152.775368 62.076306,155.9168" id="Fill-8" fill="#C8C8C4"></path>
                    <path d="M52.9753153,174.726124 L52.9456835,174.799243 L49.6902307,173.493924 C49.6902307,173.493924 53.5881539,162.152271 58.612084,155.166648 C60.0330615,156.237713 61.2493105,157.154416 61.2493105,157.154416 C58.0585088,162.072382 55.9236753,167.118984 52.9753153,174.726124" id="Fill-9" fill="#A0A19D"></path>
                    <path d="M62.076306,155.9168 L44.9760872,143.023388 C45.2346916,142.63748 45.8044295,141.8115 46.0670747,141.431007 C50.3986991,144.581918 59.2572482,151.579728 60.3684392,152.377273 C62.5962087,149.405099 69.2997207,142.248863 69.2997207,142.248863 L70.8634695,145.436333 L70.5496422,145.766725 C66.9008951,149.602793 64.2407713,152.775368 62.076306,155.9168" id="Fill-10" fill="#A0A19D"></path>
                    <polygon id="Fill-11" fill="#ABABA8" points="84.7499893 255.088556 183.839939 255.088556 183.839939 260.821669 84.7499893 260.821669"></polygon>
                    <polygon id="Fill-12" fill="#ABABA8" points="188.941989 255.088556 288.031938 255.088556 288.031938 260.821669 188.941989 260.821669"></polygon>
                    <path d="M301.432228,144.909602 L311.733305,123.924295 C318.43547,130.613378 323.214265,135.848196 327.462381,141.961801 L310.218044,154.963538 C307.88387,151.876269 305.14832,148.814727 301.674669,145.164166 L301.432228,144.909602" id="Fill-13" fill="#C8C8C4"></path>
                    <path d="M301.432228,144.909602 L303.431025,140.839281 L312.346143,151.44703 C317.25424,148.088947 322.589304,143.99967 326.678487,140.851467 C326.942479,141.218419 327.203777,141.588079 327.462381,141.961801 L310.218044,154.963538 C307.88387,151.876269 305.14832,148.814727 301.674669,145.164166 L301.432228,144.909602" id="Fill-14" fill="#A0A19D"></path>
                    <path d="M311.086794,156.141575 L328.28803,143.170982 C332.206157,149.01242 335.740417,155.761082 340.035675,165.337034 L320.304965,174.082942 L320.292843,174.053153 C317.2502,166.203635 314.617014,161.041938 311.086794,156.141575" id="Fill-15" fill="#C8C8C4"></path>
                    <path d="M311.086794,156.141575 L313.978584,153.961529 C313.978584,153.961529 320.737319,165.223292 323.052637,171.18118 C327.462381,169.412771 334.180709,165.877306 339.441693,164.022236 C339.583118,164.333671 339.892904,165.018828 340.035675,165.337034 L320.304965,174.082942 L320.292843,174.053153 C317.2502,166.203635 314.617014,161.041938 311.086794,156.141575" id="Fill-16" fill="#A0A19D"></path>
                    <path d="M297.418471,53.614445 C297.418471,67.8781707 296.921466,72.018903 292.069939,72.6851032 L292.069939,34.5424327 C296.921466,35.2086329 297.418471,39.3507192 297.418471,53.614445" id="Fill-17" fill="#3483AA"></path>
                    <path d="M297.37133,59.385472 C297.170642,69.0453752 296.191447,72.1191038 292.069939,72.6851032 L292.069939,65.0630686 C294.071429,64.7841311 295.737542,63.4815201 297.37133,59.385472" id="Fill-18" fill="#2A637F"></path>
                    <path d="M185.698658,3.78483539 C203.849457,3.78483539 211.984722,4.04481597 213.059547,10.0257232 C204.307403,9.45566162 195.13368,9.11308305 185.698658,9.11308305 C176.228617,9.11308305 167.057588,9.45836975 158.336422,10.0324935 C159.407206,4.04481597 167.541124,3.78483539 185.698658,3.78483539" id="Fill-19" fill="#3483AA"></path>
                    <path d="M163.841195,9.70480966 C161.987863,9.80365644 160.153388,9.91333575 158.336422,10.0324935 C158.968118,6.50379887 162.052514,4.96422642 168.19437,4.29531808 C165.320089,6.00144058 164.423055,7.86192655 163.841195,9.70480966" id="Fill-20" fill="#2B637F"></path>
                    <path d="M75.9224189,53.614445 C75.9224189,39.9207808 76.3830581,35.5579818 80.7119887,34.6412795 L80.7119887,72.5876105 C76.3830581,71.6695541 75.9224189,67.3081092 75.9224189,53.614445" id="Fill-21" fill="#3483AA"></path>
                    <path d="M80.7119887,65.9012351 L80.7119887,72.5876105 C77.3447433,71.874018 76.3184069,69.0778727 76.0274769,61.4287569 C77.6747334,64.3494761 78.9165735,65.2959679 80.7119887,65.9012351" id="Fill-22" fill="#2B637F"></path>
                    <path d="M60.3684392,195.775071 C60.330726,205.349668 55.5451969,214.390764 48.1345633,219.441428 L48.2248055,191.048029 L18.228037,190.930225 L18.1472231,219.088017 C10.1991772,214.045477 5.26279549,205.185826 5.30050863,195.558421 C5.35438456,181.328547 16.4326218,169.258407 30.5198294,168.081724 L31.9071345,167.966629 L52.7692398,176.332045 L53.2150631,177.01314 C56.5607581,182.116613 60.3953771,188.859859 60.3684392,195.775071" id="Fill-23" fill="#3483AA"></path>
                    <path d="M73.514165,145.28197 L72.0622088,144.512861 L61.6857055,123.369128 L61.6857055,122.559397 C61.6857055,109.250287 70.3987896,98.0074817 80.7119887,98.0074817 L80.7119887,147.10048 C78.2431244,147.099126 75.7971574,146.493858 73.514165,145.28197" id="Fill-24" fill="#3483AA"></path>
                    <path d="M73.514165,145.28197 L72.0622088,144.512861 L61.6857055,123.369128 L61.6857055,122.559397 C61.6857055,120.89525 61.8217422,119.264956 62.0803467,117.683407 C69.3172304,118.587923 78.3697328,122.853229 80.7119887,135.635607 L80.7119887,147.10048 C78.2431244,147.099126 75.7971574,146.493858 73.514165,145.28197" id="Fill-25-Copy" fill="#2B637F"></path>
                    <path d="M292.593882,146.569686 C292.418785,146.569686 292.245036,146.561562 292.069939,146.556145 L292.069939,97.7190657 C292.245036,97.7122954 292.418785,97.7014629 292.593882,97.7014629 C302.66464,97.7014629 310.857821,108.662623 310.857821,122.135574 L310.857821,122.392847 L300.178266,144.152679 L299.072462,144.738989 C296.836611,145.926505 295.140867,146.569686 292.593882,146.569686" id="Fill-26" fill="#3483AA"></path>
                    <path d="M292.593882,146.569686 C292.418785,146.569686 292.245036,146.561562 292.069939,146.556145 L292.069939,112.382241 C299.071115,112.378179 307.342417,117.718613 309.096078,125.983829 C308.172106,127.817233 300.178266,144.152679 300.178266,144.152679 L299.072462,144.738989 C296.836611,145.926505 295.140867,146.569686 292.593882,146.569686" id="Fill-27-Copy" fill="#2A637F"></path>
                    <path d="M353.511391,222.58286 L349.995987,214.856562 L360.934147,200.262444 L353.317438,182.229 L333.974634,179.844491 L322.247192,195.492072 L329.863901,213.524162 L348.002578,215.761078 L351.48835,223.42238 C350.981917,223.607887 350.470095,223.783916 349.948846,223.943696 C342.511274,226.218526 334.638655,225.446708 327.778902,221.769066 C320.91915,218.091425 315.893873,211.949384 313.631084,204.472234 C310.627501,194.555058 312.963023,184.032616 319.879345,176.325275 L320.554141,175.573769 L340.659289,166.662664 L342.015616,166.688391 C354.660295,166.92129 365.632128,175.256917 369.317241,187.429966 C373.615193,201.624634 366.607282,216.611431 353.511391,222.58286" id="Fill-28" fill="#3483AA"></path>
                    <polygon id="Fill-29-Copy" fill="#8E8F8C" points="84.7499893 95.5024605 115.596651 95.5024605 115.596651 240.881701 84.7499893 240.881701"></polygon>
                    <polygon id="Fill-30" fill="#8E8F8C" points="257.903174 95.5024605 288.033285 95.5024605 288.033285 240.881701 257.903174 240.881701"></polygon>
                    <polygon id="Fill-31-Copy" fill="#3483AA" points="67.0719512 265.017918 183.839939 265.017918 183.839939 295.351693 67.0719512 295.351693"></polygon>
                    <polygon id="Fill-32" fill="#3483AA" points="188.941989 265.017918 305.828503 265.017918 305.828503 295.351693 188.941989 295.351693"></polygon>
                    <polygon id="Fill-33-Copy" fill="#2B637F" points="67.0719512 265.017918 80.7119887 265.017918 80.7119887 295.351693 67.0719512 295.351693"></polygon>
                    <polygon id="Fill-34-Copy" fill="#2B637F" points="88.2600059 265.017918 94.0004857 265.017918 94.0004857 295.351693 88.2600059 295.351693"></polygon>
                    <polygon id="Fill-35-Copy" fill="#2B637F" points="188.941989 265.017918 202.582026 265.017918 202.582026 295.351693 188.941989 295.351693"></polygon>
                    <polygon id="Fill-36-Copy" fill="#2B637F" points="210.130044 265.017918 215.870523 265.017918 215.870523 295.351693 210.130044 295.351693"></polygon>
                    <path d="M129.034653,35.1206187 C138.999006,35.1206187 147.105986,43.5699873 147.105986,53.9556695 C147.105986,64.3399976 138.999006,72.7893662 129.034653,72.7893662 C119.070301,72.7893662 110.964668,64.3399976 110.964668,53.9556695 C110.964668,43.5699873 119.070301,35.1206187 129.034653,35.1206187" id="Fill-37-Copy" fill="#4C4C49"></path>
                    <path d="M141.890796,67.1781189 C138.612446,70.6404643 134.05993,72.7893662 129.034653,72.7893662 C119.070301,72.7893662 110.964668,64.3399976 110.964668,53.9556695 C110.964668,48.7628284 112.990403,44.0547427 116.263365,40.6438518 C116.263365,56.158734 125.11922,67.1781189 141.890796,67.1781189" id="Fill-38-Copy" fill="#393A38"></path>
                    <path d="M243.78364,35.1206187 C253.747993,35.1206187 261.854973,43.5699873 261.854973,53.9556695 C261.854973,64.3399976 253.747993,72.7893662 243.78364,72.7893662 C233.819288,72.7893662 225.712308,64.3399976 225.712308,53.9556695 C225.712308,43.5699873 233.819288,35.1206187 243.78364,35.1206187" id="Fill-39-Copy" fill="#4C4C49"></path>
                    <path d="M256.556276,67.2674872 C253.283313,70.6770241 248.765817,72.7893662 243.78364,72.7893662 C233.819288,72.7893662 225.712308,64.3399976 225.712308,53.9556695 C225.712308,48.464934 227.977791,43.5158246 231.586131,40.0710821 C231.586131,57.151264 238.576532,67.2674872 256.556276,67.2674872" id="Fill-40-Copy" fill="#393A38"></path>
                    <path d="M100.225849,114.988817 C96.1434007,114.988817 92.8219499,118.45387 92.8219499,122.712406 C92.8219499,126.970942 96.1434007,130.43735 100.225849,130.43735 C104.309644,130.43735 107.631095,126.970942 107.631095,122.712406 C107.631095,118.45387 104.309644,114.988817 100.225849,114.988817" id="Fill-41-Copy" fill="#4C4C49"></path>
                    <path d="M100.225849,214.742821 C96.1434007,214.742821 92.8219499,218.207874 92.8219499,222.46641 C92.8219499,226.724946 96.1434007,230.191354 100.225849,230.191354 C104.309644,230.191354 107.631095,226.724946 107.631095,222.46641 C107.631095,218.207874 104.309644,214.742821 100.225849,214.742821" id="Fill-42-Copy" fill="#4C4C49"></path>
                    <path d="M272.592445,114.988817 C268.509997,114.988817 265.187199,118.45387 265.187199,122.712406 C265.187199,126.970942 268.509997,130.43735 272.592445,130.43735 C276.67624,130.43735 279.997691,126.970942 279.997691,122.712406 C279.997691,118.45387 276.67624,114.988817 272.592445,114.988817" id="Fill-43-Copy" fill="#4C4C49"></path>
                    <path d="M272.592445,214.742821 C268.509997,214.742821 265.187199,218.207874 265.187199,222.46641 C265.187199,226.724946 268.509997,230.191354 272.592445,230.191354 C276.67624,230.191354 279.997691,226.724946 279.997691,222.46641 C279.997691,218.207874 276.67624,214.742821 272.592445,214.742821" id="Fill-44-Copy" fill="#4C4C49"></path>
                    <path d="M95.1318802,117.110637 C93.7095557,118.52022 92.8219499,120.510696 92.8219499,122.712406 C92.8219499,126.970942 96.1434007,130.43735 100.225849,130.43735 C102.173464,130.43735 103.948675,129.64793 105.272676,128.360213 C99.5025647,128.330424 95.2436727,123.773994 95.1318802,117.110637" id="Fill-45-Copy" fill="#393A38"></path>
                    <path d="M95.1776747,216.819957 C93.7284123,218.230893 92.8219499,220.240326 92.8219499,222.46641 C92.8219499,226.724946 96.1434007,230.191354 100.225849,230.191354 C102.243502,230.191354 104.073937,229.345063 105.411407,227.976103 C98.453331,227.976103 95.1776747,225.326196 95.1776747,216.819957" id="Fill-46-Copy" fill="#393A38"></path>
                    <path d="M267.215627,117.405824 C265.958971,118.791033 265.187199,120.659643 265.187199,122.712406 C265.187199,126.970942 268.509997,130.43735 272.592445,130.43735 C274.519856,130.43735 276.277558,129.664178 277.597518,128.400835 C270.551894,128.400835 267.215627,125.35148 267.215627,117.405824" id="Fill-47-Copy" fill="#393A38"></path>
                    <path d="M267.471538,216.891723 C266.065376,218.298597 265.187199,220.27824 265.187199,222.46641 C265.187199,226.724946 268.509997,230.191354 272.592445,230.191354 C274.451164,230.191354 276.15095,229.473699 277.452053,228.290246 C271.319626,228.290246 267.471538,224.084518 267.471538,216.891723" id="Fill-48-Copy" fill="#393A38"></path>
                    <path d="M171.723243,227.179912 C176.102009,228.260456 180.160213,228.745212 184.785461,228.745212 L185.888571,228.745212 C190.512472,228.745212 194.570676,228.260456 198.950789,227.179912 L200.824324,219.024376 C200.872813,218.615448 200.998074,217.935707 201.32133,217.488865 C201.728093,216.926928 202.349013,216.723818 202.761164,216.588412 L202.862181,216.55456 C204.854243,215.880236 206.830143,215.047485 208.737351,214.077974 L213.7963,211.066533 C215.902849,209.73007 217.921849,208.20133 219.77114,206.53583 L219.847914,206.465418 C220.148272,206.187835 220.652012,205.724745 221.340277,205.646209 C221.884424,205.585276 222.534975,205.808697 222.913454,205.968476 L230.896519,208.346215 C233.990344,205.047712 236.409373,201.735668 238.686978,197.68972 L239.229778,196.725625 C241.50873,192.679678 243.088641,188.891002 244.311625,184.526849 L238.17381,178.86821 C237.88692,178.656976 237.32257,178.193885 237.089557,177.677986 C236.802667,177.044284 236.940051,176.371313 237.020865,175.97051 L237.041068,175.866247 C237.437056,173.794526 237.690273,171.659165 237.791291,169.518388 L237.600031,164.106188 C237.505748,161.574086 237.202696,159.051462 236.696262,156.608727 L236.674712,156.50311 C236.587164,156.103661 236.441699,155.434753 236.717813,154.799696 C236.938704,154.291921 237.458607,153.839664 237.785903,153.590515 L243.833476,147.839799 C242.548535,143.497311 240.910707,139.731655 238.571145,135.720913 L238.013529,134.763589 C235.673967,130.752847 233.205102,127.478717 230.062789,124.227606 L222.117437,126.72721 C221.741652,126.892406 221.089754,127.129368 220.548301,127.073851 C219.860036,127.004794 219.350908,126.549828 219.046509,126.279015 L218.967042,126.207249 C217.370968,124.813916 215.645591,123.515367 213.839401,122.346809 L209.552224,119.933864 C207.347352,118.74364 205.027993,117.730799 202.677656,116.933255 L202.576639,116.900757 C202.188732,116.773475 201.542221,116.560887 201.135458,116.000304 C200.810855,115.552108 200.685594,114.872367 200.638452,114.463439 L198.76357,106.307903 C194.384804,105.227359 190.3266,104.742603 185.701352,104.742603 L184.598242,104.742603 C179.974341,104.742603 175.916137,105.227359 171.536024,106.307903 L169.662489,114.463439 C169.614001,114.872367 169.488739,115.552108 169.165483,115.99895 C168.757373,116.562241 168.109515,116.773475 167.722956,116.900757 L167.621938,116.933255 C165.621794,117.611642 163.633773,118.451162 161.71579,119.426089 L156.690513,122.421282 C154.582617,123.759099 152.563617,125.287839 150.715673,126.951985 L150.636206,127.025105 C150.335847,127.301334 149.833454,127.763071 149.146536,127.841606 C148.599696,127.907956 147.950491,127.679118 147.573359,127.519339 L139.590294,125.1416 C136.496469,128.440103 134.078787,131.752147 131.799835,135.796741 L131.257035,136.76219 C128.978084,140.809491 127.398172,144.598167 126.176535,148.960966 L132.311656,154.618251 C132.642993,154.861983 133.169631,155.306116 133.397256,155.809829 C133.684146,156.442177 133.548109,157.113794 133.465948,157.515951 L133.445745,157.620214 C133.049757,159.691935 132.797887,161.827296 132.695522,163.969427 L132.886782,169.381627 C132.981065,171.915084 133.285464,174.437708 133.790551,176.879088 L133.812101,176.983351 C133.899649,177.3828 134.045114,178.051708 133.769,178.688119 C133.548109,179.197248 133.028206,179.649506 132.702257,179.8973 L126.65199,185.648016 C127.939625,189.991858 129.576106,193.75616 131.915668,197.766902 L132.473284,198.724226 C134.812846,202.734968 137.281711,206.009098 140.422677,209.260209 L148.369376,206.760605 C148.745161,206.595409 149.391672,206.361155 149.939859,206.415318 C150.626777,206.481667 151.137252,206.939341 151.442998,207.211508 L151.521118,207.280566 C153.117192,208.673899 154.841222,209.972448 156.647412,211.141006 L160.934589,213.553951 C163.140808,214.745529 165.45882,215.75837 167.809157,216.553206 L167.911521,216.588412 C168.323672,216.723818 168.945939,216.926928 169.351355,217.487511 C169.675958,217.935707 169.801219,218.615448 169.848361,219.024376 L171.723243,227.179912" id="Fill-49-Copy" fill="#DDDCD8"></path>
                    <path d="M100.225849,91.0340445 L105.272676,91.0340445 L105.272676,21.1520792 C103.502852,21.4811171 101.819229,21.8047388 100.225849,22.120236 L100.225849,91.0340445" id="Fill-50-Copy" fill="#A0A19D"></path>
                    <path d="M94.0004857,23.4052442 C90.1672136,24.22987 87.1501618,24.9394004 85.0853669,25.4471749 L85.0853669,91.0340445 L94.0004857,91.0340445 L94.0004857,23.4052442" id="Fill-51-Copy" fill="#A0A19D"></path>
                    <polygon id="Fill-52-Copy" fill="#8E8F8B" points="110.798999 246.012255 115.596651 246.012255 115.596651 252.158358 110.798999 252.158358"></polygon>
                    <polygon id="Fill-53-Copy" fill="#8E8F8B" points="84.7499893 246.012255 105.411407 246.012255 105.411407 252.158358 84.7499893 252.158358"></polygon>
                    <polygon id="Fill-54-Copy" fill="#8E8F8B" points="110.798999 254.882738 115.596651 254.882738 115.596651 261.028841 110.798999 261.028841"></polygon>
                    <polygon id="Fill-55-Copy" fill="#8E8F8B" points="84.7499893 254.882738 105.411407 254.882738 105.411407 261.028841 84.7499893 261.028841"></polygon>
                    <polygon id="Fill-56-Copy" fill="#8E8F8B" points="214.992346 246.012255 219.789997 246.012255 219.789997 252.158358 214.992346 252.158358"></polygon>
                    <polygon id="Fill-57-Copy" fill="#8E8F8B" points="188.941989 246.012255 209.603406 246.012255 209.603406 252.158358 188.941989 252.158358"></polygon>
                    <polygon id="Fill-58-Copy" fill="#8E8F8B" points="214.992346 254.882738 219.789997 254.882738 219.789997 261.028841 214.992346 261.028841"></polygon>
                    <polygon id="Fill-59-Copy" fill="#8E8F8B" points="188.941989 254.882738 209.603406 254.882738 209.603406 261.028841 188.941989 261.028841"></polygon>
                    <path d="M353.511391,222.58286 C364.05491,217.774573 370.64663,207.123494 370.575244,195.746636 L351.620346,218.425879 L353.511391,222.58286" id="Fill-60" fill="#2A637F"></path>
                    <path d="M347.941968,167.408754 L337.739214,180.307581 L353.317438,182.229 L355.701448,187.875453 L364.296005,177.775479 C360.21221,172.577222 354.460955,168.891455 347.941968,167.408754" id="Fill-61-Copy" fill="#2A637F"></path>
                    <path d="M333.495138,213.972357 L329.863901,213.524162 L323.4594,198.362691 L315.276994,208.706397 C317.837447,214.049539 321.942793,218.458376 327.159329,221.418363 L333.495138,213.972357" id="Fill-62-Copy" fill="#2A637F"></path>
                    <path d="M349.948846,223.943696 C350.470095,223.783916 350.981917,223.607887 351.48835,223.42238 L350.061985,220.289073 L346.287977,224.803527 C347.515001,224.595001 348.737984,224.313355 349.948846,223.943696" id="Fill-63-Copy" fill="#2A637F"></path>
                    <path d="M18.1472231,219.088017 L18.228037,191.240306 L7.05686381,205.363209 C9.14994352,210.981227 13.0155412,215.832843 18.1472231,219.088017" id="Fill-64-Copy" fill="#2B637F"></path>
                    <path d="M60.3684392,195.775071 C60.3697861,195.512383 60.3549702,195.251048 60.344195,194.988359 L48.165542,209.559458 L48.1345633,219.441428 C55.5451969,214.390764 60.330726,205.349668 60.3684392,195.775071" id="Fill-65-Copy" fill="#2B637F"></path>
                    <path d="M53.2150631,177.01314 L52.7692398,176.332045 L35.497965,169.406 L18.4731725,190.930225 L42.1583763,191.023656 L53.5881539,177.589972 C53.4642393,177.397695 53.3389778,177.201355 53.2150631,177.01314" id="Fill-66-Copy" fill="#2B637F"></path>
                    <path d="M223.359277,159.316858 C229.420319,155.798996 231.497236,148.009058 227.997994,141.915763 C224.498753,135.822468 216.748701,133.735853 210.689006,137.252361 C206.424727,139.727593 204.144428,144.317875 204.378788,148.943363 L160.697535,174.296885 C156.779408,171.775615 151.631563,171.492615 147.34304,174.020655 C142.906357,176.635356 140.632793,181.523532 141.09882,186.35213 L150.175567,181.002217 L155.548343,184.073238 L155.590097,190.288398 L146.51335,195.636957 C150.475925,198.404667 155.829845,198.797346 160.266527,196.182645 C164.576601,193.643772 166.844778,188.958706 166.54442,184.266869 L210.134084,158.966155 C214.002376,161.482009 219.096344,161.79209 223.359277,159.316858 L223.359277,159.316858 Z M217.024815,154.499093 L211.670895,151.391513 L211.670895,145.177707 L217.023468,142.070126 L222.377388,145.177707 L222.377388,151.392867 L217.024815,154.499093 L217.024815,154.499093 Z" id="Fill-67-Copy" fill="#3D95BC"></path>
                    <path d="M159.995801,137.344438 C153.934759,133.826576 146.184707,135.914545 142.685466,142.007839 C139.186225,148.101134 141.263142,155.891073 147.324183,159.408935 C151.587116,161.884167 156.681085,161.574086 160.549376,159.056878 L204.23063,184.411754 C204.01782,189.08328 206.347954,193.706059 210.668803,196.175875 C215.139158,198.730996 220.48769,198.266552 224.413898,195.447388 L215.26846,190.219341 L215.226706,184.005534 L220.560423,180.862748 L229.705861,186.089441 C230.108584,181.255427 227.770368,176.398394 223.300014,173.843273 C218.957614,171.361271 213.786872,171.728223 209.895683,174.334799 L166.304672,149.034085 C166.539032,144.408597 164.258734,139.81967 159.995801,137.344438 L159.995801,137.344438 Z M159.012565,145.269783 L159.012565,151.48359 L153.659992,154.59117 L148.306072,151.48359 L148.306072,145.269783 L153.659992,142.162203 L159.012565,145.269783 L159.012565,145.269783 Z" id="Fill-68-Copy" fill="#2E7893"></path>
                    <path d="M191.018906,191.60455 L191.018906,141.003123 C195.210453,138.917862 198.111671,134.601101 198.145344,129.578872 C198.179016,124.40905 195.163311,119.944696 190.798014,117.878393 L190.727976,128.454998 L185.355199,131.526019 L180.022829,128.383233 L180.091521,117.806627 C175.699286,119.814706 172.625665,124.238438 172.591992,129.40826 C172.55832,134.406116 175.376031,138.745896 179.506967,140.897506 L179.506967,191.60455 C175.405663,193.71283 172.590645,197.993031 172.590645,202.94214 C172.590645,209.977864 178.26378,215.681188 185.262263,215.681188 C192.260746,215.681188 197.933881,209.977864 197.933881,202.94214 C197.933881,197.993031 195.120211,193.71283 191.018906,191.60455 L191.018906,191.60455 Z M190.616183,206.04972 L185.262263,209.157301 L179.90969,206.04972 L179.90969,199.835914 L185.262263,196.728333 L190.616183,199.835914 L190.616183,206.04972 L190.616183,206.04972 Z" id="Fill-69-Copy" fill="#25627F"></path>
                    <path d="M129.034653,35.1206187 C138.999006,35.1206187 147.105986,43.5699873 147.105986,53.9556695 C147.105986,64.3399976 138.999006,72.7893662 129.034653,72.7893662 C119.070301,72.7893662 110.964668,64.3399976 110.964668,53.9556695 C110.964668,43.5699873 119.070301,35.1206187 129.034653,35.1206187 M129.034653,32.8864106 C117.827114,32.8864106 108.742286,42.3201848 108.742286,53.9556695 C108.742286,65.5911541 117.827114,75.0235743 129.034653,75.0235743 C140.242193,75.0235743 149.328368,65.5911541 149.328368,53.9556695 C149.328368,42.3201848 140.242193,32.8864106 129.034653,32.8864106" id="Fill-70-Copy" fill="#0B0B0A"></path>
                    <path d="M243.78364,35.1206187 C253.747993,35.1206187 261.854973,43.5699873 261.854973,53.9556695 C261.854973,64.3399976 253.747993,72.7893662 243.78364,72.7893662 C233.819288,72.7893662 225.712308,64.3399976 225.712308,53.9556695 C225.712308,43.5699873 233.819288,35.1206187 243.78364,35.1206187 M243.78364,32.8864106 C232.576101,32.8864106 223.491273,42.3201848 223.491273,53.9556695 C223.491273,65.5911541 232.576101,75.0235743 243.78364,75.0235743 C254.99118,75.0235743 264.077355,65.5911541 264.077355,53.9556695 C264.077355,42.3201848 254.99118,32.8864106 243.78364,32.8864106" id="Fill-71-Copy" fill="#0B0B0A"></path>
                    <path d="M100.225849,132.671558 C94.9177234,132.671558 90.5995679,128.203142 90.5995679,122.712406 C90.5995679,117.221671 94.9177234,112.754609 100.225849,112.754609 C105.533975,112.754609 109.853477,117.221671 109.853477,122.712406 C109.853477,128.203142 105.533975,132.671558 100.225849,132.671558 L100.225849,132.671558 Z M100.225849,114.988817 C96.1434007,114.988817 92.8219499,118.45387 92.8219499,122.712406 C92.8219499,126.970942 96.1434007,130.43735 100.225849,130.43735 C104.309644,130.43735 107.631095,126.970942 107.631095,122.712406 C107.631095,118.45387 104.309644,114.988817 100.225849,114.988817 L100.225849,114.988817 Z" id="Fill-72-Copy" fill="#0B0B0A"></path>
                    <path d="M100.225849,232.424208 C94.9177234,232.424208 90.5995679,227.957146 90.5995679,222.46641 C90.5995679,216.975675 94.9177234,212.508613 100.225849,212.508613 C105.533975,212.508613 109.853477,216.975675 109.853477,222.46641 C109.853477,227.957146 105.533975,232.424208 100.225849,232.424208 L100.225849,232.424208 Z M100.225849,214.742821 C96.1434007,214.742821 92.8219499,218.207874 92.8219499,222.46641 C92.8219499,226.724946 96.1434007,230.191354 100.225849,230.191354 C104.309644,230.191354 107.631095,226.724946 107.631095,222.46641 C107.631095,218.207874 104.309644,214.742821 100.225849,214.742821 L100.225849,214.742821 Z" id="Fill-73-Copy" fill="#0B0B0A"></path>
                    <path d="M272.592445,132.671558 C267.284319,132.671558 262.964817,128.203142 262.964817,122.712406 C262.964817,117.221671 267.284319,112.754609 272.592445,112.754609 C277.90057,112.754609 282.220073,117.221671 282.220073,122.712406 C282.220073,128.203142 277.90057,132.671558 272.592445,132.671558 L272.592445,132.671558 Z M272.592445,114.988817 C268.509997,114.988817 265.187199,118.45387 265.187199,122.712406 C265.187199,126.970942 268.509997,130.43735 272.592445,130.43735 C276.67624,130.43735 279.997691,126.970942 279.997691,122.712406 C279.997691,118.45387 276.67624,114.988817 272.592445,114.988817 L272.592445,114.988817 Z" id="Fill-74-Copy" fill="#0B0B0A"></path>
                    <path d="M272.592445,232.424208 C267.284319,232.424208 262.964817,227.957146 262.964817,222.46641 C262.964817,216.975675 267.284319,212.508613 272.592445,212.508613 C277.90057,212.508613 282.220073,216.975675 282.220073,222.46641 C282.220073,227.957146 277.90057,232.424208 272.592445,232.424208 L272.592445,232.424208 Z M272.592445,214.742821 C268.509997,214.742821 265.187199,218.207874 265.187199,222.46641 C265.187199,226.724946 268.509997,230.191354 272.592445,230.191354 C276.67624,230.191354 279.997691,226.724946 279.997691,222.46641 C279.997691,218.207874 276.67624,214.742821 272.592445,214.742821 L272.592445,214.742821 Z" id="Fill-75-Copy" fill="#0B0B0A"></path>
                    <path d="M373.5034,186.14902 C369.399402,172.596179 357.442987,163.178653 343.490469,162.344549 C334.481068,142.469576 328.313621,134.315393 315.221771,121.209394 C314.835211,105.739196 304.833146,93.3034582 292.593882,93.3034582 C292.418785,93.3034582 292.245036,93.3156448 292.069939,93.3210611 L292.069939,77.1751843 C301.856501,76.2530657 301.863235,67.1049993 301.863235,53.614445 C301.863235,40.1225366 301.856501,30.9758243 292.069939,30.0537057 L292.069939,22.0268055 C292.069939,22.0268055 259.95854,13.4379682 216.595155,10.269455 C216.044273,4.22355261 211.459432,2.39285608 207.957497,1.54385703 C202.846018,0.303533049 195.279145,0.303533049 185.698658,0.303533049 C176.118172,0.303533049 168.551298,0.303533049 163.439819,1.54385703 C159.936537,2.39421015 155.350349,4.22626074 154.802162,10.2789334 C111.842845,13.454217 80.7119887,22.0268055 80.7119887,22.0268055 L80.7119887,30.1146386 C71.4843895,31.3319435 71.477655,40.3838712 71.477655,53.614445 C71.477655,66.8436647 71.4843895,75.8969465 80.7119887,77.1128973 L80.7119887,92.9974394 C67.9851481,92.9974394 57.1884126,105.945014 56.7183452,121.501872 C43.1847127,135.076378 37.6597365,143.279307 28.6314782,163.24771 C12.700367,165.330263 0.380289724,179.233808 0.316985511,195.539464 C0.265803382,208.492454 7.84075853,220.268762 19.6126483,225.542847 L23.107849,227.108147 L23.1967442,195.959224 L43.2251196,196.03776 L43.1241022,227.637586 L46.6677913,226.004583 C57.9669198,220.795493 65.3007801,208.936588 65.3519623,195.794028 C65.381594,188.056898 61.626442,180.902016 58.0840999,175.348994 C62.7160826,163.496859 65.1418462,158.897098 72.9201829,150.537098 C75.4132914,151.586499 78.0532118,152.11323 80.7119887,152.11323 L80.7119887,260.823023 L62.8992608,260.823023 L62.8992608,299.546587 L310.001194,299.546587 L310.001194,260.823023 L292.069939,260.823023 L292.069939,150.95415 C292.245036,150.958212 292.418785,150.969045 292.593882,150.969045 C295.381961,150.969045 297.473694,150.375964 299.621997,149.376664 C307.626612,157.893736 311.194546,162.975543 315.734939,174.418751 C308.479199,183.175492 306.124821,194.78525 309.444925,205.75318 C312.048479,214.354204 317.829366,221.419717 325.720842,225.651172 C330.639714,228.287538 336.009797,229.625354 341.431062,229.625354 C344.706718,229.625354 348.001231,229.136537 351.224358,228.150777 C368.884887,222.746702 378.878871,203.904881 373.5034,186.14902 L373.5034,186.14902 Z M188.941989,246.012255 L288.031938,246.012255 L288.031938,252.158358 L188.941989,252.158358 L188.941989,246.012255 Z M118.511338,95.5024605 L254.987139,95.5024605 L254.987139,240.881701 L118.511338,240.881701 L118.511338,95.5024605 Z M84.7499893,95.5024605 L115.596651,95.5024605 L115.596651,240.881701 L84.7499893,240.881701 L84.7499893,95.5024605 Z M84.7499893,246.012255 L183.839939,246.012255 L183.839939,252.158358 L84.7499893,252.158358 L84.7499893,246.012255 Z M257.903174,95.5024605 L288.033285,95.5024605 L288.033285,240.881701 L257.903174,240.881701 L257.903174,95.5024605 Z M297.418471,53.614445 C297.418471,67.8781707 296.921466,72.018903 292.069939,72.6851032 L292.069939,34.5424327 C296.921466,35.2086329 297.418471,39.3507192 297.418471,53.614445 L297.418471,53.614445 Z M185.698658,3.78483539 C203.849457,3.78483539 211.984722,4.04481597 213.059547,10.0257232 C204.307403,9.45566162 195.13368,9.11308305 185.698658,9.11308305 C176.228617,9.11308305 167.057588,9.45836975 158.336422,10.0324935 C159.407206,4.04481597 167.541124,3.78483539 185.698658,3.78483539 L185.698658,3.78483539 Z M185.698658,13.5097337 C234.038832,13.5097337 275.974506,22.6618622 287.696561,25.46884 L287.696561,91.0340445 L85.0853669,91.0340445 L85.0853669,25.4471749 C96.5784488,22.6253025 137.456807,13.5097337 185.698658,13.5097337 L185.698658,13.5097337 Z M75.9224189,53.614445 C75.9224189,39.9207808 76.3830581,35.5579818 80.7119887,34.6412795 L80.7119887,72.5876105 C76.3830581,71.6695541 75.9224189,67.3081092 75.9224189,53.614445 L75.9224189,53.614445 Z M60.3684392,195.775071 C60.330726,205.349668 55.5451969,214.390764 48.1345633,219.441428 L48.2248055,191.048029 L18.228037,190.930225 L18.1472231,219.088017 C10.1991772,214.045477 5.26279549,205.185826 5.30050863,195.558421 C5.35438456,181.328547 16.4326218,169.258407 30.5198294,168.081724 L31.9071345,167.966629 L52.7692398,176.332045 L53.2150631,177.01314 C56.5607581,182.116613 60.3953771,188.859859 60.3684392,195.775071 L60.3684392,195.775071 Z M52.9753153,174.726124 L52.9456835,174.799243 L32.5778898,166.63152 L32.5859712,166.615271 C36.8758418,157.046091 40.3171665,150.218892 44.15852,144.269129 L61.2493105,157.154416 C58.0585088,162.072382 55.9236753,167.118984 52.9753153,174.726124 L52.9753153,174.726124 Z M62.076306,155.9168 L44.9760872,143.023388 C49.1406962,136.797395 53.8629211,131.419047 60.6539816,124.633825 L70.8634695,145.436333 L70.5496422,145.766725 C66.9008951,149.602793 64.2407713,152.775368 62.076306,155.9168 L62.076306,155.9168 Z M73.514165,145.28197 L72.0622088,144.512861 L61.6857055,123.369128 L61.6857055,122.559397 C61.6857055,109.250287 70.3987896,98.0074817 80.7119887,98.0074817 L80.7119887,147.10048 C78.2431244,147.099126 75.7971574,146.493858 73.514165,145.28197 L73.514165,145.28197 Z M84.7499893,255.088556 L183.839939,255.088556 L183.839939,260.821669 L84.7499893,260.821669 L84.7499893,255.088556 Z M67.0719512,265.017918 L183.839939,265.017918 L183.839939,295.351693 L67.0719512,295.351693 L67.0719512,265.017918 Z M188.941989,265.017918 L305.828503,265.017918 L305.828503,295.351693 L188.941989,295.351693 L188.941989,265.017918 Z M188.941989,255.088556 L288.031938,255.088556 L288.031938,260.821669 L188.941989,260.821669 L188.941989,255.088556 Z M292.593882,146.569686 C292.418785,146.569686 292.245036,146.561562 292.069939,146.556145 L292.069939,97.7190657 C292.245036,97.7122954 292.418785,97.7014629 292.593882,97.7014629 C302.66464,97.7014629 310.857821,108.662623 310.857821,122.135574 L310.857821,122.392847 L300.178266,144.152679 L299.072462,144.738989 C296.836611,145.926505 295.140867,146.569686 292.593882,146.569686 L292.593882,146.569686 Z M301.432228,144.909602 L311.733305,123.924295 C318.43547,130.613378 323.214265,135.848196 327.462381,141.961801 L310.218044,154.963538 C307.88387,151.876269 305.14832,148.814727 301.674669,145.164166 L301.432228,144.909602 L301.432228,144.909602 Z M311.086794,156.141575 L328.28803,143.170982 C332.206157,149.01242 335.740417,155.761082 340.035675,165.337034 L320.304965,174.082942 L320.292843,174.053153 C317.2502,166.203635 314.617014,161.041938 311.086794,156.141575 L311.086794,156.141575 Z M353.511391,222.58286 L349.995987,214.856562 L360.934147,200.262444 L353.317438,182.229 L333.974634,179.844491 L322.247192,195.492072 L329.863901,213.524162 L348.002578,215.761078 L351.48835,223.42238 C350.981917,223.607887 350.470095,223.783916 349.948846,223.943696 C342.511274,226.218526 334.638655,225.446708 327.778902,221.769066 C320.91915,218.091425 315.893873,211.949384 313.631084,204.472234 C310.627501,194.555058 312.963023,184.032616 319.879345,176.325275 L320.554141,175.573769 L340.659289,166.662664 L342.015616,166.688391 C354.660295,166.92129 365.632128,175.256917 369.317241,187.429966 C373.615193,201.624634 366.607282,216.611431 353.511391,222.58286 L353.511391,222.58286 Z M332.487658,210.023902 L326.576122,196.025573 L335.67846,183.878252 L350.692334,185.730614 L356.605216,199.728943 L347.502879,211.87491 L332.487658,210.023902 L332.487658,210.023902 Z" id="Fill-76-Copy" fill="#0B0B0A"></path>
                    <path d="M185.698658,68.5700982 C171.620879,68.5700982 159.999842,64.1287634 159.512264,63.9391943 C157.793622,63.272994 156.938342,61.3339723 157.601016,59.6075388 C158.262343,57.8811053 160.191101,57.0226278 161.907049,57.6847658 C162.024229,57.72945 172.913901,61.8674741 185.698658,61.8674741 C198.616758,61.8674741 211.023037,57.6820577 211.146952,57.6400816 C212.891185,57.0429388 214.78223,57.9826602 215.374865,59.7348209 C215.9675,61.4869817 215.0341,63.3907977 213.291213,63.9852325 C212.743026,64.1720935 199.707746,68.5700982 185.698658,68.5700982" id="Fill-77-Copy" fill="#0B0B0A"></path>
                    <path d="M185.888571,230.97942 L184.785461,230.97942 C179.737287,230.97942 175.336971,230.424253 170.517769,229.178513 L169.863177,229.009254 L167.646182,219.327686 C167.628673,219.163844 167.588266,218.956672 167.550553,218.830744 C167.46031,218.790122 167.312152,218.741376 167.223256,218.711587 L167.097995,218.670965 C164.631824,217.835506 162.197979,216.772565 159.865152,215.51193 L155.502549,213.055655 C153.549546,211.793666 151.739315,210.430122 150.063774,208.967731 L149.966797,208.881071 C149.894065,208.816076 149.77015,208.705043 149.686643,208.648172 C149.593707,208.677961 149.363387,208.760559 149.22331,208.8242 L149.095354,208.872947 L139.793676,211.799082 L139.318221,211.317035 C135.812245,207.768029 133.110367,204.232564 130.556648,199.854871 L129.999032,198.897546 C127.445314,194.519853 125.695693,190.422451 124.327244,185.61281 L124.141372,184.96015 L131.328421,178.139723 C131.45907,178.04223 131.616657,177.901407 131.705552,177.806622 C131.694777,177.706422 131.661105,177.553412 131.642248,177.46269 L131.613963,177.334054 C131.084632,174.770808 130.765417,172.122256 130.665747,169.462871 L130.471794,163.957241 L130.474487,163.911203 C130.578199,161.647205 130.844884,159.389978 131.26377,157.197746 L131.289361,157.070464 C131.308217,156.974325 131.340543,156.811837 131.348624,156.711636 C131.281279,156.650703 131.106183,156.499048 130.962065,156.394785 L130.857006,156.309479 L123.676693,149.686745 L123.851789,149.031377 C125.147505,144.20278 126.835169,140.07965 129.32289,135.662689 L129.867036,134.69724 C132.35341,130.280278 135.001412,126.704191 138.453512,123.102377 L138.922233,122.612205 L148.396314,125.443556 C148.54582,125.508552 148.746508,125.574901 148.871769,125.60469 C148.95393,125.545111 149.068416,125.439494 149.135761,125.375853 L149.234085,125.287839 C151.173618,123.541094 153.292289,121.935173 155.530834,120.516112 L160.649046,117.468111 C162.724617,116.409232 164.810962,115.529089 166.912123,114.816851 L167.034691,114.776229 C167.127627,114.746439 167.286561,114.693631 167.376803,114.6503 C167.395659,114.562286 167.441454,114.334803 167.46031,114.157421 L167.481861,114.023368 L169.675958,104.478561 L170.33055,104.309302 C175.149752,103.063562 179.550068,102.508395 184.598242,102.508395 L185.701352,102.508395 C190.750873,102.508395 195.151189,103.063562 199.970391,104.309302 L200.623636,104.478561 L202.840631,114.160129 C202.85814,114.322617 202.899894,114.531143 202.936261,114.657071 C203.02785,114.699047 203.176008,114.746439 203.264904,114.776229 L203.387471,114.816851 C205.854989,115.652309 208.288834,116.71525 210.621661,117.975885 L214.984264,120.43216 C216.937267,121.694149 218.747498,123.057693 220.423039,124.521438 L220.521363,124.608098 C220.594095,124.673093 220.71801,124.782772 220.800171,124.839643 C220.886372,124.811208 221.10457,124.73538 221.266197,124.662261 L221.391459,124.614868 L230.693137,121.688733 L231.168592,122.17078 C234.674568,125.719786 237.376446,129.255251 239.930165,133.634298 L240.489128,134.590269 C243.0415,138.969316 244.79112,143.066719 246.159569,147.875005 L246.345441,148.527665 L239.158392,155.348092 C239.027743,155.445585 238.870156,155.586408 238.781261,155.681193 C238.792036,155.781393 238.824362,155.934403 238.844565,156.026479 L238.87285,156.155115 C239.402181,158.718361 239.721396,161.366914 239.821066,164.024944 L240.015019,169.531928 L240.012326,169.576613 C239.907268,171.839256 239.641929,174.097837 239.223043,176.290069 L239.197452,176.415997 C239.178596,176.51349 239.144923,176.677332 239.138189,176.776179 C239.205534,176.837112 239.379284,176.988767 239.523402,177.09303 L239.62846,177.178336 L246.811467,183.80107 L246.635024,184.456438 C245.337961,189.28639 243.651644,193.409519 241.163924,197.826481 L240.621124,198.790575 C238.133403,203.206183 235.485401,206.78227 232.031954,210.386792 L231.564581,210.87561 L222.091846,208.045613 C221.94234,207.979264 221.740305,207.912914 221.615044,207.883125 C221.532883,207.942704 221.418397,208.049675 221.349705,208.113316 L221.254075,208.198622 C219.311848,209.948075 217.193177,211.552642 214.95598,212.971703 L209.773116,216.05491 C207.76085,217.078584 205.674504,217.96008 203.57469,218.670965 L203.449429,218.711587 C203.35784,218.74273 203.201599,218.794185 203.11001,218.837515 C203.092501,218.925529 203.046706,219.153012 203.02785,219.32904 L203.004952,219.464447 L200.810855,229.009254 L200.156263,229.178513 C195.337061,230.424253 190.936745,230.97942 185.888571,230.97942 L185.888571,230.97942 Z M171.723243,227.179912 C176.102009,228.260456 180.160213,228.745212 184.785461,228.745212 L185.888571,228.745212 C190.512472,228.745212 194.570676,228.260456 198.950789,227.179912 L200.824324,219.024376 C200.872813,218.615448 200.998074,217.935707 201.32133,217.488865 C201.728093,216.926928 202.349013,216.723818 202.761164,216.588412 L202.862181,216.55456 C204.854243,215.880236 206.830143,215.047485 208.737351,214.077974 L213.7963,211.066533 C215.902849,209.73007 217.921849,208.20133 219.77114,206.53583 L219.847914,206.465418 C220.148272,206.187835 220.652012,205.724745 221.340277,205.646209 C221.884424,205.585276 222.534975,205.808697 222.913454,205.968476 L230.896519,208.346215 C233.990344,205.047712 236.409373,201.735668 238.686978,197.68972 L239.229778,196.725625 C241.50873,192.679678 243.088641,188.891002 244.311625,184.526849 L238.17381,178.86821 C237.88692,178.656976 237.32257,178.193885 237.089557,177.677986 C236.802667,177.044284 236.940051,176.371313 237.020865,175.97051 L237.041068,175.866247 C237.437056,173.794526 237.690273,171.659165 237.791291,169.518388 L237.600031,164.106188 C237.505748,161.574086 237.202696,159.051462 236.696262,156.608727 L236.674712,156.50311 C236.587164,156.103661 236.441699,155.434753 236.717813,154.799696 C236.938704,154.291921 237.458607,153.839664 237.785903,153.590515 L243.833476,147.839799 C242.548535,143.497311 240.910707,139.731655 238.571145,135.720913 L238.013529,134.763589 C235.673967,130.752847 233.205102,127.478717 230.062789,124.227606 L222.117437,126.72721 C221.741652,126.892406 221.089754,127.129368 220.548301,127.073851 C219.860036,127.004794 219.350908,126.549828 219.046509,126.279015 L218.967042,126.207249 C217.370968,124.813916 215.645591,123.515367 213.839401,122.346809 L209.552224,119.933864 C207.347352,118.74364 205.027993,117.730799 202.677656,116.933255 L202.576639,116.900757 C202.188732,116.773475 201.542221,116.560887 201.135458,116.000304 C200.810855,115.552108 200.685594,114.872367 200.638452,114.463439 L198.76357,106.307903 C194.384804,105.227359 190.3266,104.742603 185.701352,104.742603 L184.598242,104.742603 C179.974341,104.742603 175.916137,105.227359 171.536024,106.307903 L169.662489,114.463439 C169.614001,114.872367 169.488739,115.552108 169.165483,115.99895 C168.757373,116.562241 168.109515,116.773475 167.722956,116.900757 L167.621938,116.933255 C165.621794,117.611642 163.633773,118.451162 161.71579,119.426089 L156.690513,122.421282 C154.582617,123.759099 152.563617,125.287839 150.715673,126.951985 L150.636206,127.025105 C150.335847,127.301334 149.833454,127.763071 149.146536,127.841606 C148.599696,127.907956 147.950491,127.679118 147.573359,127.519339 L139.590294,125.1416 C136.496469,128.440103 134.078787,131.752147 131.799835,135.796741 L131.257035,136.76219 C128.978084,140.809491 127.398172,144.598167 126.176535,148.960966 L132.311656,154.618251 C132.642993,154.861983 133.169631,155.306116 133.397256,155.809829 C133.684146,156.442177 133.548109,157.113794 133.465948,157.515951 L133.445745,157.620214 C133.049757,159.691935 132.797887,161.827296 132.695522,163.969427 L132.886782,169.381627 C132.981065,171.915084 133.285464,174.437708 133.790551,176.879088 L133.812101,176.983351 C133.899649,177.3828 134.045114,178.051708 133.769,178.688119 C133.548109,179.197248 133.028206,179.649506 132.702257,179.8973 L126.65199,185.648016 C127.939625,189.991858 129.576106,193.75616 131.915668,197.766902 L132.473284,198.724226 C134.812846,202.734968 137.281711,206.009098 140.422677,209.260209 L148.369376,206.760605 C148.745161,206.595409 149.391672,206.361155 149.939859,206.415318 C150.626777,206.481667 151.137252,206.939341 151.442998,207.211508 L151.521118,207.280566 C153.117192,208.673899 154.841222,209.972448 156.647412,211.141006 L160.934589,213.553951 C163.140808,214.745529 165.45882,215.75837 167.809157,216.553206 L167.911521,216.588412 C168.323672,216.723818 168.945939,216.926928 169.351355,217.487511 C169.675958,217.935707 169.801219,218.615448 169.848361,219.024376 L171.723243,227.179912 L171.723243,227.179912 Z" id="Fill-78-Copy" fill="#0B0B0A"></path>
                    <path d="M133.483458,39.7758958 L134.204048,38.1171656 C132.35341,37.3913865 130.341145,36.989229 128.235943,36.989229 C128.191495,37.1964011 128.246718,38.7292032 128.235943,38.9377293 C130.219924,38.9377293 131.898159,39.1936476 133.483458,39.7758958" id="Fill-79-Copy" fill="#FFFFFF"></path>
                    <path d="M141.303548,43.4941596 C141.034169,43.1393944 140.749973,42.7954618 140.453656,42.4637158 C140.079218,42.0466636 139.684577,41.6472143 139.271079,41.26943 C138.388861,40.4651151 137.415054,39.7623551 136.373901,39.1652123 L135.583272,40.7995693 C139.625313,43.0798156 142.433596,46.6707972 144.280193,49.9422194 C144.280193,48.858967 142.725873,45.3695403 141.303548,43.4941596" id="Fill-80-Copy" fill="#FFFFFF"></path>
                    <path d="M248.177222,39.7758958 L248.896466,38.1171656 C247.047175,37.3913865 245.034909,36.989229 242.929707,36.989229 C242.885259,37.1964011 242.940482,38.7292032 242.929707,38.9377293 C244.912341,38.9377293 246.591923,39.1936476 248.177222,39.7758958" id="Fill-81-Copy" fill="#FFFFFF"></path>
                    <path d="M255.995966,43.4941596 C255.726586,43.1393944 255.443738,42.7954618 255.14742,42.4637158 C254.772982,42.0466636 254.378341,41.6472143 253.964844,41.26943 C253.082625,40.4651151 252.108818,39.7623551 251.067666,39.1652123 L250.27569,40.7995693 C254.319078,43.0798156 257.12736,46.6707972 258.973958,49.9422194 C258.973958,48.858967 257.419637,45.3695403 255.995966,43.4941596" id="Fill-82-Copy" fill="#FFFFFF"></path>
                </g>
            </g>
        </g>
    </g>
</svg>