<?xml version="1.0" encoding="UTF-8" standalone="no"?>
<svg width="400px" height="400px" viewBox="0 0 400 400" version="1.1" xmlns="http://www.w3.org/2000/svg" xmlns:xlink="http://www.w3.org/1999/xlink" style="background: #FFFFFF;">
    <!-- Generator: Sketch 40.3 (33839) - http://www.bohemiancoding.com/sketch -->
    <title>collaboration</title>
    <desc>Created with Sketch.</desc>
    <defs>
        <polygon id="path-1" points="160.34908 0.576860452 0 0.576860452 0 269.713879 320.69816 269.713879 320.69816 0.576860452 160.34908 0.576860452"></polygon>
    </defs>
    <g id="Assets" stroke="none" stroke-width="1" fill="none" fill-rule="evenodd">
        <g id="collaboration">
            <g id="Page-1" transform="translate(38.000000, 35.000000)">
                <polygon id="Fill-1" fill="#CBE6F1" points="4.97699302 6.01738556 4.97699302 208.687025 22.0223419 208.687025 32.9711791 230.307774 44.8183186 208.687025 143.858016 208.687025 167.159133 265.202588 179.307365 208.687025 271.377133 208.687025 284.448551 226.751599 292.421295 208.687025 315.719923 208.687025 315.719923 6.01738556"></polygon>
                <g id="Group-57" transform="translate(0.000000, 0.465364)">
                    <path d="M315.720919,266.225144 C315.720919,281.686668 303.186988,294.221625 287.726733,294.221625 C272.268965,294.221625 259.735035,281.686668 259.735035,266.225144 C259.735035,250.763621 272.268965,238.228663 287.726733,238.228663 C303.186988,238.228663 315.720919,250.763621 315.720919,266.225144" id="Fill-2" fill="#CBE6F1"></path>
                    <path d="M264.708793,287.997945 C264.708793,287.997945 264.584374,295.396482 268.720049,298.656517 C272.858212,301.916552 282.542956,297.529192 283.155095,297.0265 C283.767235,296.523807 284.824793,289.194951 282.943584,287.313587 C282.943584,287.313587 293.549026,285.113686 293.92477,282.856547 C294.300514,280.599409 280.507467,283.735015 275.366491,284.610993 C270.225514,285.489461 271.730979,280.723837 271.730979,280.723837 C271.730979,280.723837 271.855398,273.342721 267.217072,275.027487 C267.217072,275.027487 266.965747,286.367928 264.708793,287.997945" id="Fill-4" fill="#FEFEFE"></path>
                    <path d="M289.678114,296.346869 C288.381672,296.346869 287.289277,295.343973 287.197207,294.030005 C287.102649,292.661288 288.137812,291.471749 289.508905,291.374694 C302.627602,290.461387 312.904579,279.42704 312.904579,266.257496 C312.904579,252.373729 301.612347,241.080571 287.729719,241.080571 C273.847091,241.080571 262.55237,252.373729 262.55237,266.257496 C262.55237,270.530381 263.639788,274.751006 265.695184,278.461473 C266.364556,279.663455 265.929091,281.176509 264.729695,281.843448 C263.520347,282.515363 262.012393,282.077374 261.345509,280.875392 C258.879533,276.428306 257.575626,271.374008 257.575626,266.257496 C257.575626,249.631319 271.102416,236.103419 287.729719,236.103419 C304.354533,236.103419 317.881323,249.631319 317.881323,266.257496 C317.881323,282.03258 305.571347,295.246919 289.8523,296.341892 C289.795067,296.344381 289.735347,296.346869 289.678114,296.346869" id="Fill-6" fill="#369ECC"></path>
                    <path d="M282.498912,259.959656 C282.158005,262.249146 280.39126,263.884141 278.552353,263.610397 C276.713447,263.336654 275.499121,261.256204 275.840028,258.966714 C276.180935,256.677224 277.947679,255.04223 279.786586,255.315973 C281.625493,255.589716 282.839819,257.670166 282.498912,259.959656" id="Fill-8" fill="#369ECC"></path>
                    <path d="M299.598507,262.172249 C299.075949,264.426899 297.182298,265.915068 295.370763,265.494498 C293.559228,265.073929 292.5166,262.906379 293.039158,260.64924 C293.564205,258.39459 295.455367,256.906422 297.266902,257.326991 C299.078437,257.747561 300.121065,259.917599 299.598507,262.172249" id="Fill-10" fill="#369ECC"></path>
                    <path d="M266.21824,288.499393 C266.275472,290.109502 266.710937,295.395238 269.799007,297.829065 C272.996565,300.347504 281.13603,297.134753 282.731077,296.261262 C283.258612,294.842774 283.6891,289.323112 282.556891,288.193299 C282.235891,287.869784 282.116449,287.396954 282.243356,286.958965 C282.37524,286.518487 282.738542,286.187506 283.18396,286.095429 C286.993658,285.304062 290.706309,284.117011 292.420798,283.208681 C289.474565,283.233566 282.753472,284.522649 279.580798,285.129861 C278.179844,285.401116 276.930681,285.64002 275.972658,285.804266 C273.939658,286.147689 272.43917,285.784357 271.508519,284.716758 C270.244426,283.265918 270.655007,281.153117 270.83417,280.463781 C270.824216,279.236913 270.49824,276.783177 269.482984,276.06149 C269.331193,275.954481 269.124658,275.815121 268.721542,275.857427 C268.6021,279.152302 268.121844,286.097918 266.21824,288.499393 M273.302635,301.258323 C271.41396,301.258323 269.627309,300.860151 268.258705,299.782598 C263.637798,296.136834 263.714937,288.317727 263.719914,287.984258 C263.727379,287.593552 263.916495,287.225243 264.235007,286.996294 C265.185565,286.309446 266.133635,280.628027 266.26303,274.839599 C266.272984,274.326952 266.59896,273.871543 267.081705,273.697343 C268.925588,273.027916 270.19217,273.513188 270.931216,274.035789 C273.334984,275.752907 273.330007,280.160175 273.322542,280.660379 C273.320053,280.777342 273.302635,280.896793 273.265309,281.011268 C273.123472,281.47912 272.964216,282.603957 273.38724,283.084252 C273.700774,283.442607 274.47217,283.537173 275.554612,283.350529 C276.497705,283.188772 277.729449,282.952357 279.112984,282.68608 C289.37503,280.717616 293.888937,280.117869 295.302333,281.494052 C295.707937,281.892224 295.8871,282.439711 295.792542,283.002129 C295.404356,285.328948 290.193705,287.058508 285.304053,288.178367 C285.759426,289.594367 285.806705,291.358767 285.73703,292.809607 C285.684774,293.847344 285.443402,297.29651 284.443077,298.115252 C284.032495,298.451209 278.314216,301.258323 273.302635,301.258323" id="Fill-12" fill="#369ECC"></path>
                    <path d="M278.375928,275.854938 C277.766277,275.854938 277.231277,275.404506 277.146672,274.779873 C277.052114,274.100492 277.527393,273.473371 278.209207,273.378805 L295.356579,270.999726 C296.025951,270.915115 296.665463,271.375501 296.760021,272.062348 C296.854579,272.74173 296.376812,273.368851 295.697486,273.463417 L278.547626,275.842495 C278.492881,275.849961 278.43316,275.854938 278.375928,275.854938" id="Fill-14" fill="#369ECC"></path>
                    <path d="M305.563135,255.941352 C305.120205,255.941352 304.689716,255.702449 304.468251,255.284368 C303.44553,253.380607 301.828088,251.108537 299.897112,251.08614 L299.86974,251.08614 C297.580437,251.08614 295.368274,254.12718 294.708856,255.304277 C294.372926,255.899046 293.618949,256.123018 293.014274,255.782083 C292.417065,255.446125 292.200577,254.689598 292.536507,254.089852 C292.660926,253.86588 295.651949,248.597564 299.86974,248.597564 L299.91453,248.597564 C302.445205,248.62245 304.7146,250.476439 306.658019,254.10976 C306.983995,254.716973 306.755065,255.471011 306.150391,255.792038 C305.963763,255.894069 305.762205,255.941352 305.563135,255.941352" id="Fill-16" fill="#369ECC"></path>
                    <path d="M270.023707,253.513497 C269.657916,253.513497 269.292126,253.35174 269.045777,253.043156 C268.622753,252.503135 268.714823,251.719234 269.249823,251.291199 C273.293428,248.098356 282.410823,249.723396 283.438521,249.919993 C284.11287,250.046911 284.5558,250.698918 284.426405,251.37581 C284.297009,252.047726 283.650033,252.490692 282.970707,252.363775 C280.492288,251.890946 273.470102,251.129441 270.797591,253.24722 C270.56866,253.426397 270.29494,253.513497 270.023707,253.513497" id="Fill-18" fill="#369ECC"></path>
                    <path d="M60.9631256,268.680871 C60.9631256,284.142394 48.4291953,296.677352 32.9689395,296.677352 C17.5111721,296.677352 4.97724186,284.142394 4.97724186,268.680871 C4.97724186,253.219348 17.5111721,240.68439 32.9689395,240.68439 C48.4291953,240.68439 60.9631256,253.219348 60.9631256,268.680871" id="Fill-20" fill="#CBE6F1"></path>
                    <path d="M32.9689395,244.350311 C19.5541256,244.350311 8.64261395,255.265206 8.64261395,268.678631 C8.64261395,282.097034 19.5541256,293.011929 32.9689395,293.011929 C46.3862419,293.011929 57.2977535,282.097034 57.2977535,268.678631 C57.2977535,255.265206 46.3862419,244.350311 32.9689395,244.350311 M32.9689395,297.989081 C16.8119395,297.989081 3.66586977,284.841933 3.66586977,268.678631 C3.66586977,252.520307 16.8119395,239.373159 32.9689395,239.373159 C49.1284279,239.373159 62.2744977,252.520307 62.2744977,268.678631 C62.2744977,284.841933 49.1284279,297.989081 32.9689395,297.989081" id="Fill-22" fill="#369ECC"></path>
                    <path d="M45.6909907,264.736229 L43.9441535,264.736229 C42.0828512,264.736229 40.5724093,263.225663 40.5724093,261.364208 L40.5724093,259.617228 C40.5724093,257.753284 42.0828512,256.242719 43.9441535,256.242719 L45.6909907,256.242719 C47.5547814,256.242719 49.0627349,257.753284 49.0627349,259.617228 L49.0627349,261.364208 C49.0627349,263.225663 47.5547814,264.736229 45.6909907,264.736229" id="Fill-24" fill="#369ECC"></path>
                    <path d="M22.8967558,264.736229 L21.1499186,264.736229 C19.2886163,264.736229 17.7781744,263.225663 17.7781744,261.364208 L17.7781744,259.617228 C17.7781744,257.753284 19.2886163,256.242719 21.1499186,256.242719 L22.8967558,256.242719 C24.7605465,256.242719 26.2685,257.753284 26.2685,259.617228 L26.2685,261.364208 C26.2685,263.225663 24.7605465,264.736229 22.8967558,264.736229" id="Fill-26" fill="#369ECC"></path>
                    <path d="M16.3028186,269.494635 L48.1589581,274.797791 C46.5489814,279.438986 32.4697721,296.898836 16.3028186,269.494635" id="Fill-28" fill="#FEFEFE"></path>
                    <path d="M17.5308302,270.356429 C23.5253186,279.666193 29.8806209,284.260104 36.006993,283.63796 C41.5983651,283.07803 45.8982721,278.339781 47.602807,275.360956 L17.5308302,270.356429 Z M34.8548767,286.183773 C27.5962953,286.183773 20.5765977,280.517286 13.964993,269.311227 C13.7211326,268.895635 13.7385512,268.373034 14.0122721,267.974862 C14.2835047,267.57669 14.7687372,267.367649 15.2415279,267.452261 L49.6283419,273.175986 C49.9916442,273.235712 50.3076674,273.452218 50.4942953,273.765779 C50.6809233,274.081828 50.7207372,274.46258 50.6012953,274.810981 C49.4043884,278.265124 43.7955977,285.360055 36.2533419,286.114093 C35.7880163,286.161376 35.317714,286.183773 34.8548767,286.183773 L34.8548767,286.183773 Z" id="Fill-30" fill="#369ECC"></path>
                    <path d="M138.183284,320.84715 C143.426284,327.588703 152.317237,332.023345 162.402609,332.023345 C178.519795,332.023345 191.586237,320.697836 191.586237,306.726969 C191.586237,302.541184 190.391819,298.59928 188.314028,295.122739 L191.586237,279.487015 L188.667377,275.10961 L179.052307,285.969756 C174.326888,283.117848 168.596167,281.433082 162.402609,281.433082 C159.5584,281.433082 156.818702,281.801391 154.218353,282.460864 L141.542586,270.493301 L141.76654,288.841573 C136.483726,293.420553 133.216493,299.744025 133.216493,306.726969 C133.216493,308.157901 133.353353,309.558969 133.617121,310.922709" id="Fill-32" fill="#9ACDE4"></path>
                    <path d="M162.402609,334.511424 C151.916609,334.511424 142.129842,329.97475 136.219958,322.374638 C135.373912,321.289619 135.570493,319.726793 136.652935,318.883166 C137.742842,318.032073 139.303051,318.238625 140.146609,319.318667 C145.120865,325.716796 153.439493,329.534272 162.402609,329.534272 C177.12133,329.534272 189.097865,319.303735 189.097865,306.72896 C189.097865,303.115548 188.114958,299.639007 186.179005,296.398881 C185.858005,295.861348 185.751005,295.224273 185.8804,294.612083 L188.936121,280.001653 L188.386191,279.177934 L180.913609,287.619184 C180.112353,288.520049 178.786051,288.719135 177.765819,288.101968 C171.164167,284.11278 162.765912,282.861027 154.828005,284.874285 C154.00933,285.083325 153.128447,284.854376 152.508842,284.272049 L144.103121,276.331003 L144.252423,288.813701 C144.262377,289.545342 143.946353,290.244632 143.393935,290.722439 C138.437098,295.020209 135.704865,300.704117 135.704865,306.72896 C135.704865,307.978225 135.824307,309.232468 136.060702,310.454359 C136.319493,311.803167 135.436121,313.107181 134.084935,313.368481 C132.736237,313.612362 131.43233,312.74136 131.171051,311.392552 C130.877423,309.862077 130.728121,308.294274 130.728121,306.72896 C130.728121,299.606655 133.749005,292.907408 139.260749,287.746101 L139.054214,270.522666 C139.041772,269.524747 139.629028,268.616417 140.544749,268.213268 C141.455493,267.812607 142.525493,267.996761 143.252098,268.683608 L154.954912,279.732886 C163.064516,278.005815 171.510051,279.172957 178.519795,282.818721 L186.803586,273.459186 C187.313702,272.881836 188.075144,272.588184 188.836586,272.625513 C189.607981,272.677773 190.309702,273.0859 190.737702,273.727952 L193.656563,278.107846 C194.024842,278.665287 194.159214,279.344669 194.019865,279.999164 L190.944237,294.706649 C192.994656,298.451956 194.074609,302.587969 194.074609,306.72896 C194.074609,322.048635 179.866005,334.511424 162.402609,334.511424" id="Fill-34" fill="#369ECC"></path>
                    <path d="M154.104137,309.598786 C153.407393,308.42169 153.954835,307.458611 155.32344,307.458611 L159.265021,307.458611 C160.633626,307.458611 161.2383,308.451552 160.606253,309.665978 L158.737486,313.274413 C158.107928,314.488838 157.020509,314.52119 156.323765,313.344093 L154.104137,309.598786 Z" id="Fill-36" fill="#369ECC"></path>
                    <path d="M159.734577,324.688267 C154.078507,324.688267 149.221205,322.092682 148.915135,321.925948 C148.312949,321.597456 148.088995,320.843417 148.41746,320.241182 C148.745926,319.638946 149.497414,319.409997 150.107065,319.740978 C150.204112,319.793238 160.202391,325.113814 167.24946,319.838033 C167.796902,319.427417 168.575763,319.539403 168.991321,320.08689 C169.401902,320.636865 169.289926,321.418278 168.739995,321.831382 C165.880856,323.976535 162.69574,324.688267 159.734577,324.688267" id="Fill-38" fill="#369ECC"></path>
                    <path d="M157.294728,324.508592 L157.269844,324.508592 C156.583053,324.493661 156.0381,323.928754 156.050542,323.239418 L156.294402,310.935898 C156.309333,310.25154 156.7871,309.699076 157.560984,309.716496 C158.250263,309.731427 158.795216,310.296334 158.782774,310.983181 L158.538914,323.28919 C158.523984,323.966083 157.969077,324.508592 157.294728,324.508592" id="Fill-40" fill="#369ECC"></path>
                    <path d="M150.4848,301.377277 C150.4848,302.855491 149.287893,304.052496 147.8098,304.052496 C146.331707,304.052496 145.1348,302.855491 145.1348,301.377277 C145.1348,299.899063 146.331707,298.702058 147.8098,298.702058 C149.287893,298.702058 150.4848,299.899063 150.4848,301.377277" id="Fill-42" fill="#369ECC"></path>
                    <path d="M173.467156,299.064395 C173.467156,302.085526 171.016109,304.536773 167.995226,304.536773 C164.971853,304.536773 162.523295,302.085526 162.523295,299.064395 C162.523295,296.043263 164.971853,293.592016 167.995226,293.592016 C171.016109,293.592016 173.467156,296.043263 173.467156,299.064395" id="Fill-44" fill="#369ECC"></path>
                    <path d="M148.417709,312.204076 C148.268407,312.204076 148.119105,312.176702 147.969802,312.121953 L138.849919,308.620527 C138.207919,308.374158 137.891895,307.652471 138.135756,307.010418 C138.382105,306.370854 139.096267,306.052316 139.745733,306.296197 L148.865616,309.797623 C149.505128,310.043992 149.82364,310.765679 149.579779,311.407732 C149.390663,311.90047 148.917872,312.204076 148.417709,312.204076" id="Fill-46" fill="#369ECC"></path>
                    <path d="M162.402609,313.446125 C161.860144,313.446125 161.36247,313.090258 161.208191,312.54526 C161.016586,311.885788 161.399795,311.196452 162.059214,311.00732 L183.217842,304.92524 C183.869795,304.728643 184.56654,305.116861 184.755656,305.778822 C184.94726,306.438294 184.564051,307.12763 183.904633,307.316762 L162.746005,313.396353 C162.63154,313.431193 162.517074,313.446125 162.402609,313.446125" id="Fill-48" fill="#369ECC"></path>
                    <path d="M183.68267,316.729303 C183.660274,316.729303 183.635391,316.729303 183.612995,316.726815 L162.332437,315.509901 C161.645647,315.470084 161.123088,314.88278 161.160414,314.195933 C161.200228,313.511574 161.742693,312.986485 162.474274,313.026302 L183.752344,314.243216 C184.441623,314.283033 184.964181,314.870337 184.924367,315.554695 C184.887042,316.219145 184.3396,316.729303 183.68267,316.729303" id="Fill-50" fill="#369ECC"></path>
                    <path d="M127.380763,319.281089 C126.818391,319.281089 126.308274,318.900337 126.171414,318.330453 C126.00967,317.663515 126.417763,316.989111 127.087135,316.827353 L148.123833,311.720795 C148.803158,311.576458 149.465065,311.969653 149.626809,312.636591 C149.788553,313.306018 149.38046,313.977933 148.711088,314.14218 L127.674391,319.246249 C127.574856,319.268646 127.477809,319.281089 127.380763,319.281089" id="Fill-52" fill="#369ECC"></path>
                    <g id="Group-56">
                        <mask id="mask-2" fill="white">
                            <use xlink:href="#path-1"></use>
                        </mask>
                        <g id="Clip-55"></g>
                        <path d="M44.8173233,203.244011 L143.857021,203.244011 C145.872602,203.244011 147.689114,204.458436 148.455533,206.32238 L165.657649,248.04087 L174.444091,207.175961 C174.936788,204.881494 176.962323,203.244011 179.308858,203.244011 L271.378626,203.244011 C272.973672,203.244011 274.47416,204.010492 275.409788,205.302063 L283.397463,216.343876 L287.869067,206.210394 C288.665347,204.408664 290.451998,203.244011 292.422788,203.244011 L310.744672,203.244011 L310.744672,10.5311649 L9.95274186,10.5311649 L9.95274186,203.244011 L22.0238349,203.244011 C23.9000674,203.244011 25.6145558,204.299167 26.4630907,205.973979 L33.1443698,219.168409 L40.4527186,205.829641 C41.3261372,204.234464 43.0008116,203.244011 44.8173233,203.244011 M167.155649,269.713879 C165.154998,269.713879 163.331021,268.511897 162.557137,266.63551 L140.525091,213.198315 L47.7660442,213.198315 L37.3347884,232.233434 C36.4489279,233.853497 34.7643,234.824042 32.8905558,234.819065 C31.0441837,234.789202 29.3645326,233.739023 28.5309279,232.091585 L18.9631372,213.198315 L4.97599767,213.198315 C2.22883488,213.198315 -0.000746511628,210.968551 -0.000746511628,208.221163 L-0.000746511628,5.55401269 C-0.000746511628,2.80413608 2.22883488,0.576860452 4.97599767,0.576860452 L315.721416,0.576860452 C318.471067,0.576860452 320.69816,2.80413608 320.69816,5.55401269 L320.69816,208.221163 C320.69816,210.968551 318.471067,213.198315 315.721416,213.198315 L295.667626,213.198315 L289.003765,228.294018 C288.282137,229.926524 286.746812,231.046383 284.972602,231.235515 C283.185951,231.40225 281.461509,230.645722 280.418881,229.204837 L268.835509,213.198315 L183.327579,213.198315 L172.022905,265.781929 C171.567533,267.91215 169.775905,269.497373 167.603556,269.69397 C167.454253,269.706413 167.304951,269.713879 167.155649,269.713879" id="Fill-54" fill="#369ECC" mask="url(#mask-2)"></path>
                    </g>
                </g>
            </g>
        </g>
    </g>
</svg>