<svg id="Dark_Logo" data-name="Dark Logo" xmlns="http://www.w3.org/2000/svg" viewBox="0 0 450 200"><defs><style>.cls-1{fill:#f1f2f2;}.cls-2{fill:#5e5f62;}.cls-3{fill:#389fcd;}.cls-4{fill:#2881a3;}.cls-5{fill:#1d6b8f;}.cls-6{font-size:12px;fill:#2b2b2b;font-family:Oswald;}.cls-6,.cls-9{opacity:0.25;}.cls-7{font-weight:700;}.cls-8{font-size:9px;}.cls-9{fill:#ec008c;}.cls-10,.cls-11{fill:none;stroke:#ec008c;stroke-miterlimit:10;}.cls-10{stroke-dasharray:4 4;}</style></defs><title>logoregular_annotated</title><rect id="Background" class="cls-1" width="450" height="200"/><g id="logotype"><path id="O" class="cls-2" d="M172.16,108.79a9,9,0,0,1-12.59,0c-2.35-2.35-2.29-5.26-2.29-9.28s-0.07-6.93,2.29-9.28a9,9,0,0,1,12.59,0c2.35,2.35,2.32,5.26,2.32,9.28S174.51,106.44,172.16,108.79ZM168.79,93a3.78,3.78,0,0,0-2.91-1.24A3.85,3.85,0,0,0,162.94,93c-0.88,1-1.11,2.06-1.11,6.54s0.23,5.56,1.11,6.54a3.85,3.85,0,0,0,2.94,1.24,3.77,3.77,0,0,0,2.91-1.24c0.88-1,1.14-2.06,1.14-6.54S169.67,93.95,168.79,93Z"/><path id="P" class="cls-2" d="M193.37,102.38h-4.48v8.76h-4.54V87.87h9c4.81,0,7.68,3.3,7.68,7.26S198.18,102.38,193.37,102.38Zm-0.23-10.46h-4.25V98.3h4.25A3.19,3.19,0,1,0,193.14,91.92Z"/><path id="E" class="cls-2" d="M210.11,111.14V87.87h15.33v4.05H214.65v5.46h9.19v4.05h-9.19v5.66h10.79v4.05H210.11Z"/><path id="R" class="cls-2" d="M247.47,111.14l-4.54-9.28h-3.27v9.28h-4.54V87.87h9.12c4.74,0,7.55,3.24,7.55,7.13a6.27,6.27,0,0,1-4.25,6.11l5.2,10h-5.26Zm-3.53-19.22h-4.28v6.15h4.28A3.08,3.08,0,1,0,243.94,91.92Z"/><path id="A" class="cls-2" d="M275,111.14L273.59,107h-8.27l-1.41,4.12h-4.74l8.47-23.28h3.56l8.5,23.28H275Zm-5.43-16.41-2.94,8.47h5.79Z"/><path id="B" class="cls-2" d="M297.56,111.14h-9.74V87.87h9.35c4.54,0,7.19,2.55,7.19,6.54a5.38,5.38,0,0,1-2.88,4.81,5.41,5.41,0,0,1,3.2,5.23C304.68,108.79,301.71,111.14,297.56,111.14ZM296.8,91.92h-4.45v5.36h4.45c1.93,0,3-1.08,3-2.68S298.73,91.92,296.8,91.92Zm0.29,9.45h-4.74v5.72h4.74A2.87,2.87,0,1,0,297.1,101.37Z"/><path id="L" class="cls-2" d="M314.55,111.14V87.87h4.54v19.22h10.56v4.05h-15.1Z"/><path id="E-2" data-name="E" class="cls-2" d="M338.58,111.14V87.87h15.33v4.05H343.12v5.46h9.19v4.05h-9.19v5.66h10.79v4.05H338.58Z"/></g><path class="cls-3" d="M139.2,95.53a6.87,6.87,0,1,0-10.3-5.6l-23.69,13.68a6.92,6.92,0,0,0-10.63,6.5l3.14-1.84,1.45-.85,0.33-.2,2.91,1.66,0,3.35-0.33.2-1.45.85-3.14,1.84A6.92,6.92,0,0,0,108.38,109L132,95.34A6.87,6.87,0,0,0,139.2,95.53Zm-3.44-2.6-2.9-1.68V87.9l2.9-1.68,2.9,1.68v3.35Z"/><path class="cls-4" d="M104.83,83.68a6.87,6.87,0,1,0,.3,11.71l23.69,13.68a6.92,6.92,0,0,0,10.95,6l-3.17-1.8-1.46-.83-0.34-.19,0-3.35,2.89-1.7,0.34,0.19,1.46,0.83,3.17,1.8a6.92,6.92,0,0,0-10.75-6.34L108.25,90A6.87,6.87,0,0,0,104.83,83.68ZM104.29,88v3.35L101.39,93l-2.9-1.68V88l2.9-1.68Z"/><path class="cls-5" d="M121.65,113V85.65a6.92,6.92,0,0,0-.12-12.48l0,3.64v2.06l-2.91,1.66-2.89-1.7V76.78l0-3.64a6.92,6.92,0,0,0-.32,12.46V113A6.87,6.87,0,1,0,121.65,113Zm-0.22,7.79-2.9,1.68-2.9-1.68v-3.35l2.9-1.68,2.9,1.68v3.35Z"/><g id="Copy_Dark" data-name="Copy Dark"><text class="cls-6" transform="translate(97.49 175.91)"><tspan class="cls-7">H</tspan><tspan class="cls-7" x="7.06" y="0">O</tspan><tspan class="cls-7" x="14.1" y="0">T L</tspan><tspan class="cls-7" x="26.78" y="0">A</tspan><tspan class="cls-7" x="32.94" y="0">V</tspan><tspan class="cls-7" x="38.54" y="0">A! </tspan><tspan class="cls-8" x="50.56" y="0">- a.k.a. RESTRICTED AREA</tspan></text><text class="cls-6" transform="translate(97.49 195.19)"><tspan class="cls-7">N</tspan><tspan class="cls-7" x="6.87" y="0">O</tspan><tspan class="cls-7" x="13.92" y="0">T L</tspan><tspan class="cls-7" x="26.59" y="0">A</tspan><tspan class="cls-7" x="32.75" y="0">V</tspan><tspan class="cls-7" x="38.36" y="0">A! </tspan><tspan class="cls-8" x="50.37" y="0">- a.k.a. </tspan><tspan class="cls-8" x="73.4" y="0">Y</tspan><tspan class="cls-8" x="77.49" y="0">ou’</tspan><tspan class="cls-8" x="88.27" y="0">r</tspan><tspan class="cls-8" x="91.27" y="0">e cool he</tspan><tspan class="cls-8" x="121.8" y="0">r</tspan><tspan class="cls-8" x="124.8" y="0">e!</tspan></text></g><path id="Lava" class="cls-9" d="M403.77,42.12h-0.54V19.83H45.37V179.64H403.22V136.45h0.54V42.12ZM94.54,72.64h260v54.2h-260V72.64Z"/><line class="cls-10" y1="73.02" x2="450" y2="73.02"/><line class="cls-10" y1="19.33" x2="450" y2="19.33"/><line class="cls-10" y1="179.64" x2="450" y2="179.64"/><line class="cls-10" y1="125.94" x2="450" y2="125.94"/><line class="cls-10" x1="94.52" y1="200" x2="94.52"/><line class="cls-11" x1="353.91" y1="200" x2="353.91" y2="198"/><line class="cls-10" x1="353.91" y1="194" x2="353.91" y2="4"/><line class="cls-11" x1="353.91" y1="2" x2="353.91"/><line class="cls-11" x1="403.25" y1="200" x2="403.25" y2="198"/><line class="cls-10" x1="403.25" y1="194" x2="403.25" y2="4"/><line class="cls-11" x1="403.25" y1="2" x2="403.25"/><line class="cls-10" x1="45.4" y1="200" x2="45.4"/></svg>