<svg id="Layer_1" data-name="Layer 1" xmlns="http://www.w3.org/2000/svg" xmlns:xlink="http://www.w3.org/1999/xlink" viewBox="0 0 720 720"><defs><style>.cls-1,.cls-2{fill:none;}.cls-1{clip-rule:evenodd;}.cls-3{fill:#231f20;}.cls-4{clip-path:url(#clip-path);}.cls-5{clip-path:url(#clip-path-2);}.cls-6{fill:#c8c8c4;}.cls-7{clip-path:url(#clip-path-3);}.cls-8{fill:#acaca9;}.cls-9{clip-path:url(#clip-path-5);}.cls-10{clip-path:url(#clip-path-7);}.cls-11{fill:#8e8f8c;}.cls-12{clip-path:url(#clip-path-9);}.cls-13{clip-path:url(#clip-path-11);}.cls-14{clip-path:url(#clip-path-13);}.cls-15{clip-path:url(#clip-path-15);}.cls-16{clip-path:url(#clip-path-17);}.cls-17{fill:#a0a19d;}.cls-18{clip-path:url(#clip-path-19);}.cls-19{clip-path:url(#clip-path-21);}.cls-20{clip-path:url(#clip-path-23);}.cls-21{clip-path:url(#clip-path-25);}.cls-22{clip-path:url(#clip-path-27);}.cls-23{clip-path:url(#clip-path-29);}.cls-24{clip-path:url(#clip-path-31);}.cls-25{clip-path:url(#clip-path-33);}.cls-26{fill:#3683aa;}.cls-27{clip-path:url(#clip-path-35);}.cls-28{fill:#2c6480;}.cls-29{clip-path:url(#clip-path-37);}.cls-30{clip-path:url(#clip-path-39);}.cls-31{clip-path:url(#clip-path-41);}.cls-32{clip-path:url(#clip-path-43);}.cls-33{clip-path:url(#clip-path-45);}.cls-34{clip-path:url(#clip-path-47);}.cls-35{clip-path:url(#clip-path-49);}.cls-36{clip-path:url(#clip-path-51);}.cls-37{clip-path:url(#clip-path-53);}.cls-38{clip-path:url(#clip-path-55);}.cls-39{clip-path:url(#clip-path-57);}.cls-40{clip-path:url(#clip-path-59);}.cls-41{clip-path:url(#clip-path-61);}.cls-42{clip-path:url(#clip-path-63);}.cls-43{clip-path:url(#clip-path-65);}.cls-44{clip-path:url(#clip-path-67);}.cls-45{clip-path:url(#clip-path-69);}.cls-46{clip-path:url(#clip-path-71);}.cls-47{clip-path:url(#clip-path-73);}.cls-48{fill:#4d4d4a;}.cls-49{clip-path:url(#clip-path-75);}.cls-50{fill:#3a3c39;}.cls-51{clip-path:url(#clip-path-77);}.cls-52{clip-path:url(#clip-path-79);}.cls-53{clip-path:url(#clip-path-81);}.cls-54{clip-path:url(#clip-path-83);}.cls-55{clip-path:url(#clip-path-85);}.cls-56{clip-path:url(#clip-path-87);}.cls-57{clip-path:url(#clip-path-89);}.cls-58{clip-path:url(#clip-path-91);}.cls-59{clip-path:url(#clip-path-93);}.cls-60{clip-path:url(#clip-path-95);}.cls-61{clip-path:url(#clip-path-97);}.cls-62{fill:#dddcd8;}.cls-63{clip-path:url(#clip-path-99);}.cls-64{clip-path:url(#clip-path-101);}.cls-65{clip-path:url(#clip-path-103);}.cls-66{clip-path:url(#clip-path-105);}.cls-67{clip-path:url(#clip-path-107);}.cls-68{clip-path:url(#clip-path-109);}.cls-69{clip-path:url(#clip-path-111);}.cls-70{clip-path:url(#clip-path-113);}.cls-71{clip-path:url(#clip-path-115);}.cls-72{clip-path:url(#clip-path-117);}.cls-73{clip-path:url(#clip-path-119);}.cls-74{clip-path:url(#clip-path-121);}.cls-75{clip-path:url(#clip-path-123);}.cls-76{clip-path:url(#clip-path-125);}.cls-77{clip-path:url(#clip-path-127);}.cls-78{clip-path:url(#clip-path-129);}.cls-79{clip-path:url(#clip-path-131);}.cls-80{fill:#3d96bc;}.cls-81{clip-path:url(#clip-path-133);}.cls-82{fill:#317994;}.cls-83{clip-path:url(#clip-path-135);}.cls-84{fill:#266380;}.cls-85{clip-path:url(#clip-path-137);}.cls-86{fill:#0e0f0d;}.cls-87{clip-path:url(#clip-path-139);}.cls-88{clip-path:url(#clip-path-141);}.cls-89{clip-path:url(#clip-path-143);}.cls-90{clip-path:url(#clip-path-145);}.cls-91{clip-path:url(#clip-path-147);}.cls-92{clip-path:url(#clip-path-149);}.cls-93{clip-path:url(#clip-path-151);}.cls-94{clip-path:url(#clip-path-153);}.cls-95{clip-path:url(#clip-path-155);}.cls-96{fill:#fff;}.cls-97{clip-path:url(#clip-path-157);}.cls-98{clip-path:url(#clip-path-159);}.cls-99{clip-path:url(#clip-path-161);}</style><clipPath id="clip-path"><path class="cls-1" d="M363.4,216.13c52.51,0,98.06,10,110.79,13v71.3H254.11V229.12a485,485,0,0,1,109.29-13"/></clipPath><clipPath id="clip-path-2"><rect class="cls-2" x="149.88" y="155.74" width="425.35" height="425.35"/></clipPath><clipPath id="clip-path-3"><rect class="cls-2" x="366.92" y="468.97" width="107.63" height="6.68"/></clipPath><clipPath id="clip-path-5"><rect class="cls-2" x="290.42" y="305.3" width="148.24" height="158.09"/></clipPath><clipPath id="clip-path-7"><path class="cls-1" d="M301.85,234.15c-13.8,0-25,11.63-25,26s11.18,26,25,26,25-11.62,25-26-11.18-26-25-26"/></clipPath><clipPath id="clip-path-9"><path class="cls-1" d="M426.49,234.35c-13.69,0-24.78,11.53-24.78,25.76s11.1,25.76,24.78,25.76,24.79-11.53,24.79-25.76-11.1-25.76-24.79-25.76"/></clipPath><clipPath id="clip-path-11"><rect class="cls-2" x="253.75" y="468.97" width="107.63" height="6.68"/></clipPath><clipPath id="clip-path-13"><path class="cls-1" d="M219.23,391.45l0,0.08-22.12-8.88v0c4.66-10.41,8.4-17.83,12.57-24.3l18.56,14c-3.47,5.35-5.78,10.84-9,19.11"/></clipPath><clipPath id="clip-path-15"><path class="cls-1" d="M229.12,371l-18.57-14c4.52-6.77,9.65-12.62,17-20l11.09,22.62-0.34.36a90.75,90.75,0,0,0-9.2,11"/></clipPath><clipPath id="clip-path-17"><path class="cls-1" d="M219.23,391.45l0,0.08-3.54-1.42s4.23-12.33,9.69-19.93l2.86,2.16c-3.47,5.35-5.78,10.84-9,19.11"/></clipPath><clipPath id="clip-path-19"><path class="cls-1" d="M229.12,371l-18.57-14,1.19-1.73c4.71,3.43,14.33,11,15.53,11.9,2.42-3.23,9.7-11,9.7-11l1.7,3.47-0.34.36a90.75,90.75,0,0,0-9.2,11"/></clipPath><clipPath id="clip-path-21"><rect class="cls-2" x="253.75" y="478.84" width="107.63" height="6.23"/></clipPath><clipPath id="clip-path-23"><rect class="cls-2" x="366.92" y="478.84" width="107.63" height="6.23"/></clipPath><clipPath id="clip-path-25"><path class="cls-1" d="M489.11,359L500.3,336.2c7.28,7.27,12.47,13,17.09,19.61L498.65,370a124.89,124.89,0,0,0-9.28-10.66l-0.26-.28"/></clipPath><clipPath id="clip-path-27"><path class="cls-1" d="M489.11,359l2.17-4.43L501,366.13c5.33-3.65,11.13-8.1,15.57-11.52l0.85,1.21L498.65,370a124.89,124.89,0,0,0-9.28-10.66l-0.26-.28"/></clipPath><clipPath id="clip-path-29"><path class="cls-1" d="M499.6,371.24l18.68-14.1c4.26,6.35,8.09,13.69,12.76,24.1l-21.43,9.51v0c-3.3-8.54-6.17-14.15-10-19.48"/></clipPath><clipPath id="clip-path-31"><path class="cls-1" d="M499.6,371.24l3.14-2.37s7.34,12.25,9.86,18.73c4.79-1.92,12.09-5.77,17.8-7.78l0.65,1.43-21.43,9.51v0c-3.3-8.54-6.17-14.15-10-19.48"/></clipPath><clipPath id="clip-path-33"><path class="cls-1" d="M484.75,259.75c0,15.51-.54,20-5.81,20.74V239c5.27,0.72,5.81,5.23,5.81,20.74"/></clipPath><clipPath id="clip-path-35"><path class="cls-1" d="M484.7,266c-0.22,10.5-1.28,13.85-5.76,14.46V272.2c2.17-.3,4-1.72,5.76-6.17"/></clipPath><clipPath id="clip-path-37"><path class="cls-1" d="M363.4,205.56c19.72,0,28.55.28,29.72,6.79-9.51-.62-19.47-1-29.72-1s-20.25.38-29.72,1c1.16-6.51,10-6.79,29.72-6.79"/></clipPath><clipPath id="clip-path-39"><path class="cls-1" d="M339.66,212q-3,.16-6,0.36c0.69-3.84,4-5.51,10.71-6.24a9.54,9.54,0,0,0-4.73,5.88"/></clipPath><clipPath id="clip-path-41"><path class="cls-1" d="M244.16,259.75c0-14.89.5-19.64,5.2-20.63v41.26c-4.7-1-5.2-5.74-5.2-20.63"/></clipPath><clipPath id="clip-path-43"><path class="cls-1" d="M249.36,273.11v7.27c-3.66-.78-4.77-3.82-5.09-12.13,1.79,3.18,3.14,4.21,5.09,4.86"/></clipPath><clipPath id="clip-path-45"><path class="cls-1" d="M227.26,414.34A31.58,31.58,0,0,1,214,440.07l0.1-30.88-32.58-.13-0.09,30.62a30.16,30.16,0,0,1,13.44-55.47l1.51-.13L219,393.2l0.48,0.74c3.63,5.55,7.8,12.88,7.77,20.4"/></clipPath><clipPath id="clip-path-47"><path class="cls-1" d="M241.54,359.43l-1.58-.84-11.27-23v-0.88c0-14.47,9.46-26.7,20.67-26.7v53.39a16.6,16.6,0,0,1-7.82-2"/></clipPath><clipPath id="clip-path-49"><path class="cls-1" d="M241.54,359.43l-1.58-.84-11.27-23v-0.88a32.89,32.89,0,0,1,.43-5.3c7.86,1,17.69,5.62,20.24,19.52v12.47a16.6,16.6,0,0,1-7.82-2"/></clipPath><clipPath id="clip-path-51"><path class="cls-1" d="M479.51,360.83h-0.57V307.71l0.57,0c10.94,0,19.84,11.92,19.84,26.57v0.28l-11.6,23.66-1.2.64a13.61,13.61,0,0,1-7,2"/></clipPath><clipPath id="clip-path-53"><path class="cls-1" d="M479.51,360.83h-0.57V323.65c7.6,0,16.59,5.8,18.49,14.79-1,2-9.69,19.76-9.69,19.76l-1.2.64a13.61,13.61,0,0,1-7,2"/></clipPath><clipPath id="clip-path-55"><path class="cls-1" d="M545.68,443.49l-3.82-8.4,11.88-15.87-8.27-19.61-21-2.59-12.74,17L520,433.64l19.7,2.43,3.79,8.33c-0.55.2-1.11,0.39-1.67,0.57a31.23,31.23,0,0,1-24.08-2.36,31.93,31.93,0,0,1-8.58-49.42l0.73-.82,21.84-9.69,1.47,0a31.56,31.56,0,0,1,29.66,22.56,31.93,31.93,0,0,1-17.17,38.23"/></clipPath><clipPath id="clip-path-57"><rect class="cls-2" x="253.75" y="305.3" width="33.51" height="158.09"/></clipPath><clipPath id="clip-path-59"><rect class="cls-2" x="441.83" y="305.3" width="32.73" height="158.09"/></clipPath><clipPath id="clip-path-61"><rect class="cls-2" x="234.55" y="489.64" width="126.83" height="32.99"/></clipPath><clipPath id="clip-path-63"><rect class="cls-2" x="366.92" y="489.64" width="126.96" height="32.99"/></clipPath><clipPath id="clip-path-65"><rect class="cls-2" x="234.55" y="489.64" width="14.82" height="32.99"/></clipPath><clipPath id="clip-path-67"><rect class="cls-2" x="257.56" y="489.64" width="6.24" height="32.99"/></clipPath><clipPath id="clip-path-69"><rect class="cls-2" x="366.92" y="489.64" width="14.82" height="32.99"/></clipPath><clipPath id="clip-path-71"><rect class="cls-2" x="389.94" y="489.64" width="6.24" height="32.99"/></clipPath><clipPath id="clip-path-73"><path class="cls-1" d="M301.85,239.64c10.82,0,19.63,9.19,19.63,20.48s-8.81,20.48-19.63,20.48-19.63-9.19-19.63-20.48,8.8-20.48,19.63-20.48"/></clipPath><clipPath id="clip-path-75"><path class="cls-1" d="M315.81,274.5a19.18,19.18,0,0,1-14,6.1c-10.82,0-19.63-9.19-19.63-20.48A20.87,20.87,0,0,1,288,245.64c0,16.87,9.62,28.85,27.84,28.85"/></clipPath><clipPath id="clip-path-77"><path class="cls-1" d="M426.49,239.64c10.82,0,19.63,9.19,19.63,20.48s-8.81,20.48-19.63,20.48-19.63-9.19-19.63-20.48,8.81-20.48,19.63-20.48"/></clipPath><clipPath id="clip-path-79"><path class="cls-1" d="M440.37,274.59a19.17,19.17,0,0,1-13.87,6c-10.82,0-19.63-9.19-19.63-20.48a20.84,20.84,0,0,1,6.38-15.1c0,18.57,7.59,29.57,27.12,29.57"/></clipPath><clipPath id="clip-path-81"><path class="cls-1" d="M270.56,326.49a8.41,8.41,0,1,0,8,8.4,8.24,8.24,0,0,0-8-8.4"/></clipPath><clipPath id="clip-path-83"><path class="cls-1" d="M270.56,435a8.41,8.41,0,1,0,8,8.4,8.24,8.24,0,0,0-8-8.4"/></clipPath><clipPath id="clip-path-85"><path class="cls-1" d="M457.78,326.49a8.41,8.41,0,1,0,8,8.4,8.24,8.24,0,0,0-8-8.4"/></clipPath><clipPath id="clip-path-87"><path class="cls-1" d="M457.78,435a8.41,8.41,0,1,0,8,8.4,8.24,8.24,0,0,0-8-8.4"/></clipPath><clipPath id="clip-path-89"><path class="cls-1" d="M265,328.8a8.56,8.56,0,0,0-2.51,6.09,8.24,8.24,0,0,0,8,8.4A7.84,7.84,0,0,0,276,341c-6.27,0-10.89-5-11-12.23"/></clipPath><clipPath id="clip-path-91"><path class="cls-1" d="M265.07,437.22a8.55,8.55,0,0,0-2.56,6.14,8.24,8.24,0,0,0,8,8.4,7.85,7.85,0,0,0,5.63-2.41c-7.56,0-11.12-2.88-11.12-12.13"/></clipPath><clipPath id="clip-path-93"><path class="cls-1" d="M451.94,329.12a8.57,8.57,0,0,0-2.2,5.77,8.24,8.24,0,0,0,8,8.4,7.84,7.84,0,0,0,5.44-2.21c-7.65,0-11.28-3.32-11.28-12"/></clipPath><clipPath id="clip-path-95"><path class="cls-1" d="M452.22,437.3a8.56,8.56,0,0,0-2.48,6.06,8.24,8.24,0,0,0,8,8.4,7.81,7.81,0,0,0,5.28-2.07c-6.66,0-10.84-4.57-10.84-12.4"/></clipPath><clipPath id="clip-path-97"><path class="cls-1" d="M348.22,448.49a57,57,0,0,0,14.19,1.7h1.2a57,57,0,0,0,14.19-1.7l2-8.87a3.82,3.82,0,0,1,.54-1.67,2.91,2.91,0,0,1,1.56-1l0.11,0a48.29,48.29,0,0,0,6.38-2.69l5.5-3.27a48.84,48.84,0,0,0,6.49-4.93l0.08-.08a3,3,0,0,1,1.62-.89,3.78,3.78,0,0,1,1.71.35l8.67,2.59A57.63,57.63,0,0,0,421,416.42l0.59-1a58,58,0,0,0,5.52-13.27L420.4,396a3.85,3.85,0,0,1-1.18-1.29,3,3,0,0,1-.07-1.86l0-.11a49.32,49.32,0,0,0,.82-6.9l-0.21-5.89a49.36,49.36,0,0,0-1-8.15l0-.11a3,3,0,0,1,0-1.85,3.8,3.8,0,0,1,1.16-1.31l6.57-6.25A57.81,57.81,0,0,0,420.83,349l-0.61-1a57.71,57.71,0,0,0-8.64-11.46L403,339.25a3.76,3.76,0,0,1-1.7.38,3,3,0,0,1-1.63-.86l-0.09-.08a48.82,48.82,0,0,0-5.57-4.2l-4.66-2.62a48.79,48.79,0,0,0-7.47-3.26l-0.11,0a3,3,0,0,1-1.57-1,3.8,3.8,0,0,1-.54-1.67l-2-8.87a57,57,0,0,0-14.19-1.7h-1.2A57,57,0,0,0,348,317l-2,8.87a3.82,3.82,0,0,1-.54,1.67,3,3,0,0,1-1.57,1l-0.11,0a48.8,48.8,0,0,0-6.42,2.71l-5.46,3.26a48.9,48.9,0,0,0-6.49,4.93l-0.09.08a3,3,0,0,1-1.62.89,3.69,3.69,0,0,1-1.71-.35l-8.67-2.59a57.73,57.73,0,0,0-8.46,11.59l-0.59,1a57.94,57.94,0,0,0-5.52,13.27l6.66,6.15a3.78,3.78,0,0,1,1.18,1.3,3,3,0,0,1,.07,1.86l0,0.11a49.52,49.52,0,0,0-.81,6.9l0.21,5.89a49.49,49.49,0,0,0,1,8.15l0,0.11a3,3,0,0,1,0,1.85,3.78,3.78,0,0,1-1.16,1.31l-6.57,6.25A57.91,57.91,0,0,0,305,416.5l0.61,1A57.76,57.76,0,0,0,314.22,429l8.63-2.72a3.76,3.76,0,0,1,1.71-.38,3,3,0,0,1,1.63.87l0.08,0.08a48.8,48.8,0,0,0,5.57,4.2l4.66,2.62a48.41,48.41,0,0,0,7.47,3.26l0.11,0a2.91,2.91,0,0,1,1.56,1,3.8,3.8,0,0,1,.54,1.67l2,8.87"/></clipPath><clipPath id="clip-path-99"><path class="cls-1" d="M270.56,300.44H276v-76q-2.88.54-5.48,1.05v74.94"/></clipPath><clipPath id="clip-path-101"><path class="cls-1" d="M263.8,226.9c-4.16.9-7.44,1.67-9.68,2.22v71.32h9.68V226.9"/></clipPath><clipPath id="clip-path-103"><rect class="cls-2" x="282.04" y="468.97" width="5.21" height="6.68"/></clipPath><clipPath id="clip-path-105"><rect class="cls-2" x="253.75" y="468.97" width="22.44" height="6.68"/></clipPath><clipPath id="clip-path-107"><rect class="cls-2" x="282.04" y="478.62" width="5.21" height="6.68"/></clipPath><clipPath id="clip-path-109"><rect class="cls-2" x="253.75" y="478.62" width="22.44" height="6.68"/></clipPath><clipPath id="clip-path-111"><rect class="cls-2" x="395.22" y="468.97" width="5.21" height="6.68"/></clipPath><clipPath id="clip-path-113"><rect class="cls-2" x="366.92" y="468.97" width="22.44" height="6.68"/></clipPath><clipPath id="clip-path-115"><rect class="cls-2" x="395.22" y="478.62" width="5.21" height="6.68"/></clipPath><clipPath id="clip-path-117"><rect class="cls-2" x="366.92" y="478.62" width="22.44" height="6.68"/></clipPath><clipPath id="clip-path-119"><path class="cls-1" d="M545.68,443.49a31.92,31.92,0,0,0,18.53-29.18L543.63,439l2.05,4.52"/></clipPath><clipPath id="clip-path-121"><path class="cls-1" d="M539.63,383.49l-11.08,14,16.92,2.09,2.59,6.14,9.34-11a31.46,31.46,0,0,0-17.76-11.27"/></clipPath><clipPath id="clip-path-123"><path class="cls-1" d="M523.94,434.13l-3.94-.49-7-16.49-8.89,11.25a31.47,31.47,0,0,0,12.91,13.82l6.88-8.1"/></clipPath><clipPath id="clip-path-125"><path class="cls-1" d="M541.81,445c0.57-.17,1.12-0.37,1.67-0.57L541.93,441l-4.1,4.91a31.89,31.89,0,0,0,4-.94"/></clipPath><clipPath id="clip-path-127"><path class="cls-1" d="M227.26,414.34c0-.29,0-0.57,0-0.86L214,429.33l0,10.75a31.58,31.58,0,0,0,13.29-25.74"/></clipPath><clipPath id="clip-path-129"><path class="cls-1" d="M219.49,393.94L219,393.2l-18.76-7.53-18.49,23.41,25.73,0.1,12.42-14.61-0.41-.63"/></clipPath><clipPath id="clip-path-131"><path class="cls-1" d="M397.43,369.45l-5.82-3.38v-6.76l5.81-3.38,5.82,3.38v6.76Zm6.88,5.24a13.9,13.9,0,0,0,5-18.92,13.72,13.72,0,0,0-18.8-5.07,13.86,13.86,0,0,0-6.85,12.71L336.24,391a13.79,13.79,0,0,0-14.51-.3A14,14,0,0,0,315,404.09l9.86-5.82,5.84,3.34,0,6.76-9.86,5.82a13.79,13.79,0,0,0,14.94.59,14,14,0,0,0,6.82-13l47.35-27.51A13.68,13.68,0,0,0,404.31,374.69Z"/></clipPath><clipPath id="clip-path-133"><path class="cls-1" d="M334.41,359.42v6.76l-5.81,3.38-5.82-3.38v-6.76L328.6,356Zm1.07-8.62a13.72,13.72,0,0,0-18.8,5.07,13.9,13.9,0,0,0,5,18.92,13.67,13.67,0,0,0,14.37-.38L383.53,402a14,14,0,0,0,7,12.79,13.8,13.8,0,0,0,14.93-.79l-9.93-5.69,0-6.76,5.79-3.42,9.93,5.68a14,14,0,0,0-7-13.32,13.79,13.79,0,0,0-14.56.53l-47.35-27.51A13.86,13.86,0,0,0,335.48,350.8Z"/></clipPath><clipPath id="clip-path-135"><path class="cls-1" d="M368.74,425.51l-5.82,3.38-5.81-3.38v-6.76l5.81-3.38,5.82,3.38v6.76Zm0.44-15.71v-55a14,14,0,0,0-.24-25.15l-0.08,11.5L363,344.47l-5.79-3.42,0.07-11.5a14,14,0,0,0-.63,25.11V409.8A13.76,13.76,0,1,0,369.18,409.8Z"/></clipPath><clipPath id="clip-path-137"><path class="cls-1" d="M301.85,237.21c-12.17,0-22,10.26-22,22.91s9.87,22.91,22,22.91,22-10.26,22-22.91-9.87-22.91-22-22.91m0,2.43c10.82,0,19.63,9.19,19.63,20.48s-8.81,20.48-19.63,20.48-19.63-9.19-19.63-20.48,8.8-20.48,19.63-20.48"/></clipPath><clipPath id="clip-path-139"><path class="cls-1" d="M426.49,237.21c-12.17,0-22,10.26-22,22.91s9.87,22.91,22,22.91,22-10.26,22-22.91-9.87-22.91-22-22.91m0,2.43c10.82,0,19.63,9.19,19.63,20.48s-8.81,20.48-19.63,20.48-19.63-9.19-19.63-20.48,8.81-20.48,19.63-20.48"/></clipPath><clipPath id="clip-path-141"><path class="cls-1" d="M270.56,326.49a8.41,8.41,0,1,0,8,8.4A8.24,8.24,0,0,0,270.56,326.49Zm0,19.23A10.84,10.84,0,1,1,281,334.89,10.66,10.66,0,0,1,270.56,345.72Z"/></clipPath><clipPath id="clip-path-143"><path class="cls-1" d="M270.56,435a8.41,8.41,0,1,0,8,8.4A8.24,8.24,0,0,0,270.56,435Zm0,19.23A10.84,10.84,0,1,1,281,443.36,10.66,10.66,0,0,1,270.56,454.19Z"/></clipPath><clipPath id="clip-path-145"><path class="cls-1" d="M457.78,326.49a8.41,8.41,0,1,0,8,8.4A8.24,8.24,0,0,0,457.78,326.49Zm0,19.23a10.84,10.84,0,1,1,10.46-10.83A10.66,10.66,0,0,1,457.78,345.72Z"/></clipPath><clipPath id="clip-path-147"><path class="cls-1" d="M457.78,435a8.41,8.41,0,1,0,8,8.4A8.24,8.24,0,0,0,457.78,435Zm0,19.23a10.84,10.84,0,1,1,10.46-10.83A10.66,10.66,0,0,1,457.78,454.19Z"/></clipPath><clipPath id="clip-path-149"><path class="cls-1" d="M522.84,429.83l-6.42-15.22,9.89-13.21,16.31,2L549,418.64l-9.89,13.21Zm22.84,13.66-3.82-8.4,11.88-15.87-8.27-19.61-21-2.59-12.74,17L520,433.64l19.7,2.43,3.79,8.33c-0.55.2-1.11,0.39-1.67,0.57a31.23,31.23,0,0,1-24.08-2.36,31.93,31.93,0,0,1-8.58-49.42l0.73-.82,21.84-9.69,1.47,0a31.56,31.56,0,0,1,29.66,22.56A31.93,31.93,0,0,1,545.68,443.49ZM499.6,371.24l18.68-14.1c4.26,6.35,8.09,13.69,12.76,24.1l-21.43,9.51v0C506.29,382.18,503.43,376.57,499.6,371.24ZM489.11,359L500.3,336.2c7.28,7.27,12.47,13,17.09,19.61L498.65,370a124.89,124.89,0,0,0-9.28-10.66Zm-9.6,1.81h-0.57V307.71l0.57,0c10.94,0,19.84,11.92,19.84,26.57v0.28l-11.6,23.66-1.2.64A13.61,13.61,0,0,1,479.51,360.83Zm-112.59,118H474.55v6.23H366.92v-6.23Zm0,10.8h127v33h-127v-33Zm-132.38,0H361.38v33H234.55v-33Zm19.2-10.8H361.38v6.23H253.75v-6.23Zm-12.2-119.41-1.58-.84-11.27-23v-0.88c0-14.47,9.46-26.7,20.67-26.7v53.39A16.6,16.6,0,0,1,241.54,359.43ZM229.12,371l-18.57-14c4.52-6.77,9.65-12.62,17-20l11.09,22.62-0.34.36A90.75,90.75,0,0,0,229.12,371Zm-9.89,20.45,0,0.08-22.12-8.88v0c4.66-10.41,8.4-17.83,12.57-24.3l18.56,14C224.75,377.69,222.44,383.18,219.23,391.45Zm8,22.89A31.58,31.58,0,0,1,214,440.07l0.1-30.88-32.58-.13-0.09,30.62a30.16,30.16,0,0,1,13.44-55.47l1.51-.13L219,393.2l0.48,0.74C223.13,399.49,227.29,406.82,227.26,414.34Zm16.89-154.59c0-14.89.5-19.64,5.2-20.63v41.26C244.66,279.38,244.16,274.64,244.16,259.75ZM363.4,216.13c52.51,0,98.06,10,110.79,13v71.3H254.11V229.12A485,485,0,0,1,363.4,216.13Zm0-10.58c19.72,0,28.55.28,29.72,6.79-9.51-.62-19.47-1-29.72-1s-20.25.38-29.72,1C334.84,205.84,343.68,205.56,363.4,205.56Zm121.35,54.19c0,15.51-.54,20-5.81,20.74V239C484.21,239.73,484.75,244.24,484.75,259.75ZM441.83,305.3h32.73V463.39H441.83V305.3ZM253.75,469H361.38v6.68H253.75V469Zm0-163.67h33.51V463.39H253.75V305.3Zm36.67,0H438.66V463.39H290.42V305.3ZM366.92,469H474.55v6.68H366.92V469Zm200.47-65.1A36.32,36.32,0,0,0,534.79,378c-9.79-21.61-16.49-30.48-30.71-44.73-0.42-16.82-11.28-30.35-24.58-30.35l-0.57,0V285.37c10.63-1,10.64-11,10.64-25.62s0-24.62-10.64-25.62V225.4s-34.88-9.34-82-12.79c-0.6-6.57-5.58-8.57-9.38-9.49-5.55-1.35-13.77-1.35-24.18-1.35s-18.63,0-24.18,1.35c-3.81.92-8.79,2.92-9.38,9.5-46.66,3.45-80.48,12.78-80.48,12.78v8.8c-10,1.32-10,11.17-10,25.55s0,24.23,10,25.55v17.27c-13.82,0-25.55,14.08-26.06,31-14.7,14.76-20.7,23.68-30.51,45.4a35.62,35.62,0,0,0-9.8,67.74l3.8,1.7,0.1-33.87,21.76,0.09L208.53,449l3.85-1.78c12.27-5.66,20.24-18.56,20.3-32.85,0-8.41-4-16.19-7.89-22.23,5-12.89,7.67-17.89,16.12-27a21.75,21.75,0,0,0,8.46,1.71V485.07H230v42.11H498.42V485.07H478.94V365.6l0.57,0a17,17,0,0,0,7.63-1.73c8.69,9.26,12.57,14.79,17.5,27.23a36.73,36.73,0,0,0,10.85,55.71,35.94,35.94,0,0,0,27.7,2.72A36.69,36.69,0,0,0,567.4,403.87Z"/></clipPath><clipPath id="clip-path-151"><path class="cls-1" d="M363.4,276A86.67,86.67,0,0,1,335,271a3.64,3.64,0,0,1,2.6-6.8,80.81,80.81,0,0,0,25.84,4.55c14,0,27.51-4.55,27.64-4.6a3.64,3.64,0,0,1,2.33,6.9,104.05,104.05,0,0,1-30,5"/></clipPath><clipPath id="clip-path-153"><path class="cls-1" d="M348.22,448.49a57,57,0,0,0,14.19,1.7h1.2a57,57,0,0,0,14.19-1.7l2-8.87a3.82,3.82,0,0,1,.54-1.67,2.91,2.91,0,0,1,1.56-1l0.11,0a48.29,48.29,0,0,0,6.38-2.69l5.5-3.27a48.84,48.84,0,0,0,6.49-4.93l0.08-.08a3,3,0,0,1,1.62-.89,3.78,3.78,0,0,1,1.71.35l8.67,2.59A57.63,57.63,0,0,0,421,416.42l0.59-1a58,58,0,0,0,5.52-13.27L420.4,396a3.85,3.85,0,0,1-1.18-1.29,3,3,0,0,1-.07-1.86l0-.11a49.32,49.32,0,0,0,.82-6.9l-0.21-5.89a49.36,49.36,0,0,0-1-8.15l0-.11a3,3,0,0,1,0-1.85,3.8,3.8,0,0,1,1.16-1.31l6.57-6.25A57.81,57.81,0,0,0,420.83,349l-0.61-1a57.71,57.71,0,0,0-8.64-11.46L403,339.25a3.76,3.76,0,0,1-1.7.38,3,3,0,0,1-1.63-.86l-0.09-.08a48.82,48.82,0,0,0-5.57-4.2l-4.66-2.62a48.79,48.79,0,0,0-7.47-3.26l-0.11,0a3,3,0,0,1-1.57-1,3.8,3.8,0,0,1-.54-1.67l-2-8.87a57,57,0,0,0-14.19-1.7h-1.2A57,57,0,0,0,348,317l-2,8.87a3.82,3.82,0,0,1-.54,1.67,3,3,0,0,1-1.57,1l-0.11,0a48.8,48.8,0,0,0-6.42,2.71l-5.46,3.26a48.9,48.9,0,0,0-6.49,4.93l-0.09.08a3,3,0,0,1-1.62.89,3.69,3.69,0,0,1-1.71-.35l-8.67-2.59a57.73,57.73,0,0,0-8.46,11.59l-0.59,1a57.94,57.94,0,0,0-5.52,13.27l6.66,6.15a3.78,3.78,0,0,1,1.18,1.3,3,3,0,0,1,.07,1.86l0,0.11a49.52,49.52,0,0,0-.81,6.9l0.21,5.89a49.49,49.49,0,0,0,1,8.15l0,0.11a3,3,0,0,1,0,1.85,3.78,3.78,0,0,1-1.16,1.31l-6.57,6.25A57.91,57.91,0,0,0,305,416.5l0.61,1A57.76,57.76,0,0,0,314.22,429l8.63-2.72a3.76,3.76,0,0,1,1.71-.38,3,3,0,0,1,1.63.87l0.08,0.08a48.8,48.8,0,0,0,5.57,4.2l4.66,2.62a48.41,48.41,0,0,0,7.47,3.26l0.11,0a2.91,2.91,0,0,1,1.56,1,3.8,3.8,0,0,1,.54,1.67Zm15.39,4.13h-1.2a59.41,59.41,0,0,1-15.5-2l-0.71-.18L343.79,440a3.44,3.44,0,0,0-.1-0.54l-0.36-.13-0.14,0a51,51,0,0,1-7.86-3.44l-4.74-2.67a51.34,51.34,0,0,1-5.91-4.45l-0.11-.09a3.66,3.66,0,0,0-.3-0.25c-0.1,0-.35.12-0.5,0.19l-0.14.05-10.1,3.18-0.52-.52a60.14,60.14,0,0,1-9.52-12.46l-0.61-1a60.33,60.33,0,0,1-6.16-14.45l-0.2-.71,7.81-7.42a3.58,3.58,0,0,0,.41-0.36c0-.11,0-0.28-0.07-0.37l0-.14a52.15,52.15,0,0,1-1-8.56l-0.21-6v-0.05a51.66,51.66,0,0,1,.86-7.3l0-.14c0-.1.06-0.28,0.06-0.39s-0.26-.23-0.42-0.34l-0.11-.09-7.8-7.2,0.19-.71A60.36,60.36,0,0,1,302.16,349l0.59-1a60.08,60.08,0,0,1,9.33-12.61l0.51-.53,10.29,3.08a3.56,3.56,0,0,0,.52.18,3.46,3.46,0,0,0,.29-0.25l0.11-.1a51.25,51.25,0,0,1,6.84-5.19l5.56-3.31a50.88,50.88,0,0,1,6.8-2.88l0.13,0a3.51,3.51,0,0,0,.37-0.14c0-.1.07-0.34,0.09-0.54l0-.15L346,315.06l0.71-.18a59.4,59.4,0,0,1,15.5-2h1.2a59.4,59.4,0,0,1,15.5,2l0.71,0.18L382,325.59a3.65,3.65,0,0,0,.1.54l0.36,0.13,0.13,0a50.92,50.92,0,0,1,7.86,3.44l4.74,2.67a51.19,51.19,0,0,1,5.91,4.45l0.11,0.09a3.88,3.88,0,0,0,.3.25c0.09,0,.33-0.11.51-0.19l0.14-.05,10.1-3.18,0.52,0.52a60.11,60.11,0,0,1,9.52,12.47l0.61,1a60.44,60.44,0,0,1,6.16,14.45l0.2,0.71-7.81,7.42a3.58,3.58,0,0,0-.41.36c0,0.11,0,.28.07,0.38l0,0.14a52.15,52.15,0,0,1,1,8.56l0.21,6v0a51.9,51.9,0,0,1-.86,7.3l0,0.14a4,4,0,0,0-.06.39c0.07,0.07.26,0.23,0.42,0.34l0.11,0.09,7.8,7.2-0.19.71a60.41,60.41,0,0,1-5.94,14.54l-0.59,1a60.22,60.22,0,0,1-9.33,12.61l-0.51.53-10.29-3.08a3.43,3.43,0,0,0-.52-0.18,3.77,3.77,0,0,0-.29.25l-0.1.09a51.31,51.31,0,0,1-6.84,5.19l-5.63,3.35a50.9,50.9,0,0,1-6.73,2.84l-0.14,0c-0.1,0-.27.09-0.37,0.14s-0.07.34-.09,0.53l0,0.15-2.38,10.38-0.71.18A59.41,59.41,0,0,1,363.61,452.62Z"/></clipPath><clipPath id="clip-path-155"><path class="cls-1" d="M306.68,244.7l0.78-1.8a17.7,17.7,0,0,0-6.48-1.23c0,0.23,0,1.89,0,2.12a16.11,16.11,0,0,1,5.7.91"/></clipPath><clipPath id="clip-path-157"><path class="cls-1" d="M315.18,248.74q-0.44-.58-0.92-1.12t-1.28-1.3a17.85,17.85,0,0,0-3.15-2.29L309,245.81a25.78,25.78,0,0,1,9.45,9.94c0-1.18-1.69-5-3.23-7"/></clipPath><clipPath id="clip-path-159"><path class="cls-1" d="M431.26,244.7l0.78-1.8a17.68,17.68,0,0,0-6.48-1.23c0,0.23,0,1.89,0,2.12a16.12,16.12,0,0,1,5.7.91"/></clipPath><clipPath id="clip-path-161"><path class="cls-1" d="M439.76,248.74q-0.44-.58-0.92-1.12t-1.28-1.3A17.85,17.85,0,0,0,434.4,244l-0.86,1.78a25.77,25.77,0,0,1,9.45,9.94c0-1.18-1.69-5-3.23-7"/></clipPath></defs><title>monitoring500</title><path class="cls-3" d="M303.58,651.51a4.05,4.05,0,0,1-.81-0.08,291.17,291.17,0,0,1-84.52-31.69,4,4,0,0,1,3.93-7,283.12,283.12,0,0,0,82.2,30.82A4,4,0,0,1,303.58,651.51Z"/><path class="cls-3" d="M438.52,647.31a4,4,0,0,1-1-7.86,283.36,283.36,0,0,0,86.76-40.4,4,4,0,1,1,4.55,6.58,291.37,291.37,0,0,1-89.21,41.53A4,4,0,0,1,438.52,647.31Z"/><path class="cls-3" d="M609.33,518.72a4,4,0,0,1-3.41-6.08A282.67,282.67,0,0,0,642.65,417a4,4,0,0,1,7.86,1.47,290.64,290.64,0,0,1-37.77,98.3A4,4,0,0,1,609.33,518.72Z"/><path class="cls-3" d="M648.5,326.21a4,4,0,0,1-4-3.43,285.47,285.47,0,0,0-47.78-121.08,4,4,0,1,1,6.57-4.56,293.49,293.49,0,0,1,49.12,124.49A4,4,0,0,1,648.5,326.21Z"/><path class="cls-3" d="M527.84,131a4,4,0,0,1-2.29-.72,282.51,282.51,0,0,0-103-44.95,4,4,0,0,1,1.68-7.82,290.47,290.47,0,0,1,105.9,46.21A4,4,0,0,1,527.84,131Z"/><path class="cls-3" d="M76.78,321.18a4,4,0,0,1-4-4.65,290.91,290.91,0,0,1,30.6-90.38,4,4,0,1,1,7.06,3.77,282.91,282.91,0,0,0-29.76,87.9A4,4,0,0,1,76.78,321.18Z"/><path class="cls-3" d="M122.38,529.93a4,4,0,0,1-3.32-1.76A289.75,289.75,0,0,1,72.35,408.85a4,4,0,0,1,7.91-1.21,281.8,281.8,0,0,0,45.43,116A4,4,0,0,1,122.38,529.93Z"/><g id="Pager"><path class="cls-3" d="M531,207.13a8.48,8.48,0,0,1-8.17-6.3l-12.95-48.62a8.48,8.48,0,0,1,6-10.37l79.7-21.22a8.48,8.48,0,0,1,10.37,6l12.94,48.62a8.47,8.47,0,0,1-6,10.37l-79.7,21.22A8.52,8.52,0,0,1,531,207.13Zm66.77-82.79a4.47,4.47,0,0,0-1.15.15l-79.7,21.22a4.48,4.48,0,0,0-3.17,5.47l12.95,48.62a4.47,4.47,0,0,0,5.47,3.17l79.7-21.22a4.47,4.47,0,0,0,3.17-5.47L602,127.66A4.48,4.48,0,0,0,597.72,124.34Z"/><path class="cls-3" d="M530.64,176.61a1,1,0,0,1-1-.74l-6.27-23.56a1,1,0,0,1,.71-1.22l69.47-18.49a1,1,0,0,1,1.22.71l6.27,23.56a1,1,0,0,1-.71,1.22L530.9,176.58A1,1,0,0,1,530.64,176.61Zm-5-23.85,5.76,21.63,67.53-18-5.76-21.63Z"/><path class="cls-3" d="M535,193.05a1,1,0,0,1-1-.74L531.32,182a1,1,0,0,1,.71-1.22l31.66-8.43a1,1,0,0,1,1.22.71l2.73,10.26a1,1,0,0,1-.71,1.22L535.28,193A1,1,0,0,1,535,193.05Zm-1.51-10.55,2.22,8.33,29.73-7.91-2.22-8.33Z"/><path class="cls-3" d="M569.45,183.89a1,1,0,0,1-1-.74l-2.73-10.26a1,1,0,0,1,.71-1.22l15.83-4.21a1,1,0,0,1,1.22.71l2.73,10.26a1,1,0,0,1-.71,1.22l-15.83,4.21A1,1,0,0,1,569.45,183.89Zm-1.51-10.55,2.22,8.33,13.9-3.7-2.22-8.33Z"/><path class="cls-3" d="M588.66,178.77a1,1,0,0,1-1-.74L585,167.77a1,1,0,0,1,.71-1.22l15.83-4.21a1,1,0,0,1,1.22.71l2.73,10.26a1,1,0,0,1-.71,1.22l-15.83,4.21A1,1,0,0,1,588.66,178.77Zm-1.51-10.55,2.22,8.33,13.9-3.7L601,164.52Z"/><path class="cls-3" d="M537.8,169.19a3.41,3.41,0,0,1-3.07-.37,5.25,5.25,0,0,1-1.71-2.95,5.54,5.54,0,0,1-.21-2.28,3.22,3.22,0,0,1,.84-1.67,3.28,3.28,0,0,1-1.37-1,5,5,0,0,1-.85-1.84,4.27,4.27,0,0,1,.12-3,3.94,3.94,0,0,1,5.13-1.36,4.28,4.28,0,0,1,1.6,2.56,5.07,5.07,0,0,1,.19,2,3.25,3.25,0,0,1-.68,1.57,3.27,3.27,0,0,1,1.55,1,5.5,5.5,0,0,1,.95,2.06,5.27,5.27,0,0,1,0,3.41A3.4,3.4,0,0,1,537.8,169.19Zm-2.33-8.76a1.22,1.22,0,0,0,.63-0.37,1.12,1.12,0,0,0,.26-0.65,3.33,3.33,0,0,0,0-.76,7.39,7.39,0,0,0-.18-0.85q-0.55-2.07-1.85-1.73t-0.76,2.42a6.38,6.38,0,0,0,.28.83,3.35,3.35,0,0,0,.37.66,1.13,1.13,0,0,0,.54.43A1.23,1.23,0,0,0,535.47,160.42Zm1.14,7.1a1.65,1.65,0,0,0,.74,0,1.6,1.6,0,0,0,.66-0.33,1.27,1.27,0,0,0,.36-0.49,1.73,1.73,0,0,0,.1-0.65,4,4,0,0,0-.07-0.72c0-.23-0.11-0.49-0.19-0.81a6.13,6.13,0,0,0-.31-0.91,3.33,3.33,0,0,0-.43-0.72,1.31,1.31,0,0,0-.63-0.45,1.46,1.46,0,0,0-.83,0,1.49,1.49,0,0,0-.73.41,1.33,1.33,0,0,0-.33.7,3.11,3.11,0,0,0,0,.84,6.08,6.08,0,0,0,.18,1q0.12,0.47.24,0.8a4.13,4.13,0,0,0,.31.66,1.69,1.69,0,0,0,.41.51A1.3,1.3,0,0,0,536.61,167.53Z"/><path class="cls-3" d="M546.48,166.88a3.64,3.64,0,0,1-1.42.11,3,3,0,0,1-1.21-.42,4,4,0,0,1-1-.86,5.51,5.51,0,0,1-.77-1.21,8.5,8.5,0,0,1-.53-1.47l-1.24-4.67a12.38,12.38,0,0,1-.33-1.68,7,7,0,0,1,0-1.55,4.2,4.2,0,0,1,.35-1.36,2.92,2.92,0,0,1,.84-1,4.19,4.19,0,0,1,4.33-.39,4,4,0,0,1,1.68,2.53l-2.07.55a3,3,0,0,0-.75-1.47,1.39,1.39,0,0,0-1.36-.19q-1.56.41-.73,3.53l0.55,2.07a2.27,2.27,0,0,1,1.8-1.59,3.49,3.49,0,0,1,1.58-.1,2.34,2.34,0,0,1,1.2.63,4.43,4.43,0,0,1,.84,1.17,9.17,9.17,0,0,1,.89,3.54,5.23,5.23,0,0,1-.22,1.69,3,3,0,0,1-.85,1.35A3.64,3.64,0,0,1,546.48,166.88Zm-1.27-1.72a1.48,1.48,0,0,0,1.52-.41,1.42,1.42,0,0,0,.32-0.74,3.68,3.68,0,0,0,0-.89,5.92,5.92,0,0,0-.18-1l-0.12-.47c0-.11-0.07-0.25-0.13-0.45s-0.11-.34-0.15-0.44l-0.16-.39a1.69,1.69,0,0,0-.19-0.35l-0.23-.28a0.85,0.85,0,0,0-.27-0.23l-0.31-.13a1,1,0,0,0-.38,0,2,2,0,0,0-.43.07,1.76,1.76,0,0,0-1.28,1.45l0.55,2.07a5.8,5.8,0,0,0,.33.93,3.74,3.74,0,0,0,.46.76A1.42,1.42,0,0,0,545.21,165.16Z"/><path class="cls-3" d="M552.22,165.19l-0.75-13.5-3.83,1L547.18,151l5.81-1.55,0.26,1,1,14.23Z"/><path class="cls-3" d="M556.41,160.19L556,158.63l3.11-.83,0.42,1.56Z"/><path class="cls-3" d="M564.86,162a3.36,3.36,0,0,1-3.05-.35,5.43,5.43,0,0,1-1.68-3l2.07-.55,0.09,0.32q0.11,0.41.22,0.71a4.06,4.06,0,0,0,.28.59,1.59,1.59,0,0,0,.37.46,1.19,1.19,0,0,0,.5.22,1.41,1.41,0,0,0,.65,0,1.83,1.83,0,0,0,.5-0.21,1.77,1.77,0,0,0,.35-0.28,1,1,0,0,0,.22-0.38,4.19,4.19,0,0,0,.12-0.42,1.88,1.88,0,0,0,0-.5c0-.21,0-0.38,0-0.51s-0.05-.33-0.1-0.57-0.1-.43-0.13-0.56l-0.16-.6-0.07-.27q-0.09-.35-0.17-0.59t-0.19-.52a2.55,2.55,0,0,0-.23-0.46,2.2,2.2,0,0,0-.28-0.34,1,1,0,0,0-.36-0.24,1.42,1.42,0,0,0-.45-0.07,2,2,0,0,0-.56.07,1.45,1.45,0,0,0-.86.61,2.2,2.2,0,0,0-.37,1l-1.77.47-2.08-7.83,6.42-1.71,0.55,2.07-4.54,1.21,0.81,3.55a4.14,4.14,0,0,1,1.94-1.07,3.44,3.44,0,0,1,1.3-.12,2.46,2.46,0,0,1,1,.35,3,3,0,0,1,.82.77,5.36,5.36,0,0,1,.63,1.08,9.53,9.53,0,0,1,.46,1.35,13.57,13.57,0,0,1,.35,1.71,7.1,7.1,0,0,1,0,1.54,3.83,3.83,0,0,1-.35,1.34,2.93,2.93,0,0,1-.86,1A3.92,3.92,0,0,1,564.86,162Z"/><path class="cls-3" d="M573.3,159.74a3.65,3.65,0,0,1-3-.28,4,4,0,0,1-1.67-2.53l-0.14-.52,2.07-.55q0.13,0.49.25,0.82a4.18,4.18,0,0,0,.31.67,1.69,1.69,0,0,0,.41.5,1.26,1.26,0,0,0,.55.23,1.9,1.9,0,0,0,1.39-.37,1.26,1.26,0,0,0,.36-0.47,1.68,1.68,0,0,0,.1-0.64,4.23,4.23,0,0,0-.06-0.73q-0.06-.35-0.19-0.84a3.38,3.38,0,0,0-1-1.79,1.89,1.89,0,0,0-1.77-.25l-0.55-2.07a1.8,1.8,0,0,0,1.52-2.63,3,3,0,0,0-.75-1.46,1.38,1.38,0,0,0-1.35-.2,1.68,1.68,0,0,0-.66.32,1.24,1.24,0,0,0-.36.47,1.67,1.67,0,0,0-.1.64,4.22,4.22,0,0,0,.06.73c0,0.24.11,0.51,0.19,0.84l-2.07.55-0.14-.52a4,4,0,0,1,.2-3,4.3,4.3,0,0,1,5.39-1.44,4,4,0,0,1,1.67,2.54,3.57,3.57,0,0,1,0,2.17,2.9,2.9,0,0,1-1.23,1.5,2.81,2.81,0,0,1,1.88.86,4.89,4.89,0,0,1,1.16,2.22,5.23,5.23,0,0,1,0,3.4A3.38,3.38,0,0,1,573.3,159.74Z"/><path class="cls-3" d="M581.77,157.48a3.65,3.65,0,0,1-2.16,0,3.4,3.4,0,0,1-1.63-1.18,6,6,0,0,1-1-2.12l-1.66-6.22a5.12,5.12,0,0,1,.07-3.39,3.93,3.93,0,0,1,5.44-1.44,5.1,5.1,0,0,1,1.75,2.9l1.66,6.22a5.06,5.06,0,0,1-.1,3.37A3.36,3.36,0,0,1,581.77,157.48Zm-0.45-1.7q1.56-.41.87-3l-1.66-6.22c-0.08-.29-0.16-0.55-0.24-0.77a4.07,4.07,0,0,0-.32-0.66,2.07,2.07,0,0,0-.42-0.52,1.27,1.27,0,0,0-.55-0.26,1.67,1.67,0,0,0-1.35.36,1.26,1.26,0,0,0-.35.5,2,2,0,0,0-.11.66,3.93,3.93,0,0,0,.05.73c0,0.24.1,0.5,0.18,0.79l1.66,6.22a6.09,6.09,0,0,0,.32.92,3.63,3.63,0,0,0,.45.76,1.45,1.45,0,0,0,.65.48A1.34,1.34,0,0,0,581.32,155.78Z"/><path class="cls-3" d="M590.56,155.14a3.65,3.65,0,0,1-3-.28,4,4,0,0,1-1.68-2.53l2.07-.55a3,3,0,0,0,.75,1.47,1.39,1.39,0,0,0,1.36.19q1.56-.41.73-3.53l-0.55-2.07a2.3,2.3,0,0,1-1.8,1.59,3.49,3.49,0,0,1-1.58.09,2.33,2.33,0,0,1-1.2-.63,4.45,4.45,0,0,1-.84-1.17,9.17,9.17,0,0,1-.89-3.54,5.28,5.28,0,0,1,.22-1.69,3.05,3.05,0,0,1,.86-1.35,4,4,0,0,1,3-.93,3.06,3.06,0,0,1,1.21.42,4.08,4.08,0,0,1,1,.86,5.58,5.58,0,0,1,.77,1.21,8.75,8.75,0,0,1,.53,1.47l1.24,4.67a12.38,12.38,0,0,1,.33,1.68,7,7,0,0,1,0,1.55,4.19,4.19,0,0,1-.35,1.36,2.91,2.91,0,0,1-.84,1A3.66,3.66,0,0,1,590.56,155.14Zm-2-7.41a1.79,1.79,0,0,0,1.28-1.45l-0.55-2.07a5.77,5.77,0,0,0-.33-0.93,3.76,3.76,0,0,0-.46-0.75,1.44,1.44,0,0,0-.64-0.48,1.49,1.49,0,0,0-1.52.4,1.43,1.43,0,0,0-.32.74,3.75,3.75,0,0,0,0,.89,5.93,5.93,0,0,0,.18,1l0.12,0.47,0.13,0.45q0.09,0.29.15,0.44l0.16,0.39a1.66,1.66,0,0,0,.19.35l0.23,0.28a0.87,0.87,0,0,0,.27.23l0.31,0.12a1,1,0,0,0,.38,0A2.1,2.1,0,0,0,588.58,147.73Z"/><path class="cls-3" d="M622.33,125.17a1,1,0,0,1-1-.74,25.85,25.85,0,0,0-31.6-18.31,1,1,0,1,1-.51-1.93,27.86,27.86,0,0,1,34,19.73A1,1,0,0,1,622.33,125.17Z"/><path class="cls-3" d="M612.52,128.78a2,2,0,0,1-1.93-1.49,14.67,14.67,0,0,0-17.95-10.4,2,2,0,0,1-1-3.87,18.67,18.67,0,0,1,22.84,13.24A2,2,0,0,1,612.52,128.78Z"/><path class="cls-3" d="M531.69,224a27.87,27.87,0,0,1-26.89-20.67,1,1,0,0,1,1.93-.51,25.85,25.85,0,0,0,31.6,18.31,1,1,0,1,1,.51,1.93A27.76,27.76,0,0,1,531.69,224Z"/><path class="cls-3" d="M531.66,214.85a18.69,18.69,0,0,1-18-13.87,2,2,0,1,1,3.87-1,14.67,14.67,0,0,0,17.95,10.4,2,2,0,1,1,1,3.87A18.78,18.78,0,0,1,531.66,214.85Z"/></g><g id="Celebration_Status" data-name="Celebration + Status"><path class="cls-3" d="M124.25,209.23l-0.28,0a8.93,8.93,0,0,1-6.39-3.53,9.46,9.46,0,0,1-1.38-6.91,2,2,0,0,1,.15-0.45L142.54,143a2,2,0,0,1,3.62,1.71l-26.06,55.07a5.45,5.45,0,0,0,.77,3.63,4.91,4.91,0,0,0,3.28,1.79l56.17-15a2,2,0,0,1,1,3.87l-56.58,15.07A2,2,0,0,1,124.25,209.23Z"/><path class="cls-3" d="M179.21,194.65c-2.44,0-5.6-1.5-9.44-4.5a87.7,87.7,0,0,1-15-15.88c-9.28-12.3-16.77-27.43-11.26-31.58,4.09-3.08,11.33,2.34,16.68,7.44a2,2,0,0,1-2.76,2.9c-7.08-6.74-10.91-7.59-11.51-7.14-1.44,1.09.92,11.24,12,26A83.66,83.66,0,0,0,172.23,187c4.95,3.86,7.09,3.79,7.4,3.57,0.6-.46.82-4.43-3.8-13.19a2,2,0,1,1,3.54-1.87c3.49,6.61,6.79,15.14,2.68,18.25A4.55,4.55,0,0,1,179.21,194.65Z"/><path class="cls-3" d="M172.64,170.22a2,2,0,0,1-1.66-.88c-1.07-1.58-2.21-3.19-3.4-4.76s-2.26-2.91-3.41-4.3a2,2,0,1,1,3.07-2.57c1.2,1.43,2.39,2.93,3.54,4.45s2.42,3.29,3.52,4.93A2,2,0,0,1,172.64,170.22Z"/><path class="cls-3" d="M169,177.73l-1.21-1.59a86.62,86.62,0,0,1,13.38-8c7.2-3.5,17.82-7.33,27.53-5.65,7,1.2,12.58,5,16.71,11.37l-1.68,1.09c-3.81-5.86-9-9.39-15.37-10.49C190.66,161.38,169.17,177.57,169,177.73Z"/><path class="cls-3" d="M154.77,160l-0.19-2c0.13,0,13.52-1.66,20.27-27.24l1.93,0.51C169.65,158.34,155.38,159.94,154.77,160Z"/><path class="cls-3" d="M183.77,153.32c-0.69-2.19-2.75-9.49-.13-11.42,1.74-1.28,4.17.41,5,1,1.78,1.24,3.18,1.7,3.84,1.28,1-.64,1-3.45.73-5.24-0.67-1.36-2.34-5.25-.6-6.8,1.29-1.15,3.59-.53,7.46,2s5,2,5.25,1.84c0.91-.7.44-3.87-0.25-5.89l1.89-.65c0.35,1,2,6.25-.41,8.12-1.52,1.18-4,.61-7.58-1.75-4.12-2.71-5-2.19-5-2.19-0.35.31,0.11,2.51,1.13,4.54l0.09,0.27c0.1,0.59,1,5.77-1.6,7.41-1.46.94-3.44,0.5-6.06-1.32-1.51-1.05-2.36-1.19-2.63-1-1,.72-0.34,5.43.85,9.21Z"/><path class="cls-3" d="M210.68,209.51a2.88,2.88,0,0,1-1.27-.28c-1.73-.84-2.31-3.32-1.79-7.57,0.61-4.9-.25-5.48-0.26-5.48-0.43-.18-2.2,1.21-3.57,3l-0.2.2c-0.48.35-4.75,3.41-7.35,1.84-1.48-.89-2-2.86-1.5-6,0.27-1.82,0-2.65-.28-2.8-1.09-.57-5,2.1-7.88,4.84l-1.38-1.44c1.66-1.59,7.3-6.66,10.18-5.17,1.92,1,1.48,3.92,1.33,4.88-0.32,2.15-.12,3.61.55,4,1,0.61,3.55-.6,5-1.66,0.93-1.2,3.67-4.42,5.83-3.55,1.6,0.65,2.06,3,1.5,7.58s0.38,5.38.68,5.52c1,0.5,3.67-1.32,5.17-2.83l1.42,1.41C216.22,206.66,213.24,209.51,210.68,209.51Z"/><path class="cls-3" d="M155.19,134.47c-1.19,0-6.53-.16-7.51-3-0.63-1.82.71-4,4.09-6.61,3.89-3,3.69-4.05,3.69-4.06-0.19-.44-2.37-0.71-4.66-0.39l-0.14,0-0.14,0c-0.59-.09-5.77-1-6.5-3.9-0.42-1.68.63-3.42,3.2-5.32,1.48-1.09,1.89-1.86,1.79-2.18-0.37-1.17-5-2.07-9-2.15l0-2c2.3,0,9.87.45,10.86,3.55,0.65,2.06-1.72,3.81-2.5,4.39-1.74,1.29-2.64,2.47-2.45,3.23,0.28,1.15,2.93,2.08,4.73,2.38,1.51-.19,5.72-0.53,6.63,1.61,0.67,1.59-.65,3.57-4.3,6.42s-3.54,4.07-3.43,4.38c0.38,1.09,3.5,1.63,5.66,1.65v2h0Z"/><rect class="cls-3" x="175.83" y="114.58" width="3.42" height="3.42"/><rect class="cls-3" x="128.84" y="114.58" width="3.42" height="3.42"/><rect class="cls-3" x="114.64" y="145.01" width="3.42" height="3.42"/><rect class="cls-3" x="217.26" y="157.29" width="3.42" height="3.42" transform="translate(152.77 -103.38) rotate(39.86)"/><rect class="cls-3" x="202.68" y="179.29" width="3.42" height="3.42" transform="translate(163.48 -88.93) rotate(39.86)"/><rect class="cls-3" x="175.83" y="205.52" width="3.42" height="3.42" transform="translate(174.06 -65.63) rotate(39.86)"/></g><g id="Analytics_Down" data-name="Analytics Down"><path class="cls-3" d="M533.16,577.46a2,2,0,0,1-2-2V561.53a2,2,0,0,1,4,0v13.94A2,2,0,0,1,533.16,577.46Z"/><path class="cls-3" d="M533.16,540.26a2,2,0,0,1-2-2v-3.34a2,2,0,0,1,2-2h3.12a2,2,0,1,1,0,4h-1.12v1.34A2,2,0,0,1,533.16,540.26Z"/><path class="cls-3" d="M598.48,596H533.16a2,2,0,0,1,0-4h63.32V536.92H553.72a2,2,0,1,1,0-4h44.76a2,2,0,0,1,2,2V594A2,2,0,0,1,598.48,596Z"/><path class="cls-3" d="M533.16,596a2,2,0,0,1-2-2v-6.93a2,2,0,1,1,4,0V594A2,2,0,0,1,533.16,596Z"/><path class="cls-3" d="M559.49,585.07a1,1,0,0,1-.5-0.13l-12.35-7.14-16,5.07a1,1,0,0,1-.6-1.91l16.46-5.2a1,1,0,0,1,.8.09l12.23,7.07L571.41,576l19.75-34.33a1,1,0,1,1,1.73,1L573,577.2a1,1,0,0,1-.36.37L560,584.93A1,1,0,0,1,559.49,585.07Z"/><path class="cls-3" d="M560.46,557.1H528.21a1,1,0,0,1-.87-1.5l16.12-27.93a1,1,0,0,1,1.73,0l16.12,27.93A1,1,0,0,1,560.46,557.1Zm-30.51-2h28.78l-14.39-24.93Z"/><path class="cls-3" d="M543.76,548.28l-0.89-11.47h2.94l-1.05,11.47h-1Zm-0.89,4v-2.72h2.77v2.72h-2.77Z"/></g><g id="Analytics_Up" data-name="Analytics Up"><path class="cls-3" d="M40,342.57a2,2,0,0,1-2-2v-5.16a2,2,0,0,1,2-2H73.84a2,2,0,0,1,0,4H42v3.16A2,2,0,0,1,40,342.57Z"/><path class="cls-3" d="M105.35,396.51H40a2,2,0,0,1-2-2V351.2a2,2,0,0,1,4,0v41.32h61.32V364.83a2,2,0,0,1,4,0v29.68A2,2,0,0,1,105.35,396.51Z"/><path class="cls-3" d="M98.89,385.55a1,1,0,0,1-.41-0.09L73.62,374.37a1,1,0,0,1-.33-0.23l-13-14L53,350.85l-16.17-5.1a1,1,0,1,1,.6-1.91L53.93,349a1,1,0,0,1,.49.34l7.36,9.43,12.84,13.82,24.68,11A1,1,0,0,1,98.89,385.55Z"/><path class="cls-3" d="M111.83,359.12H81.25V328.54h30.58v30.58Zm-28.58-2h26.58V330.54H83.25v26.58Z"/><path class="cls-3" d="M97.43,356.31a1,1,0,0,1-.35-0.06l-5.61-2.09h-1a1,1,0,0,1,0-2h1.17a1,1,0,0,1,.35.06l5.56,2.07,5.62-.62L104,353l-0.27-1.63a1,1,0,0,1,.45-1l0.47-.3-0.13-1.54a1,1,0,0,1,.09-0.51l0.71-1.52L105.1,346a1,1,0,0,1-.07-0.75l0.79-2.65-1.46-1.3-4.53-.11a1,1,0,0,1-.9-1.39l1.41-3.36L100,334.69,97.93,334l-1.15,3.32a1,1,0,0,1-.18.32l-4.24,5a1,1,0,0,1-.76.35H90.48a1,1,0,0,1,0-2h0.64l3.82-4.49,1.41-4.06a1,1,0,0,1,1.25-.62l3.63,1.17a1,1,0,0,1,.68.79l0.43,2.64a1,1,0,0,1-.06.55l-1,2.28,3.44,0.09a1,1,0,0,1,.64.25l2.21,2a1,1,0,0,1,.29,1l-0.86,2.87,0.29,0.56a1,1,0,0,1,0,.89l-0.81,1.72,0.16,1.88a1,1,0,0,1-.46.93l-0.42.27,0.26,1.56a1,1,0,0,1-.36.95l-1.54,1.23a1,1,0,0,1-.52.21l-6.15.68H97.43Z"/><polygon class="cls-3" points="88.47 344.79 86.47 344.79 86.47 340.98 91.48 340.98 91.48 344.69 89.48 344.69 89.48 342.98 88.47 342.98 88.47 344.79"/><polygon class="cls-3" points="91.48 354.16 86.47 354.16 86.47 349.9 88.47 349.9 88.47 352.16 89.48 352.16 89.48 349.9 91.48 349.9 91.48 354.16"/><path class="cls-3" d="M89,351.31a4,4,0,1,1,4-4A4,4,0,0,1,89,351.31Zm0-6a2,2,0,1,0,2,2A2,2,0,0,0,89,345.28Z"/></g><g id="Browser_500" data-name="Browser 500"><path class="cls-3" d="M410.83,119.12h-108V37.69h108v81.43Zm-104-4h100V41.69h-100v73.43Z"/><path class="cls-3" d="M319.57,51.61H309.44a1,1,0,0,1-1-1v-4.9a1,1,0,0,1,1-1h10.12a1,1,0,0,1,1,1v4.9A1,1,0,0,1,319.57,51.61Zm-9.12-2h8.12v-2.9h-8.12v2.9Z"/><path class="cls-3" d="M392.38,51.61H322.56a1,1,0,0,1-1-1v-4.9a1,1,0,0,1,1-1h69.83a1,1,0,0,1,1,1v4.9A1,1,0,0,1,392.38,51.61Zm-68.83-2h67.83v-2.9H323.56v2.9Z"/><rect class="cls-3" x="304.84" y="56.06" width="103.99" height="2"/><path class="cls-3" d="M348.58,98.53H320.83A1,1,0,0,1,320,97l13.87-24a1,1,0,0,1,1.73,0l13.87,24A1,1,0,0,1,348.58,98.53Zm-26-2h24.28l-12.14-21Z"/><path class="cls-3" d="M334.21,90.8l-0.77-9.87H336l-0.91,9.87h-0.86Zm-0.77,3.41V91.87h2.38v2.34h-2.38Z"/><path class="cls-3" d="M396.87,107.76H314.51a1,1,0,0,1-1-1v-39a1,1,0,0,1,1-1h82.37a1,1,0,0,1,1,1v39A1,1,0,0,1,396.87,107.76Zm-81.37-2h80.37v-37H315.51v37Z"/><path class="cls-3" d="M357.23,97.67q-3.17,0-4.52-1.78a8.59,8.59,0,0,1-1.35-5.25h3.4v0.53c0,0.45,0,.84,0,1.17a5.92,5.92,0,0,0,.19,1,2.41,2.41,0,0,0,.38.85,1.87,1.87,0,0,0,.67.54,2.23,2.23,0,0,0,1,.21,2.93,2.93,0,0,0,.84-0.11,2.72,2.72,0,0,0,.65-0.28,1.57,1.57,0,0,0,.48-0.48,5.75,5.75,0,0,0,.35-0.59,2.85,2.85,0,0,0,.23-0.75c0.06-.32.11-0.59,0.14-0.8s0.06-.52.07-0.91,0-.7,0-0.92V88.7c0-.38,0-0.7,0-1s0-.56-0.07-0.88a4.35,4.35,0,0,0-.17-0.79,3.4,3.4,0,0,0-.29-0.64,1.57,1.57,0,0,0-.45-0.5,2.25,2.25,0,0,0-.66-0.3,3.26,3.26,0,0,0-.88-0.11,2.29,2.29,0,0,0-1.57.58,3.47,3.47,0,0,0-1,1.38h-2.89V73.66h10.51v3.4H355l-0.21,5.76a6.54,6.54,0,0,1,3.4-.85,5.51,5.51,0,0,1,2,.35,4,4,0,0,1,1.45,1,4.88,4.88,0,0,1,.94,1.51,8.52,8.52,0,0,1,.52,1.91,15.05,15.05,0,0,1,.15,2.24,21.7,21.7,0,0,1-.16,2.76,11.21,11.21,0,0,1-.57,2.37A6,6,0,0,1,361.44,96a4.69,4.69,0,0,1-1.73,1.23A6.27,6.27,0,0,1,357.23,97.67Z"/><path class="cls-3" d="M371.28,97.67a5.76,5.76,0,0,1-3.3-.92,5.38,5.38,0,0,1-2-2.48,9.49,9.49,0,0,1-.64-3.64V80.45a8.09,8.09,0,0,1,1.49-5.15,6.22,6.22,0,0,1,8.91,0,8.08,8.08,0,0,1,1.49,5.15V90.64a8,8,0,0,1-1.52,5.12A5.31,5.31,0,0,1,371.28,97.67Zm0-2.79q2.55,0,2.55-4.25V80.45q0-.72-0.05-1.28a6.35,6.35,0,0,0-.22-1.14,3.2,3.2,0,0,0-.44-1,2,2,0,0,0-.74-0.62,2.66,2.66,0,0,0-2.2,0,2,2,0,0,0-.74.62,3.13,3.13,0,0,0-.44,1,6.22,6.22,0,0,0-.22,1.14q-0.05.56-.05,1.28V90.64a9.75,9.75,0,0,0,.11,1.54,5.63,5.63,0,0,0,.39,1.34,2.27,2.27,0,0,0,.79,1A2.12,2.12,0,0,0,371.28,94.89Z"/><path class="cls-3" d="M385.71,97.67a5.76,5.76,0,0,1-3.3-.92,5.38,5.38,0,0,1-2-2.48,9.49,9.49,0,0,1-.64-3.64V80.45a8.09,8.09,0,0,1,1.49-5.15,6.22,6.22,0,0,1,8.91,0,8.08,8.08,0,0,1,1.49,5.15V90.64a8,8,0,0,1-1.52,5.12A5.31,5.31,0,0,1,385.71,97.67Zm0-2.79q2.55,0,2.55-4.25V80.45q0-.72-0.05-1.28A6.35,6.35,0,0,0,388,78a3.2,3.2,0,0,0-.44-1,2,2,0,0,0-.74-0.62,2.66,2.66,0,0,0-2.2,0,2,2,0,0,0-.74.62,3.13,3.13,0,0,0-.44,1,6.22,6.22,0,0,0-.22,1.14q-0.05.56-.05,1.28V90.64a9.75,9.75,0,0,0,.11,1.54,5.63,5.63,0,0,0,.39,1.34,2.27,2.27,0,0,0,.79,1A2.12,2.12,0,0,0,385.71,94.89Z"/></g><g id="Chat"><path class="cls-3" d="M673.06,398.67H655.91V388.39h-8.75v10.29H630V388.39H619.72V371.24H630v-8.75H619.72V345.34H630V335.05h17.15v10.29h8.75V335.05h17.15v10.29h10.29v17.15H673.06v8.75h10.29v17.15H673.06v10.29Zm-13.15-4h9.15V384.39h10.29v-9.15H669.06V358.49h10.29v-9.15H669.06V339.05h-9.15v10.29H643.16V339.05H634v10.29H623.72v9.15H634v16.75H623.72v9.15H634v10.29h9.15V384.39h16.75v10.29Z"/><path class="cls-3" d="M659.41,374.74H643.66V359h15.75v15.75Zm-12.75-3h9.75V362h-9.75v9.75Z"/></g><path class="cls-3" d="M348.76,683.42h-0.19c-0.21,0-20.85-2.34-21.1-32.78-0.15-18.6,11.79-35.11,12.3-35.81a2,2,0,0,1,3.53,1.74h0A13.86,13.86,0,0,0,346.75,629a71.18,71.18,0,0,1,18.74-36.5,2,2,0,0,1,3.4,1.06c1.41,8.13,6.3,29.92,12.58,37.14,2-1,6.35-4.37,5.58-13.95a2,2,0,0,1,3.66-1.26c0.85,1.3,20.78,32,13,51.76-5.19,13.11-18.22,15.87-18.77,16a2,2,0,0,1-.38,0l-35.74.17h0Zm-9.4-60.32c-3.41,6.22-8,16.61-7.89,27.5,0.21,25.94,16.14,28.65,17.4,28.82l35.41-.17c1.49-.35,11.54-3.05,15.67-13.49,5.19-13.13-3.92-32.76-9.21-42.37-1.81,9.61-9.21,11.56-9.3,11.58a2,2,0,0,1-1.83-.47c-7.23-6.64-12.12-27.54-13.91-36.34a67.71,67.71,0,0,0-15.51,35,2,2,0,0,1-3.21,1.43A19.29,19.29,0,0,1,339.37,623.1Z"/><path class="cls-3" d="M327.63,630.48h0c-2.19,0-3.68-.72-4.43-2.14-2-3.85,3-11.35,3.6-12.2a1,1,0,0,1,1.79.33c0.61,2.5,2.46,10.86.61,13.22A2,2,0,0,1,327.63,630.48Zm-0.45-11.16c-1.61,2.82-3.08,6.43-2.21,8.09,0.14,0.26.56,1.06,2.66,1.07C328.32,628,328.09,623.87,327.18,619.32Z"/><path class="cls-3" d="M349.26,605.59h0c-2.9,0-4.91-1-6-2.89-3.31-5.92,4.26-18.62,5.13-20a1,1,0,0,1,1.83.31c0.65,3,3.75,18.17.89,21.71A2.34,2.34,0,0,1,349.26,605.59ZM348.8,586c-2.43,4.56-5.73,12.27-3.79,15.73,0.7,1.25,2.09,1.86,4.24,1.87h0a0.36,0.36,0,0,0,.31-0.18C351.1,601.51,350,592.6,348.8,586Z"/><path class="cls-3" d="M403.14,630.34h0c-2.19,0-3.68-.72-4.42-2.14-2-3.85,3-11.35,3.6-12.2a1,1,0,0,1,1.79.33c0.61,2.5,2.46,10.86.61,13.22A2,2,0,0,1,403.14,630.34Zm-0.45-11.16c-1.61,2.82-3.08,6.43-2.21,8.1,0.14,0.26.56,1.06,2.66,1.07C403.83,627.82,403.6,623.73,402.69,619.18Z"/><path class="cls-3" d="M381,619h0a4.34,4.34,0,0,1-3.78-1.9c-3.49-5.18,2.19-19.68,2.85-21.31A1,1,0,0,1,382,596c0.65,4.58,2.61,19.72.3,22.37A1.68,1.68,0,0,1,381,619Zm0-2h0Zm-0.46-16.63c-1.71,5.23-3.56,12.8-1.66,15.61a2.29,2.29,0,0,0,2,1C381.61,615.9,381.65,609.55,380.56,600.36Z"/><path class="cls-3" d="M348.76,682.42a1,1,0,0,1-.88-0.52c-0.68-1.26-16.62-31-9.28-39.9a1,1,0,0,1,1.65.15c1,1.81,4.35,6.59,7.72,6.92,1.47,0.15,2.81-.54,4.13-2.09,6.18-7.29,6.42-19.38,6.42-19.51a1,1,0,0,1,1.91-.39c0.07,0.16,7,15.57,14.33,17.81a5.13,5.13,0,0,0,4.46-.61c9.08-5.75,9.75-10.86,9.76-10.91a1,1,0,0,1,2-.2,85.57,85.57,0,0,1,3.19,18.51c0.79,13.48-2.29,24-8.92,30.28a1,1,0,0,1-.69.28l-35.74.17h0Zm-9.39-37.89c-3.38,7.65,5.65,27.72,10,35.88l34.74-.16c12-11.88,7.71-35.25,5.71-43.51-1.28,2.33-3.95,5.7-9.52,9.23a7.12,7.12,0,0,1-6.11.83c-6-1.82-11.37-10.67-14-15.6-0.55,4.39-2.11,11.77-6.6,17.07-1.75,2.06-3.71,3-5.85,2.79C344,650.68,340.85,646.71,339.38,644.53Z"/><polygon class="cls-3" points="193.44 611.77 168.41 582.14 169.94 580.85 193.67 608.95 202.4 601.58 178.06 572.77 179.59 571.48 205.22 601.82 193.44 611.77"/><path class="cls-3" d="M144.38,612.41a15.25,15.25,0,1,1,3.71-30L160,570.84l2.79,2.87-13.61,13.21-1.16-.39a11.25,11.25,0,1,0,7.12,7.33l-0.36-1.17,13-12.63,2.79,2.87-11.3,11A15.23,15.23,0,0,1,144.38,612.41Z"/><path class="cls-3" d="M160.62,572.92l-16.77-19.85-3.2,2.7,1.57,1.86-6.93,5.85-11-13,6.93-5.85,1.85,2.19,14.17-12c0.71-.75,7.72-7.7,20.59-4.1l1.82,0.51-14,11.86,16.17,19.14-1.53,1.29-16.81-19.91,0.61-.51-0.65-.76,12-10.15c-10.84-2.22-16.5,3.76-16.75,4l-0.09.09-15.74,13.29L131,547.44l-3.87,3.27,8.4,9.94,3.87-3.27-1.57-1.86,6.25-5.28,18.06,21.38Z"/><path class="cls-3" d="M180.22,573.55l-2.79-2.87,16.88-16.38,1.17,0.42a11.33,11.33,0,0,0,15.15-11l-6.11,5.86-8.42-2.45L194,538.56l6.11-5.86a11.34,11.34,0,0,0-11.7,14.61l0.35,1.17-16.34,15.86-2.79-2.87,14.63-14.2a15.34,15.34,0,0,1,20.62-17.53l2.91,1.14-9.37,9,1,4,4,1.16,9.37-9,1,3a15.34,15.34,0,0,1-18.45,19.83Z"/><path class="cls-3" d="M146.24,604.56l-7.33-2.08L137,595.09l5.47-5.31,7.33,2.08,1.86,7.39Zm-5.67-3.69,5.11,1.45,3.81-3.7-1.3-5.15L143.08,592l-3.81,3.7Z"/><rect class="cls-3" x="142.38" y="546.32" width="13.42" height="2" transform="translate(-317.98 225.4) rotate(-40.19)"/><rect class="cls-3" x="167.27" y="574.81" width="13.45" height="4" transform="translate(-352.66 284.22) rotate(-44.16)"/><rect class="cls-3" x="159.48" y="565.59" width="13.45" height="4" transform="translate(-348.44 276.18) rotate(-44.16)"/><g class="cls-4"><g class="cls-5"><rect class="cls-6" x="244.27" y="206.29" width="239.77" height="104"/></g></g><g class="cls-7"><g class="cls-5"><rect class="cls-8" x="357.08" y="459.12" width="127.33" height="26.38"/></g></g><g class="cls-9"><g class="cls-5"><rect class="cls-6" x="280.57" y="295.45" width="167.93" height="177.78"/></g></g><g class="cls-10"><g class="cls-5"><rect class="cls-11" x="267.02" y="224.31" width="69.65" height="71.62"/></g></g><g class="cls-12"><g class="cls-5"><rect class="cls-11" x="391.86" y="224.51" width="69.26" height="71.22"/></g></g><g class="cls-13"><g class="cls-5"><rect class="cls-8" x="243.9" y="459.12" width="127.32" height="26.38"/></g></g><g class="cls-14"><g class="cls-5"><rect class="cls-6" x="187.23" y="348.48" width="50.84" height="52.89"/></g></g><g class="cls-15"><g class="cls-5"><rect class="cls-6" x="200.7" y="327.13" width="47.81" height="53.71"/></g></g><g class="cls-16"><g class="cls-5"><rect class="cls-17" x="205.82" y="360.33" width="32.25" height="41.04"/></g></g><g class="cls-18"><g class="cls-5"><rect class="cls-17" x="200.7" y="345.4" width="47.81" height="35.44"/></g></g><g class="cls-19"><g class="cls-5"><rect class="cls-8" x="243.9" y="468.99" width="127.32" height="25.93"/></g></g><g class="cls-20"><g class="cls-5"><rect class="cls-8" x="357.08" y="468.99" width="127.33" height="25.93"/></g></g><g class="cls-21"><g class="cls-5"><rect class="cls-6" x="479.26" y="326.36" width="47.97" height="53.45"/></g></g><g class="cls-22"><g class="cls-5"><rect class="cls-17" x="479.26" y="344.75" width="47.97" height="35.05"/></g></g><g class="cls-23"><g class="cls-5"><rect class="cls-6" x="489.75" y="347.29" width="51.14" height="53.31"/></g></g><g class="cls-24"><g class="cls-5"><rect class="cls-17" x="489.75" y="359.02" width="51.14" height="41.57"/></g></g><g class="cls-25"><g class="cls-5"><rect class="cls-26" x="469.09" y="229.16" width="25.5" height="61.17"/></g></g><g class="cls-27"><g class="cls-5"><rect class="cls-28" x="469.09" y="256.18" width="25.45" height="34.15"/></g></g><g class="cls-29"><g class="cls-5"><rect class="cls-26" x="323.83" y="195.71" width="79.13" height="26.49"/></g></g><g class="cls-30"><g class="cls-5"><rect class="cls-28" x="323.83" y="196.27" width="30.4" height="25.93"/></g></g><g class="cls-31"><g class="cls-5"><rect class="cls-26" x="234.31" y="229.27" width="24.89" height="60.96"/></g></g><g class="cls-32"><g class="cls-5"><rect class="cls-28" x="234.43" y="258.4" width="24.78" height="31.83"/></g></g><g class="cls-33"><g class="cls-5"><rect class="cls-26" x="157.6" y="374.25" width="79.51" height="75.67"/></g></g><g class="cls-34"><g class="cls-5"><rect class="cls-26" x="218.85" y="298.18" width="40.36" height="73.08"/></g></g><g class="cls-35"><g class="cls-5"><rect class="cls-28" x="218.85" y="319.57" width="40.36" height="51.68"/></g></g><g class="cls-36"><g class="cls-5"><rect class="cls-26" x="469.09" y="297.84" width="40.1" height="72.83"/></g></g><g class="cls-37"><g class="cls-5"><rect class="cls-28" x="469.09" y="313.81" width="38.19" height="56.87"/></g></g><g class="cls-38"><g class="cls-5"><rect class="cls-26" x="491.12" y="372.83" width="82.95" height="83.38"/></g></g><g class="cls-39"><g class="cls-5"><rect class="cls-11" x="243.9" y="295.45" width="53.2" height="177.78"/></g></g><g class="cls-40"><g class="cls-5"><rect class="cls-11" x="431.98" y="295.45" width="52.42" height="177.78"/></g></g><g class="cls-41"><g class="cls-5"><rect class="cls-26" x="224.7" y="479.79" width="146.53" height="52.68"/></g></g><g class="cls-42"><g class="cls-5"><rect class="cls-26" x="357.08" y="479.79" width="146.66" height="52.68"/></g></g><g class="cls-43"><g class="cls-5"><rect class="cls-28" x="224.7" y="479.79" width="34.51" height="52.68"/></g></g><g class="cls-44"><g class="cls-5"><rect class="cls-28" x="247.71" y="479.79" width="25.93" height="52.68"/></g></g><g class="cls-45"><g class="cls-5"><rect class="cls-28" x="357.08" y="479.79" width="34.51" height="52.68"/></g></g><g class="cls-46"><g class="cls-5"><rect class="cls-28" x="380.09" y="479.79" width="25.93" height="52.68"/></g></g><g class="cls-47"><g class="cls-5"><rect class="cls-48" x="272.38" y="229.79" width="58.95" height="60.65"/></g></g><g class="cls-49"><g class="cls-5"><rect class="cls-50" x="272.38" y="235.8" width="53.28" height="54.65"/></g></g><g class="cls-51"><g class="cls-5"><rect class="cls-48" x="397.02" y="229.79" width="58.95" height="60.65"/></g></g><g class="cls-52"><g class="cls-5"><rect class="cls-50" x="397.02" y="235.17" width="53.2" height="55.27"/></g></g><g class="cls-53"><g class="cls-5"><rect class="cls-48" x="252.67" y="316.64" width="35.78" height="36.49"/></g></g><g class="cls-54"><g class="cls-5"><rect class="cls-48" x="252.67" y="425.12" width="35.78" height="36.49"/></g></g><g class="cls-55"><g class="cls-5"><rect class="cls-48" x="439.89" y="316.64" width="35.78" height="36.49"/></g></g><g class="cls-56"><g class="cls-5"><rect class="cls-48" x="439.89" y="425.12" width="35.78" height="36.49"/></g></g><g class="cls-57"><g class="cls-5"><rect class="cls-50" x="252.67" y="318.95" width="33.22" height="34.18"/></g></g><g class="cls-58"><g class="cls-5"><rect class="cls-50" x="252.67" y="427.38" width="33.37" height="34.23"/></g></g><g class="cls-59"><g class="cls-5"><rect class="cls-50" x="439.89" y="319.27" width="33.17" height="33.86"/></g></g><g class="cls-60"><g class="cls-5"><rect class="cls-50" x="439.89" y="427.46" width="33.01" height="34.15"/></g></g><g class="cls-61"><g class="cls-5"><rect class="cls-62" x="288.9" y="305.5" width="148.01" height="154.54"/></g></g><g class="cls-63"><g class="cls-5"><rect class="cls-17" x="260.71" y="214.6" width="25.17" height="95.69"/></g></g><g class="cls-64"><g class="cls-5"><rect class="cls-17" x="244.27" y="217.05" width="29.38" height="93.24"/></g></g><g class="cls-65"><g class="cls-5"><rect class="cls-11" x="272.2" y="459.12" width="24.9" height="26.38"/></g></g><g class="cls-66"><g class="cls-5"><rect class="cls-11" x="243.9" y="459.12" width="42.13" height="26.38"/></g></g><g class="cls-67"><g class="cls-5"><rect class="cls-11" x="272.2" y="468.77" width="24.9" height="26.38"/></g></g><g class="cls-68"><g class="cls-5"><rect class="cls-11" x="243.9" y="468.77" width="42.13" height="26.38"/></g></g><g class="cls-69"><g class="cls-5"><rect class="cls-11" x="385.37" y="459.12" width="24.9" height="26.38"/></g></g><g class="cls-70"><g class="cls-5"><rect class="cls-11" x="357.08" y="459.12" width="42.13" height="26.38"/></g></g><g class="cls-71"><g class="cls-5"><rect class="cls-11" x="385.37" y="468.77" width="24.9" height="26.38"/></g></g><g class="cls-72"><g class="cls-5"><rect class="cls-11" x="357.08" y="468.77" width="42.13" height="26.38"/></g></g><g class="cls-73"><g class="cls-5"><rect class="cls-28" x="533.78" y="404.46" width="40.28" height="48.88"/></g></g><g class="cls-74"><g class="cls-5"><rect class="cls-28" x="518.7" y="373.65" width="48.54" height="41.95"/></g></g><g class="cls-75"><g class="cls-5"><rect class="cls-28" x="494.3" y="407.31" width="39.48" height="44.76"/></g></g><g class="cls-76"><g class="cls-5"><rect class="cls-28" x="527.99" y="431.15" width="25.34" height="24.6"/></g></g><g class="cls-77"><g class="cls-5"><rect class="cls-28" x="204.13" y="403.64" width="32.98" height="46.28"/></g></g><g class="cls-78"><g class="cls-5"><rect class="cls-28" x="171.91" y="375.82" width="57.83" height="43.2"/></g></g><g class="cls-79"><g class="cls-5"><rect class="cls-80" x="305.04" y="338.99" width="115.99" height="87.55"/></g></g><g class="cls-81"><g class="cls-5"><rect class="cls-82" x="304.99" y="339.09" width="116.11" height="87.35"/></g></g><g class="cls-83"><g class="cls-5"><rect class="cls-84" x="339.31" y="319.71" width="47.45" height="126.13"/></g></g><g class="cls-85"><g class="cls-5"><rect class="cls-86" x="269.96" y="227.36" width="63.78" height="65.51"/></g></g><g class="cls-87"><g class="cls-5"><rect class="cls-86" x="394.6" y="227.36" width="63.78" height="65.51"/></g></g><g class="cls-88"><g class="cls-5"><rect class="cls-86" x="250.26" y="314.21" width="40.61" height="41.35"/></g></g><g class="cls-89"><g class="cls-5"><rect class="cls-86" x="250.26" y="422.69" width="40.61" height="41.35"/></g></g><g class="cls-90"><g class="cls-5"><rect class="cls-86" x="437.48" y="314.21" width="40.61" height="41.35"/></g></g><g class="cls-91"><g class="cls-5"><rect class="cls-86" x="437.48" y="422.69" width="40.61" height="41.35"/></g></g><g class="cls-92"><g class="cls-5"><rect class="cls-86" x="152.19" y="191.93" width="426.63" height="345.1"/></g></g><g class="cls-93"><g class="cls-5"><rect class="cls-86" x="322.79" y="254.08" width="82.88" height="31.77"/></g></g><g class="cls-94"><g class="cls-5"><rect class="cls-86" x="286.18" y="303.07" width="153.44" height="159.4"/></g></g><g class="cls-95"><g class="cls-5"><rect class="cls-96" x="291.12" y="231.82" width="26.19" height="22.72"/></g></g><g class="cls-97"><g class="cls-5"><rect class="cls-96" x="299.12" y="234.19" width="29.14" height="31.41"/></g></g><g class="cls-98"><g class="cls-5"><rect class="cls-96" x="415.7" y="231.82" width="26.19" height="22.72"/></g></g><g class="cls-99"><g class="cls-5"><rect class="cls-96" x="423.7" y="234.19" width="29.14" height="31.41"/></g></g></svg>