<?xml version="1.0" encoding="UTF-8" standalone="no"?>
<svg width="1145px" height="574px" viewBox="0 0 1145 574" version="1.1" xmlns="http://www.w3.org/2000/svg" xmlns:xlink="http://www.w3.org/1999/xlink">
    <!-- Generator: Sketch 39.1 (31720) - http://www.bohemiancoding.com/sketch -->
    <title>monitoringup</title>
    <desc>Created with Sketch.</desc>
    <defs>
        <polygon id="path-1" points="0 969.650022 971.831917 969.650022 971.831917 0 0 0"></polygon>
    </defs>
    <g id="Page-1" stroke="none" stroke-width="1" fill="none" fill-rule="evenodd">
        <g id="monitoringup">
            <g id="Group" transform="translate(85.643479, 37.171875)">
                <g id="Page-1">
                    <path d="M846.768531,242.874112 C884.153555,296.733714 909.668053,359.454539 919.523367,427.250934" id="Stroke-7" stroke="#221F20" stroke-width="8" stroke-linecap="round"></path>
                    <path d="M581.481275,65.6101457 C638.778148,77.9386742 691.876414,101.570106 738.326885,134.053751" id="Stroke-9" stroke="#221F20" stroke-width="8" stroke-linecap="round"></path>
                    <path d="M60.9774121,419.697345 C68.7679609,372.023031 84.3190255,326.957079 106.291136,285.84046" id="Stroke-11" stroke="#221F20" stroke-width="8" stroke-linecap="round"></path>
                    <path d="M865.203511,219.237875 L745.517676,251.10134 C740.329483,252.482856 735.006142,249.39697 733.624626,244.210278 L714.185795,171.192654 C712.804279,166.005963 715.890165,160.682621 721.076857,159.301105 L840.764193,127.437641 C845.950884,126.056125 851.275727,129.142011 852.655742,134.328702 L872.094572,207.344825 C873.476088,212.533018 870.390202,217.85636 865.203511,219.237875 L865.203511,219.237875 Z" id="Stroke-15" stroke="#221F20" stroke-width="4"></path>
                    <polygon id="Stroke-17" stroke="#221F20" stroke-width="2" stroke-linejoin="round" points="846.844965 179.339093 742.529998 207.110568 733.110161 171.728742 837.425129 143.957268"></polygon>
                    <polygon id="Stroke-19" stroke="#221F20" stroke-width="2" stroke-linejoin="round" points="796.643378 219.136364 749.101208 231.793753 745.000208 216.386847 792.542378 203.729458"></polygon>
                    <polygon id="Stroke-21" stroke="#221F20" stroke-width="2" stroke-linejoin="round" points="824.56817 211.702006 800.797086 218.02995 796.696086 202.623044 820.46717 196.2951"></polygon>
                    <polygon id="Stroke-23" stroke="#221F20" stroke-width="2" stroke-linejoin="round" points="853.416176 204.021829 829.645091 210.349772 825.544091 194.942866 849.315176 188.614922"></polygon>
                    <path d="M751.496937,194.968995 C751.825798,195.030562 752.195204,195.012542 752.600648,194.902922 C753.006093,194.794803 753.334954,194.628121 753.587231,194.404375 C753.84101,194.182131 754.019706,193.938864 754.123319,193.676076 C754.226933,193.413287 754.277989,193.088932 754.274986,192.703008 C754.273484,192.318586 754.238946,191.955187 754.174375,191.615815 C754.109805,191.276443 754.016702,190.874001 753.890564,190.400982 C753.752412,189.881412 753.596241,189.426413 753.42205,189.034483 C753.247859,188.641051 753.031621,188.279154 752.770335,187.948791 C752.507546,187.61993 752.190699,187.394683 751.821293,187.276053 C751.450386,187.158924 751.032928,187.160426 750.571922,187.283561 C750.109415,187.406696 749.743013,187.613924 749.477221,187.899237 C749.211429,188.189055 749.044746,188.541942 748.977172,188.953394 C748.908097,189.367848 748.896083,189.78831 748.941133,190.213276 C748.984681,190.641246 749.077783,191.117268 749.218938,191.644346 C749.342073,192.117365 749.465208,192.516804 749.583838,192.845665 C749.700967,193.174525 749.854135,193.507891 750.044844,193.842759 C750.234052,194.18063 750.441279,194.434408 750.665024,194.610101 C750.88877,194.78279 751.168076,194.905925 751.496937,194.968995 M749.777551,184.30279 C750.182996,184.194672 750.498342,184.011471 750.720585,183.753187 C750.942829,183.493402 751.071971,183.169046 751.106509,182.781621 C751.142548,182.392694 751.13504,182.015781 751.085486,181.644874 C751.032928,181.278472 750.944331,180.850502 750.815189,180.363968 C750.262583,178.287189 749.336066,177.420738 748.038642,177.766117 C746.724701,178.116001 746.34178,179.330834 746.894387,181.407613 C747.023529,181.894147 747.16168,182.311605 747.308842,182.658486 C747.453,183.00837 747.636201,183.338732 747.859946,183.654078 C748.08219,183.969424 748.353988,184.182658 748.673839,184.298285 C748.996694,184.410909 749.363096,184.413912 749.777551,184.30279 M753.280895,197.458727 C751.364792,197.969287 749.828607,197.784584 748.670836,196.904619 C747.510062,196.029158 746.655625,194.551537 746.101517,192.474758 C745.741121,191.117268 745.637508,189.982022 745.790676,189.058509 C745.945345,188.134995 746.365807,187.298578 747.053562,186.552259 C746.21414,186.211385 745.527887,185.699323 744.990297,185.014571 C744.451206,184.334325 744.027741,183.413815 743.718402,182.253041 C743.240878,180.452565 743.299442,178.941908 743.894095,177.72257 C744.49175,176.504733 745.645016,175.665312 747.358396,175.210313 C749.061265,174.756815 750.474315,174.914488 751.593043,175.678827 C752.714774,176.446169 753.51365,177.725573 753.991174,179.51854 C754.302015,180.686822 754.395118,181.697431 754.270481,182.551869 C754.147346,183.407808 753.806472,184.191668 753.247859,184.901948 C754.208913,185.218795 754.988268,185.742871 755.579918,186.47117 C756.17457,187.199469 756.650593,188.232603 757.006483,189.572072 C757.559089,191.648851 757.554585,193.354723 756.989965,194.689688 C756.422342,196.027656 755.187988,196.95117 753.280895,197.458727" id="Fill-25" fill="#221F20"></path>
                    <path d="M764.40375,191.409188 C764.777661,191.542835 765.189112,191.551845 765.635102,191.433215 C766.079589,191.314585 766.432476,191.102852 766.69076,190.799519 C766.949043,190.496186 767.10972,190.128283 767.171287,189.694307 C767.235858,189.257327 767.244868,188.817344 767.202822,188.363847 C767.159274,187.907346 767.069175,187.426818 766.934027,186.916258 C766.852938,186.606919 766.79137,186.375665 766.747823,186.21649 C766.705776,186.057316 766.639704,185.83357 766.549605,185.546755 C766.458005,185.255436 766.384424,185.036195 766.322856,184.883027 C766.258285,184.729859 766.177196,184.537648 766.076586,184.303391 C765.974474,184.070636 765.878368,183.893441 765.785266,183.774811 C765.693666,183.654679 765.579541,183.516528 765.445894,183.357353 C765.310746,183.196677 765.175597,183.082551 765.035944,183.014977 C764.896291,182.947403 764.740119,182.885835 764.568932,182.827271 C764.396242,182.768707 764.207034,182.746182 764.00281,182.758195 C763.795583,182.767205 763.580847,182.804746 763.3556,182.864812 C762.347994,183.133607 761.706791,183.858903 761.430488,185.043703 L762.260899,188.159622 C762.399051,188.679193 762.56273,189.144703 762.750436,189.554653 C762.938142,189.966105 763.164891,190.343018 763.435187,190.689899 C763.705484,191.033776 764.028338,191.275542 764.40375,191.409188 M766.315348,193.989019 C765.569029,194.187237 764.857248,194.239794 764.181506,194.151197 C763.505765,194.0626 762.902103,193.852369 762.366014,193.526512 C761.832929,193.200654 761.340389,192.769681 760.888393,192.232091 C760.437898,191.697505 760.051975,191.092341 759.733626,190.415097 C759.413775,189.742359 759.149485,189.006552 758.939254,188.210679 L757.072706,181.200987 C756.833944,180.309008 756.667261,179.469587 756.571155,178.681222 C756.47505,177.894358 756.463037,177.12101 756.538119,176.358172 C756.613202,175.595335 756.788894,174.916591 757.065198,174.320436 C757.339999,173.725784 757.758959,173.201709 758.320575,172.748211 C758.882191,172.294714 759.572949,171.959846 760.392849,171.740605 C762.14377,171.273593 763.622893,171.413246 764.828717,172.15506 C766.03454,172.899878 766.876964,174.167268 767.354488,175.960236 L764.238569,176.790647 C763.960764,175.751507 763.586854,175.018703 763.110832,174.58773 C762.634809,174.158258 761.956064,174.060651 761.073096,174.29641 C759.514385,174.712366 759.150986,176.476803 759.979896,179.592722 L760.808805,182.708641 C761.133161,181.511828 762.03415,180.714453 763.51027,180.321021 C764.387232,180.086764 765.174096,180.040213 765.876867,180.178364 C766.579638,180.319519 767.180297,180.633364 767.678844,181.119898 C768.177391,181.607933 768.600856,182.193576 768.947737,182.873822 C769.293116,183.55557 769.593445,184.36646 769.842719,185.306492 C770.114517,186.329114 770.261678,187.29167 770.285705,188.19416 C770.308229,189.096651 770.197108,189.940577 769.955342,190.725939 C769.712075,191.5113 769.284106,192.187042 768.671433,192.754665 C768.058761,193.322288 767.271898,193.733739 766.315348,193.989019" id="Fill-27" fill="#221F20"></path>
                    <polygon id="Fill-29" fill="#221F20" points="774.933605 191.459043 773.808871 171.180791 768.053055 172.712472 767.362297 170.117625 776.089874 167.794575 776.48781 169.29322 777.926389 190.661668"></polygon>
                    <polygon id="Fill-31" fill="#221F20" points="781.221755 183.946449 780.600073 181.609885 785.273201 180.366521 785.896385 182.703085"></polygon>
                    <path d="M793.916686,186.640105 C791.978058,187.156672 790.449381,186.979477 789.330653,186.108522 C788.211926,185.236064 787.372505,183.741925 786.809387,181.624601 L789.923804,180.79419 L790.052946,181.280724 C790.164068,181.695179 790.273688,182.052571 790.383308,182.348396 C790.491427,182.64422 790.632582,182.940045 790.800766,183.240374 C790.973456,183.536199 791.15966,183.765951 791.362383,183.925126 C791.565105,184.082799 791.814379,184.193921 792.108702,184.253987 C792.403025,184.315554 792.728882,184.297535 793.086274,184.201429 C793.368584,184.127848 793.616356,184.024235 793.831092,183.893591 C794.042824,183.761446 794.220018,183.624796 794.359672,183.477635 C794.499325,183.331975 794.607444,183.144269 794.687031,182.914517 C794.762113,182.686266 794.822179,182.479039 794.864225,182.289831 C794.903268,182.100624 794.91378,181.849849 794.892757,181.545014 C794.873235,181.237176 794.850711,180.980395 794.823681,180.774669 C794.799655,180.567441 794.748599,180.28363 794.669011,179.915726 C794.587922,179.550826 794.523351,179.270018 794.469292,179.070299 C794.416734,178.872081 794.337147,178.574755 794.232032,178.176818 C794.183979,177.999624 794.149441,177.862974 794.125415,177.774376 C794.032313,177.425994 793.94822,177.128668 793.873138,176.882398 C793.799557,176.637629 793.706455,176.374841 793.59233,176.098538 C793.481208,175.817729 793.365581,175.589479 793.248452,175.412285 C793.129822,175.23509 792.990169,175.065404 792.824988,174.901724 C792.659806,174.735041 792.479609,174.620916 792.288899,174.547335 C792.096689,174.479761 791.86994,174.440718 791.611656,174.436213 C791.356376,174.428705 791.07707,174.466246 790.775238,174.547335 C790.224134,174.694497 789.793161,174.999331 789.48232,175.464842 C789.171479,175.930353 788.988278,176.4289 788.931215,176.967992 L786.276302,177.673766 L783.146868,165.917365 L792.787446,163.349548 L793.616356,166.465467 L786.800377,168.280959 L788.012206,173.614812 C788.749516,172.863988 789.71958,172.326398 790.920898,172.006547 C791.626673,171.818841 792.276886,171.760277 792.874542,171.832356 C793.472198,171.902934 793.994771,172.077125 794.442262,172.360936 C794.889753,172.640243 795.299703,173.027668 795.667607,173.518707 C796.040016,174.012749 796.352358,174.553342 796.610642,175.14349 C796.867424,175.73664 797.097176,176.409379 797.296895,177.164707 C797.54767,178.097231 797.723363,178.954672 797.826977,179.735529 C797.929089,180.513382 797.94861,181.288232 797.882537,182.052571 C797.816465,182.815408 797.643775,183.488146 797.362967,184.066281 C797.082159,184.647418 796.652688,185.160982 796.074554,185.612978 C795.496419,186.069479 794.775628,186.410353 793.916686,186.640105" id="Fill-33" fill="#221F20"></path>
                    <path d="M806.58744,183.267855 C804.816997,183.73787 803.333369,183.599719 802.136556,182.854901 C800.938241,182.110084 800.101823,180.83969 799.624299,179.048224 L799.41557,178.268869 L802.531489,177.438458 C802.660631,177.92349 802.786769,178.336443 802.906901,178.675816 C803.025531,179.012185 803.180201,179.348554 803.367907,179.678916 C803.558616,180.012282 803.761338,180.263057 803.980579,180.434245 C804.19982,180.606935 804.476123,180.722562 804.803482,180.784129 C805.132343,180.842693 805.498745,180.820169 805.905691,180.71205 C806.309635,180.603931 806.643001,180.441753 806.896779,180.227018 C807.152059,180.009279 807.330755,179.77352 807.438874,179.515237 C807.540986,179.256953 807.595045,178.938604 807.592042,178.555684 C807.59054,178.172764 807.559006,177.806362 807.494435,177.453474 C807.431366,177.100587 807.33526,176.680126 807.206118,176.195094 C806.872753,174.945723 806.375707,174.049239 805.711979,173.502639 C805.051254,172.956039 804.16378,172.834406 803.054062,173.128729 L802.223651,170.01281 C803.360398,169.71248 804.100711,169.266491 804.44609,168.67334 C804.79297,168.080189 804.813994,167.212236 804.510661,166.069482 C804.234357,165.039352 803.857444,164.30805 803.376917,163.875575 C802.897891,163.441599 802.219146,163.340988 801.345187,163.575245 C800.938241,163.683364 800.607878,163.84404 800.351096,164.061779 C800.095816,164.276515 799.915618,164.513775 799.810503,164.770557 C799.705388,165.030342 799.654332,165.348691 799.657335,165.731612 C799.658837,166.116033 799.690371,166.480934 799.75344,166.833821 C799.819513,167.186708 799.914117,167.605668 800.043258,168.0907 L796.928841,168.921112 L796.720112,168.143258 C796.245591,166.3593 796.343198,164.839633 797.014435,163.593265 C797.687173,162.345396 798.902006,161.487955 800.663439,161.019441 C802.430878,160.547923 803.914507,160.687577 805.112821,161.430892 C806.309635,162.177211 807.149056,163.446104 807.623577,165.239071 C807.953939,166.471924 807.946431,167.559117 807.605557,168.496145 C807.264683,169.434675 806.647506,170.183997 805.754025,170.744112 C806.857736,170.814689 807.802273,171.244161 808.580126,172.035529 C809.360983,172.826897 809.940619,173.936615 810.322038,175.364682 C810.865634,177.408425 810.850618,179.114297 810.272483,180.473288 C809.697352,181.835283 808.467503,182.766304 806.58744,183.267855" id="Fill-35" fill="#221F20"></path>
                    <path d="M818.622696,177.325984 C820.181407,176.91153 820.615383,175.405377 819.923123,172.809028 L817.434893,163.46127 C817.319266,163.024291 817.196131,162.636866 817.074497,162.298995 C816.948359,161.962626 816.790686,161.633765 816.59397,161.304904 C816.397254,160.980548 816.185522,160.723766 815.958773,160.530054 C815.729021,160.340846 815.452718,160.210203 815.129863,160.141127 C814.805507,160.07055 814.451119,160.085566 814.062192,160.18918 C813.673265,160.292793 813.354916,160.456473 813.110147,160.678717 C812.863877,160.899459 812.691187,161.150234 812.586072,161.429541 C812.482458,161.708847 812.425396,162.037708 812.419389,162.417625 C812.411881,162.799044 812.435907,163.165446 812.495973,163.518333 C812.557541,163.872722 812.644636,164.267655 812.761765,164.704635 L815.249995,174.052392 C815.386645,174.562953 815.544318,175.02546 815.729021,175.436912 C815.912222,175.848363 816.138971,176.226778 816.407766,176.573659 C816.678062,176.917536 817.002418,177.160803 817.379332,177.298955 C817.754744,177.438608 818.169199,177.446116 818.622696,177.325984 M819.304444,179.881789 C818.119644,180.197135 817.036956,180.18362 816.05638,179.845749 C815.074302,179.507879 814.261911,178.913226 813.614701,178.066297 C812.967491,177.217866 812.47495,176.156201 812.135578,174.881302 L809.645846,165.535046 C809.112761,163.531848 809.147299,161.836487 809.749459,160.44446 C810.35162,159.052432 811.56345,158.116906 813.380444,157.633375 C815.189929,157.151346 816.70359,157.366082 817.922928,158.276081 C819.14527,159.184577 820.019229,160.636671 820.552314,162.630859 L823.039042,171.978617 C823.558613,173.935264 823.51056,175.623116 822.893383,177.040671 C822.277707,178.46123 821.080894,179.40877 819.304444,179.881789" id="Fill-37" fill="#221F20"></path>
                    <path d="M829.535021,165.245979 C830.523105,164.98319 831.164308,164.25339 831.45713,163.064085 L830.626719,159.948165 C830.488567,159.430097 830.327891,158.964586 830.137181,158.553135 C829.952479,158.144686 829.721225,157.766271 829.45243,157.422394 C829.182133,157.077015 828.859279,156.836751 828.483867,156.700101 C828.111458,156.567956 827.698505,156.558946 827.255519,156.676075 C826.806527,156.796207 826.455141,157.006437 826.196858,157.308268 C825.938574,157.613103 825.779399,157.982508 825.71633,158.414983 C825.653261,158.848959 825.644251,159.293447 825.686297,159.746945 C825.728343,160.200442 825.818442,160.683973 825.955092,161.193031 C826.03468,161.502371 826.097749,161.733625 826.139795,161.892799 C826.183343,162.053476 826.249415,162.275719 826.338012,162.564036 C826.428111,162.853854 826.503194,163.074596 826.566263,163.226262 C826.629332,163.379431 826.710421,163.573143 826.812533,163.805899 C826.913144,164.040156 827.010751,164.215848 827.103853,164.334479 C827.196955,164.453109 827.308077,164.592762 827.443225,164.753438 C827.576872,164.912613 827.713522,165.025237 827.854677,165.094312 C827.991327,165.160385 828.147498,165.223454 828.318686,165.280517 C828.491375,165.340583 828.680583,165.363107 828.886309,165.351094 C829.090533,165.340583 829.308272,165.306045 829.535021,165.245979 M832.497772,176.368684 C830.743847,176.835696 829.264724,176.697545 828.058901,175.952728 C826.853078,175.210914 826.010653,173.94052 825.534631,172.149054 L828.65055,171.320144 C828.926853,172.359284 829.302265,173.092088 829.776786,173.52156 C830.251307,173.952533 830.931553,174.048638 831.816024,173.812879 C833.374734,173.399926 833.738133,171.632487 832.909223,168.516568 L832.078812,165.400648 C831.737938,166.60497 830.836949,167.400843 829.378849,167.78977 C828.501887,168.022526 827.713522,168.070578 827.010751,167.930925 C826.309481,167.791272 825.708822,167.477427 825.208773,166.990893 C824.708725,166.499855 824.286762,165.915714 823.941383,165.235467 C823.594502,164.553719 823.297176,163.744331 823.044899,162.801296 C822.773101,161.778674 822.625939,160.817619 822.603414,159.913627 C822.58089,159.012639 822.69051,158.170214 822.932275,157.381849 C823.177044,156.597989 823.603512,155.922248 824.216184,155.353123 C824.83186,154.788503 825.61572,154.377052 826.572269,154.12027 C827.318588,153.922053 828.031871,153.866492 828.706111,153.956591 C829.381852,154.046689 829.987017,154.253917 830.521603,154.581276 C831.05619,154.908635 831.54873,155.34111 831.999225,155.877198 C832.451221,156.411785 832.835642,157.01845 833.155493,157.694192 C833.472341,158.368432 833.739634,159.104239 833.951367,159.900113 L835.817915,166.909805 C836.055175,167.801783 836.220357,168.641204 836.317964,169.428068 C836.415571,170.21343 836.424581,170.989782 836.349498,171.752619 C836.274416,172.515456 836.098723,173.192699 835.82242,173.788853 C835.547618,174.385007 835.128659,174.907581 834.567042,175.361078 C834.005426,175.814576 833.31617,176.150945 832.497772,176.368684" id="Fill-39" fill="#221F20"></path>
                    <path d="M880.218637,129.863553 C874.495857,108.367464 852.429143,95.5794318 830.933055,101.302212" id="Stroke-41" stroke="#221F20" stroke-width="2" stroke-linecap="round"></path>
                    <path d="M865.484169,133.786307 C861.928267,120.427648 848.215219,112.480928 834.85656,116.03683" id="Stroke-43" stroke="#221F20" stroke-width="4" stroke-linecap="round"></path>
                    <path d="M705.176058,248.348519 C710.898838,269.844608 732.965552,282.63264 754.461641,276.90986" id="Stroke-45" stroke="#221F20" stroke-width="2" stroke-linecap="round"></path>
                    <path d="M719.910527,244.425765 C723.466429,257.784424 737.179476,265.731144 750.538135,262.175242" id="Stroke-47" stroke="#221F20" stroke-width="4" stroke-linecap="round"></path>
                    <path d="M162.455467,159.397361 L123.128812,242.491042 C123.128812,242.491042 120.964938,253.013088 132.269343,254.59132 L217.23708,231.956982" id="Stroke-49" stroke="#221F20" stroke-width="4" stroke-linecap="round" stroke-linejoin="round"></path>
                    <path d="M212.37054,208.351229 C218.545316,220.040056 220.737721,229.314233 217.23738,231.957133 C211.91554,235.974041 195.451474,223.137955 180.463527,203.286171 C165.475581,183.434387 157.639982,164.084154 162.961822,160.067246 C166.436635,157.443867 174.662662,162.005873 184.126046,171.01576" id="Stroke-51" stroke="#221F20" stroke-width="4" stroke-linecap="round" stroke-linejoin="round"></path>
                    <g id="Group-56" transform="translate(193.712566, 181.284929)">
                        <path d="M0.801279265,0.884020058 C2.54769565,2.96980885 4.29561369,5.16521793 6.02250866,7.45222753 C7.86653215,9.89540849 9.60243701,12.3295796 11.21821,14.7307144" id="Fill-53" fill="#FEFEFE"></path>
                        <path d="M0.801279265,0.884020058 C2.54769565,2.96980885 4.29561369,5.16521793 6.02250866,7.45222753 C7.86653215,9.89540849 9.60243701,12.3295796 11.21821,14.7307144" id="Stroke-55" stroke="#221F20" stroke-width="4" stroke-linecap="round" stroke-linejoin="round"></path>
                    </g>
                    <path d="M198.495614,209.0995 C198.495614,209.0995 256.54181,164.842936 282.838666,205.250777" id="Stroke-57" stroke="#221F20" stroke-width="2"></path>
                    <path d="M177.971092,182.16114 C177.971092,182.16114 199.136818,180.237529 209.720432,140.14954" id="Stroke-59" stroke="#221F20" stroke-width="2"></path>
                    <path d="M223.073685,173.181737 C223.073685,173.181737 216.000923,150.787663 228.044139,159.162353 C240.087354,167.538544 237.220709,151.515962 237.220709,151.515962 C237.220709,151.515962 229.191398,135.494882 245.250019,146.054469 C261.308641,156.614057 254.998717,138.226379 254.998717,138.226379" id="Stroke-61" stroke="#221F20" stroke-width="2"></path>
                    <path d="M224.814545,238.530746 C224.814545,238.530746 241.765145,222.278412 239.584753,236.78433 C237.405862,251.290247 250.503234,241.628645 250.503234,241.628645 C250.503234,241.628645 261.318101,227.338965 258.954508,246.412895 C256.590914,265.485324 270.288945,251.691187 270.288945,251.691187" id="Stroke-63" stroke="#221F20" stroke-width="2"></path>
                    <path d="M155.950479,102.361174 C155.950479,102.361174 179.428742,102.855216 167.630295,111.57078 C155.830347,120.286343 171.925008,122.717511 171.925008,122.717511 C171.925008,122.717511 189.675986,120.259314 174.518354,132.074279 C159.360721,143.890745 178.801053,143.823171 178.801053,143.823171" id="Stroke-65" stroke="#221F20" stroke-width="2"></path>
                    <mask id="mask-2" fill="white">
                        <use xlink:href="#path-1"></use>
                    </mask>
                    <g id="Clip-68"></g>
                    <polygon id="Fill-67" fill="#221F20" mask="url(#mask-2)" points="209.720131 120.588325 214.851262 120.588325 214.851262 115.457194 209.720131 115.457194"></polygon>
                    <polygon id="Fill-69" fill="#221F20" mask="url(#mask-2)" points="139.166711 120.588325 144.297842 120.588325 144.297842 115.457194 139.166711 115.457194"></polygon>
                    <polygon id="Fill-70" fill="#221F20" mask="url(#mask-2)" points="117.832801 166.286471 122.963932 166.286471 122.963932 161.15534 117.832801 161.15534"></polygon>
                    <polygon id="Fill-71" fill="#221F20" mask="url(#mask-2)" points="274.825723 185.774705 270.886901 182.486097 274.17551 178.547275 278.114332 181.835883"></polygon>
                    <polygon id="Fill-72" fill="#221F20" mask="url(#mask-2)" points="252.932449 218.806452 248.993627 215.517843 252.282236 211.579021 256.221058 214.86763"></polygon>
                    <polygon id="Fill-73" fill="#221F20" mask="url(#mask-2)" points="212.610803 258.205185 208.671981 254.916577 211.96059 250.977754 215.899412 254.266363"></polygon>
                    <polyline id="Stroke-81" stroke="#221F20" stroke-width="4" stroke-linecap="round" stroke-linejoin="round" mask="url(#mask-2)" points="56.5678234 447.064876 5.79410803 447.064876 5.79410803 454.816382"></polyline>
                    <polyline id="Stroke-82" stroke="#221F20" stroke-width="4" stroke-linecap="round" stroke-linejoin="round" mask="url(#mask-2)" points="5.79485885 470.776345 5.79485885 535.823223 103.8885 535.823223 103.8885 491.251313"></polyline>
                    <polyline id="Stroke-83" stroke="#221F20" stroke-width="2" stroke-linecap="round" stroke-linejoin="round" mask="url(#mask-2)" points="1.5016478 461.158291 26.2202722 468.963856 37.2784066 483.122893 56.8523856 504.203025 94.1938614 520.862306"></polyline>
                    <polygon id="Stroke-84" stroke="#221F20" stroke-width="2" stroke-linecap="square" mask="url(#mask-2)" points="69.2034388 481.165496 112.116028 481.165496 112.116028 438.252906 69.2034388 438.252906"></polygon>
                    <polyline id="Stroke-85" stroke="#221F20" stroke-width="2" stroke-linecap="round" stroke-linejoin="round" mask="url(#mask-2)" points="81.5604985 456.927999 83.2213209 456.927999 89.5913109 449.451295 91.8062414 443.081305 97.252718 444.835229 97.8984265 448.805586 95.6204268 454.250561 102.975498 454.435264 106.298644 457.389005 104.839043 462.281373 105.559834 463.665893 104.175314 466.619634 104.453119 469.84217 102.975498 470.774693 103.529606 474.09784 101.221573 475.943365 91.9909441 476.958479 83.3144231 473.728435 81.5604985 473.728435"></polyline>
                    <polyline id="Stroke-86" stroke="#221F20" stroke-width="2" mask="url(#mask-2)" points="81.5604985 461.005574 81.5604985 456.9286 77.0375353 456.9286 77.0375353 461.15724"></polyline>
                    <polyline id="Stroke-87" stroke="#221F20" stroke-width="2" mask="url(#mask-2)" points="77.0373851 468.831561 77.0373851 473.728435 81.5603483 473.728435 81.5603483 468.827056"></polyline>
                    <path d="M83.8219801,464.917817 C83.8219801,467.416558 81.7962572,469.44078 79.2990169,469.44078 C76.800275,469.44078 74.7760537,467.416558 74.7760537,464.917817 C74.7760537,462.419075 76.800275,460.394853 79.2990169,460.394853 C81.7962572,460.394853 83.8219801,462.419075 83.8219801,464.917817 L83.8219801,464.917817 Z" id="Stroke-88" stroke="#221F20" stroke-width="2" mask="url(#mask-2)"></path>
                    <polygon id="Stroke-89" stroke="#221F20" stroke-width="4" mask="url(#mask-2)" points="403.456724 119.27138 559.617583 119.27138 559.617583 3.0032956 403.456724 3.0032956"></polygon>
                    <polygon id="Stroke-90" stroke="#221F20" stroke-width="2" stroke-linecap="round" stroke-linejoin="round" mask="url(#mask-2)" points="410.365805 19.4027912 425.566986 19.4027912 425.566986 12.0492219 410.365805 12.0492219"></polygon>
                    <polygon id="Stroke-91" stroke="#221F20" stroke-width="2" stroke-linecap="round" stroke-linejoin="round" mask="url(#mask-2)" points="430.058414 19.4027912 534.912474 19.4027912 534.912474 12.0492219 430.058414 12.0492219"></polygon>
                    <path d="M403.456273,29.0867677 L559.617133,29.0867677" id="Stroke-92" stroke="#221F20" stroke-width="2" mask="url(#mask-2)"></path>
                    <polygon id="Stroke-93" stroke="#221F20" stroke-width="2" stroke-linecap="round" stroke-linejoin="round" mask="url(#mask-2)" points="448.304486 53.7762601 458.721417 71.8185584 469.138348 89.8608567 448.304486 89.8608567 427.472126 89.8608567 437.887556 71.8185584"></polygon>
                    <path d="M446.405352,84.8746352 L449.983779,84.8746352 L449.983779,81.3637826 L446.405352,81.3637826 L446.405352,84.8746352 Z M447.557116,79.7570195 L446.405352,64.9372574 L450.204521,64.9372574 L448.841025,79.7570195 L447.557116,79.7570195 Z" id="Fill-94" fill="#221F20" mask="url(#mask-2)"></path>
                    <polygon id="Stroke-95" stroke="#221F20" stroke-width="2" stroke-linecap="round" stroke-linejoin="round" mask="url(#mask-2)" points="417.967146 103.712807 541.651869 103.712807 541.651869 45.2101102 417.967146 45.2101102"></polygon>
                    <path d="M482.124298,90.0727392 C478.949814,90.0727392 476.685329,89.1807604 475.330843,87.3937995 C473.976357,85.6083403 473.299114,82.9804566 473.299114,79.5131519 L478.398709,79.5131519 L478.398709,80.3105269 C478.398709,80.98777 478.421234,81.5764159 478.469287,82.0719597 C478.514336,82.5735101 478.607439,83.0840703 478.748593,83.6081454 C478.885243,84.1337221 479.078956,84.5586885 479.323725,84.884546 C479.569995,85.208902 479.906364,85.4776969 480.33133,85.6894293 C480.756297,85.9026632 481.26085,86.0077786 481.844991,86.0077786 C482.310502,86.0077786 482.732465,85.9537193 483.109379,85.839594 C483.490797,85.7269705 483.813651,85.5873172 484.088453,85.4191327 C484.357248,85.255453 484.602017,85.0121861 484.813749,84.6938368 C485.026983,84.3754874 485.204177,84.0796628 485.340827,83.8078646 C485.481982,83.5360663 485.597609,83.1591527 485.690711,82.6816287 C485.783813,82.2026031 485.851387,81.8031648 485.897939,81.4743039 C485.94449,81.1514496 485.982031,80.693447 486.009061,80.1017978 C486.03609,79.5116502 486.049605,79.0536476 486.049605,78.7262884 L486.049605,77.2621818 L486.049605,76.6044601 C486.049605,76.0338339 486.042097,75.5473 486.028582,75.1388518 C486.016569,74.7364102 485.977526,74.2979291 485.920463,73.82491 C485.858896,73.3548943 485.776305,72.9584592 485.67119,72.6401099 C485.564573,72.3217606 485.418913,72.0034112 485.232709,71.6835603 C485.046504,71.3652109 484.821257,71.1129341 484.555465,70.9267298 C484.289674,70.7405254 483.959311,70.5918623 483.570384,70.4777371 C483.175451,70.3666151 482.735468,70.3095525 482.244429,70.3095525 C481.340438,70.3095525 480.556577,70.6008722 479.892849,71.1865148 C479.229121,71.7706558 478.744088,72.4614138 478.439254,73.2572871 L474.094987,73.2572871 L474.094987,54.012169 L489.874302,54.012169 L489.874302,59.1132665 L478.717059,59.1132665 L478.398709,67.7597546 C479.832783,66.9098219 481.532648,66.4848556 483.498305,66.4848556 C484.654574,66.4848556 485.672691,66.6605484 486.558664,67.0104323 C487.438629,67.3648212 488.166928,67.8453485 488.739056,68.4565191 C489.309682,69.0676898 489.776695,69.8245203 490.144599,70.7270106 C490.507997,71.6310026 490.766281,72.5875522 490.919449,73.5966595 C491.071115,74.6057669 491.149201,75.7289994 491.149201,76.9633539 C491.149201,78.4905297 491.069614,79.8720457 490.910439,81.1079018 C490.751264,82.3422563 490.465951,83.5315614 490.052998,84.6743154 C489.641547,85.8155677 489.103957,86.7721173 488.440228,87.5424626 C487.774998,88.312808 486.908548,88.9254803 485.840876,89.3864861 C484.770201,89.8429871 483.532843,90.0727392 482.124298,90.0727392" id="Fill-96" fill="#221F20" mask="url(#mask-2)"></path>
                    <path d="M503.222599,85.8889983 C505.772397,85.8889983 507.047296,83.7641666 507.047296,79.5130017 L507.047296,64.2127123 C507.047296,63.4964263 507.021768,62.8552227 506.967709,62.2921048 C506.915151,61.7274852 506.804029,61.1538557 506.64035,60.5787246 C506.472165,59.9975869 506.252925,59.5170596 505.981126,59.1326378 C505.707826,58.7467143 505.341424,58.4358732 504.875914,58.1956096 C504.411904,57.9568476 503.8608,57.8382174 503.222599,57.8382174 C502.584399,57.8382174 502.033294,57.9568476 501.569285,58.1956096 C501.103774,58.4358732 500.734369,58.7467143 500.464072,59.1326378 C500.189271,59.5170596 499.97003,59.9975869 499.804849,60.5787246 C499.638166,61.1538557 499.530047,61.7274852 499.47749,62.2921048 C499.42343,62.8552227 499.397902,63.4964263 499.397902,64.2127123 L499.397902,79.5130017 C499.397902,80.3509212 499.453463,81.1212665 499.566087,81.8240377 C499.678711,82.5283105 499.870921,83.199547 500.145723,83.8362457 C500.41602,84.474446 500.812455,84.977498 501.330523,85.3393952 C501.848592,85.7072989 502.479284,85.8889983 503.222599,85.8889983 M503.222599,90.072589 C501.283972,90.072589 499.632159,89.6145864 498.273168,88.6985813 C496.909672,87.7810745 495.906571,86.5437167 495.262364,84.982003 C494.618157,83.4232926 494.296805,81.5987905 494.296805,79.5130017 L494.296805,64.2127123 C494.296805,60.9316119 495.041622,58.3532826 496.528253,56.4732195 C498.016386,54.5946582 500.247835,53.653125 503.222599,53.653125 C506.183849,53.653125 508.410793,54.5961598 509.907935,56.4822294 C511.399072,58.3682991 512.148394,60.9451267 512.148394,64.2127123 L512.148394,79.5130017 C512.148394,82.7145148 511.387058,85.276326 509.867391,87.1954318 C508.34472,89.1145377 506.131291,90.072589 503.222599,90.072589" id="Fill-97" fill="#221F20" mask="url(#mask-2)"></path>
                    <path d="M524.898735,85.8889983 C527.448533,85.8889983 528.723432,83.7641666 528.723432,79.5130017 L528.723432,64.2127123 C528.723432,63.4964263 528.697904,62.8552227 528.643845,62.2921048 C528.591287,61.7274852 528.480165,61.1538557 528.316486,60.5787246 C528.148301,59.9975869 527.92906,59.5170596 527.657262,59.1326378 C527.383962,58.7467143 527.01756,58.4358732 526.552049,58.1956096 C526.08804,57.9568476 525.536935,57.8382174 524.898735,57.8382174 C524.260535,57.8382174 523.70943,57.9568476 523.245421,58.1956096 C522.77991,58.4358732 522.410505,58.7467143 522.140208,59.1326378 C521.865407,59.5170596 521.646166,59.9975869 521.480985,60.5787246 C521.314302,61.1538557 521.206183,61.7274852 521.153626,62.2921048 C521.099566,62.8552227 521.074038,63.4964263 521.074038,64.2127123 L521.074038,79.5130017 C521.074038,80.3509212 521.129599,81.1212665 521.242223,81.8240377 C521.354846,82.5283105 521.547057,83.199547 521.821859,83.8362457 C522.092155,84.474446 522.48859,84.977498 523.006659,85.3393952 C523.524727,85.7072989 524.15542,85.8889983 524.898735,85.8889983 M524.898735,90.072589 C522.960108,90.072589 521.308295,89.6145864 519.949304,88.6985813 C518.585808,87.7810745 517.582707,86.5437167 516.9385,84.982003 C516.294293,83.4232926 515.972941,81.5987905 515.972941,79.5130017 L515.972941,64.2127123 C515.972941,60.9316119 516.717758,58.3532826 518.204389,56.4732195 C519.692522,54.5946582 521.923971,53.653125 524.898735,53.653125 C527.859985,53.653125 530.086928,54.5961598 531.584071,56.4822294 C533.075207,58.3682991 533.82453,60.9451267 533.82453,64.2127123 L533.82453,79.5130017 C533.82453,82.7145148 533.063194,85.276326 531.543527,87.1954318 C530.020856,89.1145377 527.807427,90.072589 524.898735,90.072589" id="Fill-98" fill="#221F20" mask="url(#mask-2)"></path>
                    <polygon id="Stroke-99" stroke="#221F20" stroke-width="4" mask="url(#mask-2)" points="968.828321 484.729506 968.828321 464.979835 953.383873 464.979835 953.383873 449.535387 933.634201 449.535387 933.634201 464.979835 914.491195 464.979835 914.491195 449.535387 894.741523 449.535387 894.741523 464.979835 879.297076 464.979835 879.297076 484.729506 894.741523 484.729506 894.741523 503.872513 879.297076 503.872513 879.297076 523.622184 894.741523 523.622184 894.741523 539.066632 914.491195 539.066632 914.491195 523.622184 933.634201 523.622184 933.634201 539.066632 953.383873 539.066632 953.383873 523.622184 968.828321 523.622184 968.828321 503.872513 953.383873 503.872513 953.383873 484.729506"></polygon>
                    <polygon id="Stroke-100" stroke="#221F20" stroke-width="3" mask="url(#mask-2)" points="914.491496 503.871912 933.634502 503.871912 933.634502 484.728906 914.491496 484.728906"></polygon>
                </g>
            </g>
            <g id="Cog4.0" transform="translate(354.347035, 348.251619)">
                <path d="M215.427584,15.5596288 C271.584028,15.5596288 320.300408,26.2074071 333.917837,29.4731039 L333.917837,105.753038 L98.545824,105.753038 L98.545824,29.4478983 C111.897257,26.1648727 159.385362,15.5596288 215.427584,15.5596288" id="Fill-1-Copy" fill="#C8C9C4"></path>
                <polygon id="Fill-3" fill="#C8C8C4" points="137.376542 110.951687 295.91953 110.951687 295.91953 280.088943 137.376542 280.088943"></polygon>
                <path d="M149.601404,34.8355891 C134.846451,34.8355891 122.884456,47.2729629 122.884456,62.6152787 C122.884456,77.9575946 134.846451,90.3933931 149.601404,90.3933931 C164.357922,90.3933931 176.318353,77.9575946 176.318353,62.6152787 C176.318353,47.2729629 164.357922,34.8355891 149.601404,34.8355891" id="Fill-4" fill="#8E8F8B"></path>
                <path d="M282.904504,35.0529871 C268.265337,35.0529871 256.397223,47.3926893 256.397223,62.6152787 C256.397223,77.8362928 268.265337,90.175995 282.904504,90.175995 C297.54367,90.175995 309.411785,77.8362928 309.411785,62.6152787 C309.411785,47.3926893 297.54367,35.0529871 282.904504,35.0529871" id="Fill-5" fill="#8E8F8B"></path>
                <path d="M61.2438005,203.122158 L61.2093775,203.207226 L37.5482533,193.704726 L37.5576414,193.685822 C42.5411542,182.552836 46.5389172,174.609931 51.0013908,167.687851 L70.8556432,182.678864 C67.1489111,188.400529 64.6688898,194.271852 61.2438005,203.122158" id="Fill-7" fill="#C8C8C4"></path>
                <path d="M71.8163581,181.238996 L51.9511529,166.238531 C56.7891502,158.99508 62.274926,152.737797 70.1640537,144.843727 L82.0243447,169.045801 L81.6597737,169.430186 C77.4210497,173.893148 74.3308023,177.584188 71.8163581,181.238996" id="Fill-8" fill="#C8C8C4"></path>
                <path d="M61.2438005,203.122158 L61.2093775,203.207226 L57.4275406,201.688591 C57.4275406,201.688591 61.9557309,188.493474 67.7919954,180.366253 C69.4427352,181.612354 70.8556432,182.678864 70.8556432,182.678864 C67.1489111,188.400529 64.6688898,194.271852 61.2438005,203.122158" id="Fill-9" fill="#A0A19D"></path>
                <path d="M71.8163581,181.238996 L51.9511529,166.238531 C52.2515719,165.789557 52.9134325,164.828594 53.2185455,164.385921 C58.2505634,168.051757 68.5414782,176.193156 69.832341,177.121036 C72.4203254,173.663147 80.2077487,165.337432 80.2077487,165.337432 L82.0243447,169.045801 L81.6597737,169.430186 C77.4210497,173.893148 74.3308023,177.584188 71.8163581,181.238996" id="Fill-10" fill="#A0A19D"></path>
                <path d="M349.874466,168.432991 L361.841156,144.018245 C369.627014,151.800465 375.178507,157.890761 380.113514,165.003458 L360.080888,180.129951 C357.369294,176.538157 354.191424,172.976295 350.156109,168.729156 L349.874466,168.432991" id="Fill-13" fill="#C8C8C4"></path>
                <path d="M349.874466,168.432991 L352.196455,163.697494 L362.553086,176.038772 C368.254788,172.131908 374.452494,167.374357 379.202869,163.711672 C379.509547,164.138592 379.813095,164.568662 380.113514,165.003458 L360.080888,180.129951 C357.369294,176.538157 354.191424,172.976295 350.156109,168.729156 L349.874466,168.432991" id="Fill-14" fill="#A0A19D"></path>
                <path d="M361.090108,181.500504 L381.072665,166.410244 C385.624325,173.206296 389.730051,181.057831 394.719823,192.198693 L371.798793,202.373867 L371.784711,202.33921 C368.250094,193.206916 365.19114,187.201689 361.090108,181.500504" id="Fill-15" fill="#C8C8C4"></path>
                <path d="M361.090108,181.500504 L364.449481,178.964193 C364.449481,178.964193 372.301056,192.066364 374.990745,198.997896 C380.113514,196.940491 387.918149,192.827257 394.029798,190.66903 C394.19409,191.03136 394.553966,191.828487 394.719823,192.198693 L371.798793,202.373867 L371.784711,202.33921 C368.250094,193.206916 365.19114,187.201689 361.090108,181.500504" id="Fill-16" fill="#A0A19D"></path>
                <path d="M345.211713,62.218291 C345.211713,78.8130086 344.634346,83.6304234 338.99836,84.4054947 L338.99836,40.029512 C344.634346,40.8045833 345.211713,45.6235733 345.211713,62.218291" id="Fill-17" fill="#3483AA"></path>
                <path d="M345.156949,68.9324249 C344.923812,80.1709588 343.786288,83.7469991 338.99836,84.4054947 L338.99836,75.5378598 C341.323478,75.2133381 343.25899,73.6978531 345.156949,68.9324249" id="Fill-18" fill="#2A637F"></path>
                <path d="M215.427584,4.24547824 C236.513241,4.24547824 245.963922,4.54794509 247.212538,11.506258 C237.045233,10.8430364 226.388183,10.4444733 215.427584,10.4444733 C204.426303,10.4444733 193.772382,10.8461871 183.641065,11.5141347 C184.884988,4.54794509 194.334103,4.24547824 215.427584,4.24547824" id="Fill-19" fill="#3483AA"></path>
                <path d="M190.035921,11.1329005 C187.882919,11.2479009 185.751821,11.3755041 183.641065,11.5141347 C184.374901,7.40877737 187.958023,5.6176065 195.092974,4.8393845 C191.753942,6.8243232 190.711864,8.98885159 190.035921,11.1329005" id="Fill-20" fill="#2B637F"></path>
                <path d="M87.901291,62.218291 C87.901291,46.2867949 88.4364123,41.2110231 93.4653009,40.1445124 L93.4653009,84.2920696 C88.4364123,83.2239835 87.901291,78.1497871 87.901291,62.218291" id="Fill-21" fill="#3483AA"></path>
                <path d="M93.4653009,76.5130003 L93.4653009,84.2920696 C89.5535954,83.4618611 88.3613076,80.2087671 88.0233362,71.3096253 C89.9369426,74.7076513 91.3795795,75.8088197 93.4653009,76.5130003" id="Fill-22" fill="#2B637F"></path>
                <path d="M69.832341,227.610945 C69.7885299,238.750232 64.2292141,249.268832 55.6203326,255.14488 L55.7251664,222.111404 L20.8781292,221.974349 L20.7842483,254.733714 C11.5510586,248.867118 5.81649837,238.559615 5.86030947,227.358889 C5.92289676,210.803555 18.7924078,196.760902 35.1574189,195.391924 L36.7690416,195.25802 L61.0044041,204.990521 L61.5223139,205.782921 C65.4089845,211.720408 69.8636347,219.565642 69.832341,227.610945" id="Fill-23" fill="#3483AA"></path>
                <path d="M85.1036393,168.866212 L83.4169119,167.971414 L71.3626002,143.372352 L71.3626002,142.430294 C71.3626002,126.946197 81.4845293,113.866081 93.4653009,113.866081 L93.4653009,170.981904 C90.5972384,170.980329 87.7557756,170.276148 85.1036393,168.866212" id="Fill-24" fill="#3483AA"></path>
                <path d="M85.1036393,168.866212 L83.4169119,167.971414 L71.3626002,143.372352 L71.3626002,142.430294 C71.3626002,140.494191 71.5206331,138.597472 71.8210521,136.757465 C80.2280895,137.809798 90.7443186,142.772144 93.4653009,157.643431 L93.4653009,170.981904 C90.5972384,170.980329 87.7557756,170.276148 85.1036393,168.866212" id="Fill-25" fill="#2B637F"></path>
                <path d="M339.607022,170.364368 C339.403613,170.364368 339.201769,170.354916 338.99836,170.348614 L338.99836,113.530532 C339.201769,113.522655 339.403613,113.510052 339.607022,113.510052 C351.306151,113.510052 360.824112,126.262496 360.824112,141.93721 L360.824112,142.236526 L348.417747,167.552371 L347.133143,168.234497 C344.535771,169.616077 342.565836,170.364368 339.607022,170.364368" id="Fill-26" fill="#3483AA"></path>
                <path d="M339.607022,170.364368 C339.403613,170.364368 339.201769,170.354916 338.99836,170.348614 L338.99836,130.589977 C347.131578,130.585251 356.740292,136.798424 358.777508,146.414349 C357.704136,148.547371 348.417747,167.552371 348.417747,167.552371 L347.133143,168.234497 C344.535771,169.616077 342.565836,170.364368 339.607022,170.364368" id="Fill-27" fill="#2A637F"></path>
                <path d="M410.374468,258.799688 L406.290648,249.810751 L418.997432,232.831649 L410.149154,211.851162 L387.678753,209.076974 L374.055065,227.281697 L382.903343,248.260609 L403.974918,250.863084 L408.024315,259.776404 C407.435995,259.992227 406.841416,260.197022 406.235884,260.382913 C397.595709,263.029498 388.450141,262.131549 380.481215,257.852904 C372.512288,253.574258 366.674459,246.428479 364.045793,237.729406 C360.556552,226.191556 363.269711,213.949526 371.304354,204.982644 L372.088259,204.108326 L395.444271,193.740959 L397.019906,193.770891 C411.709142,194.041851 424.455043,203.739694 428.736014,217.902074 C433.728915,234.416449 425.587873,251.852403 410.374468,258.799688" id="Fill-28" fill="#3483AA"></path>
                <polygon id="Fill-29" fill="#8E8F8C" points="98.1562181 110.951687 133.99057 110.951687 133.99057 280.088943 98.1562181 280.088943"></polygon>
                <polygon id="Fill-30" fill="#8E8F8C" points="299.307067 110.951687 334.309008 110.951687 334.309008 280.088943 299.307067 280.088943"></polygon>
                <path d="M149.601404,40.7021856 C161.176923,40.7021856 170.594745,50.5323582 170.594745,62.6152787 C170.594745,74.6966239 161.176923,84.5267965 149.601404,84.5267965 C138.025885,84.5267965 128.609628,74.6966239 128.609628,62.6152787 C128.609628,50.5323582 138.025885,40.7021856 149.601404,40.7021856" id="Fill-37-Copy" fill="#4C4C49"></path>
                <path d="M164.536296,77.9985536 C160.727859,82.0267189 155.439233,84.5267965 149.601404,84.5267965 C138.025885,84.5267965 128.609628,74.6966239 128.609628,62.6152787 C128.609628,56.5738185 130.96291,51.0963329 134.765087,47.1280308 C134.765087,65.1783702 145.052873,77.9985536 164.536296,77.9985536" id="Fill-38-Copy" fill="#393A38"></path>
                <path d="M282.904504,40.7021856 C294.480023,40.7021856 303.897845,50.5323582 303.897845,62.6152787 C303.897845,74.6966239 294.480023,84.5267965 282.904504,84.5267965 C271.328985,84.5267965 261.911163,74.6966239 261.911163,62.6152787 C261.911163,50.5323582 271.328985,40.7021856 282.904504,40.7021856" id="Fill-39-Copy" fill="#4C4C49"></path>
                <path d="M297.742385,78.1025266 C293.940207,82.0692533 288.692263,84.5267965 282.904504,84.5267965 C271.328985,84.5267965 261.911163,74.6966239 261.911163,62.6152787 C261.911163,56.2272419 264.542958,50.4693443 268.734742,46.4616586 C268.734742,66.3331004 276.855442,78.1025266 297.742385,78.1025266" id="Fill-40-Copy" fill="#393A38"></path>
                <path d="M116.134417,133.622522 C111.391865,133.622522 107.533359,137.653838 107.533359,142.608308 C107.533359,147.562778 111.391865,151.59567 116.134417,151.59567 C120.878533,151.59567 124.737039,147.562778 124.737039,142.608308 C124.737039,137.653838 120.878533,133.622522 116.134417,133.622522" id="Fill-41-Copy" fill="#4C4C49"></path>
                <path d="M316.371491,133.622522 C311.628939,133.622522 307.768868,137.653838 307.768868,142.608308 C307.768868,147.562778 311.628939,151.59567 316.371491,151.59567 C321.115608,151.59567 324.974114,147.562778 324.974114,142.608308 C324.974114,137.653838 321.115608,133.622522 316.371491,133.622522" id="Fill-43-Copy" fill="#4C4C49"></path>
                <path d="M110.216788,136.091093 C108.564484,137.73103 107.533359,140.046792 107.533359,142.608308 C107.533359,147.562778 111.391865,151.59567 116.134417,151.59567 C118.396947,151.59567 120.459198,150.677242 121.997281,149.179085 C115.294182,149.144428 110.346657,143.843381 110.216788,136.091093" id="Fill-45-Copy" fill="#393A38"></path>
                <path d="M310.12528,136.434519 C308.665431,138.0461 307.768868,140.22008 307.768868,142.608308 C307.768868,147.562778 311.628939,151.59567 316.371491,151.59567 C318.610551,151.59567 320.652462,150.696146 322.18585,149.226346 C314.000998,149.226346 310.12528,145.678662 310.12528,136.434519" id="Fill-47-Copy" fill="#393A38"></path>
                <path d="M199.192442,264.147995 C204.279223,265.405123 208.993611,265.969098 214.366729,265.969098 L215.648204,265.969098 C221.019758,265.969098 225.734146,265.405123 230.822492,264.147995 L232.998965,254.659673 C233.055294,254.183918 233.200809,253.393093 233.576333,252.873228 C234.048867,252.219459 234.770185,251.983157 235.248978,251.825622 L235.366329,251.786238 C237.680494,251.001715 239.975883,250.032875 242.191473,248.904926 L248.068419,245.401352 C250.515582,243.846483 252.861041,242.067915 255.009349,240.130237 L255.098536,240.048319 C255.447461,239.725372 256.032652,239.186603 256.832204,239.095233 C257.464336,239.024342 258.220077,239.284275 258.659753,239.470166 L267.933624,242.236477 C271.527699,238.398929 274.337869,234.545628 276.983746,229.838487 L277.614313,228.716839 C280.261755,224.009699 282.097128,219.601875 283.517859,214.524528 L276.387602,207.941148 C276.054325,207.695393 275.398723,207.156624 275.128033,206.556417 C274.794756,205.819154 274.954353,205.036206 275.048234,204.569903 L275.071705,204.448601 C275.531721,202.038318 275.825881,199.553994 275.943233,197.063369 L275.721048,190.766702 C275.61152,187.820801 275.259466,184.885927 274.671146,182.043999 L274.646111,181.921122 C274.544407,181.456394 274.375421,180.678172 274.696181,179.939334 C274.952789,179.348578 275.556756,178.822412 275.936974,178.532548 L282.962397,171.842044 C281.46969,166.789903 279.567037,162.408859 276.849184,157.742678 L276.201405,156.628907 C273.483552,151.962726 270.61549,148.153534 266.965086,144.371123 L257.735026,147.279216 C257.29848,147.471408 256.541173,147.747094 255.912171,147.682505 C255.112619,147.602162 254.521169,147.072845 254.16755,146.757775 L254.075234,146.674282 C252.221086,145.053249 250.216728,143.54249 248.118489,142.182964 L243.138106,139.375694 C240.576721,137.990963 237.882338,136.812602 235.151968,135.884722 L235.034617,135.846914 C234.583988,135.698831 233.832941,135.451501 233.360407,134.799307 C232.983318,134.277867 232.837803,133.487042 232.783039,133.011287 L230.605001,123.522965 C225.518219,122.265837 220.803832,121.701863 215.430713,121.701863 L214.149239,121.701863 C208.777685,121.701863 204.063297,122.265837 198.974951,123.522965 L196.798478,133.011287 C196.742149,133.487042 196.596634,134.277867 196.22111,134.797732 C195.747011,135.453077 194.994399,135.698831 194.545335,135.846914 L194.427984,135.884722 C192.104431,136.673972 189.79496,137.650688 187.566853,138.784938 L181.729024,142.269608 C179.280296,143.826052 176.934837,145.60462 174.788093,147.540723 L174.695777,147.625792 C174.346853,147.947163 173.763226,148.484357 172.965239,148.575727 C172.329978,148.652919 171.575801,148.386685 171.13769,148.200794 L161.863818,145.434483 C158.269743,149.272031 155.461139,153.125333 152.813697,157.830898 L152.18313,158.954121 C149.535687,163.662837 147.700315,168.070661 146.281148,173.146433 L153.408276,179.728237 C153.793188,180.0118 154.404978,180.528514 154.66941,181.114544 C155.002687,181.850231 154.844654,182.631604 154.749208,183.099482 L154.725738,183.220784 C154.265722,185.631067 153.973126,188.115391 153.85421,190.607592 L154.076395,196.904258 C154.185923,199.851735 154.539541,202.786608 155.126297,205.626961 L155.151332,205.748263 C155.253036,206.212991 155.422022,206.991213 155.101262,207.731626 C154.844654,208.323957 154.240687,208.850124 153.862034,209.138412 L146.833481,215.828916 C148.329317,220.882633 150.230406,225.262101 152.948259,229.928282 L153.596038,231.042053 C156.313891,235.708235 159.181953,239.517426 162.830792,243.299837 L172.062417,240.391745 C172.498963,240.199552 173.250011,239.927017 173.886836,239.990031 C174.684824,240.067223 175.277839,240.599691 175.633022,240.916336 L175.723773,240.996678 C177.577922,242.617712 179.580715,244.128471 181.678954,245.487996 L186.659337,248.295266 C189.222287,249.681573 191.915105,250.859933 194.645475,251.784663 L194.764391,251.825622 C195.243184,251.983157 195.966067,252.219459 196.437036,252.871653 C196.814125,253.393093 196.95964,254.183918 197.014404,254.659673 L199.192442,264.147995" id="Fill-49-Copy" fill="#DDDCD8"></path>
                <path d="M116.134417,105.753038 L121.997281,105.753038 L121.997281,24.4508939 C119.941288,24.8337035 117.985436,25.2102117 116.134417,25.5772678 L116.134417,105.753038" id="Fill-50-Copy" fill="#A0A19D"></path>
                <path d="M108.902455,27.0722733 C104.44937,28.0316603 100.944482,28.8571427 98.545824,29.4478983 L98.545824,105.753038 L108.902455,105.753038 L108.902455,27.0722733" id="Fill-51-Copy" fill="#A0A19D"></path>
                <path d="M403.904507,194.608976 L392.05204,209.615743 L410.149154,211.851162 L412.918641,218.420364 L422.902878,206.669842 C418.158762,200.62208 411.477569,196.333982 403.904507,194.608976" id="Fill-61-Copy" fill="#2A637F"></path>
                <path d="M20.7842483,254.733714 L20.8781292,222.335104 L7.90065505,238.765985 C10.3321712,245.302105 14.8228091,250.946577 20.7842483,254.733714" id="Fill-64-Copy" fill="#2B637F"></path>
                <path d="M61.5223139,205.782921 L61.0044041,204.990521 L40.9404843,196.932615 L21.1629013,221.974349 L48.6778377,222.083048 L61.9557309,206.454019 C61.8117801,206.23032 61.6662647,206.001894 61.5223139,205.782921" id="Fill-66-Copy" fill="#2B637F"></path>
                <path d="M259.177663,185.194695 C266.218733,181.101941 268.631473,172.038963 264.566428,164.949896 C260.501384,157.860829 251.498203,155.433218 244.458697,159.524397 C239.504914,162.404133 236.855907,167.744564 237.128161,173.125953 L186.383953,202.622772 C181.832293,199.689474 175.852077,199.360226 170.870129,202.301401 C165.716066,205.343399 163.074882,211.030405 163.616262,216.648097 L174.160656,210.423896 L180.402173,213.996786 L180.450678,221.227634 L169.906285,227.450259 C174.50958,230.670271 180.729192,231.127122 185.883255,228.085125 C190.890238,225.131347 193.525163,219.680642 193.176238,214.222061 L243.814048,184.78668 C248.307816,187.713677 254.225444,188.074432 259.177663,185.194695 L259.177663,185.194695 Z M251.818962,179.589607 L245.599351,175.974183 L245.599351,168.74491 L251.817398,165.129486 L258.03701,168.74491 L258.03701,175.975758 L251.818962,179.589607 L251.818962,179.589607 Z" id="Fill-67-Copy" fill="#3D95BC"></path>
                <path d="M185.568754,159.631521 C178.527684,155.538766 169.524502,157.967953 165.459458,165.05702 C161.394414,172.146086 163.807154,181.209065 170.848224,185.301819 C175.800443,188.181556 181.718071,187.820801 186.211838,184.892229 L236.956046,214.390623 C236.708827,219.825574 239.415727,225.203813 244.435227,228.077248 C249.628407,231.04993 255.84176,230.509586 260.402809,227.229711 L249.778617,221.147291 L249.730112,213.918019 L255.926253,210.261636 L266.550445,216.342479 C267.018285,210.718486 264.301997,205.067713 259.108817,202.095031 C254.064281,199.207417 248.057466,199.634337 243.5371,202.666882 L192.897725,173.231501 C193.16998,167.850112 190.520973,162.511257 185.568754,159.631521 L185.568754,159.631521 Z M184.426536,168.852033 L184.426536,176.081306 L178.208489,179.69673 L171.988877,176.081306 L171.988877,168.852033 L178.208489,165.236609 L184.426536,168.852033 L184.426536,168.852033 Z" id="Fill-68-Copy" fill="#2E7893"></path>
                <path d="M221.608079,222.758873 L221.608079,163.888111 C226.47737,161.462075 229.847695,156.439865 229.886812,150.596899 C229.925929,144.582219 226.422606,139.388297 221.351471,136.984315 L221.270107,149.28936 L215.02859,152.862249 L208.834013,149.205866 L208.913812,136.900822 C203.811383,139.237063 200.240779,144.383726 200.201662,150.398405 C200.162544,156.213015 203.43586,161.262006 208.23474,163.765234 L208.23474,222.758873 C203.470283,225.21169 200.200097,230.191365 200.200097,235.949263 C200.200097,244.134772 206.790538,250.770138 214.920627,250.770138 C223.050716,250.770138 229.641157,244.134772 229.641157,235.949263 C229.641157,230.191365 226.372536,225.21169 221.608079,222.758873 L221.608079,222.758873 Z M221.140239,239.564687 L214.920627,243.180111 L208.70258,239.564687 L208.70258,232.335414 L214.920627,228.71999 L221.140239,232.335414 L221.140239,239.564687 L221.140239,239.564687 Z" id="Fill-69-Copy" fill="#25627F"></path>
                <path d="M149.601404,40.7021856 C161.176923,40.7021856 170.594745,50.5323582 170.594745,62.6152787 C170.594745,74.6966239 161.176923,84.5267965 149.601404,84.5267965 C138.025885,84.5267965 128.609628,74.6966239 128.609628,62.6152787 C128.609628,50.5323582 138.025885,40.7021856 149.601404,40.7021856 M149.601404,38.1028612 C136.581683,38.1028612 126.027902,49.0783119 126.027902,62.6152787 C126.027902,76.1522456 136.581683,87.1261209 149.601404,87.1261209 C162.621125,87.1261209 173.176471,76.1522456 173.176471,62.6152787 C173.176471,49.0783119 162.621125,38.1028612 149.601404,38.1028612" id="Fill-70-Copy" fill="#0B0B0A"></path>
                <path d="M282.904504,40.7021856 C294.480023,40.7021856 303.897845,50.5323582 303.897845,62.6152787 C303.897845,74.6966239 294.480023,84.5267965 282.904504,84.5267965 C271.328985,84.5267965 261.911163,74.6966239 261.911163,62.6152787 C261.911163,50.5323582 271.328985,40.7021856 282.904504,40.7021856 M282.904504,38.1028612 C269.884783,38.1028612 259.331002,49.0783119 259.331002,62.6152787 C259.331002,76.1522456 269.884783,87.1261209 282.904504,87.1261209 C295.924224,87.1261209 306.47957,76.1522456 306.47957,62.6152787 C306.47957,49.0783119 295.924224,38.1028612 282.904504,38.1028612" id="Fill-71-Copy" fill="#0B0B0A"></path>
                <path d="M116.134417,154.194994 C109.968004,154.194994 104.951633,148.996345 104.951633,142.608308 C104.951633,136.220271 109.968004,131.023198 116.134417,131.023198 C122.300829,131.023198 127.318765,136.220271 127.318765,142.608308 C127.318765,148.996345 122.300829,154.194994 116.134417,154.194994 L116.134417,154.194994 Z M116.134417,133.622522 C111.391865,133.622522 107.533359,137.653838 107.533359,142.608308 C107.533359,147.562778 111.391865,151.59567 116.134417,151.59567 C120.878533,151.59567 124.737039,147.562778 124.737039,142.608308 C124.737039,137.653838 120.878533,133.622522 116.134417,133.622522 L116.134417,133.622522 Z" id="Fill-72-Copy" fill="#0B0B0A"></path>
                <path d="M316.371491,154.194994 C310.205079,154.194994 305.187143,148.996345 305.187143,142.608308 C305.187143,136.220271 310.205079,131.023198 316.371491,131.023198 C322.537904,131.023198 327.555839,136.220271 327.555839,142.608308 C327.555839,148.996345 322.537904,154.194994 316.371491,154.194994 L316.371491,154.194994 Z M316.371491,133.622522 C311.628939,133.622522 307.768868,137.653838 307.768868,142.608308 C307.768868,147.562778 311.628939,151.59567 316.371491,151.59567 C321.115608,151.59567 324.974114,147.562778 324.974114,142.608308 C324.974114,137.653838 321.115608,133.622522 316.371491,133.622522 L316.371491,133.622522 Z" id="Fill-74-Copy" fill="#0B0B0A"></path>
                <path d="M433.599046,216.411795 C428.831459,200.644135 414.941775,189.687588 398.733233,188.717174 C388.267073,165.594213 381.102394,156.107467 365.893683,140.859672 C365.444619,122.861319 353.825289,108.393321 339.607022,108.393321 C339.403613,108.393321 339.201769,108.407499 338.99836,108.413801 L338.99836,89.6293492 C350.367341,88.5565371 350.375165,77.9134848 350.375165,62.218291 C350.375165,46.5215218 350.367341,35.8800449 338.99836,34.8072328 L338.99836,25.4685688 C338.99836,25.4685688 301.694772,15.4761354 251.319829,11.7898206 C250.679874,4.75589105 245.353696,2.62602032 241.285522,1.63827701 C235.347553,0.195258089 226.557168,0.195258089 215.427584,0.195258089 C204.298,0.195258089 195.507615,0.195258089 189.569646,1.63827701 C185.499908,2.62759567 180.172165,4.75904174 179.535339,11.8008481 C129.6298,15.4950395 93.4653009,25.4685688 93.4653009,25.4685688 L93.4653009,34.8781235 C82.7456632,36.2943615 82.7378398,46.825564 82.7378398,62.218291 C82.7378398,77.6094426 82.7456632,88.1422205 93.4653009,89.5568832 L93.4653009,108.037293 C78.6806188,108.037293 66.1381264,123.100772 65.5920523,141.199947 C49.8701256,156.992812 43.4517992,166.536272 32.9637345,189.767931 C14.4566735,192.190817 0.144525412,208.366492 0.0709853487,227.336834 C0.0115274252,242.406615 8.81130009,256.107418 22.4866225,262.243399 L26.5469728,264.064502 L26.6502418,227.825192 L49.917066,227.916562 L49.7997149,264.680463 L53.9163937,262.780593 C67.0425127,256.720228 75.5622072,242.923329 75.6216652,227.633 C75.6560882,218.63146 71.2937542,210.307321 67.17864,203.846818 C72.5595821,190.057795 75.3775747,184.706337 84.4136144,174.980138 C87.3098412,176.201033 90.3766183,176.813843 93.4653009,176.813843 L93.4653009,303.289096 L72.7723789,303.289096 L72.7723789,348.340903 L359.828974,348.340903 L359.828974,303.289096 L338.99836,303.289096 L338.99836,175.465345 C339.201769,175.470071 339.403613,175.482674 339.607022,175.482674 C342.845914,175.482674 345.275865,174.792671 347.771533,173.630064 C357.07044,183.539004 361.215283,189.451286 366.489827,202.764554 C358.060884,212.95233 355.325819,226.459365 359.182761,239.219686 C362.207291,249.226297 368.922907,257.446464 378.09038,262.369427 C383.8046,265.43663 390.042988,266.993074 396.340833,266.993074 C400.146141,266.993074 403.973353,266.424373 407.717638,265.27752 C428.233751,258.990305 439.843693,237.069335 433.599046,216.411795 L433.599046,216.411795 Z M219.195339,286.057937 L334.307443,286.057937 L334.307443,293.208443 L219.195339,293.208443 L219.195339,286.057937 Z M137.376542,110.951687 L295.91953,110.951687 L295.91953,280.088943 L137.376542,280.088943 L137.376542,110.951687 Z M98.1562181,110.951687 L133.99057,110.951687 L133.99057,280.088943 L98.1562181,280.088943 L98.1562181,110.951687 Z M98.1562181,286.057937 L213.268323,286.057937 L213.268323,293.208443 L98.1562181,293.208443 L98.1562181,286.057937 Z M299.307067,110.951687 L334.309008,110.951687 L334.309008,280.088943 L299.307067,280.088943 L299.307067,110.951687 Z M345.211713,62.218291 C345.211713,78.8130086 344.634346,83.6304234 338.99836,84.4054947 L338.99836,40.029512 C344.634346,40.8045833 345.211713,45.6235733 345.211713,62.218291 L345.211713,62.218291 Z M215.427584,4.24547824 C236.513241,4.24547824 245.963922,4.54794509 247.212538,11.506258 C237.045233,10.8430364 226.388183,10.4444733 215.427584,10.4444733 C204.426303,10.4444733 193.772382,10.8461871 183.641065,11.5141347 C184.884988,4.54794509 194.334103,4.24547824 215.427584,4.24547824 L215.427584,4.24547824 Z M215.427584,15.5596288 C271.584028,15.5596288 320.300408,26.2074071 333.917837,29.4731039 L333.917837,105.753038 L98.545824,105.753038 L98.545824,29.4478983 C111.897257,26.1648727 159.385362,15.5596288 215.427584,15.5596288 L215.427584,15.5596288 Z M87.901291,62.218291 C87.901291,46.2867949 88.4364123,41.2110231 93.4653009,40.1445124 L93.4653009,84.2920696 C88.4364123,83.2239835 87.901291,78.1497871 87.901291,62.218291 L87.901291,62.218291 Z M69.832341,227.610945 C69.7885299,238.750232 64.2292141,249.268832 55.6203326,255.14488 L55.7251664,222.111404 L20.8781292,221.974349 L20.7842483,254.733714 C11.5510586,248.867118 5.81649837,238.559615 5.86030947,227.358889 C5.92289676,210.803555 18.7924078,196.760902 35.1574189,195.391924 L36.7690416,195.25802 L61.0044041,204.990521 L61.5223139,205.782921 C65.4089845,211.720408 69.8636347,219.565642 69.832341,227.610945 L69.832341,227.610945 Z M61.2438005,203.122158 L61.2093775,203.207226 L37.5482533,193.704726 L37.5576414,193.685822 C42.5411542,182.552836 46.5389172,174.609931 51.0013908,167.687851 L70.8556432,182.678864 C67.1489111,188.400529 64.6688898,194.271852 61.2438005,203.122158 L61.2438005,203.122158 Z M71.8163581,181.238996 L51.9511529,166.238531 C56.7891502,158.99508 62.274926,152.737797 70.1640537,144.843727 L82.0243447,169.045801 L81.6597737,169.430186 C77.4210497,173.893148 74.3308023,177.584188 71.8163581,181.238996 L71.8163581,181.238996 Z M85.1036393,168.866212 L83.4169119,167.971414 L71.3626002,143.372352 L71.3626002,142.430294 C71.3626002,126.946197 81.4845293,113.866081 93.4653009,113.866081 L93.4653009,170.981904 C90.5972384,170.980329 87.7557756,170.276148 85.1036393,168.866212 L85.1036393,168.866212 Z M98.1562181,296.617496 L213.268323,296.617496 L213.268323,303.28752 L98.1562181,303.28752 L98.1562181,296.617496 Z M77.6197643,308.169524 L213.268323,308.169524 L213.268323,343.460474 L77.6197643,343.460474 L77.6197643,308.169524 Z M219.195339,308.169524 L354.981589,308.169524 L354.981589,343.460474 L219.195339,343.460474 L219.195339,308.169524 Z M219.195339,296.617496 L334.307443,296.617496 L334.307443,303.28752 L219.195339,303.28752 L219.195339,296.617496 Z M339.607022,170.364368 C339.403613,170.364368 339.201769,170.354916 338.99836,170.348614 L338.99836,113.530532 C339.201769,113.522655 339.403613,113.510052 339.607022,113.510052 C351.306151,113.510052 360.824112,126.262496 360.824112,141.93721 L360.824112,142.236526 L348.417747,167.552371 L347.133143,168.234497 C344.535771,169.616077 342.565836,170.364368 339.607022,170.364368 L339.607022,170.364368 Z M349.874466,168.432991 L361.841156,144.018245 C369.627014,151.800465 375.178507,157.890761 380.113514,165.003458 L360.080888,180.129951 C357.369294,176.538157 354.191424,172.976295 350.156109,168.729156 L349.874466,168.432991 L349.874466,168.432991 Z M361.090108,181.500504 L381.072665,166.410244 C385.624325,173.206296 389.730051,181.057831 394.719823,192.198693 L371.798793,202.373867 L371.784711,202.33921 C368.250094,193.206916 365.19114,187.201689 361.090108,181.500504 L361.090108,181.500504 Z M410.374468,258.799688 L406.290648,249.810751 L418.997432,232.831649 L410.149154,211.851162 L387.678753,209.076974 L374.055065,227.281697 L382.903343,248.260609 L403.974918,250.863084 L408.024315,259.776404 C407.435995,259.992227 406.841416,260.197022 406.235884,260.382913 C397.595709,263.029498 388.450141,262.131549 380.481215,257.852904 C372.512288,253.574258 366.674459,246.428479 364.045793,237.729406 C360.556552,226.191556 363.269711,213.949526 371.304354,204.982644 L372.088259,204.108326 L395.444271,193.740959 L397.019906,193.770891 C411.709142,194.041851 424.455043,203.739694 428.736014,217.902074 C433.728915,234.416449 425.587873,251.852403 410.374468,258.799688 L410.374468,258.799688 Z M385.951344,244.188334 L379.083954,227.902384 L389.658076,213.769936 L407.099588,215.925012 L413.968543,232.210962 L403.394421,246.341835 L385.951344,244.188334 L385.951344,244.188334 Z" id="Fill-76-Copy" fill="#0B0B0A"></path>
                <path d="M215.427584,79.6180116 C199.073526,79.6180116 185.573448,74.4508695 185.007033,74.2303208 C183.010498,73.4552495 182.016925,71.1993509 182.786749,69.190782 C183.555008,67.1822131 185.795633,66.1834423 187.789038,66.9537876 C187.925165,67.0057741 200.575621,71.8200381 215.427584,71.8200381 C230.434451,71.8200381 244.846739,66.9506369 244.990689,66.9018011 C247.016953,66.2070726 249.213767,67.3003642 249.902227,69.3388647 C250.590687,71.3773653 249.506362,73.5923048 247.481663,74.2838826 C246.844838,74.5012807 231.701844,79.6180116 215.427584,79.6180116" id="Fill-77-Copy" fill="#0B0B0A"></path>
                <path d="M215.648204,268.568422 L214.366729,268.568422 C208.502301,268.568422 203.390484,267.922529 197.792051,266.473209 L197.031615,266.27629 L194.456149,255.012551 C194.435808,254.821934 194.388867,254.580906 194.345056,254.434398 C194.240222,254.387138 194.068107,254.330425 193.964838,254.295768 L193.819323,254.248507 C190.95439,253.276517 188.127009,252.039869 185.416979,250.57322 L180.348974,247.715538 C178.080185,246.247314 175.977252,244.660938 174.030787,242.959562 L173.91813,242.85874 C173.833637,242.783123 173.689686,242.653945 173.592676,242.58778 C173.484713,242.622438 173.217152,242.718534 173.054425,242.792575 L172.905781,242.849288 L162.100085,246.253615 L161.547753,245.692791 C157.474885,241.563804 154.336132,237.45057 151.369495,232.357469 L150.721716,231.243698 C147.755079,226.150597 145.722557,221.383594 144.13284,215.787957 L143.916914,215.028639 L152.266058,207.09361 C152.417832,206.980185 152.6009,206.816349 152.704169,206.706075 C152.691651,206.589499 152.652534,206.411485 152.630629,206.305936 L152.59777,206.156278 C151.98285,203.174144 151.612021,200.092763 151.496234,196.998779 L151.27092,190.593414 L151.274049,190.539852 C151.39453,187.90587 151.704337,185.279764 152.190953,182.729275 L152.220682,182.581193 C152.242588,182.469343 152.28014,182.280301 152.289528,182.163725 C152.211294,182.092835 152.007885,181.916396 151.840464,181.795094 L151.718419,181.695847 L143.377098,173.990819 L143.580507,173.228351 C145.085731,167.610659 147.046278,162.813724 149.936246,157.674938 L150.568378,156.551715 C153.456781,151.412929 156.532946,147.252435 160.543227,143.062009 L161.087736,142.491732 L172.093711,145.785785 C172.26739,145.861402 172.500528,145.938594 172.646043,145.973252 C172.741489,145.903937 172.874487,145.781059 172.952721,145.707018 L173.066943,145.60462 C175.320085,143.572421 177.78133,141.704058 180.381832,140.053093 L186.327625,136.506985 C188.7388,135.275062 191.162493,134.251086 193.603397,133.422453 L193.745783,133.375193 C193.853746,133.340535 194.038378,133.279096 194.143212,133.228685 C194.165118,133.126288 194.218317,132.861629 194.240222,132.655258 L194.265257,132.499299 L196.814125,121.39467 L197.57456,121.197751 C203.172993,119.748431 208.28481,119.102538 214.149239,119.102538 L215.430713,119.102538 C221.296707,119.102538 226.408524,119.748431 232.006957,121.197751 L232.765827,121.39467 L235.341294,132.658409 C235.361635,132.847451 235.41014,133.090055 235.452387,133.236562 C235.558785,133.285398 235.7309,133.340535 235.834169,133.375193 L235.976555,133.422453 C238.843053,134.394443 241.670434,135.631091 244.380463,137.09774 L249.448469,139.955422 C251.717258,141.423646 253.820191,143.010022 255.766656,144.712973 L255.880877,144.813796 C255.96537,144.889412 256.109321,145.017016 256.204767,145.08318 C256.304906,145.050098 256.558385,144.961878 256.746147,144.87681 L256.891662,144.821672 L267.697357,141.417345 L268.24969,141.978169 C272.322558,146.107157 275.46131,150.220391 278.427948,155.315067 L279.077291,156.427262 C282.042364,161.521938 284.074886,166.288942 285.664603,171.883003 L285.880529,172.642321 L277.531385,180.57735 C277.379611,180.690775 277.196543,180.854611 277.093274,180.964886 C277.105791,181.081461 277.143344,181.259476 277.166814,181.366599 L277.199672,181.516257 C277.814592,184.498391 278.185422,187.579773 278.301209,190.672181 L278.526523,197.079122 L278.523394,197.131108 C278.401348,199.763515 278.093106,202.391196 277.60649,204.941685 L277.576761,205.088192 C277.554855,205.201617 277.515738,205.392234 277.507915,205.507235 C277.586149,205.578125 277.787993,205.754564 277.955414,205.875866 L278.077459,205.975113 L286.421909,213.680141 L286.216936,214.44261 C284.710147,220.061876 282.751165,224.858812 279.861197,229.997597 L279.23063,231.119245 C276.340662,236.256456 273.264497,240.41695 269.252652,244.610527 L268.709707,245.179228 L257.705297,241.88675 C257.531617,241.809558 257.296915,241.732366 257.151399,241.697708 C257.055954,241.767024 256.922956,241.891476 256.843157,241.965517 L256.732065,242.064764 C254.475793,244.100114 252.014548,245.966902 249.415611,247.617867 L243.394714,251.204935 C241.057078,252.395898 238.633386,253.421449 236.194046,254.248507 L236.048531,254.295768 C235.942132,254.332001 235.760629,254.391864 235.654231,254.442275 C235.63389,254.544673 235.580691,254.809331 235.558785,255.014126 L235.532186,255.171661 L232.983318,266.27629 L232.222883,266.473209 C226.62445,267.922529 221.512633,268.568422 215.648204,268.568422 L215.648204,268.568422 Z M199.192442,264.147995 C204.279223,265.405123 208.993611,265.969098 214.366729,265.969098 L215.648204,265.969098 C221.019758,265.969098 225.734146,265.405123 230.822492,264.147995 L232.998965,254.659673 C233.055294,254.183918 233.200809,253.393093 233.576333,252.873228 C234.048867,252.219459 234.770185,251.983157 235.248978,251.825622 L235.366329,251.786238 C237.680494,251.001715 239.975883,250.032875 242.191473,248.904926 L248.068419,245.401352 C250.515582,243.846483 252.861041,242.067915 255.009349,240.130237 L255.098536,240.048319 C255.447461,239.725372 256.032652,239.186603 256.832204,239.095233 C257.464336,239.024342 258.220077,239.284275 258.659753,239.470166 L267.933624,242.236477 C271.527699,238.398929 274.337869,234.545628 276.983746,229.838487 L277.614313,228.716839 C280.261755,224.009699 282.097128,219.601875 283.517859,214.524528 L276.387602,207.941148 C276.054325,207.695393 275.398723,207.156624 275.128033,206.556417 C274.794756,205.819154 274.954353,205.036206 275.048234,204.569903 L275.071705,204.448601 C275.531721,202.038318 275.825881,199.553994 275.943233,197.063369 L275.721048,190.766702 C275.61152,187.820801 275.259466,184.885927 274.671146,182.043999 L274.646111,181.921122 C274.544407,181.456394 274.375421,180.678172 274.696181,179.939334 C274.952789,179.348578 275.556756,178.822412 275.936974,178.532548 L282.962397,171.842044 C281.46969,166.789903 279.567037,162.408859 276.849184,157.742678 L276.201405,156.628907 C273.483552,151.962726 270.61549,148.153534 266.965086,144.371123 L257.735026,147.279216 C257.29848,147.471408 256.541173,147.747094 255.912171,147.682505 C255.112619,147.602162 254.521169,147.072845 254.16755,146.757775 L254.075234,146.674282 C252.221086,145.053249 250.216728,143.54249 248.118489,142.182964 L243.138106,139.375694 C240.576721,137.990963 237.882338,136.812602 235.151968,135.884722 L235.034617,135.846914 C234.583988,135.698831 233.832941,135.451501 233.360407,134.799307 C232.983318,134.277867 232.837803,133.487042 232.783039,133.011287 L230.605001,123.522965 C225.518219,122.265837 220.803832,121.701863 215.430713,121.701863 L214.149239,121.701863 C208.777685,121.701863 204.063297,122.265837 198.974951,123.522965 L196.798478,133.011287 C196.742149,133.487042 196.596634,134.277867 196.22111,134.797732 C195.747011,135.453077 194.994399,135.698831 194.545335,135.846914 L194.427984,135.884722 C192.104431,136.673972 189.79496,137.650688 187.566853,138.784938 L181.729024,142.269608 C179.280296,143.826052 176.934837,145.60462 174.788093,147.540723 L174.695777,147.625792 C174.346853,147.947163 173.763226,148.484357 172.965239,148.575727 C172.329978,148.652919 171.575801,148.386685 171.13769,148.200794 L161.863818,145.434483 C158.269743,149.272031 155.461139,153.125333 152.813697,157.830898 L152.18313,158.954121 C149.535687,163.662837 147.700315,168.070661 146.281148,173.146433 L153.408276,179.728237 C153.793188,180.0118 154.404978,180.528514 154.66941,181.114544 C155.002687,181.850231 154.844654,182.631604 154.749208,183.099482 L154.725738,183.220784 C154.265722,185.631067 153.973126,188.115391 153.85421,190.607592 L154.076395,196.904258 C154.185923,199.851735 154.539541,202.786608 155.126297,205.626961 L155.151332,205.748263 C155.253036,206.212991 155.422022,206.991213 155.101262,207.731626 C154.844654,208.323957 154.240687,208.850124 153.862034,209.138412 L146.833481,215.828916 C148.329317,220.882633 150.230406,225.262101 152.948259,229.928282 L153.596038,231.042053 C156.313891,235.708235 159.181953,239.517426 162.830792,243.299837 L172.062417,240.391745 C172.498963,240.199552 173.250011,239.927017 173.886836,239.990031 C174.684824,240.067223 175.277839,240.599691 175.633022,240.916336 L175.723773,240.996678 C177.577922,242.617712 179.580715,244.128471 181.678954,245.487996 L186.659337,248.295266 C189.222287,249.681573 191.915105,250.859933 194.645475,251.784663 L194.764391,251.825622 C195.243184,251.983157 195.966067,252.219459 196.437036,252.871653 C196.814125,253.393093 196.95964,254.183918 197.014404,254.659673 L199.192442,264.147995 L199.192442,264.147995 Z" id="Fill-78-Copy" fill="#0B0B0A"></path>
                <path d="M154.769549,46.1182327 L155.606654,44.1884312 C153.456781,43.3440445 151.119146,42.8761661 148.673547,42.8761661 C148.621913,43.1171944 148.686065,44.9004885 148.673547,45.1430921 C150.978324,45.1430921 152.927918,45.440833 154.769549,46.1182327" id="Fill-79-Copy" fill="#FFFFFF"></path>
                <path d="M163.854094,50.4441387 C163.541158,50.0313975 163.21101,49.6312591 162.86678,49.2452988 C162.431798,48.7600916 161.973346,48.2953638 161.492989,47.8558417 C160.468122,46.9200849 159.336857,46.1024792 158.127357,45.4077506 L157.208889,47.3091959 C161.9045,49.9620822 165.166863,54.1399056 167.312042,57.9459467 C167.312042,56.6856682 165.506399,52.625996 163.854094,50.4441387" id="Fill-80-Copy" fill="#FFFFFF"></path>
                <path d="M288.008497,46.1182327 L288.844037,44.1884312 C286.695729,43.3440445 284.358093,42.8761661 281.912495,42.8761661 C281.860861,43.1171944 281.925013,44.9004885 281.912495,45.1430921 C284.215707,45.1430921 286.166866,45.440833 288.008497,46.1182327" id="Fill-81-Copy" fill="#FFFFFF"></path>
                <path d="M297.091477,50.4441387 C296.778541,50.0313975 296.449957,49.6312591 296.105727,49.2452988 C295.670746,48.7600916 295.212294,48.2953638 294.731936,47.8558417 C293.70707,46.9200849 292.575804,46.1024792 291.366305,45.4077506 L290.446272,47.3091959 C295.143448,49.9620822 298.40581,54.1399056 300.550989,57.9459467 C300.550989,56.6856682 298.745346,52.625996 297.091477,50.4441387" id="Fill-82-Copy" fill="#FFFFFF"></path>
            </g>
        </g>
    </g>
</svg>