<?xml version="1.0" encoding="UTF-8" standalone="no"?>
<svg width="500px" height="500px" viewBox="0 0 500 500" version="1.1" xmlns="http://www.w3.org/2000/svg" xmlns:xlink="http://www.w3.org/1999/xlink">
    <!-- Generator: Sketch 39.1 (31720) - http://www.bohemiancoding.com/sketch -->
    <title>monitoring500</title>
    <desc>Created with Sketch.</desc>
    <defs>
        <polygon id="path-1" points="0 486.537647 487.906267 486.537647 487.906267 0 0 0"></polygon>
    </defs>
    <g id="Corp-Site-Index" stroke="none" stroke-width="1" fill="none" fill-rule="evenodd">
        <g id="monitoring500">
            <g id="Group" transform="translate(4.000000, 9.000000)">
                <g id="Page-1">
                    <path d="M201.602088,459.487023 C179.208264,454.876503 158.067421,446.833898 138.755537,435.934865 L201.602088,459.487023 L201.602088,459.487023 Z" id="Stroke-1" stroke="#221F20" stroke-width="8" stroke-linecap="round"></path>
                    <path d="M369.671189,425.450621 C349.717738,439.2317 327.353316,449.773585 303.338608,456.316772" id="Stroke-3" stroke="#221F20" stroke-width="8" stroke-linecap="round"></path>
                    <path d="M460.18999,286.38062 C455.257227,312.702557 445.590731,337.357804 432.107996,359.429381" id="Stroke-5" stroke="#221F20" stroke-width="8" stroke-linecap="round"></path>
                    <path d="M425.118445,121.86603 C443.887521,148.89096 456.697024,180.362153 461.644865,214.380095" id="Stroke-7" stroke="#221F20" stroke-width="8" stroke-linecap="round"></path>
                    <path d="M291.931509,32.9209562 C320.69729,39.1069955 347.355168,50.96445 370.675534,67.2636465" id="Stroke-9" stroke="#221F20" stroke-width="8" stroke-linecap="round"></path>
                    <path d="M30.6135876,210.589959 C34.524817,186.668598 42.3321979,164.056024 53.363252,143.425093" id="Stroke-11" stroke="#221F20" stroke-width="8" stroke-linecap="round"></path>
                    <path d="M64.9947868,367.874493 C47.3580673,341.783874 35.2255664,311.671952 30.2618936,279.202403" id="Stroke-13" stroke="#221F20" stroke-width="8" stroke-linecap="round"></path>
                    <path d="M434.37369,110.006165 L374.285656,125.994175 C371.680934,126.687374 369.008361,125.13898 368.314774,122.536473 L358.555548,85.8986945 C357.861961,83.2961878 359.411224,80.6251148 362.015192,79.9319167 L422.103979,63.9439059 C424.707947,63.2507078 427.381274,64.7991013 428.074107,67.401608 L437.833333,104.038633 C438.526921,106.641894 436.977658,109.312967 434.37369,110.006165 L434.37369,110.006165 Z" id="Stroke-15" stroke="#221F20" stroke-width="4"></path>
                    <polygon id="Stroke-17" stroke="#221F20" stroke-width="2" stroke-linejoin="round" points="425.156819 89.9863028 372.785698 103.921091 368.056488 86.1676855 420.427609 72.2328972"></polygon>
                    <polygon id="Stroke-19" stroke="#221F20" stroke-width="2" stroke-linejoin="round" points="399.953212 109.95523 376.084761 116.30628 374.025862 108.575615 397.894313 102.224564"></polygon>
                    <polygon id="Stroke-21" stroke="#221F20" stroke-width="2" stroke-linejoin="round" points="413.972798 106.22492 402.038573 109.400068 399.979674 101.669403 411.913899 98.4942543"></polygon>
                    <polygon id="Stroke-23" stroke="#221F20" stroke-width="2" stroke-linejoin="round" points="428.455882 102.371266 416.521656 105.546414 414.462758 97.815749 426.396983 94.6406004"></polygon>
                    <path d="M377.287532,97.8288595 C377.452636,97.859752 377.638095,97.8507103 377.841648,97.7957065 C378.045201,97.7414562 378.210305,97.6578204 378.33696,97.5455524 C378.464369,97.434038 378.554083,97.3119748 378.606102,97.1801165 C378.658121,97.0482582 378.683754,96.8855073 378.682246,96.6918639 C378.681492,96.498974 378.664152,96.3166328 378.631735,96.1463472 C378.599317,95.9760616 378.552575,95.77413 378.489248,95.536785 C378.419889,95.2760822 378.341483,95.0477789 378.254031,94.8511217 C378.166579,94.6537109 378.058017,94.4721231 377.926839,94.3063584 C377.794906,94.1413471 377.635834,94.0283257 377.450374,93.9688011 C377.264161,93.9100299 377.054577,93.9107834 376.82313,93.9725684 C376.590929,94.0343535 376.406978,94.1383332 376.273538,94.2814937 C376.140098,94.4269146 376.056415,94.6039815 376.022489,94.8104339 C375.98781,95.0183934 375.981779,95.2293667 376.004396,95.4426004 C376.026259,95.6573412 376.073,95.8961931 376.143867,96.1606632 C376.205687,96.3980082 376.267507,96.5984329 376.327065,96.7634442 C376.385869,96.9284555 376.462766,97.0957272 376.558512,97.2637524 C376.653503,97.4332845 376.757541,97.560622 376.869872,97.6487787 C376.982203,97.7354284 377.122428,97.7972135 377.287532,97.8288595 M376.424318,92.4769182 C376.62787,92.422668 376.786189,92.3307439 376.897766,92.201146 C377.009343,92.0707946 377.074179,91.9080437 377.091518,91.7136469 C377.109612,91.5184966 377.105842,91.329374 377.080964,91.1432654 C377.054577,90.9594172 377.010097,90.7446765 376.945262,90.5005502 C376.667827,89.4584927 376.202671,89.023737 375.551302,89.1970365 C374.89164,89.3725964 374.699396,89.9821586 374.976831,91.0242162 C375.041666,91.2683425 375.111025,91.4778088 375.184907,91.6518618 C375.257281,91.8274218 375.349257,91.9931865 375.461588,92.1514165 C375.573165,92.3096465 375.709621,92.4166401 375.870202,92.4746578 C376.03229,92.5311685 376.216241,92.5326755 376.424318,92.4769182 M378.183165,99.078123 C377.221189,99.3343049 376.44995,99.2416273 375.868694,98.8000903 C375.28593,98.3608137 374.856961,97.6193931 374.578772,96.5773356 C374.397836,95.8961931 374.345817,95.3265651 374.422715,94.8631773 C374.500367,94.3997894 374.711458,93.9801032 375.056744,93.6056255 C374.635315,93.4345865 374.290783,93.1776511 374.020887,92.8340659 C373.750237,92.4927412 373.537637,92.0308603 373.382334,91.4484233 C373.142594,90.5450053 373.171996,89.7870083 373.47054,89.1751857 C373.770592,88.5641165 374.349587,88.1429233 375.209786,87.91462 C376.064708,87.6870702 376.774127,87.7661852 377.335782,88.1497046 C377.898945,88.5347309 378.300019,89.1766926 378.539759,90.0763432 C378.695816,90.6625476 378.742558,91.1696371 378.679984,91.598365 C378.618164,92.0278464 378.447029,92.421161 378.166579,92.7775552 C378.649074,92.9365387 379.040348,93.1995019 379.337384,93.5649378 C379.635928,93.9303738 379.874915,94.4487654 380.053589,95.1208661 C380.331024,96.1629237 380.328762,97.0188726 380.045296,97.6887129 C379.760322,98.3600602 379.140617,98.823448 378.183165,99.078123" id="Fill-25" fill="#221F20"></path>
                    <path d="M383.767372,96.0426689 C383.955093,96.1097282 384.161661,96.1142491 384.385569,96.0547245 C384.608723,95.9951999 384.78589,95.8889597 384.91556,95.7367575 C385.045231,95.5845554 385.125898,95.3999537 385.156808,95.1821991 C385.189226,94.9629375 385.193749,94.742169 385.17264,94.5146192 C385.150777,94.2855624 385.105543,94.0444501 385.037692,93.7882682 C384.996982,93.6330521 384.966072,93.5170167 384.944209,93.4371483 C384.923099,93.3572798 384.889928,93.2450118 384.844694,93.1010979 C384.798706,92.9549235 384.761765,92.844916 384.730855,92.7680614 C384.698437,92.6912069 384.657727,92.5947619 384.607216,92.4772196 C384.55595,92.3604308 384.507701,92.2715206 384.460959,92.211996 C384.414971,92.1517179 384.357675,92.0823981 384.290578,92.0025296 C384.222727,91.9219077 384.154876,91.8646435 384.084763,91.8307371 C384.014651,91.7968306 383.936245,91.7659381 383.850301,91.7365526 C383.763602,91.707167 383.668611,91.6958648 383.566081,91.7018927 C383.462043,91.7064135 383.354235,91.7252504 383.24115,91.7553895 C382.735284,91.8902617 382.413369,92.2541907 382.274651,92.8486834 L382.691558,94.4121464 C382.760916,94.6728492 382.843091,94.9064268 382.937329,95.1121258 C383.031566,95.3185783 383.145405,95.5077008 383.281107,95.6817538 C383.416809,95.8542998 383.578897,95.9756095 383.767372,96.0426689 M384.727086,97.3371409 C384.352398,97.4365998 383.995049,97.4629714 383.655795,97.4185164 C383.31654,97.3740613 383.013473,97.2685746 382.744331,97.1050703 C382.476696,96.9415659 382.229417,96.7253183 382.002494,96.4555738 C381.776324,96.1873363 381.582572,95.8836854 381.422745,95.5438676 C381.262165,95.2063103 381.129478,94.837107 381.023932,94.4377646 L380.086836,90.9205379 C379.966966,90.472973 379.883283,90.0517798 379.835033,89.6562048 C379.786784,89.2613833 379.780752,88.8733431 379.818447,88.4905772 C379.856142,88.1078113 379.944349,87.7672401 380.083066,87.4681101 C380.22103,87.1697335 380.431368,86.9067703 380.713326,86.6792205 C380.995284,86.4516707 381.342078,86.2836455 381.753707,86.173638 C382.632753,85.9393069 383.375344,86.0093802 383.980725,86.3815974 C384.586106,86.7553216 385.009044,87.3912555 385.248784,88.290906 L383.684443,88.7075784 C383.544972,88.1861728 383.357251,87.8184765 383.118265,87.6022288 C382.879278,87.3867346 382.538516,87.3377587 382.095223,87.4560544 C381.312676,87.6647673 381.130232,88.5501018 381.546385,90.1135649 L381.962537,91.6770279 C382.125379,91.0765074 382.577719,90.6764116 383.318802,90.4790008 C383.759079,90.3614585 384.154122,90.3381008 384.506947,90.4074206 C384.859772,90.4782474 385.161332,90.6357239 385.411626,90.8798501 C385.661921,91.1247299 385.87452,91.4185856 386.048671,91.7599103 C386.222068,92.1019885 386.372848,92.5088656 386.497995,92.9805417 C386.634451,93.493659 386.708333,93.9766372 386.720395,94.4294764 C386.731704,94.8823156 386.675915,95.3057692 386.554537,95.6998372 C386.432406,96.0939052 386.217544,96.4329695 385.909954,96.7177835 C385.602363,97.0025975 385.207319,97.20905 384.727086,97.3371409" id="Fill-27" fill="#221F20"></path>
                    <polygon id="Fill-29" fill="#221F20" points="389.053864 96.0676843 388.489194 85.8927421 385.599498 86.6612878 385.252704 85.3592809 389.634367 84.1936533 389.83415 84.9456225 390.556386 95.6675884"></polygon>
                    <polygon id="Fill-31" fill="#221F20" points="392.210817 92.2981183 391.898703 91.1257094 394.244838 90.5018312 394.557706 91.6742401"></polygon>
                    <path d="M398.584282,93.6497039 C397.610998,93.9088997 396.843528,93.8199895 396.281874,93.3829733 C395.720219,92.9452037 395.298789,92.1954949 395.016077,91.1330935 L396.579664,90.7164212 L396.644499,90.9605474 C396.700288,91.1685069 396.755322,91.3478342 396.810357,91.496269 C396.864638,91.6447038 396.935504,91.7931386 397.019941,91.9438338 C397.106639,92.0922687 397.200123,92.2075505 397.301899,92.287419 C397.403676,92.366534 397.528823,92.4222912 397.676587,92.4524303 C397.824351,92.4833228 397.987948,92.4742811 398.167376,92.4260586 C398.309109,92.3891383 398.433502,92.3371484 398.54131,92.271596 C398.647609,92.2052901 398.73657,92.1367237 398.806682,92.0628831 C398.876795,91.9897959 398.931076,91.8956114 398.971032,91.7803295 C399.008727,91.6658011 399.038883,91.5618214 399.059992,91.4668834 C399.079594,91.3719454 399.084871,91.2461149 399.074316,91.0931593 C399.064516,90.9386966 399.053207,90.8098522 399.039637,90.706626 C399.027575,90.6026463 399.001942,90.4602393 398.961985,90.2756376 C398.921275,90.0925429 398.888857,89.9516429 398.861717,89.8514305 C398.83533,89.7519717 398.795374,89.6027834 398.742601,89.4031122 C398.718476,89.314202 398.701136,89.2456357 398.689074,89.2011806 C398.642332,89.0263741 398.600114,88.8771858 398.562419,88.7536157 C398.525478,88.6307991 398.478736,88.4989408 398.42144,88.3603012 C398.365651,88.2194011 398.307601,88.1048728 398.248797,88.0159626 C398.189239,87.9270524 398.119126,87.8419096 398.036197,87.7597807 C397.953268,87.6761448 397.8628,87.6188806 397.767055,87.5819603 C397.670556,87.5480539 397.556717,87.5284635 397.427047,87.5262031 C397.298884,87.5224357 397.158658,87.5412726 397.007125,87.5819603 C396.730444,87.655801 396.514074,87.8087566 396.358017,88.0423342 C396.20196,88.2759119 396.109984,88.5260659 396.081336,88.7965639 L394.748442,89.1506977 L393.177316,83.2517327 L398.01735,81.9632885 L398.433502,83.5267516 L395.011553,84.4377042 L395.61995,87.1140516 C395.990115,86.7373135 396.477133,86.467569 397.080253,86.3070786 C397.434586,86.2128941 397.761024,86.1835085 398.061076,86.2196754 C398.361128,86.2550888 398.623485,86.342492 398.848147,86.484899 C399.072809,86.6250456 399.278623,86.8194424 399.463328,87.0658291 C399.650295,87.3137228 399.807107,87.5849742 399.936777,87.8810903 C400.065694,88.1787134 400.181041,88.5162708 400.281309,88.8952693 C400.40721,89.363178 400.495417,89.7934129 400.547436,90.1852205 C400.598701,90.5755211 400.608501,90.9643148 400.57533,91.3478342 C400.542158,91.7306001 400.45546,92.0681574 400.314481,92.3582457 C400.173502,92.649841 399.957886,92.9075299 399.667635,93.1343262 C399.377384,93.363383 399.015512,93.534422 398.584282,93.6497039" id="Fill-33" fill="#221F20"></path>
                    <path d="M404.945609,91.9576225 C404.056761,92.1934605 403.311909,92.1241407 402.711051,91.7504165 C402.109439,91.3766923 401.689518,90.7392515 401.449778,89.8403544 L401.344986,89.4493003 L402.909327,89.032628 C402.974162,89.2760008 403.037489,89.4832067 403.097801,89.6534923 C403.157359,89.822271 403.235011,89.9910497 403.329248,90.1568144 C403.424994,90.3240861 403.52677,90.4499166 403.636839,90.5358129 C403.746909,90.6224627 403.885626,90.6804804 404.049976,90.7113729 C404.21508,90.7407584 404.399032,90.7294563 404.603338,90.675206 C404.806137,90.6209557 404.973503,90.5395803 405.100912,90.4318332 C405.229075,90.3225792 405.318789,90.2042834 405.373069,90.0746855 C405.424335,89.9450876 405.451475,89.7853507 405.449967,89.5932142 C405.449213,89.4010778 405.433381,89.2172296 405.400964,89.0401627 C405.3693,88.8630958 405.32105,88.6521225 405.256215,88.4087497 C405.088849,87.7818575 404.839309,87.3320323 404.506085,87.0577669 C404.17437,86.7835016 403.728815,86.72247 403.171684,86.8701514 L402.754777,85.3066883 C403.325479,85.1559931 403.697151,84.9322107 403.870548,84.6345876 C404.044699,84.3369645 404.055253,83.9014553 403.902966,83.3280599 C403.764248,82.8111752 403.57502,82.4442323 403.333772,82.2272312 C403.093278,82.0094766 402.752516,81.9589937 402.313746,82.076536 C402.109439,82.1307863 401.943582,82.2114082 401.814665,82.3206622 C401.686502,82.4284093 401.596034,82.5474586 401.543261,82.676303 C401.490488,82.8066544 401.464856,82.9663913 401.466363,83.1585277 C401.467117,83.3514176 401.482949,83.5345124 401.514613,83.7115793 C401.547785,83.8886462 401.59528,84.098866 401.660116,84.3422388 L400.096528,84.7589111 L399.991736,84.3686105 C399.753504,83.4734808 399.802508,82.7109629 400.139501,82.0855777 C400.477248,81.459439 401.087152,81.0292041 401.971476,80.7941195 C402.858815,80.557528 403.603668,80.6276013 404.205279,81.000572 C404.806137,81.3750497 405.227567,82.011737 405.465799,82.9113876 C405.631657,83.5299915 405.627887,84.0755082 405.456752,84.5456774 C405.285617,85.0166 404.975765,85.3925846 404.527194,85.6736312 C405.08131,85.7090446 405.555513,85.9245388 405.946033,86.3216207 C406.33806,86.7187027 406.629066,87.2755215 406.820556,87.9920774 C407.093468,89.0175584 407.085929,89.8735074 406.795677,90.5554033 C406.506934,91.2388062 405.88949,91.7059614 404.945609,91.9576225" id="Fill-35" fill="#221F20"></path>
                    <path d="M410.987885,88.9761926 C411.770432,88.7682332 411.988309,88.0124966 411.640762,86.7097363 L410.391551,82.0193471 C410.3335,81.8000856 410.271681,81.6056887 410.210615,81.4361566 C410.147287,81.2673779 410.068128,81.1023666 409.969367,80.9373553 C409.870606,80.7746045 409.764306,80.6457601 409.650468,80.5485616 C409.535121,80.4536236 409.396404,80.3880712 409.234315,80.3534113 C409.071473,80.3179979 408.893553,80.3255327 408.698293,80.3775226 C408.503033,80.4295124 408.343206,80.5116413 408.220321,80.6231558 C408.096681,80.7339168 408.009983,80.8597473 407.95721,80.9998939 C407.905191,81.1400404 407.876543,81.3050517 407.873527,81.4956812 C407.869758,81.6870641 407.88182,81.8709123 407.911976,82.0479792 C407.942886,82.2257996 407.986612,82.4239638 408.045416,82.6432254 L409.294627,87.3336146 C409.363232,87.5897965 409.442392,87.8218671 409.535121,88.0283196 C409.627097,88.2347721 409.740936,88.424648 409.875884,88.598701 C410.011585,88.7712471 410.174428,88.8933102 410.363656,88.96263 C410.552131,89.0327033 410.760207,89.0364707 410.987885,88.9761926 M411.330155,90.258609 C410.735329,90.416839 410.191767,90.4100578 409.699471,90.2405256 C409.206421,90.0709935 408.798562,89.7726169 408.473631,89.3476564 C408.1487,88.9219423 407.901421,88.3892347 407.73104,87.7495334 L406.481075,83.0598977 C406.213441,82.0547605 406.230781,81.2040859 406.533094,80.5056135 C406.835408,79.8071411 407.443805,79.3377254 408.356023,79.0951061 C409.264471,78.8532403 410.024402,78.9609874 410.636568,79.4175939 C411.250242,79.873447 411.689011,80.6020584 411.956646,81.6026748 L413.205103,86.293064 C413.465952,87.2748434 413.441827,88.1217506 413.131975,88.8330321 C412.822876,89.5458206 412.222018,90.0212641 411.330155,90.258609" id="Fill-37" fill="#221F20"></path>
                    <path d="M416.466396,82.9148536 C416.962461,82.7829952 417.284376,82.4168058 417.431387,81.8200527 L417.01448,80.2565896 C416.945122,79.9966403 416.864454,79.7630627 416.768709,79.5566103 C416.67598,79.3516647 416.559879,79.1617887 416.424931,78.9892427 C416.289229,78.8159432 416.127141,78.695387 415.938666,78.6268207 C415.751699,78.5605148 415.544377,78.5559939 415.321977,78.614765 C415.096561,78.6750431 414.920148,78.7805298 414.790478,78.9319785 C414.660807,79.0849342 414.580894,79.2702893 414.54923,79.4872905 C414.517566,79.7050451 414.513043,79.928074 414.534152,80.1556238 C414.555261,80.3831736 414.600495,80.6257929 414.6691,80.8812214 C414.709056,81.0364375 414.74072,81.1524728 414.761829,81.2323413 C414.783692,81.3129632 414.816864,81.4244777 414.861344,81.5691451 C414.906578,81.714566 414.944273,81.825327 414.975937,81.9014281 C415.007601,81.9782827 415.048311,82.0754811 415.099576,82.1922699 C415.150087,82.3098122 415.199091,82.3979689 415.245833,82.4574935 C415.292574,82.5170181 415.348363,82.5870914 415.416214,82.6677134 C415.483311,82.7475818 415.551916,82.8040926 415.622782,82.8387525 C415.691387,82.8719054 415.769793,82.9035514 415.855737,82.9321835 C415.942436,82.9623226 416.037427,82.9736247 416.140711,82.9675969 C416.243241,82.9623226 416.352557,82.9449926 416.466396,82.9148536 M417.953839,88.4958515 C417.073285,88.7301826 416.330694,88.6608628 415.725313,88.2871386 C415.119932,87.9149214 414.696994,87.2774806 414.458008,86.3785835 L416.022349,85.9626647 C416.161066,86.4840702 416.349541,86.8517665 416.587773,87.0672607 C416.826006,87.2835084 417.167522,87.3317309 417.611569,87.2134351 C418.394116,87.0062292 418.57656,86.1193877 418.160407,84.5559247 L417.743501,82.9924616 C417.572366,83.5967495 417.120026,83.9960919 416.38799,84.1912422 C415.947713,84.308031 415.551916,84.3321422 415.199091,84.2620689 C414.84702,84.1919957 414.54546,84.0345191 414.294412,83.7903929 C414.043363,83.5440062 413.831518,83.2509039 413.658121,82.9095792 C413.48397,82.567501 413.334698,82.1613774 413.208043,81.6881943 C413.071587,81.1750771 412.997705,80.6928523 412.986397,80.2392597 C412.975088,79.787174 413.030123,79.3644738 413.151501,78.9688988 C413.274386,78.5755843 413.488493,78.23652 413.796084,77.9509525 C414.105183,77.6676455 414.498719,77.461193 414.978952,77.3323486 C415.35364,77.2328898 415.711742,77.2050111 416.050243,77.2502197 C416.389498,77.2954283 416.693319,77.399408 416.961707,77.5636658 C417.230096,77.7279236 417.477375,77.9449247 417.703544,78.2139157 C417.930468,78.4821532 418.123466,78.7865576 418.284047,79.1256219 C418.443119,79.4639327 418.577314,79.833136 418.683613,80.2324784 L419.62071,83.7497052 C419.739826,84.19727 419.822755,84.6184632 419.871759,85.0132847 C419.920762,85.4073527 419.925285,85.7968999 419.88759,86.1796658 C419.849896,86.5624317 419.761689,86.9022494 419.622972,87.2013795 C419.485008,87.5005095 419.27467,87.7627192 418.992712,87.990269 C418.710754,88.2178188 418.364714,88.3865975 417.953839,88.4958515" id="Fill-39" fill="#221F20"></path>
                    <path d="M441.912004,65.1611466 C439.038894,54.3751353 427.960344,47.9585322 417.168276,50.8300299" id="Stroke-41" stroke="#221F20" stroke-width="2" stroke-linecap="round"></path>
                    <path d="M434.514593,67.1294524 C432.72936,60.4265284 425.844752,56.4391325 419.138064,58.2233641" id="Stroke-43" stroke="#221F20" stroke-width="4" stroke-linecap="round"></path>
                    <path d="M354.032228,124.612903 C356.905338,135.398914 367.983888,141.815517 378.775956,138.94402" id="Stroke-45" stroke="#221F20" stroke-width="2" stroke-linecap="round"></path>
                    <path d="M361.429638,122.644597 C363.214872,129.347521 370.09948,133.334917 376.806168,131.550685" id="Stroke-47" stroke="#221F20" stroke-width="4" stroke-linecap="round"></path>
                    <path d="M81.5604417,79.9802146 L61.8165737,121.673818 C61.8165737,121.673818 60.7302048,126.953426 66.4055585,127.745329 L109.063441,116.388183" id="Stroke-49" stroke="#221F20" stroke-width="4" stroke-linecap="round" stroke-linejoin="round"></path>
                    <path d="M106.620204,104.543613 C109.720238,110.408672 110.820931,115.06214 109.063592,116.388258 C106.391773,118.403807 98.1260211,111.963093 90.6013525,102.002138 C83.0766839,92.041183 79.1428375,82.331889 81.8146565,80.3163403 C83.5591794,79.0000174 87.6890396,81.289078 92.4401128,85.809935" id="Stroke-51" stroke="#221F20" stroke-width="4" stroke-linecap="round" stroke-linejoin="round"></path>
                    <g id="Group-56" transform="translate(97.253006, 90.962657)">
                        <path d="M0.40228065,0.443571421 C1.2790655,1.49014982 2.15660425,2.59173198 3.02358841,3.73927619 C3.94937671,4.96518192 4.82088427,6.18656679 5.63207988,7.39137519" id="Fill-53" fill="#FEFEFE"></path>
                        <path d="M0.40228065,0.443571421 C1.2790655,1.49014982 2.15660425,2.59173198 3.02358841,3.73927619 C3.94937671,4.96518192 4.82088427,6.18656679 5.63207988,7.39137519" id="Stroke-55" stroke="#221F20" stroke-width="4" stroke-linecap="round" stroke-linejoin="round"></path>
                    </g>
                    <path d="M99.6543257,104.91907 C99.6543257,104.91907 128.796302,82.7126205 141.998586,102.987911" id="Stroke-57" stroke="#221F20" stroke-width="2"></path>
                    <path d="M89.3500305,91.4023105 C89.3500305,91.4023105 99.9762407,90.4371076 105.289723,70.3223077" id="Stroke-59" stroke="#221F20" stroke-width="2"></path>
                    <path d="M111.993697,86.8967491 C111.993697,86.8967491 108.442831,75.6601589 114.489103,79.8622955 C120.535375,84.0651856 119.096182,76.0255949 119.096182,76.0255949 C119.096182,76.0255949 115.065082,67.9867576 123.127281,73.2852021 C131.18948,78.5836465 128.021595,69.3573308 128.021595,69.3573308" id="Stroke-61" stroke="#221F20" stroke-width="2"></path>
                    <path d="M112.867692,119.686676 C112.867692,119.686676 121.377707,111.531803 120.283045,118.810383 C119.189137,126.088963 125.764647,121.241097 125.764647,121.241097 C125.764647,121.241097 131.194229,114.071018 130.007592,123.641672 C128.820954,133.211573 135.698024,126.290141 135.698024,126.290141" id="Stroke-63" stroke="#221F20" stroke-width="2"></path>
                    <path d="M78.2946254,51.3613813 C78.2946254,51.3613813 90.0818405,51.6092749 84.1584539,55.9824506 C78.2343135,60.3556263 86.3146058,61.5755042 86.3146058,61.5755042 C86.3146058,61.5755042 95.2264491,60.3420637 87.6165899,66.2704143 C80.0067306,72.1995182 89.7667106,72.1656118 89.7667106,72.1656118" id="Stroke-65" stroke="#221F20" stroke-width="2"></path>
                    <mask id="mask-2" fill="white">
                        <use xlink:href="#path-1"></use>
                    </mask>
                    <g id="Clip-68"></g>
                    <polygon id="Fill-67" fill="#221F20" mask="url(#mask-2)" points="105.289572 60.5071504 107.865646 60.5071504 107.865646 57.9325223 105.289572 57.9325223"></polygon>
                    <polygon id="Fill-69" fill="#221F20" mask="url(#mask-2)" points="69.8683687 60.5071504 72.4444425 60.5071504 72.4444425 57.9325223 69.8683687 57.9325223"></polygon>
                    <polygon id="Fill-70" fill="#221F20" mask="url(#mask-2)" points="59.1577217 83.4369372 61.7337956 83.4369372 61.7337956 80.8623091 59.1577217 80.8623091"></polygon>
                    <polygon id="Fill-71" fill="#221F20" mask="url(#mask-2)" points="137.975704 93.2154756 135.998226 91.5653628 137.649266 89.5889948 139.626743 91.2391076"></polygon>
                    <polygon id="Fill-72" fill="#221F20" mask="url(#mask-2)" points="126.98423 109.789691 125.006752 108.139578 126.657791 106.16321 128.635269 107.813323"></polygon>
                    <polygon id="Fill-73" fill="#221F20" mask="url(#mask-2)" points="106.740828 129.558645 104.76335 127.908532 106.41439 125.932164 108.391867 127.582277"></polygon>
                    <path d="M374.680549,394.696587 L374.680549,405.198538" id="Stroke-74" stroke="#221F20" stroke-width="4" stroke-linecap="round" stroke-linejoin="round" mask="url(#mask-2)"></path>
                    <polyline id="Stroke-75" stroke="#221F20" stroke-width="4" stroke-linecap="round" stroke-linejoin="round" mask="url(#mask-2)" points="377.031056 374.650504 374.680398 374.650504 374.680398 377.167114"></polyline>
                    <polyline id="Stroke-76" stroke="#221F20" stroke-width="4" stroke-linecap="round" stroke-linejoin="round" mask="url(#mask-2)" points="374.680549 419.186823 423.928264 419.186823 423.928264 374.650353 390.184487 374.650353"></polyline>
                    <path d="M374.680549,413.962294 L374.680549,419.186898" id="Stroke-77" stroke="#221F20" stroke-width="4" stroke-linecap="round" stroke-linejoin="round" mask="url(#mask-2)"></path>
                    <polyline id="Stroke-78" stroke="#221F20" stroke-width="2" stroke-linecap="round" stroke-linejoin="round" mask="url(#mask-2)" points="372.525151 410.04791 384.935086 406.131341 394.535994 411.67994 404.072065 406.131341 419.061091 380.090451"></polyline>
                    <polygon id="Stroke-79" stroke="#221F20" stroke-width="2" stroke-linecap="round" stroke-linejoin="round" mask="url(#mask-2)" points="383.107785 369.569136 389.185721 380.089924 395.263657 390.611465 383.107785 390.611465 370.951914 390.611465 377.029849 380.089924"></polygon>
                    <path d="M381.999252,387.704177 L384.086799,387.704177 L384.086799,385.656983 L381.999252,385.656983 L381.999252,387.704177 Z M382.67173,384.720412 L381.999252,376.077287 L384.21647,376.077287 L383.421106,384.720412 L382.67173,384.720412 Z" id="Fill-80" fill="#221F20" mask="url(#mask-2)"></path>
                    <polyline id="Stroke-81" stroke="#221F20" stroke-width="4" stroke-linecap="round" stroke-linejoin="round" mask="url(#mask-2)" points="28.3997624 224.322062 2.90892033 224.322062 2.90892033 228.211506"></polyline>
                    <polyline id="Stroke-82" stroke="#221F20" stroke-width="4" stroke-linecap="round" stroke-linejoin="round" mask="url(#mask-2)" points="2.90929728 236.219677 2.90929728 268.858004 52.1570131 268.858004 52.1570131 246.493325"></polyline>
                    <polyline id="Stroke-83" stroke="#221F20" stroke-width="2" stroke-linecap="round" stroke-linejoin="round" mask="url(#mask-2)" points="0.753899269 231.393662 13.1638351 235.310231 18.7155494 242.414758 28.5426263 252.992057 47.2898395 261.351121"></polyline>
                    <polygon id="Stroke-84" stroke="#221F20" stroke-width="2" stroke-linecap="square" mask="url(#mask-2)" points="34.7434478 241.432602 56.2876272 241.432602 56.2876272 219.900513 34.7434478 219.900513"></polygon>
                    <polyline id="Stroke-85" stroke="#221F20" stroke-width="2" stroke-linecap="round" stroke-linejoin="round" mask="url(#mask-2)" points="40.9472849 229.271044 41.7810975 229.271044 44.9791382 225.519487 46.0911396 222.323241 48.8255323 223.203301 49.149709 225.195492 48.0060438 227.927596 51.6986424 228.020274 53.3670215 229.502362 52.6342314 231.957187 52.996103 232.651892 52.3010079 234.13398 52.4404793 235.750939 51.6986424 236.218848 51.9768312 237.886291 50.818088 238.812313 46.1838692 239.321663 41.8278392 237.700936 40.9472849 237.700936"></polyline>
                    <polyline id="Stroke-86" stroke="#221F20" stroke-width="2" mask="url(#mask-2)" points="40.9472849 231.317034 40.9472849 229.271346 38.6765403 229.271346 38.6765403 231.393135"></polyline>
                    <polyline id="Stroke-87" stroke="#221F20" stroke-width="2" mask="url(#mask-2)" points="38.6764649 235.24385 38.6764649 237.700936 40.9472095 237.700936 40.9472095 235.24159"></polyline>
                    <path d="M42.0826572,233.280065 C42.0826572,234.533849 41.0656471,235.549535 39.8119126,235.549535 C38.5574242,235.549535 37.541168,234.533849 37.541168,233.280065 C37.541168,232.026281 38.5574242,231.010595 39.8119126,231.010595 C41.0656471,231.010595 42.0826572,232.026281 42.0826572,233.280065 L42.0826572,233.280065 Z" id="Stroke-88" stroke="#221F20" stroke-width="2" mask="url(#mask-2)"></path>
                    <polygon id="Stroke-89" stroke="#221F20" stroke-width="4" mask="url(#mask-2)" points="202.55464 59.8463518 280.954887 59.8463518 280.954887 1.50695234 202.55464 1.50695234"></polygon>
                    <polygon id="Stroke-90" stroke="#221F20" stroke-width="2" stroke-linecap="round" stroke-linejoin="round" mask="url(#mask-2)" points="206.023331 9.7356656 213.655053 9.7356656 213.655053 6.04589279 206.023331 6.04589279"></polygon>
                    <polygon id="Stroke-91" stroke="#221F20" stroke-width="2" stroke-linecap="round" stroke-linejoin="round" mask="url(#mask-2)" points="215.909966 9.7356656 268.551736 9.7356656 268.551736 6.04589279 215.909966 6.04589279"></polygon>
                    <path d="M202.554414,14.5947581 L280.954661,14.5947581" id="Stroke-92" stroke="#221F20" stroke-width="2" mask="url(#mask-2)"></path>
                    <polygon id="Stroke-93" stroke="#221F20" stroke-width="2" stroke-linecap="round" stroke-linejoin="round" mask="url(#mask-2)" points="225.070369 26.9831119 230.300169 36.0361281 235.529968 45.0891442 225.070369 45.0891442 214.611525 45.0891442 219.84057 36.0361281"></polygon>
                    <path d="M224.116913,42.5872266 L225.913455,42.5872266 L225.913455,40.8255993 L224.116913,40.8255993 L224.116913,42.5872266 Z M224.695154,40.0193798 L224.116913,32.5833235 L226.024278,32.5833235 L225.339738,40.0193798 L224.695154,40.0193798 Z" id="Fill-94" fill="#221F20" mask="url(#mask-2)"></path>
                    <polygon id="Stroke-95" stroke="#221F20" stroke-width="2" stroke-linecap="round" stroke-linejoin="round" mask="url(#mask-2)" points="209.839569 52.0395852 271.935236 52.0395852 271.935236 22.6849071 209.839569 22.6849071"></polygon>
                    <path d="M242.049538,45.1954597 C240.455795,45.1954597 239.318915,44.7478949 238.638898,43.8512582 C237.958881,42.9553751 237.618872,41.6367918 237.618872,39.8970153 L240.179114,39.8970153 L240.179114,40.2971111 C240.179114,40.6369289 240.190422,40.9322916 240.214547,41.1809387 C240.237164,41.4325997 240.283906,41.6887816 240.354772,41.9517448 C240.423377,42.2154615 240.52063,42.4286952 240.643516,42.5921996 C240.767155,42.7549504 240.936029,42.8898227 241.149382,42.9960628 C241.362736,43.1030564 241.616046,43.1557997 241.909313,43.1557997 C242.143022,43.1557997 242.354867,43.1286746 242.544096,43.0714104 C242.735586,43.0148997 242.897675,42.9448264 243.035638,42.8604371 C243.170586,42.7783082 243.293472,42.656245 243.399772,42.4965081 C243.506825,42.3367711 243.595785,42.1883363 243.66439,42.0519571 C243.735257,41.915578 243.793307,41.7264554 243.840049,41.48685 C243.886791,41.2464911 243.920716,41.0460665 243.944087,40.8810552 C243.967458,40.7190578 243.986305,40.4892476 243.999875,40.192378 C244.013446,39.8962618 244.020231,39.6664516 244.020231,39.5021938 L244.020231,38.7675545 L244.020231,38.437532 C244.020231,38.151211 244.016461,37.9070847 244.009676,37.7021392 C244.003645,37.5002076 243.984044,37.2801926 243.955395,37.0428476 C243.924485,36.8070095 243.883021,36.6080918 243.830248,36.4483549 C243.776721,36.2886179 243.703593,36.128881 243.610109,35.9683906 C243.516626,35.8086536 243.403541,35.6820696 243.270101,35.5886386 C243.136661,35.4952075 242.970803,35.4206134 242.775543,35.3633492 C242.577267,35.3075919 242.356375,35.2789599 242.10985,35.2789599 C241.656003,35.2789599 241.262467,35.4251342 240.929244,35.7189899 C240.59602,36.0120922 240.352511,36.3586912 240.199469,36.7580336 L238.018439,36.7580336 L238.018439,27.101483 L245.940412,27.101483 L245.940412,29.6610415 L240.338941,29.6610415 L240.179114,33.9995573 C240.899088,33.5730898 241.752502,33.359856 242.739356,33.359856 C243.319858,33.359856 243.831002,33.4480128 244.275803,33.6235727 C244.717588,33.8013931 245.083229,34.0425055 245.370464,34.3491703 C245.656946,34.6558351 245.891409,35.0355871 246.076114,35.4884262 C246.258558,35.9420189 246.388228,36.4219832 246.465126,36.9283192 C246.54127,37.4346552 246.580473,37.9982554 246.580473,38.6176128 C246.580473,39.383898 246.540516,40.0770961 246.460603,40.697207 C246.380689,41.3165644 246.237448,41.9133175 246.030126,42.4867129 C245.823558,43.0593548 245.553662,43.5393191 245.220438,43.9258524 C244.886461,44.3123857 244.451461,44.6198039 243.915439,44.8511211 C243.377909,45.0801779 242.756696,45.1954597 242.049538,45.1954597" id="Fill-96" fill="#221F20" mask="url(#mask-2)"></path>
                    <path d="M252.641898,43.0961998 C253.922019,43.0961998 254.56208,42.030031 254.56208,39.89694 L254.56208,32.2197713 C254.56208,31.8603631 254.549263,31.5386288 254.522123,31.2560752 C254.495736,30.9727682 254.439948,30.6849403 254.357773,30.3963589 C254.273336,30.1047636 254.163267,29.8636513 254.026811,29.6707614 C253.889601,29.477118 253.70565,29.3211484 253.471941,29.2005922 C253.238986,29.0807895 252.962305,29.0212649 252.641898,29.0212649 C252.321491,29.0212649 252.04481,29.0807895 251.811855,29.2005922 C251.578146,29.3211484 251.392687,29.477118 251.256985,29.6707614 C251.119022,29.8636513 251.008952,30.1047636 250.926023,30.3963589 C250.842341,30.6849403 250.78806,30.9727682 250.761673,31.2560752 C250.734533,31.5386288 250.721717,31.8603631 250.721717,32.2197713 L250.721717,39.89694 C250.721717,40.3173797 250.749611,40.7039129 250.806153,41.0565398 C250.862696,41.4099201 250.959195,41.746724 251.097159,42.0661978 C251.23286,42.3864252 251.43189,42.6388397 251.691985,42.8204275 C251.95208,43.0050292 252.268718,43.0961998 252.641898,43.0961998 M252.641898,45.1953844 C251.668614,45.1953844 250.839325,44.9655742 250.157046,44.5059537 C249.472506,44.0455797 248.968901,43.4247154 248.645478,42.6411002 C248.322055,41.8589919 248.160721,40.9435184 248.160721,39.89694 L248.160721,32.2197713 C248.160721,30.5734258 248.534655,29.2797072 249.281015,28.3363551 C250.028129,27.3937564 251.148424,26.9213268 252.641898,26.9213268 C254.128587,26.9213268 255.24662,27.3945099 255.998258,28.3408759 C256.74688,29.287242 257.123075,30.5802071 257.123075,32.2197713 L257.123075,39.89694 C257.123075,41.5033511 256.740848,42.7887815 255.977902,43.751724 C255.213449,44.7146666 254.102201,45.1953844 252.641898,45.1953844" id="Fill-97" fill="#221F20" mask="url(#mask-2)"></path>
                    <path d="M263.524359,43.0961998 C264.80448,43.0961998 265.44454,42.030031 265.44454,39.89694 L265.44454,32.2197713 C265.44454,31.8603631 265.431724,31.5386288 265.404583,31.2560752 C265.378197,30.9727682 265.322408,30.6849403 265.240233,30.3963589 C265.155797,30.1047636 265.045727,29.8636513 264.909272,29.6707614 C264.772062,29.477118 264.588111,29.3211484 264.354402,29.2005922 C264.121447,29.0807895 263.844766,29.0212649 263.524359,29.0212649 C263.203951,29.0212649 262.92727,29.0807895 262.694316,29.2005922 C262.460607,29.3211484 262.275148,29.477118 262.139446,29.6707614 C262.001482,29.8636513 261.891413,30.1047636 261.808484,30.3963589 C261.724801,30.6849403 261.67052,30.9727682 261.644134,31.2560752 C261.616994,31.5386288 261.604177,31.8603631 261.604177,32.2197713 L261.604177,39.89694 C261.604177,40.3173797 261.632072,40.7039129 261.688614,41.0565398 C261.745156,41.4099201 261.841656,41.746724 261.979619,42.0661978 C262.115321,42.3864252 262.31435,42.6388397 262.574446,42.8204275 C262.834541,43.0050292 263.151179,43.0961998 263.524359,43.0961998 M263.524359,45.1953844 C262.551075,45.1953844 261.721786,44.9655742 261.039507,44.5059537 C260.354966,44.0455797 259.851361,43.4247154 259.527939,42.6411002 C259.204516,41.8589919 259.043181,40.9435184 259.043181,39.89694 L259.043181,32.2197713 C259.043181,30.5734258 259.417115,29.2797072 260.163476,28.3363551 C260.91059,27.3937564 262.030884,26.9213268 263.524359,26.9213268 C265.011048,26.9213268 266.129081,27.3945099 266.880718,28.3408759 C267.62934,29.287242 268.005536,30.5802071 268.005536,32.2197713 L268.005536,39.89694 C268.005536,41.5033511 267.623309,42.7887815 266.860363,43.751724 C266.095909,44.7146666 264.984662,45.1953844 263.524359,45.1953844" id="Fill-98" fill="#221F20" mask="url(#mask-2)"></path>
                    <polygon id="Stroke-99" stroke="#221F20" stroke-width="4" mask="url(#mask-2)" points="486.398318 243.220902 486.398318 233.311184 478.644464 233.311184 478.644464 225.561681 468.729181 225.561681 468.729181 233.311184 459.118473 233.311184 459.118473 225.561681 449.20319 225.561681 449.20319 233.311184 441.449336 233.311184 441.449336 243.220902 449.20319 243.220902 449.20319 252.826216 441.449336 252.826216 441.449336 262.735935 449.20319 262.735935 449.20319 270.485437 459.118473 270.485437 459.118473 262.735935 468.729181 262.735935 468.729181 270.485437 478.644464 270.485437 478.644464 262.735935 486.398318 262.735935 486.398318 252.826216 478.644464 252.826216 478.644464 243.220902"></polygon>
                    <polygon id="Stroke-100" stroke="#221F20" stroke-width="3" mask="url(#mask-2)" points="459.118624 252.825915 468.729332 252.825915 468.729332 243.220601 459.118624 243.220601"></polygon>
                    <path d="M230.106718,435.745818 C230.106718,435.745818 227.967906,443.012342 235.239264,448.569229 C235.239264,448.569229 236.522401,432.123858 249.353013,419.075158 C249.353013,419.075158 253.41653,442.585121 259.938512,448.569229 C259.938512,448.569229 266.88871,446.859591 266.033034,436.173039 C266.033034,436.173039 281.336435,459.440383 275.656558,473.789583 C272.002408,483.021173 262.611839,484.903357 262.611839,484.903357 L235.666725,485.030694 C235.666725,485.030694 221.301929,483.657861 221.124762,461.820614 C221.013939,448.142008 230.106718,435.745818 230.106718,435.745818 L230.106718,435.745818 Z" id="Stroke-101" stroke="#221F20" stroke-width="4" stroke-linecap="round" stroke-linejoin="round" mask="url(#mask-2)"></path>
                    <path d="M219.735024,436.280108 C219.735024,436.280108 213.102219,445.888436 219.735024,445.898231 C222.08719,445.901245 219.735024,436.280108 219.735024,436.280108 L219.735024,436.280108 Z" id="Stroke-102" stroke="#221F20" stroke-width="2" stroke-linecap="round" stroke-linejoin="round" mask="url(#mask-2)"></path>
                    <path d="M236.03591,411.006633 C236.03591,411.006633 226.166614,427.127256 236.03591,427.143079 C239.536264,427.149107 236.03591,411.006633 236.03591,411.006633 L236.03591,411.006633 Z" id="Stroke-103" stroke="#221F20" stroke-width="2" stroke-linecap="round" stroke-linejoin="round" mask="url(#mask-2)"></path>
                    <path d="M276.661883,436.173265 C276.661883,436.173265 270.029077,445.781593 276.661883,445.791388 C279.014048,445.794402 276.661883,436.173265 276.661883,436.173265 L276.661883,436.173265 Z" id="Stroke-104" stroke="#221F20" stroke-width="2" stroke-linecap="round" stroke-linejoin="round" mask="url(#mask-2)"></path>
                    <path d="M259.981635,420.78472 C259.981635,420.78472 253.348829,437.22557 259.981635,437.242146 C262.333801,437.247421 259.981635,420.78472 259.981635,420.78472 L259.981635,420.78472 Z" id="Stroke-105" stroke="#221F20" stroke-width="2" stroke-linecap="round" stroke-linejoin="round" mask="url(#mask-2)"></path>
                    <path d="M235.666801,485.030694 C235.666801,485.030694 223.316423,462.20338 228.586933,455.807121 C228.586933,455.807121 233.856688,465.338595 238.750249,459.569227 C243.644563,453.800614 243.76971,444.394971 243.76971,444.394971 C243.76971,444.394971 251.7045,462.328457 259.030139,457.688551 C266.355778,453.047891 266.732728,448.9098 266.732728,448.9098 C266.732728,448.9098 274.427024,473.617791 262.611914,484.903357 L235.666801,485.030694 L235.666801,485.030694 Z" id="Stroke-106" stroke="#221F20" stroke-width="2" stroke-linecap="round" stroke-linejoin="round" mask="url(#mask-2)"></path>
                    <polyline id="Stroke-107" stroke="#221F20" stroke-width="2" mask="url(#mask-2)" points="100.271694 409.740266 118.655527 431.493123 126.385257 424.968019 107.549083 402.679441"></polyline>
                    <path d="M94.4004771,402.793291 L84.8018316,412.106257 C81.3617892,410.939122 77.4075875,411.685063 74.6226836,414.387029 C70.6639586,418.22825 70.5697212,424.549916 74.4130996,428.507172 C78.257232,432.464429 84.5824469,432.55786 88.5411719,428.716639 C91.3268297,426.01392 92.1900444,422.086048 91.1240308,418.615537 L100.271845,409.740341" id="Stroke-108" stroke="#221F20" stroke-width="4" mask="url(#mask-2)"></path>
                    <path d="M101.677867,395.732391 L89.0018044,380.73294 L88.88495,380.831646 L99.0776681,372.227701 C89.3817696,369.521969 84.274856,375.139887 84.274856,375.139887 L72.9844605,384.67136 L71.5874852,383.018987 L67.517183,386.454838 L74.8224669,395.098717 L78.8920152,391.662866 L77.710655,390.264414 L81.2720752,387.258044 L94.4004771,402.793216" id="Stroke-109" stroke="#221F20" stroke-width="2" mask="url(#mask-2)"></path>
                    <path d="M107.549008,402.679516 L119.600088,390.987073 C123.07481,392.219007 127.09837,391.502451 129.942832,388.779388 C132.870977,385.975703 133.727406,381.833091 132.492519,378.235996 L128.667988,381.89789 L126.908387,383.582663 L126.502036,383.971456 L121.822583,382.609925 L120.662332,377.878848 L121.068684,377.490054 L122.828285,375.805282 L126.652816,372.143387 C123.110243,370.756238 118.932133,371.434366 116.003988,374.237298 C113.173097,376.947552 112.278218,380.910083 113.336693,384.420528 L101.677641,395.732466" id="Stroke-110" stroke="#221F20" stroke-width="4" mask="url(#mask-2)"></path>
                    <polygon id="Stroke-111" stroke="#221F20" stroke-width="2" mask="url(#mask-2)" points="82.7736917 426.275075 78.0851922 424.944436 76.8932774 420.221647 80.3906162 416.828744 85.0791157 418.158629 86.2710305 422.882171"></polygon>
                    <path d="M81.271849,387.258195 L89.0015782,380.733091" id="Stroke-112" stroke="#221F20" stroke-width="2" mask="url(#mask-2)"></path>
                    <path d="M100.271694,409.740266 L107.549083,402.679441" id="Stroke-113" stroke="#221F20" stroke-width="4" mask="url(#mask-2)"></path>
                    <path d="M101.677867,395.732391 L94.4004771,402.793216" id="Stroke-114" stroke="#221F20" stroke-width="4" mask="url(#mask-2)"></path>
                </g>
                <g id="Cog4.0" transform="translate(103.288508, 130.617514)">
                    <path d="M139.631657,10.1531486 C175.979892,10.1531486 207.512418,17.0313687 216.326536,19.1409337 L216.326536,68.416018 L63.977903,68.416018 L63.977903,19.1246515 C72.6198506,17.0038924 103.357353,10.1531486 139.631657,10.1531486" id="Fill-1-Copy" fill="#C8C9C4"></path>
                    <polygon id="Fill-2" fill="#ABABA8" points="142.070401 184.88884 216.578715 184.88884 216.578715 189.507902 142.070401 189.507902"></polygon>
                    <polygon id="Fill-3" fill="#C8C8C4" points="89.1117612 71.7742257 191.73147 71.7742257 191.73147 181.033006 89.1117612 181.033006"></polygon>
                    <path d="M97.0245159,22.6049759 C87.4741157,22.6049759 79.7315059,30.6392336 79.7315059,40.550017 C79.7315059,50.4608005 87.4741157,58.4940405 97.0245159,58.4940405 C106.575929,58.4940405 114.317526,50.4608005 114.317526,40.550017 C114.317526,30.6392336 106.575929,22.6049759 97.0245159,22.6049759" id="Fill-4" fill="#8E8F8B"></path>
                    <path d="M183.307267,22.7454101 C173.831812,22.7454101 166.149968,30.7165741 166.149968,40.550017 C166.149968,50.3824423 173.831812,58.3536064 183.307267,58.3536064 C192.782723,58.3536064 200.464566,50.3824423 200.464566,40.550017 C200.464566,30.7165741 192.782723,22.7454101 183.307267,22.7454101" id="Fill-5" fill="#8E8F8B"></path>
                    <polygon id="Fill-6" fill="#ABABA8" points="63.7257239 184.88884 138.234037 184.88884 138.234037 189.507902 63.7257239 189.507902"></polygon>
                    <path d="M39.833519,131.314232 L39.8112381,131.369184 L24.4961637,125.230787 L24.5022403,125.218576 C27.7279057,118.026923 30.3155274,112.895989 33.2039411,108.424484 L46.0549515,118.108334 C43.6557046,121.804398 42.0504677,125.597137 39.833519,131.314232" id="Fill-7" fill="#C8C8C4"></path>
                    <path d="M46.6767909,117.178212 L33.8186911,107.488256 C36.9501691,102.809154 40.500933,98.7670927 45.6073082,93.6677051 L53.284088,109.301689 L53.0481131,109.549993 C50.3045252,112.432963 48.3043088,114.817291 46.6767909,117.178212" id="Fill-8" fill="#C8C8C4"></path>
                    <path d="M39.833519,131.314232 L39.8112381,131.369184 L37.3633784,130.38818 C37.3633784,130.38818 40.2943284,121.864439 44.0719522,116.61444 C45.1404222,117.419393 46.0549515,118.108334 46.0549515,118.108334 C43.6557046,121.804398 42.0504677,125.597137 39.833519,131.314232" id="Fill-9" fill="#A0A19D"></path>
                    <path d="M46.6767909,117.178212 L33.8186911,107.488256 C34.0131426,107.198229 34.4415433,106.57747 34.639033,106.291513 C37.8960942,108.659559 44.557068,113.918716 45.3926014,114.518105 C47.0677193,112.284388 52.1082646,106.906167 52.1082646,106.906167 L53.284088,109.301689 L53.0481131,109.549993 C50.3045252,112.432963 48.3043088,114.817291 46.6767909,117.178212" id="Fill-10" fill="#A0A19D"></path>
                    <polygon id="Fill-11" fill="#ABABA8" points="63.7257239 191.710072 138.234037 191.710072 138.234037 196.018754 63.7257239 196.018754"></polygon>
                    <polygon id="Fill-12" fill="#ABABA8" points="142.070401 191.710072 216.578715 191.710072 216.578715 196.018754 142.070401 196.018754"></polygon>
                    <path d="M226.654741,108.905827 L234.400389,93.1344624 C239.439922,98.1615976 243.033222,102.095789 246.227492,106.690428 L233.261026,116.461795 C231.505899,114.141578 229.448968,111.840697 226.83704,109.097143 L226.654741,108.905827" id="Fill-13" fill="#C8C8C4"></path>
                    <path d="M226.654741,108.905827 L228.157689,105.846805 L234.861199,113.818987 C238.551725,111.295243 242.563298,108.221974 245.638061,105.855964 C245.836563,106.131744 246.03304,106.409559 246.227492,106.690428 L233.261026,116.461795 C231.505899,114.141578 229.448968,111.840697 226.83704,109.097143 L226.654741,108.905827" id="Fill-14" fill="#A0A19D"></path>
                    <path d="M233.914261,117.34714 L246.848318,107.599179 C249.79446,111.989273 252.451962,117.061184 255.681679,124.257925 L240.845644,130.830853 L240.836529,130.808465 C238.548686,124.909214 236.568725,121.029975 233.914261,117.34714" id="Fill-15" fill="#C8C8C4"></path>
                    <path d="M233.914261,117.34714 L236.088673,115.708742 C236.088673,115.708742 241.170742,124.172443 242.91169,128.650054 C246.227492,127.321017 251.279177,124.663963 255.235048,123.269798 C255.341389,123.503855 255.574326,124.01878 255.681679,124.257925 L240.845644,130.830853 L240.836529,130.808465 C238.548686,124.909214 236.568725,121.029975 233.914261,117.34714" id="Fill-16" fill="#A0A19D"></path>
                    <path d="M223.636693,40.2935721 C223.636693,51.0133783 223.262982,54.1253175 219.614993,54.6259957 L219.614993,25.9601308 C223.262982,26.460809 223.636693,29.5737658 223.636693,40.2935721" id="Fill-17" fill="#3483AA"></path>
                    <path d="M223.601247,44.6307483 C223.450344,51.8905829 222.714062,54.2006228 219.614993,54.6259957 L219.614993,48.8977074 C221.119965,48.6880738 222.372759,47.7091054 223.601247,44.6307483" id="Fill-18" fill="#2A637F"></path>
                    <path d="M139.631657,2.84446734 C153.279715,2.84446734 159.396833,3.03985397 160.205021,7.53476418 C153.624056,7.10633828 146.726095,6.84887569 139.631657,6.84887569 C132.510886,6.84887569 125.61495,7.10837356 119.057279,7.53985237 C119.862429,3.03985397 125.978534,2.84446734 139.631657,2.84446734" id="Fill-19" fill="#3483AA"></path>
                    <path d="M123.196461,7.29358381 C121.802893,7.36787143 120.423503,7.45030017 119.057279,7.53985237 C119.532267,4.88788588 121.851505,3.73083066 126.469727,3.22811714 C124.30848,4.51034192 123.633977,5.90857751 123.196461,7.29358381" id="Fill-20" fill="#2B637F"></path>
                    <path d="M57.0880438,40.2935721 C57.0880438,30.0021917 57.4344104,26.7233598 60.689446,26.0344184 L60.689446,54.5527258 C57.4344104,53.8627667 57.0880438,50.5849524 57.0880438,40.2935721" id="Fill-21" fill="#3483AA"></path>
                    <path d="M60.689446,49.5276258 L60.689446,54.5527258 C58.1575266,54.0164302 57.3857975,51.9150062 57.1670397,46.1663651 C58.4056547,48.3614118 59.3394266,49.0727413 60.689446,49.5276258" id="Fill-22" fill="#2B637F"></path>
                    <path d="M45.3926014,147.133426 C45.3642439,154.329149 41.76588,161.123923 36.1936316,164.919715 L36.261487,143.580849 L13.7061357,143.492314 L13.6453696,164.654111 C7.66902691,160.864425 3.95723297,154.206015 3.98559047,146.970603 C4.02610118,136.276238 12.3561162,127.205007 22.9486545,126.320679 L23.9918053,126.234179 L39.6785655,132.521151 L40.0137917,133.033024 C42.5295069,136.868504 45.4128568,141.936345 45.3926014,147.133426" id="Fill-23" fill="#3483AA"></path>
                    <path d="M55.277215,109.185678 L54.1854513,108.607659 L46.3830883,92.7172305 L46.3830883,92.1086826 C46.3830883,82.1063116 52.9346831,73.6568574 60.689446,73.6568574 L60.689446,110.552367 C58.8330427,110.551349 56.9938564,110.096465 55.277215,109.185678" id="Fill-24" fill="#3483AA"></path>
                    <path d="M55.277215,109.185678 L54.1854513,108.607659 L46.3830883,92.7172305 L46.3830883,92.1086826 C46.3830883,90.8580046 46.4853778,89.6327676 46.6798293,88.4441655 C52.1214306,89.1239482 58.9282429,92.3295102 60.689446,101.93602 L60.689446,110.552367 C58.8330427,110.551349 56.9938564,110.096465 55.277215,109.185678" id="Fill-25-Copy" fill="#2B637F"></path>
                    <path d="M220.008959,110.153452 C219.877299,110.153452 219.746652,110.147346 219.614993,110.143276 L219.614993,73.4401003 C219.746652,73.4350121 219.877299,73.426871 220.008959,73.426871 C227.581424,73.426871 233.74209,81.6646564 233.74209,91.7901616 L233.74209,91.983513 L225.711855,108.336967 L224.880372,108.777605 C223.199178,109.670074 221.924103,110.153452 220.008959,110.153452" id="Fill-26" fill="#3483AA"></path>
                    <path d="M220.008959,110.153452 C219.877299,110.153452 219.746652,110.147346 219.614993,110.143276 L219.614993,84.46011 C224.879359,84.4570571 231.098766,88.4706242 232.41739,94.6822909 C231.722631,96.0601737 225.711855,108.336967 225.711855,108.336967 L224.880372,108.777605 C223.199178,109.670074 221.924103,110.153452 220.008959,110.153452" id="Fill-27-Copy" fill="#2A637F"></path>
                    <path d="M265.814421,167.280637 L263.171097,161.47399 L271.395784,150.50588 L265.668582,136.952968 L251.124224,135.160906 L242.306055,146.920739 L248.033257,160.472634 L261.6722,162.153773 L264.293243,167.911573 C263.912443,168.050989 263.527591,168.183282 263.13565,168.303364 C257.543146,170.012997 251.623518,169.432943 246.465492,166.669036 C241.307466,163.905129 237.528829,159.28912 235.827379,153.669719 C233.568907,146.216533 235.325046,138.308463 240.525609,132.516063 L241.033006,131.951274 L256.15059,125.254193 L257.170448,125.273528 C266.678312,125.448562 274.928318,131.713146 277.699251,140.861718 C280.930993,151.529625 275.661562,162.79285 265.814421,167.280637" id="Fill-28" fill="#3483AA"></path>
                    <polygon id="Fill-29-Copy" fill="#8E8F8C" points="63.7257239 71.7742257 86.9201317 71.7742257 86.9201317 181.033006 63.7257239 181.033006"></polygon>
                    <polygon id="Fill-30" fill="#8E8F8C" points="193.924112 71.7742257 216.579727 71.7742257 216.579727 181.033006 193.924112 181.033006"></polygon>
                    <polygon id="Fill-31-Copy" fill="#3483AA" points="50.4331467 199.172417 138.234037 199.172417 138.234037 221.969559 50.4331467 221.969559"></polygon>
                    <polygon id="Fill-32" fill="#3483AA" points="142.070401 199.172417 229.960415 199.172417 229.960415 221.969559 142.070401 221.969559"></polygon>
                    <polygon id="Fill-33-Copy" fill="#2B637F" points="50.4331467 199.172417 60.689446 199.172417 60.689446 221.969559 50.4331467 221.969559"></polygon>
                    <polygon id="Fill-34-Copy" fill="#2B637F" points="66.3649967 199.172417 70.681413 199.172417 70.681413 221.969559 66.3649967 221.969559"></polygon>
                    <polygon id="Fill-35-Copy" fill="#2B637F" points="142.070401 199.172417 152.326701 199.172417 152.326701 221.969559 142.070401 221.969559"></polygon>
                    <polygon id="Fill-36-Copy" fill="#2B637F" points="158.002252 199.172417 162.318668 199.172417 162.318668 221.969559 158.002252 221.969559"></polygon>
                    <path d="M97.0245159,26.3946625 C104.516972,26.3946625 110.612821,32.7447281 110.612821,40.550017 C110.612821,48.3542883 104.516972,54.7043539 97.0245159,54.7043539 C89.5320598,54.7043539 83.4372233,48.3542883 83.4372233,40.550017 C83.4372233,32.7447281 89.5320598,26.3946625 97.0245159,26.3946625" id="Fill-37-Copy" fill="#4C4C49"></path>
                    <path d="M106.691384,50.4872591 C104.226308,53.0893613 100.803153,54.7043539 97.0245159,54.7043539 C89.5320598,54.7043539 83.4372233,48.3542883 83.4372233,40.550017 C83.4372233,36.6473726 84.960426,33.1090427 87.4214517,30.5456108 C87.4214517,42.2057152 94.0803999,50.4872591 106.691384,50.4872591" id="Fill-38-Copy" fill="#393A38"></path>
                    <path d="M183.307267,26.3946625 C190.799723,26.3946625 196.895573,32.7447281 196.895573,40.550017 C196.895573,48.3542883 190.799723,54.7043539 183.307267,54.7043539 C175.814811,54.7043539 169.718962,48.3542883 169.718962,40.550017 C169.718962,32.7447281 175.814811,26.3946625 183.307267,26.3946625" id="Fill-39-Copy" fill="#4C4C49"></path>
                    <path d="M192.911344,50.5544232 C190.450319,53.1168375 187.053495,54.7043539 183.307267,54.7043539 C175.814811,54.7043539 169.718962,48.3542883 169.718962,40.550017 C169.718962,36.423492 171.422437,32.7040225 174.135642,30.1151496 C174.135642,42.9516444 179.391907,50.5544232 192.911344,50.5544232" id="Fill-40-Copy" fill="#393A38"></path>
                    <path d="M75.3624257,86.4190645 C72.2927266,86.4190645 69.7952412,89.023202 69.7952412,92.2236757 C69.7952412,95.4241495 72.2927266,98.0293046 75.3624257,98.0293046 C78.4331376,98.0293046 80.930623,95.4241495 80.930623,92.2236757 C80.930623,89.023202 78.4331376,86.4190645 75.3624257,86.4190645" id="Fill-41-Copy" fill="#4C4C49"></path>
                    <path d="M75.3624257,161.388509 C72.2927266,161.388509 69.7952412,163.992646 69.7952412,167.19312 C69.7952412,170.393594 72.2927266,172.998749 75.3624257,172.998749 C78.4331376,172.998749 80.930623,170.393594 80.930623,167.19312 C80.930623,163.992646 78.4331376,161.388509 75.3624257,161.388509" id="Fill-42-Copy" fill="#4C4C49"></path>
                    <path d="M204.969358,86.4190645 C201.899658,86.4190645 199.40116,89.023202 199.40116,92.2236757 C199.40116,95.4241495 201.899658,98.0293046 204.969358,98.0293046 C208.04007,98.0293046 210.537555,95.4241495 210.537555,92.2236757 C210.537555,89.023202 208.04007,86.4190645 204.969358,86.4190645" id="Fill-43-Copy" fill="#4C4C49"></path>
                    <path d="M204.969358,161.388509 C201.899658,161.388509 199.40116,163.992646 199.40116,167.19312 C199.40116,170.393594 201.899658,172.998749 204.969358,172.998749 C208.04007,172.998749 210.537555,170.393594 210.537555,167.19312 C210.537555,163.992646 208.04007,161.388509 204.969358,161.388509" id="Fill-44-Copy" fill="#4C4C49"></path>
                    <path d="M71.532138,88.0137044 C70.4626552,89.0730663 69.7952412,90.5689952 69.7952412,92.2236757 C69.7952412,95.4241495 72.2927266,98.0293046 75.3624257,98.0293046 C76.8268879,98.0293046 78.1617159,97.4360212 79.1572666,96.4682468 C74.8185694,96.4458588 71.6161977,93.0215045 71.532138,88.0137044" id="Fill-45-Copy" fill="#393A38"></path>
                    <path d="M71.5665721,162.949566 C70.4768339,164.009946 69.7952412,165.520122 69.7952412,167.19312 C69.7952412,170.393594 72.2927266,172.998749 75.3624257,172.998749 C76.8795519,172.998749 78.2559033,172.362725 79.2615817,171.333892 C74.0296233,171.333892 71.5665721,169.342373 71.5665721,162.949566" id="Fill-46-Copy" fill="#393A38"></path>
                    <path d="M200.926389,88.2355496 C199.981476,89.276594 199.40116,90.6809354 199.40116,92.2236757 C199.40116,95.4241495 201.899658,98.0293046 204.969358,98.0293046 C206.418628,98.0293046 207.74029,97.4482329 208.732803,96.498776 C203.435014,96.498776 200.926389,94.2070536 200.926389,88.2355496" id="Fill-47-Copy" fill="#393A38"></path>
                    <path d="M201.118814,163.003501 C200.061485,164.060828 199.40116,165.548616 199.40116,167.19312 C199.40116,170.393594 201.899658,172.998749 204.969358,172.998749 C206.366977,172.998749 207.64509,172.4594 208.623424,171.569984 C204.012292,171.569984 201.118814,168.409198 201.118814,163.003501" id="Fill-48-Copy" fill="#393A38"></path>
                    <path d="M129.123178,170.73552 C132.415686,171.547596 135.467156,171.911911 138.945,171.911911 L139.774457,171.911911 C143.251289,171.911911 146.302758,171.547596 149.596279,170.73552 L151.005039,164.606282 C151.041499,164.298955 151.135686,163.788101 151.37875,163.45228 C151.684606,163.02996 152.151492,162.877314 152.461399,162.77555 L152.537357,162.750109 C154.03524,162.243325 155.52097,161.617477 156.95505,160.888848 L160.759005,158.62562 C162.342974,157.62121 163.861113,156.472296 165.251643,155.2206 L165.309371,155.167683 C165.535218,154.959067 165.913993,154.611035 166.431518,154.552012 C166.840676,154.506218 167.329843,154.674128 167.614431,154.79421 L173.617105,156.581183 C175.943433,154.102215 177.762364,151.613071 179.474954,148.572367 L179.8831,147.847808 C181.596703,144.807103 182.784679,141.95975 183.704272,138.679901 L179.08909,134.427189 C178.87337,134.268437 178.44902,133.920404 178.273812,133.532684 C178.058092,133.056429 178.161394,132.550663 178.22216,132.249442 L178.237352,132.171084 C178.535106,130.614096 178.725506,129.00928 178.801464,127.400393 L178.657651,123.332891 C178.586757,121.429907 178.358884,119.534046 177.978083,117.698226 L177.961879,117.61885 C177.896049,117.318646 177.78667,116.815933 177.994288,116.33866 C178.160382,115.957046 178.55131,115.617155 178.797412,115.429909 L183.34474,111.107997 C182.378559,107.84443 181.147034,105.014377 179.387856,102.000131 L178.96857,101.28066 C177.209393,98.2664144 175.352989,95.805764 172.990202,93.3624135 L167.015885,95.2409745 C166.733323,95.3651265 166.243143,95.5432132 165.83601,95.50149 C165.318486,95.4495905 164.93566,95.1076639 164.706774,94.9041361 L164.647021,94.8502013 C163.446891,93.803051 162.149536,92.8271355 160.791414,91.9489133 L157.567774,90.1354811 C155.909873,89.2409767 154.165887,88.4797829 152.398607,87.8803937 L152.32265,87.8559704 C152.030973,87.7603123 151.544844,87.6005431 151.238988,87.1792406 C150.994911,86.8424022 150.900724,86.3315476 150.865277,86.0242207 L149.455504,79.8949827 C146.162996,79.082907 143.111527,78.7185923 139.633682,78.7185923 L138.804225,78.7185923 C135.327394,78.7185923 132.275924,79.082907 128.982403,79.8949827 L127.573643,86.0242207 C127.537184,86.3315476 127.442996,86.8424022 127.199932,87.178223 C126.893063,87.6015607 126.405922,87.7603123 126.115258,87.8559704 L126.0393,87.8803937 C124.53534,88.3902307 123.040495,89.0211667 121.598313,89.7538666 L117.819677,92.0048834 C116.234695,93.0103105 114.716556,94.1592246 113.327039,95.4099026 L113.267286,95.464855 C113.041438,95.6724533 112.663676,96.0194681 112.147164,96.0784912 C111.735981,96.1283555 111.247827,95.9563745 110.964252,95.8362932 L104.961577,94.0493196 C102.635249,96.5282875 100.817331,99.0174318 99.1037282,102.057119 L98.6955827,102.782695 C96.9819796,105.824417 95.794003,108.67177 94.8754227,111.950602 L99.4885799,116.202297 C99.7377208,116.385472 100.133713,116.719257 100.304871,117.097819 C100.52059,117.573056 100.418301,118.077805 100.356522,118.380044 L100.34133,118.458402 C100.043577,120.015389 99.8541891,121.620205 99.7772187,123.23011 L99.9210318,127.297612 C99.9919255,129.201614 100.220811,131.097475 100.600599,132.932277 L100.616803,133.010635 C100.682633,133.310839 100.792012,133.813552 100.584395,134.291843 C100.418301,134.674475 100.027372,135.014366 99.7822826,135.200594 L95.2329297,139.522506 C96.2011357,142.787091 97.4316485,145.616126 99.1908262,148.630372 L99.610112,149.349843 C101.36929,152.364089 103.225693,154.824739 105.587468,157.26809 L111.562797,155.389528 C111.84536,155.265377 112.331488,155.089325 112.743685,155.130031 C113.260196,155.179895 113.644035,155.523857 113.873934,155.728402 L113.932674,155.780302 C115.132804,156.827452 116.429147,157.803367 117.787268,158.68159 L121.010908,160.495022 C122.669822,161.390544 124.412795,162.151738 126.180075,162.749092 L126.257045,162.77555 C126.566952,162.877314 127.034851,163.02996 127.339694,163.451262 C127.583771,163.788101 127.677958,164.298955 127.713405,164.606282 L129.123178,170.73552" id="Fill-49-Copy" fill="#DDDCD8"></path>
                    <path d="M75.3624257,68.416018 L79.1572666,68.416018 L79.1572666,15.8967015 C77.8264897,16.1439877 76.56053,16.3872034 75.3624257,16.6243132 L75.3624257,68.416018" id="Fill-50-Copy" fill="#A0A19D"></path>
                    <path d="M70.681413,17.5900523 C67.7990759,18.2097943 65.5304761,18.743037 63.977903,19.1246515 L63.977903,68.416018 L70.681413,68.416018 L70.681413,17.5900523" id="Fill-51-Copy" fill="#A0A19D"></path>
                    <polygon id="Fill-52-Copy" fill="#8E8F8B" points="83.3126528 184.88884 86.9201317 184.88884 86.9201317 189.507902 83.3126528 189.507902"></polygon>
                    <polygon id="Fill-53-Copy" fill="#8E8F8B" points="63.7257239 184.88884 79.2615817 184.88884 79.2615817 189.507902 63.7257239 189.507902"></polygon>
                    <polygon id="Fill-54-Copy" fill="#8E8F8B" points="83.3126528 191.555391 86.9201317 191.555391 86.9201317 196.174453 83.3126528 196.174453"></polygon>
                    <polygon id="Fill-55-Copy" fill="#8E8F8B" points="63.7257239 191.555391 79.2615817 191.555391 79.2615817 196.174453 63.7257239 196.174453"></polygon>
                    <polygon id="Fill-56-Copy" fill="#8E8F8B" points="161.658343 184.88884 165.265822 184.88884 165.265822 189.507902 161.658343 189.507902"></polygon>
                    <polygon id="Fill-57-Copy" fill="#8E8F8B" points="142.070401 184.88884 157.606259 184.88884 157.606259 189.507902 142.070401 189.507902"></polygon>
                    <polygon id="Fill-58-Copy" fill="#8E8F8B" points="161.658343 191.555391 165.265822 191.555391 165.265822 196.174453 161.658343 196.174453"></polygon>
                    <polygon id="Fill-59-Copy" fill="#8E8F8B" points="142.070401 191.555391 157.606259 191.555391 157.606259 196.174453 142.070401 196.174453"></polygon>
                    <path d="M265.814421,167.280637 C273.742367,163.667002 278.698852,155.662256 278.645176,147.112055 L264.392495,164.156486 L265.814421,167.280637" id="Fill-60" fill="#2A637F"></path>
                    <path d="M261.626626,125.814912 L253.95491,135.508939 L265.668582,136.952968 L267.461181,141.196521 L273.923652,133.605954 C270.85294,129.699239 266.528422,126.929226 261.626626,125.814912" id="Fill-61-Copy" fill="#2A637F"></path>
                    <path d="M250.763679,160.809472 L248.033257,160.472634 L243.217546,149.078133 L237.064981,156.851875 C238.990253,160.867478 242.077169,164.180909 245.999619,166.405468 L250.763679,160.809472" id="Fill-62-Copy" fill="#2A637F"></path>
                    <path d="M263.13565,168.303364 C263.527591,168.183282 263.912443,168.050989 264.293243,167.911573 L263.220722,165.556757 L260.382947,168.949564 C261.305578,168.792848 262.225172,168.581179 263.13565,168.303364" id="Fill-63-Copy" fill="#2A637F"></path>
                    <path d="M13.6453696,164.654111 L13.7061357,143.725354 L5.30623966,154.339325 C6.8800808,158.561508 9.78672435,162.207708 13.6453696,164.654111" id="Fill-64-Copy" fill="#2B637F"></path>
                    <path d="M45.3926014,147.133426 C45.3936142,146.936004 45.3824737,146.739599 45.3743716,146.542177 L36.2169253,157.492988 L36.1936316,164.919715 C41.76588,161.123923 45.3642439,154.329149 45.3926014,147.133426" id="Fill-65-Copy" fill="#2B637F"></path>
                    <path d="M40.0137917,133.033024 L39.6785655,132.521151 L26.6918442,127.315929 L13.8904594,143.492314 L31.6999809,143.562531 L40.2943284,133.466538 C40.2011537,133.322033 40.1069663,133.174475 40.0137917,133.033024" id="Fill-66-Copy" fill="#2B637F"></path>
                    <path d="M167.949657,119.733503 C172.507112,117.089678 174.0688,111.235202 171.437629,106.655828 C168.806458,102.076454 162.978992,100.508273 158.42255,103.15108 C155.216127,105.011324 153.501511,108.461119 153.677733,111.937373 L120.832661,130.99164 C117.88652,129.096797 114.015721,128.88411 110.791068,130.784042 C107.455011,132.749102 105.745459,136.422778 106.095877,140.051678 L112.920919,136.030987 L116.96085,138.338992 L116.992246,143.009953 L110.167203,147.029626 C113.146766,149.10968 117.172518,149.404795 120.508575,147.439735 C123.749432,145.531662 125.454933,142.010632 125.229086,138.484514 L158.00529,119.469935 C160.913959,121.360707 164.744247,121.593747 167.949657,119.733503 L167.949657,119.733503 Z M163.18661,116.112745 L159.160858,113.777264 L159.160858,109.10732 L163.185597,106.771839 L167.211349,109.10732 L167.211349,113.778281 L163.18661,116.112745 L163.18661,116.112745 Z" id="Fill-67-Copy" fill="#3D95BC"></path>
                    <path d="M120.305009,103.22028 C115.747554,100.576454 109.920088,102.145653 107.288917,106.725027 C104.657747,111.304402 106.219435,117.158877 110.77689,119.802703 C113.9823,121.662946 117.812587,121.429907 120.721257,119.538117 L153.566329,138.593401 C153.406311,142.104255 155.1584,145.578474 158.407359,147.434647 C161.768735,149.354931 165.790436,149.005881 168.742654,146.887157 L161.865961,142.958054 L161.834565,138.28811 L165.845125,135.92617 L172.721819,139.854256 C173.024636,136.221286 171.266471,132.571016 167.905095,130.650731 C164.639932,128.7854 160.751916,129.06118 157.82603,131.020134 L125.048813,112.005555 C125.225035,108.529301 123.510419,105.080523 120.305009,103.22028 L120.305009,103.22028 Z M119.565689,109.176519 L119.565689,113.846463 L115.540949,116.181944 L111.515197,113.846463 L111.515197,109.176519 L115.540949,106.841038 L119.565689,109.176519 L119.565689,109.176519 Z" id="Fill-68-Copy" fill="#2E7893"></path>
                    <path d="M143.632089,143.999098 L143.632089,105.96994 C146.783823,104.402776 148.965325,101.158544 148.990644,97.3841217 C149.015963,93.4987771 146.748376,90.1436222 143.465995,88.5907055 L143.413332,96.5394815 L139.373401,98.8474861 L135.363853,96.4855467 L135.415504,88.5367707 C132.112869,90.0459289 129.801733,93.3705546 129.776413,97.2558992 C129.751094,101.012004 131.869804,104.273536 134.975963,105.890564 L134.975963,143.999098 C131.892085,145.583562 129.775401,148.800318 129.775401,152.519787 C129.775401,157.807438 134.041178,162.093732 139.30352,162.093732 C144.565861,162.093732 148.831639,157.807438 148.831639,152.519787 C148.831639,148.800318 146.715967,145.583562 143.632089,143.999098 L143.632089,143.999098 Z M143.329272,154.855268 L139.30352,157.190749 L135.278781,154.855268 L135.278781,150.185324 L139.30352,147.849843 L143.329272,150.185324 L143.329272,154.855268 L143.329272,154.855268 Z" id="Fill-69-Copy" fill="#25627F"></path>
                    <path d="M97.0245159,26.3946625 C104.516972,26.3946625 110.612821,32.7447281 110.612821,40.550017 C110.612821,48.3542883 104.516972,54.7043539 97.0245159,54.7043539 C89.5320598,54.7043539 83.4372233,48.3542883 83.4372233,40.550017 C83.4372233,32.7447281 89.5320598,26.3946625 97.0245159,26.3946625 M97.0245159,24.7155586 C88.5972751,24.7155586 81.7661564,31.8054476 81.7661564,40.550017 C81.7661564,49.2945865 88.5972751,56.3834578 97.0245159,56.3834578 C105.451757,56.3834578 112.283888,49.2945865 112.283888,40.550017 C112.283888,31.8054476 105.451757,24.7155586 97.0245159,24.7155586" id="Fill-70-Copy" fill="#0B0B0A"></path>
                    <path d="M183.307267,26.3946625 C190.799723,26.3946625 196.895573,32.7447281 196.895573,40.550017 C196.895573,48.3542883 190.799723,54.7043539 183.307267,54.7043539 C175.814811,54.7043539 169.718962,48.3542883 169.718962,40.550017 C169.718962,32.7447281 175.814811,26.3946625 183.307267,26.3946625 M183.307267,24.7155586 C174.880027,24.7155586 168.048908,31.8054476 168.048908,40.550017 C168.048908,49.2945865 174.880027,56.3834578 183.307267,56.3834578 C191.734508,56.3834578 198.56664,49.2945865 198.56664,40.550017 C198.56664,31.8054476 191.734508,24.7155586 183.307267,24.7155586" id="Fill-71-Copy" fill="#0B0B0A"></path>
                    <path d="M75.3624257,99.7084085 C71.3711079,99.7084085 68.1241744,96.3502007 68.1241744,92.2236757 C68.1241744,88.0971507 71.3711079,84.7399606 75.3624257,84.7399606 C79.3537436,84.7399606 82.6016899,88.0971507 82.6016899,92.2236757 C82.6016899,96.3502007 79.3537436,99.7084085 75.3624257,99.7084085 L75.3624257,99.7084085 Z M75.3624257,86.4190645 C72.2927266,86.4190645 69.7952412,89.023202 69.7952412,92.2236757 C69.7952412,95.4241495 72.2927266,98.0293046 75.3624257,98.0293046 C78.4331376,98.0293046 80.930623,95.4241495 80.930623,92.2236757 C80.930623,89.023202 78.4331376,86.4190645 75.3624257,86.4190645 L75.3624257,86.4190645 Z" id="Fill-72-Copy" fill="#0B0B0A"></path>
                    <path d="M75.3624257,174.676835 C71.3711079,174.676835 68.1241744,171.319645 68.1241744,167.19312 C68.1241744,163.066595 71.3711079,159.709405 75.3624257,159.709405 C79.3537436,159.709405 82.6016899,163.066595 82.6016899,167.19312 C82.6016899,171.319645 79.3537436,174.676835 75.3624257,174.676835 L75.3624257,174.676835 Z M75.3624257,161.388509 C72.2927266,161.388509 69.7952412,163.992646 69.7952412,167.19312 C69.7952412,170.393594 72.2927266,172.998749 75.3624257,172.998749 C78.4331376,172.998749 80.930623,170.393594 80.930623,167.19312 C80.930623,163.992646 78.4331376,161.388509 75.3624257,161.388509 L75.3624257,161.388509 Z" id="Fill-73-Copy" fill="#0B0B0A"></path>
                    <path d="M204.969358,99.7084085 C200.97804,99.7084085 197.730093,96.3502007 197.730093,92.2236757 C197.730093,88.0971507 200.97804,84.7399606 204.969358,84.7399606 C208.960675,84.7399606 212.208622,88.0971507 212.208622,92.2236757 C212.208622,96.3502007 208.960675,99.7084085 204.969358,99.7084085 L204.969358,99.7084085 Z M204.969358,86.4190645 C201.899658,86.4190645 199.40116,89.023202 199.40116,92.2236757 C199.40116,95.4241495 201.899658,98.0293046 204.969358,98.0293046 C208.04007,98.0293046 210.537555,95.4241495 210.537555,92.2236757 C210.537555,89.023202 208.04007,86.4190645 204.969358,86.4190645 L204.969358,86.4190645 Z" id="Fill-74-Copy" fill="#0B0B0A"></path>
                    <path d="M204.969358,174.676835 C200.97804,174.676835 197.730093,171.319645 197.730093,167.19312 C197.730093,163.066595 200.97804,159.709405 204.969358,159.709405 C208.960675,159.709405 212.208622,163.066595 212.208622,167.19312 C212.208622,171.319645 208.960675,174.676835 204.969358,174.676835 L204.969358,174.676835 Z M204.969358,161.388509 C201.899658,161.388509 199.40116,163.992646 199.40116,167.19312 C199.40116,170.393594 201.899658,172.998749 204.969358,172.998749 C208.04007,172.998749 210.537555,170.393594 210.537555,167.19312 C210.537555,163.992646 208.04007,161.388509 204.969358,161.388509 L204.969358,161.388509 Z" id="Fill-75-Copy" fill="#0B0B0A"></path>
                    <path d="M280.846933,139.899032 C277.761029,129.713486 268.77069,122.635809 258.279428,122.008943 C251.505025,107.072042 246.867561,100.943822 237.023458,91.0940968 C236.732794,79.4675744 229.21198,70.1215805 220.008959,70.1215805 C219.877299,70.1215805 219.746652,70.1307392 219.614993,70.1348098 L219.614993,58.0004857 C226.973763,57.3074738 226.978827,50.4323066 226.978827,40.2935721 C226.978827,30.1538199 226.973763,23.2796704 219.614993,22.5866584 L219.614993,16.5540961 C219.614993,16.5540961 195.469596,10.0992137 162.863537,7.71793915 C162.449315,3.17418228 159.001853,1.79833474 156.368657,1.16027527 C152.525203,0.228118202 146.835474,0.228118202 139.631657,0.228118202 C132.427839,0.228118202 126.73811,0.228118202 122.894656,1.16027527 C120.260447,1.79935238 116.811973,3.17621756 116.399776,7.72506262 C84.0975479,10.1114254 60.689446,16.5540961 60.689446,16.5540961 L60.689446,22.6324522 C53.7509739,23.5473094 53.7459101,30.3502242 53.7459101,40.2935721 C53.7459101,50.2359023 53.7509739,57.0398348 60.689446,57.9536743 L60.689446,69.8915941 C51.1198032,69.8915941 43.0014567,79.6222555 42.6480007,91.3139067 C32.47171,101.515735 28.3173365,107.68059 21.5287541,122.687708 C9.54973668,124.252837 0.285949746,134.701951 0.23834966,146.956356 C0.199864484,156.691088 5.89567051,165.541492 14.747261,169.505195 L17.3753934,170.681585 L17.442236,147.271824 L32.502093,147.330847 L32.4261354,171.079482 L35.0907275,169.85221 C43.5868364,165.937354 49.101357,157.024874 49.1398422,147.147673 C49.1621231,141.332885 46.3385265,135.955682 43.6749472,131.782346 C47.1578556,122.874954 48.9818504,119.418035 54.8305844,113.135134 C56.7052176,113.923804 58.6902424,114.319665 60.689446,114.319665 L60.689446,196.019772 L47.2955921,196.019772 L47.2955921,225.122204 L233.09797,225.122204 L233.09797,196.019772 L219.614993,196.019772 L219.614993,113.448566 C219.746652,113.451619 219.877299,113.45976 220.008959,113.45976 C222.105389,113.45976 223.678217,113.014035 225.293582,112.263017 C231.31246,118.663965 233.995282,122.483163 237.409323,131.083228 C231.953542,137.664297 230.183224,146.389532 232.679697,154.632405 C234.637377,161.096446 238.984176,166.406485 244.917983,169.586606 C248.616611,171.567949 252.654516,172.573376 256.730906,172.573376 C259.193958,172.573376 261.671188,172.206008 264.094741,171.465167 C277.374152,167.403771 284.888889,153.243328 280.846933,139.899032 L280.846933,139.899032 Z M142.070401,184.88884 L216.578715,184.88884 L216.578715,189.507902 L142.070401,189.507902 L142.070401,184.88884 Z M89.1117612,71.7742257 L191.73147,71.7742257 L191.73147,181.033006 L89.1117612,181.033006 L89.1117612,71.7742257 Z M63.7257239,71.7742257 L86.9201317,71.7742257 L86.9201317,181.033006 L63.7257239,181.033006 L63.7257239,71.7742257 Z M63.7257239,184.88884 L138.234037,184.88884 L138.234037,189.507902 L63.7257239,189.507902 L63.7257239,184.88884 Z M193.924112,71.7742257 L216.579727,71.7742257 L216.579727,181.033006 L193.924112,181.033006 L193.924112,71.7742257 Z M223.636693,40.2935721 C223.636693,51.0133783 223.262982,54.1253175 219.614993,54.6259957 L219.614993,25.9601308 C223.262982,26.460809 223.636693,29.5737658 223.636693,40.2935721 L223.636693,40.2935721 Z M139.631657,2.84446734 C153.279715,2.84446734 159.396833,3.03985397 160.205021,7.53476418 C153.624056,7.10633828 146.726095,6.84887569 139.631657,6.84887569 C132.510886,6.84887569 125.61495,7.10837356 119.057279,7.53985237 C119.862429,3.03985397 125.978534,2.84446734 139.631657,2.84446734 L139.631657,2.84446734 Z M139.631657,10.1531486 C175.979892,10.1531486 207.512418,17.0313687 216.326536,19.1409337 L216.326536,68.416018 L63.977903,68.416018 L63.977903,19.1246515 C72.6198506,17.0038924 103.357353,10.1531486 139.631657,10.1531486 L139.631657,10.1531486 Z M57.0880438,40.2935721 C57.0880438,30.0021917 57.4344104,26.7233598 60.689446,26.0344184 L60.689446,54.5527258 C57.4344104,53.8627667 57.0880438,50.5849524 57.0880438,40.2935721 L57.0880438,40.2935721 Z M45.3926014,147.133426 C45.3642439,154.329149 41.76588,161.123923 36.1936316,164.919715 L36.261487,143.580849 L13.7061357,143.492314 L13.6453696,164.654111 C7.66902691,160.864425 3.95723297,154.206015 3.98559047,146.970603 C4.02610118,136.276238 12.3561162,127.205007 22.9486545,126.320679 L23.9918053,126.234179 L39.6785655,132.521151 L40.0137917,133.033024 C42.5295069,136.868504 45.4128568,141.936345 45.3926014,147.133426 L45.3926014,147.133426 Z M39.833519,131.314232 L39.8112381,131.369184 L24.4961637,125.230787 L24.5022403,125.218576 C27.7279057,118.026923 30.3155274,112.895989 33.2039411,108.424484 L46.0549515,118.108334 C43.6557046,121.804398 42.0504677,125.597137 39.833519,131.314232 L39.833519,131.314232 Z M46.6767909,117.178212 L33.8186911,107.488256 C36.9501691,102.809154 40.500933,98.7670927 45.6073082,93.6677051 L53.284088,109.301689 L53.0481131,109.549993 C50.3045252,112.432963 48.3043088,114.817291 46.6767909,117.178212 L46.6767909,117.178212 Z M55.277215,109.185678 L54.1854513,108.607659 L46.3830883,92.7172305 L46.3830883,92.1086826 C46.3830883,82.1063116 52.9346831,73.6568574 60.689446,73.6568574 L60.689446,110.552367 C58.8330427,110.551349 56.9938564,110.096465 55.277215,109.185678 L55.277215,109.185678 Z M63.7257239,191.710072 L138.234037,191.710072 L138.234037,196.018754 L63.7257239,196.018754 L63.7257239,191.710072 Z M50.4331467,199.172417 L138.234037,199.172417 L138.234037,221.969559 L50.4331467,221.969559 L50.4331467,199.172417 Z M142.070401,199.172417 L229.960415,199.172417 L229.960415,221.969559 L142.070401,221.969559 L142.070401,199.172417 Z M142.070401,191.710072 L216.578715,191.710072 L216.578715,196.018754 L142.070401,196.018754 L142.070401,191.710072 Z M220.008959,110.153452 C219.877299,110.153452 219.746652,110.147346 219.614993,110.143276 L219.614993,73.4401003 C219.746652,73.4350121 219.877299,73.426871 220.008959,73.426871 C227.581424,73.426871 233.74209,81.6646564 233.74209,91.7901616 L233.74209,91.983513 L225.711855,108.336967 L224.880372,108.777605 C223.199178,109.670074 221.924103,110.153452 220.008959,110.153452 L220.008959,110.153452 Z M226.654741,108.905827 L234.400389,93.1344624 C239.439922,98.1615976 243.033222,102.095789 246.227492,106.690428 L233.261026,116.461795 C231.505899,114.141578 229.448968,111.840697 226.83704,109.097143 L226.654741,108.905827 L226.654741,108.905827 Z M233.914261,117.34714 L246.848318,107.599179 C249.79446,111.989273 252.451962,117.061184 255.681679,124.257925 L240.845644,130.830853 L240.836529,130.808465 C238.548686,124.909214 236.568725,121.029975 233.914261,117.34714 L233.914261,117.34714 Z M265.814421,167.280637 L263.171097,161.47399 L271.395784,150.50588 L265.668582,136.952968 L251.124224,135.160906 L242.306055,146.920739 L248.033257,160.472634 L261.6722,162.153773 L264.293243,167.911573 C263.912443,168.050989 263.527591,168.183282 263.13565,168.303364 C257.543146,170.012997 251.623518,169.432943 246.465492,166.669036 C241.307466,163.905129 237.528829,159.28912 235.827379,153.669719 C233.568907,146.216533 235.325046,138.308463 240.525609,132.516063 L241.033006,131.951274 L256.15059,125.254193 L257.170448,125.273528 C266.678312,125.448562 274.928318,131.713146 277.699251,140.861718 C280.930993,151.529625 275.661562,162.79285 265.814421,167.280637 L265.814421,167.280637 Z M250.006128,157.842038 L245.56109,147.321689 L252.405375,138.192452 L263.694698,139.584582 L268.140748,150.104931 L261.296464,159.23315 L250.006128,157.842038 L250.006128,157.842038 Z" id="Fill-76-Copy" fill="#0B0B0A"></path>
                    <path d="M139.631657,51.5333917 C129.046208,51.5333917 120.308047,48.1955367 119.941425,48.0530673 C118.649134,47.552389 118.006026,46.0951304 118.504308,44.797641 C119.001577,43.5001517 120.45186,42.8549687 121.742126,43.3525941 C121.830237,43.3861761 130.018465,46.49608 139.631657,46.49608 C149.345112,46.49608 158.673717,43.3505588 158.766891,43.319012 C160.078425,42.8702333 161.500351,43.5764746 161.945969,44.8932991 C162.391587,46.2101236 161.689739,47.6409236 160.379218,48.087667 C159.967021,48.2281011 150.165454,51.5333917 139.631657,51.5333917" id="Fill-77-Copy" fill="#0B0B0A"></path>
                    <path d="M139.774457,173.591015 L138.945,173.591015 C135.149146,173.591015 131.840434,173.173783 128.216751,172.237555 L127.724546,172.11035 L126.05753,164.834233 C126.044364,164.711099 126.013981,164.5554 125.985623,164.46076 C125.917768,164.430231 125.806364,164.393596 125.739521,164.371208 L125.645334,164.340679 C123.790956,163.712796 121.960884,162.913949 120.206771,161.966527 L116.926416,160.120531 C115.457902,159.172092 114.096742,158.147329 112.836859,157.04828 L112.76394,156.983151 C112.709251,156.934304 112.616076,156.850858 112.553284,156.808117 C112.483403,156.830505 112.31022,156.892581 112.204892,156.94041 L112.108679,156.977045 L105.114505,159.176162 L104.756998,158.813883 C102.120763,156.146652 100.089151,153.489597 98.1689435,150.199571 L97.7496576,149.4801 C95.8294499,146.190074 94.5138646,143.1107 93.4848925,139.496047 L93.3451305,139.005545 L98.7492594,133.879699 C98.8474979,133.806429 98.9659917,133.700595 99.0328344,133.62936 C99.0247323,133.554055 98.9994131,133.439061 98.9852343,133.37088 L98.9639662,133.274204 C98.5659485,131.347814 98.3259225,129.357312 98.2509777,127.35867 L98.1051391,123.220951 L98.1071647,123.186351 C98.1851478,121.484859 98.3856758,119.788456 98.7006466,118.140899 L98.7198892,118.045241 C98.7340679,117.972988 98.7583743,117.850872 98.7644509,117.775566 C98.7138126,117.729773 98.5821527,117.615797 98.4737866,117.537439 L98.3947907,117.473328 L92.9957256,112.496057 L93.1273855,112.003519 C94.1016681,108.37462 95.3706661,105.27591 97.2412482,101.956372 L97.6504064,101.230796 C99.5199757,97.9112585 101.511077,95.2236747 104.106801,92.5167557 L104.459244,92.1483705 L111.583053,94.276253 C111.69547,94.3250997 111.846372,94.374964 111.94056,94.397352 C112.002339,94.3525759 112.088424,94.2732001 112.139062,94.2253711 L112.212994,94.1592246 C113.67138,92.8464706 115.264464,91.6395511 116.947684,90.5730657 L120.796201,88.282361 C122.356877,87.4865675 123.925654,86.8251024 125.505572,86.2898244 L125.597733,86.2592952 C125.667614,86.2369072 125.787121,86.1972193 125.854976,86.1646548 C125.869155,86.0985083 125.903589,85.927545 125.917768,85.7942343 L125.933972,85.6934881 L127.583771,78.5201528 L128.075976,78.392948 C131.699659,77.4567203 135.008372,77.0394885 138.804225,77.0394885 L139.633682,77.0394885 C143.430549,77.0394885 146.739261,77.4567203 150.362944,78.392948 L150.854136,78.5201528 L152.521152,85.7962696 C152.534318,85.9183863 152.565714,86.0751026 152.593059,86.169743 C152.661927,86.2012898 152.773331,86.2369072 152.840174,86.2592952 L152.932336,86.2898244 C154.787727,86.9177075 156.617798,87.7165539 158.371912,88.6639755 L161.652267,90.5099721 C163.12078,91.4584114 164.48194,92.4831736 165.741823,93.5832411 L165.815755,93.6483699 C165.870444,93.6972166 165.963619,93.7796453 166.025398,93.8223862 C166.090215,93.8010157 166.254283,93.744028 166.375816,93.6890755 L166.470003,93.6534581 L173.464177,91.4543409 L173.821684,91.8166203 C176.457919,94.4838513 178.489531,97.140906 180.409739,100.43195 L180.830037,101.150403 C182.749232,104.441446 184.064818,107.520821 185.09379,111.134456 L185.233552,111.624958 L179.829423,116.750804 C179.731184,116.824074 179.612691,116.929908 179.545848,117.001143 C179.55395,117.076448 179.578256,117.191442 179.593448,117.260641 L179.614716,117.357317 C180.012734,119.283707 180.25276,121.274208 180.327705,123.271833 L180.473543,127.41057 L180.471518,127.444152 C180.392522,129.144626 180.193006,130.842047 179.878036,132.489604 L179.858793,132.584245 C179.844614,132.657515 179.819295,132.780649 179.814231,132.854937 C179.86487,132.90073 179.995517,133.014706 180.103883,133.093064 L180.182879,133.157175 L185.583969,138.134446 L185.451297,138.626984 C184.476001,142.256901 183.208016,145.355611 181.337434,148.675148 L180.929289,149.399707 C179.058707,152.718227 177.067605,155.405811 174.470868,158.114765 L174.119438,158.482133 L166.996642,156.355268 C166.884225,156.305403 166.73231,156.255539 166.638122,156.233151 C166.576344,156.277927 166.490258,156.358321 166.438607,156.40615 L166.366701,156.470261 C164.90629,157.78505 163.313206,158.990952 161.630998,160.057437 L157.733868,162.374601 C156.220793,163.143935 154.652016,163.806418 153.073111,164.340679 L152.978923,164.371208 C152.910055,164.394613 152.792574,164.433284 152.723706,164.465848 C152.71054,164.531995 152.676106,164.702958 152.661927,164.835251 L152.64471,164.937015 L150.994911,172.11035 L150.502706,172.237555 C146.879023,173.173783 143.570311,173.591015 139.774457,173.591015 L139.774457,173.591015 Z M129.123178,170.73552 C132.415686,171.547596 135.467156,171.911911 138.945,171.911911 L139.774457,171.911911 C143.251289,171.911911 146.302758,171.547596 149.596279,170.73552 L151.005039,164.606282 C151.041499,164.298955 151.135686,163.788101 151.37875,163.45228 C151.684606,163.02996 152.151492,162.877314 152.461399,162.77555 L152.537357,162.750109 C154.03524,162.243325 155.52097,161.617477 156.95505,160.888848 L160.759005,158.62562 C162.342974,157.62121 163.861113,156.472296 165.251643,155.2206 L165.309371,155.167683 C165.535218,154.959067 165.913993,154.611035 166.431518,154.552012 C166.840676,154.506218 167.329843,154.674128 167.614431,154.79421 L173.617105,156.581183 C175.943433,154.102215 177.762364,151.613071 179.474954,148.572367 L179.8831,147.847808 C181.596703,144.807103 182.784679,141.95975 183.704272,138.679901 L179.08909,134.427189 C178.87337,134.268437 178.44902,133.920404 178.273812,133.532684 C178.058092,133.056429 178.161394,132.550663 178.22216,132.249442 L178.237352,132.171084 C178.535106,130.614096 178.725506,129.00928 178.801464,127.400393 L178.657651,123.332891 C178.586757,121.429907 178.358884,119.534046 177.978083,117.698226 L177.961879,117.61885 C177.896049,117.318646 177.78667,116.815933 177.994288,116.33866 C178.160382,115.957046 178.55131,115.617155 178.797412,115.429909 L183.34474,111.107997 C182.378559,107.84443 181.147034,105.014377 179.387856,102.000131 L178.96857,101.28066 C177.209393,98.2664144 175.352989,95.805764 172.990202,93.3624135 L167.015885,95.2409745 C166.733323,95.3651265 166.243143,95.5432132 165.83601,95.50149 C165.318486,95.4495905 164.93566,95.1076639 164.706774,94.9041361 L164.647021,94.8502013 C163.446891,93.803051 162.149536,92.8271355 160.791414,91.9489133 L157.567774,90.1354811 C155.909873,89.2409767 154.165887,88.4797829 152.398607,87.8803937 L152.32265,87.8559704 C152.030973,87.7603123 151.544844,87.6005431 151.238988,87.1792406 C150.994911,86.8424022 150.900724,86.3315476 150.865277,86.0242207 L149.455504,79.8949827 C146.162996,79.082907 143.111527,78.7185923 139.633682,78.7185923 L138.804225,78.7185923 C135.327394,78.7185923 132.275924,79.082907 128.982403,79.8949827 L127.573643,86.0242207 C127.537184,86.3315476 127.442996,86.8424022 127.199932,87.178223 C126.893063,87.6015607 126.405922,87.7603123 126.115258,87.8559704 L126.0393,87.8803937 C124.53534,88.3902307 123.040495,89.0211667 121.598313,89.7538666 L117.819677,92.0048834 C116.234695,93.0103105 114.716556,94.1592246 113.327039,95.4099026 L113.267286,95.464855 C113.041438,95.6724533 112.663676,96.0194681 112.147164,96.0784912 C111.735981,96.1283555 111.247827,95.9563745 110.964252,95.8362932 L104.961577,94.0493196 C102.635249,96.5282875 100.817331,99.0174318 99.1037282,102.057119 L98.6955827,102.782695 C96.9819796,105.824417 95.794003,108.67177 94.8754227,111.950602 L99.4885799,116.202297 C99.7377208,116.385472 100.133713,116.719257 100.304871,117.097819 C100.52059,117.573056 100.418301,118.077805 100.356522,118.380044 L100.34133,118.458402 C100.043577,120.015389 99.8541891,121.620205 99.7772187,123.23011 L99.9210318,127.297612 C99.9919255,129.201614 100.220811,131.097475 100.600599,132.932277 L100.616803,133.010635 C100.682633,133.310839 100.792012,133.813552 100.584395,134.291843 C100.418301,134.674475 100.027372,135.014366 99.7822826,135.200594 L95.2329297,139.522506 C96.2011357,142.787091 97.4316485,145.616126 99.1908262,148.630372 L99.610112,149.349843 C101.36929,152.364089 103.225693,154.824739 105.587468,157.26809 L111.562797,155.389528 C111.84536,155.265377 112.331488,155.089325 112.743685,155.130031 C113.260196,155.179895 113.644035,155.523857 113.873934,155.728402 L113.932674,155.780302 C115.132804,156.827452 116.429147,157.803367 117.787268,158.68159 L121.010908,160.495022 C122.669822,161.390544 124.412795,162.151738 126.180075,162.749092 L126.257045,162.77555 C126.566952,162.877314 127.034851,163.02996 127.339694,163.451262 C127.583771,163.788101 127.677958,164.298955 127.713405,164.606282 L129.123178,170.73552 L129.123178,170.73552 Z" id="Fill-78-Copy" fill="#0B0B0A"></path>
                    <path d="M100.369688,29.8933044 L100.911519,28.646697 C99.5199757,28.1012426 98.0069006,27.7990039 96.4239446,27.7990039 C96.3905233,27.9547026 96.4320467,29.1066697 96.4239446,29.263386 C97.9157515,29.263386 99.1776602,29.4557198 100.369688,29.8933044" id="Fill-79-Copy" fill="#FFFFFF"></path>
                    <path d="M106.249818,32.6877403 C106.047264,32.421119 105.83357,32.1626387 105.610761,31.9133173 C105.329212,31.5998845 105.032471,31.2996811 104.721551,31.0157599 C104.058188,30.4112825 103.325957,29.883128 102.543088,29.4343493 L101.948593,30.6626393 C104.987909,32.3763429 107.09953,35.0751207 108.488034,37.5337359 C108.488034,36.7196249 107.3193,34.0971699 106.249818,32.6877403" id="Fill-80-Copy" fill="#FFFFFF"></path>
                    <path d="M186.610916,29.8933044 L187.151734,28.646697 C185.761204,28.1012426 184.248129,27.7990039 182.665173,27.7990039 C182.631751,27.9547026 182.673275,29.1066697 182.665173,29.263386 C184.155967,29.263386 185.418888,29.4557198 186.610916,29.8933044" id="Fill-81-Copy" fill="#FFFFFF"></path>
                    <path d="M192.490033,32.6877403 C192.287479,32.421119 192.074798,32.1626387 191.851989,31.9133173 C191.57044,31.5998845 191.273699,31.2996811 190.962779,31.0157599 C190.299416,30.4112825 189.567185,29.883128 188.784316,29.4343493 L188.188808,30.6626393 C191.229137,32.3763429 193.340758,35.0751207 194.729263,37.5337359 C194.729263,36.7196249 193.560528,34.0971699 192.490033,32.6877403" id="Fill-82-Copy" fill="#FFFFFF"></path>
                </g>
            </g>
        </g>
    </g>
</svg>