<?xml version="1.0" encoding="UTF-8" standalone="no"?>
<svg width="1145px" height="574px" viewBox="0 0 1145 574" version="1.1" xmlns="http://www.w3.org/2000/svg" xmlns:xlink="http://www.w3.org/1999/xlink">
    <!-- Generator: Sketch 39.1 (31720) - http://www.bohemiancoding.com/sketch -->
    <title>monitoringup</title>
    <desc>Created with Sketch.</desc>
    <defs>
        <polygon id="path-1" points="0 969.650022 971.831917 969.650022 971.831917 0 0 0"></polygon>
    </defs>
    <g id="Page-1" stroke="none" stroke-width="1" fill="none" fill-rule="evenodd">
        <g id="monitoringup">
            <g id="Group" transform="translate(85.643479, 117.171875)">
                <g id="Page-1">
                    <path d="M846.768531,242.874112 C884.153555,296.733714 909.668053,359.454539 919.523367,427.250934" id="Stroke-7" stroke="#221F20" stroke-width="8" stroke-linecap="round"></path>
                    <path d="M581.481275,65.6101457 C638.778148,77.9386742 691.876414,101.570106 738.326885,134.053751" id="Stroke-9" stroke="#221F20" stroke-width="8" stroke-linecap="round"></path>
                    <path d="M60.9774121,419.697345 C68.7679609,372.023031 84.3190255,326.957079 106.291136,285.84046" id="Stroke-11" stroke="#221F20" stroke-width="8" stroke-linecap="round"></path>
                    <path d="M865.203511,219.237875 L745.517676,251.10134 C740.329483,252.482856 735.006142,249.39697 733.624626,244.210278 L714.185795,171.192654 C712.804279,166.005963 715.890165,160.682621 721.076857,159.301105 L840.764193,127.437641 C845.950884,126.056125 851.275727,129.142011 852.655742,134.328702 L872.094572,207.344825 C873.476088,212.533018 870.390202,217.85636 865.203511,219.237875 L865.203511,219.237875 Z" id="Stroke-15" stroke="#221F20" stroke-width="4"></path>
                    <polygon id="Stroke-17" stroke="#221F20" stroke-width="2" stroke-linejoin="round" points="846.844965 179.339093 742.529998 207.110568 733.110161 171.728742 837.425129 143.957268"></polygon>
                    <polygon id="Stroke-19" stroke="#221F20" stroke-width="2" stroke-linejoin="round" points="796.643378 219.136364 749.101208 231.793753 745.000208 216.386847 792.542378 203.729458"></polygon>
                    <polygon id="Stroke-21" stroke="#221F20" stroke-width="2" stroke-linejoin="round" points="824.56817 211.702006 800.797086 218.02995 796.696086 202.623044 820.46717 196.2951"></polygon>
                    <polygon id="Stroke-23" stroke="#221F20" stroke-width="2" stroke-linejoin="round" points="853.416176 204.021829 829.645091 210.349772 825.544091 194.942866 849.315176 188.614922"></polygon>
                    <path d="M751.496937,194.968995 C751.825798,195.030562 752.195204,195.012542 752.600648,194.902922 C753.006093,194.794803 753.334954,194.628121 753.587231,194.404375 C753.84101,194.182131 754.019706,193.938864 754.123319,193.676076 C754.226933,193.413287 754.277989,193.088932 754.274986,192.703008 C754.273484,192.318586 754.238946,191.955187 754.174375,191.615815 C754.109805,191.276443 754.016702,190.874001 753.890564,190.400982 C753.752412,189.881412 753.596241,189.426413 753.42205,189.034483 C753.247859,188.641051 753.031621,188.279154 752.770335,187.948791 C752.507546,187.61993 752.190699,187.394683 751.821293,187.276053 C751.450386,187.158924 751.032928,187.160426 750.571922,187.283561 C750.109415,187.406696 749.743013,187.613924 749.477221,187.899237 C749.211429,188.189055 749.044746,188.541942 748.977172,188.953394 C748.908097,189.367848 748.896083,189.78831 748.941133,190.213276 C748.984681,190.641246 749.077783,191.117268 749.218938,191.644346 C749.342073,192.117365 749.465208,192.516804 749.583838,192.845665 C749.700967,193.174525 749.854135,193.507891 750.044844,193.842759 C750.234052,194.18063 750.441279,194.434408 750.665024,194.610101 C750.88877,194.78279 751.168076,194.905925 751.496937,194.968995 M749.777551,184.30279 C750.182996,184.194672 750.498342,184.011471 750.720585,183.753187 C750.942829,183.493402 751.071971,183.169046 751.106509,182.781621 C751.142548,182.392694 751.13504,182.015781 751.085486,181.644874 C751.032928,181.278472 750.944331,180.850502 750.815189,180.363968 C750.262583,178.287189 749.336066,177.420738 748.038642,177.766117 C746.724701,178.116001 746.34178,179.330834 746.894387,181.407613 C747.023529,181.894147 747.16168,182.311605 747.308842,182.658486 C747.453,183.00837 747.636201,183.338732 747.859946,183.654078 C748.08219,183.969424 748.353988,184.182658 748.673839,184.298285 C748.996694,184.410909 749.363096,184.413912 749.777551,184.30279 M753.280895,197.458727 C751.364792,197.969287 749.828607,197.784584 748.670836,196.904619 C747.510062,196.029158 746.655625,194.551537 746.101517,192.474758 C745.741121,191.117268 745.637508,189.982022 745.790676,189.058509 C745.945345,188.134995 746.365807,187.298578 747.053562,186.552259 C746.21414,186.211385 745.527887,185.699323 744.990297,185.014571 C744.451206,184.334325 744.027741,183.413815 743.718402,182.253041 C743.240878,180.452565 743.299442,178.941908 743.894095,177.72257 C744.49175,176.504733 745.645016,175.665312 747.358396,175.210313 C749.061265,174.756815 750.474315,174.914488 751.593043,175.678827 C752.714774,176.446169 753.51365,177.725573 753.991174,179.51854 C754.302015,180.686822 754.395118,181.697431 754.270481,182.551869 C754.147346,183.407808 753.806472,184.191668 753.247859,184.901948 C754.208913,185.218795 754.988268,185.742871 755.579918,186.47117 C756.17457,187.199469 756.650593,188.232603 757.006483,189.572072 C757.559089,191.648851 757.554585,193.354723 756.989965,194.689688 C756.422342,196.027656 755.187988,196.95117 753.280895,197.458727" id="Fill-25" fill="#221F20"></path>
                    <path d="M764.40375,191.409188 C764.777661,191.542835 765.189112,191.551845 765.635102,191.433215 C766.079589,191.314585 766.432476,191.102852 766.69076,190.799519 C766.949043,190.496186 767.10972,190.128283 767.171287,189.694307 C767.235858,189.257327 767.244868,188.817344 767.202822,188.363847 C767.159274,187.907346 767.069175,187.426818 766.934027,186.916258 C766.852938,186.606919 766.79137,186.375665 766.747823,186.21649 C766.705776,186.057316 766.639704,185.83357 766.549605,185.546755 C766.458005,185.255436 766.384424,185.036195 766.322856,184.883027 C766.258285,184.729859 766.177196,184.537648 766.076586,184.303391 C765.974474,184.070636 765.878368,183.893441 765.785266,183.774811 C765.693666,183.654679 765.579541,183.516528 765.445894,183.357353 C765.310746,183.196677 765.175597,183.082551 765.035944,183.014977 C764.896291,182.947403 764.740119,182.885835 764.568932,182.827271 C764.396242,182.768707 764.207034,182.746182 764.00281,182.758195 C763.795583,182.767205 763.580847,182.804746 763.3556,182.864812 C762.347994,183.133607 761.706791,183.858903 761.430488,185.043703 L762.260899,188.159622 C762.399051,188.679193 762.56273,189.144703 762.750436,189.554653 C762.938142,189.966105 763.164891,190.343018 763.435187,190.689899 C763.705484,191.033776 764.028338,191.275542 764.40375,191.409188 M766.315348,193.989019 C765.569029,194.187237 764.857248,194.239794 764.181506,194.151197 C763.505765,194.0626 762.902103,193.852369 762.366014,193.526512 C761.832929,193.200654 761.340389,192.769681 760.888393,192.232091 C760.437898,191.697505 760.051975,191.092341 759.733626,190.415097 C759.413775,189.742359 759.149485,189.006552 758.939254,188.210679 L757.072706,181.200987 C756.833944,180.309008 756.667261,179.469587 756.571155,178.681222 C756.47505,177.894358 756.463037,177.12101 756.538119,176.358172 C756.613202,175.595335 756.788894,174.916591 757.065198,174.320436 C757.339999,173.725784 757.758959,173.201709 758.320575,172.748211 C758.882191,172.294714 759.572949,171.959846 760.392849,171.740605 C762.14377,171.273593 763.622893,171.413246 764.828717,172.15506 C766.03454,172.899878 766.876964,174.167268 767.354488,175.960236 L764.238569,176.790647 C763.960764,175.751507 763.586854,175.018703 763.110832,174.58773 C762.634809,174.158258 761.956064,174.060651 761.073096,174.29641 C759.514385,174.712366 759.150986,176.476803 759.979896,179.592722 L760.808805,182.708641 C761.133161,181.511828 762.03415,180.714453 763.51027,180.321021 C764.387232,180.086764 765.174096,180.040213 765.876867,180.178364 C766.579638,180.319519 767.180297,180.633364 767.678844,181.119898 C768.177391,181.607933 768.600856,182.193576 768.947737,182.873822 C769.293116,183.55557 769.593445,184.36646 769.842719,185.306492 C770.114517,186.329114 770.261678,187.29167 770.285705,188.19416 C770.308229,189.096651 770.197108,189.940577 769.955342,190.725939 C769.712075,191.5113 769.284106,192.187042 768.671433,192.754665 C768.058761,193.322288 767.271898,193.733739 766.315348,193.989019" id="Fill-27" fill="#221F20"></path>
                    <polygon id="Fill-29" fill="#221F20" points="774.933605 191.459043 773.808871 171.180791 768.053055 172.712472 767.362297 170.117625 776.089874 167.794575 776.48781 169.29322 777.926389 190.661668"></polygon>
                    <polygon id="Fill-31" fill="#221F20" points="781.221755 183.946449 780.600073 181.609885 785.273201 180.366521 785.896385 182.703085"></polygon>
                    <path d="M793.916686,186.640105 C791.978058,187.156672 790.449381,186.979477 789.330653,186.108522 C788.211926,185.236064 787.372505,183.741925 786.809387,181.624601 L789.923804,180.79419 L790.052946,181.280724 C790.164068,181.695179 790.273688,182.052571 790.383308,182.348396 C790.491427,182.64422 790.632582,182.940045 790.800766,183.240374 C790.973456,183.536199 791.15966,183.765951 791.362383,183.925126 C791.565105,184.082799 791.814379,184.193921 792.108702,184.253987 C792.403025,184.315554 792.728882,184.297535 793.086274,184.201429 C793.368584,184.127848 793.616356,184.024235 793.831092,183.893591 C794.042824,183.761446 794.220018,183.624796 794.359672,183.477635 C794.499325,183.331975 794.607444,183.144269 794.687031,182.914517 C794.762113,182.686266 794.822179,182.479039 794.864225,182.289831 C794.903268,182.100624 794.91378,181.849849 794.892757,181.545014 C794.873235,181.237176 794.850711,180.980395 794.823681,180.774669 C794.799655,180.567441 794.748599,180.28363 794.669011,179.915726 C794.587922,179.550826 794.523351,179.270018 794.469292,179.070299 C794.416734,178.872081 794.337147,178.574755 794.232032,178.176818 C794.183979,177.999624 794.149441,177.862974 794.125415,177.774376 C794.032313,177.425994 793.94822,177.128668 793.873138,176.882398 C793.799557,176.637629 793.706455,176.374841 793.59233,176.098538 C793.481208,175.817729 793.365581,175.589479 793.248452,175.412285 C793.129822,175.23509 792.990169,175.065404 792.824988,174.901724 C792.659806,174.735041 792.479609,174.620916 792.288899,174.547335 C792.096689,174.479761 791.86994,174.440718 791.611656,174.436213 C791.356376,174.428705 791.07707,174.466246 790.775238,174.547335 C790.224134,174.694497 789.793161,174.999331 789.48232,175.464842 C789.171479,175.930353 788.988278,176.4289 788.931215,176.967992 L786.276302,177.673766 L783.146868,165.917365 L792.787446,163.349548 L793.616356,166.465467 L786.800377,168.280959 L788.012206,173.614812 C788.749516,172.863988 789.71958,172.326398 790.920898,172.006547 C791.626673,171.818841 792.276886,171.760277 792.874542,171.832356 C793.472198,171.902934 793.994771,172.077125 794.442262,172.360936 C794.889753,172.640243 795.299703,173.027668 795.667607,173.518707 C796.040016,174.012749 796.352358,174.553342 796.610642,175.14349 C796.867424,175.73664 797.097176,176.409379 797.296895,177.164707 C797.54767,178.097231 797.723363,178.954672 797.826977,179.735529 C797.929089,180.513382 797.94861,181.288232 797.882537,182.052571 C797.816465,182.815408 797.643775,183.488146 797.362967,184.066281 C797.082159,184.647418 796.652688,185.160982 796.074554,185.612978 C795.496419,186.069479 794.775628,186.410353 793.916686,186.640105" id="Fill-33" fill="#221F20"></path>
                    <path d="M806.58744,183.267855 C804.816997,183.73787 803.333369,183.599719 802.136556,182.854901 C800.938241,182.110084 800.101823,180.83969 799.624299,179.048224 L799.41557,178.268869 L802.531489,177.438458 C802.660631,177.92349 802.786769,178.336443 802.906901,178.675816 C803.025531,179.012185 803.180201,179.348554 803.367907,179.678916 C803.558616,180.012282 803.761338,180.263057 803.980579,180.434245 C804.19982,180.606935 804.476123,180.722562 804.803482,180.784129 C805.132343,180.842693 805.498745,180.820169 805.905691,180.71205 C806.309635,180.603931 806.643001,180.441753 806.896779,180.227018 C807.152059,180.009279 807.330755,179.77352 807.438874,179.515237 C807.540986,179.256953 807.595045,178.938604 807.592042,178.555684 C807.59054,178.172764 807.559006,177.806362 807.494435,177.453474 C807.431366,177.100587 807.33526,176.680126 807.206118,176.195094 C806.872753,174.945723 806.375707,174.049239 805.711979,173.502639 C805.051254,172.956039 804.16378,172.834406 803.054062,173.128729 L802.223651,170.01281 C803.360398,169.71248 804.100711,169.266491 804.44609,168.67334 C804.79297,168.080189 804.813994,167.212236 804.510661,166.069482 C804.234357,165.039352 803.857444,164.30805 803.376917,163.875575 C802.897891,163.441599 802.219146,163.340988 801.345187,163.575245 C800.938241,163.683364 800.607878,163.84404 800.351096,164.061779 C800.095816,164.276515 799.915618,164.513775 799.810503,164.770557 C799.705388,165.030342 799.654332,165.348691 799.657335,165.731612 C799.658837,166.116033 799.690371,166.480934 799.75344,166.833821 C799.819513,167.186708 799.914117,167.605668 800.043258,168.0907 L796.928841,168.921112 L796.720112,168.143258 C796.245591,166.3593 796.343198,164.839633 797.014435,163.593265 C797.687173,162.345396 798.902006,161.487955 800.663439,161.019441 C802.430878,160.547923 803.914507,160.687577 805.112821,161.430892 C806.309635,162.177211 807.149056,163.446104 807.623577,165.239071 C807.953939,166.471924 807.946431,167.559117 807.605557,168.496145 C807.264683,169.434675 806.647506,170.183997 805.754025,170.744112 C806.857736,170.814689 807.802273,171.244161 808.580126,172.035529 C809.360983,172.826897 809.940619,173.936615 810.322038,175.364682 C810.865634,177.408425 810.850618,179.114297 810.272483,180.473288 C809.697352,181.835283 808.467503,182.766304 806.58744,183.267855" id="Fill-35" fill="#221F20"></path>
                    <path d="M818.622696,177.325984 C820.181407,176.91153 820.615383,175.405377 819.923123,172.809028 L817.434893,163.46127 C817.319266,163.024291 817.196131,162.636866 817.074497,162.298995 C816.948359,161.962626 816.790686,161.633765 816.59397,161.304904 C816.397254,160.980548 816.185522,160.723766 815.958773,160.530054 C815.729021,160.340846 815.452718,160.210203 815.129863,160.141127 C814.805507,160.07055 814.451119,160.085566 814.062192,160.18918 C813.673265,160.292793 813.354916,160.456473 813.110147,160.678717 C812.863877,160.899459 812.691187,161.150234 812.586072,161.429541 C812.482458,161.708847 812.425396,162.037708 812.419389,162.417625 C812.411881,162.799044 812.435907,163.165446 812.495973,163.518333 C812.557541,163.872722 812.644636,164.267655 812.761765,164.704635 L815.249995,174.052392 C815.386645,174.562953 815.544318,175.02546 815.729021,175.436912 C815.912222,175.848363 816.138971,176.226778 816.407766,176.573659 C816.678062,176.917536 817.002418,177.160803 817.379332,177.298955 C817.754744,177.438608 818.169199,177.446116 818.622696,177.325984 M819.304444,179.881789 C818.119644,180.197135 817.036956,180.18362 816.05638,179.845749 C815.074302,179.507879 814.261911,178.913226 813.614701,178.066297 C812.967491,177.217866 812.47495,176.156201 812.135578,174.881302 L809.645846,165.535046 C809.112761,163.531848 809.147299,161.836487 809.749459,160.44446 C810.35162,159.052432 811.56345,158.116906 813.380444,157.633375 C815.189929,157.151346 816.70359,157.366082 817.922928,158.276081 C819.14527,159.184577 820.019229,160.636671 820.552314,162.630859 L823.039042,171.978617 C823.558613,173.935264 823.51056,175.623116 822.893383,177.040671 C822.277707,178.46123 821.080894,179.40877 819.304444,179.881789" id="Fill-37" fill="#221F20"></path>
                    <path d="M829.535021,165.245979 C830.523105,164.98319 831.164308,164.25339 831.45713,163.064085 L830.626719,159.948165 C830.488567,159.430097 830.327891,158.964586 830.137181,158.553135 C829.952479,158.144686 829.721225,157.766271 829.45243,157.422394 C829.182133,157.077015 828.859279,156.836751 828.483867,156.700101 C828.111458,156.567956 827.698505,156.558946 827.255519,156.676075 C826.806527,156.796207 826.455141,157.006437 826.196858,157.308268 C825.938574,157.613103 825.779399,157.982508 825.71633,158.414983 C825.653261,158.848959 825.644251,159.293447 825.686297,159.746945 C825.728343,160.200442 825.818442,160.683973 825.955092,161.193031 C826.03468,161.502371 826.097749,161.733625 826.139795,161.892799 C826.183343,162.053476 826.249415,162.275719 826.338012,162.564036 C826.428111,162.853854 826.503194,163.074596 826.566263,163.226262 C826.629332,163.379431 826.710421,163.573143 826.812533,163.805899 C826.913144,164.040156 827.010751,164.215848 827.103853,164.334479 C827.196955,164.453109 827.308077,164.592762 827.443225,164.753438 C827.576872,164.912613 827.713522,165.025237 827.854677,165.094312 C827.991327,165.160385 828.147498,165.223454 828.318686,165.280517 C828.491375,165.340583 828.680583,165.363107 828.886309,165.351094 C829.090533,165.340583 829.308272,165.306045 829.535021,165.245979 M832.497772,176.368684 C830.743847,176.835696 829.264724,176.697545 828.058901,175.952728 C826.853078,175.210914 826.010653,173.94052 825.534631,172.149054 L828.65055,171.320144 C828.926853,172.359284 829.302265,173.092088 829.776786,173.52156 C830.251307,173.952533 830.931553,174.048638 831.816024,173.812879 C833.374734,173.399926 833.738133,171.632487 832.909223,168.516568 L832.078812,165.400648 C831.737938,166.60497 830.836949,167.400843 829.378849,167.78977 C828.501887,168.022526 827.713522,168.070578 827.010751,167.930925 C826.309481,167.791272 825.708822,167.477427 825.208773,166.990893 C824.708725,166.499855 824.286762,165.915714 823.941383,165.235467 C823.594502,164.553719 823.297176,163.744331 823.044899,162.801296 C822.773101,161.778674 822.625939,160.817619 822.603414,159.913627 C822.58089,159.012639 822.69051,158.170214 822.932275,157.381849 C823.177044,156.597989 823.603512,155.922248 824.216184,155.353123 C824.83186,154.788503 825.61572,154.377052 826.572269,154.12027 C827.318588,153.922053 828.031871,153.866492 828.706111,153.956591 C829.381852,154.046689 829.987017,154.253917 830.521603,154.581276 C831.05619,154.908635 831.54873,155.34111 831.999225,155.877198 C832.451221,156.411785 832.835642,157.01845 833.155493,157.694192 C833.472341,158.368432 833.739634,159.104239 833.951367,159.900113 L835.817915,166.909805 C836.055175,167.801783 836.220357,168.641204 836.317964,169.428068 C836.415571,170.21343 836.424581,170.989782 836.349498,171.752619 C836.274416,172.515456 836.098723,173.192699 835.82242,173.788853 C835.547618,174.385007 835.128659,174.907581 834.567042,175.361078 C834.005426,175.814576 833.31617,176.150945 832.497772,176.368684" id="Fill-39" fill="#221F20"></path>
                    <path d="M880.218637,129.863553 C874.495857,108.367464 852.429143,95.5794318 830.933055,101.302212" id="Stroke-41" stroke="#221F20" stroke-width="2" stroke-linecap="round"></path>
                    <path d="M865.484169,133.786307 C861.928267,120.427648 848.215219,112.480928 834.85656,116.03683" id="Stroke-43" stroke="#221F20" stroke-width="4" stroke-linecap="round"></path>
                    <path d="M705.176058,248.348519 C710.898838,269.844608 732.965552,282.63264 754.461641,276.90986" id="Stroke-45" stroke="#221F20" stroke-width="2" stroke-linecap="round"></path>
                    <path d="M719.910527,244.425765 C723.466429,257.784424 737.179476,265.731144 750.538135,262.175242" id="Stroke-47" stroke="#221F20" stroke-width="4" stroke-linecap="round"></path>
                    <path d="M162.455467,159.397361 L123.128812,242.491042 C123.128812,242.491042 120.964938,253.013088 132.269343,254.59132 L217.23708,231.956982" id="Stroke-49" stroke="#221F20" stroke-width="4" stroke-linecap="round" stroke-linejoin="round"></path>
                    <path d="M212.37054,208.351229 C218.545316,220.040056 220.737721,229.314233 217.23738,231.957133 C211.91554,235.974041 195.451474,223.137955 180.463527,203.286171 C165.475581,183.434387 157.639982,164.084154 162.961822,160.067246 C166.436635,157.443867 174.662662,162.005873 184.126046,171.01576" id="Stroke-51" stroke="#221F20" stroke-width="4" stroke-linecap="round" stroke-linejoin="round"></path>
                    <g id="Group-56" transform="translate(193.712566, 181.284929)">
                        <path d="M0.801279265,0.884020058 C2.54769565,2.96980885 4.29561369,5.16521793 6.02250866,7.45222753 C7.86653215,9.89540849 9.60243701,12.3295796 11.21821,14.7307144" id="Fill-53" fill="#FEFEFE"></path>
                        <path d="M0.801279265,0.884020058 C2.54769565,2.96980885 4.29561369,5.16521793 6.02250866,7.45222753 C7.86653215,9.89540849 9.60243701,12.3295796 11.21821,14.7307144" id="Stroke-55" stroke="#221F20" stroke-width="4" stroke-linecap="round" stroke-linejoin="round"></path>
                    </g>
                    <path d="M198.495614,209.0995 C198.495614,209.0995 256.54181,164.842936 282.838666,205.250777" id="Stroke-57" stroke="#221F20" stroke-width="2"></path>
                    <path d="M177.971092,182.16114 C177.971092,182.16114 199.136818,180.237529 209.720432,140.14954" id="Stroke-59" stroke="#221F20" stroke-width="2"></path>
                    <path d="M223.073685,173.181737 C223.073685,173.181737 216.000923,150.787663 228.044139,159.162353 C240.087354,167.538544 237.220709,151.515962 237.220709,151.515962 C237.220709,151.515962 229.191398,135.494882 245.250019,146.054469 C261.308641,156.614057 254.998717,138.226379 254.998717,138.226379" id="Stroke-61" stroke="#221F20" stroke-width="2"></path>
                    <path d="M224.814545,238.530746 C224.814545,238.530746 241.765145,222.278412 239.584753,236.78433 C237.405862,251.290247 250.503234,241.628645 250.503234,241.628645 C250.503234,241.628645 261.318101,227.338965 258.954508,246.412895 C256.590914,265.485324 270.288945,251.691187 270.288945,251.691187" id="Stroke-63" stroke="#221F20" stroke-width="2"></path>
                    <path d="M155.950479,102.361174 C155.950479,102.361174 179.428742,102.855216 167.630295,111.57078 C155.830347,120.286343 171.925008,122.717511 171.925008,122.717511 C171.925008,122.717511 189.675986,120.259314 174.518354,132.074279 C159.360721,143.890745 178.801053,143.823171 178.801053,143.823171" id="Stroke-65" stroke="#221F20" stroke-width="2"></path>
                    <mask id="mask-2" fill="white">
                        <use xlink:href="#path-1"></use>
                    </mask>
                    <g id="Clip-68"></g>
                    <polygon id="Fill-67" fill="#221F20" mask="url(#mask-2)" points="209.720131 120.588325 214.851262 120.588325 214.851262 115.457194 209.720131 115.457194"></polygon>
                    <polygon id="Fill-69" fill="#221F20" mask="url(#mask-2)" points="139.166711 120.588325 144.297842 120.588325 144.297842 115.457194 139.166711 115.457194"></polygon>
                    <polygon id="Fill-70" fill="#221F20" mask="url(#mask-2)" points="117.832801 166.286471 122.963932 166.286471 122.963932 161.15534 117.832801 161.15534"></polygon>
                    <polygon id="Fill-71" fill="#221F20" mask="url(#mask-2)" points="274.825723 185.774705 270.886901 182.486097 274.17551 178.547275 278.114332 181.835883"></polygon>
                    <polygon id="Fill-72" fill="#221F20" mask="url(#mask-2)" points="252.932449 218.806452 248.993627 215.517843 252.282236 211.579021 256.221058 214.86763"></polygon>
                    <polygon id="Fill-73" fill="#221F20" mask="url(#mask-2)" points="212.610803 258.205185 208.671981 254.916577 211.96059 250.977754 215.899412 254.266363"></polygon>
                    <polyline id="Stroke-81" stroke="#221F20" stroke-width="4" stroke-linecap="round" stroke-linejoin="round" mask="url(#mask-2)" points="56.5678234 447.064876 5.79410803 447.064876 5.79410803 454.816382"></polyline>
                    <polygon id="Stroke-84" stroke="#221F20" stroke-width="2" stroke-linecap="square" mask="url(#mask-2)" points="69.2034388 481.165496 112.116028 481.165496 112.116028 438.252906 69.2034388 438.252906"></polygon>
                    <polyline id="Stroke-85" stroke="#221F20" stroke-width="2" stroke-linecap="round" stroke-linejoin="round" mask="url(#mask-2)" points="81.5604985 456.927999 83.2213209 456.927999 89.5913109 449.451295 91.8062414 443.081305 97.252718 444.835229 97.8984265 448.805586 95.6204268 454.250561 102.975498 454.435264 106.298644 457.389005 104.839043 462.281373 105.559834 463.665893 104.175314 466.619634 104.453119 469.84217 102.975498 470.774693 103.529606 474.09784 101.221573 475.943365 91.9909441 476.958479 83.3144231 473.728435 81.5604985 473.728435"></polyline>
                    <polygon id="Stroke-89" stroke="#221F20" stroke-width="4" mask="url(#mask-2)" points="403.456724 119.27138 559.617583 119.27138 559.617583 3.0032956 403.456724 3.0032956"></polygon>
                    <polygon id="Stroke-90" stroke="#221F20" stroke-width="2" stroke-linecap="round" stroke-linejoin="round" mask="url(#mask-2)" points="410.365805 19.4027912 425.566986 19.4027912 425.566986 12.0492219 410.365805 12.0492219"></polygon>
                    <polygon id="Stroke-91" stroke="#221F20" stroke-width="2" stroke-linecap="round" stroke-linejoin="round" mask="url(#mask-2)" points="430.058414 19.4027912 534.912474 19.4027912 534.912474 12.0492219 430.058414 12.0492219"></polygon>
                    <path d="M403.456273,29.0867677 L559.617133,29.0867677" id="Stroke-92" stroke="#221F20" stroke-width="2" mask="url(#mask-2)"></path>
                    <polygon id="Stroke-93" stroke="#221F20" stroke-width="2" stroke-linecap="round" stroke-linejoin="round" mask="url(#mask-2)" points="448.304486 53.7762601 458.721417 71.8185584 469.138348 89.8608567 448.304486 89.8608567 427.472126 89.8608567 437.887556 71.8185584"></polygon>
                    <path d="M446.405352,84.8746352 L449.983779,84.8746352 L449.983779,81.3637826 L446.405352,81.3637826 L446.405352,84.8746352 Z M447.557116,79.7570195 L446.405352,64.9372574 L450.204521,64.9372574 L448.841025,79.7570195 L447.557116,79.7570195 Z" id="Fill-94" fill="#221F20" mask="url(#mask-2)"></path>
                    <polygon id="Stroke-95" stroke="#221F20" stroke-width="2" stroke-linecap="round" stroke-linejoin="round" mask="url(#mask-2)" points="417.967146 103.712807 541.651869 103.712807 541.651869 45.2101102 417.967146 45.2101102"></polygon>
                    <path d="M482.124298,90.0727392 C478.949814,90.0727392 476.685329,89.1807604 475.330843,87.3937995 C473.976357,85.6083403 473.299114,82.9804566 473.299114,79.5131519 L478.398709,79.5131519 L478.398709,80.3105269 C478.398709,80.98777 478.421234,81.5764159 478.469287,82.0719597 C478.514336,82.5735101 478.607439,83.0840703 478.748593,83.6081454 C478.885243,84.1337221 479.078956,84.5586885 479.323725,84.884546 C479.569995,85.208902 479.906364,85.4776969 480.33133,85.6894293 C480.756297,85.9026632 481.26085,86.0077786 481.844991,86.0077786 C482.310502,86.0077786 482.732465,85.9537193 483.109379,85.839594 C483.490797,85.7269705 483.813651,85.5873172 484.088453,85.4191327 C484.357248,85.255453 484.602017,85.0121861 484.813749,84.6938368 C485.026983,84.3754874 485.204177,84.0796628 485.340827,83.8078646 C485.481982,83.5360663 485.597609,83.1591527 485.690711,82.6816287 C485.783813,82.2026031 485.851387,81.8031648 485.897939,81.4743039 C485.94449,81.1514496 485.982031,80.693447 486.009061,80.1017978 C486.03609,79.5116502 486.049605,79.0536476 486.049605,78.7262884 L486.049605,77.2621818 L486.049605,76.6044601 C486.049605,76.0338339 486.042097,75.5473 486.028582,75.1388518 C486.016569,74.7364102 485.977526,74.2979291 485.920463,73.82491 C485.858896,73.3548943 485.776305,72.9584592 485.67119,72.6401099 C485.564573,72.3217606 485.418913,72.0034112 485.232709,71.6835603 C485.046504,71.3652109 484.821257,71.1129341 484.555465,70.9267298 C484.289674,70.7405254 483.959311,70.5918623 483.570384,70.4777371 C483.175451,70.3666151 482.735468,70.3095525 482.244429,70.3095525 C481.340438,70.3095525 480.556577,70.6008722 479.892849,71.1865148 C479.229121,71.7706558 478.744088,72.4614138 478.439254,73.2572871 L474.094987,73.2572871 L474.094987,54.012169 L489.874302,54.012169 L489.874302,59.1132665 L478.717059,59.1132665 L478.398709,67.7597546 C479.832783,66.9098219 481.532648,66.4848556 483.498305,66.4848556 C484.654574,66.4848556 485.672691,66.6605484 486.558664,67.0104323 C487.438629,67.3648212 488.166928,67.8453485 488.739056,68.4565191 C489.309682,69.0676898 489.776695,69.8245203 490.144599,70.7270106 C490.507997,71.6310026 490.766281,72.5875522 490.919449,73.5966595 C491.071115,74.6057669 491.149201,75.7289994 491.149201,76.9633539 C491.149201,78.4905297 491.069614,79.8720457 490.910439,81.1079018 C490.751264,82.3422563 490.465951,83.5315614 490.052998,84.6743154 C489.641547,85.8155677 489.103957,86.7721173 488.440228,87.5424626 C487.774998,88.312808 486.908548,88.9254803 485.840876,89.3864861 C484.770201,89.8429871 483.532843,90.0727392 482.124298,90.0727392" id="Fill-96" fill="#221F20" mask="url(#mask-2)"></path>
                    <path d="M503.222599,85.8889983 C505.772397,85.8889983 507.047296,83.7641666 507.047296,79.5130017 L507.047296,64.2127123 C507.047296,63.4964263 507.021768,62.8552227 506.967709,62.2921048 C506.915151,61.7274852 506.804029,61.1538557 506.64035,60.5787246 C506.472165,59.9975869 506.252925,59.5170596 505.981126,59.1326378 C505.707826,58.7467143 505.341424,58.4358732 504.875914,58.1956096 C504.411904,57.9568476 503.8608,57.8382174 503.222599,57.8382174 C502.584399,57.8382174 502.033294,57.9568476 501.569285,58.1956096 C501.103774,58.4358732 500.734369,58.7467143 500.464072,59.1326378 C500.189271,59.5170596 499.97003,59.9975869 499.804849,60.5787246 C499.638166,61.1538557 499.530047,61.7274852 499.47749,62.2921048 C499.42343,62.8552227 499.397902,63.4964263 499.397902,64.2127123 L499.397902,79.5130017 C499.397902,80.3509212 499.453463,81.1212665 499.566087,81.8240377 C499.678711,82.5283105 499.870921,83.199547 500.145723,83.8362457 C500.41602,84.474446 500.812455,84.977498 501.330523,85.3393952 C501.848592,85.7072989 502.479284,85.8889983 503.222599,85.8889983 M503.222599,90.072589 C501.283972,90.072589 499.632159,89.6145864 498.273168,88.6985813 C496.909672,87.7810745 495.906571,86.5437167 495.262364,84.982003 C494.618157,83.4232926 494.296805,81.5987905 494.296805,79.5130017 L494.296805,64.2127123 C494.296805,60.9316119 495.041622,58.3532826 496.528253,56.4732195 C498.016386,54.5946582 500.247835,53.653125 503.222599,53.653125 C506.183849,53.653125 508.410793,54.5961598 509.907935,56.4822294 C511.399072,58.3682991 512.148394,60.9451267 512.148394,64.2127123 L512.148394,79.5130017 C512.148394,82.7145148 511.387058,85.276326 509.867391,87.1954318 C508.34472,89.1145377 506.131291,90.072589 503.222599,90.072589" id="Fill-97" fill="#221F20" mask="url(#mask-2)"></path>
                    <path d="M524.898735,85.8889983 C527.448533,85.8889983 528.723432,83.7641666 528.723432,79.5130017 L528.723432,64.2127123 C528.723432,63.4964263 528.697904,62.8552227 528.643845,62.2921048 C528.591287,61.7274852 528.480165,61.1538557 528.316486,60.5787246 C528.148301,59.9975869 527.92906,59.5170596 527.657262,59.1326378 C527.383962,58.7467143 527.01756,58.4358732 526.552049,58.1956096 C526.08804,57.9568476 525.536935,57.8382174 524.898735,57.8382174 C524.260535,57.8382174 523.70943,57.9568476 523.245421,58.1956096 C522.77991,58.4358732 522.410505,58.7467143 522.140208,59.1326378 C521.865407,59.5170596 521.646166,59.9975869 521.480985,60.5787246 C521.314302,61.1538557 521.206183,61.7274852 521.153626,62.2921048 C521.099566,62.8552227 521.074038,63.4964263 521.074038,64.2127123 L521.074038,79.5130017 C521.074038,80.3509212 521.129599,81.1212665 521.242223,81.8240377 C521.354846,82.5283105 521.547057,83.199547 521.821859,83.8362457 C522.092155,84.474446 522.48859,84.977498 523.006659,85.3393952 C523.524727,85.7072989 524.15542,85.8889983 524.898735,85.8889983 M524.898735,90.072589 C522.960108,90.072589 521.308295,89.6145864 519.949304,88.6985813 C518.585808,87.7810745 517.582707,86.5437167 516.9385,84.982003 C516.294293,83.4232926 515.972941,81.5987905 515.972941,79.5130017 L515.972941,64.2127123 C515.972941,60.9316119 516.717758,58.3532826 518.204389,56.4732195 C519.692522,54.5946582 521.923971,53.653125 524.898735,53.653125 C527.859985,53.653125 530.086928,54.5961598 531.584071,56.4822294 C533.075207,58.3682991 533.82453,60.9451267 533.82453,64.2127123 L533.82453,79.5130017 C533.82453,82.7145148 533.063194,85.276326 531.543527,87.1954318 C530.020856,89.1145377 527.807427,90.072589 524.898735,90.072589" id="Fill-98" fill="#221F20" mask="url(#mask-2)"></path>
                    <polygon id="Stroke-99" stroke="#221F20" stroke-width="4" mask="url(#mask-2)" points="968.828321 484.729506 968.828321 464.979835 953.383873 464.979835 953.383873 449.535387 933.634201 449.535387 933.634201 464.979835 914.491195 464.979835 914.491195 449.535387 894.741523 449.535387 894.741523 464.979835 879.297076 464.979835 879.297076 484.729506 894.741523 484.729506 894.741523 503.872513 879.297076 503.872513 879.297076 523.622184 894.741523 523.622184 894.741523 539.066632 914.491195 539.066632 914.491195 523.622184 933.634201 523.622184 933.634201 539.066632 953.383873 539.066632 953.383873 523.622184 968.828321 523.622184 968.828321 503.872513 953.383873 503.872513 953.383873 484.729506"></polygon>
                </g>
            </g>
            <g id="Cog4.0" transform="translate(289.118227, 348.251619)">
                <path d="M279.963974,20.2208809 C352.943399,20.2208809 416.253914,34.0584511 433.950764,38.302464 L433.950764,137.433843 L128.067539,137.433843 L128.067539,38.2697075 C145.418707,34.0031745 207.132988,20.2208809 279.963974,20.2208809" id="Fill-1-Copy" fill="#C8C9C4"></path>
                <polygon id="Fill-3" fill="#C8C8C4" points="178.53091 144.189869 384.569172 144.189869 384.569172 363.996161 178.53091 363.996161"></polygon>
                <path d="M194.418016,45.2714075 C175.242871,45.2714075 159.697379,61.4346886 159.697379,81.3731553 C159.697379,101.311622 175.242871,117.472856 194.418016,117.472856 C213.595195,117.472856 229.138654,101.311622 229.138654,81.3731553 C229.138654,61.4346886 213.595195,45.2714075 194.418016,45.2714075" id="Fill-4" fill="#8E8F8B"></path>
                <path d="M367.655188,45.5539322 C348.630516,45.5539322 333.207029,61.5902819 333.207029,81.3731553 C333.207029,101.153981 348.630516,117.190331 367.655188,117.190331 C386.679861,117.190331 402.103348,101.153981 402.103348,81.3731553 C402.103348,61.5902819 386.679861,45.5539322 367.655188,45.5539322" id="Fill-5" fill="#8E8F8B"></path>
                <path d="M79.5908185,263.972168 L79.5460833,264.082721 L48.796714,251.733524 L48.8089145,251.708956 C55.2853555,237.240824 60.4807423,226.918435 66.2800546,217.922683 L92.0821143,237.404606 C87.2649436,244.84033 84.0419737,252.470545 79.5908185,263.972168" id="Fill-7" fill="#C8C8C4"></path>
                <path d="M93.3306339,235.533392 L67.5143402,216.039185 C73.8016732,206.625788 80.9308419,198.493989 91.1833429,188.235066 L106.596663,219.687439 L106.122876,220.186976 C100.614342,225.986922 96.598339,230.7837 93.3306339,235.533392" id="Fill-8" fill="#C8C8C4"></path>
                <path d="M93.3306339,235.533392 L67.5143402,216.039185 C67.9047568,215.45571 68.7648932,214.206869 69.16141,213.631583 C75.700887,218.395605 89.0746869,228.975952 90.752258,230.1818 C94.1155338,225.688019 104.235863,214.86814 104.235863,214.86814 L106.596663,219.687439 L106.122876,220.186976 C100.614342,225.986922 96.598339,230.7837 93.3306339,235.533392" id="Fill-10" fill="#A0A19D"></path>
                <path d="M454.687575,218.891047 L470.239168,187.162291 C480.357463,197.275857 487.572035,205.190645 493.98544,214.434117 L467.951571,234.092106 C464.427655,229.424306 460.29778,224.795404 455.053591,219.275936 L454.687575,218.891047" id="Fill-13" fill="#C8C8C4"></path>
                <path d="M454.687575,218.891047 L457.70517,212.736921 L471.164373,228.775318 C478.574154,223.698062 486.628529,217.515274 492.80199,212.755347 C493.20054,213.31016 493.595024,213.869067 493.98544,214.434117 L467.951571,234.092106 C464.427655,229.424306 460.29778,224.795404 455.053591,219.275936 L454.687575,218.891047" id="Fill-14" fill="#A0A19D"></path>
                <path d="M469.263126,235.87324 L495.231926,216.262339 C501.147144,225.094307 506.482836,235.297954 512.967411,249.776324 L483.179849,262.99971 L483.161548,262.954669 C478.568054,251.086583 474.592719,243.282349 469.263126,235.87324" id="Fill-15" fill="#C8C8C4"></path>
                <path d="M448.627985,80.8572405 C448.627985,102.423295 447.877654,108.68388 440.553277,109.691142 L440.553277,52.0212919 C447.877654,53.028554 448.627985,59.2911857 448.627985,80.8572405" id="Fill-17" fill="#3483AA"></path>
                <path d="M448.556816,89.5827509 C448.253836,104.188051 446.77554,108.835379 440.553277,109.691142 L440.553277,98.1669988 C443.574938,97.745259 446.090278,95.775775 448.556816,89.5827509" id="Fill-18" fill="#2A637F"></path>
                <path d="M279.963974,5.5173109 C307.366334,5.5173109 319.648188,5.9103888 321.270857,14.9532276 C308.057697,14.0913225 294.208077,13.5733604 279.963974,13.5733604 C265.667001,13.5733604 251.821448,14.095417 238.655057,14.963464 C240.271625,5.9103888 252.551446,5.5173109 279.963974,5.5173109" id="Fill-19" fill="#3483AA"></path>
                <path d="M246.965642,14.4680221 C244.167657,14.6174736 241.39814,14.7833033 238.655057,14.963464 C239.608731,9.62825054 244.265261,7.30049239 253.537654,6.28913573 C249.198337,8.8687094 247.84408,11.6816731 246.965642,14.4680221" id="Fill-20" fill="#2B637F"></path>
                <path d="M114.234186,80.8572405 C114.234186,60.1530908 114.929616,53.5567524 121.465026,52.1707434 L121.465026,109.543738 C114.929616,108.155681 114.234186,101.56139 114.234186,80.8572405" id="Fill-21" fill="#3483AA"></path>
                <path d="M121.465026,99.4342656 L121.465026,109.543738 C116.381477,108.464821 114.832011,104.237186 114.392793,92.6720974 C116.879665,97.0880819 118.754478,98.5191311 121.465026,99.4342656" id="Fill-22" fill="#2B637F"></path>
                <path d="M110.598432,219.454049 L108.406406,218.291194 L92.7409422,186.322906 L92.7409422,185.098632 C92.7409422,164.97591 105.895133,147.977338 121.465026,147.977338 L121.465026,222.203547 C117.737768,222.2015 114.045078,221.286365 110.598432,219.454049" id="Fill-24" fill="#3483AA"></path>
                <path d="M110.598432,219.454049 L108.406406,218.291194 L92.7409422,186.322906 L92.7409422,185.098632 C92.7409422,182.582524 92.9463176,180.117598 93.3367341,177.726374 C104.262297,179.093957 117.928909,185.542892 121.465026,204.869221 L121.465026,222.203547 C117.737768,222.2015 114.045078,221.286365 110.598432,219.454049" id="Fill-25" fill="#2B637F"></path>
                <path d="M441.344277,221.401013 C441.079932,221.401013 440.817621,221.388729 440.553277,221.38054 L440.553277,147.541267 C440.817621,147.531031 441.079932,147.514653 441.344277,147.514653 C456.548154,147.514653 468.917445,164.08739 468.917445,184.457833 L468.917445,184.846816 L452.794462,217.746617 L451.125025,218.63309 C447.749548,220.428555 445.189473,221.401013 441.344277,221.401013" id="Fill-26" fill="#3483AA"></path>
                <path d="M441.344277,221.401013 C441.079932,221.401013 440.817621,221.388729 440.553277,221.38054 L440.553277,169.71127 C451.122991,169.705128 463.61022,177.779603 466.257732,190.276205 C464.862807,193.048223 452.794462,217.746617 452.794462,217.746617 L451.125025,218.63309 C447.749548,220.428555 445.189473,221.401013 441.344277,221.401013" id="Fill-27" fill="#2A637F"></path>
                <polygon id="Fill-29" fill="#8E8F8C" points="127.561217 144.189869 174.13059 144.189869 174.13059 363.996161 127.561217 363.996161"></polygon>
                <polygon id="Fill-30" fill="#8E8F8C" points="388.971525 144.189869 434.459119 144.189869 434.459119 363.996161 388.971525 363.996161"></polygon>
                <path d="M194.418016,52.8954808 C209.461254,52.8954808 221.700405,65.6705123 221.700405,81.3731553 C221.700405,97.0737509 209.461254,109.848782 194.418016,109.848782 C179.374779,109.848782 167.137661,97.0737509 167.137661,81.3731553 C167.137661,65.6705123 179.374779,52.8954808 194.418016,52.8954808" id="Fill-37-Copy" fill="#4C4C49"></path>
                <path d="M213.827005,101.364851 C208.877662,106.599748 202.004704,109.848782 194.418016,109.848782 C179.374779,109.848782 167.137661,97.0737509 167.137661,81.3731553 C167.137661,73.5218338 170.195923,66.4034388 175.137133,61.2463387 C175.137133,84.704081 188.506866,101.364851 213.827005,101.364851" id="Fill-38-Copy" fill="#393A38"></path>
                <path d="M367.655188,52.8954808 C382.698426,52.8954808 394.937578,65.6705123 394.937578,81.3731553 C394.937578,97.0737509 382.698426,109.848782 367.655188,109.848782 C352.611951,109.848782 340.372799,97.0737509 340.372799,81.3731553 C340.372799,65.6705123 352.611951,52.8954808 367.655188,52.8954808" id="Fill-39-Copy" fill="#4C4C49"></path>
                <path d="M386.938105,101.499972 C381.996896,106.655025 375.176807,109.848782 367.655188,109.848782 C352.611951,109.848782 340.372799,97.0737509 340.372799,81.3731553 C340.372799,73.071432 343.793011,65.5886211 349.240542,60.380339 C349.240542,86.2047377 359.793989,101.499972 386.938105,101.499972" id="Fill-40-Copy" fill="#393A38"></path>
                <path d="M150.925207,173.652285 C144.761913,173.652285 139.7475,178.891277 139.7475,185.329974 C139.7475,191.768672 144.761913,197.009711 150.925207,197.009711 C157.090535,197.009711 162.104947,191.768672 162.104947,185.329974 C162.104947,178.891277 157.090535,173.652285 150.925207,173.652285" id="Fill-41-Copy" fill="#4C4C49"></path>
                <path d="M411.147998,173.652285 C404.984703,173.652285 399.968257,178.891277 399.968257,185.329974 C399.968257,191.768672 404.984703,197.009711 411.147998,197.009711 C417.313326,197.009711 422.327738,191.768672 422.327738,185.329974 C422.327738,178.891277 417.313326,173.652285 411.147998,173.652285" id="Fill-43-Copy" fill="#4C4C49"></path>
                <path d="M143.234815,176.860374 C141.087524,178.991593 139.7475,182.001096 139.7475,185.329974 C139.7475,191.768672 144.761913,197.009711 150.925207,197.009711 C153.865532,197.009711 156.545579,195.816146 158.54443,193.869182 C149.833261,193.824142 143.403588,186.935043 143.234815,176.860374" id="Fill-45-Copy" fill="#393A38"></path>
                <path d="M403.030587,177.306681 C401.133407,179.40105 399.968257,182.226297 399.968257,185.329974 C399.968257,191.768672 404.984703,197.009711 411.147998,197.009711 C414.057821,197.009711 416.711433,195.840714 418.704184,193.930601 C408.067367,193.930601 403.030587,189.320125 403.030587,177.306681" id="Fill-47-Copy" fill="#393A38"></path>
                <path d="M258.865213,343.279727 C265.47586,344.913457 271.602553,345.646384 278.585315,345.646384 L280.250686,345.646384 C287.231415,345.646384 293.358108,344.913457 299.970788,343.279727 L302.799274,330.948956 C302.872477,330.330677 303.061585,329.302942 303.549606,328.62734 C304.163699,327.777718 305.101105,327.470626 305.723332,327.265898 L305.875838,327.214716 C308.883265,326.19517 311.866292,324.936092 314.745614,323.470239 L322.383137,318.917087 C325.563405,316.896421 328.611501,314.585041 331.403386,312.066886 L331.519291,311.960427 C331.972744,311.540735 332.733242,310.840565 333.77232,310.721823 C334.593821,310.629695 335.575963,310.967496 336.147354,311.209075 L348.199431,314.8041 C352.870195,309.816925 356.522217,304.809276 359.960729,298.692001 L360.780197,297.234337 C364.220743,291.117063 366.605944,285.388771 368.452289,278.790386 L359.185996,270.2348 C358.752878,269.915424 357.900875,269.215254 357.549094,268.43524 C357.115975,267.477112 357.323384,266.459614 357.445389,265.853619 L357.475891,265.695978 C358.073716,262.563639 358.455999,259.335077 358.608505,256.098326 L358.31976,247.915345 C358.17742,244.08693 357.719901,240.272847 356.955335,236.579552 L356.9228,236.419864 C356.790628,235.815916 356.571019,234.80456 356.98787,233.844385 C357.321351,233.076655 358.106251,232.392863 358.600372,232.016163 L367.730425,223.321362 C365.790543,216.755733 363.317905,211.062246 359.785855,204.9982 L358.944019,203.550773 C355.41197,197.486727 351.684712,192.536403 346.940744,187.620882 L334.945603,191.400162 C334.378279,191.64993 333.394104,192.008204 332.576669,191.924266 C331.537592,191.819854 330.768959,191.131968 330.309406,190.722512 L330.189435,190.614006 C327.779833,188.507354 325.175022,186.544012 322.448207,184.777209 L315.975833,181.128954 C312.647125,179.329395 309.145577,177.798029 305.59726,176.59218 L305.444753,176.543046 C304.859128,176.350601 303.883087,176.029178 303.268994,175.181604 C302.77894,174.503954 302.589832,173.476219 302.518662,172.85794 L299.688143,160.527169 C293.077496,158.893439 286.950803,158.160512 279.96804,158.160512 L278.30267,158.160512 C271.321941,158.160512 265.195248,158.893439 258.582568,160.527169 L255.754081,172.85794 C255.680878,173.476219 255.49177,174.503954 255.00375,175.179557 C254.387623,176.031226 253.409549,176.350601 252.825957,176.543046 L252.673451,176.59218 C249.653823,177.617868 246.652496,178.887182 243.756906,180.361224 L236.170218,184.889809 C232.987917,186.912522 229.939821,189.223902 227.14997,191.74001 L227.029998,191.850563 C226.576545,192.268209 225.81808,192.966331 224.781036,193.085074 C223.955468,193.185391 222.975359,192.8394 222.406002,192.597821 L210.353925,189.002796 C205.68316,193.989972 202.033172,198.99762 198.592626,205.112848 L197.773158,206.572559 C194.332613,212.691881 191.947412,218.420172 190.1031,225.016511 L199.365326,233.57005 C199.865547,233.93856 200.660614,234.610068 201.004262,235.371657 C201.43738,236.327737 201.232005,237.343188 201.107966,237.95123 L201.077465,238.108871 C200.47964,241.24121 200.09939,244.469772 199.94485,247.70857 L200.233596,255.891551 C200.375935,259.722013 200.835488,263.536097 201.59802,267.227344 L201.630555,267.384985 C201.762727,267.988933 201.982337,269.000289 201.565486,269.962511 C201.232005,270.732289 200.447105,271.41608 199.955018,271.790733 L190.820897,280.485534 C192.764846,287.05321 195.235451,292.744651 198.767501,298.808696 L199.609336,300.256124 C203.141386,306.320169 206.868644,311.270494 211.610578,316.186015 L223.607753,312.406735 C224.175077,312.156966 225.151118,311.802787 225.97872,311.884678 C227.015764,311.984995 227.78643,312.676976 228.248016,313.088479 L228.365954,313.19289 C230.775556,315.299542 233.378333,317.262884 236.105149,319.029688 L242.577523,322.677942 C245.908264,324.479549 249.407779,326.010915 252.956096,327.212669 L253.110636,327.265898 C253.732862,327.470626 254.672302,327.777718 255.284361,328.625292 C255.774416,329.302942 255.963524,330.330677 256.034693,330.948956 L258.865213,343.279727" id="Fill-49-Copy" fill="#DDDCD8"></path>
                <path d="M150.925207,137.433843 L158.54443,137.433843 L158.54443,31.7757331 C155.872517,32.2732223 153.330742,32.7625224 150.925207,33.2395388 L150.925207,137.433843" id="Fill-50-Copy" fill="#A0A19D"></path>
                <path d="M141.526742,35.1824082 C135.73963,36.4292021 131.184771,37.5019772 128.067539,38.2697075 L128.067539,137.433843 L141.526742,137.433843 L141.526742,35.1824082" id="Fill-51-Copy" fill="#A0A19D"></path>
                <path d="M336.820416,240.674114 C345.970803,235.355278 349.106336,223.577272 343.823512,214.364509 C338.540688,205.151746 326.840393,201.996887 317.692039,207.313675 C311.254232,211.056104 307.811653,217.996385 308.165468,224.989896 L242.219641,263.32318 C236.304424,259.511143 228.532695,259.083262 222.058287,262.905535 C215.360203,266.858834 211.927791,274.249517 212.631355,281.55012 L226.334568,273.461314 L234.445879,278.104547 L234.508915,287.501565 L220.805701,295.588324 C226.788021,299.772965 234.870863,300.366677 241.568947,296.413378 C248.075889,292.574726 251.500168,285.491135 251.046715,278.397308 L316.85427,240.143868 C322.69425,243.947715 330.384643,244.416543 336.820416,240.674114 L336.820416,240.674114 Z M327.257244,233.389889 L319.174401,228.69138 L319.174401,219.296409 L327.25521,214.597899 L335.338053,219.296409 L335.338053,228.693427 L327.257244,233.389889 L327.257244,233.389889 Z" id="Fill-67-Copy" fill="#3D95BC"></path>
                <path d="M241.16023,207.45289 C232.009842,202.134054 220.309546,205.290961 215.026723,214.503724 C209.743899,223.716488 212.879432,235.494493 222.029819,240.813329 C228.465592,244.555758 236.155984,244.08693 241.995965,240.281036 L307.941792,278.616367 C307.620512,285.679485 311.138328,292.668901 317.661537,296.403141 C324.410457,300.26636 332.485165,299.564143 338.412583,295.301704 L324.605665,287.397154 L324.542629,278.002182 L332.59497,273.250444 L346.401888,281.152947 C347.009881,273.844155 343.479864,266.50056 336.730945,262.637341 C330.175201,258.884675 322.368903,259.439488 316.494354,263.380504 L250.684767,225.127064 C251.038582,218.133553 247.596002,211.195319 241.16023,207.45289 L241.16023,207.45289 Z M239.675834,219.435624 L239.675834,228.830595 L231.595025,233.529104 L223.512182,228.830595 L223.512182,219.435624 L231.595025,214.737114 L239.675834,219.435624 L239.675834,219.435624 Z" id="Fill-68-Copy" fill="#2E7893"></path>
                <path d="M287.995981,289.491522 L287.995981,212.984642 C294.323982,209.83183 298.703967,203.305099 298.754803,195.711735 C298.805638,187.895217 294.252812,181.145333 287.6625,178.021182 L287.556762,194.012492 L279.445452,198.655725 L271.395144,193.903986 L271.498848,177.912677 C264.867867,180.948794 260.227604,187.63726 260.176769,195.453778 C260.125933,203.010291 264.379847,209.571825 270.616344,212.824954 L270.616344,289.491522 C264.424582,292.679138 260.174735,299.150592 260.174735,306.633403 C260.174735,317.271074 268.739498,325.89422 279.305146,325.89422 C289.870793,325.89422 298.435556,317.271074 298.435556,306.633403 C298.435556,299.150592 294.187743,292.679138 287.995981,289.491522 L287.995981,289.491522 Z M287.387988,311.331912 L279.305146,316.030421 L271.224337,311.331912 L271.224337,301.936941 L279.305146,297.238432 L287.387988,301.936941 L287.387988,311.331912 L287.387988,311.331912 Z" id="Fill-69-Copy" fill="#25627F"></path>
                <path d="M194.418016,52.8954808 C209.461254,52.8954808 221.700405,65.6705123 221.700405,81.3731553 C221.700405,97.0737509 209.461254,109.848782 194.418016,109.848782 C179.374779,109.848782 167.137661,97.0737509 167.137661,81.3731553 C167.137661,65.6705123 179.374779,52.8954808 194.418016,52.8954808 M194.418016,49.5174676 C177.497933,49.5174676 163.782518,63.7808722 163.782518,81.3731553 C163.782518,98.9654383 177.497933,113.226796 194.418016,113.226796 C211.3381,113.226796 225.055548,98.9654383 225.055548,81.3731553 C225.055548,63.7808722 211.3381,49.5174676 194.418016,49.5174676" id="Fill-70-Copy" fill="#0B0B0A"></path>
                <path d="M367.655188,52.8954808 C382.698426,52.8954808 394.937578,65.6705123 394.937578,81.3731553 C394.937578,97.0737509 382.698426,109.848782 367.655188,109.848782 C352.611951,109.848782 340.372799,97.0737509 340.372799,81.3731553 C340.372799,65.6705123 352.611951,52.8954808 367.655188,52.8954808 M367.655188,49.5174676 C350.735105,49.5174676 337.019691,63.7808722 337.019691,81.3731553 C337.019691,98.9654383 350.735105,113.226796 367.655188,113.226796 C384.575272,113.226796 398.29272,98.9654383 398.29272,81.3731553 C398.29272,63.7808722 384.575272,49.5174676 367.655188,49.5174676" id="Fill-71-Copy" fill="#0B0B0A"></path>
                <path d="M150.925207,200.387724 C142.911501,200.387724 136.392358,193.631698 136.392358,185.329974 C136.392358,177.028251 142.911501,170.274272 150.925207,170.274272 C158.938913,170.274272 165.46009,177.028251 165.46009,185.329974 C165.46009,193.631698 158.938913,200.387724 150.925207,200.387724 L150.925207,200.387724 Z M150.925207,173.652285 C144.761913,173.652285 139.7475,178.891277 139.7475,185.329974 C139.7475,191.768672 144.761913,197.009711 150.925207,197.009711 C157.090535,197.009711 162.104947,191.768672 162.104947,185.329974 C162.104947,178.891277 157.090535,173.652285 150.925207,173.652285 L150.925207,173.652285 Z" id="Fill-72-Copy" fill="#0B0B0A"></path>
                <path d="M411.147998,200.387724 C403.134291,200.387724 396.613115,193.631698 396.613115,185.329974 C396.613115,177.028251 403.134291,170.274272 411.147998,170.274272 C419.161704,170.274272 425.68288,177.028251 425.68288,185.329974 C425.68288,193.631698 419.161704,200.387724 411.147998,200.387724 L411.147998,200.387724 Z M411.147998,173.652285 C404.984703,173.652285 399.968257,178.891277 399.968257,185.329974 C399.968257,191.768672 404.984703,197.009711 411.147998,197.009711 C417.313326,197.009711 422.327738,191.768672 422.327738,185.329974 C422.327738,178.891277 417.313326,173.652285 411.147998,173.652285 L411.147998,173.652285 Z" id="Fill-74-Copy" fill="#0B0B0A"></path>
                <path d="M563.493818,281.243028 C557.297989,260.751795 539.247324,246.512958 518.183132,245.251833 C504.581589,215.201847 495.270561,202.873123 475.505724,183.057493 C474.922133,159.667311 459.82196,140.865085 441.344277,140.865085 C441.079932,140.865085 440.817621,140.883511 440.553277,140.8917 L440.553277,116.479925 C455.328103,115.085726 455.33827,101.254298 455.33827,80.8572405 C455.33827,60.4581357 455.328103,46.6287546 440.553277,45.2345564 L440.553277,33.0982764 C440.553277,33.0982764 392.074523,20.112375 326.608583,15.3217382 C325.776914,6.18062985 318.855154,3.41270635 313.568264,2.12906135 C305.851437,0.253752233 294.427686,0.253752233 279.963974,0.253752233 C265.500261,0.253752233 254.07651,0.253752233 246.359683,2.12906135 C241.070759,3.41475363 234.146966,6.18472441 233.319364,15.3360691 C168.46345,20.1369424 121.465026,33.0982764 121.465026,33.0982764 L121.465026,45.326684 C107.534069,47.1671894 107.523902,60.8532608 107.523902,80.8572405 C107.523902,100.859173 107.534069,114.547292 121.465026,116.38575 L121.465026,140.4024 C102.251245,140.4024 85.9513546,159.978498 85.2416912,183.499706 C64.8098923,204.023695 56.4688056,216.426121 42.8387949,246.617369 C18.7875093,249.766087 0.187821391,270.787565 0.0922506761,295.440919 C0.0149807361,315.025207 11.4509319,332.830407 29.2230181,340.804565 L34.4997416,343.171222 L34.6339473,296.075576 L64.8708949,296.194319 L64.7183884,343.971708 L70.0683151,341.502688 C87.1266711,333.626799 98.1986401,315.696715 98.2759101,295.825808 C98.3206453,284.127646 92.6514718,273.309815 87.3035786,264.913917 C94.2965081,246.994069 97.9586966,240.039457 109.701694,227.399546 C113.465554,228.986188 117.451056,229.78258 121.465026,229.78258 L121.465026,394.146464 L94.5730532,394.146464 L94.5730532,452.694597 L467.62419,452.694597 L467.62419,394.146464 L440.553277,394.146464 L440.553277,228.030108 C440.817621,228.03625 441.079932,228.052628 441.344277,228.052628 C445.553455,228.052628 448.711356,227.155919 451.95466,225.645026 C464.039272,238.522422 469.4258,246.205866 476.280457,263.507435 C465.326426,276.747199 461.772009,294.300584 466.784388,310.883558 C470.714988,323.887885 479.442424,334.570595 491.356229,340.968348 C498.782277,344.954403 506.88952,346.977116 515.074034,346.977116 C520.01931,346.977116 524.993054,346.238048 529.859027,344.747628 C556.521223,336.57693 571.609195,308.08902 563.493818,281.243028 L563.493818,281.243028 Z M284.860448,371.753307 L434.457085,371.753307 L434.457085,381.045914 L284.860448,381.045914 L284.860448,371.753307 Z M178.53091,144.189869 L384.569172,144.189869 L384.569172,363.996161 L178.53091,363.996161 L178.53091,144.189869 Z M127.561217,144.189869 L174.13059,144.189869 L174.13059,363.996161 L127.561217,363.996161 L127.561217,144.189869 Z M127.561217,371.753307 L277.157855,371.753307 L277.157855,381.045914 L127.561217,381.045914 L127.561217,371.753307 Z M388.971525,144.189869 L434.459119,144.189869 L434.459119,363.996161 L388.971525,363.996161 L388.971525,144.189869 Z M448.627985,80.8572405 C448.627985,102.423295 447.877654,108.68388 440.553277,109.691142 L440.553277,52.0212919 C447.877654,53.028554 448.627985,59.2911857 448.627985,80.8572405 L448.627985,80.8572405 Z M279.963974,5.5173109 C307.366334,5.5173109 319.648188,5.9103888 321.270857,14.9532276 C308.057697,14.0913225 294.208077,13.5733604 279.963974,13.5733604 C265.667001,13.5733604 251.821448,14.095417 238.655057,14.963464 C240.271625,5.9103888 252.551446,5.5173109 279.963974,5.5173109 L279.963974,5.5173109 Z M279.963974,20.2208809 C352.943399,20.2208809 416.253914,34.0584511 433.950764,38.302464 L433.950764,137.433843 L128.067539,137.433843 L128.067539,38.2697075 C145.418707,34.0031745 207.132988,20.2208809 279.963974,20.2208809 L279.963974,20.2208809 Z M114.234186,80.8572405 C114.234186,60.1530908 114.929616,53.5567524 121.465026,52.1707434 L121.465026,109.543738 C114.929616,108.155681 114.234186,101.56139 114.234186,80.8572405 L114.234186,80.8572405 Z M90.752258,295.797146 C90.6953222,310.273468 83.4705828,323.943161 72.2827089,331.579518 L72.418948,288.650089 L27.1326629,288.471976 L27.0106577,331.045178 C15.0114494,323.421105 7.55896699,310.025747 7.61590274,295.469581 C7.69723951,273.954709 24.4221147,255.705248 45.689649,253.926161 L47.7840711,253.752143 L79.2797053,266.400243 L79.9527672,267.430025 C85.0037811,275.146226 90.7929264,285.341684 90.752258,295.797146 L90.752258,295.797146 Z M79.5908185,263.972168 L79.5460833,264.082721 L48.796714,251.733524 L48.8089145,251.708956 C55.2853555,237.240824 60.4807423,226.918435 66.2800546,217.922683 L92.0821143,237.404606 C87.2649436,244.84033 84.0419737,252.470545 79.5908185,263.972168 L79.5908185,263.972168 Z M93.3306339,235.533392 L67.5143402,216.039185 C73.8016732,206.625788 80.9308419,198.493989 91.1833429,188.235066 L106.596663,219.687439 L106.122876,220.186976 C100.614342,225.986922 96.598339,230.7837 93.3306339,235.533392 L93.3306339,235.533392 Z M110.598432,219.454049 L108.406406,218.291194 L92.7409422,186.322906 L92.7409422,185.098632 C92.7409422,164.97591 105.895133,147.977338 121.465026,147.977338 L121.465026,222.203547 C117.737768,222.2015 114.045078,221.286365 110.598432,219.454049 L110.598432,219.454049 Z M127.561217,385.47623 L277.157855,385.47623 L277.157855,394.144416 L127.561217,394.144416 L127.561217,385.47623 Z M100.872587,400.488939 L277.157855,400.488939 L277.157855,446.352121 L100.872587,446.352121 L100.872587,400.488939 Z M284.860448,400.488939 L461.324657,400.488939 L461.324657,446.352121 L284.860448,446.352121 L284.860448,400.488939 Z M284.860448,385.47623 L434.457085,385.47623 L434.457085,394.144416 L284.860448,394.144416 L284.860448,385.47623 Z M441.344277,221.401013 C441.079932,221.401013 440.817621,221.388729 440.553277,221.38054 L440.553277,147.541267 C440.817621,147.531031 441.079932,147.514653 441.344277,147.514653 C456.548154,147.514653 468.917445,164.08739 468.917445,184.457833 L468.917445,184.846816 L452.794462,217.746617 L451.125025,218.63309 C447.749548,220.428555 445.189473,221.401013 441.344277,221.401013 L441.344277,221.401013 Z M454.687575,218.891047 L470.239168,187.162291 C480.357463,197.275857 487.572035,205.190645 493.98544,214.434117 L467.951571,234.092106 C464.427655,229.424306 460.29778,224.795404 455.053591,219.275936 L454.687575,218.891047 L454.687575,218.891047 Z M469.263126,235.87324 L495.231926,216.262339 C501.147144,225.094307 506.482836,235.297954 512.967411,249.776324 L483.179849,262.99971 L483.161548,262.954669 C478.568054,251.086583 474.592719,243.282349 469.263126,235.87324 L469.263126,235.87324 Z M533.311773,336.32921 L528.004548,324.647426 L544.517948,302.581835 L533.01896,275.31615 L503.817023,271.710889 L486.11204,295.369265 L497.611027,322.632902 L524.995087,326.015009 L530.257577,337.598524 C529.493011,337.879001 528.720312,338.145147 527.933378,338.386727 C516.704836,341.826158 504.819499,340.659208 494.463294,335.098794 C484.107088,329.538379 476.5204,320.251914 473.104256,308.94683 C468.56973,293.952546 472.09568,278.043128 482.537289,266.390006 L483.556032,265.253766 L513.908884,251.780611 L515.956538,251.81951 C535.04628,252.171642 551.610515,264.774702 557.17395,283.179755 C563.662592,304.641399 553.08271,327.300702 533.311773,336.32921 L533.311773,336.32921 Z M501.572128,317.340681 L492.64745,296.175893 L506.389299,277.809738 L529.055826,280.610418 L537.982537,301.775206 L524.240689,320.139314 L501.572128,317.340681 L501.572128,317.340681 Z" id="Fill-76-Copy" fill="#0B0B0A"></path>
                <path d="M279.963974,103.469456 C258.710673,103.469456 241.16633,96.7543751 240.430232,96.4677558 C237.835589,95.4604937 236.544368,92.5287878 237.54481,89.9185049 C238.543219,87.308222 241.455076,86.010246 244.045652,87.0113663 C244.222559,87.0789266 260.662756,93.3354164 279.963974,93.3354164 C299.4665,93.3354164 318.196327,87.0072717 318.383401,86.943806 C321.016679,86.0409553 323.8716,87.4617681 324.766305,90.1109493 C325.661009,92.7601305 324.25185,95.6386072 321.620605,96.5373634 C320.793003,96.8198881 301.11357,103.469456 279.963974,103.469456" id="Fill-77-Copy" fill="#0B0B0A"></path>
                <path d="M280.250686,349.024397 L278.585315,349.024397 C270.964059,349.024397 264.320878,348.185012 257.045303,346.301514 L256.057061,346.045604 L252.710052,331.407547 C252.683618,331.159826 252.622615,330.846592 252.56568,330.656195 C252.42944,330.594776 252.205764,330.521074 252.071559,330.476034 L251.882451,330.414616 C248.15926,329.151443 244.484871,327.544328 240.962988,325.63831 L234.376742,321.924543 C231.428284,320.016477 228.695368,317.954865 226.165795,315.743802 L226.019388,315.612776 C225.909584,315.514507 225.722509,315.34663 225.596437,315.260644 C225.456131,315.305684 225.108416,315.430568 224.896941,315.52679 L224.703766,315.600492 L210.660971,320.024666 L209.943174,319.295834 C204.650183,313.929911 200.571144,308.584462 196.71578,301.965603 L195.873945,300.518176 C192.018581,293.899317 189.377169,287.704246 187.311215,280.432305 L187.030603,279.445515 L197.88093,269.133363 C198.078171,268.985958 198.316081,268.773041 198.450287,268.629731 C198.43402,268.478233 198.383184,268.24689 198.354716,268.109722 L198.312015,267.91523 C197.512881,264.039728 197.03096,260.035247 196.880487,256.014388 L196.587675,247.690144 L196.591742,247.620537 C196.748315,244.197484 197.150932,240.784667 197.783326,237.470119 L197.82196,237.277675 C197.850428,237.132318 197.89923,236.886644 197.911431,236.735145 C197.80976,236.643018 197.545415,236.413722 197.32784,236.256082 L197.169233,236.127103 L186.329074,226.113853 L186.593418,225.122969 C188.549568,217.822366 191.097442,211.588397 194.853168,204.910167 L195.67467,203.450456 C199.428362,196.772226 203.426065,191.365358 208.637719,185.919591 L209.345349,185.178476 L223.648421,189.45934 C223.874131,189.557609 224.17711,189.657926 224.366218,189.702966 C224.490257,189.612886 224.663098,189.453198 224.764769,189.356976 L224.913208,189.223902 C227.841332,186.58291 231.039901,184.154835 234.419444,182.009285 L242.146438,177.400856 C245.279938,175.799883 248.429704,174.46915 251.601839,173.392281 L251.78688,173.330862 C251.927186,173.285822 252.167129,173.205978 252.303368,173.140465 C252.331836,173.007392 252.400973,172.663449 252.42944,172.395255 L252.461975,172.192574 L255.774416,157.761293 L256.762657,157.505383 C264.038232,155.621884 270.681414,154.782499 278.30267,154.782499 L279.96804,154.782499 C287.59133,154.782499 294.234511,155.621884 301.510086,157.505383 L302.496295,157.761293 L305.843303,172.39935 C305.869738,172.645023 305.932774,172.960305 305.987676,173.150702 C306.125949,173.214167 306.349625,173.285822 306.48383,173.330862 L306.668872,173.392281 C310.394096,174.655453 314.068485,176.262568 317.590368,178.168587 L324.176613,181.882354 C327.125072,183.790419 329.857987,185.852031 332.387561,188.065141 L332.536001,188.196167 C332.645805,188.294437 332.83288,188.460267 332.956919,188.546252 C333.087057,188.50326 333.416471,188.388612 333.660482,188.278059 L333.84959,188.206404 L347.892385,183.78223 L348.610182,184.511062 C353.903173,189.876985 357.982212,195.222435 361.837575,201.843341 L362.681444,203.288721 C366.534774,209.909627 369.176186,216.104698 371.24214,223.374592 L371.522752,224.361381 L360.672426,234.673534 C360.475184,234.820938 360.237274,235.033855 360.103069,235.177165 C360.119336,235.328664 360.168138,235.560006 360.198639,235.699221 L360.241341,235.893713 C361.040475,239.769215 361.522395,243.773697 361.672868,247.792509 L361.965681,256.118799 L361.961614,256.186359 C361.803007,259.607365 361.402424,263.02223 360.77003,266.336777 L360.731395,266.527174 C360.702927,266.674578 360.652092,266.922299 360.641925,267.071751 C360.743596,267.163878 361.005907,267.393174 361.223483,267.550815 L361.382089,267.679793 L372.226315,277.693043 L371.959938,278.683927 C370.001755,285.986577 367.455913,292.220547 363.700188,298.898777 L362.88072,300.35644 C359.124994,307.032623 355.127291,312.439491 349.913604,317.889352 L349.208007,318.628421 L334.906968,314.349604 C334.681258,314.249287 334.376245,314.14897 334.187137,314.10393 C334.063099,314.194011 333.890258,314.355746 333.786554,314.451968 L333.642181,314.580947 C330.70999,317.226033 327.511421,319.652061 324.133911,321.797611 L316.309313,326.459269 C313.271385,328.007013 310.121618,329.339793 306.951517,330.414616 L306.762409,330.476034 C306.624136,330.523121 306.38826,330.600918 306.249987,330.666431 C306.223553,330.799504 306.154416,331.143448 306.125949,331.409594 L306.09138,331.614322 L302.77894,346.045604 L301.790698,346.301514 C294.515123,348.185012 287.871942,349.024397 280.250686,349.024397 L280.250686,349.024397 Z M258.865213,343.279727 C265.47586,344.913457 271.602553,345.646384 278.585315,345.646384 L280.250686,345.646384 C287.231415,345.646384 293.358108,344.913457 299.970788,343.279727 L302.799274,330.948956 C302.872477,330.330677 303.061585,329.302942 303.549606,328.62734 C304.163699,327.777718 305.101105,327.470626 305.723332,327.265898 L305.875838,327.214716 C308.883265,326.19517 311.866292,324.936092 314.745614,323.470239 L322.383137,318.917087 C325.563405,316.896421 328.611501,314.585041 331.403386,312.066886 L331.519291,311.960427 C331.972744,311.540735 332.733242,310.840565 333.77232,310.721823 C334.593821,310.629695 335.575963,310.967496 336.147354,311.209075 L348.199431,314.8041 C352.870195,309.816925 356.522217,304.809276 359.960729,298.692001 L360.780197,297.234337 C364.220743,291.117063 366.605944,285.388771 368.452289,278.790386 L359.185996,270.2348 C358.752878,269.915424 357.900875,269.215254 357.549094,268.43524 C357.115975,267.477112 357.323384,266.459614 357.445389,265.853619 L357.475891,265.695978 C358.073716,262.563639 358.455999,259.335077 358.608505,256.098326 L358.31976,247.915345 C358.17742,244.08693 357.719901,240.272847 356.955335,236.579552 L356.9228,236.419864 C356.790628,235.815916 356.571019,234.80456 356.98787,233.844385 C357.321351,233.076655 358.106251,232.392863 358.600372,232.016163 L367.730425,223.321362 C365.790543,216.755733 363.317905,211.062246 359.785855,204.9982 L358.944019,203.550773 C355.41197,197.486727 351.684712,192.536403 346.940744,187.620882 L334.945603,191.400162 C334.378279,191.64993 333.394104,192.008204 332.576669,191.924266 C331.537592,191.819854 330.768959,191.131968 330.309406,190.722512 L330.189435,190.614006 C327.779833,188.507354 325.175022,186.544012 322.448207,184.777209 L315.975833,181.128954 C312.647125,179.329395 309.145577,177.798029 305.59726,176.59218 L305.444753,176.543046 C304.859128,176.350601 303.883087,176.029178 303.268994,175.181604 C302.77894,174.503954 302.589832,173.476219 302.518662,172.85794 L299.688143,160.527169 C293.077496,158.893439 286.950803,158.160512 279.96804,158.160512 L278.30267,158.160512 C271.321941,158.160512 265.195248,158.893439 258.582568,160.527169 L255.754081,172.85794 C255.680878,173.476219 255.49177,174.503954 255.00375,175.179557 C254.387623,176.031226 253.409549,176.350601 252.825957,176.543046 L252.673451,176.59218 C249.653823,177.617868 246.652496,178.887182 243.756906,180.361224 L236.170218,184.889809 C232.987917,186.912522 229.939821,189.223902 227.14997,191.74001 L227.029998,191.850563 C226.576545,192.268209 225.81808,192.966331 224.781036,193.085074 C223.955468,193.185391 222.975359,192.8394 222.406002,192.597821 L210.353925,189.002796 C205.68316,193.989972 202.033172,198.99762 198.592626,205.112848 L197.773158,206.572559 C194.332613,212.691881 191.947412,218.420172 190.1031,225.016511 L199.365326,233.57005 C199.865547,233.93856 200.660614,234.610068 201.004262,235.371657 C201.43738,236.327737 201.232005,237.343188 201.107966,237.95123 L201.077465,238.108871 C200.47964,241.24121 200.09939,244.469772 199.94485,247.70857 L200.233596,255.891551 C200.375935,259.722013 200.835488,263.536097 201.59802,267.227344 L201.630555,267.384985 C201.762727,267.988933 201.982337,269.000289 201.565486,269.962511 C201.232005,270.732289 200.447105,271.41608 199.955018,271.790733 L190.820897,280.485534 C192.764846,287.05321 195.235451,292.744651 198.767501,298.808696 L199.609336,300.256124 C203.141386,306.320169 206.868644,311.270494 211.610578,316.186015 L223.607753,312.406735 C224.175077,312.156966 225.151118,311.802787 225.97872,311.884678 C227.015764,311.984995 227.78643,312.676976 228.248016,313.088479 L228.365954,313.19289 C230.775556,315.299542 233.378333,317.262884 236.105149,319.029688 L242.577523,322.677942 C245.908264,324.479549 249.407779,326.010915 252.956096,327.212669 L253.110636,327.265898 C253.732862,327.470626 254.672302,327.777718 255.284361,328.625292 C255.774416,329.302942 255.963524,330.330677 256.034693,330.948956 L258.865213,343.279727 L258.865213,343.279727 Z" id="Fill-78-Copy" fill="#0B0B0A"></path>
                <path d="M201.134401,59.9340318 L202.22228,57.426113 C199.428362,56.3287705 196.390433,55.7207281 193.212199,55.7207281 C193.145096,56.0339621 193.228466,58.3514838 193.212199,58.6667651 C196.207425,58.6667651 198.741066,59.0537011 201.134401,59.9340318" id="Fill-79-Copy" fill="#FFFFFF"></path>
                <path d="M212.940434,65.5558646 C212.53375,65.0194771 212.104699,64.4994678 211.657347,63.997884 C211.092056,63.3673215 210.496264,62.7633737 209.872004,62.1921824 C208.540115,60.9760977 207.069952,59.913559 205.498119,59.0107082 L204.304502,61.481776 C210.406794,64.9293967 214.646473,70.3587851 217.434291,75.3050153 C217.434291,73.6671907 215.087725,68.3913484 212.940434,65.5558646" id="Fill-80-Copy" fill="#FFFFFF"></path>
                <path d="M374.288203,59.9340318 L375.374049,57.426113 C372.582164,56.3287705 369.544235,55.7207281 366.366001,55.7207281 C366.298898,56.0339621 366.382268,58.3514838 366.366001,58.6667651 C369.359194,58.6667651 371.894868,59.0537011 374.288203,59.9340318" id="Fill-81-Copy" fill="#FFFFFF"></path>
                <path d="M386.092203,65.5558646 C385.685519,65.0194771 385.258501,64.4994678 384.811149,63.997884 C384.245858,63.3673215 383.650066,62.7633737 383.025806,62.1921824 C381.693917,60.9760977 380.223754,59.913559 378.651921,59.0107082 L377.45627,61.481776 C383.560596,64.9293967 387.800275,70.3587851 390.588093,75.3050153 C390.588093,73.6671907 388.241527,68.3913484 386.092203,65.5558646" id="Fill-82-Copy" fill="#FFFFFF"></path>
            </g>
        </g>
    </g>
</svg>