<?xml version="1.0" encoding="UTF-8" standalone="no"?>
<svg width="49px" height="61px" viewBox="0 0 49 61" version="1.1" xmlns="http://www.w3.org/2000/svg" xmlns:xlink="http://www.w3.org/1999/xlink" xmlns:sketch="http://www.bohemiancoding.com/sketch/ns">
    <!-- Generator: Sketch 3.2.2 (9983) - http://www.bohemiancoding.com/sketch -->
    <title>Logo</title>
    <desc>Created with Sketch.</desc>
    <defs></defs>
    <g id="User-Onboarding-(admin)-attempt-2" stroke="none" stroke-width="1" fill="none" fill-rule="evenodd" sketch:type="MSPage">
        <g id="Onboarding-5" sketch:type="MSArtboardGroup" transform="translate(-488.000000, -62.000000)">
            <g id="Logo" sketch:type="MSLayerGroup" transform="translate(490.000000, 64.000000)">
                <rect id="Rectangle-31" fill="#4A4A4A" sketch:type="MSShapeGroup" x="8" y="8" width="29" height="34"></rect>
                <g id="pip" sketch:type="MSShapeGroup">
                    <path d="M3.13727345,11.3803768 L22.5244484,0.00948572159 L41.9374276,11.3803773 L44.9115605,39.3801498 L22.5244484,56.9732382 L0.12999444,39.3801498 L3.13727345,11.3803768 Z" id="Rectangle-103" stroke="#FFFFFF" stroke-width="3"></path>
                    <path d="M10.778944,16.5035069 L22.451564,9.17835465 L34.503669,16.5035069 L35.6966263,33.1656024 L22.451564,42.4759996 L9.7099421,33.1656024 L10.778944,16.5035069 Z" id="Rectangle-104" stroke="#FFFFFF" stroke-width="3"></path>
                    <g id="Logo">
                        <path d="M34.3260124,16.3230577 L41.9128354,11.3632976 L22.5227744,0.020297561 L22.5227744,9.23750392 L34.3260124,16.3230577 Z" id="Fill-16" fill="#5FB245"></path>
                        <path d="M22.5227752,9.14655719 L22.5227744,0.020297561 L3.1332622,11.3632976 L10.8303077,16.5120841 L22.5227752,9.14655719 Z" id="Fill-18" fill="#DE502D"></path>
                        <path d="M9.77760918,32.956429 L0.0998780488,39.3756 L22.5227744,56.9457805 L22.5227746,42.4873878 L9.77760918,32.956429 Z" id="Fill-20" fill="#F6BD31"></path>
                        <path d="M22.5227744,42.5393847 L22.5227744,56.9457805 L44.9456707,39.3756 L35.5524025,33.0539897 L22.5227744,42.5393847 Z" id="Fill-23" fill="#334B8D"></path>
                        <path d="M34.3671743,16.313492 L35.6070264,33.109773 L44.9456707,39.3756 L41.9128354,11.3632976 L34.3671743,16.313492 Z" id="Fill-24" fill="#2068A4"></path>
                        <path d="M0.0998780488,39.3756 L9.74889967,32.9709016 L10.8809515,16.3039303 L3.1332622,11.3632976 L0.0998780488,39.3756 Z" id="Fill-27" fill="#E36D2C"></path>
                    </g>
                </g>
                <g id="Logo/Large" sketch:type="MSShapeGroup">
                    <path d="M17.1356707,38.4964098 L22.5227744,56.9457805 L22.5227744,42.4455366 L17.1356707,38.4964098" id="Fill-10" fill="#EBA72C"></path>
                    <path d="M22.5227744,42.4455366 L22.5227744,56.9457805 L27.9093293,38.4964098 L22.5227744,42.4455366" id="Fill-11" fill="#F6BD31"></path>
                    <path d="M27.2184146,12.0258878 L22.5227744,0.020297561 L22.5227744,9.12973171 L27.2184146,12.0258878" id="Fill-12" fill="#DE502D"></path>
                    <path d="M34.3536585,16.4274 L34.7646951,22.8214098 L41.9128354,11.3632976 L34.3536585,16.4274" id="Fill-13" fill="#334B8D"></path>
                    <path d="M3.1332622,11.3632976 L10.2814024,22.8219659 L10.6918902,16.4274 L3.1332622,11.3632976" id="Fill-14" fill="#DE502D"></path>
                    <path d="M22.5227744,9.12973171 L22.5227744,0.020297561 L17.8271341,12.0258878 L22.5227744,9.12973171" id="Fill-15" fill="#E36D2C"></path>
                    <path d="M29.428628,13.3888829 L41.9128354,11.3632976 L22.5227744,0.020297561 L27.2184146,12.0258878 L29.428628,13.3888829" id="Fill-16" fill="#5FB245"></path>
                    <path d="M34.3536585,16.4274 L41.9128354,11.3632976 L29.428628,13.3888829 L34.3536585,16.4274" id="Fill-17" fill="#7CA040"></path>
                    <path d="M17.8271341,12.0258878 L22.5227744,0.020297561 L3.1332622,11.3632976 L15.6180183,13.3888829 L17.8271341,12.0258878" id="Fill-18" fill="#DE502D"></path>
                    <path d="M3.1332622,11.3632976 L10.6918902,16.4274 L15.6180183,13.3888829 L3.1332622,11.3632976" id="Fill-19" fill="#E36D2C"></path>
                    <path d="M14.7289939,36.7319122 L0.0998780488,39.3756 L22.5227744,56.9457805 L17.1356707,38.4964098 L14.7289939,36.7319122" id="Fill-20" fill="#F6BD31"></path>
                    <path d="M9.62753049,32.9929902 L9.62753049,32.9924341 L0.0998780488,39.3756 L14.7289939,36.7319122 L9.62753049,32.9929902" id="Fill-21" fill="#EBA72C"></path>
                    <path d="M30.3176524,36.7319122 L44.9456707,39.3756 L35.4191159,32.9924341 L35.4191159,32.9929902 L30.3176524,36.7319122" id="Fill-22" fill="#2068A4"></path>
                    <path d="M30.3176524,36.7319122 L27.9093293,38.4964098 L22.5227744,56.9457805 L44.9456707,39.3756 L30.3176524,36.7319122" id="Fill-23" fill="#334B8D"></path>
                    <path d="M41.9128354,11.3632976 L34.7646951,22.8214098 L34.963628,25.9108098 L44.9456707,39.3756 L41.9128354,11.3632976" id="Fill-24" fill="#2068A4"></path>
                    <path d="M44.9456707,39.3756 L34.963628,25.9108098 L35.4191159,32.9924341 L44.9456707,39.3756" id="Fill-25" fill="#389ECD"></path>
                    <path d="M9.62753049,32.9924341 L10.0824695,25.9096976 L0.0998780488,39.3756 L9.62753049,32.9924341" id="Fill-26" fill="#F6BD31"></path>
                    <path d="M3.1332622,11.3632976 L0.0998780488,39.3756 L10.0824695,25.9096976 L10.2814024,22.8219659 L3.1332622,11.3632976" id="Fill-27" fill="#E36D2C"></path>
                </g>
            </g>
        </g>
    </g>
</svg>