<?xml version="1.0" encoding="UTF-8" standalone="no"?>
<svg width="233px" height="48px" viewBox="0 0 233 48" version="1.1" xmlns="http://www.w3.org/2000/svg" xmlns:xlink="http://www.w3.org/1999/xlink" xmlns:sketch="http://www.bohemiancoding.com/sketch/ns">
    <!-- Generator: Sketch 3.3.3 (12072) - http://www.bohemiancoding.com/sketch -->
    <title>White Logo</title>
    <desc>Created with Sketch.</desc>
    <defs></defs>
    <g id="Page-1" stroke="none" stroke-width="1" fill="none" fill-rule="evenodd" sketch:type="MSPage">
        <g id="White-Logo" sketch:type="MSLayerGroup" fill="#FFFFFF">
            <path d="M70.028,32 C68.564,33.465 66.777,34.285 64.404,34.285 C62.031,34.285 60.215,33.465 58.751,32 C56.643,29.892 56.701,27.285 56.701,23.682 C56.701,20.079 56.643,17.472 58.751,15.364 C60.215,13.899 62.031,13.079 64.404,13.079 C66.777,13.079 68.564,13.899 70.028,15.364 C72.136,17.472 72.107,20.079 72.107,23.682 C72.107,27.285 72.136,29.892 70.028,32 L70.028,32 Z M67.011,17.824 C66.425,17.151 65.517,16.711 64.404,16.711 C63.291,16.711 62.354,17.151 61.768,17.824 C60.978,18.703 60.772,19.67 60.772,23.682 C60.772,27.694 60.978,28.661 61.768,29.54 C62.354,30.214 63.291,30.653 64.404,30.653 C65.517,30.653 66.425,30.214 67.011,29.54 C67.802,28.661 68.036,27.694 68.036,23.682 C68.036,19.67 67.802,18.703 67.011,17.824 L67.011,17.824 Z" id="Fill-1" sketch:type="MSShapeGroup"></path>
            <path d="M89.038,26.259 L85.024,26.259 L85.024,34.11 L80.953,34.11 L80.953,13.254 L89.038,13.254 C93.343,13.254 95.921,16.213 95.921,19.757 C95.921,23.301 93.343,26.259 89.038,26.259 L89.038,26.259 Z M88.832,16.887 L85.024,16.887 L85.024,22.598 L88.832,22.598 C90.677,22.598 91.849,21.456 91.849,19.757 C91.849,18.058 90.677,16.887 88.832,16.887 L88.832,16.887 Z" id="Fill-2" sketch:type="MSShapeGroup"></path>
            <path d="M104.034,34.11 L104.034,13.254 L117.771,13.254 L117.771,16.887 L108.105,16.887 L108.105,21.778 L116.336,21.778 L116.336,25.41 L108.105,25.41 L108.105,30.477 L117.771,30.477 L117.771,34.11 L104.034,34.11" id="Fill-3" sketch:type="MSShapeGroup"></path>
            <path d="M137.512,34.11 L133.44,25.79 L130.511,25.79 L130.511,34.11 L126.44,34.11 L126.44,13.254 L134.612,13.254 C138.859,13.254 141.378,16.154 141.378,19.64 C141.378,22.569 139.591,24.385 137.571,25.117 L142.227,34.11 L137.512,34.11 L137.512,34.11 Z M134.349,16.887 L130.511,16.887 L130.511,22.393 L134.349,22.393 C136.135,22.393 137.306,21.251 137.306,19.64 C137.306,18.029 136.135,16.887 134.349,16.887 L134.349,16.887 Z" id="Fill-4" sketch:type="MSShapeGroup"></path>
            <path d="M162.146,34.11 L160.916,30.419 L153.505,30.419 L152.246,34.11 L147.998,34.11 L155.584,13.254 L158.777,13.254 L166.393,34.11 L162.146,34.11 L162.146,34.11 Z M157.283,19.405 L154.647,26.991 L159.832,26.991 L157.283,19.405 L157.283,19.405 Z" id="Fill-5" sketch:type="MSShapeGroup"></path>
            <path d="M182.385,34.11 L173.656,34.11 L173.656,13.254 L182.033,13.254 C186.105,13.254 188.477,15.539 188.477,19.113 C188.477,21.426 186.954,22.921 185.899,23.419 C187.159,24.005 188.77,25.323 188.77,28.105 C188.77,32 186.105,34.11 182.385,34.11 L182.385,34.11 Z M181.711,16.887 L177.727,16.887 L177.727,21.69 L181.711,21.69 C183.44,21.69 184.406,20.723 184.406,19.288 C184.406,17.854 183.44,16.887 181.711,16.887 L181.711,16.887 Z M181.974,25.352 L177.727,25.352 L177.727,30.477 L181.974,30.477 C183.82,30.477 184.699,29.306 184.699,27.9 C184.699,26.494 183.82,25.352 181.974,25.352 L181.974,25.352 Z" id="Fill-6" sketch:type="MSShapeGroup"></path>
            <path d="M197.615,34.11 L197.615,13.254 L201.686,13.254 L201.686,30.477 L211.148,30.477 L211.148,34.11 L197.615,34.11" id="Fill-7" sketch:type="MSShapeGroup"></path>
            <path d="M219.143,34.11 L219.143,13.254 L232.88,13.254 L232.88,16.887 L223.214,16.887 L223.214,21.778 L231.445,21.778 L231.445,25.41 L223.214,25.41 L223.214,30.477 L232.88,30.477 L232.88,34.11 L219.143,34.11" id="Fill-8" sketch:type="MSShapeGroup"></path>
            <path d="M40.496,20.121 C43.441,18.421 44.45,14.655 42.75,11.709 C41.049,8.764 37.283,7.755 34.338,9.455 C32.266,10.652 31.158,12.87 31.271,15.107 L10.043,27.363 C8.139,26.144 5.637,26.007 3.553,27.229 C1.397,28.493 0.292,30.856 0.519,33.19 L4.929,30.604 L7.541,32.089 L7.561,35.093 L3.15,37.679 C5.076,39.017 7.678,39.207 9.834,37.943 C11.928,36.715 13.031,34.45 12.885,32.182 L34.069,19.952 C35.948,21.168 38.424,21.318 40.496,20.121 L40.496,20.121 Z M37.417,17.792 L34.815,16.29 L34.815,13.286 L37.417,11.784 L40.018,13.286 L40.018,16.29 L37.417,17.792 L37.417,17.792 Z" id="Fill-9" sketch:type="MSShapeGroup"></path>
            <path d="M9.702,9.5 C6.756,7.799 2.99,8.808 1.29,11.754 C-0.411,14.699 0.598,18.465 3.544,20.166 C5.616,21.362 8.091,21.212 9.971,19.996 L31.199,32.252 C31.096,34.511 32.228,36.745 34.328,37.939 C36.501,39.174 39.1,38.95 41.008,37.587 L36.563,35.06 L36.544,32.056 L39.135,30.536 L39.437,30.708 L43.58,33.063 C43.776,30.727 42.639,28.378 40.466,27.143 C38.356,25.943 35.843,26.121 33.952,27.381 L12.768,15.151 C12.882,12.915 11.774,10.696 9.702,9.5 L9.702,9.5 Z M9.224,13.331 L9.224,16.335 L6.623,17.837 L4.021,16.335 L4.021,13.331 L6.623,11.829 L9.224,13.331 L9.224,13.331 Z" id="Fill-10" sketch:type="MSShapeGroup"></path>
            <path d="M24.779,35.729 L24.779,11.268 C26.816,10.26 28.226,8.173 28.242,5.746 C28.258,3.247 26.793,1.088 24.671,0.089 L24.638,5.202 L22.026,6.687 L19.435,5.168 L19.468,0.055 C17.334,1.026 15.84,3.164 15.823,5.663 C15.807,8.079 17.176,10.177 19.184,11.217 L19.184,35.729 C17.191,36.749 15.823,38.818 15.823,41.21 C15.823,44.611 18.58,47.368 21.981,47.368 C25.382,47.368 28.139,44.611 28.139,41.21 C28.139,38.818 26.772,36.749 24.779,35.729 L24.779,35.729 Z M24.583,42.712 L21.981,44.214 L19.38,42.712 L19.38,39.708 L21.981,38.206 L24.583,39.708 L24.583,42.712 L24.583,42.712 Z" id="Fill-11" sketch:type="MSShapeGroup"></path>
        </g>
    </g>
</svg>